<svg width="231" height="302" viewBox="0 0 231 302" fill="none" xmlns="http://www.w3.org/2000/svg">
<g filter="url(#filter0_d_4_379)">
<rect x="2" width="227" height="300" rx="8" fill="#151029"/>
<rect x="2" width="227" height="300" rx="8" fill="#858585" fill-opacity="0.12"/>
<rect x="14.5" y="21" width="202" height="158" rx="16" fill="#C0282D"/>
<path d="M55.0078 95.252H57.5625C58.5352 95.252 59.2754 95.4727 59.7832 95.9141C60.0449 96.1445 60.2363 96.4258 60.3574 96.7578C60.4785 97.0859 60.5391 97.457 60.5391 97.8711C60.5391 98.7305 60.2891 99.3809 59.7891 99.8223C59.543 100.041 59.2344 100.207 58.8633 100.32C58.4922 100.43 58.0586 100.484 57.5625 100.484H56.1914V104H55.0078V95.252ZM57.5625 99.5117C57.8555 99.5117 58.1074 99.4727 58.3184 99.3945C58.5293 99.3164 58.7051 99.2109 58.8457 99.0781C59.1504 98.793 59.3027 98.3887 59.3027 97.8652C59.3027 97.3457 59.1504 96.9414 58.8457 96.6523C58.5449 96.3672 58.1172 96.2246 57.5625 96.2246H56.1914V99.5117H57.5625ZM63 97.4375H63.9785L64.084 98.7207C64.2676 98.2559 64.5449 97.8984 64.916 97.6484C65.2832 97.4023 65.7227 97.2793 66.2344 97.2793C66.5 97.2793 66.75 97.3125 66.9844 97.3789C67.0977 97.4102 67.2109 97.4531 67.3242 97.5078C67.4375 97.5586 67.5449 97.6191 67.6465 97.6895V98.791C67.4238 98.6113 67.1895 98.4805 66.9434 98.3984C66.7012 98.3164 66.4375 98.2754 66.1523 98.2754C65.4844 98.2754 64.9727 98.4863 64.6172 98.9082C64.2617 99.3262 64.084 99.9355 64.084 100.736V104H63V97.4375ZM72.0703 104.17C71.6211 104.17 71.2207 104.098 70.8691 103.953C70.5215 103.805 70.2266 103.584 69.9844 103.291C69.7383 102.986 69.5566 102.619 69.4395 102.189C69.3223 101.756 69.2637 101.266 69.2637 100.719C69.2637 99.6094 69.5039 98.7578 69.9844 98.1641C70.4648 97.5742 71.1602 97.2793 72.0703 97.2793C72.5391 97.2793 72.9453 97.3555 73.2891 97.5078C73.6367 97.6562 73.9277 97.875 74.1621 98.1641C74.6426 98.7578 74.8828 99.6074 74.8828 100.713C74.8828 101.271 74.8223 101.768 74.7012 102.201C74.584 102.635 74.4043 102.998 74.1621 103.291C73.9277 103.58 73.6348 103.799 73.2832 103.947C72.9355 104.096 72.5312 104.17 72.0703 104.17ZM72.0703 103.256C72.6211 103.256 73.0371 103.041 73.3184 102.611C73.5996 102.186 73.7402 101.557 73.7402 100.725C73.7402 99.8926 73.5996 99.2617 73.3184 98.832C73.0371 98.4062 72.6211 98.1934 72.0703 98.1934C71.5234 98.1934 71.1094 98.4062 70.8281 98.832C70.5469 99.2617 70.4062 99.8926 70.4062 100.725C70.4062 101.557 70.5469 102.186 70.8281 102.611C71.1094 103.041 71.5234 103.256 72.0703 103.256ZM79.5117 96.248C79.3945 96.248 79.3359 96.1895 79.3359 96.0723V95.0586C79.3359 94.9414 79.3945 94.8828 79.5117 94.8828H80.3555C80.4727 94.8828 80.5312 94.9414 80.5312 95.0586V96.0723C80.5312 96.1895 80.4727 96.248 80.3555 96.248H79.5117ZM77.0859 105.582H78.457C78.8086 105.582 79.0723 105.461 79.248 105.219C79.4238 104.973 79.5117 104.605 79.5117 104.117V98.2754H77.6543V97.4375H80.5898V104.117C80.5898 104.488 80.5469 104.822 80.4609 105.119C80.375 105.416 80.2441 105.67 80.0684 105.881C79.8926 106.092 79.6777 106.246 79.4238 106.344C79.1738 106.445 78.8906 106.496 78.5742 106.496H77.0859V105.582ZM86.8887 104.17C86.3848 104.17 85.9316 104.094 85.5293 103.941C85.1309 103.785 84.791 103.557 84.5098 103.256C84.2285 102.955 84.0137 102.594 83.8652 102.172C83.7207 101.746 83.6484 101.266 83.6484 100.73C83.6484 100.18 83.7227 99.6973 83.8711 99.2832C84.0195 98.8652 84.2246 98.5098 84.4863 98.2168C84.7715 97.9004 85.1055 97.666 85.4883 97.5137C85.8711 97.3574 86.2832 97.2793 86.7246 97.2793C87.1621 97.2793 87.5449 97.3516 87.873 97.4961C88.2051 97.6406 88.4883 97.8496 88.7227 98.123C88.957 98.3965 89.1348 98.7285 89.2559 99.1191C89.3809 99.5059 89.4434 99.9492 89.4434 100.449V100.977H84.7734V101.012C84.7734 101.727 84.9609 102.279 85.3359 102.67C85.5156 102.857 85.7324 103.002 85.9863 103.104C86.2441 103.205 86.5508 103.256 86.9062 103.256C87.2617 103.256 87.623 103.201 87.9902 103.092C88.3691 102.979 88.7695 102.812 89.1914 102.594V103.666C88.9844 103.752 88.7832 103.826 88.5879 103.889C88.3926 103.951 88.1992 104.004 88.0078 104.047C87.8203 104.09 87.6328 104.121 87.4453 104.141C87.2578 104.16 87.0723 104.17 86.8887 104.17ZM88.3652 100.133C88.3574 99.7969 88.3125 99.5098 88.2305 99.2715C88.1523 99.0293 88.0488 98.834 87.9199 98.6855C87.7793 98.5215 87.6055 98.3984 87.3984 98.3164C87.1914 98.2344 86.959 98.1934 86.7012 98.1934C86.1738 98.1934 85.7441 98.3652 85.4121 98.709C85.0762 99.0566 84.877 99.5332 84.8145 100.139L88.3652 100.133ZM94.3242 104.17C93.8359 104.17 93.3906 104.094 92.9883 103.941C92.5898 103.785 92.25 103.557 91.9688 103.256C91.6836 102.951 91.4688 102.588 91.3242 102.166C91.1836 101.74 91.1133 101.26 91.1133 100.725C91.1133 100.166 91.1875 99.6758 91.3359 99.2539C91.4883 98.832 91.7012 98.4766 91.9746 98.1875C92.2637 97.8828 92.6055 97.6562 93 97.5078C93.3984 97.3555 93.8418 97.2793 94.3301 97.2793C94.5098 97.2793 94.6758 97.2891 94.8281 97.3086C94.9805 97.3281 95.1309 97.3594 95.2793 97.4023C95.5762 97.4844 95.8789 97.6113 96.1875 97.7832V98.9141C96.043 98.7891 95.9004 98.6797 95.7598 98.5859C95.6191 98.4922 95.4766 98.418 95.332 98.3633C95.0391 98.25 94.7148 98.1934 94.3594 98.1934C93.6797 98.1934 93.1582 98.4121 92.7949 98.8496C92.4316 99.291 92.25 99.9141 92.25 100.719C92.25 101.094 92.291 101.441 92.373 101.762C92.459 102.082 92.5996 102.359 92.7949 102.594C93.1621 103.035 93.6895 103.256 94.377 103.256C94.5723 103.256 94.75 103.24 94.9102 103.209C95.0742 103.178 95.2246 103.135 95.3613 103.08C95.5371 103.014 95.6875 102.938 95.8125 102.852C95.9414 102.762 96.0664 102.66 96.1875 102.547V103.666C96.0547 103.744 95.9102 103.816 95.7539 103.883C95.5977 103.949 95.4453 104.004 95.2969 104.047C95.1602 104.086 95.0098 104.115 94.8457 104.135C94.6855 104.158 94.5117 104.17 94.3242 104.17ZM102.111 104.023C101.307 104.023 100.736 103.861 100.4 103.537C100.068 103.217 99.9023 102.658 99.9023 101.861V98.2754H98.1504V97.4375H99.9023V95.7207L100.98 95.252V97.4375H103.43V98.2754H100.98V101.861C100.98 102.342 101.072 102.68 101.256 102.875C101.436 103.066 101.756 103.162 102.217 103.162H103.43V104.023H102.111ZM114.867 96.248H112.119V95.252H118.793V96.248H116.057V104H114.867V96.248ZM120.217 94.8828H121.295V98.4219C121.49 98.043 121.75 97.7578 122.074 97.5664C122.398 97.375 122.785 97.2793 123.234 97.2793C123.586 97.2793 123.885 97.3359 124.131 97.4492C124.377 97.5625 124.58 97.7246 124.74 97.9355C125.068 98.377 125.232 99.043 125.232 99.9336V104H124.148V99.9336C124.148 99.3438 124.045 98.9102 123.838 98.6328C123.631 98.3555 123.305 98.2168 122.859 98.2168C122.602 98.2168 122.377 98.2617 122.186 98.3516C121.998 98.4414 121.838 98.5742 121.705 98.75C121.432 99.1055 121.295 99.6191 121.295 100.291V104H120.217V94.8828ZM129.434 104.17C128.766 104.17 128.268 103.949 127.939 103.508C127.611 103.07 127.447 102.406 127.447 101.516V97.4492H128.525V101.516C128.525 102.109 128.631 102.543 128.842 102.816C128.943 102.949 129.07 103.053 129.223 103.127C129.379 103.197 129.574 103.232 129.809 103.232C130.316 103.232 130.705 103.053 130.975 102.693C131.244 102.338 131.379 101.826 131.379 101.158V97.4492H132.463V104H131.484L131.379 103.016C131.184 103.398 130.924 103.686 130.6 103.877C130.268 104.072 129.879 104.17 129.434 104.17ZM134.174 97.4375H135.059L135.152 98C135.281 97.7656 135.443 97.5859 135.639 97.4609C135.83 97.3398 136.051 97.2793 136.301 97.2793C136.59 97.2793 136.836 97.3477 137.039 97.4844C137.23 97.6172 137.383 97.8242 137.496 98.1055C137.633 97.8203 137.803 97.6113 138.006 97.4785C138.209 97.3457 138.455 97.2793 138.744 97.2793C139.014 97.2793 139.242 97.332 139.43 97.4375C139.617 97.5391 139.762 97.6895 139.863 97.8887C140.078 98.2949 140.186 99.0645 140.186 100.197V104H139.201V100.244C139.201 99.9941 139.197 99.7754 139.189 99.5879C139.186 99.4004 139.176 99.2383 139.16 99.1016C139.148 98.9609 139.133 98.8438 139.113 98.75C139.094 98.6523 139.07 98.5742 139.043 98.5156C139 98.4141 138.934 98.334 138.844 98.2754C138.754 98.2129 138.627 98.1816 138.463 98.1816C138.314 98.1816 138.189 98.2109 138.088 98.2695C137.986 98.3242 137.906 98.4141 137.848 98.5391C137.781 98.6758 137.734 98.8789 137.707 99.1484C137.68 99.4141 137.666 99.7793 137.666 100.244V104H136.682V100.244C136.682 99.959 136.678 99.7188 136.67 99.5234C136.662 99.3242 136.65 99.1582 136.635 99.0254C136.619 98.8926 136.6 98.7871 136.576 98.709C136.557 98.627 136.535 98.5605 136.512 98.5098C136.461 98.4082 136.387 98.3281 136.289 98.2695C136.195 98.2109 136.072 98.1816 135.92 98.1816C135.756 98.1816 135.627 98.2148 135.533 98.2812C135.443 98.3438 135.375 98.4277 135.328 98.5332C135.301 98.5918 135.275 98.666 135.252 98.7559C135.232 98.8457 135.215 98.959 135.199 99.0957C135.184 99.2285 135.172 99.3887 135.164 99.5762C135.156 99.7637 135.152 99.9863 135.152 100.244V104H134.174V97.4375ZM144.727 104.17C144.527 104.17 144.346 104.148 144.182 104.105C144.018 104.066 143.855 104.002 143.695 103.912C143.395 103.74 143.154 103.494 142.975 103.174L142.869 104H141.896V94.8828H142.975V98.2754C143.143 97.9551 143.381 97.709 143.689 97.5371C143.99 97.3652 144.344 97.2793 144.75 97.2793C145.125 97.2793 145.469 97.3535 145.781 97.502C146.098 97.6504 146.371 97.877 146.602 98.1816C146.828 98.4863 146.998 98.8516 147.111 99.2773C147.225 99.7031 147.281 100.182 147.281 100.713C147.281 101.783 147.055 102.627 146.602 103.244C146.379 103.549 146.111 103.779 145.799 103.936C145.486 104.092 145.129 104.17 144.727 104.17ZM144.574 103.256C145.094 103.256 145.484 103.043 145.746 102.617C146.012 102.188 146.145 101.557 146.145 100.725C146.145 99.8926 146.012 99.2617 145.746 98.832C145.484 98.4062 145.092 98.1934 144.568 98.1934C144.045 98.1934 143.648 98.4062 143.379 98.832C143.109 99.2617 142.975 99.8926 142.975 100.725C142.975 101.557 143.109 102.186 143.379 102.611C143.648 103.041 144.047 103.256 144.574 103.256ZM149.139 97.4375H150.111L150.217 98.4219C150.412 98.043 150.672 97.7578 150.996 97.5664C151.32 97.375 151.707 97.2793 152.156 97.2793C152.508 97.2793 152.807 97.3359 153.053 97.4492C153.299 97.5625 153.502 97.7246 153.662 97.9355C153.99 98.377 154.154 99.043 154.154 99.9336V104H153.07V99.9336C153.07 99.3438 152.967 98.9102 152.76 98.6328C152.553 98.3555 152.227 98.2168 151.781 98.2168C151.523 98.2168 151.299 98.2617 151.107 98.3516C150.92 98.4414 150.76 98.5742 150.627 98.75C150.354 99.1055 150.217 99.6191 150.217 100.291V104H149.139V97.4375ZM158.232 104.17C157.553 104.17 157.016 103.98 156.621 103.602C156.434 103.422 156.287 103.211 156.182 102.969C156.076 102.723 156.023 102.428 156.023 102.084C156.023 101.361 156.27 100.809 156.762 100.426C157.246 100.047 157.965 99.8574 158.918 99.8574H160.365V99.6875C160.365 99.4375 160.332 99.2148 160.266 99.0195C160.199 98.8242 160.1 98.666 159.967 98.5449C159.838 98.4277 159.668 98.3398 159.457 98.2812C159.246 98.2227 159 98.1934 158.719 98.1934C158.348 98.1934 157.975 98.2461 157.6 98.3516C157.221 98.457 156.855 98.6113 156.504 98.8145V97.7363C156.668 97.6738 156.85 97.6113 157.049 97.5488C157.248 97.4863 157.449 97.4336 157.652 97.3906C158.008 97.3164 158.365 97.2793 158.725 97.2793C159.002 97.2793 159.254 97.3008 159.48 97.3438C159.707 97.3828 159.918 97.4434 160.113 97.5254C160.293 97.6035 160.463 97.7031 160.623 97.8242C160.787 97.9414 160.926 98.0781 161.039 98.2344C161.121 98.3477 161.188 98.4668 161.238 98.5918C161.289 98.7168 161.328 98.8398 161.355 98.9609C161.418 99.2461 161.449 99.6777 161.449 100.256V101.598C161.457 101.824 161.463 102.023 161.467 102.195C161.471 102.367 161.482 102.527 161.502 102.676C161.521 102.84 161.543 102.994 161.566 103.139C161.594 103.283 161.617 103.393 161.637 103.467C161.664 103.588 161.695 103.703 161.73 103.812C161.766 103.918 161.787 103.98 161.795 104H160.711C160.691 103.953 160.666 103.885 160.635 103.795C160.607 103.701 160.58 103.6 160.553 103.49C160.533 103.404 160.514 103.318 160.494 103.232C160.479 103.143 160.467 103.066 160.459 103.004C160.346 103.199 160.199 103.373 160.02 103.525C159.844 103.678 159.67 103.799 159.498 103.889C159.311 103.986 159.111 104.057 158.9 104.1C158.693 104.146 158.471 104.17 158.232 104.17ZM158.455 103.268C159.045 103.268 159.51 103.061 159.85 102.646C160.193 102.225 160.365 101.656 160.365 100.941V100.701H159C158.375 100.701 157.902 100.811 157.582 101.029C157.414 101.143 157.291 101.283 157.213 101.451C157.139 101.615 157.102 101.807 157.102 102.025C157.102 102.229 157.133 102.406 157.195 102.559C157.258 102.707 157.346 102.834 157.459 102.939C157.572 103.041 157.709 103.121 157.869 103.18C158.033 103.238 158.229 103.268 158.455 103.268ZM165.521 96.248C165.404 96.248 165.346 96.1895 165.346 96.0723V95.0586C165.346 94.9414 165.404 94.8828 165.521 94.8828H166.365C166.482 94.8828 166.541 94.9414 166.541 95.0586V96.0723C166.541 96.1895 166.482 96.248 166.365 96.248H165.521ZM167.49 104.047C167.178 104.047 166.896 103.998 166.646 103.9C166.4 103.803 166.184 103.645 165.996 103.426C165.641 103.012 165.463 102.426 165.463 101.668V98.2812H164.027V97.4375H166.541V101.668C166.541 102.156 166.631 102.521 166.811 102.764C166.904 102.893 167.016 102.986 167.145 103.045C167.277 103.104 167.428 103.133 167.596 103.133H168.855V104.047H167.49ZM174.498 104.047C174.186 104.047 173.904 103.998 173.654 103.9C173.408 103.803 173.191 103.645 173.004 103.426C172.648 103.012 172.471 102.426 172.471 101.668V95.7266H170.742V94.8828H173.549V101.668C173.549 102.156 173.639 102.521 173.818 102.764C173.912 102.893 174.023 102.986 174.152 103.045C174.285 103.104 174.436 103.133 174.604 103.133H175.863V104.047H174.498Z" fill="white"/>
<path d="M15.9453 210V192.504H20.6914C23.0938 192.504 24.8398 192.938 25.9062 193.793C26.9609 194.648 27.4883 196.043 27.4883 197.977C27.4883 199.91 26.9609 201.305 25.9062 202.16C24.8398 203.016 23.0938 203.449 20.6914 203.449H19.4023V210H15.9453ZM19.4023 200.543H20.8203C21.957 200.543 22.7539 200.355 23.2109 199.969C23.668 199.582 23.8906 198.926 23.8906 197.977C23.8906 197.027 23.668 196.371 23.2109 195.984C22.7539 195.598 21.957 195.41 20.8203 195.41H19.4023V200.543ZM31.2852 210V196.875H34.3789L34.7188 198.914C35.0586 198.152 35.5742 197.578 36.2656 197.168C36.9688 196.758 37.7891 196.559 38.668 196.559C39.1367 196.559 39.6641 196.617 40.0859 196.723C40.543 196.852 41.0234 197.039 41.3633 197.227V200.496C40.9883 200.156 40.5547 199.898 40.0508 199.723C39.5469 199.547 38.9961 199.465 38.3984 199.465C37.6602 199.465 37.0273 199.594 36.4883 199.84C35.9375 200.086 35.5156 200.461 35.2227 200.941C35.0703 201.188 34.918 201.551 34.8359 202.031C34.7539 202.488 34.7188 203.027 34.7188 203.953V210H31.2852ZM50.1523 210.34C48.1484 210.34 46.6953 209.602 45.7109 208.488C44.6211 207.258 44.0703 205.5 44.0703 203.438C44.0703 201.34 44.6328 199.629 45.7109 198.41C46.7891 197.191 48.3008 196.559 50.1406 196.559C52.0625 196.559 53.5508 197.238 54.582 198.398C55.6133 199.559 56.2227 201.234 56.2227 203.449C56.2227 205.547 55.6719 207.246 54.5938 208.477C53.5625 209.648 52.0625 210.34 50.1523 210.34ZM50.1406 207.551C50.9727 207.551 51.6172 207.188 52.0859 206.473C52.5547 205.746 52.7891 204.738 52.7891 203.438C52.7891 202.16 52.5547 201.152 52.0859 200.426C51.6055 199.676 50.9375 199.348 50.1406 199.348C49.2617 199.348 48.6406 199.758 48.207 200.426C47.7383 201.152 47.5039 202.16 47.5039 203.438C47.5039 204.738 47.7383 205.746 48.207 206.473C48.6758 207.188 49.3203 207.551 50.1406 207.551ZM67.3086 195.316H64.5781C64.3438 195.316 64.2266 195.199 64.2266 194.965V191.66C64.2266 191.426 64.3438 191.309 64.5781 191.309H67.3086C67.543 191.309 67.6602 191.426 67.6602 191.66V194.965C67.6602 195.199 67.543 195.316 67.3086 195.316ZM59.375 214.969V212.332H62.1172C62.8906 212.332 63.4297 212.121 63.7461 211.688C64.0625 211.254 64.2266 210.516 64.2266 209.496V199.512H60.7461V196.875H67.6602V209.496C67.6602 211.465 67.3086 212.871 66.6055 213.715C65.9141 214.523 64.7539 214.969 63.0781 214.969H59.375ZM79.6367 210.34C77.3516 210.34 75.7227 209.754 74.5508 208.57C73.3906 207.387 72.8047 205.699 72.8047 203.508C72.8047 201.316 73.3555 199.676 74.4805 198.422C75.5938 197.18 77.1172 196.559 79.0742 196.559C80.9141 196.559 82.4727 197.098 83.5859 198.281C84.6992 199.465 85.1914 201.141 85.1914 203.156V204.551H76.2969C76.3086 205.594 76.6133 206.355 77.2109 206.859C77.8086 207.363 78.7109 207.621 79.8945 207.621C80.6797 207.621 81.4648 207.504 82.2383 207.281C82.9531 207.059 83.75 206.73 84.6406 206.203V209.355C83.8438 209.684 83.0352 209.93 82.2031 210.094C81.3594 210.27 80.4805 210.34 79.6367 210.34ZM76.332 201.984L81.7344 201.973C81.7227 201.059 81.4883 200.367 81.043 199.91C80.6211 199.477 79.9531 199.219 79.0742 199.219C78.2656 199.219 77.6328 199.453 77.1641 199.934C76.6953 200.414 76.4141 201.105 76.332 201.984ZM94.5312 210.34C92.4805 210.34 90.8867 209.73 89.75 208.512C88.6133 207.281 88.0391 205.594 88.0391 203.449C88.0391 201.293 88.6133 199.594 89.7617 198.363C90.9102 197.145 92.4922 196.535 94.4961 196.535C95.2109 196.535 95.9023 196.617 96.5586 196.781C97.2031 196.945 97.8594 197.203 98.5039 197.543V200.684C98 200.25 97.4141 199.91 96.8633 199.688C96.3125 199.465 95.6562 199.348 94.9883 199.348C93.8164 199.348 92.9961 199.723 92.4219 200.414C91.8242 201.129 91.5195 202.148 91.5195 203.449C91.5195 204.75 91.8242 205.758 92.4219 206.473C93.0195 207.176 93.875 207.527 95 207.527C95.6562 207.527 96.2773 207.41 96.8633 207.188C97.3672 207 97.9531 206.684 98.5039 206.18V209.332C97.8828 209.695 97.2969 209.906 96.6406 210.082C95.9844 210.258 95.3398 210.34 94.5312 210.34ZM113.34 210.047H110.457C108.477 210.047 107.152 209.73 106.461 209.098C105.77 208.477 105.418 207.305 105.418 205.605V199.512H102.066V196.875H105.418V193.289L108.852 191.766V196.875H113.34V199.512H108.852V205.77C108.852 206.344 108.992 206.766 109.285 207.023C109.602 207.305 110.082 207.41 110.703 207.41H113.34V210.047ZM135.184 210V195.527H130.742V192.504H143.082V195.527H138.641V210H135.184ZM152.164 195.316H149.434C149.199 195.316 149.082 195.199 149.082 194.965V191.66C149.082 191.426 149.199 191.309 149.434 191.309H152.164C152.398 191.309 152.516 191.426 152.516 191.66V194.965C152.516 195.199 152.398 195.316 152.164 195.316ZM157.367 210.141H153.664C152.035 210.141 150.863 209.719 150.148 208.875C149.434 208.043 149.082 206.637 149.082 204.668V199.512H146.305V196.875H152.516V204.668C152.516 205.688 152.68 206.426 152.996 206.859C153.312 207.293 153.852 207.504 154.625 207.504H157.367V210.141ZM171.184 210.047H168.301C166.32 210.047 164.996 209.73 164.305 209.098C163.613 208.477 163.262 207.305 163.262 205.605V199.512H159.91V196.875H163.262V193.289L166.695 191.766V196.875H171.184V199.512H166.695V205.77C166.695 206.344 166.836 206.766 167.129 207.023C167.445 207.305 167.926 207.41 168.547 207.41H171.184V210.047ZM186.008 210.094H182.305C180.676 210.094 179.504 209.672 178.789 208.828C178.074 207.996 177.723 206.59 177.723 204.621V194.402H174.242V191.766H181.156V204.621C181.156 205.641 181.32 206.379 181.637 206.812C181.953 207.246 182.492 207.457 183.266 207.457H186.008V210.094ZM195.324 210.34C193.039 210.34 191.41 209.754 190.238 208.57C189.078 207.387 188.492 205.699 188.492 203.508C188.492 201.316 189.043 199.676 190.168 198.422C191.281 197.18 192.805 196.559 194.762 196.559C196.602 196.559 198.16 197.098 199.273 198.281C200.387 199.465 200.879 201.141 200.879 203.156V204.551H191.984C191.996 205.594 192.301 206.355 192.898 206.859C193.496 207.363 194.398 207.621 195.582 207.621C196.367 207.621 197.152 207.504 197.926 207.281C198.641 207.059 199.438 206.73 200.328 206.203V209.355C199.531 209.684 198.723 209.93 197.891 210.094C197.047 210.27 196.168 210.34 195.324 210.34ZM192.02 201.984L197.422 201.973C197.41 201.059 197.176 200.367 196.73 199.91C196.309 199.477 195.641 199.219 194.762 199.219C193.953 199.219 193.32 199.453 192.852 199.934C192.383 200.414 192.102 201.105 192.02 201.984Z" fill="white"/>
<rect x="14.5" y="224.5" width="102" height="23" rx="11.5" fill="white"/>
<rect x="14.5" y="224.5" width="102" height="23" rx="11.5" stroke="#C0282D"/>
<path d="M23.0078 239V230.252H25.5625C26.5352 230.252 27.2734 230.475 27.7832 230.914C28.3047 231.377 28.5391 232.045 28.5391 232.871C28.5391 233.732 28.2871 234.383 27.7891 234.822C27.2969 235.262 26.5527 235.484 25.5625 235.484H24.1914V239H23.0078ZM24.1914 234.512H25.5625C26.1484 234.512 26.5645 234.342 26.8457 234.078C27.1504 233.791 27.3027 233.387 27.3027 232.865C27.3027 232.344 27.1504 231.939 26.8457 231.652C26.5469 231.365 26.1191 231.225 25.5625 231.225H24.1914V234.512ZM31 239V232.438H31.9785L32.084 233.721C32.2656 233.258 32.5469 232.9 32.916 232.648C33.2852 232.402 33.7246 232.279 34.2344 232.279C34.498 232.279 34.75 232.314 34.9844 232.379C35.2129 232.443 35.4414 232.549 35.6465 232.689V233.791C35.4238 233.609 35.1895 233.48 34.9434 233.398C34.7031 233.316 34.4395 233.275 34.1523 233.275C33.4844 233.275 32.9746 233.486 32.6172 233.908C32.2598 234.324 32.084 234.934 32.084 235.736V239H31ZM40.0703 239.17C39.1738 239.17 38.4707 238.877 37.9844 238.291C37.4922 237.682 37.2637 236.814 37.2637 235.719C37.2637 234.611 37.5039 233.756 37.9844 233.164C38.4648 232.572 39.1621 232.279 40.0703 232.279C41.0078 232.279 41.6934 232.584 42.1621 233.164C42.6426 233.756 42.8828 234.605 42.8828 235.713C42.8828 236.832 42.6484 237.705 42.1621 238.291C41.6934 238.871 40.9902 239.17 40.0703 239.17ZM40.0703 238.256C40.6211 238.256 41.0371 238.039 41.3184 237.611C41.5996 237.184 41.7402 236.557 41.7402 235.725C41.7402 234.893 41.5996 234.26 41.3184 233.832C41.0371 233.404 40.6211 233.193 40.0703 233.193C39.5254 233.193 39.1094 233.404 38.8281 233.832C38.5469 234.26 38.4062 234.893 38.4062 235.725C38.4062 236.557 38.5469 237.184 38.8281 237.611C39.1094 238.039 39.5254 238.256 40.0703 238.256ZM48.3555 231.248H47.5117C47.3945 231.248 47.3359 231.189 47.3359 231.072V230.059C47.3359 229.941 47.3945 229.883 47.5117 229.883H48.3555C48.4727 229.883 48.5312 229.941 48.5312 230.059V231.072C48.5312 231.189 48.4727 231.248 48.3555 231.248ZM45.0859 241.496V240.582H46.457C46.8086 240.582 47.0723 240.459 47.248 240.219C47.4238 239.973 47.5117 239.604 47.5117 239.117V233.275H45.6543V232.438H48.5898V239.117C48.5898 239.861 48.4199 240.459 48.0684 240.881C47.7168 241.303 47.207 241.496 46.5742 241.496H45.0859ZM54.8887 239.17C53.8809 239.17 53.0723 238.859 52.5098 238.256C51.9473 237.652 51.6484 236.803 51.6484 235.73C51.6484 234.629 51.9648 233.803 52.4863 233.217C53.0547 232.584 53.8398 232.279 54.7246 232.279C55.5977 232.279 56.2539 232.578 56.7227 233.123C57.1914 233.668 57.4434 234.447 57.4434 235.449V235.977H52.7734V236.012C52.7734 236.727 52.9609 237.277 53.3359 237.67C53.6934 238.045 54.1973 238.256 54.9062 238.256C55.2637 238.256 55.6211 238.203 55.9902 238.092C56.3711 237.98 56.7695 237.811 57.1914 237.594V238.666C56.7754 238.836 56.3887 238.959 56.0078 239.047C55.6328 239.135 55.2578 239.17 54.8887 239.17ZM52.8145 235.139L56.3652 235.133C56.3477 234.459 56.1777 233.984 55.9199 233.686C55.6387 233.357 55.2168 233.193 54.7012 233.193C54.1738 233.193 53.7461 233.363 53.4121 233.709C53.0781 234.055 52.8789 234.535 52.8145 235.139ZM62.3242 239.17C61.3457 239.17 60.5312 238.859 59.9688 238.256C59.4004 237.646 59.1133 236.797 59.1133 235.725C59.1133 234.605 59.4297 233.768 59.9746 233.188C60.5547 232.578 61.3516 232.279 62.3301 232.279C62.6875 232.279 62.9805 232.314 63.2793 232.402C63.5781 232.484 63.877 232.613 64.1875 232.783V233.914C63.9004 233.662 63.6191 233.475 63.332 233.363C63.0391 233.252 62.7168 233.193 62.3594 233.193C61.6797 233.193 61.1582 233.41 60.7949 233.85C60.4316 234.289 60.25 234.916 60.25 235.719C60.25 236.469 60.4023 237.125 60.7949 237.594C61.1641 238.033 61.6914 238.256 62.377 238.256C62.7695 238.256 63.0859 238.191 63.3613 238.08C63.7129 237.945 63.9473 237.775 64.1875 237.547V238.666C63.9238 238.824 63.5957 238.959 63.2969 239.047C63.0215 239.123 62.6992 239.17 62.3242 239.17ZM71.4297 239.023H70.1113C69.3086 239.023 68.7344 238.859 68.4004 238.537C68.0664 238.215 67.9023 237.658 67.9023 236.861V233.275H66.1504V232.438H67.9023V230.721L68.9805 230.252V232.438H71.4297V233.275H68.9805V236.861C68.9805 237.342 69.0742 237.682 69.2559 237.875C69.4375 238.068 69.7539 238.162 70.2168 238.162H71.4297V239.023ZM82.8672 239V231.248H80.1191V230.252H86.793V231.248H84.0566V239H82.8672ZM88.1523 241.496V240.594H88.791C89.1426 240.594 89.377 240.477 89.5352 240.318C89.7051 240.137 89.916 239.738 90.2207 238.895L87.6836 232.438H88.8262L90.7715 237.57L92.6875 232.438H93.8301L92.1016 236.891C91.5449 238.332 91.791 237.658 91.416 238.695C90.9473 239.955 90.748 240.365 90.6367 240.57C90.4668 240.869 90.2676 241.098 89.9629 241.268C89.6934 241.42 89.377 241.496 89.0195 241.496H88.1523ZM95.418 241.496V232.438H96.3965L96.502 233.275C96.6836 232.947 96.9238 232.701 97.2227 232.531C97.5215 232.361 97.8672 232.279 98.2598 232.279C99.0391 232.279 99.6719 232.584 100.123 233.199C100.574 233.814 100.797 234.664 100.797 235.736C100.797 236.809 100.568 237.652 100.117 238.256C99.666 238.865 99.0449 239.17 98.2539 239.17C97.8086 239.17 97.498 239.076 97.2109 238.912C96.9062 238.736 96.6719 238.49 96.502 238.174V241.496H95.418ZM98.0957 238.256C98.6172 238.256 99.0098 238.045 99.2734 237.617C99.5371 237.189 99.666 236.562 99.666 235.725C99.666 234.887 99.5371 234.26 99.2734 233.832C99.0098 233.404 98.6172 233.193 98.0957 233.193C97.5742 233.193 97.1758 233.404 96.9062 233.832C96.6367 234.26 96.502 234.893 96.502 235.725C96.502 236.557 96.6367 237.184 96.9062 237.611C97.1758 238.039 97.5742 238.256 98.0957 238.256ZM105.502 239.17C104.494 239.17 103.686 238.859 103.123 238.256C102.561 237.652 102.262 236.803 102.262 235.73C102.262 234.629 102.578 233.803 103.1 233.217C103.668 232.584 104.453 232.279 105.338 232.279C106.211 232.279 106.867 232.578 107.336 233.123C107.805 233.668 108.057 234.447 108.057 235.449V235.977H103.387V236.012C103.387 236.727 103.574 237.277 103.949 237.67C104.307 238.045 104.811 238.256 105.52 238.256C105.877 238.256 106.234 238.203 106.604 238.092C106.984 237.98 107.383 237.811 107.805 237.594V238.666C107.389 238.836 107.002 238.959 106.621 239.047C106.246 239.135 105.871 239.17 105.502 239.17ZM103.428 235.139L106.979 235.133C106.961 234.459 106.791 233.984 106.533 233.686C106.252 233.357 105.83 233.193 105.314 233.193C104.787 233.193 104.359 233.363 104.025 233.709C103.691 234.055 103.492 234.535 103.428 235.139Z" fill="black"/>
<rect x="14.5" y="253.5" width="117" height="23" rx="11.5" fill="white"/>
<rect x="14.5" y="253.5" width="117" height="23" rx="11.5" stroke="#2DA9E1"/>
<path d="M23.0078 268V259.252H25.5625C26.5352 259.252 27.2734 259.475 27.7832 259.914C28.3047 260.377 28.5391 261.045 28.5391 261.871C28.5391 262.732 28.2871 263.383 27.7891 263.822C27.2969 264.262 26.5527 264.484 25.5625 264.484H24.1914V268H23.0078ZM24.1914 263.512H25.5625C26.1484 263.512 26.5645 263.342 26.8457 263.078C27.1504 262.791 27.3027 262.387 27.3027 261.865C27.3027 261.344 27.1504 260.939 26.8457 260.652C26.5469 260.365 26.1191 260.225 25.5625 260.225H24.1914V263.512ZM31 268V261.438H31.9785L32.084 262.721C32.2656 262.258 32.5469 261.9 32.916 261.648C33.2852 261.402 33.7246 261.279 34.2344 261.279C34.498 261.279 34.75 261.314 34.9844 261.379C35.2129 261.443 35.4414 261.549 35.6465 261.689V262.791C35.4238 262.609 35.1895 262.48 34.9434 262.398C34.7031 262.316 34.4395 262.275 34.1523 262.275C33.4844 262.275 32.9746 262.486 32.6172 262.908C32.2598 263.324 32.084 263.934 32.084 264.736V268H31ZM40.0703 268.17C39.1738 268.17 38.4707 267.877 37.9844 267.291C37.4922 266.682 37.2637 265.814 37.2637 264.719C37.2637 263.611 37.5039 262.756 37.9844 262.164C38.4648 261.572 39.1621 261.279 40.0703 261.279C41.0078 261.279 41.6934 261.584 42.1621 262.164C42.6426 262.756 42.8828 263.605 42.8828 264.713C42.8828 265.832 42.6484 266.705 42.1621 267.291C41.6934 267.871 40.9902 268.17 40.0703 268.17ZM40.0703 267.256C40.6211 267.256 41.0371 267.039 41.3184 266.611C41.5996 266.184 41.7402 265.557 41.7402 264.725C41.7402 263.893 41.5996 263.26 41.3184 262.832C41.0371 262.404 40.6211 262.193 40.0703 262.193C39.5254 262.193 39.1094 262.404 38.8281 262.832C38.5469 263.26 38.4062 263.893 38.4062 264.725C38.4062 265.557 38.5469 266.184 38.8281 266.611C39.1094 267.039 39.5254 267.256 40.0703 267.256ZM48.3555 260.248H47.5117C47.3945 260.248 47.3359 260.189 47.3359 260.072V259.059C47.3359 258.941 47.3945 258.883 47.5117 258.883H48.3555C48.4727 258.883 48.5312 258.941 48.5312 259.059V260.072C48.5312 260.189 48.4727 260.248 48.3555 260.248ZM45.0859 270.496V269.582H46.457C46.8086 269.582 47.0723 269.459 47.248 269.219C47.4238 268.973 47.5117 268.604 47.5117 268.117V262.275H45.6543V261.438H48.5898V268.117C48.5898 268.861 48.4199 269.459 48.0684 269.881C47.7168 270.303 47.207 270.496 46.5742 270.496H45.0859ZM54.8887 268.17C53.8809 268.17 53.0723 267.859 52.5098 267.256C51.9473 266.652 51.6484 265.803 51.6484 264.73C51.6484 263.629 51.9648 262.803 52.4863 262.217C53.0547 261.584 53.8398 261.279 54.7246 261.279C55.5977 261.279 56.2539 261.578 56.7227 262.123C57.1914 262.668 57.4434 263.447 57.4434 264.449V264.977H52.7734V265.012C52.7734 265.727 52.9609 266.277 53.3359 266.67C53.6934 267.045 54.1973 267.256 54.9062 267.256C55.2637 267.256 55.6211 267.203 55.9902 267.092C56.3711 266.98 56.7695 266.811 57.1914 266.594V267.666C56.7754 267.836 56.3887 267.959 56.0078 268.047C55.6328 268.135 55.2578 268.17 54.8887 268.17ZM52.8145 264.139L56.3652 264.133C56.3477 263.459 56.1777 262.984 55.9199 262.686C55.6387 262.357 55.2168 262.193 54.7012 262.193C54.1738 262.193 53.7461 262.363 53.4121 262.709C53.0781 263.055 52.8789 263.535 52.8145 264.139ZM62.3242 268.17C61.3457 268.17 60.5312 267.859 59.9688 267.256C59.4004 266.646 59.1133 265.797 59.1133 264.725C59.1133 263.605 59.4297 262.768 59.9746 262.188C60.5547 261.578 61.3516 261.279 62.3301 261.279C62.6875 261.279 62.9805 261.314 63.2793 261.402C63.5781 261.484 63.877 261.613 64.1875 261.783V262.914C63.9004 262.662 63.6191 262.475 63.332 262.363C63.0391 262.252 62.7168 262.193 62.3594 262.193C61.6797 262.193 61.1582 262.41 60.7949 262.85C60.4316 263.289 60.25 263.916 60.25 264.719C60.25 265.469 60.4023 266.125 60.7949 266.594C61.1641 267.033 61.6914 267.256 62.377 267.256C62.7695 267.256 63.0859 267.191 63.3613 267.08C63.7129 266.945 63.9473 266.775 64.1875 266.547V267.666C63.9238 267.824 63.5957 267.959 63.2969 268.047C63.0215 268.123 62.6992 268.17 62.3242 268.17ZM71.4297 268.023H70.1113C69.3086 268.023 68.7344 267.859 68.4004 267.537C68.0664 267.215 67.9023 266.658 67.9023 265.861V262.275H66.1504V261.438H67.9023V259.721L68.9805 259.252V261.438H71.4297V262.275H68.9805V265.861C68.9805 266.342 69.0742 266.682 69.2559 266.875C69.4375 267.068 69.7539 267.162 70.2168 267.162H71.4297V268.023ZM83.2656 268.17C82.8496 268.17 82.4219 268.129 82.0176 268.041C81.6133 267.953 81.168 267.807 80.7695 267.643V266.383C81.2207 266.67 81.6426 266.875 82.0469 267.01C82.4453 267.145 82.8438 267.209 83.248 267.209C83.834 267.209 84.3145 267.074 84.6484 266.811C84.9941 266.535 85.1465 266.154 85.1465 265.656C85.1465 265.217 85.0352 264.918 84.8066 264.689C84.5547 264.432 84.1973 264.285 83.6113 264.15L82.9785 264.004C82.1875 263.822 81.6016 263.57 81.209 263.172C80.8398 262.803 80.6582 262.305 80.6582 261.678C80.6582 260.881 80.9395 260.242 81.4492 259.791C81.9473 259.346 82.6504 259.094 83.541 259.094C83.875 259.094 84.2266 259.129 84.6016 259.205C84.9648 259.281 85.3574 259.393 85.7734 259.551V260.752C85.3984 260.512 85.0469 260.348 84.6953 260.23C84.332 260.113 83.9688 260.055 83.6055 260.055C83.0723 260.055 82.5977 260.178 82.2695 260.441C81.9414 260.705 81.7891 261.08 81.7891 261.525C81.7891 261.924 81.9062 262.182 82.1113 262.375C82.3516 262.604 82.7148 262.756 83.3008 262.891L83.9219 263.031C84.748 263.219 85.3281 263.518 85.709 263.934C86.0898 264.338 86.2773 264.895 86.2773 265.598C86.2773 266.488 85.9844 267.109 85.5098 267.514C84.9941 267.953 84.2324 268.17 83.2656 268.17ZM88.3984 268V258.883H89.5117V264.162L92.3418 261.438H93.6543L91.0703 263.91L94.0586 268H92.7402L90.3145 264.613L89.5117 265.369V268H88.3984ZM98.2129 260.248H97.3691C97.252 260.248 97.1934 260.189 97.1934 260.072V259.059C97.1934 258.941 97.252 258.883 97.3691 258.883H98.2129C98.3301 258.883 98.3887 258.941 98.3887 259.059V260.072C98.3887 260.189 98.3301 260.248 98.2129 260.248ZM100.703 268.047H99.3379C98.7109 268.047 98.2188 267.865 97.8438 267.426C97.4863 267.01 97.3105 266.424 97.3105 265.668V262.281H95.875V261.438H98.3887V265.668C98.3887 266.154 98.4766 266.523 98.6582 266.764C98.8457 267.021 99.1094 267.133 99.4434 267.133H100.703V268.047ZM107.711 268.047H106.346C105.719 268.047 105.227 267.865 104.852 267.426C104.494 267.01 104.318 266.424 104.318 265.668V259.727H102.59V258.883H105.396V265.668C105.396 266.154 105.484 266.523 105.666 266.764C105.854 267.021 106.117 267.133 106.451 267.133H107.711V268.047ZM114.941 268.047H113.576C112.949 268.047 112.457 267.865 112.082 267.426C111.725 267.01 111.549 266.424 111.549 265.668V259.727H109.82V258.883H112.627V265.668C112.627 266.154 112.715 266.523 112.896 266.764C113.084 267.021 113.348 267.133 113.682 267.133H114.941V268.047ZM119.453 268.17C119.107 268.17 118.732 268.135 118.398 268.07C118.094 268.006 117.66 267.895 117.244 267.76V266.646C117.742 266.898 118.064 267.016 118.398 267.109C118.756 267.209 119.084 267.268 119.441 267.268C119.916 267.268 120.285 267.168 120.549 266.975C120.824 266.77 120.941 266.482 120.941 266.201C120.941 265.656 120.496 265.334 119.506 265.129L119.459 265.117L119.055 265.035C118.469 264.918 118.006 264.73 117.695 264.42C117.408 264.133 117.268 263.74 117.268 263.242C117.268 262.609 117.484 262.123 117.906 261.789C118.352 261.432 118.973 261.279 119.74 261.279C120.074 261.279 120.414 261.309 120.742 261.373C121.041 261.438 121.369 261.531 121.697 261.666V262.721C121.387 262.539 121.076 262.404 120.766 262.316C120.455 262.229 120.145 262.182 119.787 262.182C119.336 262.182 118.961 262.258 118.721 262.416C118.48 262.574 118.357 262.82 118.357 263.148C118.357 263.424 118.445 263.658 118.627 263.799C118.809 263.939 119.195 264.074 119.969 264.221L120.402 264.303C120.965 264.414 121.357 264.613 121.621 264.912C121.896 265.211 122.031 265.609 122.031 266.107C122.031 266.781 121.785 267.268 121.34 267.619C120.865 267.994 120.221 268.17 119.453 268.17Z" fill="black"/>
</g>
<defs>
<filter id="filter0_d_4_379" x="0" y="-2" width="231" height="304" filterUnits="userSpaceOnUse" color-interpolation-filters="sRGB">
<feFlood flood-opacity="0" result="BackgroundImageFix"/>
<feColorMatrix in="SourceAlpha" type="matrix" values="0 0 0 0 0 0 0 0 0 0 0 0 0 0 0 0 0 0 127 0" result="hardAlpha"/>
<feOffset/>
<feGaussianBlur stdDeviation="1"/>
<feComposite in2="hardAlpha" operator="out"/>
<feColorMatrix type="matrix" values="0 0 0 0 0.752941 0 0 0 0 0.156863 0 0 0 0 0.176471 0 0 0 0.54 0"/>
<feBlend mode="normal" in2="BackgroundImageFix" result="effect1_dropShadow_4_379"/>
<feBlend mode="normal" in="SourceGraphic" in2="effect1_dropShadow_4_379" result="shape"/>
</filter>
</defs>
</svg>
