<svg width="269" height="340" viewBox="0 0 269 340" fill="none" xmlns="http://www.w3.org/2000/svg">
<g filter="url(#filter0_d_4_381)">
<rect x="10" width="249" height="320" rx="9.6" fill="#151029"/>
<rect x="10" width="249" height="320" rx="9.6" fill="#858585" fill-opacity="0.12"/>
<rect x="20" y="10" width="229" height="179" rx="16" fill="#C0282D"/>
<path d="M74.0078 94.752H76.5625C77.5352 94.752 78.2754 94.9727 78.7832 95.4141C79.0449 95.6445 79.2363 95.9258 79.3574 96.2578C79.4785 96.5859 79.5391 96.957 79.5391 97.3711C79.5391 98.2305 79.2891 98.8809 78.7891 99.3223C78.543 99.541 78.2344 99.707 77.8633 99.8203C77.4922 99.9297 77.0586 99.9844 76.5625 99.9844H75.1914V103.5H74.0078V94.752ZM76.5625 99.0117C76.8555 99.0117 77.1074 98.9727 77.3184 98.8945C77.5293 98.8164 77.7051 98.7109 77.8457 98.5781C78.1504 98.293 78.3027 97.8887 78.3027 97.3652C78.3027 96.8457 78.1504 96.4414 77.8457 96.1523C77.5449 95.8672 77.1172 95.7246 76.5625 95.7246H75.1914V99.0117H76.5625ZM82 96.9375H82.9785L83.084 98.2207C83.2676 97.7559 83.5449 97.3984 83.916 97.1484C84.2832 96.9023 84.7227 96.7793 85.2344 96.7793C85.5 96.7793 85.75 96.8125 85.9844 96.8789C86.0977 96.9102 86.2109 96.9531 86.3242 97.0078C86.4375 97.0586 86.5449 97.1191 86.6465 97.1895V98.291C86.4238 98.1113 86.1895 97.9805 85.9434 97.8984C85.7012 97.8164 85.4375 97.7754 85.1523 97.7754C84.4844 97.7754 83.9727 97.9863 83.6172 98.4082C83.2617 98.8262 83.084 99.4355 83.084 100.236V103.5H82V96.9375ZM91.0703 103.67C90.6211 103.67 90.2207 103.598 89.8691 103.453C89.5215 103.305 89.2266 103.084 88.9844 102.791C88.7383 102.486 88.5566 102.119 88.4395 101.689C88.3223 101.256 88.2637 100.766 88.2637 100.219C88.2637 99.1094 88.5039 98.2578 88.9844 97.6641C89.4648 97.0742 90.1602 96.7793 91.0703 96.7793C91.5391 96.7793 91.9453 96.8555 92.2891 97.0078C92.6367 97.1562 92.9277 97.375 93.1621 97.6641C93.6426 98.2578 93.8828 99.1074 93.8828 100.213C93.8828 100.771 93.8223 101.268 93.7012 101.701C93.584 102.135 93.4043 102.498 93.1621 102.791C92.9277 103.08 92.6348 103.299 92.2832 103.447C91.9355 103.596 91.5312 103.67 91.0703 103.67ZM91.0703 102.756C91.6211 102.756 92.0371 102.541 92.3184 102.111C92.5996 101.686 92.7402 101.057 92.7402 100.225C92.7402 99.3926 92.5996 98.7617 92.3184 98.332C92.0371 97.9062 91.6211 97.6934 91.0703 97.6934C90.5234 97.6934 90.1094 97.9062 89.8281 98.332C89.5469 98.7617 89.4062 99.3926 89.4062 100.225C89.4062 101.057 89.5469 101.686 89.8281 102.111C90.1094 102.541 90.5234 102.756 91.0703 102.756ZM98.5117 95.748C98.3945 95.748 98.3359 95.6895 98.3359 95.5723V94.5586C98.3359 94.4414 98.3945 94.3828 98.5117 94.3828H99.3555C99.4727 94.3828 99.5312 94.4414 99.5312 94.5586V95.5723C99.5312 95.6895 99.4727 95.748 99.3555 95.748H98.5117ZM96.0859 105.082H97.457C97.8086 105.082 98.0723 104.961 98.248 104.719C98.4238 104.473 98.5117 104.105 98.5117 103.617V97.7754H96.6543V96.9375H99.5898V103.617C99.5898 103.988 99.5469 104.322 99.4609 104.619C99.375 104.916 99.2441 105.17 99.0684 105.381C98.8926 105.592 98.6777 105.746 98.4238 105.844C98.1738 105.945 97.8906 105.996 97.5742 105.996H96.0859V105.082ZM105.889 103.67C105.385 103.67 104.932 103.594 104.529 103.441C104.131 103.285 103.791 103.057 103.51 102.756C103.229 102.455 103.014 102.094 102.865 101.672C102.721 101.246 102.648 100.766 102.648 100.23C102.648 99.6797 102.723 99.1973 102.871 98.7832C103.02 98.3652 103.225 98.0098 103.486 97.7168C103.771 97.4004 104.105 97.166 104.488 97.0137C104.871 96.8574 105.283 96.7793 105.725 96.7793C106.162 96.7793 106.545 96.8516 106.873 96.9961C107.205 97.1406 107.488 97.3496 107.723 97.623C107.957 97.8965 108.135 98.2285 108.256 98.6191C108.381 99.0059 108.443 99.4492 108.443 99.9492V100.477H103.773V100.512C103.773 101.227 103.961 101.779 104.336 102.17C104.516 102.357 104.732 102.502 104.986 102.604C105.244 102.705 105.551 102.756 105.906 102.756C106.262 102.756 106.623 102.701 106.99 102.592C107.369 102.479 107.77 102.312 108.191 102.094V103.166C107.984 103.252 107.783 103.326 107.588 103.389C107.393 103.451 107.199 103.504 107.008 103.547C106.82 103.59 106.633 103.621 106.445 103.641C106.258 103.66 106.072 103.67 105.889 103.67ZM107.365 99.6328C107.357 99.2969 107.312 99.0098 107.23 98.7715C107.152 98.5293 107.049 98.334 106.92 98.1855C106.779 98.0215 106.605 97.8984 106.398 97.8164C106.191 97.7344 105.959 97.6934 105.701 97.6934C105.174 97.6934 104.744 97.8652 104.412 98.209C104.076 98.5566 103.877 99.0332 103.814 99.6387L107.365 99.6328ZM113.324 103.67C112.836 103.67 112.391 103.594 111.988 103.441C111.59 103.285 111.25 103.057 110.969 102.756C110.684 102.451 110.469 102.088 110.324 101.666C110.184 101.24 110.113 100.76 110.113 100.225C110.113 99.666 110.188 99.1758 110.336 98.7539C110.488 98.332 110.701 97.9766 110.975 97.6875C111.264 97.3828 111.605 97.1562 112 97.0078C112.398 96.8555 112.842 96.7793 113.33 96.7793C113.51 96.7793 113.676 96.7891 113.828 96.8086C113.98 96.8281 114.131 96.8594 114.279 96.9023C114.576 96.9844 114.879 97.1113 115.188 97.2832V98.4141C115.043 98.2891 114.9 98.1797 114.76 98.0859C114.619 97.9922 114.477 97.918 114.332 97.8633C114.039 97.75 113.715 97.6934 113.359 97.6934C112.68 97.6934 112.158 97.9121 111.795 98.3496C111.432 98.791 111.25 99.4141 111.25 100.219C111.25 100.594 111.291 100.941 111.373 101.262C111.459 101.582 111.6 101.859 111.795 102.094C112.162 102.535 112.689 102.756 113.377 102.756C113.572 102.756 113.75 102.74 113.91 102.709C114.074 102.678 114.225 102.635 114.361 102.58C114.537 102.514 114.688 102.438 114.812 102.352C114.941 102.262 115.066 102.16 115.188 102.047V103.166C115.055 103.244 114.91 103.316 114.754 103.383C114.598 103.449 114.445 103.504 114.297 103.547C114.16 103.586 114.01 103.615 113.846 103.635C113.686 103.658 113.512 103.67 113.324 103.67ZM121.111 103.523C120.307 103.523 119.736 103.361 119.4 103.037C119.068 102.717 118.902 102.158 118.902 101.361V97.7754H117.15V96.9375H118.902V95.2207L119.98 94.752V96.9375H122.43V97.7754H119.98V101.361C119.98 101.842 120.072 102.18 120.256 102.375C120.436 102.566 120.756 102.662 121.217 102.662H122.43V103.523H121.111ZM133.867 95.748H131.119V94.752H137.793V95.748H135.057V103.5H133.867V95.748ZM139.217 94.3828H140.295V97.9219C140.49 97.543 140.75 97.2578 141.074 97.0664C141.398 96.875 141.785 96.7793 142.234 96.7793C142.586 96.7793 142.885 96.8359 143.131 96.9492C143.377 97.0625 143.58 97.2246 143.74 97.4355C144.068 97.877 144.232 98.543 144.232 99.4336V103.5H143.148V99.4336C143.148 98.8438 143.045 98.4102 142.838 98.1328C142.631 97.8555 142.305 97.7168 141.859 97.7168C141.602 97.7168 141.377 97.7617 141.186 97.8516C140.998 97.9414 140.838 98.0742 140.705 98.25C140.432 98.6055 140.295 99.1191 140.295 99.791V103.5H139.217V94.3828ZM148.434 103.67C147.766 103.67 147.268 103.449 146.939 103.008C146.611 102.57 146.447 101.906 146.447 101.016V96.9492H147.525V101.016C147.525 101.609 147.631 102.043 147.842 102.316C147.943 102.449 148.07 102.553 148.223 102.627C148.379 102.697 148.574 102.732 148.809 102.732C149.316 102.732 149.705 102.553 149.975 102.193C150.244 101.838 150.379 101.326 150.379 100.658V96.9492H151.463V103.5H150.484L150.379 102.516C150.184 102.898 149.924 103.186 149.6 103.377C149.268 103.572 148.879 103.67 148.434 103.67ZM153.174 96.9375H154.059L154.152 97.5C154.281 97.2656 154.443 97.0859 154.639 96.9609C154.83 96.8398 155.051 96.7793 155.301 96.7793C155.59 96.7793 155.836 96.8477 156.039 96.9844C156.23 97.1172 156.383 97.3242 156.496 97.6055C156.633 97.3203 156.803 97.1113 157.006 96.9785C157.209 96.8457 157.455 96.7793 157.744 96.7793C158.014 96.7793 158.242 96.832 158.43 96.9375C158.617 97.0391 158.762 97.1895 158.863 97.3887C159.078 97.7949 159.186 98.5645 159.186 99.6973V103.5H158.201V99.7441C158.201 99.4941 158.197 99.2754 158.189 99.0879C158.186 98.9004 158.176 98.7383 158.16 98.6016C158.148 98.4609 158.133 98.3438 158.113 98.25C158.094 98.1523 158.07 98.0742 158.043 98.0156C158 97.9141 157.934 97.834 157.844 97.7754C157.754 97.7129 157.627 97.6816 157.463 97.6816C157.314 97.6816 157.189 97.7109 157.088 97.7695C156.986 97.8242 156.906 97.9141 156.848 98.0391C156.781 98.1758 156.734 98.3789 156.707 98.6484C156.68 98.9141 156.666 99.2793 156.666 99.7441V103.5H155.682V99.7441C155.682 99.459 155.678 99.2188 155.67 99.0234C155.662 98.8242 155.65 98.6582 155.635 98.5254C155.619 98.3926 155.6 98.2871 155.576 98.209C155.557 98.127 155.535 98.0605 155.512 98.0098C155.461 97.9082 155.387 97.8281 155.289 97.7695C155.195 97.7109 155.072 97.6816 154.92 97.6816C154.756 97.6816 154.627 97.7148 154.533 97.7812C154.443 97.8438 154.375 97.9277 154.328 98.0332C154.301 98.0918 154.275 98.166 154.252 98.2559C154.232 98.3457 154.215 98.459 154.199 98.5957C154.184 98.7285 154.172 98.8887 154.164 99.0762C154.156 99.2637 154.152 99.4863 154.152 99.7441V103.5H153.174V96.9375ZM163.727 103.67C163.527 103.67 163.346 103.648 163.182 103.605C163.018 103.566 162.855 103.502 162.695 103.412C162.395 103.24 162.154 102.994 161.975 102.674L161.869 103.5H160.896V94.3828H161.975V97.7754C162.143 97.4551 162.381 97.209 162.689 97.0371C162.99 96.8652 163.344 96.7793 163.75 96.7793C164.125 96.7793 164.469 96.8535 164.781 97.002C165.098 97.1504 165.371 97.377 165.602 97.6816C165.828 97.9863 165.998 98.3516 166.111 98.7773C166.225 99.2031 166.281 99.6816 166.281 100.213C166.281 101.283 166.055 102.127 165.602 102.744C165.379 103.049 165.111 103.279 164.799 103.436C164.486 103.592 164.129 103.67 163.727 103.67ZM163.574 102.756C164.094 102.756 164.484 102.543 164.746 102.117C165.012 101.688 165.145 101.057 165.145 100.225C165.145 99.3926 165.012 98.7617 164.746 98.332C164.484 97.9062 164.092 97.6934 163.568 97.6934C163.045 97.6934 162.648 97.9062 162.379 98.332C162.109 98.7617 161.975 99.3926 161.975 100.225C161.975 101.057 162.109 101.686 162.379 102.111C162.648 102.541 163.047 102.756 163.574 102.756ZM168.139 96.9375H169.111L169.217 97.9219C169.412 97.543 169.672 97.2578 169.996 97.0664C170.32 96.875 170.707 96.7793 171.156 96.7793C171.508 96.7793 171.807 96.8359 172.053 96.9492C172.299 97.0625 172.502 97.2246 172.662 97.4355C172.99 97.877 173.154 98.543 173.154 99.4336V103.5H172.07V99.4336C172.07 98.8438 171.967 98.4102 171.76 98.1328C171.553 97.8555 171.227 97.7168 170.781 97.7168C170.523 97.7168 170.299 97.7617 170.107 97.8516C169.92 97.9414 169.76 98.0742 169.627 98.25C169.354 98.6055 169.217 99.1191 169.217 99.791V103.5H168.139V96.9375ZM177.232 103.67C176.553 103.67 176.016 103.48 175.621 103.102C175.434 102.922 175.287 102.711 175.182 102.469C175.076 102.223 175.023 101.928 175.023 101.584C175.023 100.861 175.27 100.309 175.762 99.9258C176.246 99.5469 176.965 99.3574 177.918 99.3574H179.365V99.1875C179.365 98.9375 179.332 98.7148 179.266 98.5195C179.199 98.3242 179.1 98.166 178.967 98.0449C178.838 97.9277 178.668 97.8398 178.457 97.7812C178.246 97.7227 178 97.6934 177.719 97.6934C177.348 97.6934 176.975 97.7461 176.6 97.8516C176.221 97.957 175.855 98.1113 175.504 98.3145V97.2363C175.668 97.1738 175.85 97.1113 176.049 97.0488C176.248 96.9863 176.449 96.9336 176.652 96.8906C177.008 96.8164 177.365 96.7793 177.725 96.7793C178.002 96.7793 178.254 96.8008 178.48 96.8438C178.707 96.8828 178.918 96.9434 179.113 97.0254C179.293 97.1035 179.463 97.2031 179.623 97.3242C179.787 97.4414 179.926 97.5781 180.039 97.7344C180.121 97.8477 180.188 97.9668 180.238 98.0918C180.289 98.2168 180.328 98.3398 180.355 98.4609C180.418 98.7461 180.449 99.1777 180.449 99.7559V101.098C180.457 101.324 180.463 101.523 180.467 101.695C180.471 101.867 180.482 102.027 180.502 102.176C180.521 102.34 180.543 102.494 180.566 102.639C180.594 102.783 180.617 102.893 180.637 102.967C180.664 103.088 180.695 103.203 180.73 103.312C180.766 103.418 180.787 103.48 180.795 103.5H179.711C179.691 103.453 179.666 103.385 179.635 103.295C179.607 103.201 179.58 103.1 179.553 102.99C179.533 102.904 179.514 102.818 179.494 102.732C179.479 102.643 179.467 102.566 179.459 102.504C179.346 102.699 179.199 102.873 179.02 103.025C178.844 103.178 178.67 103.299 178.498 103.389C178.311 103.486 178.111 103.557 177.9 103.6C177.693 103.646 177.471 103.67 177.232 103.67ZM177.455 102.768C178.045 102.768 178.51 102.561 178.85 102.146C179.193 101.725 179.365 101.156 179.365 100.441V100.201H178C177.375 100.201 176.902 100.311 176.582 100.529C176.414 100.643 176.291 100.783 176.213 100.951C176.139 101.115 176.102 101.307 176.102 101.525C176.102 101.729 176.133 101.906 176.195 102.059C176.258 102.207 176.346 102.334 176.459 102.439C176.572 102.541 176.709 102.621 176.869 102.68C177.033 102.738 177.229 102.768 177.455 102.768ZM184.521 95.748C184.404 95.748 184.346 95.6895 184.346 95.5723V94.5586C184.346 94.4414 184.404 94.3828 184.521 94.3828H185.365C185.482 94.3828 185.541 94.4414 185.541 94.5586V95.5723C185.541 95.6895 185.482 95.748 185.365 95.748H184.521ZM186.49 103.547C186.178 103.547 185.896 103.498 185.646 103.4C185.4 103.303 185.184 103.145 184.996 102.926C184.641 102.512 184.463 101.926 184.463 101.168V97.7812H183.027V96.9375H185.541V101.168C185.541 101.656 185.631 102.021 185.811 102.264C185.904 102.393 186.016 102.486 186.145 102.545C186.277 102.604 186.428 102.633 186.596 102.633H187.855V103.547H186.49ZM193.498 103.547C193.186 103.547 192.904 103.498 192.654 103.4C192.408 103.303 192.191 103.145 192.004 102.926C191.648 102.512 191.471 101.926 191.471 101.168V95.2266H189.742V94.3828H192.549V101.168C192.549 101.656 192.639 102.021 192.818 102.264C192.912 102.393 193.023 102.486 193.152 102.545C193.285 102.604 193.436 102.633 193.604 102.633H194.863V103.547H193.498Z" fill="white"/>
<path d="M31.5453 229.6V212.104H36.2914C38.6937 212.104 40.4398 212.537 41.5062 213.393C42.5609 214.248 43.0883 215.643 43.0883 217.576C43.0883 219.51 42.5609 220.904 41.5062 221.76C40.4398 222.615 38.6937 223.049 36.2914 223.049H35.0023V229.6H31.5453ZM35.0023 220.143H36.4203C37.557 220.143 38.3539 219.955 38.8109 219.568C39.2679 219.182 39.4906 218.525 39.4906 217.576C39.4906 216.627 39.2679 215.971 38.8109 215.584C38.3539 215.197 37.557 215.01 36.4203 215.01H35.0023V220.143ZM46.8851 229.6V216.475H49.9789L50.3187 218.514C50.6586 217.752 51.1742 217.178 51.8656 216.768C52.5687 216.357 53.389 216.158 54.2679 216.158C54.7367 216.158 55.264 216.217 55.6859 216.322C56.1429 216.451 56.6234 216.639 56.9633 216.826V220.096C56.5883 219.756 56.1547 219.498 55.6508 219.322C55.1469 219.146 54.5961 219.064 53.9984 219.064C53.2601 219.064 52.6273 219.193 52.0883 219.439C51.5375 219.686 51.1156 220.061 50.8226 220.541C50.6703 220.787 50.5179 221.15 50.4359 221.631C50.3539 222.088 50.3187 222.627 50.3187 223.553V229.6H46.8851ZM65.7523 229.939C63.7484 229.939 62.2953 229.201 61.3109 228.088C60.2211 226.857 59.6703 225.1 59.6703 223.037C59.6703 220.939 60.2328 219.229 61.3109 218.01C62.389 216.791 63.9008 216.158 65.7406 216.158C67.6625 216.158 69.1508 216.838 70.182 217.998C71.2133 219.158 71.8226 220.834 71.8226 223.049C71.8226 225.146 71.2719 226.846 70.1937 228.076C69.1625 229.248 67.6625 229.939 65.7523 229.939ZM65.7406 227.15C66.5726 227.15 67.2172 226.787 67.6859 226.072C68.1547 225.346 68.389 224.338 68.389 223.037C68.389 221.76 68.1547 220.752 67.6859 220.025C67.2054 219.275 66.5375 218.947 65.7406 218.947C64.8617 218.947 64.2406 219.357 63.807 220.025C63.3383 220.752 63.1039 221.76 63.1039 223.037C63.1039 224.338 63.3383 225.346 63.807 226.072C64.2758 226.787 64.9203 227.15 65.7406 227.15ZM82.9086 214.916H80.1781C79.9437 214.916 79.8265 214.799 79.8265 214.564V211.26C79.8265 211.025 79.9437 210.908 80.1781 210.908H82.9086C83.1429 210.908 83.2601 211.025 83.2601 211.26V214.564C83.2601 214.799 83.1429 214.916 82.9086 214.916ZM74.975 234.568V231.932H77.7172C78.4906 231.932 79.0297 231.721 79.3461 231.287C79.6625 230.854 79.8265 230.115 79.8265 229.096V219.111H76.3461V216.475H83.2601V229.096C83.2601 231.064 82.9086 232.471 82.2054 233.314C81.514 234.123 80.3539 234.568 78.6781 234.568H74.975ZM95.2367 229.939C92.9515 229.939 91.3226 229.354 90.1508 228.17C88.9906 226.986 88.4047 225.299 88.4047 223.107C88.4047 220.916 88.9554 219.275 90.0804 218.021C91.1937 216.779 92.7172 216.158 94.6742 216.158C96.514 216.158 98.0726 216.697 99.1859 217.881C100.299 219.064 100.791 220.74 100.791 222.756V224.15H91.8969C91.9086 225.193 92.2133 225.955 92.8109 226.459C93.4086 226.963 94.3109 227.221 95.4945 227.221C96.2797 227.221 97.0648 227.104 97.8383 226.881C98.5531 226.658 99.35 226.33 100.241 225.803V228.955C99.4437 229.283 98.6351 229.529 97.8031 229.693C96.9594 229.869 96.0804 229.939 95.2367 229.939ZM91.932 221.584L97.3344 221.572C97.3226 220.658 97.0883 219.967 96.6429 219.51C96.2211 219.076 95.5531 218.818 94.6742 218.818C93.8656 218.818 93.2328 219.053 92.764 219.533C92.2953 220.014 92.014 220.705 91.932 221.584ZM110.131 229.939C108.08 229.939 106.487 229.33 105.35 228.111C104.213 226.881 103.639 225.193 103.639 223.049C103.639 220.893 104.213 219.193 105.362 217.963C106.51 216.744 108.092 216.135 110.096 216.135C110.811 216.135 111.502 216.217 112.159 216.381C112.803 216.545 113.459 216.803 114.104 217.143V220.283C113.6 219.85 113.014 219.51 112.463 219.287C111.912 219.064 111.256 218.947 110.588 218.947C109.416 218.947 108.596 219.322 108.022 220.014C107.424 220.729 107.12 221.748 107.12 223.049C107.12 224.35 107.424 225.357 108.022 226.072C108.62 226.775 109.475 227.127 110.6 227.127C111.256 227.127 111.877 227.01 112.463 226.787C112.967 226.6 113.553 226.283 114.104 225.779V228.932C113.483 229.295 112.897 229.506 112.241 229.682C111.584 229.857 110.94 229.939 110.131 229.939ZM128.94 229.646H126.057C124.077 229.646 122.752 229.33 122.061 228.697C121.37 228.076 121.018 226.904 121.018 225.205V219.111H117.666V216.475H121.018V212.889L124.452 211.365V216.475H128.94V219.111H124.452V225.369C124.452 225.943 124.592 226.365 124.885 226.623C125.202 226.904 125.682 227.01 126.303 227.01H128.94V229.646ZM150.784 229.6V215.127H146.342V212.104H158.682V215.127H154.241V229.6H150.784ZM167.764 214.916H165.034C164.799 214.916 164.682 214.799 164.682 214.564V211.26C164.682 211.025 164.799 210.908 165.034 210.908H167.764C167.998 210.908 168.116 211.025 168.116 211.26V214.564C168.116 214.799 167.998 214.916 167.764 214.916ZM172.967 229.74H169.264C167.635 229.74 166.463 229.318 165.748 228.475C165.034 227.643 164.682 226.236 164.682 224.268V219.111H161.905V216.475H168.116V224.268C168.116 225.287 168.28 226.025 168.596 226.459C168.912 226.893 169.452 227.104 170.225 227.104H172.967V229.74ZM186.784 229.646H183.901C181.92 229.646 180.596 229.33 179.905 228.697C179.213 228.076 178.862 226.904 178.862 225.205V219.111H175.51V216.475H178.862V212.889L182.295 211.365V216.475H186.784V219.111H182.295V225.369C182.295 225.943 182.436 226.365 182.729 226.623C183.045 226.904 183.526 227.01 184.147 227.01H186.784V229.646ZM201.608 229.693H197.905C196.276 229.693 195.104 229.271 194.389 228.428C193.674 227.596 193.323 226.189 193.323 224.221V214.002H189.842V211.365H196.756V224.221C196.756 225.24 196.92 225.979 197.237 226.412C197.553 226.846 198.092 227.057 198.866 227.057H201.608V229.693ZM210.924 229.939C208.639 229.939 207.01 229.354 205.838 228.17C204.678 226.986 204.092 225.299 204.092 223.107C204.092 220.916 204.643 219.275 205.768 218.021C206.881 216.779 208.405 216.158 210.362 216.158C212.202 216.158 213.76 216.697 214.873 217.881C215.987 219.064 216.479 220.74 216.479 222.756V224.15H207.584C207.596 225.193 207.901 225.955 208.498 226.459C209.096 226.963 209.998 227.221 211.182 227.221C211.967 227.221 212.752 227.104 213.526 226.881C214.241 226.658 215.037 226.33 215.928 225.803V228.955C215.131 229.283 214.323 229.529 213.491 229.693C212.647 229.869 211.768 229.939 210.924 229.939ZM207.62 221.584L213.022 221.572C213.01 220.658 212.776 219.967 212.33 219.51C211.909 219.076 211.241 218.818 210.362 218.818C209.553 218.818 208.92 219.053 208.452 219.533C207.983 220.014 207.702 220.705 207.62 221.584Z" fill="white"/>
<rect x="30.2" y="248.6" width="123" height="28.4" rx="14.2" fill="white"/>
<rect x="30.2" y="248.6" width="123" height="28.4" rx="14.2" stroke="#C0282D" stroke-width="1.2"/>
<path d="M40.4093 266.801V256.303H43.475C44.6421 256.303 45.5281 256.57 46.1398 257.098C46.7656 257.653 47.0468 258.455 47.0468 259.446C47.0468 260.48 46.7445 261.26 46.1468 261.787C45.5562 262.315 44.6632 262.582 43.475 262.582H41.8296V266.801H40.4093ZM41.8296 261.415H43.475C44.1781 261.415 44.6773 261.211 45.0148 260.895C45.3804 260.55 45.5632 260.065 45.5632 259.439C45.5632 258.813 45.3804 258.328 45.0148 257.984C44.6562 257.639 44.1429 257.47 43.475 257.47H41.8296V261.415ZM50 266.801V258.926H51.1742L51.3007 260.466C51.5187 259.91 51.8562 259.481 52.2992 259.179C52.7421 258.884 53.2695 258.736 53.8812 258.736C54.1976 258.736 54.5 258.778 54.7812 258.855C55.0554 258.933 55.3296 259.059 55.5757 259.228V260.55C55.3085 260.332 55.0273 260.177 54.732 260.079C54.4437 259.98 54.1273 259.931 53.7828 259.931C52.9812 259.931 52.3695 260.184 51.9406 260.691C51.5117 261.19 51.3007 261.921 51.3007 262.884V266.801H50ZM60.8843 267.005C59.8085 267.005 58.9648 266.653 58.3812 265.95C57.7906 265.219 57.5164 264.178 57.5164 262.863C57.5164 261.534 57.8046 260.508 58.3812 259.798C58.9578 259.087 59.7945 258.736 60.8843 258.736C62.0093 258.736 62.832 259.102 63.3945 259.798C63.971 260.508 64.2593 261.527 64.2593 262.856C64.2593 264.199 63.9781 265.247 63.3945 265.95C62.832 266.646 61.9882 267.005 60.8843 267.005ZM60.8843 265.908C61.5453 265.908 62.0445 265.648 62.382 265.134C62.7195 264.621 62.8882 263.869 62.8882 262.87C62.8882 261.872 62.7195 261.112 62.382 260.599C62.0445 260.086 61.5453 259.833 60.8843 259.833C60.2304 259.833 59.7312 260.086 59.3937 260.599C59.0562 261.112 58.8875 261.872 58.8875 262.87C58.8875 263.869 59.0562 264.621 59.3937 265.134C59.7312 265.648 60.2304 265.908 60.8843 265.908ZM70.8265 257.498H69.814C69.6734 257.498 69.6031 257.428 69.6031 257.287V256.071C69.6031 255.93 69.6734 255.86 69.814 255.86H70.8265C70.9671 255.86 71.0375 255.93 71.0375 256.071V257.287C71.0375 257.428 70.9671 257.498 70.8265 257.498ZM66.9031 269.796V268.699H68.5484C68.9703 268.699 69.2867 268.552 69.4976 268.263C69.7085 267.968 69.814 267.525 69.814 266.941V259.931H67.5851V258.926H71.1078V266.941C71.1078 267.834 70.9039 268.552 70.482 269.058C70.0601 269.564 69.4484 269.796 68.689 269.796H66.9031ZM78.6664 267.005C77.457 267.005 76.4867 266.632 75.8117 265.908C75.1367 265.184 74.7781 264.164 74.7781 262.877C74.7781 261.555 75.1578 260.564 75.7835 259.861C76.4656 259.102 77.4078 258.736 78.4695 258.736C79.5171 258.736 80.3046 259.095 80.8671 259.748C81.4296 260.402 81.732 261.337 81.732 262.54V263.173H76.1281V263.215C76.1281 264.073 76.3531 264.734 76.8031 265.205C77.232 265.655 77.8367 265.908 78.6875 265.908C79.1164 265.908 79.5453 265.845 79.9882 265.711C80.4453 265.577 80.9234 265.373 81.4296 265.113V266.4C80.9304 266.604 80.4664 266.752 80.0093 266.857C79.5593 266.963 79.1093 267.005 78.6664 267.005ZM76.1773 262.167L80.4382 262.16C80.4171 261.352 80.2132 260.782 79.9039 260.423C79.5664 260.03 79.0601 259.833 78.4414 259.833C77.8085 259.833 77.2953 260.037 76.8945 260.452C76.4937 260.866 76.2546 261.443 76.1773 262.167ZM87.589 267.005C86.4148 267.005 85.4375 266.632 84.7625 265.908C84.0804 265.177 83.7359 264.157 83.7359 262.87C83.7359 261.527 84.1156 260.522 84.7695 259.826C85.4656 259.095 86.4218 258.736 87.596 258.736C88.025 258.736 88.3765 258.778 88.7351 258.884C89.0937 258.982 89.4523 259.137 89.825 259.341V260.698C89.4804 260.395 89.1429 260.17 88.7984 260.037C88.4468 259.903 88.0601 259.833 87.6312 259.833C86.8156 259.833 86.1898 260.093 85.7539 260.62C85.3179 261.148 85.1 261.9 85.1 262.863C85.1 263.763 85.2828 264.551 85.7539 265.113C86.1968 265.641 86.8296 265.908 87.6523 265.908C88.1234 265.908 88.5031 265.83 88.8335 265.697C89.2554 265.535 89.5367 265.331 89.825 265.057V266.4C89.5085 266.59 89.1148 266.752 88.7562 266.857C88.4257 266.948 88.039 267.005 87.589 267.005ZM98.5156 266.829H96.9335C95.9703 266.829 95.2812 266.632 94.8804 266.245C94.4796 265.859 94.2828 265.191 94.2828 264.234V259.931H92.1804V258.926H94.2828V256.866L95.5765 256.303V258.926H98.5156V259.931H95.5765V264.234C95.5765 264.811 95.689 265.219 95.907 265.451C96.125 265.683 96.5046 265.795 97.0601 265.795H98.5156V266.829ZM112.241 266.801V257.498H108.943V256.303H116.952V257.498H113.668V266.801H112.241ZM118.583 269.796V268.713H119.349C119.771 268.713 120.052 268.573 120.242 268.383C120.446 268.165 120.699 267.687 121.065 266.674L118.02 258.926H119.391L121.726 265.085L124.025 258.926H125.396L123.322 264.27C122.654 265.999 122.949 265.191 122.499 266.435C121.937 267.947 121.698 268.439 121.564 268.685C121.36 269.044 121.121 269.318 120.755 269.522C120.432 269.705 120.052 269.796 119.623 269.796H118.583ZM127.302 269.796V258.926H128.476L128.602 259.931C128.82 259.537 129.109 259.242 129.467 259.038C129.826 258.834 130.241 258.736 130.712 258.736C131.647 258.736 132.406 259.102 132.948 259.84C133.489 260.578 133.756 261.598 133.756 262.884C133.756 264.171 133.482 265.184 132.941 265.908C132.399 266.639 131.654 267.005 130.705 267.005C130.17 267.005 129.798 266.892 129.453 266.695C129.087 266.484 128.806 266.189 128.602 265.809V269.796H127.302ZM130.515 265.908C131.141 265.908 131.612 265.655 131.928 265.141C132.244 264.628 132.399 263.876 132.399 262.87C132.399 261.865 132.244 261.112 131.928 260.599C131.612 260.086 131.141 259.833 130.515 259.833C129.889 259.833 129.411 260.086 129.087 260.599C128.764 261.112 128.602 261.872 128.602 262.87C128.602 263.869 128.764 264.621 129.087 265.134C129.411 265.648 129.889 265.908 130.515 265.908ZM139.402 267.005C138.193 267.005 137.223 266.632 136.548 265.908C135.873 265.184 135.514 264.164 135.514 262.877C135.514 261.555 135.894 260.564 136.519 259.861C137.202 259.102 138.144 258.736 139.205 258.736C140.253 258.736 141.041 259.095 141.603 259.748C142.166 260.402 142.468 261.337 142.468 262.54V263.173H136.864V263.215C136.864 264.073 137.089 264.734 137.539 265.205C137.968 265.655 138.573 265.908 139.423 265.908C139.852 265.908 140.281 265.845 140.724 265.711C141.181 265.577 141.659 265.373 142.166 265.113V266.4C141.666 266.604 141.202 266.752 140.745 266.857C140.295 266.963 139.845 267.005 139.402 267.005ZM136.913 262.167L141.174 262.16C141.153 261.352 140.949 260.782 140.64 260.423C140.302 260.03 139.796 259.833 139.177 259.833C138.544 259.833 138.031 260.037 137.63 260.452C137.23 260.866 136.991 261.443 136.913 262.167Z" fill="black"/>
<rect x="30.1" y="284.1" width="117" height="23" rx="11.5" fill="white"/>
<rect x="30.1" y="284.1" width="117" height="23" rx="11.5" stroke="#2DA9E1"/>
<path d="M38.6078 298.6V289.852H41.1625C42.1351 289.852 42.8734 290.074 43.3832 290.514C43.9047 290.977 44.139 291.645 44.139 292.471C44.139 293.332 43.8871 293.982 43.389 294.422C42.8969 294.861 42.1527 295.084 41.1625 295.084H39.7914V298.6H38.6078ZM39.7914 294.111H41.1625C41.7484 294.111 42.1644 293.941 42.4457 293.678C42.7504 293.391 42.9027 292.986 42.9027 292.465C42.9027 291.943 42.7504 291.539 42.4457 291.252C42.1469 290.965 41.7191 290.824 41.1625 290.824H39.7914V294.111ZM46.6 298.6V292.037H47.5785L47.684 293.32C47.8656 292.857 48.1469 292.5 48.516 292.248C48.8851 292.002 49.3246 291.879 49.8344 291.879C50.098 291.879 50.35 291.914 50.5844 291.979C50.8129 292.043 51.0414 292.148 51.2465 292.289V293.391C51.0238 293.209 50.7894 293.08 50.5433 292.998C50.3031 292.916 50.0394 292.875 49.7523 292.875C49.0844 292.875 48.5746 293.086 48.2172 293.508C47.8597 293.924 47.684 294.533 47.684 295.336V298.6H46.6ZM55.6703 298.77C54.7738 298.77 54.0707 298.477 53.5844 297.891C53.0922 297.281 52.8636 296.414 52.8636 295.318C52.8636 294.211 53.1039 293.355 53.5844 292.764C54.0648 292.172 54.7621 291.879 55.6703 291.879C56.6078 291.879 57.2933 292.184 57.7621 292.764C58.2426 293.355 58.4828 294.205 58.4828 295.312C58.4828 296.432 58.2484 297.305 57.7621 297.891C57.2933 298.471 56.5902 298.77 55.6703 298.77ZM55.6703 297.855C56.2211 297.855 56.6371 297.639 56.9183 297.211C57.1996 296.783 57.3402 296.156 57.3402 295.324C57.3402 294.492 57.1996 293.859 56.9183 293.432C56.6371 293.004 56.2211 292.793 55.6703 292.793C55.1254 292.793 54.7094 293.004 54.4281 293.432C54.1469 293.859 54.0062 294.492 54.0062 295.324C54.0062 296.156 54.1469 296.783 54.4281 297.211C54.7094 297.639 55.1254 297.855 55.6703 297.855ZM63.9554 290.848H63.1117C62.9945 290.848 62.9359 290.789 62.9359 290.672V289.658C62.9359 289.541 62.9945 289.482 63.1117 289.482H63.9554C64.0726 289.482 64.1312 289.541 64.1312 289.658V290.672C64.1312 290.789 64.0726 290.848 63.9554 290.848ZM60.6859 301.096V300.182H62.057C62.4086 300.182 62.6722 300.059 62.848 299.818C63.0238 299.572 63.1117 299.203 63.1117 298.717V292.875H61.2543V292.037H64.1898V298.717C64.1898 299.461 64.0199 300.059 63.6683 300.48C63.3168 300.902 62.807 301.096 62.1742 301.096H60.6859ZM70.4886 298.77C69.4808 298.77 68.6722 298.459 68.1097 297.855C67.5472 297.252 67.2484 296.402 67.2484 295.33C67.2484 294.229 67.5648 293.402 68.0863 292.816C68.6547 292.184 69.4398 291.879 70.3246 291.879C71.1976 291.879 71.8539 292.178 72.3226 292.723C72.7914 293.268 73.0433 294.047 73.0433 295.049V295.576H68.3734V295.611C68.3734 296.326 68.5609 296.877 68.9359 297.27C69.2933 297.645 69.7972 297.855 70.5062 297.855C70.8636 297.855 71.2211 297.803 71.5902 297.691C71.9711 297.58 72.3695 297.41 72.7914 297.193V298.266C72.3754 298.436 71.9886 298.559 71.6078 298.646C71.2328 298.734 70.8578 298.77 70.4886 298.77ZM68.4144 294.738L71.9652 294.732C71.9476 294.059 71.7777 293.584 71.5199 293.285C71.2386 292.957 70.8168 292.793 70.3011 292.793C69.7738 292.793 69.3461 292.963 69.0121 293.309C68.6781 293.654 68.4789 294.135 68.4144 294.738ZM77.9242 298.77C76.9457 298.77 76.1312 298.459 75.5687 297.855C75.0004 297.246 74.7133 296.396 74.7133 295.324C74.7133 294.205 75.0297 293.367 75.5746 292.787C76.1547 292.178 76.9515 291.879 77.9301 291.879C78.2875 291.879 78.5804 291.914 78.8793 292.002C79.1781 292.084 79.4769 292.213 79.7875 292.383V293.514C79.5004 293.262 79.2191 293.074 78.932 292.963C78.639 292.852 78.3168 292.793 77.9594 292.793C77.2797 292.793 76.7582 293.01 76.3949 293.449C76.0316 293.889 75.85 294.516 75.85 295.318C75.85 296.068 76.0023 296.725 76.3949 297.193C76.764 297.633 77.2914 297.855 77.9769 297.855C78.3695 297.855 78.6859 297.791 78.9613 297.68C79.3129 297.545 79.5472 297.375 79.7875 297.146V298.266C79.5238 298.424 79.1957 298.559 78.8969 298.646C78.6215 298.723 78.2992 298.77 77.9242 298.77ZM87.0297 298.623H85.7113C84.9086 298.623 84.3344 298.459 84.0004 298.137C83.6664 297.814 83.5023 297.258 83.5023 296.461V292.875H81.7504V292.037H83.5023V290.32L84.5804 289.852V292.037H87.0297V292.875H84.5804V296.461C84.5804 296.941 84.6742 297.281 84.8558 297.475C85.0375 297.668 85.3539 297.762 85.8168 297.762H87.0297V298.623ZM98.8656 298.77C98.4496 298.77 98.0219 298.729 97.6176 298.641C97.2133 298.553 96.7679 298.406 96.3695 298.242V296.982C96.8207 297.27 97.2426 297.475 97.6469 297.609C98.0453 297.744 98.4437 297.809 98.848 297.809C99.434 297.809 99.9144 297.674 100.248 297.41C100.594 297.135 100.746 296.754 100.746 296.256C100.746 295.816 100.635 295.518 100.407 295.289C100.155 295.031 99.7972 294.885 99.2113 294.75L98.5785 294.604C97.7875 294.422 97.2015 294.17 96.809 293.771C96.4398 293.402 96.2582 292.904 96.2582 292.277C96.2582 291.48 96.5394 290.842 97.0492 290.391C97.5472 289.945 98.2504 289.693 99.141 289.693C99.475 289.693 99.8265 289.729 100.202 289.805C100.565 289.881 100.957 289.992 101.373 290.15V291.352C100.998 291.111 100.647 290.947 100.295 290.83C99.932 290.713 99.5687 290.654 99.2054 290.654C98.6722 290.654 98.1976 290.777 97.8695 291.041C97.5414 291.305 97.389 291.68 97.389 292.125C97.389 292.523 97.5062 292.781 97.7113 292.975C97.9515 293.203 98.3148 293.355 98.9008 293.49L99.5219 293.631C100.348 293.818 100.928 294.117 101.309 294.533C101.69 294.938 101.877 295.494 101.877 296.197C101.877 297.088 101.584 297.709 101.11 298.113C100.594 298.553 99.8324 298.77 98.8656 298.77ZM103.998 298.6V289.482H105.112V294.762L107.942 292.037H109.254L106.67 294.51L109.659 298.6H108.34L105.914 295.213L105.112 295.969V298.6H103.998ZM113.813 290.848H112.969C112.852 290.848 112.793 290.789 112.793 290.672V289.658C112.793 289.541 112.852 289.482 112.969 289.482H113.813C113.93 289.482 113.989 289.541 113.989 289.658V290.672C113.989 290.789 113.93 290.848 113.813 290.848ZM116.303 298.646H114.938C114.311 298.646 113.819 298.465 113.444 298.025C113.086 297.609 112.911 297.023 112.911 296.268V292.881H111.475V292.037H113.989V296.268C113.989 296.754 114.077 297.123 114.258 297.363C114.446 297.621 114.709 297.732 115.043 297.732H116.303V298.646ZM123.311 298.646H121.946C121.319 298.646 120.827 298.465 120.452 298.025C120.094 297.609 119.918 297.023 119.918 296.268V290.326H118.19V289.482H120.996V296.268C120.996 296.754 121.084 297.123 121.266 297.363C121.453 297.621 121.717 297.732 122.051 297.732H123.311V298.646ZM130.541 298.646H129.176C128.549 298.646 128.057 298.465 127.682 298.025C127.325 297.609 127.149 297.023 127.149 296.268V290.326H125.42V289.482H128.227V296.268C128.227 296.754 128.315 297.123 128.496 297.363C128.684 297.621 128.948 297.732 129.282 297.732H130.541V298.646ZM135.053 298.77C134.707 298.77 134.332 298.734 133.998 298.67C133.694 298.605 133.26 298.494 132.844 298.359V297.246C133.342 297.498 133.664 297.615 133.998 297.709C134.356 297.809 134.684 297.867 135.041 297.867C135.516 297.867 135.885 297.768 136.149 297.574C136.424 297.369 136.541 297.082 136.541 296.801C136.541 296.256 136.096 295.934 135.106 295.729L135.059 295.717L134.655 295.635C134.069 295.518 133.606 295.33 133.295 295.02C133.008 294.732 132.868 294.34 132.868 293.842C132.868 293.209 133.084 292.723 133.506 292.389C133.952 292.031 134.573 291.879 135.34 291.879C135.674 291.879 136.014 291.908 136.342 291.973C136.641 292.037 136.969 292.131 137.297 292.266V293.32C136.987 293.139 136.676 293.004 136.366 292.916C136.055 292.828 135.745 292.781 135.387 292.781C134.936 292.781 134.561 292.857 134.321 293.016C134.08 293.174 133.957 293.42 133.957 293.748C133.957 294.023 134.045 294.258 134.227 294.398C134.409 294.539 134.795 294.674 135.569 294.82L136.002 294.902C136.565 295.014 136.957 295.213 137.221 295.512C137.496 295.811 137.631 296.209 137.631 296.707C137.631 297.381 137.385 297.867 136.94 298.219C136.465 298.594 135.821 298.77 135.053 298.77Z" fill="black"/>
</g>
<defs>
<filter id="filter0_d_4_381" x="0.4" y="0" width="268.2" height="339.2" filterUnits="userSpaceOnUse" color-interpolation-filters="sRGB">
<feFlood flood-opacity="0" result="BackgroundImageFix"/>
<feColorMatrix in="SourceAlpha" type="matrix" values="0 0 0 0 0 0 0 0 0 0 0 0 0 0 0 0 0 0 127 0" result="hardAlpha"/>
<feOffset dy="9.6"/>
<feGaussianBlur stdDeviation="4.8"/>
<feComposite in2="hardAlpha" operator="out"/>
<feColorMatrix type="matrix" values="0 0 0 0 0.752941 0 0 0 0 0.156863 0 0 0 0 0.176471 0 0 0 0.54 0"/>
<feBlend mode="normal" in2="BackgroundImageFix" result="effect1_dropShadow_4_381"/>
<feBlend mode="normal" in="SourceGraphic" in2="effect1_dropShadow_4_381" result="shape"/>
</filter>
</defs>
</svg>
