<svg width="645" height="570" viewBox="0 0 645 570" fill="none" xmlns="http://www.w3.org/2000/svg">
<g filter="url(#filter0_d_249_6424)">
<rect x="10.4" width="624.2" height="550" rx="9.6" fill="#151029"/>
<rect x="10.4" width="624.2" height="550" rx="9.6" fill="#858585" fill-opacity="0.12"/>
<rect x="105" y="10" width="138" height="108" rx="16" fill="#C0282D"/>
<path d="M113.508 59.252H116.062C117.035 59.252 117.775 59.4727 118.283 59.9141C118.545 60.1445 118.736 60.4258 118.857 60.7578C118.979 61.0859 119.039 61.457 119.039 61.8711C119.039 62.7305 118.789 63.3809 118.289 63.8223C118.043 64.041 117.734 64.207 117.363 64.3203C116.992 64.4297 116.559 64.4844 116.062 64.4844H114.691V68H113.508V59.252ZM116.062 63.5117C116.355 63.5117 116.607 63.4727 116.818 63.3945C117.029 63.3164 117.205 63.2109 117.346 63.0781C117.65 62.793 117.803 62.3887 117.803 61.8652C117.803 61.3457 117.65 60.9414 117.346 60.6523C117.045 60.3672 116.617 60.2246 116.062 60.2246H114.691V63.5117H116.062ZM121.5 61.4375H122.479L122.584 62.7207C122.768 62.2559 123.045 61.8984 123.416 61.6484C123.783 61.4023 124.223 61.2793 124.734 61.2793C125 61.2793 125.25 61.3125 125.484 61.3789C125.598 61.4102 125.711 61.4531 125.824 61.5078C125.938 61.5586 126.045 61.6191 126.146 61.6895V62.791C125.924 62.6113 125.689 62.4805 125.443 62.3984C125.201 62.3164 124.938 62.2754 124.652 62.2754C123.984 62.2754 123.473 62.4863 123.117 62.9082C122.762 63.3262 122.584 63.9355 122.584 64.7363V68H121.5V61.4375ZM130.57 68.1699C130.121 68.1699 129.721 68.0977 129.369 67.9531C129.021 67.8047 128.727 67.584 128.484 67.291C128.238 66.9863 128.057 66.6191 127.939 66.1895C127.822 65.7559 127.764 65.2656 127.764 64.7188C127.764 63.6094 128.004 62.7578 128.484 62.1641C128.965 61.5742 129.66 61.2793 130.57 61.2793C131.039 61.2793 131.445 61.3555 131.789 61.5078C132.137 61.6562 132.428 61.875 132.662 62.1641C133.143 62.7578 133.383 63.6074 133.383 64.7129C133.383 65.2715 133.322 65.7676 133.201 66.2012C133.084 66.6348 132.904 66.998 132.662 67.291C132.428 67.5801 132.135 67.7988 131.783 67.9473C131.436 68.0957 131.031 68.1699 130.57 68.1699ZM130.57 67.2559C131.121 67.2559 131.537 67.041 131.818 66.6113C132.1 66.1855 132.24 65.5566 132.24 64.7246C132.24 63.8926 132.1 63.2617 131.818 62.832C131.537 62.4062 131.121 62.1934 130.57 62.1934C130.023 62.1934 129.609 62.4062 129.328 62.832C129.047 63.2617 128.906 63.8926 128.906 64.7246C128.906 65.5566 129.047 66.1855 129.328 66.6113C129.609 67.041 130.023 67.2559 130.57 67.2559ZM138.012 60.248C137.895 60.248 137.836 60.1895 137.836 60.0723V59.0586C137.836 58.9414 137.895 58.8828 138.012 58.8828H138.855C138.973 58.8828 139.031 58.9414 139.031 59.0586V60.0723C139.031 60.1895 138.973 60.248 138.855 60.248H138.012ZM135.586 69.582H136.957C137.309 69.582 137.572 69.4609 137.748 69.2188C137.924 68.9727 138.012 68.6055 138.012 68.1172V62.2754H136.154V61.4375H139.09V68.1172C139.09 68.4883 139.047 68.8223 138.961 69.1191C138.875 69.416 138.744 69.6699 138.568 69.8809C138.393 70.0918 138.178 70.2461 137.924 70.3438C137.674 70.4453 137.391 70.4961 137.074 70.4961H135.586V69.582ZM145.389 68.1699C144.885 68.1699 144.432 68.0938 144.029 67.9414C143.631 67.7852 143.291 67.5566 143.01 67.2559C142.729 66.9551 142.514 66.5938 142.365 66.1719C142.221 65.7461 142.148 65.2656 142.148 64.7305C142.148 64.1797 142.223 63.6973 142.371 63.2832C142.52 62.8652 142.725 62.5098 142.986 62.2168C143.271 61.9004 143.605 61.666 143.988 61.5137C144.371 61.3574 144.783 61.2793 145.225 61.2793C145.662 61.2793 146.045 61.3516 146.373 61.4961C146.705 61.6406 146.988 61.8496 147.223 62.123C147.457 62.3965 147.635 62.7285 147.756 63.1191C147.881 63.5059 147.943 63.9492 147.943 64.4492V64.9766H143.273V65.0117C143.273 65.7266 143.461 66.2793 143.836 66.6699C144.016 66.8574 144.232 67.002 144.486 67.1035C144.744 67.2051 145.051 67.2559 145.406 67.2559C145.762 67.2559 146.123 67.2012 146.49 67.0918C146.869 66.9785 147.27 66.8125 147.691 66.5938V67.666C147.484 67.752 147.283 67.8262 147.088 67.8887C146.893 67.9512 146.699 68.0039 146.508 68.0469C146.32 68.0898 146.133 68.1211 145.945 68.1406C145.758 68.1602 145.572 68.1699 145.389 68.1699ZM146.865 64.1328C146.857 63.7969 146.812 63.5098 146.73 63.2715C146.652 63.0293 146.549 62.834 146.42 62.6855C146.279 62.5215 146.105 62.3984 145.898 62.3164C145.691 62.2344 145.459 62.1934 145.201 62.1934C144.674 62.1934 144.244 62.3652 143.912 62.709C143.576 63.0566 143.377 63.5332 143.314 64.1387L146.865 64.1328ZM152.824 68.1699C152.336 68.1699 151.891 68.0938 151.488 67.9414C151.09 67.7852 150.75 67.5566 150.469 67.2559C150.184 66.9512 149.969 66.5879 149.824 66.166C149.684 65.7402 149.613 65.2598 149.613 64.7246C149.613 64.166 149.688 63.6758 149.836 63.2539C149.988 62.832 150.201 62.4766 150.475 62.1875C150.764 61.8828 151.105 61.6562 151.5 61.5078C151.898 61.3555 152.342 61.2793 152.83 61.2793C153.01 61.2793 153.176 61.2891 153.328 61.3086C153.48 61.3281 153.631 61.3594 153.779 61.4023C154.076 61.4844 154.379 61.6113 154.688 61.7832V62.9141C154.543 62.7891 154.4 62.6797 154.26 62.5859C154.119 62.4922 153.977 62.418 153.832 62.3633C153.539 62.25 153.215 62.1934 152.859 62.1934C152.18 62.1934 151.658 62.4121 151.295 62.8496C150.932 63.291 150.75 63.9141 150.75 64.7188C150.75 65.0938 150.791 65.4414 150.873 65.7617C150.959 66.082 151.1 66.3594 151.295 66.5938C151.662 67.0352 152.189 67.2559 152.877 67.2559C153.072 67.2559 153.25 67.2402 153.41 67.209C153.574 67.1777 153.725 67.1348 153.861 67.0801C154.037 67.0137 154.188 66.9375 154.312 66.8516C154.441 66.7617 154.566 66.6602 154.688 66.5469V67.666C154.555 67.7441 154.41 67.8164 154.254 67.8828C154.098 67.9492 153.945 68.0039 153.797 68.0469C153.66 68.0859 153.51 68.1152 153.346 68.1348C153.186 68.1582 153.012 68.1699 152.824 68.1699ZM160.611 68.0234C159.807 68.0234 159.236 67.8613 158.9 67.5371C158.568 67.2168 158.402 66.6582 158.402 65.8613V62.2754H156.65V61.4375H158.402V59.7207L159.48 59.252V61.4375H161.93V62.2754H159.48V65.8613C159.48 66.3418 159.572 66.6797 159.756 66.875C159.936 67.0664 160.256 67.1621 160.717 67.1621H161.93V68.0234H160.611ZM173.367 60.248H170.619V59.252H177.293V60.248H174.557V68H173.367V60.248ZM178.717 58.8828H179.795V62.4219C179.99 62.043 180.25 61.7578 180.574 61.5664C180.898 61.375 181.285 61.2793 181.734 61.2793C182.086 61.2793 182.385 61.3359 182.631 61.4492C182.877 61.5625 183.08 61.7246 183.24 61.9355C183.568 62.377 183.732 63.043 183.732 63.9336V68H182.648V63.9336C182.648 63.3438 182.545 62.9102 182.338 62.6328C182.131 62.3555 181.805 62.2168 181.359 62.2168C181.102 62.2168 180.877 62.2617 180.686 62.3516C180.498 62.4414 180.338 62.5742 180.205 62.75C179.932 63.1055 179.795 63.6191 179.795 64.291V68H178.717V58.8828ZM187.934 68.1699C187.266 68.1699 186.768 67.9492 186.439 67.5078C186.111 67.0703 185.947 66.4062 185.947 65.5156V61.4492H187.025V65.5156C187.025 66.1094 187.131 66.543 187.342 66.8164C187.443 66.9492 187.57 67.0527 187.723 67.127C187.879 67.1973 188.074 67.2324 188.309 67.2324C188.816 67.2324 189.205 67.0527 189.475 66.6934C189.744 66.3379 189.879 65.8262 189.879 65.1582V61.4492H190.963V68H189.984L189.879 67.0156C189.684 67.3984 189.424 67.6855 189.1 67.877C188.768 68.0723 188.379 68.1699 187.934 68.1699ZM192.674 61.4375H193.559L193.652 62C193.781 61.7656 193.943 61.5859 194.139 61.4609C194.33 61.3398 194.551 61.2793 194.801 61.2793C195.09 61.2793 195.336 61.3477 195.539 61.4844C195.73 61.6172 195.883 61.8242 195.996 62.1055C196.133 61.8203 196.303 61.6113 196.506 61.4785C196.709 61.3457 196.955 61.2793 197.244 61.2793C197.514 61.2793 197.742 61.332 197.93 61.4375C198.117 61.5391 198.262 61.6895 198.363 61.8887C198.578 62.2949 198.686 63.0645 198.686 64.1973V68H197.701V64.2441C197.701 63.9941 197.697 63.7754 197.689 63.5879C197.686 63.4004 197.676 63.2383 197.66 63.1016C197.648 62.9609 197.633 62.8438 197.613 62.75C197.594 62.6523 197.57 62.5742 197.543 62.5156C197.5 62.4141 197.434 62.334 197.344 62.2754C197.254 62.2129 197.127 62.1816 196.963 62.1816C196.814 62.1816 196.689 62.2109 196.588 62.2695C196.486 62.3242 196.406 62.4141 196.348 62.5391C196.281 62.6758 196.234 62.8789 196.207 63.1484C196.18 63.4141 196.166 63.7793 196.166 64.2441V68H195.182V64.2441C195.182 63.959 195.178 63.7188 195.17 63.5234C195.162 63.3242 195.15 63.1582 195.135 63.0254C195.119 62.8926 195.1 62.7871 195.076 62.709C195.057 62.627 195.035 62.5605 195.012 62.5098C194.961 62.4082 194.887 62.3281 194.789 62.2695C194.695 62.2109 194.572 62.1816 194.42 62.1816C194.256 62.1816 194.127 62.2148 194.033 62.2812C193.943 62.3438 193.875 62.4277 193.828 62.5332C193.801 62.5918 193.775 62.666 193.752 62.7559C193.732 62.8457 193.715 62.959 193.699 63.0957C193.684 63.2285 193.672 63.3887 193.664 63.5762C193.656 63.7637 193.652 63.9863 193.652 64.2441V68H192.674V61.4375ZM203.227 68.1699C203.027 68.1699 202.846 68.1484 202.682 68.1055C202.518 68.0664 202.355 68.002 202.195 67.9121C201.895 67.7402 201.654 67.4941 201.475 67.1738L201.369 68H200.396V58.8828H201.475V62.2754C201.643 61.9551 201.881 61.709 202.189 61.5371C202.49 61.3652 202.844 61.2793 203.25 61.2793C203.625 61.2793 203.969 61.3535 204.281 61.502C204.598 61.6504 204.871 61.877 205.102 62.1816C205.328 62.4863 205.498 62.8516 205.611 63.2773C205.725 63.7031 205.781 64.1816 205.781 64.7129C205.781 65.7832 205.555 66.627 205.102 67.2441C204.879 67.5488 204.611 67.7793 204.299 67.9355C203.986 68.0918 203.629 68.1699 203.227 68.1699ZM203.074 67.2559C203.594 67.2559 203.984 67.043 204.246 66.6172C204.512 66.1875 204.645 65.5566 204.645 64.7246C204.645 63.8926 204.512 63.2617 204.246 62.832C203.984 62.4062 203.592 62.1934 203.068 62.1934C202.545 62.1934 202.148 62.4062 201.879 62.832C201.609 63.2617 201.475 63.8926 201.475 64.7246C201.475 65.5566 201.609 66.1855 201.879 66.6113C202.148 67.041 202.547 67.2559 203.074 67.2559ZM207.639 61.4375H208.611L208.717 62.4219C208.912 62.043 209.172 61.7578 209.496 61.5664C209.82 61.375 210.207 61.2793 210.656 61.2793C211.008 61.2793 211.307 61.3359 211.553 61.4492C211.799 61.5625 212.002 61.7246 212.162 61.9355C212.49 62.377 212.654 63.043 212.654 63.9336V68H211.57V63.9336C211.57 63.3438 211.467 62.9102 211.26 62.6328C211.053 62.3555 210.727 62.2168 210.281 62.2168C210.023 62.2168 209.799 62.2617 209.607 62.3516C209.42 62.4414 209.26 62.5742 209.127 62.75C208.854 63.1055 208.717 63.6191 208.717 64.291V68H207.639V61.4375ZM216.732 68.1699C216.053 68.1699 215.516 67.9805 215.121 67.6016C214.934 67.4219 214.787 67.2109 214.682 66.9688C214.576 66.7227 214.523 66.4277 214.523 66.084C214.523 65.3613 214.77 64.8086 215.262 64.4258C215.746 64.0469 216.465 63.8574 217.418 63.8574H218.865V63.6875C218.865 63.4375 218.832 63.2148 218.766 63.0195C218.699 62.8242 218.6 62.666 218.467 62.5449C218.338 62.4277 218.168 62.3398 217.957 62.2812C217.746 62.2227 217.5 62.1934 217.219 62.1934C216.848 62.1934 216.475 62.2461 216.1 62.3516C215.721 62.457 215.355 62.6113 215.004 62.8145V61.7363C215.168 61.6738 215.35 61.6113 215.549 61.5488C215.748 61.4863 215.949 61.4336 216.152 61.3906C216.508 61.3164 216.865 61.2793 217.225 61.2793C217.502 61.2793 217.754 61.3008 217.98 61.3438C218.207 61.3828 218.418 61.4434 218.613 61.5254C218.793 61.6035 218.963 61.7031 219.123 61.8242C219.287 61.9414 219.426 62.0781 219.539 62.2344C219.621 62.3477 219.688 62.4668 219.738 62.5918C219.789 62.7168 219.828 62.8398 219.855 62.9609C219.918 63.2461 219.949 63.6777 219.949 64.2559V65.5977C219.957 65.8242 219.963 66.0234 219.967 66.1953C219.971 66.3672 219.982 66.5273 220.002 66.6758C220.021 66.8398 220.043 66.9941 220.066 67.1387C220.094 67.2832 220.117 67.3926 220.137 67.4668C220.164 67.5879 220.195 67.7031 220.23 67.8125C220.266 67.918 220.287 67.9805 220.295 68H219.211C219.191 67.9531 219.166 67.8848 219.135 67.7949C219.107 67.7012 219.08 67.5996 219.053 67.4902C219.033 67.4043 219.014 67.3184 218.994 67.2324C218.979 67.1426 218.967 67.0664 218.959 67.0039C218.846 67.1992 218.699 67.373 218.52 67.5254C218.344 67.6777 218.17 67.7988 217.998 67.8887C217.811 67.9863 217.611 68.0566 217.4 68.0996C217.193 68.1465 216.971 68.1699 216.732 68.1699ZM216.955 67.2676C217.545 67.2676 218.01 67.0605 218.35 66.6465C218.693 66.2246 218.865 65.6562 218.865 64.9414V64.7012H217.5C216.875 64.7012 216.402 64.8105 216.082 65.0293C215.914 65.1426 215.791 65.2832 215.713 65.4512C215.639 65.6152 215.602 65.8066 215.602 66.0254C215.602 66.2285 215.633 66.4062 215.695 66.5586C215.758 66.707 215.846 66.834 215.959 66.9395C216.072 67.041 216.209 67.1211 216.369 67.1797C216.533 67.2383 216.729 67.2676 216.955 67.2676ZM224.021 60.248C223.904 60.248 223.846 60.1895 223.846 60.0723V59.0586C223.846 58.9414 223.904 58.8828 224.021 58.8828H224.865C224.982 58.8828 225.041 58.9414 225.041 59.0586V60.0723C225.041 60.1895 224.982 60.248 224.865 60.248H224.021ZM225.99 68.0469C225.678 68.0469 225.396 67.998 225.146 67.9004C224.9 67.8027 224.684 67.6445 224.496 67.4258C224.141 67.0117 223.963 66.4258 223.963 65.668V62.2812H222.527V61.4375H225.041V65.668C225.041 66.1562 225.131 66.5215 225.311 66.7637C225.404 66.8926 225.516 66.9863 225.645 67.0449C225.777 67.1035 225.928 67.1328 226.096 67.1328H227.355V68.0469H225.99ZM232.998 68.0469C232.686 68.0469 232.404 67.998 232.154 67.9004C231.908 67.8027 231.691 67.6445 231.504 67.4258C231.148 67.0117 230.971 66.4258 230.971 65.668V59.7266H229.242V58.8828H232.049V65.668C232.049 66.1562 232.139 66.5215 232.318 66.7637C232.412 66.8926 232.523 66.9863 232.652 67.0449C232.785 67.1035 232.936 67.1328 233.104 67.1328H234.363V68.0469H232.998Z" fill="white"/>
<path d="M31.9453 154.801V137.305H36.6914C39.0938 137.305 40.8398 137.738 41.9062 138.594C42.9609 139.449 43.4883 140.844 43.4883 142.777C43.4883 144.711 42.9609 146.105 41.9062 146.961C40.8398 147.816 39.0938 148.25 36.6914 148.25H35.4023V154.801H31.9453ZM35.4023 145.344H36.8203C37.957 145.344 38.7539 145.156 39.2109 144.77C39.668 144.383 39.8906 143.727 39.8906 142.777C39.8906 141.828 39.668 141.172 39.2109 140.785C38.7539 140.398 37.957 140.211 36.8203 140.211H35.4023V145.344ZM47.2852 154.801V141.676H50.3789L50.7188 143.715C51.0586 142.953 51.5742 142.379 52.2656 141.969C52.9688 141.559 53.7891 141.359 54.668 141.359C55.1367 141.359 55.6641 141.418 56.0859 141.523C56.543 141.652 57.0234 141.84 57.3633 142.027V145.297C56.9883 144.957 56.5547 144.699 56.0508 144.523C55.5469 144.348 54.9961 144.266 54.3984 144.266C53.6602 144.266 53.0273 144.395 52.4883 144.641C51.9375 144.887 51.5156 145.262 51.2227 145.742C51.0703 145.988 50.918 146.352 50.8359 146.832C50.7539 147.289 50.7188 147.828 50.7188 148.754V154.801H47.2852ZM66.1523 155.141C64.1484 155.141 62.6953 154.402 61.7109 153.289C60.6211 152.059 60.0703 150.301 60.0703 148.238C60.0703 146.141 60.6328 144.43 61.7109 143.211C62.7891 141.992 64.3008 141.359 66.1406 141.359C68.0625 141.359 69.5508 142.039 70.582 143.199C71.6133 144.359 72.2227 146.035 72.2227 148.25C72.2227 150.348 71.6719 152.047 70.5938 153.277C69.5625 154.449 68.0625 155.141 66.1523 155.141ZM66.1406 152.352C66.9727 152.352 67.6172 151.988 68.0859 151.273C68.5547 150.547 68.7891 149.539 68.7891 148.238C68.7891 146.961 68.5547 145.953 68.0859 145.227C67.6055 144.477 66.9375 144.148 66.1406 144.148C65.2617 144.148 64.6406 144.559 64.207 145.227C63.7383 145.953 63.5039 146.961 63.5039 148.238C63.5039 149.539 63.7383 150.547 64.207 151.273C64.6758 151.988 65.3203 152.352 66.1406 152.352ZM83.3086 140.117H80.5781C80.3438 140.117 80.2266 140 80.2266 139.766V136.461C80.2266 136.227 80.3438 136.109 80.5781 136.109H83.3086C83.543 136.109 83.6602 136.227 83.6602 136.461V139.766C83.6602 140 83.543 140.117 83.3086 140.117ZM75.375 159.77V157.133H78.1172C78.8906 157.133 79.4297 156.922 79.7461 156.488C80.0625 156.055 80.2266 155.316 80.2266 154.297V144.312H76.7461V141.676H83.6602V154.297C83.6602 156.266 83.3086 157.672 82.6055 158.516C81.9141 159.324 80.7539 159.77 79.0781 159.77H75.375ZM95.6367 155.141C93.3516 155.141 91.7227 154.555 90.5508 153.371C89.3906 152.188 88.8047 150.5 88.8047 148.309C88.8047 146.117 89.3555 144.477 90.4805 143.223C91.5938 141.98 93.1172 141.359 95.0742 141.359C96.9141 141.359 98.4727 141.898 99.5859 143.082C100.699 144.266 101.191 145.941 101.191 147.957V149.352H92.2969C92.3086 150.395 92.6133 151.156 93.2109 151.66C93.8086 152.164 94.7109 152.422 95.8945 152.422C96.6797 152.422 97.4648 152.305 98.2383 152.082C98.9531 151.859 99.75 151.531 100.641 151.004V154.156C99.8438 154.484 99.0352 154.73 98.2031 154.895C97.3594 155.07 96.4805 155.141 95.6367 155.141ZM92.332 146.785L97.7344 146.773C97.7227 145.859 97.4883 145.168 97.043 144.711C96.6211 144.277 95.9531 144.02 95.0742 144.02C94.2656 144.02 93.6328 144.254 93.1641 144.734C92.6953 145.215 92.4141 145.906 92.332 146.785ZM110.531 155.141C108.48 155.141 106.887 154.531 105.75 153.312C104.613 152.082 104.039 150.395 104.039 148.25C104.039 146.094 104.613 144.395 105.762 143.164C106.91 141.945 108.492 141.336 110.496 141.336C111.211 141.336 111.902 141.418 112.559 141.582C113.203 141.746 113.859 142.004 114.504 142.344V145.484C114 145.051 113.414 144.711 112.863 144.488C112.312 144.266 111.656 144.148 110.988 144.148C109.816 144.148 108.996 144.523 108.422 145.215C107.824 145.93 107.52 146.949 107.52 148.25C107.52 149.551 107.824 150.559 108.422 151.273C109.02 151.977 109.875 152.328 111 152.328C111.656 152.328 112.277 152.211 112.863 151.988C113.367 151.801 113.953 151.484 114.504 150.98V154.133C113.883 154.496 113.297 154.707 112.641 154.883C111.984 155.059 111.34 155.141 110.531 155.141ZM129.34 154.848H126.457C124.477 154.848 123.152 154.531 122.461 153.898C121.77 153.277 121.418 152.105 121.418 150.406V144.312H118.066V141.676H121.418V138.09L124.852 136.566V141.676H129.34V144.312H124.852V150.57C124.852 151.145 124.992 151.566 125.285 151.824C125.602 152.105 126.082 152.211 126.703 152.211H129.34V154.848ZM151.184 154.801V140.328H146.742V137.305H159.082V140.328H154.641V154.801H151.184ZM168.164 140.117H165.434C165.199 140.117 165.082 140 165.082 139.766V136.461C165.082 136.227 165.199 136.109 165.434 136.109H168.164C168.398 136.109 168.516 136.227 168.516 136.461V139.766C168.516 140 168.398 140.117 168.164 140.117ZM173.367 154.941H169.664C168.035 154.941 166.863 154.52 166.148 153.676C165.434 152.844 165.082 151.438 165.082 149.469V144.312H162.305V141.676H168.516V149.469C168.516 150.488 168.68 151.227 168.996 151.66C169.312 152.094 169.852 152.305 170.625 152.305H173.367V154.941ZM187.184 154.848H184.301C182.32 154.848 180.996 154.531 180.305 153.898C179.613 153.277 179.262 152.105 179.262 150.406V144.312H175.91V141.676H179.262V138.09L182.695 136.566V141.676H187.184V144.312H182.695V150.57C182.695 151.145 182.836 151.566 183.129 151.824C183.445 152.105 183.926 152.211 184.547 152.211H187.184V154.848ZM202.008 154.895H198.305C196.676 154.895 195.504 154.473 194.789 153.629C194.074 152.797 193.723 151.391 193.723 149.422V139.203H190.242V136.566H197.156V149.422C197.156 150.441 197.32 151.18 197.637 151.613C197.953 152.047 198.492 152.258 199.266 152.258H202.008V154.895ZM211.324 155.141C209.039 155.141 207.41 154.555 206.238 153.371C205.078 152.188 204.492 150.5 204.492 148.309C204.492 146.117 205.043 144.477 206.168 143.223C207.281 141.98 208.805 141.359 210.762 141.359C212.602 141.359 214.16 141.898 215.273 143.082C216.387 144.266 216.879 145.941 216.879 147.957V149.352H207.984C207.996 150.395 208.301 151.156 208.898 151.66C209.496 152.164 210.398 152.422 211.582 152.422C212.367 152.422 213.152 152.305 213.926 152.082C214.641 151.859 215.438 151.531 216.328 151.004V154.156C215.531 154.484 214.723 154.73 213.891 154.895C213.047 155.07 212.168 155.141 211.324 155.141ZM208.02 146.785L213.422 146.773C213.41 145.859 213.176 145.168 212.73 144.711C212.309 144.277 211.641 144.02 210.762 144.02C209.953 144.02 209.32 144.254 208.852 144.734C208.383 145.215 208.102 145.906 208.02 146.785Z" fill="white"/>
<rect x="30.6" y="173.801" width="123" height="28.4" rx="14.2" fill="white"/>
<rect x="30.6" y="173.801" width="123" height="28.4" rx="14.2" stroke="#C0282D" stroke-width="1.2"/>
<path d="M40.8094 192.002V181.504H43.875C45.0422 181.504 45.9281 181.771 46.5398 182.299C47.1656 182.854 47.4469 183.656 47.4469 184.647C47.4469 185.681 47.1445 186.461 46.5469 186.989C45.9562 187.516 45.0633 187.783 43.875 187.783H42.2297V192.002H40.8094ZM42.2297 186.616H43.875C44.5781 186.616 45.0773 186.412 45.4148 186.096C45.7804 185.751 45.9633 185.266 45.9633 184.64C45.9633 184.014 45.7804 183.529 45.4148 183.185C45.0562 182.84 44.5429 182.671 43.875 182.671H42.2297V186.616ZM50.4 192.002V184.127H51.5742L51.7008 185.667C51.9187 185.111 52.2562 184.682 52.6992 184.38C53.1422 184.085 53.6695 183.937 54.2812 183.937C54.5976 183.937 54.9 183.979 55.1812 184.057C55.4554 184.134 55.7297 184.261 55.9758 184.429V185.751C55.7086 185.533 55.4273 185.379 55.132 185.28C54.8437 185.182 54.5273 185.132 54.1828 185.132C53.3812 185.132 52.7695 185.386 52.3406 185.892C51.9117 186.391 51.7008 187.122 51.7008 188.086V192.002H50.4ZM61.2844 192.206C60.2086 192.206 59.3648 191.854 58.7812 191.151C58.1906 190.42 57.9164 189.379 57.9164 188.064C57.9164 186.736 58.2047 185.709 58.7812 184.999C59.3578 184.289 60.1945 183.937 61.2844 183.937C62.4094 183.937 63.232 184.303 63.7945 184.999C64.3711 185.709 64.6594 186.729 64.6594 188.057C64.6594 189.4 64.3781 190.448 63.7945 191.151C63.232 191.847 62.3883 192.206 61.2844 192.206ZM61.2844 191.109C61.9453 191.109 62.4445 190.849 62.782 190.336C63.1195 189.822 63.2883 189.07 63.2883 188.071C63.2883 187.073 63.1195 186.314 62.782 185.8C62.4445 185.287 61.9453 185.034 61.2844 185.034C60.6304 185.034 60.1312 185.287 59.7937 185.8C59.4562 186.314 59.2875 187.073 59.2875 188.071C59.2875 189.07 59.4562 189.822 59.7937 190.336C60.1312 190.849 60.6304 191.109 61.2844 191.109ZM71.2265 182.7H70.214C70.0734 182.7 70.0031 182.629 70.0031 182.489V181.272C70.0031 181.132 70.0734 181.061 70.214 181.061H71.2265C71.3672 181.061 71.4375 181.132 71.4375 181.272V182.489C71.4375 182.629 71.3672 182.7 71.2265 182.7ZM67.3031 194.997V193.9H68.9484C69.3703 193.9 69.6867 193.753 69.8976 193.464C70.1086 193.169 70.214 192.726 70.214 192.143V185.132H67.9851V184.127H71.5078V192.143C71.5078 193.036 71.3039 193.753 70.882 194.259C70.4601 194.765 69.8484 194.997 69.089 194.997H67.3031ZM79.0664 192.206C77.857 192.206 76.8867 191.833 76.2117 191.109C75.5367 190.385 75.1781 189.365 75.1781 188.079C75.1781 186.757 75.5578 185.765 76.1836 185.062C76.8656 184.303 77.8078 183.937 78.8695 183.937C79.9172 183.937 80.7047 184.296 81.2672 184.95C81.8297 185.604 82.132 186.539 82.132 187.741V188.374H76.5281V188.416C76.5281 189.274 76.7531 189.935 77.2031 190.406C77.632 190.856 78.2367 191.109 79.0875 191.109C79.5164 191.109 79.9453 191.046 80.3883 190.912C80.8453 190.779 81.3234 190.575 81.8297 190.314V191.601C81.3304 191.805 80.8664 191.953 80.4094 192.058C79.9594 192.164 79.5094 192.206 79.0664 192.206ZM76.5773 187.368L80.8383 187.361C80.8172 186.553 80.6133 185.983 80.3039 185.625C79.9664 185.231 79.4601 185.034 78.8414 185.034C78.2086 185.034 77.6953 185.238 77.2945 185.653C76.8937 186.068 76.6547 186.644 76.5773 187.368ZM87.989 192.206C86.8148 192.206 85.8375 191.833 85.1625 191.109C84.4804 190.378 84.1359 189.358 84.1359 188.071C84.1359 186.729 84.5156 185.723 85.1695 185.027C85.8656 184.296 86.8219 183.937 87.9961 183.937C88.425 183.937 88.7765 183.979 89.1351 184.085C89.4937 184.183 89.8523 184.338 90.225 184.542V185.899C89.8804 185.596 89.5429 185.371 89.1984 185.238C88.8469 185.104 88.4601 185.034 88.0312 185.034C87.2156 185.034 86.5898 185.294 86.1539 185.821C85.7179 186.349 85.5 187.101 85.5 188.064C85.5 188.964 85.6828 189.752 86.1539 190.314C86.5969 190.842 87.2297 191.109 88.0523 191.109C88.5234 191.109 88.9031 191.032 89.2336 190.898C89.6554 190.736 89.9367 190.532 90.225 190.258V191.601C89.9086 191.791 89.5148 191.953 89.1562 192.058C88.8258 192.15 88.439 192.206 87.989 192.206ZM98.9156 192.03H97.3336C96.3703 192.03 95.6812 191.833 95.2804 191.446C94.8797 191.06 94.6828 190.392 94.6828 189.436V185.132H92.5804V184.127H94.6828V182.067L95.9765 181.504V184.127H98.9156V185.132H95.9765V189.436C95.9765 190.012 96.089 190.42 96.307 190.652C96.525 190.884 96.9047 190.996 97.4601 190.996H98.9156V192.03ZM112.641 192.002V182.7H109.343V181.504H117.352V182.7H114.068V192.002H112.641ZM118.983 194.997V193.914H119.749C120.171 193.914 120.452 193.774 120.642 193.584C120.846 193.366 121.099 192.888 121.465 191.875L118.42 184.127H119.791L122.126 190.286L124.425 184.127H125.796L123.722 189.471C123.054 191.2 123.349 190.392 122.899 191.636C122.337 193.148 122.098 193.64 121.964 193.886C121.76 194.245 121.521 194.519 121.155 194.723C120.832 194.906 120.452 194.997 120.023 194.997H118.983ZM127.702 194.997V184.127H128.876L129.002 185.132C129.22 184.739 129.509 184.443 129.867 184.239C130.226 184.036 130.641 183.937 131.112 183.937C132.047 183.937 132.806 184.303 133.348 185.041C133.889 185.779 134.156 186.799 134.156 188.086C134.156 189.372 133.882 190.385 133.341 191.109C132.799 191.84 132.054 192.206 131.105 192.206C130.57 192.206 130.198 192.093 129.853 191.896C129.487 191.686 129.206 191.39 129.002 191.011V194.997H127.702ZM130.915 191.109C131.541 191.109 132.012 190.856 132.328 190.343C132.645 189.829 132.799 189.077 132.799 188.071C132.799 187.066 132.645 186.314 132.328 185.8C132.012 185.287 131.541 185.034 130.915 185.034C130.289 185.034 129.811 185.287 129.487 185.8C129.164 186.314 129.002 187.073 129.002 188.071C129.002 189.07 129.164 189.822 129.487 190.336C129.811 190.849 130.289 191.109 130.915 191.109ZM139.802 192.206C138.593 192.206 137.623 191.833 136.948 191.109C136.273 190.385 135.914 189.365 135.914 188.079C135.914 186.757 136.294 185.765 136.92 185.062C137.602 184.303 138.544 183.937 139.605 183.937C140.653 183.937 141.441 184.296 142.003 184.95C142.566 185.604 142.868 186.539 142.868 187.741V188.374H137.264V188.416C137.264 189.274 137.489 189.935 137.939 190.406C138.368 190.856 138.973 191.109 139.823 191.109C140.252 191.109 140.681 191.046 141.124 190.912C141.581 190.779 142.059 190.575 142.566 190.314V191.601C142.066 191.805 141.602 191.953 141.145 192.058C140.695 192.164 140.245 192.206 139.802 192.206ZM137.313 187.368L141.574 187.361C141.553 186.553 141.349 185.983 141.04 185.625C140.702 185.231 140.196 185.034 139.577 185.034C138.945 185.034 138.431 185.238 138.03 185.653C137.63 186.068 137.391 186.644 137.313 187.368Z" fill="black"/>
<rect x="30.5" y="209.301" width="584" height="304" rx="63.5" fill="white"/>
<rect x="30.5" y="209.301" width="584" height="304" rx="63.5" stroke="#2DA9E1"/>
<path d="M272.508 364.301V355.553H275.062C276.035 355.553 276.773 355.775 277.283 356.215C277.805 356.678 278.039 357.346 278.039 358.172C278.039 359.033 277.787 359.684 277.289 360.123C276.797 360.562 276.053 360.785 275.062 360.785H273.691V364.301H272.508ZM273.691 359.812H275.062C275.648 359.812 276.064 359.643 276.346 359.379C276.65 359.092 276.803 358.688 276.803 358.166C276.803 357.645 276.65 357.24 276.346 356.953C276.047 356.666 275.619 356.525 275.062 356.525H273.691V359.812ZM280.5 364.301V357.738H281.479L281.584 359.021C281.766 358.559 282.047 358.201 282.416 357.949C282.785 357.703 283.225 357.58 283.734 357.58C283.998 357.58 284.25 357.615 284.484 357.68C284.713 357.744 284.941 357.85 285.146 357.99V359.092C284.924 358.91 284.689 358.781 284.443 358.699C284.203 358.617 283.939 358.576 283.652 358.576C282.984 358.576 282.475 358.787 282.117 359.209C281.76 359.625 281.584 360.234 281.584 361.037V364.301H280.5ZM289.57 364.471C288.674 364.471 287.971 364.178 287.484 363.592C286.992 362.982 286.764 362.115 286.764 361.02C286.764 359.912 287.004 359.057 287.484 358.465C287.965 357.873 288.662 357.58 289.57 357.58C290.508 357.58 291.193 357.885 291.662 358.465C292.143 359.057 292.383 359.906 292.383 361.014C292.383 362.133 292.148 363.006 291.662 363.592C291.193 364.172 290.49 364.471 289.57 364.471ZM289.57 363.557C290.121 363.557 290.537 363.34 290.818 362.912C291.1 362.484 291.24 361.857 291.24 361.025C291.24 360.193 291.1 359.561 290.818 359.133C290.537 358.705 290.121 358.494 289.57 358.494C289.025 358.494 288.609 358.705 288.328 359.133C288.047 359.561 287.906 360.193 287.906 361.025C287.906 361.857 288.047 362.484 288.328 362.912C288.609 363.34 289.025 363.557 289.57 363.557ZM297.855 356.549H297.012C296.895 356.549 296.836 356.49 296.836 356.373V355.359C296.836 355.242 296.895 355.184 297.012 355.184H297.855C297.973 355.184 298.031 355.242 298.031 355.359V356.373C298.031 356.49 297.973 356.549 297.855 356.549ZM294.586 366.797V365.883H295.957C296.309 365.883 296.572 365.76 296.748 365.52C296.924 365.273 297.012 364.904 297.012 364.418V358.576H295.154V357.738H298.09V364.418C298.09 365.162 297.92 365.76 297.568 366.182C297.217 366.604 296.707 366.797 296.074 366.797H294.586ZM304.389 364.471C303.381 364.471 302.572 364.16 302.01 363.557C301.447 362.953 301.148 362.104 301.148 361.031C301.148 359.93 301.465 359.104 301.986 358.518C302.555 357.885 303.34 357.58 304.225 357.58C305.098 357.58 305.754 357.879 306.223 358.424C306.691 358.969 306.943 359.748 306.943 360.75V361.277H302.273V361.312C302.273 362.027 302.461 362.578 302.836 362.971C303.193 363.346 303.697 363.557 304.406 363.557C304.764 363.557 305.121 363.504 305.49 363.393C305.871 363.281 306.27 363.111 306.691 362.895V363.967C306.275 364.137 305.889 364.26 305.508 364.348C305.133 364.436 304.758 364.471 304.389 364.471ZM302.314 360.439L305.865 360.434C305.848 359.76 305.678 359.285 305.42 358.986C305.139 358.658 304.717 358.494 304.201 358.494C303.674 358.494 303.246 358.664 302.912 359.01C302.578 359.355 302.379 359.836 302.314 360.439ZM311.824 364.471C310.846 364.471 310.031 364.16 309.469 363.557C308.9 362.947 308.613 362.098 308.613 361.025C308.613 359.906 308.93 359.068 309.475 358.488C310.055 357.879 310.852 357.58 311.83 357.58C312.188 357.58 312.48 357.615 312.779 357.703C313.078 357.785 313.377 357.914 313.688 358.084V359.215C313.4 358.963 313.119 358.775 312.832 358.664C312.539 358.553 312.217 358.494 311.859 358.494C311.18 358.494 310.658 358.711 310.295 359.15C309.932 359.59 309.75 360.217 309.75 361.02C309.75 361.77 309.902 362.426 310.295 362.895C310.664 363.334 311.191 363.557 311.877 363.557C312.27 363.557 312.586 363.492 312.861 363.381C313.213 363.246 313.447 363.076 313.688 362.848V363.967C313.424 364.125 313.096 364.26 312.797 364.348C312.521 364.424 312.199 364.471 311.824 364.471ZM320.93 364.324H319.611C318.809 364.324 318.234 364.16 317.9 363.838C317.566 363.516 317.402 362.959 317.402 362.162V358.576H315.65V357.738H317.402V356.021L318.48 355.553V357.738H320.93V358.576H318.48V362.162C318.48 362.643 318.574 362.982 318.756 363.176C318.938 363.369 319.254 363.463 319.717 363.463H320.93V364.324ZM332.766 364.471C332.35 364.471 331.922 364.43 331.518 364.342C331.113 364.254 330.668 364.107 330.27 363.943V362.684C330.721 362.971 331.143 363.176 331.547 363.311C331.945 363.445 332.344 363.51 332.748 363.51C333.334 363.51 333.814 363.375 334.148 363.111C334.494 362.836 334.646 362.455 334.646 361.957C334.646 361.518 334.535 361.219 334.307 360.99C334.055 360.732 333.697 360.586 333.111 360.451L332.479 360.305C331.688 360.123 331.102 359.871 330.709 359.473C330.34 359.104 330.158 358.605 330.158 357.979C330.158 357.182 330.439 356.543 330.949 356.092C331.447 355.646 332.15 355.395 333.041 355.395C333.375 355.395 333.727 355.43 334.102 355.506C334.465 355.582 334.857 355.693 335.273 355.852V357.053C334.898 356.812 334.547 356.648 334.195 356.531C333.832 356.414 333.469 356.355 333.105 356.355C332.572 356.355 332.098 356.479 331.77 356.742C331.441 357.006 331.289 357.381 331.289 357.826C331.289 358.225 331.406 358.482 331.611 358.676C331.852 358.904 332.215 359.057 332.801 359.191L333.422 359.332C334.248 359.52 334.828 359.818 335.209 360.234C335.59 360.639 335.777 361.195 335.777 361.898C335.777 362.789 335.484 363.41 335.01 363.814C334.494 364.254 333.732 364.471 332.766 364.471ZM337.898 364.301V355.184H339.012V360.463L341.842 357.738H343.154L340.57 360.211L343.559 364.301H342.24L339.814 360.914L339.012 361.67V364.301H337.898ZM347.713 356.549H346.869C346.752 356.549 346.693 356.49 346.693 356.373V355.359C346.693 355.242 346.752 355.184 346.869 355.184H347.713C347.83 355.184 347.889 355.242 347.889 355.359V356.373C347.889 356.49 347.83 356.549 347.713 356.549ZM350.203 364.348H348.838C348.211 364.348 347.719 364.166 347.344 363.727C346.986 363.311 346.811 362.725 346.811 361.969V358.582H345.375V357.738H347.889V361.969C347.889 362.455 347.977 362.824 348.158 363.064C348.346 363.322 348.609 363.434 348.943 363.434H350.203V364.348ZM357.211 364.348H355.846C355.219 364.348 354.727 364.166 354.352 363.727C353.994 363.311 353.818 362.725 353.818 361.969V356.027H352.09V355.184H354.896V361.969C354.896 362.455 354.984 362.824 355.166 363.064C355.354 363.322 355.617 363.434 355.951 363.434H357.211V364.348ZM364.441 364.348H363.076C362.449 364.348 361.957 364.166 361.582 363.727C361.225 363.311 361.049 362.725 361.049 361.969V356.027H359.32V355.184H362.127V361.969C362.127 362.455 362.215 362.824 362.396 363.064C362.584 363.322 362.848 363.434 363.182 363.434H364.441V364.348ZM368.953 364.471C368.607 364.471 368.232 364.436 367.898 364.371C367.594 364.307 367.16 364.195 366.744 364.061V362.947C367.242 363.199 367.564 363.316 367.898 363.41C368.256 363.51 368.584 363.568 368.941 363.568C369.416 363.568 369.785 363.469 370.049 363.275C370.324 363.07 370.441 362.783 370.441 362.502C370.441 361.957 369.996 361.635 369.006 361.43L368.959 361.418L368.555 361.336C367.969 361.219 367.506 361.031 367.195 360.721C366.908 360.434 366.768 360.041 366.768 359.543C366.768 358.91 366.984 358.424 367.406 358.09C367.852 357.732 368.473 357.58 369.24 357.58C369.574 357.58 369.914 357.609 370.242 357.674C370.541 357.738 370.869 357.832 371.197 357.967V359.021C370.887 358.84 370.576 358.705 370.266 358.617C369.955 358.529 369.645 358.482 369.287 358.482C368.836 358.482 368.461 358.559 368.221 358.717C367.98 358.875 367.857 359.121 367.857 359.449C367.857 359.725 367.945 359.959 368.127 360.1C368.309 360.24 368.695 360.375 369.469 360.521L369.902 360.604C370.465 360.715 370.857 360.914 371.121 361.213C371.396 361.512 371.531 361.91 371.531 362.408C371.531 363.082 371.285 363.568 370.84 363.92C370.365 364.295 369.721 364.471 368.953 364.471Z" fill="black"/>
</g>
<defs>
<filter id="filter0_d_249_6424" x="0.800024" y="0" width="643.4" height="569.2" filterUnits="userSpaceOnUse" color-interpolation-filters="sRGB">
<feFlood flood-opacity="0" result="BackgroundImageFix"/>
<feColorMatrix in="SourceAlpha" type="matrix" values="0 0 0 0 0 0 0 0 0 0 0 0 0 0 0 0 0 0 127 0" result="hardAlpha"/>
<feOffset dy="9.6"/>
<feGaussianBlur stdDeviation="4.8"/>
<feComposite in2="hardAlpha" operator="out"/>
<feColorMatrix type="matrix" values="0 0 0 0 0.752941 0 0 0 0 0.156863 0 0 0 0 0.176471 0 0 0 0.54 0"/>
<feBlend mode="normal" in2="BackgroundImageFix" result="effect1_dropShadow_249_6424"/>
<feBlend mode="normal" in="SourceGraphic" in2="effect1_dropShadow_249_6424" result="shape"/>
</filter>
</defs>
</svg>
