<svg width="1225" height="769" viewBox="0 0 1225 769" fill="none" xmlns="http://www.w3.org/2000/svg">
<g filter="url(#filter0_d_27_576)">
<g clip-path="url(#clip0_27_576)">
<rect width="1225" height="769" rx="9" fill="#151029"/>
<g filter="url(#filter1_d_27_576)">
<rect x="4" y="125" width="11.9333" height="654" rx="2.31868" fill="#151029"/>
<rect x="4" y="125" width="11.9333" height="654" rx="2.31868" fill="#858585" fill-opacity="0.12"/>
</g>
<g filter="url(#filter2_d_27_576)">
<rect x="23.9333" y="69" width="11.9333" height="710" rx="2.51722" fill="#151029"/>
<rect x="23.9333" y="69" width="11.9333" height="710" rx="2.51722" fill="#858585" fill-opacity="0.12"/>
</g>
<g filter="url(#filter3_d_27_576)">
<rect x="43.8667" y="10" width="11.9333" height="769" rx="2.7264" fill="#151029"/>
<rect x="43.8667" y="10" width="11.9333" height="769" rx="2.7264" fill="#858585" fill-opacity="0.12"/>
</g>
<rect x="71.8" y="10" width="1081.4" height="767.12" rx="9" fill="#422B71"/>
<rect x="89.8" y="28" width="121" height="95" rx="16" fill="#C0282D"/>
<path d="M109.972 72.168H111.675C112.323 72.168 112.817 72.3151 113.156 72.6094C113.33 72.763 113.458 72.9505 113.538 73.1719C113.619 73.3906 113.659 73.638 113.659 73.9141C113.659 74.487 113.493 74.9206 113.159 75.2148C112.995 75.3607 112.79 75.4714 112.542 75.5469C112.295 75.6198 112.006 75.6562 111.675 75.6562H110.761V78H109.972V72.168ZM111.675 75.0078C111.87 75.0078 112.038 74.9818 112.179 74.9297C112.32 74.8776 112.437 74.8073 112.531 74.7188C112.734 74.5286 112.835 74.2591 112.835 73.9102C112.835 73.5638 112.734 73.2943 112.531 73.1016C112.33 72.9115 112.045 72.8164 111.675 72.8164H110.761V75.0078H111.675ZM115.3 73.625H115.952L116.023 74.4805C116.145 74.1706 116.33 73.9323 116.577 73.7656C116.822 73.6016 117.115 73.5195 117.456 73.5195C117.633 73.5195 117.8 73.5417 117.956 73.5859C118.032 73.6068 118.107 73.6354 118.183 73.6719C118.258 73.7057 118.33 73.7461 118.398 73.793V74.5273C118.249 74.4076 118.093 74.3203 117.929 74.2656C117.767 74.2109 117.592 74.1836 117.402 74.1836C116.956 74.1836 116.615 74.3242 116.378 74.6055C116.141 74.8841 116.023 75.2904 116.023 75.8242V78H115.3V73.625ZM121.347 78.1133C121.047 78.1133 120.781 78.0651 120.546 77.9688C120.314 77.8698 120.118 77.7227 119.956 77.5273C119.792 77.3242 119.671 77.0794 119.593 76.793C119.515 76.5039 119.476 76.1771 119.476 75.8125C119.476 75.0729 119.636 74.5052 119.956 74.1094C120.277 73.7161 120.74 73.5195 121.347 73.5195C121.659 73.5195 121.93 73.5703 122.159 73.6719C122.391 73.7708 122.585 73.9167 122.741 74.1094C123.062 74.5052 123.222 75.0716 123.222 75.8086C123.222 76.181 123.182 76.5117 123.101 76.8008C123.023 77.0898 122.903 77.332 122.741 77.5273C122.585 77.7201 122.39 77.8659 122.156 77.9648C121.924 78.0638 121.654 78.1133 121.347 78.1133ZM121.347 77.5039C121.714 77.5039 121.991 77.3607 122.179 77.0742C122.366 76.7904 122.46 76.3711 122.46 75.8164C122.46 75.2617 122.366 74.8411 122.179 74.5547C121.991 74.2708 121.714 74.1289 121.347 74.1289C120.982 74.1289 120.706 74.2708 120.519 74.5547C120.331 74.8411 120.238 75.2617 120.238 75.8164C120.238 76.3711 120.331 76.7904 120.519 77.0742C120.706 77.3607 120.982 77.5039 121.347 77.5039ZM126.308 72.832C126.23 72.832 126.191 72.793 126.191 72.7148V72.0391C126.191 71.9609 126.23 71.9219 126.308 71.9219H126.87C126.948 71.9219 126.988 71.9609 126.988 72.0391V72.7148C126.988 72.793 126.948 72.832 126.87 72.832H126.308ZM124.691 79.0547H125.605C125.839 79.0547 126.015 78.974 126.132 78.8125C126.249 78.6484 126.308 78.4036 126.308 78.0781V74.1836H125.07V73.625H127.027V78.0781C127.027 78.3255 126.998 78.5482 126.941 78.7461C126.883 78.944 126.796 79.1133 126.679 79.2539C126.562 79.3945 126.419 79.4974 126.249 79.5625C126.083 79.6302 125.894 79.6641 125.683 79.6641H124.691V79.0547ZM131.226 78.1133C130.89 78.1133 130.588 78.0625 130.32 77.9609C130.054 77.8568 129.827 77.7044 129.64 77.5039C129.452 77.3034 129.309 77.0625 129.21 76.7812C129.114 76.4974 129.066 76.1771 129.066 75.8203C129.066 75.4531 129.115 75.1315 129.214 74.8555C129.313 74.5768 129.45 74.3398 129.624 74.1445C129.814 73.9336 130.037 73.7773 130.292 73.6758C130.547 73.5716 130.822 73.5195 131.116 73.5195C131.408 73.5195 131.663 73.5677 131.882 73.6641C132.103 73.7604 132.292 73.8997 132.448 74.082C132.605 74.2643 132.723 74.4857 132.804 74.7461C132.887 75.0039 132.929 75.2995 132.929 75.6328V75.9844H129.816V76.0078C129.816 76.4844 129.941 76.8529 130.191 77.1133C130.31 77.2383 130.455 77.3346 130.624 77.4023C130.796 77.4701 131.001 77.5039 131.238 77.5039C131.475 77.5039 131.715 77.4674 131.96 77.3945C132.213 77.319 132.48 77.2083 132.761 77.0625V77.7773C132.623 77.8346 132.489 77.8841 132.359 77.9258C132.228 77.9674 132.1 78.0026 131.972 78.0312C131.847 78.0599 131.722 78.0807 131.597 78.0938C131.472 78.1068 131.348 78.1133 131.226 78.1133ZM132.21 75.4219C132.205 75.1979 132.175 75.0065 132.12 74.8477C132.068 74.6862 131.999 74.556 131.913 74.457C131.82 74.3477 131.704 74.2656 131.566 74.2109C131.428 74.1562 131.273 74.1289 131.101 74.1289C130.749 74.1289 130.463 74.2435 130.241 74.4727C130.017 74.7044 129.885 75.0221 129.843 75.4258L132.21 75.4219ZM136.183 78.1133C135.857 78.1133 135.56 78.0625 135.292 77.9609C135.027 77.8568 134.8 77.7044 134.613 77.5039C134.422 77.3008 134.279 77.0586 134.183 76.7773C134.089 76.4935 134.042 76.1732 134.042 75.8164C134.042 75.444 134.092 75.1172 134.191 74.8359C134.292 74.5547 134.434 74.3177 134.616 74.125C134.809 73.9219 135.037 73.7708 135.3 73.6719C135.566 73.5703 135.861 73.5195 136.187 73.5195C136.307 73.5195 136.417 73.526 136.519 73.5391C136.62 73.5521 136.721 73.5729 136.82 73.6016C137.017 73.6562 137.219 73.7409 137.425 73.8555V74.6094C137.329 74.526 137.234 74.4531 137.14 74.3906C137.046 74.3281 136.951 74.2786 136.855 74.2422C136.659 74.1667 136.443 74.1289 136.206 74.1289C135.753 74.1289 135.406 74.2747 135.163 74.5664C134.921 74.8607 134.8 75.276 134.8 75.8125C134.8 76.0625 134.827 76.2943 134.882 76.5078C134.939 76.7214 135.033 76.9062 135.163 77.0625C135.408 77.3568 135.76 77.5039 136.218 77.5039C136.348 77.5039 136.467 77.4935 136.573 77.4727C136.683 77.4518 136.783 77.4232 136.874 77.3867C136.991 77.3424 137.092 77.2917 137.175 77.2344C137.261 77.1745 137.344 77.1068 137.425 77.0312V77.7773C137.337 77.8294 137.24 77.8776 137.136 77.9219C137.032 77.9661 136.93 78.0026 136.831 78.0312C136.74 78.0573 136.64 78.0768 136.531 78.0898C136.424 78.1055 136.308 78.1133 136.183 78.1133ZM141.374 78.0156C140.838 78.0156 140.458 77.9076 140.234 77.6914C140.012 77.4779 139.902 77.1055 139.902 76.5742V74.1836H138.734V73.625H139.902V72.4805L140.62 72.168V73.625H142.253V74.1836H140.62V76.5742C140.62 76.8945 140.682 77.1198 140.804 77.25C140.924 77.3776 141.137 77.4414 141.445 77.4414H142.253V78.0156H141.374ZM149.878 72.832H148.046V72.168H152.495V72.832H150.671V78H149.878V72.832ZM153.445 71.9219H154.163V74.2812C154.294 74.0286 154.467 73.8385 154.683 73.7109C154.899 73.5833 155.157 73.5195 155.456 73.5195C155.691 73.5195 155.89 73.5573 156.054 73.6328C156.218 73.7083 156.353 73.8164 156.46 73.957C156.679 74.2513 156.788 74.6953 156.788 75.2891V78H156.066V75.2891C156.066 74.8958 155.997 74.6068 155.859 74.4219C155.721 74.237 155.503 74.1445 155.206 74.1445C155.034 74.1445 154.885 74.1745 154.757 74.2344C154.632 74.2943 154.525 74.3828 154.437 74.5C154.254 74.737 154.163 75.0794 154.163 75.5273V78H153.445V71.9219ZM159.589 78.1133C159.144 78.1133 158.812 77.9661 158.593 77.6719C158.374 77.3802 158.265 76.9375 158.265 76.3438V73.6328H158.984V76.3438C158.984 76.7396 159.054 77.0286 159.195 77.2109C159.262 77.2995 159.347 77.3685 159.448 77.418C159.553 77.4648 159.683 77.4883 159.839 77.4883C160.178 77.4883 160.437 77.3685 160.616 77.1289C160.796 76.8919 160.886 76.5508 160.886 76.1055V73.6328H161.609V78H160.956L160.886 77.3438C160.756 77.599 160.583 77.7904 160.366 77.918C160.145 78.0482 159.886 78.1133 159.589 78.1133ZM162.749 73.625H163.339L163.402 74C163.488 73.8438 163.596 73.724 163.726 73.6406C163.853 73.5599 164.001 73.5195 164.167 73.5195C164.36 73.5195 164.524 73.5651 164.659 73.6562C164.787 73.7448 164.889 73.8828 164.964 74.0703C165.055 73.8802 165.169 73.7409 165.304 73.6523C165.439 73.5638 165.603 73.5195 165.796 73.5195C165.976 73.5195 166.128 73.5547 166.253 73.625C166.378 73.6927 166.475 73.793 166.542 73.9258C166.685 74.1966 166.757 74.7096 166.757 75.4648V78H166.101V75.4961C166.101 75.3294 166.098 75.1836 166.093 75.0586C166.09 74.9336 166.084 74.8255 166.073 74.7344C166.066 74.6406 166.055 74.5625 166.042 74.5C166.029 74.4349 166.014 74.3828 165.995 74.3438C165.967 74.276 165.922 74.2227 165.863 74.1836C165.803 74.1419 165.718 74.1211 165.609 74.1211C165.51 74.1211 165.426 74.1406 165.359 74.1797C165.291 74.2161 165.238 74.276 165.198 74.3594C165.154 74.4505 165.123 74.5859 165.105 74.7656C165.087 74.9427 165.077 75.1862 165.077 75.4961V78H164.421V75.4961C164.421 75.306 164.419 75.1458 164.413 75.0156C164.408 74.8828 164.4 74.7721 164.39 74.6836C164.379 74.5951 164.366 74.5247 164.351 74.4727C164.338 74.418 164.323 74.3737 164.308 74.3398C164.274 74.2721 164.225 74.2188 164.159 74.1797C164.097 74.1406 164.015 74.1211 163.913 74.1211C163.804 74.1211 163.718 74.1432 163.656 74.1875C163.596 74.2292 163.55 74.2852 163.519 74.3555C163.501 74.3945 163.484 74.444 163.468 74.5039C163.455 74.5638 163.443 74.6393 163.433 74.7305C163.422 74.819 163.415 74.9258 163.409 75.0508C163.404 75.1758 163.402 75.3242 163.402 75.4961V78H162.749V73.625ZM169.784 78.1133C169.652 78.1133 169.531 78.099 169.421 78.0703C169.312 78.0443 169.204 78.0013 169.097 77.9414C168.896 77.8268 168.736 77.6628 168.616 77.4492L168.546 78H167.898V71.9219H168.616V74.1836C168.728 73.9701 168.887 73.806 169.093 73.6914C169.294 73.5768 169.529 73.5195 169.8 73.5195C170.05 73.5195 170.279 73.569 170.488 73.668C170.698 73.7669 170.881 73.918 171.034 74.1211C171.185 74.3242 171.299 74.5677 171.374 74.8516C171.45 75.1354 171.488 75.4544 171.488 75.8086C171.488 76.5221 171.337 77.0846 171.034 77.4961C170.886 77.6992 170.708 77.8529 170.499 77.957C170.291 78.0612 170.053 78.1133 169.784 78.1133ZM169.683 77.5039C170.029 77.5039 170.29 77.362 170.464 77.0781C170.641 76.7917 170.73 76.3711 170.73 75.8164C170.73 75.2617 170.641 74.8411 170.464 74.5547C170.29 74.2708 170.028 74.1289 169.679 74.1289C169.33 74.1289 169.066 74.2708 168.886 74.5547C168.706 74.8411 168.616 75.2617 168.616 75.8164C168.616 76.3711 168.706 76.7904 168.886 77.0742C169.066 77.3607 169.331 77.5039 169.683 77.5039ZM172.726 73.625H173.374L173.445 74.2812C173.575 74.0286 173.748 73.8385 173.964 73.7109C174.18 73.5833 174.438 73.5195 174.738 73.5195C174.972 73.5195 175.171 73.5573 175.335 73.6328C175.499 73.7083 175.635 73.8164 175.741 73.957C175.96 74.2513 176.07 74.6953 176.07 75.2891V78H175.347V75.2891C175.347 74.8958 175.278 74.6068 175.14 74.4219C175.002 74.237 174.784 74.1445 174.488 74.1445C174.316 74.1445 174.166 74.1745 174.038 74.2344C173.913 74.2943 173.807 74.3828 173.718 74.5C173.536 74.737 173.445 75.0794 173.445 75.5273V78H172.726V73.625ZM178.788 78.1133C178.335 78.1133 177.977 77.987 177.714 77.7344C177.589 77.6146 177.491 77.474 177.421 77.3125C177.351 77.1484 177.316 76.9518 177.316 76.7227C177.316 76.2409 177.48 75.8724 177.808 75.6172C178.131 75.3646 178.61 75.2383 179.245 75.2383H180.21V75.125C180.21 74.9583 180.188 74.8099 180.144 74.6797C180.1 74.5495 180.033 74.444 179.945 74.3633C179.859 74.2852 179.745 74.2266 179.605 74.1875C179.464 74.1484 179.3 74.1289 179.113 74.1289C178.865 74.1289 178.616 74.1641 178.366 74.2344C178.114 74.3047 177.87 74.4076 177.636 74.543V73.8242C177.745 73.7826 177.866 73.7409 177.999 73.6992C178.132 73.6576 178.266 73.6224 178.402 73.5938C178.639 73.5443 178.877 73.5195 179.116 73.5195C179.301 73.5195 179.469 73.5339 179.62 73.5625C179.771 73.5885 179.912 73.6289 180.042 73.6836C180.162 73.7357 180.275 73.8021 180.382 73.8828C180.491 73.9609 180.584 74.0521 180.659 74.1562C180.714 74.2318 180.758 74.3112 180.792 74.3945C180.826 74.4779 180.852 74.5599 180.87 74.6406C180.912 74.8307 180.933 75.1185 180.933 75.5039V76.3984C180.938 76.5495 180.942 76.6823 180.945 76.7969C180.947 76.9115 180.955 77.0182 180.968 77.1172C180.981 77.2266 180.995 77.3294 181.011 77.4258C181.029 77.5221 181.045 77.5951 181.058 77.6445C181.076 77.7253 181.097 77.8021 181.12 77.875C181.144 77.9453 181.158 77.987 181.163 78H180.441C180.428 77.9688 180.411 77.9232 180.39 77.8633C180.372 77.8008 180.353 77.7331 180.335 77.6602C180.322 77.6029 180.309 77.5456 180.296 77.4883C180.286 77.4284 180.278 77.3776 180.273 77.3359C180.197 77.4661 180.1 77.582 179.98 77.6836C179.863 77.7852 179.747 77.8659 179.632 77.9258C179.507 77.9909 179.374 78.0378 179.234 78.0664C179.096 78.0977 178.947 78.1133 178.788 78.1133ZM178.937 77.5117C179.33 77.5117 179.64 77.3737 179.866 77.0977C180.096 76.8164 180.21 76.4375 180.21 75.9609V75.8008H179.3C178.883 75.8008 178.568 75.8737 178.355 76.0195C178.243 76.0951 178.161 76.1888 178.109 76.3008C178.059 76.4102 178.034 76.5378 178.034 76.6836C178.034 76.819 178.055 76.9375 178.097 77.0391C178.139 77.138 178.197 77.2227 178.273 77.293C178.348 77.3607 178.439 77.4141 178.546 77.4531C178.656 77.4922 178.786 77.5117 178.937 77.5117ZM183.648 72.832C183.57 72.832 183.531 72.793 183.531 72.7148V72.0391C183.531 71.9609 183.57 71.9219 183.648 71.9219H184.21C184.288 71.9219 184.327 71.9609 184.327 72.0391V72.7148C184.327 72.793 184.288 72.832 184.21 72.832H183.648ZM184.96 78.0312C184.752 78.0312 184.564 77.9987 184.398 77.9336C184.234 77.8685 184.089 77.763 183.964 77.6172C183.727 77.3411 183.609 76.9505 183.609 76.4453V74.1875H182.652V73.625H184.327V76.4453C184.327 76.7708 184.387 77.0143 184.507 77.1758C184.57 77.2617 184.644 77.3242 184.73 77.3633C184.818 77.4023 184.919 77.4219 185.031 77.4219H185.87V78.0312H184.96ZM189.632 78.0312C189.424 78.0312 189.236 77.9987 189.07 77.9336C188.906 77.8685 188.761 77.763 188.636 77.6172C188.399 77.3411 188.281 76.9505 188.281 76.4453V72.4844H187.128V71.9219H188.999V76.4453C188.999 76.7708 189.059 77.0143 189.179 77.1758C189.241 77.2617 189.316 77.3242 189.402 77.3633C189.49 77.4023 189.59 77.4219 189.702 77.4219H190.542V78.0312H189.632Z" fill="white"/>
<path d="M91.7344 171.4V150.405H97.4297C100.313 150.405 102.408 150.925 103.688 151.952C104.953 152.979 105.586 154.652 105.586 156.972C105.586 159.293 104.953 160.966 103.688 161.993C102.408 163.019 100.313 163.539 97.4297 163.539H95.8828V171.4H91.7344ZM95.8828 160.052H97.5844C98.9485 160.052 99.9047 159.827 100.453 159.363C101.002 158.899 101.269 158.111 101.269 156.972C101.269 155.833 101.002 155.046 100.453 154.582C99.9047 154.118 98.9485 153.893 97.5844 153.893H95.8828V160.052ZM110.142 171.4V155.65H113.855L114.263 158.097C114.67 157.183 115.289 156.494 116.119 156.002C116.963 155.51 117.947 155.271 119.002 155.271C119.564 155.271 120.197 155.341 120.703 155.468C121.252 155.622 121.828 155.847 122.236 156.072V159.996C121.786 159.588 121.266 159.279 120.661 159.068C120.056 158.857 119.395 158.758 118.678 158.758C117.792 158.758 117.033 158.913 116.386 159.208C115.725 159.504 115.219 159.954 114.867 160.53C114.684 160.825 114.502 161.261 114.403 161.838C114.305 162.386 114.263 163.033 114.263 164.144V171.4H110.142ZM132.783 171.808C130.378 171.808 128.634 170.922 127.453 169.586C126.145 168.11 125.484 166 125.484 163.525C125.484 161.008 126.159 158.955 127.453 157.493C128.747 156.03 130.561 155.271 132.769 155.271C135.075 155.271 136.861 156.086 138.098 157.479C139.336 158.871 140.067 160.882 140.067 163.539C140.067 166.057 139.406 168.096 138.113 169.572C136.875 170.979 135.075 171.808 132.783 171.808ZM132.769 168.461C133.767 168.461 134.541 168.025 135.103 167.168C135.666 166.296 135.947 165.086 135.947 163.525C135.947 161.993 135.666 160.783 135.103 159.911C134.527 159.011 133.725 158.618 132.769 158.618C131.714 158.618 130.969 159.11 130.448 159.911C129.886 160.783 129.605 161.993 129.605 163.525C129.605 165.086 129.886 166.296 130.448 167.168C131.011 168.025 131.784 168.461 132.769 168.461ZM153.37 153.78H150.094C149.813 153.78 149.672 153.639 149.672 153.358V149.393C149.672 149.111 149.813 148.971 150.094 148.971H153.37C153.652 148.971 153.792 149.111 153.792 149.393V153.358C153.792 153.639 153.652 153.78 153.37 153.78ZM143.85 177.363V174.199H147.141C148.069 174.199 148.716 173.946 149.095 173.425C149.475 172.905 149.672 172.019 149.672 170.796V158.814H145.495V155.65H153.792V170.796C153.792 173.158 153.37 174.846 152.527 175.858C151.697 176.829 150.305 177.363 148.294 177.363H143.85ZM168.164 171.808C165.422 171.808 163.467 171.105 162.061 169.685C160.669 168.264 159.966 166.239 159.966 163.61C159.966 160.98 160.627 159.011 161.977 157.507C163.313 156.016 165.141 155.271 167.489 155.271C169.697 155.271 171.567 155.918 172.903 157.338C174.239 158.758 174.83 160.769 174.83 163.188V164.861H164.156C164.17 166.113 164.536 167.027 165.253 167.632C165.97 168.236 167.053 168.546 168.473 168.546C169.416 168.546 170.358 168.405 171.286 168.138C172.144 167.871 173.1 167.477 174.169 166.844V170.627C173.213 171.021 172.242 171.316 171.244 171.513C170.231 171.724 169.177 171.808 168.164 171.808ZM164.198 161.782L170.681 161.768C170.667 160.671 170.386 159.841 169.852 159.293C169.345 158.772 168.544 158.463 167.489 158.463C166.519 158.463 165.759 158.744 165.197 159.321C164.634 159.897 164.297 160.727 164.198 161.782ZM186.038 171.808C183.577 171.808 181.664 171.077 180.3 169.614C178.936 168.138 178.247 166.113 178.247 163.539C178.247 160.952 178.936 158.913 180.314 157.436C181.692 155.974 183.591 155.243 185.995 155.243C186.853 155.243 187.683 155.341 188.47 155.538C189.244 155.735 190.031 156.044 190.805 156.452V160.221C190.2 159.7 189.497 159.293 188.836 159.025C188.175 158.758 187.388 158.618 186.586 158.618C185.18 158.618 184.195 159.068 183.506 159.897C182.789 160.755 182.423 161.979 182.423 163.539C182.423 165.1 182.789 166.31 183.506 167.168C184.223 168.011 185.25 168.433 186.6 168.433C187.388 168.433 188.133 168.293 188.836 168.025C189.441 167.8 190.144 167.421 190.805 166.816V170.599C190.059 171.035 189.356 171.288 188.569 171.499C187.781 171.71 187.008 171.808 186.038 171.808ZM208.608 171.457H205.148C202.772 171.457 201.183 171.077 200.353 170.318C199.523 169.572 199.102 168.166 199.102 166.127V158.814H195.08V155.65H199.102V151.347L203.222 149.519V155.65H208.608V158.814H203.222V166.324C203.222 167.013 203.391 167.519 203.742 167.829C204.122 168.166 204.698 168.293 205.444 168.293H208.608V171.457ZM234.82 171.4V154.033H229.491V150.405H244.298V154.033H238.969V171.4H234.82ZM255.197 153.78H251.92C251.639 153.78 251.498 153.639 251.498 153.358V149.393C251.498 149.111 251.639 148.971 251.92 148.971H255.197C255.478 148.971 255.619 149.111 255.619 149.393V153.358C255.619 153.639 255.478 153.78 255.197 153.78ZM261.441 171.569H256.997C255.042 171.569 253.636 171.063 252.778 170.05C251.92 169.052 251.498 167.364 251.498 165.002V158.814H248.166V155.65H255.619V165.002C255.619 166.225 255.816 167.111 256.195 167.632C256.575 168.152 257.222 168.405 258.15 168.405H261.441V171.569ZM278.02 171.457H274.561C272.184 171.457 270.595 171.077 269.766 170.318C268.936 169.572 268.514 168.166 268.514 166.127V158.814H264.492V155.65H268.514V151.347L272.634 149.519V155.65H278.02V158.814H272.634V166.324C272.634 167.013 272.803 167.519 273.155 167.829C273.534 168.166 274.111 168.293 274.856 168.293H278.02V171.457ZM295.809 171.513H291.366C289.411 171.513 288.005 171.007 287.147 169.994C286.289 168.996 285.867 167.308 285.867 164.946V152.683H281.691V149.519H289.988V164.946C289.988 166.169 290.184 167.055 290.564 167.575C290.944 168.096 291.591 168.349 292.519 168.349H295.809V171.513ZM306.989 171.808C304.247 171.808 302.292 171.105 300.886 169.685C299.494 168.264 298.791 166.239 298.791 163.61C298.791 160.98 299.452 159.011 300.802 157.507C302.138 156.016 303.966 155.271 306.314 155.271C308.522 155.271 310.392 155.918 311.728 157.338C313.064 158.758 313.655 160.769 313.655 163.188V164.861H302.981C302.995 166.113 303.361 167.027 304.078 167.632C304.795 168.236 305.878 168.546 307.298 168.546C308.241 168.546 309.183 168.405 310.111 168.138C310.969 167.871 311.925 167.477 312.994 166.844V170.627C312.038 171.021 311.067 171.316 310.069 171.513C309.056 171.724 308.002 171.808 306.989 171.808ZM303.023 161.782L309.506 161.768C309.492 160.671 309.211 159.841 308.677 159.293C308.17 158.772 307.369 158.463 306.314 158.463C305.344 158.463 304.584 158.744 304.022 159.321C303.459 159.897 303.122 160.727 303.023 161.782Z" fill="white"/>
<rect x="90" y="188.401" width="123" height="28.4" rx="14.2" fill="white"/>
<rect x="90" y="188.401" width="123" height="28.4" rx="14.2" stroke="#C0282D" stroke-width="1.2"/>
<path d="M100.209 206.602V196.104H103.275C104.442 196.104 105.328 196.371 105.94 196.898C106.566 197.454 106.847 198.255 106.847 199.247C106.847 200.28 106.545 201.061 105.947 201.588C105.356 202.116 104.463 202.383 103.275 202.383H101.63V206.602H100.209ZM101.63 201.216H103.275C103.978 201.216 104.477 201.012 104.815 200.695C105.18 200.351 105.363 199.866 105.363 199.24C105.363 198.614 105.18 198.129 104.815 197.784C104.456 197.44 103.943 197.271 103.275 197.271H101.63V201.216ZM109.8 206.602V198.727H110.974L111.101 200.266C111.319 199.711 111.656 199.282 112.099 198.98C112.542 198.684 113.07 198.537 113.681 198.537C113.998 198.537 114.3 198.579 114.581 198.656C114.855 198.734 115.13 198.86 115.376 199.029V200.351C115.109 200.133 114.827 199.978 114.532 199.88C114.244 199.781 113.927 199.732 113.583 199.732C112.781 199.732 112.17 199.985 111.741 200.491C111.312 200.991 111.101 201.722 111.101 202.685V206.602H109.8ZM120.684 206.805C119.609 206.805 118.765 206.454 118.181 205.751C117.591 205.02 117.316 203.979 117.316 202.664C117.316 201.335 117.605 200.309 118.181 199.598C118.758 198.888 119.595 198.537 120.684 198.537C121.809 198.537 122.632 198.902 123.195 199.598C123.771 200.309 124.059 201.328 124.059 202.657C124.059 204 123.778 205.048 123.195 205.751C122.632 206.447 121.788 206.805 120.684 206.805ZM120.684 205.709C121.345 205.709 121.845 205.448 122.182 204.935C122.52 204.422 122.688 203.67 122.688 202.671C122.688 201.673 122.52 200.913 122.182 200.4C121.845 199.887 121.345 199.634 120.684 199.634C120.03 199.634 119.531 199.887 119.194 200.4C118.856 200.913 118.688 201.673 118.688 202.671C118.688 203.67 118.856 204.422 119.194 204.935C119.531 205.448 120.03 205.709 120.684 205.709ZM130.627 197.299H129.614C129.473 197.299 129.403 197.229 129.403 197.088V195.872C129.403 195.731 129.473 195.661 129.614 195.661H130.627C130.767 195.661 130.838 195.731 130.838 195.872V197.088C130.838 197.229 130.767 197.299 130.627 197.299ZM126.703 209.597V208.5H128.348C128.77 208.5 129.087 208.352 129.298 208.064C129.509 207.769 129.614 207.326 129.614 206.742V199.732H127.385V198.727H130.908V206.742C130.908 207.635 130.704 208.352 130.282 208.859C129.86 209.365 129.248 209.597 128.489 209.597H126.703ZM138.466 206.805C137.257 206.805 136.287 206.433 135.612 205.709C134.937 204.984 134.578 203.965 134.578 202.678C134.578 201.356 134.958 200.365 135.584 199.662C136.266 198.902 137.208 198.537 138.27 198.537C139.317 198.537 140.105 198.895 140.667 199.549C141.23 200.203 141.532 201.138 141.532 202.341V202.973H135.928V203.016C135.928 203.873 136.153 204.534 136.603 205.005C137.032 205.455 137.637 205.709 138.488 205.709C138.916 205.709 139.345 205.645 139.788 205.512C140.245 205.378 140.723 205.174 141.23 204.914V206.201C140.73 206.405 140.266 206.552 139.809 206.658C139.359 206.763 138.909 206.805 138.466 206.805ZM135.977 201.968L140.238 201.961C140.217 201.152 140.013 200.583 139.704 200.224C139.366 199.83 138.86 199.634 138.241 199.634C137.609 199.634 137.095 199.837 136.695 200.252C136.294 200.667 136.055 201.244 135.977 201.968ZM147.389 206.805C146.215 206.805 145.238 206.433 144.563 205.709C143.88 204.977 143.536 203.958 143.536 202.671C143.536 201.328 143.916 200.323 144.57 199.627C145.266 198.895 146.222 198.537 147.396 198.537C147.825 198.537 148.177 198.579 148.535 198.684C148.894 198.783 149.252 198.937 149.625 199.141V200.498C149.28 200.196 148.943 199.971 148.598 199.837C148.247 199.704 147.86 199.634 147.431 199.634C146.616 199.634 145.99 199.894 145.554 200.421C145.118 200.948 144.9 201.701 144.9 202.664C144.9 203.564 145.083 204.352 145.554 204.914C145.997 205.441 146.63 205.709 147.452 205.709C147.923 205.709 148.303 205.631 148.634 205.498C149.055 205.336 149.337 205.132 149.625 204.858V206.201C149.309 206.391 148.915 206.552 148.556 206.658C148.226 206.749 147.839 206.805 147.389 206.805ZM158.316 206.63H156.734C155.77 206.63 155.081 206.433 154.68 206.046C154.28 205.659 154.083 204.991 154.083 204.035V199.732H151.98V198.727H154.083V196.666L155.377 196.104V198.727H158.316V199.732H155.377V204.035C155.377 204.612 155.489 205.02 155.707 205.252C155.925 205.484 156.305 205.596 156.86 205.596H158.316V206.63ZM172.041 206.602V197.299H168.743V196.104H176.752V197.299H173.468V206.602H172.041ZM178.383 209.597V208.514H179.149C179.571 208.514 179.852 208.373 180.042 208.184C180.246 207.966 180.499 207.488 180.865 206.475L177.82 198.727H179.191L181.526 204.886L183.825 198.727H185.196L183.122 204.07C182.454 205.8 182.749 204.991 182.299 206.236C181.737 207.748 181.498 208.24 181.364 208.486C181.16 208.845 180.921 209.119 180.555 209.323C180.232 209.505 179.852 209.597 179.423 209.597H178.383ZM187.102 209.597V198.727H188.276L188.402 199.732C188.62 199.338 188.909 199.043 189.267 198.839C189.626 198.635 190.041 198.537 190.512 198.537C191.447 198.537 192.206 198.902 192.748 199.641C193.289 200.379 193.556 201.398 193.556 202.685C193.556 203.972 193.282 204.984 192.741 205.709C192.199 206.44 191.454 206.805 190.505 206.805C189.97 206.805 189.598 206.693 189.253 206.496C188.888 206.285 188.606 205.99 188.402 205.61V209.597H187.102ZM190.315 205.709C190.941 205.709 191.412 205.455 191.728 204.942C192.045 204.429 192.199 203.677 192.199 202.671C192.199 201.666 192.045 200.913 191.728 200.4C191.412 199.887 190.941 199.634 190.315 199.634C189.689 199.634 189.211 199.887 188.888 200.4C188.564 200.913 188.402 201.673 188.402 202.671C188.402 203.67 188.564 204.422 188.888 204.935C189.211 205.448 189.689 205.709 190.315 205.709ZM199.202 206.805C197.993 206.805 197.023 206.433 196.348 205.709C195.673 204.984 195.314 203.965 195.314 202.678C195.314 201.356 195.694 200.365 196.32 199.662C197.002 198.902 197.944 198.537 199.005 198.537C200.053 198.537 200.841 198.895 201.403 199.549C201.966 200.203 202.268 201.138 202.268 202.341V202.973H196.664V203.016C196.664 203.873 196.889 204.534 197.339 205.005C197.768 205.455 198.373 205.709 199.223 205.709C199.652 205.709 200.081 205.645 200.524 205.512C200.981 205.378 201.459 205.174 201.966 204.914V206.201C201.466 206.405 201.002 206.552 200.545 206.658C200.095 206.763 199.645 206.805 199.202 206.805ZM196.713 201.968L200.974 201.961C200.953 201.152 200.749 200.583 200.44 200.224C200.102 199.83 199.596 199.634 198.977 199.634C198.345 199.634 197.831 199.837 197.43 200.252C197.03 200.667 196.791 201.244 196.713 201.968Z" fill="black"/>
<rect x="90" y="224" width="1045" height="511.8" rx="7.4" fill="white"/>
<rect x="90" y="224" width="1045" height="511.8" rx="7.4" stroke="#2DA9E1" stroke-width="1.2"/>
<path d="M100.385 230.704H106.615V231.899H101.805V235.007H106.404V236.202H101.805V240.006H106.748V241.201H100.385V230.704ZM108.281 230.704H110.18L111.994 236.047L113.822 230.704H115.727V241.201H114.413V231.927L112.542 237.461H111.466L109.589 231.927V241.201H108.281V230.704ZM117.52 230.704H120.628C121.697 230.704 122.524 230.936 123.11 231.4C123.691 231.864 123.982 232.522 123.982 233.375C123.982 233.704 123.942 233.994 123.863 234.247C123.783 234.496 123.67 234.709 123.525 234.887C123.375 235.065 123.185 235.215 122.955 235.337C122.726 235.454 122.454 235.536 122.14 235.583C122.834 235.691 123.375 235.984 123.764 236.462C123.956 236.701 124.102 236.975 124.2 237.285C124.298 237.594 124.348 237.941 124.348 238.325C124.348 239.272 124.036 239.987 123.413 240.47C122.784 240.957 121.856 241.201 120.628 241.201H117.52V230.704ZM120.6 235.035C120.956 235.035 121.254 235.002 121.493 234.936C121.737 234.871 121.936 234.77 122.091 234.634C122.395 234.371 122.548 233.957 122.548 233.389C122.548 233.108 122.51 232.874 122.435 232.686C122.36 232.494 122.248 232.339 122.098 232.222C121.793 231.988 121.294 231.871 120.6 231.871H118.948V235.035H120.6ZM120.628 240.034C121.448 240.034 122.037 239.889 122.393 239.598C122.745 239.312 122.92 238.839 122.92 238.178C122.92 237.493 122.735 236.989 122.365 236.666C121.99 236.347 121.411 236.188 120.628 236.188H118.948V240.034H120.628ZM126.415 230.704H132.645V231.899H127.835V235.007H132.434V236.202H127.835V240.006H132.778V241.201H126.415V230.704ZM134.67 230.704H136.8C138.403 230.704 139.584 231.13 140.344 231.983C141.103 232.836 141.483 234.163 141.483 235.963C141.483 237.754 141.103 239.073 140.344 239.921C139.584 240.775 138.403 241.201 136.8 241.201H134.67V230.704ZM136.772 240.034C137.967 240.034 138.802 239.739 139.275 239.148C139.514 238.853 139.692 238.443 139.809 237.918C139.927 237.393 139.985 236.736 139.985 235.949C139.985 235.175 139.927 234.524 139.809 233.994C139.697 233.46 139.521 233.045 139.282 232.75C139.043 232.45 138.71 232.229 138.284 232.089C137.862 231.943 137.358 231.871 136.772 231.871H136.097V240.034H136.772ZM143.346 230.704H145.477C147.08 230.704 148.261 231.13 149.02 231.983C149.78 232.836 150.159 234.163 150.159 235.963C150.159 237.754 149.78 239.073 149.02 239.921C148.261 240.775 147.08 241.201 145.477 241.201H143.346V230.704ZM145.448 240.034C146.644 240.034 147.478 239.739 147.952 239.148C148.191 238.853 148.369 238.443 148.486 237.918C148.603 237.393 148.662 236.736 148.662 235.949C148.662 235.175 148.603 234.524 148.486 233.994C148.373 233.46 148.198 233.045 147.959 232.75C147.72 232.45 147.387 232.229 146.96 232.089C146.538 231.943 146.034 231.871 145.448 231.871H144.773V240.034H145.448ZM152.445 230.704H158.674V231.899H153.865V235.007H158.463V236.202H153.865V240.006H158.808V241.201H152.445V230.704ZM160.699 230.704H162.83C164.433 230.704 165.614 231.13 166.373 231.983C167.133 232.836 167.513 234.163 167.513 235.963C167.513 237.754 167.133 239.073 166.373 239.921C165.614 240.775 164.433 241.201 162.83 241.201H160.699V230.704ZM162.802 240.034C163.997 240.034 164.831 239.739 165.305 239.148C165.544 238.853 165.722 238.443 165.839 237.918C165.956 237.393 166.015 236.736 166.015 235.949C166.015 235.175 165.956 234.524 165.839 233.994C165.727 233.46 165.551 233.045 165.312 232.75C165.073 232.45 164.74 232.229 164.313 232.089C163.891 231.943 163.388 231.871 162.802 231.871H162.127V240.034H162.802ZM178.298 230.704H181.364C182.531 230.704 183.42 230.968 184.029 231.498C184.343 231.775 184.573 232.112 184.718 232.511C184.863 232.904 184.936 233.35 184.936 233.846C184.936 234.878 184.636 235.658 184.036 236.188C183.741 236.45 183.37 236.65 182.925 236.786C182.48 236.917 181.959 236.982 181.364 236.982H179.719V241.201H178.298V230.704ZM181.364 235.815C181.716 235.815 182.018 235.768 182.271 235.675C182.524 235.581 182.735 235.454 182.904 235.295C183.27 234.953 183.452 234.468 183.452 233.839C183.452 233.216 183.27 232.731 182.904 232.384C182.543 232.042 182.03 231.871 181.364 231.871H179.719V235.815H181.364ZM186.771 230.704H189.696C190.849 230.704 191.733 230.964 192.347 231.484C192.656 231.746 192.886 232.065 193.036 232.44C193.191 232.815 193.268 233.239 193.268 233.713C193.268 234.083 193.221 234.409 193.127 234.69C193.034 234.967 192.893 235.215 192.705 235.436C192.33 235.876 191.798 236.146 191.109 236.244C191.297 236.291 191.47 236.361 191.63 236.455C191.789 236.544 191.927 236.65 192.045 236.771C192.176 236.907 192.316 237.1 192.466 237.348C192.621 237.592 192.802 237.92 193.008 238.332L194.435 241.201H192.909L191.658 238.55C191.475 238.161 191.302 237.847 191.138 237.608C190.978 237.369 190.828 237.196 190.688 237.088C190.542 236.975 190.371 236.893 190.174 236.842C189.982 236.79 189.776 236.764 189.555 236.764H188.198V241.201H186.771V230.704ZM189.752 235.597C190.432 235.597 190.938 235.445 191.271 235.14C191.435 234.99 191.559 234.798 191.644 234.564C191.728 234.329 191.77 234.06 191.77 233.755C191.77 233.45 191.726 233.181 191.637 232.946C191.552 232.712 191.421 232.513 191.243 232.349C191.074 232.199 190.861 232.082 190.603 231.997C190.35 231.913 190.048 231.871 189.696 231.871H188.198V235.597H189.752ZM198.773 241.405C197.588 241.405 196.706 240.957 196.13 240.062C195.553 239.171 195.265 237.805 195.265 235.963C195.265 234.125 195.555 232.759 196.137 231.864C196.427 231.414 196.788 231.076 197.22 230.851C197.655 230.626 198.173 230.514 198.773 230.514C199.35 230.514 199.861 230.621 200.306 230.837C200.752 231.053 201.124 231.395 201.424 231.864C202.001 232.764 202.289 234.13 202.289 235.963C202.289 237.791 202.001 239.155 201.424 240.055C201.124 240.524 200.752 240.866 200.306 241.082C199.861 241.297 199.35 241.405 198.773 241.405ZM198.773 240.252C199.495 240.252 200.016 239.921 200.334 239.261C200.648 238.614 200.805 237.514 200.805 235.963C200.805 234.416 200.648 233.314 200.334 232.658C200.016 231.997 199.495 231.667 198.773 231.667C198.056 231.667 197.541 231.997 197.227 232.658C196.908 233.324 196.748 234.425 196.748 235.963C196.748 237.496 196.908 238.595 197.227 239.261C197.541 239.921 198.056 240.252 198.773 240.252ZM206.648 241.405C206.166 241.405 205.709 241.354 205.277 241.25C204.823 241.143 204.359 240.983 203.885 240.772V239.113C204.312 239.493 204.752 239.776 205.207 239.964C205.671 240.156 206.145 240.252 206.627 240.252C206.941 240.252 207.218 240.21 207.457 240.125C207.701 240.041 207.891 239.907 208.027 239.725C208.289 239.378 208.42 238.729 208.42 237.777V231.899H205.741V230.704H209.841V237.777C209.841 238.452 209.78 239.017 209.658 239.471C209.541 239.921 209.353 240.289 209.095 240.575C208.838 240.861 208.507 241.07 208.104 241.201C207.705 241.337 207.22 241.405 206.648 241.405ZM213.18 230.704H219.41V231.899H214.601V235.007H219.199V236.202H214.601V240.006H219.544V241.201H213.18V230.704ZM225.689 241.405C225.033 241.405 224.44 241.288 223.91 241.054C223.385 240.819 222.935 240.461 222.56 239.978C222.19 239.5 221.911 238.925 221.723 238.255C221.541 237.58 221.449 236.818 221.449 235.97C221.449 235.121 221.541 234.36 221.723 233.685C221.911 233.01 222.192 232.431 222.567 231.948C222.942 231.465 223.392 231.107 223.917 230.872C224.442 230.633 225.033 230.514 225.689 230.514C225.914 230.514 226.13 230.528 226.336 230.556C226.547 230.579 226.737 230.612 226.905 230.654C227.074 230.696 227.259 230.757 227.461 230.837C227.663 230.912 227.848 230.996 228.016 231.09V232.546C227.674 232.26 227.302 232.042 226.898 231.892C226.697 231.817 226.495 231.761 226.294 231.723C226.097 231.686 225.893 231.667 225.682 231.667C225.227 231.667 224.827 231.756 224.48 231.934C224.138 232.112 223.852 232.379 223.622 232.736C223.163 233.448 222.933 234.524 222.933 235.963C222.933 237.397 223.163 238.471 223.622 239.183C224.081 239.896 224.773 240.252 225.696 240.252C225.907 240.252 226.111 240.233 226.308 240.196C226.509 240.158 226.711 240.102 226.913 240.027C227.302 239.882 227.67 239.664 228.016 239.373V240.829C227.651 241.021 227.28 241.166 226.905 241.264C226.723 241.311 226.526 241.346 226.315 241.37C226.109 241.393 225.9 241.405 225.689 241.405ZM232.777 231.899H229.479V230.704H237.488V231.899H234.204V241.201H232.777V231.899Z" fill="black"/>
<rect x="90.54" y="743.54" width="1043.92" height="22.04" rx="1.9" fill="#6B53A3"/>
<rect x="90.54" y="743.54" width="1043.92" height="22.04" rx="1.9" stroke="black" stroke-width="2.28"/>
<path d="M603.38 759.12L612.5 750L621.62 759.12" stroke="black" stroke-width="2.66" stroke-linecap="round" stroke-linejoin="round"/>
<g filter="url(#filter4_d_27_576)">
<rect x="1169.2" y="10" width="11.9333" height="769" rx="2.7264" fill="#151029"/>
<rect x="1169.2" y="10" width="11.9333" height="769" rx="2.7264" fill="#858585" fill-opacity="0.12"/>
</g>
<g filter="url(#filter5_d_27_576)">
<rect x="1189.13" y="69" width="11.9333" height="710" rx="2.51722" fill="#151029"/>
<rect x="1189.13" y="69" width="11.9333" height="710" rx="2.51722" fill="#858585" fill-opacity="0.12"/>
</g>
<g filter="url(#filter6_d_27_576)">
<rect x="1209.07" y="125" width="11.9333" height="654" rx="2.31868" fill="#151029"/>
<rect x="1209.07" y="125" width="11.9333" height="654" rx="2.31868" fill="#858585" fill-opacity="0.12"/>
</g>
</g>
</g>
<defs>
<filter id="filter0_d_27_576" x="-9.6" y="0" width="1244.2" height="788.2" filterUnits="userSpaceOnUse" color-interpolation-filters="sRGB">
<feFlood flood-opacity="0" result="BackgroundImageFix"/>
<feColorMatrix in="SourceAlpha" type="matrix" values="0 0 0 0 0 0 0 0 0 0 0 0 0 0 0 0 0 0 127 0" result="hardAlpha"/>
<feOffset dy="9.6"/>
<feGaussianBlur stdDeviation="4.8"/>
<feComposite in2="hardAlpha" operator="out"/>
<feColorMatrix type="matrix" values="0 0 0 0 0.752941 0 0 0 0 0.156863 0 0 0 0 0.176471 0 0 0 0.54 0"/>
<feBlend mode="normal" in2="BackgroundImageFix" result="effect1_dropShadow_27_576"/>
<feBlend mode="normal" in="SourceGraphic" in2="effect1_dropShadow_27_576" result="shape"/>
</filter>
<filter id="filter1_d_27_576" x="1.68132" y="125" width="16.5707" height="658.637" filterUnits="userSpaceOnUse" color-interpolation-filters="sRGB">
<feFlood flood-opacity="0" result="BackgroundImageFix"/>
<feColorMatrix in="SourceAlpha" type="matrix" values="0 0 0 0 0 0 0 0 0 0 0 0 0 0 0 0 0 0 127 0" result="hardAlpha"/>
<feOffset dy="2.31868"/>
<feGaussianBlur stdDeviation="1.15934"/>
<feComposite in2="hardAlpha" operator="out"/>
<feColorMatrix type="matrix" values="0 0 0 0 0.752941 0 0 0 0 0.156863 0 0 0 0 0.176471 0 0 0 0.54 0"/>
<feBlend mode="normal" in2="BackgroundImageFix" result="effect1_dropShadow_27_576"/>
<feBlend mode="normal" in="SourceGraphic" in2="effect1_dropShadow_27_576" result="shape"/>
</filter>
<filter id="filter2_d_27_576" x="21.4161" y="69" width="16.9678" height="715.034" filterUnits="userSpaceOnUse" color-interpolation-filters="sRGB">
<feFlood flood-opacity="0" result="BackgroundImageFix"/>
<feColorMatrix in="SourceAlpha" type="matrix" values="0 0 0 0 0 0 0 0 0 0 0 0 0 0 0 0 0 0 127 0" result="hardAlpha"/>
<feOffset dy="2.51722"/>
<feGaussianBlur stdDeviation="1.25861"/>
<feComposite in2="hardAlpha" operator="out"/>
<feColorMatrix type="matrix" values="0 0 0 0 0.752941 0 0 0 0 0.156863 0 0 0 0 0.176471 0 0 0 0.54 0"/>
<feBlend mode="normal" in2="BackgroundImageFix" result="effect1_dropShadow_27_576"/>
<feBlend mode="normal" in="SourceGraphic" in2="effect1_dropShadow_27_576" result="shape"/>
</filter>
<filter id="filter3_d_27_576" x="41.1403" y="10" width="17.3861" height="774.453" filterUnits="userSpaceOnUse" color-interpolation-filters="sRGB">
<feFlood flood-opacity="0" result="BackgroundImageFix"/>
<feColorMatrix in="SourceAlpha" type="matrix" values="0 0 0 0 0 0 0 0 0 0 0 0 0 0 0 0 0 0 127 0" result="hardAlpha"/>
<feOffset dy="2.7264"/>
<feGaussianBlur stdDeviation="1.3632"/>
<feComposite in2="hardAlpha" operator="out"/>
<feColorMatrix type="matrix" values="0 0 0 0 0.752941 0 0 0 0 0.156863 0 0 0 0 0.176471 0 0 0 0.54 0"/>
<feBlend mode="normal" in2="BackgroundImageFix" result="effect1_dropShadow_27_576"/>
<feBlend mode="normal" in="SourceGraphic" in2="effect1_dropShadow_27_576" result="shape"/>
</filter>
<filter id="filter4_d_27_576" x="1166.47" y="10" width="17.3861" height="774.453" filterUnits="userSpaceOnUse" color-interpolation-filters="sRGB">
<feFlood flood-opacity="0" result="BackgroundImageFix"/>
<feColorMatrix in="SourceAlpha" type="matrix" values="0 0 0 0 0 0 0 0 0 0 0 0 0 0 0 0 0 0 127 0" result="hardAlpha"/>
<feOffset dy="2.7264"/>
<feGaussianBlur stdDeviation="1.3632"/>
<feComposite in2="hardAlpha" operator="out"/>
<feColorMatrix type="matrix" values="0 0 0 0 0.752941 0 0 0 0 0.156863 0 0 0 0 0.176471 0 0 0 0.54 0"/>
<feBlend mode="normal" in2="BackgroundImageFix" result="effect1_dropShadow_27_576"/>
<feBlend mode="normal" in="SourceGraphic" in2="effect1_dropShadow_27_576" result="shape"/>
</filter>
<filter id="filter5_d_27_576" x="1186.62" y="69" width="16.9678" height="715.034" filterUnits="userSpaceOnUse" color-interpolation-filters="sRGB">
<feFlood flood-opacity="0" result="BackgroundImageFix"/>
<feColorMatrix in="SourceAlpha" type="matrix" values="0 0 0 0 0 0 0 0 0 0 0 0 0 0 0 0 0 0 127 0" result="hardAlpha"/>
<feOffset dy="2.51722"/>
<feGaussianBlur stdDeviation="1.25861"/>
<feComposite in2="hardAlpha" operator="out"/>
<feColorMatrix type="matrix" values="0 0 0 0 0.752941 0 0 0 0 0.156863 0 0 0 0 0.176471 0 0 0 0.54 0"/>
<feBlend mode="normal" in2="BackgroundImageFix" result="effect1_dropShadow_27_576"/>
<feBlend mode="normal" in="SourceGraphic" in2="effect1_dropShadow_27_576" result="shape"/>
</filter>
<filter id="filter6_d_27_576" x="1206.75" y="125" width="16.5707" height="658.637" filterUnits="userSpaceOnUse" color-interpolation-filters="sRGB">
<feFlood flood-opacity="0" result="BackgroundImageFix"/>
<feColorMatrix in="SourceAlpha" type="matrix" values="0 0 0 0 0 0 0 0 0 0 0 0 0 0 0 0 0 0 127 0" result="hardAlpha"/>
<feOffset dy="2.31868"/>
<feGaussianBlur stdDeviation="1.15934"/>
<feComposite in2="hardAlpha" operator="out"/>
<feColorMatrix type="matrix" values="0 0 0 0 0.752941 0 0 0 0 0.156863 0 0 0 0 0.176471 0 0 0 0.54 0"/>
<feBlend mode="normal" in2="BackgroundImageFix" result="effect1_dropShadow_27_576"/>
<feBlend mode="normal" in="SourceGraphic" in2="effect1_dropShadow_27_576" result="shape"/>
</filter>
<clipPath id="clip0_27_576">
<rect width="1225" height="769" rx="9" fill="white"/>
</clipPath>
</defs>
</svg>
