<svg width="665" height="68" viewBox="0 0 665 68" fill="none" xmlns="http://www.w3.org/2000/svg">
<g filter="url(#filter0_d_2_493)">
<rect x="4.98755" y="4" width="655.219" height="60" rx="30" fill="#151029"/>
<g clip-path="url(#clip0_2_493)">
<path d="M43.7674 52.6707C42.9699 52.6599 40.2354 52.4387 38.4044 50.0717C36.9959 48.2481 36.9612 46.1688 37.0132 45.3612L37.1367 44.5643C37.8106 41.9374 38.1985 39.2546 38.2895 36.5783C38.3502 34.8234 38.283 33.047 38.0923 31.2986L38.0533 30.9549L38.0772 30.607C38.1747 29.271 38.7554 28.0251 39.7131 27.0972C40.6796 26.1586 41.9667 25.6216 43.3383 25.5829L43.5312 25.5765L43.7392 25.5915C44.4239 25.6431 45.5182 25.714 47.0827 25.8106L47.7631 25.8514L47.8714 25.1856C48.8096 19.4742 53.7154 15 59.0373 15C61.1521 15 64.2096 15.726 66.7665 19.1821C68.0471 20.909 68.89 22.9796 69.2042 25.1684L69.3017 25.8493L69.9951 25.8085C70.6625 25.7698 72.3223 25.6688 73.3299 25.5937L73.6549 25.5829C75.0396 25.5829 76.3548 26.1221 77.3646 27.1015C78.7492 28.4461 78.9724 30.0678 79.0028 30.7015L79.0179 31.0022L78.9854 31.3029C78.7947 33.0535 78.7297 34.8298 78.7882 36.5826C78.8814 39.2739 79.2714 41.9675 79.9475 44.5901L80.0342 44.9252L80.058 45.2689C80.1989 47.2085 79.5206 49.1287 78.1988 50.5356C76.9031 51.9146 75.1544 52.675 73.2757 52.675H43.7652L43.7674 52.6707ZM41.4683 30.9528C41.6742 32.8666 41.7457 34.7955 41.6807 36.69C41.581 39.6112 41.1584 42.541 40.426 45.3934L40.4087 45.46L40.3979 45.5868C40.3762 45.9154 40.361 47.0731 41.0978 48.0268C42.0274 49.2275 43.5073 49.3048 43.7955 49.3091H73.2779C74.2183 49.3091 75.0612 48.9418 75.7178 48.2416C76.3938 47.5221 76.7427 46.5361 76.6777 45.5331L76.6734 45.4622L76.656 45.3956C75.9215 42.5474 75.4989 39.6198 75.3993 36.69C75.3342 34.7869 75.4058 32.858 75.6116 30.9549L75.6181 30.8905L75.6138 30.8261C75.5986 30.5941 75.5054 29.9991 74.994 29.5029C74.6365 29.155 74.1728 28.9574 73.6853 28.9445L73.5401 28.9509C72.1815 29.0519 69.3212 29.2194 69.2822 29.2194H69.1739L47.8606 29.228L47.7999 29.2237C47.1152 29.1829 44.7771 29.0433 43.5095 28.9466L43.4662 28.9423H43.425C42.9136 28.9616 42.4412 29.1614 42.0902 29.5029C41.7348 29.8445 41.516 30.3106 41.4705 30.811L41.464 30.8841L41.4726 30.9571L41.4683 30.9528ZM58.8639 18.0286C56.8531 18.0286 54.8249 19.1305 53.1542 21.1324C52.2723 22.1677 51.5182 23.4651 50.9115 24.9837L50.5626 25.8579L66.4653 25.8514L66.1467 24.9922C65.5595 23.4006 64.838 22.0453 64.0059 20.967C62.5887 19.0424 60.8098 18.0265 58.8617 18.0265L58.8639 18.0286Z" fill="#422B71"/>
<path d="M54.4695 42.3004C52.7057 42.3004 51.2712 40.8785 51.2712 39.13C51.2712 37.3816 52.7057 35.9597 54.4695 35.9597H58.7253V42.3004H54.4695Z" fill="#2DA9E1"/>
<path d="M58.4154 42.3004V35.9597H62.6711C64.435 35.9597 65.8694 37.3816 65.8694 39.13C65.8694 40.8785 64.435 42.3004 62.6711 42.3004H58.4154Z" fill="#C0282D"/>
<path fill-rule="evenodd" clip-rule="evenodd" d="M65.7134 39.1322C65.7134 37.4654 64.3505 36.1144 62.669 36.1144V36.1165H58.8791V42.1501H62.669C64.3505 42.1501 65.7134 40.799 65.7134 39.1322ZM58.8791 42.4551H62.669C64.5173 42.4551 66.0233 40.9644 66.0233 39.1301C66.0233 37.2957 64.5195 35.8051 62.669 35.8051V35.8072H58.8791V35.8071H54.4695C52.6212 35.8071 51.1152 37.2978 51.1152 39.1322C51.1152 40.9665 52.619 42.4572 54.4695 42.4572H58.8791V42.4551ZM58.2594 36.1121V42.1479H54.4695C52.7881 42.1479 51.4251 40.7968 51.4251 39.13C51.4251 37.4632 52.7881 36.1121 54.4695 36.1121H58.2594Z" fill="black"/>
</g>
<rect width="76.2438" height="60" transform="translate(100.988 4)" fill="#151029"/>
<path d="M145.231 29.252H146.386L147.224 36.3535L148.22 31.6543H149.456L150.464 36.3652L151.302 29.252H152.456L151.149 38H150.03L148.841 32.8027L147.657 38H146.538L145.231 29.252ZM153.64 37.0039H155.474V30.248H153.64V29.252H158.497V30.248H156.663V37.0039H158.497V38H153.64V37.0039ZM160.7 29.252H163.255C164.227 29.252 164.968 29.4727 165.475 29.9141C165.737 30.1445 165.929 30.4258 166.05 30.7578C166.171 31.0859 166.231 31.457 166.231 31.8711C166.231 32.7305 165.981 33.3809 165.481 33.8223C165.235 34.041 164.927 34.207 164.556 34.3203C164.184 34.4297 163.751 34.4844 163.255 34.4844H161.884V38H160.7V29.252ZM163.255 33.5117C163.548 33.5117 163.8 33.4727 164.011 33.3945C164.222 33.3164 164.397 33.2109 164.538 33.0781C164.843 32.793 164.995 32.3887 164.995 31.8652C164.995 31.3457 164.843 30.9414 164.538 30.6523C164.237 30.3672 163.809 30.2246 163.255 30.2246H161.884V33.5117H163.255Z" fill="white"/>
<path d="M132.845 39.8641C132.969 39.8641 133.084 39.8017 133.152 39.6976C133.219 39.5935 133.23 39.4629 133.18 39.3496C132.556 37.9307 131.151 37.0136 129.601 37.0136C128.266 37.0136 127.023 37.6993 126.306 38.8169H118.669C117.952 37.6993 116.71 37.0136 115.375 37.0136C113.825 37.0136 112.419 37.9303 111.795 39.3496C111.745 39.4629 111.756 39.5938 111.824 39.6976C111.891 39.8014 112.007 39.8641 112.13 39.8641H115.197V41.9859H112.13C112.006 41.9859 111.891 42.0483 111.823 42.1524C111.756 42.2565 111.745 42.3871 111.795 42.5003C112.419 43.9193 113.824 44.8363 115.374 44.8363C116.708 44.8363 117.95 44.1518 118.666 43.0357H126.309C127.025 44.1514 128.266 44.8363 129.601 44.8363C131.151 44.8363 132.556 43.9197 133.18 42.5003C133.23 42.3871 133.22 42.2562 133.152 42.1524C133.084 42.0486 132.969 41.9859 132.845 41.9859H129.778V39.8641H132.845ZM129.411 42.7192H132.223C131.638 43.5747 130.661 44.1027 129.6 44.1027C128.458 44.1027 127.398 43.4841 126.835 42.4882C126.77 42.3731 126.648 42.302 126.516 42.302H118.459C118.327 42.302 118.205 42.3731 118.14 42.4882C117.577 43.4841 116.517 44.1027 115.374 44.1027C114.314 44.1027 113.337 43.5743 112.752 42.7192H115.564C115.766 42.7192 115.93 42.555 115.93 42.3526V39.4974C115.93 39.295 115.766 39.1307 115.564 39.1307H112.752C113.337 38.2753 114.314 37.7473 115.374 37.7473C116.518 37.7473 117.579 38.367 118.143 39.3647C118.208 39.4798 118.33 39.5509 118.462 39.5509H126.513C126.645 39.5509 126.767 39.4798 126.832 39.3647C127.396 38.367 128.457 37.7473 129.601 37.7473C130.661 37.7473 131.638 38.2757 132.223 39.1307H129.412C129.209 39.1307 129.045 39.295 129.045 39.4974V42.3526C129.045 42.555 129.209 42.7192 129.411 42.7192Z" fill="#C0282D"/>
<path d="M126.019 40.5581H118.956C118.753 40.5581 118.589 40.7224 118.589 40.9248C118.589 41.1272 118.753 41.2915 118.956 41.2915H126.019C126.222 41.2915 126.386 41.1272 126.386 40.9248C126.386 40.7224 126.222 40.5581 126.019 40.5581Z" fill="#C0282D"/>
<path d="M124.61 24.2975L124.542 23.1806C124.53 22.987 124.37 22.8363 124.176 22.8363H120.799C120.605 22.8363 120.445 22.9874 120.433 23.1806L120.365 24.2975C119.164 24.5629 118.059 25.0422 117.09 25.6919C117.081 25.6956 117.074 25.7029 117.065 25.7073C114.611 27.3642 113.039 30.0973 113.039 33.1164V33.3467C112.416 33.4563 111.941 33.9986 111.941 34.6523C111.941 35.3853 112.537 35.9815 113.27 35.9815H131.704C132.437 35.9815 133.033 35.3853 133.033 34.6523C133.033 33.9982 132.557 33.4559 131.933 33.3463V33.116C131.933 28.8939 128.869 25.2339 124.609 24.2971L124.61 24.2975ZM116.864 26.7662V30.2011C116.864 30.4035 117.029 30.5677 117.231 30.5677C117.433 30.5677 117.598 30.4035 117.598 30.2011V26.2367C118.412 25.7058 119.328 25.304 120.319 25.0609L119.929 31.4892C119.917 31.6912 120.071 31.865 120.273 31.8774C120.476 31.8936 120.649 31.7359 120.662 31.5335L121.144 23.5697H123.831L124.314 31.5335C124.326 31.7282 124.488 31.8778 124.68 31.8778C124.688 31.8778 124.695 31.8778 124.703 31.8771C124.905 31.865 125.059 31.6912 125.046 31.4888L124.657 25.0601C125.647 25.3025 126.563 25.704 127.378 26.2342V30.2007C127.378 30.4031 127.542 30.5674 127.745 30.5674C127.947 30.5674 128.111 30.4031 128.111 30.2007V26.7636C130.014 28.3062 131.202 30.6033 131.202 33.1164V33.3232H113.773V33.1164C113.773 30.6055 114.961 28.3091 116.864 26.7662ZM132.3 34.6527C132.3 34.9812 132.033 35.2485 131.705 35.2485H113.27C112.942 35.2485 112.675 34.9812 112.675 34.6527C112.675 34.3242 112.942 34.0569 113.27 34.0569H113.405C113.405 34.0569 113.406 34.0569 113.407 34.0569H131.568C131.568 34.0569 131.569 34.0569 131.57 34.0569H131.705C132.034 34.0569 132.3 34.3242 132.3 34.6527Z" fill="#C0282D"/>
<rect width="91.2438" height="60" transform="translate(197.231 4)" fill="#151029"/>
<path d="M244.37 29.252H245.805L248.483 38H247.258L246.614 35.7207H243.549L242.917 38H241.692L244.37 29.252ZM246.333 34.7715L245.084 30.2949L243.836 34.7715H246.333ZM252.667 38.1699C252.467 38.1699 252.286 38.1484 252.122 38.1055C251.958 38.0664 251.795 38.002 251.635 37.9121C251.334 37.7402 251.094 37.4941 250.915 37.1738L250.809 38H249.836V28.8828H250.915V32.2754C251.083 31.9551 251.321 31.709 251.629 31.5371C251.93 31.3652 252.284 31.2793 252.69 31.2793C253.065 31.2793 253.409 31.3535 253.721 31.502C254.038 31.6504 254.311 31.877 254.542 32.1816C254.768 32.4863 254.938 32.8516 255.051 33.2773C255.165 33.7031 255.221 34.1816 255.221 34.7129C255.221 35.7832 254.995 36.627 254.542 37.2441C254.319 37.5488 254.051 37.7793 253.739 37.9355C253.426 38.0918 253.069 38.1699 252.667 38.1699ZM252.514 37.2559C253.034 37.2559 253.424 37.043 253.686 36.6172C253.952 36.1875 254.084 35.5566 254.084 34.7246C254.084 33.8926 253.952 33.2617 253.686 32.832C253.424 32.4062 253.032 32.1934 252.508 32.1934C251.985 32.1934 251.588 32.4062 251.319 32.832C251.049 33.2617 250.915 33.8926 250.915 34.7246C250.915 35.5566 251.049 36.1855 251.319 36.6113C251.588 37.041 251.987 37.2559 252.514 37.2559ZM259.545 38.1699C259.096 38.1699 258.696 38.0977 258.344 37.9531C257.997 37.8047 257.702 37.584 257.459 37.291C257.213 36.9863 257.032 36.6191 256.915 36.1895C256.797 35.7559 256.739 35.2656 256.739 34.7188C256.739 33.6094 256.979 32.7578 257.459 32.1641C257.94 31.5742 258.635 31.2793 259.545 31.2793C260.014 31.2793 260.42 31.3555 260.764 31.5078C261.112 31.6562 261.403 31.875 261.637 32.1641C262.118 32.7578 262.358 33.6074 262.358 34.7129C262.358 35.2715 262.297 35.7676 262.176 36.2012C262.059 36.6348 261.879 36.998 261.637 37.291C261.403 37.5801 261.11 37.7988 260.758 37.9473C260.411 38.0957 260.006 38.1699 259.545 38.1699ZM259.545 37.2559C260.096 37.2559 260.512 37.041 260.793 36.6113C261.075 36.1855 261.215 35.5566 261.215 34.7246C261.215 33.8926 261.075 33.2617 260.793 32.832C260.512 32.4062 260.096 32.1934 259.545 32.1934C258.999 32.1934 258.584 32.4062 258.303 32.832C258.022 33.2617 257.881 33.8926 257.881 34.7246C257.881 35.5566 258.022 36.1855 258.303 36.6113C258.584 37.041 258.999 37.2559 259.545 37.2559ZM266.295 38.1699C265.627 38.1699 265.129 37.9492 264.801 37.5078C264.473 37.0703 264.309 36.4062 264.309 35.5156V31.4492H265.387V35.5156C265.387 36.1094 265.493 36.543 265.704 36.8164C265.805 36.9492 265.932 37.0527 266.084 37.127C266.241 37.1973 266.436 37.2324 266.67 37.2324C267.178 37.2324 267.567 37.0527 267.836 36.6934C268.106 36.3379 268.241 35.8262 268.241 35.1582V31.4492H269.325V38H268.346L268.241 37.0156C268.045 37.3984 267.786 37.6855 267.461 37.877C267.129 38.0723 266.741 38.1699 266.295 38.1699ZM275.125 38.0234C274.321 38.0234 273.75 37.8613 273.415 37.5371C273.083 37.2168 272.917 36.6582 272.917 35.8613V32.2754H271.165V31.4375H272.917V29.7207L273.995 29.252V31.4375H276.444V32.2754H273.995V35.8613C273.995 36.3418 274.086 36.6797 274.27 36.875C274.45 37.0664 274.77 37.1621 275.231 37.1621H276.444V38.0234H275.125Z" fill="white"/>
<g clip-path="url(#clip1_2_493)">
<path fill-rule="evenodd" clip-rule="evenodd" d="M213.441 28.5842C212.507 28.5842 211.747 27.8242 211.747 26.8899C211.747 25.9557 212.507 25.1957 213.441 25.1957C214.375 25.1957 215.136 25.9557 215.136 26.8899C215.136 27.8242 214.375 28.5842 213.441 28.5842ZM224.156 44.8363H208.546C208.339 44.8363 208.172 44.6695 208.172 44.4624V23.9715C208.172 23.7645 208.339 23.5976 208.546 23.5976H220.339V23.2103C220.339 23.0032 220.505 22.8363 220.712 22.8363H229.673C229.881 22.8363 230.047 23.0032 230.047 23.2103V31.7267C230.047 31.9326 229.881 32.1006 229.673 32.1006H224.53V44.4624C224.53 44.6695 224.363 44.8363 224.156 44.8363ZM221.085 23.9703V23.9715V31.3528H224.086V27.4685C224.086 27.2614 224.253 27.0946 224.46 27.0946H225.926C226.133 27.0946 226.3 27.2614 226.3 27.4685V31.3528H229.301V23.583H221.085V23.9703ZM208.919 44.0897H223.783V32.1006H220.712C220.51 32.1006 220.339 31.9386 220.339 31.7267V24.3455H208.919V44.0897ZM221.594 35.2566H211.107C210.901 35.2566 210.734 35.0897 210.734 34.8826V33.4916C210.734 33.2858 210.901 33.1189 211.107 33.1189H221.594C221.8 33.1189 221.968 33.2858 221.968 33.4916V34.8826C221.968 35.0897 221.8 35.2566 221.594 35.2566ZM211.481 34.5099H221.22V33.8656H211.481V34.5099ZM219.642 36.7547H213.061C212.854 36.7547 212.687 36.5879 212.687 36.3808C212.687 36.1749 212.854 36.0081 213.061 36.0081H219.642C219.848 36.0081 220.015 36.1749 220.015 36.3808C220.015 36.5879 219.848 36.7547 219.642 36.7547ZM224.833 31.3528H225.553V27.8424H224.833V31.3528ZM225.926 26.5574H224.46C224.253 26.5574 224.086 26.3905 224.086 26.1847V24.611C224.086 24.4039 224.253 24.2371 224.46 24.2371H225.926C226.133 24.2371 226.3 24.4039 226.3 24.611V26.1847C226.3 26.3905 226.133 26.5574 225.926 26.5574ZM224.833 25.8108H225.553V24.9837H224.833V25.8108ZM222.095 38.3796H210.606C210.401 38.3796 210.233 38.2127 210.233 38.0069C210.233 37.7998 210.401 37.6329 210.606 37.6329H222.095C222.302 37.6329 222.469 37.7998 222.469 38.0069C222.469 38.2127 222.302 38.3796 222.095 38.3796ZM222.095 40.0056H210.606C210.401 40.0056 210.233 39.8376 210.233 39.6317C210.233 39.4246 210.401 39.2578 210.606 39.2578H222.095C222.302 39.2578 222.469 39.4246 222.469 39.6317C222.469 39.8376 222.302 40.0056 222.095 40.0056ZM222.095 41.6305H210.606C210.401 41.6305 210.233 41.4636 210.233 41.2566C210.233 41.0507 210.401 40.8826 210.606 40.8826H222.095C222.302 40.8826 222.469 41.0507 222.469 41.2566C222.469 41.4636 222.302 41.6305 222.095 41.6305ZM222.095 43.2553H210.606C210.401 43.2553 210.233 43.0885 210.233 42.8814C210.233 42.6756 210.401 42.5087 210.606 42.5087H222.095C222.302 42.5087 222.469 42.6756 222.469 42.8814C222.469 43.0885 222.302 43.2553 222.095 43.2553ZM216.275 32.477H210.606C210.401 32.477 210.233 32.3101 210.233 32.1031V30.678C210.233 29.6853 210.973 28.8777 211.883 28.8777H212.585C212.694 28.8777 212.798 28.9265 212.868 29.0093L213.442 29.6829L214.013 29.0093C214.084 28.9265 214.189 28.8777 214.298 28.8777H214.999C215.909 28.8777 216.649 29.6853 216.649 30.6768V32.1031C216.649 32.3101 216.482 32.477 216.275 32.477ZM210.98 31.7291H215.902V30.678C215.902 30.097 215.497 29.6256 214.999 29.6256H214.471L213.727 30.5014C213.578 30.678 213.307 30.678 213.158 30.5026L212.412 29.6256H211.883C211.385 29.6256 210.98 30.097 210.98 30.678V31.7291ZM213.441 25.9423C212.918 25.9423 212.493 26.3674 212.493 26.8899C212.493 27.4125 212.918 27.8376 213.441 27.8376C213.963 27.8376 214.388 27.4125 214.388 26.8899C214.388 26.3674 213.963 25.9423 213.441 25.9423Z" fill="#C0282D"/>
</g>
<rect width="120.244" height="60" transform="translate(308.475 4)" fill="#151029"/>
<path d="M353.727 29.252H356.281C357.254 29.252 357.994 29.4727 358.502 29.9141C358.764 30.1445 358.955 30.4258 359.076 30.7578C359.197 31.0859 359.258 31.457 359.258 31.8711C359.258 32.7305 359.008 33.3809 358.508 33.8223C358.262 34.041 357.953 34.207 357.582 34.3203C357.211 34.4297 356.777 34.4844 356.281 34.4844H354.91V38H353.727V29.252ZM356.281 33.5117C356.574 33.5117 356.826 33.4727 357.037 33.3945C357.248 33.3164 357.424 33.2109 357.565 33.0781C357.869 32.793 358.022 32.3887 358.022 31.8652C358.022 31.3457 357.869 30.9414 357.565 30.6523C357.264 30.3672 356.836 30.2246 356.281 30.2246H354.91V33.5117H356.281ZM363.559 38.1699C363.109 38.1699 362.709 38.0977 362.358 37.9531C362.01 37.8047 361.715 37.584 361.473 37.291C361.227 36.9863 361.045 36.6191 360.928 36.1895C360.811 35.7559 360.752 35.2656 360.752 34.7188C360.752 33.6094 360.992 32.7578 361.473 32.1641C361.953 31.5742 362.649 31.2793 363.559 31.2793C364.027 31.2793 364.434 31.3555 364.777 31.5078C365.125 31.6562 365.416 31.875 365.651 32.1641C366.131 32.7578 366.371 33.6074 366.371 34.7129C366.371 35.2715 366.311 35.7676 366.19 36.2012C366.072 36.6348 365.893 36.998 365.651 37.291C365.416 37.5801 365.123 37.7988 364.772 37.9473C364.424 38.0957 364.02 38.1699 363.559 38.1699ZM363.559 37.2559C364.109 37.2559 364.526 37.041 364.807 36.6113C365.088 36.1855 365.229 35.5566 365.229 34.7246C365.229 33.8926 365.088 33.2617 364.807 32.832C364.526 32.4062 364.109 32.1934 363.559 32.1934C363.012 32.1934 362.598 32.4062 362.317 32.832C362.035 33.2617 361.895 33.8926 361.895 34.7246C361.895 35.5566 362.035 36.1855 362.317 36.6113C362.598 37.041 363.012 37.2559 363.559 37.2559ZM368.949 31.4375H369.928L370.033 32.7207C370.217 32.2559 370.494 31.8984 370.865 31.6484C371.233 31.4023 371.672 31.2793 372.184 31.2793C372.449 31.2793 372.699 31.3125 372.934 31.3789C373.047 31.4102 373.16 31.4531 373.274 31.5078C373.387 31.5586 373.494 31.6191 373.596 31.6895V32.791C373.373 32.6113 373.139 32.4805 372.893 32.3984C372.651 32.3164 372.387 32.2754 372.102 32.2754C371.434 32.2754 370.922 32.4863 370.567 32.9082C370.211 33.3262 370.033 33.9355 370.033 34.7363V38H368.949V31.4375ZM379.139 38.0234C378.334 38.0234 377.764 37.8613 377.428 37.5371C377.096 37.2168 376.93 36.6582 376.93 35.8613V32.2754H375.178V31.4375H376.93V29.7207L378.008 29.252V31.4375H380.457V32.2754H378.008V35.8613C378.008 36.3418 378.1 36.6797 378.283 36.875C378.463 37.0664 378.783 37.1621 379.244 37.1621H380.457V38.0234H379.139ZM384.371 32.2754H382.619V31.4375H384.371V30.9805C384.371 30.2578 384.537 29.7285 384.869 29.3926C385.197 29.0527 385.711 28.8828 386.41 28.8828H387.705V29.7793H386.481C386.27 29.7793 386.1 29.8008 385.971 29.8438C385.846 29.8828 385.748 29.9395 385.678 30.0137C385.526 30.1738 385.449 30.4551 385.449 30.8574V31.4375H387.705V32.2754H385.449V38H384.371V32.2754ZM392.481 38.1699C392.031 38.1699 391.631 38.0977 391.279 37.9531C390.932 37.8047 390.637 37.584 390.395 37.291C390.149 36.9863 389.967 36.6191 389.85 36.1895C389.733 35.7559 389.674 35.2656 389.674 34.7188C389.674 33.6094 389.914 32.7578 390.395 32.1641C390.875 31.5742 391.57 31.2793 392.481 31.2793C392.949 31.2793 393.356 31.3555 393.699 31.5078C394.047 31.6562 394.338 31.875 394.572 32.1641C395.053 32.7578 395.293 33.6074 395.293 34.7129C395.293 35.2715 395.233 35.7676 395.111 36.2012C394.994 36.6348 394.815 36.998 394.572 37.291C394.338 37.5801 394.045 37.7988 393.693 37.9473C393.346 38.0957 392.942 38.1699 392.481 38.1699ZM392.481 37.2559C393.031 37.2559 393.447 37.041 393.729 36.6113C394.01 36.1855 394.151 35.5566 394.151 34.7246C394.151 33.8926 394.01 33.2617 393.729 32.832C393.447 32.4062 393.031 32.1934 392.481 32.1934C391.934 32.1934 391.52 32.4062 391.238 32.832C390.957 33.2617 390.817 33.8926 390.817 34.7246C390.817 35.5566 390.957 36.1855 391.238 36.6113C391.52 37.041 391.934 37.2559 392.481 37.2559ZM400.912 38.0469C400.6 38.0469 400.318 37.998 400.068 37.9004C399.822 37.8027 399.606 37.6445 399.418 37.4258C399.063 37.0117 398.885 36.4258 398.885 35.668V29.7266H397.156V28.8828H399.963V35.668C399.963 36.1562 400.053 36.5215 400.233 36.7637C400.326 36.8926 400.438 36.9863 400.567 37.0449C400.699 37.1035 400.85 37.1328 401.018 37.1328H402.277V38.0469H400.912ZM406.397 30.248C406.279 30.248 406.221 30.1895 406.221 30.0723V29.0586C406.221 28.9414 406.279 28.8828 406.397 28.8828H407.24C407.358 28.8828 407.416 28.9414 407.416 29.0586V30.0723C407.416 30.1895 407.358 30.248 407.24 30.248H406.397ZM408.365 38.0469C408.053 38.0469 407.772 37.998 407.522 37.9004C407.276 37.8027 407.059 37.6445 406.871 37.4258C406.516 37.0117 406.338 36.4258 406.338 35.668V32.2812H404.902V31.4375H407.416V35.668C407.416 36.1562 407.506 36.5215 407.686 36.7637C407.779 36.8926 407.891 36.9863 408.02 37.0449C408.152 37.1035 408.303 37.1328 408.471 37.1328H409.731V38.0469H408.365ZM414.172 38.1699C413.723 38.1699 413.322 38.0977 412.971 37.9531C412.623 37.8047 412.328 37.584 412.086 37.291C411.84 36.9863 411.658 36.6191 411.541 36.1895C411.424 35.7559 411.365 35.2656 411.365 34.7188C411.365 33.6094 411.606 32.7578 412.086 32.1641C412.567 31.5742 413.262 31.2793 414.172 31.2793C414.641 31.2793 415.047 31.3555 415.391 31.5078C415.738 31.6562 416.029 31.875 416.264 32.1641C416.744 32.7578 416.984 33.6074 416.984 34.7129C416.984 35.2715 416.924 35.7676 416.803 36.2012C416.686 36.6348 416.506 36.998 416.264 37.291C416.029 37.5801 415.736 37.7988 415.385 37.9473C415.037 38.0957 414.633 38.1699 414.172 38.1699ZM414.172 37.2559C414.723 37.2559 415.139 37.041 415.42 36.6113C415.701 36.1855 415.842 35.5566 415.842 34.7246C415.842 33.8926 415.701 33.2617 415.42 32.832C415.139 32.4062 414.723 32.1934 414.172 32.1934C413.625 32.1934 413.211 32.4062 412.93 32.832C412.649 33.2617 412.508 33.8926 412.508 34.7246C412.508 35.5566 412.649 36.1855 412.93 36.6113C413.211 37.041 413.625 37.2559 414.172 37.2559Z" fill="white"/>
<g clip-path="url(#clip2_2_493)">
<path fill-rule="evenodd" clip-rule="evenodd" d="M322.153 26.4472C322.096 26.5928 322.064 26.753 322.064 26.921V28.0606H326.539C328.105 28.0606 329.062 28.8074 329.695 30.1855C329.779 30.3695 329.854 30.5608 329.929 30.7517C330.021 30.9874 330.113 31.2226 330.223 31.4434C330.256 31.5096 330.38 31.7588 330.474 31.7588H340.708V26.9211C340.708 26.5774 340.575 26.2666 340.364 26.0465C340.192 25.8669 339.967 25.7478 339.717 25.7207C339.711 25.72 339.704 25.7194 339.697 25.7188C339.668 25.7162 339.639 25.7149 339.609 25.7149H323.163C323.16 25.7149 323.157 25.7148 323.153 25.7149C322.706 25.7192 322.32 26.0203 322.153 26.4472ZM323.163 25.2414H339.609C339.639 25.2414 339.668 25.2422 339.697 25.2439C340.099 25.2672 340.449 25.448 340.708 25.7207V24.3558C340.708 23.7966 340.166 23.3405 339.501 23.3405H321.447C320.782 23.3405 320.24 23.7966 320.24 24.3558V28.0606H321.591V26.9211C321.591 26.9211 321.591 26.9211 321.591 26.9211C321.591 26.0398 322.256 25.2414 323.163 25.2414ZM321.25 25.1155C321.547 24.7695 321.932 24.4972 322.388 24.3506H321.447C321.349 24.3506 321.282 24.3826 321.25 24.4067V25.1155ZM320.24 28.5341C319.841 28.5341 319.481 28.7069 319.23 28.9815C319.008 29.2247 318.873 29.5478 318.873 29.9015V43.2086C318.873 43.5623 319.008 43.8854 319.23 44.1286C319.477 44.3996 319.831 44.5714 320.224 44.5759C320.23 44.576 320.235 44.576 320.24 44.576L340.708 44.5759C341.461 44.5759 342.075 43.9617 342.075 43.2085V33.5997C342.075 33.246 341.939 32.9229 341.718 32.6797C341.467 32.4051 341.107 32.2323 340.708 32.2323H330.474C330.168 32.2323 329.971 32.0012 329.799 31.6545C329.799 31.6545 329.799 31.6546 329.799 31.6545C329.709 31.4735 329.625 31.2609 329.535 31.0333C329.453 30.825 329.366 30.6041 329.264 30.3832C328.84 29.4587 328.162 28.5341 326.539 28.5341H320.24ZM329.099 32.4581C329.01 32.3274 328.943 32.2027 328.895 32.1049C328.785 31.8855 328.689 31.6415 328.607 31.4327L328.599 31.4124C328.514 31.1975 328.436 30.9999 328.347 30.805C328.161 30.4015 327.965 30.1001 327.713 29.895C327.484 29.7086 327.14 29.5443 326.539 29.5443H320.24C320.045 29.5443 319.883 29.7063 319.883 29.9015V43.2086C319.883 43.4011 320.041 43.5614 320.232 43.5657H327.216C326.841 43.3284 326.486 43.0463 326.159 42.7192C323.776 40.3361 323.776 36.4723 326.159 34.0892C326.998 33.2499 328.021 32.7061 329.099 32.4581ZM333.732 43.5657H340.708C340.903 43.5657 341.065 43.4037 341.065 43.2085V33.5997C341.065 33.4045 340.903 33.2425 340.708 33.2425H333.731C334.107 33.4798 334.462 33.7621 334.789 34.0892C337.172 36.4723 337.172 40.3361 334.789 42.7192C334.462 43.0463 334.107 43.3284 333.732 43.5657ZM334.648 41.3227C336.04 39.3364 335.849 36.578 334.075 34.8035C332.086 32.8149 328.862 32.8149 326.873 34.8035C325.322 36.3548 324.981 38.6579 325.85 40.5399C325.98 40.8227 326.138 41.0961 326.324 41.3559C326.486 41.5835 326.669 41.8007 326.873 42.0049C326.873 42.0049 326.873 42.0049 326.873 42.0049C328.788 43.9196 331.848 43.9907 333.848 42.2182C333.925 42.1499 334.001 42.0787 334.075 42.0049C334.075 42.0049 334.075 42.0049 334.075 42.0049C334.261 41.8183 334.43 41.6206 334.582 41.4143C334.582 41.4143 334.582 41.4143 334.582 41.4143C334.596 41.3949 334.61 41.3754 334.624 41.3558C334.632 41.3448 334.64 41.3338 334.648 41.3227ZM330.136 39.2631C329.026 39.3412 327.938 39.8045 327.089 40.6531C327.085 40.6577 327.08 40.6623 327.076 40.667C326.944 40.7994 326.822 40.9376 326.71 41.0807C326.857 41.2873 327.023 41.4846 327.208 41.67C328.951 43.4133 331.741 43.4717 333.555 41.8454C333.618 41.789 333.679 41.7305 333.74 41.6701C333.74 41.6701 333.74 41.67 333.74 41.6701C333.925 41.4847 334.091 41.2873 334.238 41.0808C334.14 40.9559 334.034 40.8343 333.922 40.7175C333.905 40.7005 333.889 40.6837 333.872 40.6669C333.868 40.6623 333.863 40.6577 333.859 40.6531C333.01 39.8045 331.922 39.3412 330.812 39.2631C330.587 39.2472 330.361 39.2472 330.136 39.2631ZM330.773 38.2487C331.143 38.1885 331.499 38.0156 331.784 37.7302C332.508 37.0066 332.508 35.8335 331.784 35.11C331.06 34.3865 329.887 34.3865 329.164 35.11C328.44 35.8335 328.44 37.0066 329.164 37.7302C329.449 38.0157 329.805 38.1885 330.175 38.2487C330.373 38.2809 330.575 38.2808 330.773 38.2487ZM323.075 27.0504V26.921C323.075 26.8396 323.105 26.7808 323.134 26.749C323.148 26.7337 323.159 26.7275 323.163 26.7256C323.163 26.7253 323.164 26.7252 323.164 26.725H339.608C339.608 26.7252 339.609 26.7254 339.609 26.7256C339.613 26.7275 339.624 26.7337 339.638 26.7491C339.667 26.7809 339.697 26.8396 339.697 26.9211V30.7487H331.016C330.977 30.6577 330.938 30.5592 330.895 30.4502C330.887 30.4286 330.878 30.4064 330.869 30.3837C330.796 30.1961 330.71 29.9764 330.613 29.7638C330.246 28.9654 329.748 28.2693 329.045 27.7781C328.333 27.2805 327.491 27.0504 326.539 27.0504H323.075ZM329.878 35.8243C329.549 36.1533 329.549 36.6868 329.878 37.0159C330.207 37.3449 330.741 37.3449 331.07 37.0159C331.399 36.6868 331.399 36.1533 331.07 35.8243C330.741 35.4952 330.207 35.4952 329.878 35.8243Z" fill="#C0282D"/>
</g>
<rect width="76.2438" height="60" transform="translate(448.719 4)" fill="#151029"/>
<path d="M495.857 29.252H497.293L499.97 38H498.746L498.101 35.7207H495.037L494.404 38H493.179L495.857 29.252ZM497.82 34.7715L496.572 30.2949L495.324 34.7715H497.82ZM501.963 31.4375H502.941L503.047 32.7207C503.23 32.2559 503.507 31.8984 503.879 31.6484C504.246 31.4023 504.685 31.2793 505.197 31.2793C505.463 31.2793 505.713 31.3125 505.947 31.3789C506.06 31.4102 506.173 31.4531 506.287 31.5078C506.4 31.5586 506.507 31.6191 506.609 31.6895V32.791C506.386 32.6113 506.152 32.4805 505.906 32.3984C505.664 32.3164 505.4 32.2754 505.115 32.2754C504.447 32.2754 503.935 32.4863 503.58 32.9082C503.224 33.3262 503.047 33.9355 503.047 34.7363V38H501.963V31.4375ZM512.152 38.0234C511.347 38.0234 510.777 37.8613 510.441 37.5371C510.109 37.2168 509.943 36.6582 509.943 35.8613V32.2754H508.191V31.4375H509.943V29.7207L511.021 29.252V31.4375H513.47V32.2754H511.021V35.8613C511.021 36.3418 511.113 36.6797 511.297 36.875C511.476 37.0664 511.797 37.1621 512.257 37.1621H513.47V38.0234H512.152Z" fill="white"/>
<g clip-path="url(#clip3_2_493)">
<path d="M474.856 34.5181C474.856 34.8181 474.656 35.0181 474.356 35.0181C474.056 35.0181 473.856 34.8181 473.856 34.5181C473.856 34.2181 474.056 34.0181 474.356 34.0181C474.656 34.0181 474.856 34.2181 474.856 34.5181Z" fill="#C0282D"/>
<path d="M470.456 34.5181C470.456 34.8181 470.256 35.0181 469.956 35.0181C469.656 35.0181 469.456 34.8181 469.456 34.5181C469.456 34.2181 469.656 34.0181 469.956 34.0181C470.256 34.0181 470.456 34.2181 470.456 34.5181Z" fill="#C0282D"/>
<path d="M481.456 30.6181C481.456 30.3181 481.256 30.1181 480.956 30.1181C480.656 30.1181 480.456 30.3181 480.456 30.6181C480.456 31.3181 480.156 31.9181 479.656 32.3181C479.556 32.3181 479.456 32.5181 479.456 32.7181C479.456 32.9181 479.456 33.0181 479.656 33.1181C479.856 33.3181 479.956 33.6181 479.956 33.9181C479.956 34.4181 479.656 34.8181 479.256 34.9181C478.856 35.1181 478.356 34.9181 478.056 34.6181C477.756 34.3181 477.656 33.8181 477.856 33.4181C477.856 33.3181 477.856 33.1181 477.856 33.0181C477.856 32.9181 477.656 32.7181 477.556 32.7181C477.056 32.5181 476.556 32.1181 476.356 31.6181C476.356 31.4181 476.156 31.3181 475.956 31.3181C475.756 31.3181 475.656 31.3181 475.456 31.4181C475.156 31.7181 474.656 31.8181 474.256 31.7181C473.856 31.7181 473.456 31.4181 473.156 31.1181C473.156 31.0181 472.956 30.9181 472.756 30.9181C472.556 30.9181 472.456 30.9181 472.356 31.0181C471.956 31.4181 471.456 31.6181 470.956 31.7181C470.656 31.7181 470.456 32.0181 470.556 32.4181C470.556 32.7181 470.856 32.9181 471.256 32.8181C471.756 32.7181 472.356 32.5181 472.756 32.2181C473.556 32.9181 474.756 33.1181 475.756 32.6181C476.056 33.0181 476.356 33.3181 476.856 33.5181C476.856 33.6181 476.856 33.8181 476.856 33.9181C476.856 34.4181 477.056 34.9181 477.356 35.3181C477.156 37.8181 475.156 39.7181 472.656 39.8181C470.156 39.9181 467.956 38.2181 467.556 35.7181C468.156 35.3181 468.556 34.6181 468.556 33.8181C468.556 33.5181 468.556 33.2181 468.356 33.0181C468.656 32.7181 468.956 32.4181 469.156 32.0181C469.256 31.7181 469.156 31.4181 468.956 31.3181C468.656 31.2181 468.356 31.3181 468.256 31.5181C468.056 31.9181 467.756 32.2181 467.356 32.4181C467.256 32.4181 467.156 32.6181 467.056 32.8181C467.056 33.0181 467.056 33.1181 467.156 33.2181C467.456 33.6181 467.456 34.1181 467.156 34.5181C466.856 34.9181 466.356 35.1181 465.956 34.9181C465.456 34.8181 465.156 34.3181 465.156 33.8181C465.156 33.6181 465.156 33.4181 465.256 33.3181C465.256 33.2181 465.256 33.0181 465.256 32.9181C465.256 32.8181 465.056 32.6181 464.956 32.6181C464.156 32.3181 463.556 31.5181 463.456 30.6181C463.456 29.7181 463.756 28.8181 464.456 28.3181C464.656 28.1181 464.756 27.9181 464.656 27.6181C464.656 27.4181 464.556 27.2181 464.556 27.0181C464.556 26.5181 464.756 26.1181 465.156 25.9181C465.556 25.6181 465.956 25.6181 466.456 25.8181C466.756 25.9181 467.056 25.8181 467.156 25.5181C467.656 24.5181 468.456 23.8181 469.556 23.6181C470.656 23.4181 471.656 23.6181 472.556 24.2181C472.756 24.4181 473.056 24.3181 473.256 24.2181C474.056 23.5181 475.256 23.3181 476.256 23.8181C477.256 24.2181 477.856 25.2181 477.856 26.3181C477.856 26.5181 477.856 26.6181 478.056 26.7181C478.156 26.8181 478.356 26.8181 478.556 26.8181C478.756 26.8181 479.056 26.8181 479.256 27.0181C479.456 27.2181 479.556 27.4181 479.556 27.6181C479.556 27.7181 479.556 27.9181 479.456 28.0181C479.256 28.3181 479.456 28.6181 479.656 28.8181C479.856 29.0181 480.256 28.8181 480.456 28.6181C480.656 28.3181 480.756 28.0181 480.756 27.6181C480.756 26.6181 480.056 25.8181 479.056 25.7181C478.856 24.4181 477.956 23.3181 476.756 22.7181C475.556 22.2181 474.156 22.3181 473.056 23.1181C471.956 22.4181 470.756 22.2181 469.556 22.5181C468.356 22.8181 467.256 23.5181 466.656 24.6181C466.556 24.6181 466.356 24.6181 466.256 24.6181C464.856 24.6181 463.756 25.7181 463.756 27.1181C463.756 27.3181 463.756 27.5181 463.756 27.7181C462.956 28.5181 462.456 29.6181 462.556 30.7181C462.656 31.8181 463.256 32.8181 464.256 33.4181C464.256 33.6181 464.256 33.7181 464.256 33.9181C464.256 35.1181 465.256 36.1181 466.456 36.1181H466.556C466.856 37.7181 467.856 39.1181 469.156 40.0181V42.1181C469.456 43.7181 470.856 44.8181 472.456 44.8181C474.056 44.8181 475.456 43.7181 475.656 42.1181V40.0181C477.156 39.1181 478.056 37.6181 478.356 35.9181C478.556 35.9181 478.756 36.0181 478.956 36.0181C479.756 36.0181 480.456 35.6181 480.856 34.9181C481.256 34.2181 481.256 33.4181 480.856 32.7181C481.356 32.1181 481.656 31.3181 481.656 30.5181L481.456 30.6181ZM472.156 43.8181C470.956 43.8181 470.056 42.9181 469.956 41.7181C469.956 41.7181 469.956 41.7181 469.956 41.6181V40.6181C470.656 40.9181 471.356 41.0181 472.156 41.0181C472.956 41.0181 473.656 40.9181 474.356 40.6181V41.6181C474.356 42.8181 473.356 43.7181 472.156 43.7181V43.8181Z" fill="#C0282D"/>
<path d="M461.956 40.1181C462.256 40.6181 462.756 41.0181 463.256 41.3181L464.256 41.8181L469.456 46.2181C469.656 46.4181 469.956 46.5181 470.256 46.5181C470.656 46.5181 470.956 46.4181 471.256 46.2181C471.756 45.7181 471.756 45.0181 471.256 44.4181L466.856 39.2181L466.456 38.4181C465.756 37.0181 464.256 36.2181 462.656 36.4181L460.556 36.7181C460.356 36.7181 460.156 36.9181 460.056 37.1181C460.056 37.3181 460.056 37.5181 460.056 37.7181L461.856 40.1181H461.956ZM470.356 45.2181L465.656 41.2181L466.056 40.8181L466.456 40.4181L470.456 45.1181L470.356 45.2181ZM462.956 37.5181C463.956 37.4181 464.956 37.9181 465.456 38.8181L465.656 39.3181L464.556 40.5181L463.856 40.2181C463.456 40.0181 463.156 39.8181 462.956 39.4181L461.756 37.8181L462.856 37.6181L462.956 37.5181Z" fill="#C0282D"/>
</g>
<rect width="83.2438" height="60" transform="translate(544.963 4)" fill="#151029"/>
<path d="M589.71 29.252H591.292L592.804 33.7051L594.328 29.252H595.915V38H594.82V30.2715L593.261 34.8828H592.365L590.8 30.2715V38H589.71V29.252ZM599.501 30.248C599.384 30.248 599.326 30.1895 599.326 30.0723V29.0586C599.326 28.9414 599.384 28.8828 599.501 28.8828H600.345C600.462 28.8828 600.521 28.9414 600.521 29.0586V30.0723C600.521 30.1895 600.462 30.248 600.345 30.248H599.501ZM601.47 38.0469C601.158 38.0469 600.876 37.998 600.626 37.9004C600.38 37.8027 600.163 37.6445 599.976 37.4258C599.62 37.0117 599.443 36.4258 599.443 35.668V32.2812H598.007V31.4375H600.521V35.668C600.521 36.1562 600.611 36.5215 600.79 36.7637C600.884 36.8926 600.995 36.9863 601.124 37.0449C601.257 37.1035 601.408 37.1328 601.576 37.1328H602.835V38.0469H601.47ZM607.124 38.1699C606.953 38.1699 606.775 38.1602 606.591 38.1406C606.411 38.125 606.238 38.1016 606.07 38.0703C605.917 38.0391 605.738 37.9961 605.531 37.9414C605.328 37.8867 605.122 37.8262 604.915 37.7598V36.6465C605.165 36.7715 605.378 36.8691 605.554 36.9395C605.73 37.0059 605.902 37.0625 606.07 37.1094C606.249 37.1602 606.423 37.1992 606.591 37.2266C606.759 37.2539 606.933 37.2676 607.113 37.2676C607.585 37.2676 607.954 37.1699 608.22 36.9746C608.357 36.873 608.456 36.7539 608.519 36.6172C608.581 36.4805 608.613 36.3418 608.613 36.2012C608.613 35.9277 608.497 35.707 608.267 35.5391C608.036 35.3672 607.673 35.2305 607.177 35.1289L607.13 35.1172L606.726 35.0352C606.433 34.9766 606.171 34.8984 605.941 34.8008C605.714 34.7031 605.523 34.5762 605.367 34.4199C605.081 34.1348 604.939 33.7422 604.939 33.2422C604.939 32.9258 604.992 32.6465 605.097 32.4043C605.206 32.1621 605.367 31.957 605.578 31.7891C605.8 31.6094 606.066 31.4805 606.374 31.4023C606.683 31.3203 607.029 31.2793 607.411 31.2793C607.579 31.2793 607.747 31.2871 607.915 31.3027C608.083 31.3184 608.249 31.3418 608.413 31.373C608.562 31.4043 608.716 31.4453 608.876 31.4961C609.04 31.543 609.204 31.5996 609.369 31.666V32.7207C609.056 32.541 608.745 32.4062 608.437 32.3164C608.281 32.2734 608.122 32.2402 607.962 32.2168C607.806 32.1934 607.638 32.1816 607.458 32.1816C607.232 32.1816 607.027 32.2012 606.843 32.2402C606.663 32.2793 606.513 32.3379 606.392 32.416C606.15 32.5762 606.029 32.8203 606.029 33.1484C606.029 33.2852 606.05 33.4102 606.093 33.5234C606.14 33.6367 606.208 33.7285 606.298 33.7988C606.388 33.8691 606.536 33.9395 606.744 34.0098C606.954 34.0762 607.253 34.1465 607.64 34.2207L608.074 34.3027C608.355 34.3574 608.595 34.4355 608.794 34.5371C608.994 34.6387 609.16 34.7637 609.292 34.9121C609.566 35.2129 609.703 35.6113 609.703 36.1074C609.703 36.4434 609.642 36.7363 609.521 36.9863C609.404 37.2324 609.234 37.4434 609.011 37.6191C608.773 37.8066 608.494 37.9453 608.173 38.0352C607.857 38.125 607.507 38.1699 607.124 38.1699ZM615.07 38.1699C614.581 38.1699 614.136 38.0938 613.734 37.9414C613.335 37.7852 612.995 37.5566 612.714 37.2559C612.429 36.9512 612.214 36.5879 612.07 36.166C611.929 35.7402 611.859 35.2598 611.859 34.7246C611.859 34.166 611.933 33.6758 612.081 33.2539C612.234 32.832 612.447 32.4766 612.72 32.1875C613.009 31.8828 613.351 31.6562 613.745 31.5078C614.144 31.3555 614.587 31.2793 615.076 31.2793C615.255 31.2793 615.421 31.2891 615.574 31.3086C615.726 31.3281 615.876 31.3594 616.025 31.4023C616.322 31.4844 616.624 31.6113 616.933 31.7832V32.9141C616.788 32.7891 616.646 32.6797 616.505 32.5859C616.365 32.4922 616.222 32.418 616.078 32.3633C615.785 32.25 615.46 32.1934 615.105 32.1934C614.425 32.1934 613.904 32.4121 613.54 32.8496C613.177 33.291 612.995 33.9141 612.995 34.7188C612.995 35.0938 613.036 35.4414 613.119 35.7617C613.204 36.082 613.345 36.3594 613.54 36.5938C613.908 37.0352 614.435 37.2559 615.122 37.2559C615.318 37.2559 615.495 37.2402 615.656 37.209C615.82 37.1777 615.97 37.1348 616.107 37.0801C616.283 37.0137 616.433 36.9375 616.558 36.8516C616.687 36.7617 616.812 36.6602 616.933 36.5469V37.666C616.8 37.7441 616.656 37.8164 616.499 37.8828C616.343 37.9492 616.191 38.0039 616.042 38.0469C615.906 38.0859 615.755 38.1152 615.591 38.1348C615.431 38.1582 615.257 38.1699 615.07 38.1699Z" fill="white"/>
<path d="M563.153 28.3196H575.789L568.886 33.7254C568.74 33.8398 568.566 33.8957 568.408 33.911C568.249 33.8955 568.075 33.8396 567.927 33.7254L562.994 29.8608C562.942 29.8189 562.883 29.787 562.818 29.7671C563.05 29.4404 563.182 29.0452 563.175 28.6194C563.174 28.5219 563.165 28.4214 563.153 28.3196ZM559.939 24.843C559.955 24.8457 559.981 24.8556 560.038 24.8819C560.151 24.9351 560.329 25.0721 560.504 25.2631C560.856 25.6457 561.208 26.2252 561.391 26.6077C561.396 26.619 561.402 26.6314 561.407 26.644C561.926 27.5308 562.149 28.2092 562.156 28.6347C562.163 29.0621 562.048 29.2462 561.685 29.4544L560.748 29.9933C560.137 30.3439 559.848 30.9723 559.777 31.5585C559.705 32.1449 559.811 32.7147 560.072 33.1653L562.386 37.1426C562.648 37.5929 563.096 37.9696 563.643 38.2009C564.19 38.4327 564.883 38.4983 565.494 38.1485L566.431 37.6106C566.794 37.403 567.014 37.3987 567.383 37.6174C567.752 37.8366 568.233 38.3661 568.749 39.2534C568.756 39.2666 568.763 39.2776 568.771 39.2902C569.013 39.6381 569.343 40.2284 569.502 40.7227C569.581 40.9682 569.612 41.1901 569.602 41.3129C569.591 41.4362 569.588 41.4236 569.555 41.4429L568.842 41.8508C567.05 42.6258 565.408 42.4509 563.94 41.6917C562.469 40.9293 561.191 39.5524 560.3 37.936C560.297 37.9327 560.296 37.9287 560.293 37.9266L558.341 34.5717C558.338 34.5684 558.337 34.5655 558.334 34.5612C557.368 32.9869 556.806 31.1995 556.876 29.5551C556.947 27.9131 557.615 26.4162 559.189 25.2645L559.902 24.858C559.919 24.8486 559.924 24.8414 559.939 24.843ZM559.947 23.8433C559.758 23.8404 559.565 23.8799 559.392 23.9801L558.638 24.4129C558.621 24.4225 558.605 24.4325 558.59 24.4421C556.774 25.7671 555.938 27.6117 555.857 29.5129C555.775 31.4134 556.411 33.3748 557.462 35.0896L559.408 38.433L559.403 38.423C560.374 40.183 561.766 41.7097 563.467 42.5893C565.168 43.4702 567.195 43.6744 569.259 42.7765C569.276 42.7693 569.293 42.7612 569.309 42.7518L570.064 42.319C570.414 42.1208 570.589 41.735 570.618 41.3981C570.647 41.0623 570.579 40.7353 570.474 40.4132C570.27 39.7762 569.914 39.1575 569.62 38.7331C569.064 37.7796 568.528 37.1179 567.908 36.748C567.283 36.3765 566.532 36.3818 565.92 36.7327L564.983 37.2716C564.706 37.4306 564.382 37.4121 564.041 37.2684C563.702 37.1246 563.388 36.8372 563.272 36.6357L560.958 32.6586C560.841 32.456 560.745 32.0428 560.79 31.6785C560.834 31.3153 560.982 31.0308 561.259 30.8715L562.17 30.3493C562.194 30.471 562.262 30.5814 562.362 30.6555L567.295 34.5209C567.616 34.7723 567.996 34.9123 568.379 34.9343C568.399 34.9354 568.419 34.9354 568.438 34.9343C568.821 34.9123 569.199 34.7721 569.521 34.5209L576.315 29.1978V37.9919C576.315 38.1256 576.162 38.3019 575.862 38.3019H571.158C570.875 38.3003 570.646 38.5281 570.646 38.8088C570.646 39.089 570.875 39.3168 571.158 39.3152H575.862C576.63 39.3152 577.337 38.761 577.337 37.9919V28.6296C577.337 27.8599 576.63 27.306 575.862 27.306H562.873C562.729 26.9473 562.539 26.5672 562.3 26.154C562.076 25.6892 561.713 25.0748 561.259 24.5808C561.029 24.3304 560.781 24.1085 560.472 23.965V23.9664C560.318 23.8938 560.135 23.8474 559.947 23.8433Z" fill="#C0282D"/>
</g>
<defs>
<filter id="filter0_d_2_493" x="0.987549" y="0" width="663.219" height="68" filterUnits="userSpaceOnUse" color-interpolation-filters="sRGB">
<feFlood flood-opacity="0" result="BackgroundImageFix"/>
<feColorMatrix in="SourceAlpha" type="matrix" values="0 0 0 0 0 0 0 0 0 0 0 0 0 0 0 0 0 0 127 0" result="hardAlpha"/>
<feOffset/>
<feGaussianBlur stdDeviation="2"/>
<feComposite in2="hardAlpha" operator="out"/>
<feColorMatrix type="matrix" values="0 0 0 0 0.752941 0 0 0 0 0.156863 0 0 0 0 0.176471 0 0 0 1 0"/>
<feBlend mode="normal" in2="BackgroundImageFix" result="effect1_dropShadow_2_493"/>
<feBlend mode="normal" in="SourceGraphic" in2="effect1_dropShadow_2_493" result="shape"/>
</filter>
<clipPath id="clip0_2_493">
<rect width="43.0763" height="37.675" fill="white" transform="translate(37 15)"/>
</clipPath>
<clipPath id="clip1_2_493">
<rect width="22" height="22" fill="white" transform="translate(208.109 22.8363)"/>
</clipPath>
<clipPath id="clip2_2_493">
<rect width="24.2438" height="24.2438" fill="white" transform="translate(318.352 21.8363)"/>
</clipPath>
<clipPath id="clip3_2_493">
<rect width="25" height="25" fill="white" transform="translate(458.256 21.9181)"/>
</clipPath>
</defs>
</svg>
