<svg width="55" height="54" viewBox="0 0 55 54" fill="none" xmlns="http://www.w3.org/2000/svg">
<g filter="url(#filter0_d_325_7692)">
<rect x="2.98755" y="2.85938" width="50" height="48.8932" rx="24.4466" fill="#151029"/>
<g clip-path="url(#clip0_325_7692)">
<path d="M20.4687 31.2392C20.0614 31.2338 18.6648 31.1208 17.7297 29.9119C17.0104 28.9805 16.9926 27.9186 17.0192 27.5061L17.0823 27.0991C17.4265 25.7575 17.6246 24.3874 17.671 23.0205C17.702 22.1242 17.6677 21.217 17.5703 20.3241L17.5504 20.1485L17.5626 19.9708C17.6124 19.2885 17.909 18.6522 18.3981 18.1783C18.8917 17.6989 19.549 17.4247 20.2496 17.4049L20.3481 17.4016L20.4543 17.4093C20.804 17.4356 21.3629 17.4719 22.1619 17.5212L22.5094 17.5421L22.5647 17.202C23.0439 14.2851 25.5494 12 28.2674 12C29.3475 12 30.909 12.3708 32.2148 14.1359C32.8689 15.0179 33.2994 16.0754 33.4598 17.1932L33.5096 17.541L33.8638 17.5201C34.2046 17.5004 35.0523 17.4488 35.5669 17.4104L35.7329 17.4049C36.4401 17.4049 37.1118 17.6803 37.6275 18.1805C38.3347 18.8672 38.4487 19.6955 38.4642 20.0191L38.4719 20.1727L38.4553 20.3263C38.3579 21.2203 38.3247 22.1275 38.3546 23.0227C38.4022 24.3972 38.6014 25.7729 38.9467 27.1123L38.9909 27.2834L39.0031 27.459C39.075 28.4496 38.7287 29.4303 38.0536 30.1488C37.3918 30.8531 36.4987 31.2414 35.5393 31.2414H20.4676L20.4687 31.2392ZM19.2945 20.1474C19.3996 21.1249 19.4362 22.11 19.403 23.0775C19.3521 24.5695 19.1363 26.0658 18.7622 27.5226L18.7534 27.5566L18.7478 27.6213C18.7368 27.7892 18.729 28.3804 19.1053 28.8675C19.58 29.4807 20.3359 29.5202 20.4831 29.5224H35.5404C36.0207 29.5224 36.4511 29.3348 36.7865 28.9772C37.1317 28.6097 37.3099 28.1062 37.2767 27.5939L37.2745 27.5577L37.2657 27.5237C36.8905 26.0691 36.6747 24.5738 36.6238 23.0775C36.5906 22.1056 36.6271 21.1205 36.7322 20.1485L36.7356 20.1156L36.7333 20.0827C36.7256 19.9642 36.678 19.6604 36.4168 19.407C36.2342 19.2292 35.9974 19.1283 35.7484 19.1217L35.6743 19.125C34.9804 19.1766 33.5196 19.2622 33.4997 19.2622H33.4443L22.5592 19.2665L22.5282 19.2644C22.1785 19.2435 20.9844 19.1722 20.337 19.1228L20.3149 19.1206H20.2938C20.0327 19.1305 19.7914 19.2325 19.6121 19.407C19.4306 19.5814 19.3189 19.8194 19.2956 20.075L19.2923 20.1123L19.2967 20.1496L19.2945 20.1474ZM28.1788 13.5468C27.1518 13.5468 26.116 14.1095 25.2628 15.1319C24.8123 15.6607 24.4272 16.3233 24.1174 17.0989L23.9392 17.5454L32.061 17.5421L31.8983 17.1033C31.5984 16.2904 31.2299 15.5982 30.8049 15.0475C30.0812 14.0646 29.1726 13.5457 28.1777 13.5457L28.1788 13.5468Z" fill="#422B71"/>
<path d="M25.9345 25.9429C25.0336 25.9429 24.301 25.2167 24.301 24.3237C24.301 23.4308 25.0336 22.7046 25.9345 22.7046H28.108V25.9429H25.9345Z" fill="#2DA9E1"/>
<path d="M27.9497 25.9429V22.7046H30.1232C31.024 22.7046 31.7566 23.4308 31.7566 24.3237C31.7566 25.2167 31.024 25.9429 30.1232 25.9429H27.9497Z" fill="#C0282D"/>
<path fill-rule="evenodd" clip-rule="evenodd" d="M31.677 24.3249C31.677 23.4736 30.981 22.7836 30.1222 22.7836V22.7847H28.1866V25.8661H30.1222C30.981 25.8661 31.677 25.1761 31.677 24.3249ZM28.1866 26.0219H30.1222C31.0662 26.0219 31.8353 25.2606 31.8353 24.3238C31.8353 23.3869 31.0673 22.6256 30.1222 22.6256V22.6267H28.1866V22.6267H25.9346C24.9906 22.6267 24.2214 23.388 24.2214 24.3248C24.2214 25.2617 24.9895 26.023 25.9346 26.023H28.1866V26.0219ZM27.8701 22.7824V25.865H25.9346C25.0758 25.865 24.3797 25.175 24.3797 24.3237C24.3797 23.4724 25.0758 22.7824 25.9346 22.7824H27.8701Z" fill="black"/>
</g>
<path fill-rule="evenodd" clip-rule="evenodd" d="M22.4875 36.6276C22.4875 36.1719 22.8569 35.8026 23.3125 35.8026H32.6625C33.1182 35.8026 33.4875 36.1719 33.4875 36.6276C33.4875 37.0832 33.1182 37.4526 32.6625 37.4526H23.3125C22.8569 37.4526 22.4875 37.0832 22.4875 36.6276Z" fill="#C0282D"/>
<path fill-rule="evenodd" clip-rule="evenodd" d="M23.8625 39.2775C23.8625 38.8219 24.2319 38.4525 24.6875 38.4525H31.2875C31.7432 38.4525 32.1125 38.8219 32.1125 39.2775C32.1125 39.7332 31.7432 40.1025 31.2875 40.1025H24.6875C24.2319 40.1025 23.8625 39.7332 23.8625 39.2775Z" fill="#C0282D"/>
<path fill-rule="evenodd" clip-rule="evenodd" d="M25.2375 41.9275C25.2375 41.4719 25.6069 41.1025 26.0625 41.1025H29.9125C30.3682 41.1025 30.7375 41.4719 30.7375 41.9275C30.7375 42.3832 30.3682 42.7525 29.9125 42.7525H26.0625C25.6069 42.7525 25.2375 42.3832 25.2375 41.9275Z" fill="#C0282D"/>
</g>
<defs>
<filter id="filter0_d_325_7692" x="0.987549" y="0.859375" width="54" height="52.8932" filterUnits="userSpaceOnUse" color-interpolation-filters="sRGB">
<feFlood flood-opacity="0" result="BackgroundImageFix"/>
<feColorMatrix in="SourceAlpha" type="matrix" values="0 0 0 0 0 0 0 0 0 0 0 0 0 0 0 0 0 0 127 0" result="hardAlpha"/>
<feOffset/>
<feGaussianBlur stdDeviation="1"/>
<feComposite in2="hardAlpha" operator="out"/>
<feColorMatrix type="matrix" values="0 0 0 0 0.752941 0 0 0 0 0.156863 0 0 0 0 0.176471 0 0 0 1 0"/>
<feBlend mode="normal" in2="BackgroundImageFix" result="effect1_dropShadow_325_7692"/>
<feBlend mode="normal" in="SourceGraphic" in2="effect1_dropShadow_325_7692" result="shape"/>
</filter>
<clipPath id="clip0_325_7692">
<rect width="22" height="19.2414" fill="white" transform="translate(17.0125 12)"/>
</clipPath>
</defs>
</svg>
