<svg width="75" height="236" viewBox="0 0 75 236" fill="none" xmlns="http://www.w3.org/2000/svg">
<g filter="url(#filter0_d_324_7659)">
<rect x="2.98755" y="2" width="70" height="231.859" rx="35" fill="#151029"/>
<g clip-path="url(#clip0_324_7659)">
<path d="M30.4562 37.2392C30.049 37.2338 28.6524 37.1208 27.7172 35.9119C26.9979 34.9805 26.9802 33.9186 27.0068 33.5061L27.0698 33.0991C27.414 31.7575 27.6121 30.3874 27.6586 29.0205C27.6896 28.1242 27.6553 27.217 27.5579 26.3241L27.538 26.1485L27.5501 25.9708C27.5999 25.2885 27.8965 24.6522 28.3857 24.1783C28.8792 23.6989 29.5366 23.4247 30.2371 23.4049L30.3356 23.4016L30.4418 23.4093C30.7916 23.4356 31.3504 23.4719 32.1494 23.5212L32.4969 23.5421L32.5523 23.202C33.0314 20.2851 35.5369 18 38.2549 18C39.335 18 40.8965 18.3708 42.2024 20.1359C42.8564 21.0179 43.2869 22.0754 43.4474 23.1932L43.4972 23.541L43.8513 23.5201C44.1922 23.5004 45.0399 23.4488 45.5545 23.4104L45.7205 23.4049C46.4276 23.4049 47.0994 23.6803 47.6151 24.1805C48.3222 24.8672 48.4362 25.6955 48.4517 26.0191L48.4595 26.1727L48.4429 26.3263C48.3455 27.2203 48.3123 28.1275 48.3422 29.0227C48.3897 30.3972 48.5889 31.7729 48.9342 33.1123L48.9785 33.2834L48.9907 33.459C49.0626 34.4496 48.7162 35.4303 48.0411 36.1488C47.3794 36.8531 46.4863 37.2414 45.5268 37.2414H30.4551L30.4562 37.2392ZM29.2821 26.1474C29.3872 27.1249 29.4237 28.11 29.3905 29.0775C29.3396 30.5695 29.1238 32.0658 28.7498 33.5226L28.7409 33.5566L28.7354 33.6213C28.7243 33.7892 28.7166 34.3804 29.0928 34.8675C29.5676 35.4807 30.3234 35.5202 30.4706 35.5224H45.5279C46.0082 35.5224 46.4387 35.3348 46.774 34.9772C47.1193 34.6097 47.2975 34.1062 47.2643 33.5939L47.2621 33.5577L47.2532 33.5237C46.878 32.0691 46.6622 30.5738 46.6113 29.0775C46.5781 28.1056 46.6147 27.1205 46.7198 26.1485L46.7231 26.1156L46.7209 26.0827C46.7132 25.9642 46.6656 25.6604 46.4044 25.407C46.2218 25.2292 45.985 25.1283 45.736 25.1217L45.6618 25.125C44.9679 25.1766 43.5071 25.2622 43.4872 25.2622H43.4319L32.5467 25.2665L32.5157 25.2644C32.166 25.2435 30.9719 25.1722 30.3245 25.1228L30.3024 25.1206H30.2814C30.0202 25.1305 29.779 25.2325 29.5997 25.407C29.4182 25.5814 29.3064 25.8194 29.2832 26.075L29.2798 26.1123L29.2843 26.1496L29.2821 26.1474ZM38.1664 19.5468C37.1394 19.5468 36.1035 20.1095 35.2503 21.1319C34.7999 21.6607 34.4148 22.3233 34.1049 23.0989L33.9267 23.5454L42.0486 23.5421L41.8859 23.1033C41.586 22.2904 41.2174 21.5982 40.7925 21.0475C40.0687 20.0646 39.1602 19.5457 38.1653 19.5457L38.1664 19.5468Z" fill="#422B71"/>
<path d="M35.922 31.9429C35.0212 31.9429 34.2886 31.2167 34.2886 30.3237C34.2886 29.4308 35.0212 28.7046 35.922 28.7046H38.0955V31.9429H35.922Z" fill="#2DA9E1"/>
<path d="M37.9373 31.9429V28.7046H40.1107C41.0116 28.7046 41.7442 29.4308 41.7442 30.3237C41.7442 31.2167 41.0116 31.9429 40.1107 31.9429H37.9373Z" fill="#C0282D"/>
<path fill-rule="evenodd" clip-rule="evenodd" d="M41.6646 30.3248C41.6646 29.4736 40.9685 28.7835 40.1097 28.7835V28.7846H38.1742V31.8661H40.1097C40.9685 31.8661 41.6646 31.1761 41.6646 30.3248ZM38.1742 32.0219H40.1097C41.0537 32.0219 41.8228 31.2606 41.8228 30.3237C41.8228 29.3869 41.0548 28.6256 40.1097 28.6256V28.6267H38.1742V28.6266H35.9221C34.9781 28.6266 34.209 29.388 34.209 30.3248C34.209 31.2616 34.977 32.023 35.9221 32.023H38.1742V32.0219ZM37.8577 28.7824V31.865H35.9221C35.0633 31.865 34.3672 31.175 34.3672 30.3237C34.3672 29.4724 35.0633 28.7824 35.9221 28.7824H37.8577Z" fill="black"/>
</g>
<rect width="38.1219" height="11.0819" transform="translate(10.9875 53.5)" fill="#151029"/>
<path d="M33.1094 57.1669H33.6865L34.1055 60.7177L34.6035 58.3681H35.2217L35.7256 60.7235L36.1445 57.1669H36.7217L36.0684 61.5409H35.5088L34.9141 58.9423L34.3223 61.5409H33.7627L33.1094 57.1669ZM37.3135 61.0429H38.2305V57.6649H37.3135V57.1669H39.7422V57.6649H38.8252V61.0429H39.7422V61.5409H37.3135V61.0429ZM40.8438 57.1669H42.1211C42.6074 57.1669 42.9775 57.2773 43.2314 57.498C43.3623 57.6132 43.458 57.7538 43.5186 57.9198C43.5791 58.0839 43.6094 58.2694 43.6094 58.4765C43.6094 58.9062 43.4844 59.2314 43.2344 59.4521C43.1113 59.5614 42.957 59.6444 42.7715 59.7011C42.5859 59.7558 42.3691 59.7831 42.1211 59.7831H41.4355V61.5409H40.8438V57.1669ZM42.1211 59.2968C42.2676 59.2968 42.3936 59.2773 42.499 59.2382C42.6045 59.1991 42.6924 59.1464 42.7627 59.08C42.915 58.9374 42.9912 58.7353 42.9912 58.4735C42.9912 58.2138 42.915 58.0116 42.7627 57.8671C42.6123 57.7245 42.3984 57.6532 42.1211 57.6532H41.4355V59.2968H42.1211Z" fill="white"/>
<path d="M26.9163 61.973C26.9782 61.973 27.036 61.9418 27.0697 61.8898C27.1034 61.8377 27.1089 61.7724 27.084 61.7158C26.7716 61.0063 26.0691 60.5478 25.2942 60.5478C24.6266 60.5478 24.0053 60.8906 23.6469 61.4494H19.8283C19.4699 60.8906 18.8486 60.5478 18.1811 60.5478C17.4062 60.5478 16.7035 61.0061 16.3913 61.7158C16.3663 61.7724 16.3717 61.8379 16.4056 61.8898C16.4395 61.9417 16.4972 61.973 16.559 61.973H18.0924V63.0339H16.5588C16.4969 63.0339 16.4391 63.0651 16.4054 63.1172C16.3717 63.1692 16.3662 63.2345 16.3911 63.2911C16.7035 64.0006 17.406 64.4591 18.1809 64.4591C18.8479 64.4591 19.4688 64.1169 19.8269 63.5588H23.6482C24.0061 64.1167 24.627 64.4591 25.2942 64.4591C26.0691 64.4591 26.7718 64.0008 27.084 63.2911C27.1089 63.2345 27.1036 63.169 27.0697 63.1172C27.0358 63.0653 26.978 63.0339 26.9163 63.0339H25.3829V61.973H26.9163ZM25.1994 63.4006H26.6053C26.3126 63.8283 25.8242 64.0923 25.294 64.0923C24.7225 64.0923 24.1927 63.783 23.9113 63.2851C23.8787 63.2275 23.8178 63.192 23.7516 63.192H19.7233C19.6573 63.192 19.5962 63.2275 19.5636 63.2851C19.2822 63.783 18.7524 64.0923 18.1809 64.0923C17.6507 64.0923 17.1622 63.8281 16.8696 63.4006H18.2755C18.3767 63.4006 18.4589 63.3185 18.4589 63.2173V61.7897C18.4589 61.6885 18.3767 61.6063 18.2755 61.6063H16.8696C17.1624 61.1786 17.6507 60.9146 18.1809 60.9146C18.7527 60.9146 19.2831 61.2245 19.5651 61.7233C19.5977 61.7809 19.6586 61.8164 19.7248 61.8164H23.7503C23.8163 61.8164 23.8774 61.7809 23.91 61.7233C24.192 61.2245 24.7223 60.9146 25.2942 60.9146C25.8243 60.9146 26.3129 61.1788 26.6055 61.6063H25.1996C25.0984 61.6063 25.0162 61.6885 25.0162 61.7897V63.2173C25.0162 63.3185 25.0982 63.4006 25.1994 63.4006Z" fill="#C0282D"/>
<path d="M23.5034 62.32H19.9715C19.8703 62.32 19.7882 62.4021 19.7882 62.5033C19.7882 62.6045 19.8703 62.6867 19.9715 62.6867H23.5034C23.6046 62.6867 23.6867 62.6045 23.6867 62.5033C23.6867 62.4021 23.6046 62.32 23.5034 62.32Z" fill="#C0282D"/>
<path d="M22.7987 54.1897L22.7648 53.6313C22.7589 53.5345 22.6788 53.4591 22.5818 53.4591H20.8932C20.7962 53.4591 20.7161 53.5346 20.7102 53.6313L20.6763 54.1897C20.0757 54.3224 19.5232 54.562 19.0386 54.8869C19.0342 54.8887 19.0309 54.8924 19.0265 54.8946C17.7995 55.7231 17.0136 57.0896 17.0136 58.5991V58.7143C16.7021 58.7691 16.4641 59.0402 16.4641 59.3671C16.4641 59.7336 16.7622 60.0317 17.1287 60.0317H26.3458C26.7123 60.0317 27.0104 59.7336 27.0104 59.3671C27.0104 59.04 26.7724 58.7689 26.4606 58.7141V58.599C26.4606 56.4879 24.9281 54.6579 22.7982 54.1895L22.7987 54.1897ZM18.9261 55.424V57.1415C18.9261 57.2427 19.0082 57.3248 19.1094 57.3248C19.2106 57.3248 19.2927 57.2427 19.2927 57.1415V55.1593C19.7001 54.8938 20.158 54.6929 20.6534 54.5714L20.4585 57.7855C20.4523 57.8865 20.5293 57.9734 20.6305 57.9797C20.7319 57.9877 20.8184 57.9089 20.8246 57.8077L21.0661 53.8258H22.4095L22.651 57.8077C22.6568 57.905 22.7377 57.9798 22.8337 57.9798C22.8376 57.9798 22.8413 57.9798 22.8451 57.9795C22.9461 57.9734 23.0231 57.8865 23.0171 57.7853L22.8222 54.571C23.3175 54.6922 23.7755 54.8929 24.1829 55.158V57.1413C24.1829 57.2425 24.265 57.3246 24.3662 57.3246C24.4674 57.3246 24.5495 57.2425 24.5495 57.1413V55.4228C25.5008 56.194 26.0946 57.3426 26.0946 58.5991V58.7025H17.3804V58.5991C17.3804 57.3437 17.9746 56.1955 18.9261 55.424ZM26.6441 59.3673C26.6441 59.5316 26.5104 59.6652 26.3462 59.6652H17.1291C16.9648 59.6652 16.8311 59.5316 16.8311 59.3673C16.8311 59.203 16.9648 59.0694 17.1291 59.0694H17.1963C17.1963 59.0694 17.1969 59.0694 17.1972 59.0694H26.2778C26.2778 59.0694 26.2783 59.0694 26.2787 59.0694H26.3463C26.5106 59.0694 26.6441 59.203 26.6441 59.3673Z" fill="#C0282D"/>
<rect width="46.1219" height="11.0819" transform="translate(10.9875 85.0819)" fill="#151029"/>
<path d="M34.5566 88.7488H35.2744L36.6133 93.1228H36.001L35.6787 91.9832H34.1465L33.8301 93.1228H33.2178L34.5566 88.7488ZM35.5381 91.5086L34.9141 89.2703L34.29 91.5086H35.5381ZM38.7051 93.2078C38.6055 93.2078 38.5146 93.197 38.4326 93.1756C38.3506 93.156 38.2695 93.1238 38.1895 93.0789C38.0391 92.9929 37.9189 92.8699 37.8291 92.7097L37.7764 93.1228H37.29V88.5642H37.8291V90.2605C37.9131 90.1004 38.0322 89.9773 38.1865 89.8914C38.3369 89.8054 38.5137 89.7625 38.7168 89.7625C38.9043 89.7625 39.0762 89.7996 39.2324 89.8738C39.3906 89.948 39.5273 90.0613 39.6426 90.2136C39.7559 90.366 39.8408 90.5486 39.8975 90.7615C39.9541 90.9744 39.9824 91.2136 39.9824 91.4793C39.9824 92.0144 39.8691 92.4363 39.6426 92.7449C39.5312 92.8972 39.3975 93.0125 39.2412 93.0906C39.085 93.1687 38.9062 93.2078 38.7051 93.2078ZM38.6289 92.7507C38.8887 92.7507 39.084 92.6443 39.2148 92.4314C39.3477 92.2166 39.4141 91.9011 39.4141 91.4851C39.4141 91.0691 39.3477 90.7537 39.2148 90.5388C39.084 90.3259 38.8877 90.2195 38.626 90.2195C38.3643 90.2195 38.166 90.3259 38.0312 90.5388C37.8965 90.7537 37.8291 91.0691 37.8291 91.4851C37.8291 91.9011 37.8965 92.2156 38.0312 92.4285C38.166 92.6433 38.3652 92.7507 38.6289 92.7507ZM42.1445 93.2078C41.9199 93.2078 41.7197 93.1716 41.5439 93.0994C41.3701 93.0252 41.2227 92.9148 41.1016 92.7683C40.9785 92.616 40.8877 92.4324 40.8291 92.2175C40.7705 92.0007 40.7412 91.7556 40.7412 91.4822C40.7412 90.9275 40.8613 90.5017 41.1016 90.2048C41.3418 89.9099 41.6895 89.7625 42.1445 89.7625C42.3789 89.7625 42.582 89.8006 42.7539 89.8767C42.9277 89.9509 43.0732 90.0603 43.1904 90.2048C43.4307 90.5017 43.5508 90.9265 43.5508 91.4793C43.5508 91.7586 43.5205 92.0066 43.46 92.2234C43.4014 92.4402 43.3115 92.6218 43.1904 92.7683C43.0732 92.9129 42.9268 93.0222 42.751 93.0965C42.5771 93.1707 42.375 93.2078 42.1445 93.2078ZM42.1445 92.7507C42.4199 92.7507 42.6279 92.6433 42.7686 92.4285C42.9092 92.2156 42.9795 91.9011 42.9795 91.4851C42.9795 91.0691 42.9092 90.7537 42.7686 90.5388C42.6279 90.3259 42.4199 90.2195 42.1445 90.2195C41.8711 90.2195 41.6641 90.3259 41.5234 90.5388C41.3828 90.7537 41.3125 91.0691 41.3125 91.4851C41.3125 91.9011 41.3828 92.2156 41.5234 92.4285C41.6641 92.6433 41.8711 92.7507 42.1445 92.7507ZM45.5195 93.2078C45.1855 93.2078 44.9365 93.0974 44.7725 92.8767C44.6084 92.658 44.5264 92.3259 44.5264 91.8806V89.8474H45.0654V91.8806C45.0654 92.1775 45.1182 92.3943 45.2236 92.531C45.2744 92.5974 45.3379 92.6492 45.4141 92.6863C45.4922 92.7215 45.5898 92.739 45.707 92.739C45.9609 92.739 46.1553 92.6492 46.29 92.4695C46.4248 92.2918 46.4922 92.0359 46.4922 91.7019V89.8474H47.0342V93.1228H46.5449L46.4922 92.6306C46.3945 92.822 46.2646 92.9656 46.1025 93.0613C45.9365 93.159 45.7422 93.2078 45.5195 93.2078ZM49.9346 93.1345C49.5322 93.1345 49.2471 93.0535 49.0791 92.8914C48.9131 92.7312 48.8301 92.4519 48.8301 92.0535V90.2605H47.9541V89.8416H48.8301V88.9832L49.3691 88.7488V89.8416H50.5938V90.2605H49.3691V92.0535C49.3691 92.2937 49.415 92.4627 49.5068 92.5603C49.5967 92.656 49.7568 92.7039 49.9873 92.7039H50.5938V93.1345H49.9346Z" fill="white"/>
<g clip-path="url(#clip1_324_7659)">
<path fill-rule="evenodd" clip-rule="evenodd" d="M19.0924 87.9149C18.6252 87.9149 18.2452 87.5349 18.2452 87.0678C18.2452 86.6007 18.6252 86.2206 19.0924 86.2206C19.5595 86.2206 19.9401 86.6007 19.9401 87.0678C19.9401 87.5349 19.5595 87.9149 19.0924 87.9149ZM24.4498 96.041H16.6447C16.5412 96.041 16.4578 95.9576 16.4578 95.854V85.6086C16.4578 85.5051 16.5412 85.4216 16.6447 85.4216H22.5412V85.228C22.5412 85.1244 22.6246 85.041 22.7282 85.041H27.2087C27.3122 85.041 27.3956 85.1244 27.3956 85.228V89.4862C27.3956 89.5891 27.3122 89.6731 27.2087 89.6731H24.6368V95.854C24.6368 95.9576 24.5534 96.041 24.4498 96.041ZM22.9145 85.608V85.6086V89.2992H24.4151V87.3571C24.4151 87.2535 24.4986 87.1701 24.6021 87.1701H25.3347C25.4383 87.1701 25.5217 87.2535 25.5217 87.3571V89.2992H27.0223V85.4143H22.9145V85.608ZM16.8317 95.6677H24.2635V89.6731H22.7282C22.6271 89.6731 22.5412 89.5921 22.5412 89.4862V85.7956H16.8317V95.6677ZM23.1691 91.2511H17.9255C17.8226 91.2511 17.7391 91.1677 17.7391 91.0641V90.3686C17.7391 90.2657 17.8226 90.1823 17.9255 90.1823H23.1691C23.272 90.1823 23.3561 90.2657 23.3561 90.3686V91.0641C23.3561 91.1677 23.272 91.2511 23.1691 91.2511ZM18.1125 90.8778H22.9821V90.5556H18.1125V90.8778ZM22.1928 92.0002H18.9023C18.7988 92.0002 18.7154 91.9167 18.7154 91.8132C18.7154 91.7103 18.7988 91.6269 18.9023 91.6269H22.1928C22.2958 91.6269 22.3792 91.7103 22.3792 91.8132C22.3792 91.9167 22.2958 92.0002 22.1928 92.0002ZM24.7885 89.2992H25.1484V87.544H24.7885V89.2992ZM25.3347 86.9015H24.6021C24.4986 86.9015 24.4151 86.8181 24.4151 86.7152V85.9283C24.4151 85.8248 24.4986 85.7414 24.6021 85.7414H25.3347C25.4383 85.7414 25.5217 85.8248 25.5217 85.9283V86.7152C25.5217 86.8181 25.4383 86.9015 25.3347 86.9015ZM24.7885 86.5282H25.1484V86.1147H24.7885V86.5282ZM23.4194 92.8126H17.6752C17.5723 92.8126 17.4882 92.7292 17.4882 92.6262C17.4882 92.5227 17.5723 92.4393 17.6752 92.4393H23.4194C23.5229 92.4393 23.6064 92.5227 23.6064 92.6262C23.6064 92.7292 23.5229 92.8126 23.4194 92.8126ZM23.4194 93.6256H17.6752C17.5723 93.6256 17.4882 93.5416 17.4882 93.4387C17.4882 93.3351 17.5723 93.2517 17.6752 93.2517H23.4194C23.5229 93.2517 23.6064 93.3351 23.6064 93.4387C23.6064 93.5416 23.5229 93.6256 23.4194 93.6256ZM23.4194 94.4381H17.6752C17.5723 94.4381 17.4882 94.3546 17.4882 94.2511C17.4882 94.1482 17.5723 94.0641 17.6752 94.0641H23.4194C23.5229 94.0641 23.6064 94.1482 23.6064 94.2511C23.6064 94.3546 23.5229 94.4381 23.4194 94.4381ZM23.4194 95.2505H17.6752C17.5723 95.2505 17.4882 95.1671 17.4882 95.0635C17.4882 94.9606 17.5723 94.8772 17.6752 94.8772H23.4194C23.5229 94.8772 23.6064 94.9606 23.6064 95.0635C23.6064 95.1671 23.5229 95.2505 23.4194 95.2505ZM20.5095 89.8613H17.6752C17.5723 89.8613 17.4882 89.7779 17.4882 89.6744V88.9618C17.4882 88.4655 17.8585 88.0617 18.3134 88.0617H18.6642C18.719 88.0617 18.7708 88.0861 18.8061 88.1275L19.093 88.4642L19.3786 88.1275C19.4139 88.0861 19.4663 88.0617 19.5211 88.0617H19.8713C20.3262 88.0617 20.6965 88.4655 20.6965 88.9612V89.6744C20.6965 89.7779 20.6131 89.8613 20.5095 89.8613ZM17.8621 89.4874H20.3232V88.9618C20.3232 88.6713 20.1204 88.4356 19.8713 88.4356H19.6076L19.2355 88.8735C19.1612 88.9618 19.0254 88.9618 18.9511 88.8741L18.5777 88.4356H18.3134C18.0643 88.4356 17.8621 88.6713 17.8621 88.9618V89.4874ZM19.0924 86.594C18.8311 86.594 18.6185 86.8065 18.6185 87.0678C18.6185 87.329 18.8311 87.5416 19.0924 87.5416C19.3536 87.5416 19.5662 87.329 19.5662 87.0678C19.5662 86.8065 19.3536 86.594 19.0924 86.594Z" fill="#C0282D"/>
</g>
<rect width="60.1219" height="11.0819" transform="translate(10.9875 116.664)" fill="#151029"/>
<path d="M33.6133 120.331H34.8906C35.377 120.331 35.7471 120.441 36.001 120.662C36.1318 120.777 36.2275 120.918 36.2881 121.084C36.3486 121.248 36.3789 121.433 36.3789 121.64C36.3789 122.07 36.2539 122.395 36.0039 122.616C35.8809 122.725 35.7266 122.808 35.541 122.865C35.3555 122.92 35.1387 122.947 34.8906 122.947H34.2051V124.705H33.6133V120.331ZM34.8906 122.461C35.0371 122.461 35.1631 122.441 35.2686 122.402C35.374 122.363 35.4619 122.31 35.5322 122.244C35.6846 122.101 35.7607 121.899 35.7607 121.637C35.7607 121.378 35.6846 121.175 35.5322 121.031C35.3818 120.888 35.168 120.817 34.8906 120.817H34.2051V122.461H34.8906ZM38.5293 124.79C38.3047 124.79 38.1045 124.754 37.9287 124.681C37.7549 124.607 37.6074 124.497 37.4863 124.35C37.3633 124.198 37.2725 124.014 37.2139 123.799C37.1553 123.583 37.126 123.337 37.126 123.064C37.126 122.509 37.2461 122.084 37.4863 121.787C37.7266 121.492 38.0742 121.344 38.5293 121.344C38.7637 121.344 38.9668 121.382 39.1387 121.459C39.3125 121.533 39.458 121.642 39.5752 121.787C39.8154 122.084 39.9355 122.508 39.9355 123.061C39.9355 123.34 39.9053 123.588 39.8447 123.805C39.7861 124.022 39.6963 124.204 39.5752 124.35C39.458 124.495 39.3115 124.604 39.1357 124.678C38.9619 124.753 38.7598 124.79 38.5293 124.79ZM38.5293 124.333C38.8047 124.333 39.0127 124.225 39.1533 124.01C39.2939 123.797 39.3643 123.483 39.3643 123.067C39.3643 122.651 39.2939 122.336 39.1533 122.121C39.0127 121.908 38.8047 121.801 38.5293 121.801C38.2559 121.801 38.0488 121.908 37.9082 122.121C37.7676 122.336 37.6973 122.651 37.6973 123.067C37.6973 123.483 37.7676 123.797 37.9082 124.01C38.0488 124.225 38.2559 124.333 38.5293 124.333ZM41.2246 121.423H41.7139L41.7666 122.065C41.8584 121.833 41.9971 121.654 42.1826 121.529C42.3662 121.406 42.5859 121.344 42.8418 121.344C42.9746 121.344 43.0996 121.361 43.2168 121.394C43.2734 121.41 43.3301 121.431 43.3867 121.459C43.4434 121.484 43.4971 121.514 43.5479 121.549V122.1C43.4365 122.01 43.3193 121.945 43.1963 121.904C43.0752 121.863 42.9434 121.842 42.8008 121.842C42.4668 121.842 42.2109 121.948 42.0332 122.159C41.8555 122.368 41.7666 122.672 41.7666 123.073V124.705H41.2246V121.423ZM46.3193 124.716C45.917 124.716 45.6318 124.635 45.4639 124.473C45.2979 124.313 45.2148 124.034 45.2148 123.635V121.842H44.3389V121.423H45.2148V120.565L45.7539 120.331V121.423H46.9785V121.842H45.7539V123.635C45.7539 123.876 45.7998 124.045 45.8916 124.142C45.9814 124.238 46.1416 124.286 46.3721 124.286H46.9785V124.716H46.3193ZM48.9355 121.842H48.0596V121.423H48.9355V121.195C48.9355 120.834 49.0186 120.569 49.1846 120.401C49.3486 120.231 49.6055 120.146 49.9551 120.146H50.6025V120.594H49.9902C49.8848 120.594 49.7998 120.605 49.7354 120.627C49.6729 120.646 49.624 120.674 49.5889 120.712C49.5127 120.792 49.4746 120.932 49.4746 121.133V121.423H50.6025V121.842H49.4746V124.705H48.9355V121.842ZM52.9902 124.79C52.7656 124.79 52.5654 124.754 52.3896 124.681C52.2158 124.607 52.0684 124.497 51.9473 124.35C51.8242 124.198 51.7334 124.014 51.6748 123.799C51.6162 123.583 51.5869 123.337 51.5869 123.064C51.5869 122.509 51.707 122.084 51.9473 121.787C52.1875 121.492 52.5352 121.344 52.9902 121.344C53.2246 121.344 53.4277 121.382 53.5996 121.459C53.7734 121.533 53.9189 121.642 54.0361 121.787C54.2764 122.084 54.3965 122.508 54.3965 123.061C54.3965 123.34 54.3662 123.588 54.3057 123.805C54.2471 124.022 54.1572 124.204 54.0361 124.35C53.9189 124.495 53.7725 124.604 53.5967 124.678C53.4229 124.753 53.2207 124.79 52.9902 124.79ZM52.9902 124.333C53.2656 124.333 53.4736 124.225 53.6143 124.01C53.7549 123.797 53.8252 123.483 53.8252 123.067C53.8252 122.651 53.7549 122.336 53.6143 122.121C53.4736 121.908 53.2656 121.801 52.9902 121.801C52.7168 121.801 52.5098 121.908 52.3691 122.121C52.2285 122.336 52.1582 122.651 52.1582 123.067C52.1582 123.483 52.2285 123.797 52.3691 124.01C52.5098 124.225 52.7168 124.333 52.9902 124.333ZM57.2061 124.728C57.0498 124.728 56.9092 124.704 56.7842 124.655C56.6611 124.606 56.5527 124.527 56.459 124.418C56.2812 124.211 56.1924 123.918 56.1924 123.539V120.568H55.3281V120.146H56.7314V123.539C56.7314 123.783 56.7764 123.965 56.8662 124.087C56.9131 124.151 56.9688 124.198 57.0332 124.227C57.0996 124.256 57.1748 124.271 57.2588 124.271H57.8887V124.728H57.2061ZM59.9482 120.829C59.8896 120.829 59.8604 120.799 59.8604 120.741V120.234C59.8604 120.175 59.8896 120.146 59.9482 120.146H60.3701C60.4287 120.146 60.458 120.175 60.458 120.234V120.741C60.458 120.799 60.4287 120.829 60.3701 120.829H59.9482ZM60.9326 124.728C60.7764 124.728 60.6357 124.704 60.5107 124.655C60.3877 124.606 60.2793 124.527 60.1855 124.418C60.0078 124.211 59.9189 123.918 59.9189 123.539V121.845H59.2012V121.423H60.458V123.539C60.458 123.783 60.5029 123.965 60.5928 124.087C60.6396 124.151 60.6953 124.198 60.7598 124.227C60.8262 124.256 60.9014 124.271 60.9854 124.271H61.6152V124.728H60.9326ZM63.8359 124.79C63.6113 124.79 63.4111 124.754 63.2354 124.681C63.0615 124.607 62.9141 124.497 62.793 124.35C62.6699 124.198 62.5791 124.014 62.5205 123.799C62.4619 123.583 62.4326 123.337 62.4326 123.064C62.4326 122.509 62.5527 122.084 62.793 121.787C63.0332 121.492 63.3809 121.344 63.8359 121.344C64.0703 121.344 64.2734 121.382 64.4453 121.459C64.6191 121.533 64.7646 121.642 64.8818 121.787C65.1221 122.084 65.2422 122.508 65.2422 123.061C65.2422 123.34 65.2119 123.588 65.1514 123.805C65.0928 124.022 65.0029 124.204 64.8818 124.35C64.7646 124.495 64.6182 124.604 64.4424 124.678C64.2686 124.753 64.0664 124.79 63.8359 124.79ZM63.8359 124.333C64.1113 124.333 64.3193 124.225 64.46 124.01C64.6006 123.797 64.6709 123.483 64.6709 123.067C64.6709 122.651 64.6006 122.336 64.46 122.121C64.3193 121.908 64.1113 121.801 63.8359 121.801C63.5625 121.801 63.3555 121.908 63.2148 122.121C63.0742 122.336 63.0039 122.651 63.0039 123.067C63.0039 123.483 63.0742 123.797 63.2148 124.01C63.3555 124.225 63.5625 124.333 63.8359 124.333Z" fill="white"/>
<g clip-path="url(#clip2_324_7659)">
<path fill-rule="evenodd" clip-rule="evenodd" d="M17.8266 118.428C17.7981 118.501 17.7823 118.581 17.7823 118.665V119.235H20.0195C20.8026 119.235 21.2808 119.608 21.5974 120.297C21.6397 120.389 21.677 120.485 21.7144 120.581C21.7604 120.698 21.8064 120.816 21.8614 120.926C21.8779 120.959 21.9399 121.084 21.987 121.084H27.1038V118.665C27.1038 118.493 27.0378 118.338 26.9322 118.228C26.846 118.138 26.7334 118.079 26.6088 118.065C26.6055 118.065 26.6021 118.064 26.5988 118.064C26.5841 118.063 26.5694 118.062 26.5545 118.062H18.3317C18.33 118.062 18.3284 118.062 18.3268 118.062C18.1028 118.064 17.9101 118.215 17.8266 118.428ZM18.3317 117.825H26.5545C26.5694 117.825 26.5841 117.826 26.5988 117.827C26.7997 117.838 26.9745 117.929 27.1038 118.065V117.383C27.1038 117.103 26.8329 116.875 26.5007 116.875H17.4733C17.1412 116.875 16.8702 117.103 16.8702 117.383V119.235H17.5456V118.665C17.5456 118.665 17.5456 118.665 17.5456 118.665C17.5456 118.225 17.8778 117.825 18.3317 117.825ZM17.3753 117.762C17.5234 117.589 17.716 117.453 17.944 117.38H17.4733C17.4244 117.38 17.3911 117.396 17.3753 117.408V117.762ZM16.8702 119.472C16.6705 119.472 16.4903 119.558 16.3651 119.695C16.2543 119.817 16.1865 119.979 16.1865 120.155V126.809C16.1865 126.986 16.2543 127.147 16.3651 127.269C16.4887 127.404 16.6657 127.49 16.8622 127.493C16.8649 127.493 16.8676 127.493 16.8702 127.493L27.1038 127.493C27.4804 127.493 27.7875 127.186 27.7875 126.809V122.005C27.7875 121.828 27.7198 121.666 27.6089 121.545C27.4837 121.407 27.3035 121.321 27.1038 121.321H21.987C21.8339 121.321 21.7358 121.205 21.6495 121.032C21.6494 121.032 21.6495 121.032 21.6495 121.032C21.6044 120.941 21.5625 120.835 21.5176 120.721C21.4766 120.617 21.433 120.507 21.3823 120.396C21.1699 119.934 20.8311 119.472 20.0195 119.472H16.8702ZM21.2994 121.434C21.255 121.368 21.2217 121.306 21.1974 121.257C21.1427 121.147 21.0946 121.025 21.0534 120.921L21.0494 120.911C21.0071 120.803 20.9681 120.705 20.9233 120.607C20.8306 120.405 20.7323 120.255 20.6065 120.152C20.4922 120.059 20.3201 119.977 20.0195 119.977H16.8702C16.7726 119.977 16.6916 120.058 16.6916 120.155V126.809C16.6916 126.905 16.7704 126.985 16.8662 126.988H20.3582C20.1706 126.869 19.9931 126.728 19.8295 126.564C18.638 125.373 18.638 123.441 19.8295 122.249C20.2492 121.83 20.7608 121.558 21.2994 121.434ZM23.6158 126.988H27.1038C27.2015 126.988 27.2825 126.907 27.2825 126.809V122.005C27.2825 121.907 27.2015 121.826 27.1038 121.826H23.6157C23.8034 121.945 23.9809 122.086 24.1445 122.249C25.336 123.441 25.336 125.373 24.1445 126.564C23.9809 126.728 23.8035 126.869 23.6158 126.988ZM24.0739 125.866C24.7701 124.873 24.6746 123.494 23.7873 122.606C22.793 121.612 21.181 121.612 20.1867 122.606C19.411 123.382 19.2405 124.534 19.6749 125.475C19.7402 125.616 19.8192 125.753 19.9118 125.883C19.993 125.996 20.0846 126.105 20.1867 126.207C20.1867 126.207 20.1867 126.207 20.1867 126.207C21.144 127.164 22.6741 127.2 23.6741 126.314C23.7126 126.28 23.7504 126.244 23.7873 126.207C23.7874 126.207 23.7873 126.207 23.7873 126.207C23.8807 126.114 23.9653 126.015 24.0411 125.912C24.0411 125.912 24.041 125.912 24.0411 125.912C24.0482 125.902 24.0552 125.892 24.0622 125.883C24.0661 125.877 24.07 125.872 24.0739 125.866ZM21.818 124.836C21.263 124.875 20.719 125.107 20.2947 125.531C20.2924 125.534 20.2901 125.536 20.2878 125.538C20.2222 125.604 20.1611 125.673 20.1048 125.745C20.1785 125.848 20.2614 125.947 20.3541 126.04C21.2258 126.911 22.6206 126.941 23.5274 126.127C23.5588 126.099 23.5897 126.07 23.6199 126.04C23.6199 126.04 23.62 126.04 23.6199 126.04C23.7126 125.947 23.7956 125.848 23.8692 125.745C23.8201 125.683 23.7672 125.622 23.7109 125.563C23.7028 125.555 23.6945 125.547 23.6862 125.538C23.6839 125.536 23.6816 125.534 23.6793 125.531C23.255 125.107 22.7111 124.875 22.1561 124.836C22.0435 124.828 21.9305 124.828 21.818 124.836ZM22.1365 124.329C22.3216 124.299 22.4993 124.213 22.6421 124.07C23.0038 123.708 23.0038 123.121 22.6421 122.76C22.2803 122.398 21.6937 122.398 21.332 122.76C20.9702 123.121 20.9702 123.708 21.332 124.07C21.4747 124.213 21.6525 124.299 21.8376 124.329C21.9365 124.345 22.0375 124.345 22.1365 124.329ZM18.2874 118.73V118.665C18.2874 118.624 18.3024 118.595 18.3169 118.579C18.3239 118.572 18.3294 118.568 18.3314 118.567C18.3317 118.567 18.3319 118.567 18.3321 118.567H26.554C26.5542 118.567 26.5544 118.567 26.5547 118.568C26.5567 118.568 26.5622 118.572 26.5692 118.579C26.5837 118.595 26.5988 118.624 26.5988 118.665V120.579H22.2579C22.2387 120.534 22.2191 120.484 22.1977 120.43C22.1935 120.419 22.1892 120.408 22.1847 120.397C22.1481 120.303 22.1052 120.193 22.0564 120.087C21.8729 119.687 21.6243 119.339 21.2726 119.094C20.9163 118.845 20.4954 118.73 20.0195 118.73H18.2874ZM21.6891 123.117C21.5246 123.281 21.5246 123.548 21.6891 123.713C21.8536 123.877 22.1204 123.877 22.2849 123.713C22.4494 123.548 22.4494 123.281 22.2849 123.117C22.1204 122.952 21.8536 122.952 21.6891 123.117Z" fill="#C0282D"/>
</g>
<rect width="38.1219" height="11.0819" transform="translate(10.9875 148.246)" fill="#151029"/>
<path d="M34.5566 151.913H35.2744L36.6133 156.287H36.001L35.6787 155.147H34.1465L33.8301 156.287H33.2178L34.5566 151.913ZM35.5381 154.672L34.9141 152.434L34.29 154.672H35.5381ZM37.6094 153.005H38.0986L38.1514 153.647C38.2432 153.414 38.3818 153.236 38.5674 153.111C38.751 152.988 38.9707 152.926 39.2266 152.926C39.3594 152.926 39.4844 152.943 39.6016 152.976C39.6582 152.992 39.7148 153.013 39.7715 153.04C39.8281 153.066 39.8818 153.096 39.9326 153.131V153.682C39.8213 153.592 39.7041 153.527 39.5811 153.486C39.46 153.445 39.3281 153.424 39.1855 153.424C38.8516 153.424 38.5957 153.53 38.418 153.741C38.2402 153.95 38.1514 154.254 38.1514 154.655V156.287H37.6094V153.005ZM42.7041 156.298C42.3018 156.298 42.0166 156.217 41.8486 156.055C41.6826 155.895 41.5996 155.616 41.5996 155.217V153.424H40.7236V153.005H41.5996V152.147L42.1387 151.913V153.005H43.3633V153.424H42.1387V155.217C42.1387 155.457 42.1846 155.626 42.2764 155.724C42.3662 155.82 42.5264 155.868 42.7568 155.868H43.3633V156.298H42.7041Z" fill="white"/>
<g clip-path="url(#clip3_324_7659)">
<path fill-rule="evenodd" clip-rule="evenodd" d="M17.8266 150.01C17.7981 150.083 17.7823 150.163 17.7823 150.247V150.817H20.0195C20.8026 150.817 21.2808 151.19 21.5974 151.879C21.6397 151.971 21.677 152.067 21.7144 152.162C21.7604 152.28 21.8064 152.398 21.8614 152.508C21.8779 152.541 21.9399 152.666 21.987 152.666H27.1038V150.247C27.1038 150.075 27.0378 149.92 26.9322 149.81C26.846 149.72 26.7334 149.66 26.6088 149.647C26.6055 149.647 26.6021 149.646 26.5988 149.646C26.5841 149.645 26.5694 149.644 26.5545 149.644H18.3317C18.33 149.644 18.3284 149.644 18.3268 149.644C18.1028 149.646 17.9101 149.797 17.8266 150.01ZM18.3317 149.407H26.5545C26.5694 149.407 26.5841 149.408 26.5988 149.409C26.7997 149.42 26.9745 149.511 27.1038 149.647V148.964C27.1038 148.685 26.8329 148.457 26.5007 148.457H17.4733C17.1412 148.457 16.8702 148.685 16.8702 148.964V150.817H17.5456V150.247C17.5456 150.247 17.5456 150.247 17.5456 150.247C17.5456 149.806 17.8778 149.407 18.3317 149.407ZM17.3753 149.344C17.5234 149.171 17.716 149.035 17.944 148.962H17.4733C17.4244 148.962 17.3911 148.978 17.3753 148.99V149.344ZM16.8702 151.054C16.6705 151.054 16.4903 151.14 16.3651 151.277C16.2543 151.399 16.1865 151.56 16.1865 151.737V158.391C16.1865 158.568 16.2543 158.729 16.3651 158.851C16.4887 158.986 16.6657 159.072 16.8622 159.075C16.8649 159.075 16.8676 159.075 16.8702 159.075L27.1038 159.075C27.4804 159.075 27.7875 158.767 27.7875 158.391V153.586C27.7875 153.41 27.7198 153.248 27.6089 153.126C27.4837 152.989 27.3035 152.903 27.1038 152.903H21.987C21.8339 152.903 21.7358 152.787 21.6495 152.614C21.6494 152.614 21.6495 152.614 21.6495 152.614C21.6044 152.523 21.5625 152.417 21.5176 152.303C21.4766 152.199 21.433 152.089 21.3823 151.978C21.1699 151.516 20.8311 151.054 20.0195 151.054H16.8702ZM21.2994 153.016C21.255 152.95 21.2217 152.888 21.1974 152.839C21.1427 152.729 21.0946 152.607 21.0534 152.503L21.0494 152.493C21.0071 152.385 20.9681 152.287 20.9233 152.189C20.8306 151.987 20.7323 151.837 20.6065 151.734C20.4922 151.641 20.3201 151.559 20.0195 151.559H16.8702C16.7726 151.559 16.6916 151.64 16.6916 151.737V158.391C16.6916 158.487 16.7704 158.567 16.8662 158.569H20.3582C20.1706 158.451 19.9931 158.31 19.8295 158.146C18.638 156.955 18.638 155.023 19.8295 153.831C20.2492 153.411 20.7608 153.14 21.2994 153.016ZM23.6158 158.569H27.1038C27.2015 158.569 27.2825 158.488 27.2825 158.391V153.586C27.2825 153.489 27.2015 153.408 27.1038 153.408H23.6157C23.8034 153.526 23.9809 153.668 24.1445 153.831C25.336 155.023 25.336 156.955 24.1445 158.146C23.9809 158.31 23.8035 158.451 23.6158 158.569ZM24.0739 157.448C24.7701 156.455 24.6746 155.076 23.7873 154.188C22.793 153.194 21.181 153.194 20.1867 154.188C19.411 154.964 19.2405 156.116 19.6749 157.056C19.7402 157.198 19.8192 157.335 19.9118 157.465C19.993 157.578 20.0846 157.687 20.1867 157.789C20.1867 157.789 20.1867 157.789 20.1867 157.789C21.144 158.746 22.6741 158.782 23.6741 157.896C23.7126 157.861 23.7504 157.826 23.7873 157.789C23.7874 157.789 23.7873 157.789 23.7873 157.789C23.8807 157.696 23.9653 157.597 24.0411 157.494C24.0411 157.494 24.041 157.494 24.0411 157.494C24.0482 157.484 24.0552 157.474 24.0622 157.464C24.0661 157.459 24.07 157.453 24.0739 157.448ZM21.818 156.418C21.263 156.457 20.719 156.689 20.2947 157.113C20.2924 157.115 20.2901 157.118 20.2878 157.12C20.2222 157.186 20.1611 157.255 20.1048 157.327C20.1785 157.43 20.2614 157.529 20.3541 157.622C21.2258 158.493 22.6206 158.522 23.5274 157.709C23.5588 157.681 23.5897 157.652 23.6199 157.622C23.6199 157.622 23.62 157.622 23.6199 157.622C23.7126 157.529 23.7956 157.43 23.8692 157.327C23.8201 157.264 23.7672 157.204 23.7109 157.145C23.7028 157.137 23.6945 157.128 23.6862 157.12C23.6839 157.118 23.6816 157.115 23.6793 157.113C23.255 156.689 22.7111 156.457 22.1561 156.418C22.0435 156.41 21.9305 156.41 21.818 156.418ZM22.1365 155.911C22.3216 155.881 22.4993 155.794 22.6421 155.652C23.0038 155.29 23.0038 154.703 22.6421 154.342C22.2803 153.98 21.6937 153.98 21.332 154.342C20.9702 154.703 20.9702 155.29 21.332 155.652C21.4747 155.794 21.6525 155.881 21.8376 155.911C21.9365 155.927 22.0375 155.927 22.1365 155.911ZM18.2874 150.312V150.247C18.2874 150.206 18.3024 150.177 18.3169 150.161C18.3239 150.153 18.3294 150.15 18.3314 150.149C18.3317 150.149 18.3319 150.149 18.3321 150.149H26.554C26.5542 150.149 26.5544 150.149 26.5547 150.149C26.5567 150.15 26.5622 150.153 26.5692 150.161C26.5837 150.177 26.5988 150.206 26.5988 150.247V152.161H22.2579C22.2387 152.115 22.2191 152.066 22.1977 152.012C22.1935 152.001 22.1892 151.99 22.1847 151.978C22.1481 151.885 22.1052 151.775 22.0564 151.668C21.8729 151.269 21.6243 150.921 21.2726 150.676C20.9163 150.427 20.4954 150.312 20.0195 150.312H18.2874ZM21.6891 154.699C21.5246 154.863 21.5246 155.13 21.6891 155.294C21.8536 155.459 22.1204 155.459 22.2849 155.294C22.4494 155.13 22.4494 154.863 22.2849 154.699C22.1204 154.534 21.8536 154.534 21.6891 154.699Z" fill="#C0282D"/>
</g>
<rect width="42.1219" height="11.0819" transform="translate(10.9875 179.827)" fill="#151029"/>
<path d="M33.3613 183.494H34.1523L34.9082 185.721L35.6699 183.494H36.4639V187.868H35.916V184.004L35.1367 186.31H34.6885L33.9062 184.004V187.868H33.3613V183.494ZM38.2568 183.992C38.1982 183.992 38.1689 183.963 38.1689 183.905V183.398C38.1689 183.339 38.1982 183.31 38.2568 183.31H38.6787C38.7373 183.31 38.7666 183.339 38.7666 183.398V183.905C38.7666 183.963 38.7373 183.992 38.6787 183.992H38.2568ZM39.2412 187.892C39.085 187.892 38.9443 187.867 38.8193 187.819C38.6963 187.77 38.5879 187.691 38.4941 187.581C38.3164 187.374 38.2275 187.081 38.2275 186.702V185.009H37.5098V184.587H38.7666V186.702C38.7666 186.947 38.8115 187.129 38.9014 187.25C38.9482 187.315 39.0039 187.362 39.0684 187.391C39.1348 187.42 39.21 187.435 39.2939 187.435H39.9238V187.892H39.2412ZM42.0684 187.953C41.9824 187.953 41.8936 187.949 41.8018 187.939C41.7119 187.931 41.625 187.919 41.541 187.904C41.4648 187.888 41.375 187.866 41.2715 187.839C41.1699 187.812 41.0674 187.782 40.9639 187.748V187.192C41.0889 187.254 41.1953 187.303 41.2832 187.338C41.3711 187.371 41.457 187.4 41.541 187.423C41.6309 187.449 41.7178 187.468 41.8018 187.482C41.8857 187.495 41.9727 187.502 42.0625 187.502C42.2988 187.502 42.4834 187.453 42.6162 187.356C42.6846 187.305 42.7344 187.245 42.7656 187.177C42.7969 187.109 42.8125 187.039 42.8125 186.969C42.8125 186.832 42.7549 186.722 42.6396 186.638C42.5244 186.552 42.3428 186.484 42.0947 186.433L42.0713 186.427L41.8691 186.386C41.7227 186.357 41.5918 186.318 41.4766 186.269C41.3633 186.22 41.2676 186.157 41.1895 186.078C41.0469 185.936 40.9756 185.74 40.9756 185.49C40.9756 185.331 41.002 185.192 41.0547 185.071C41.1094 184.949 41.1895 184.847 41.2949 184.763C41.4062 184.673 41.5391 184.609 41.6934 184.57C41.8477 184.529 42.0205 184.508 42.2119 184.508C42.2959 184.508 42.3799 184.512 42.4639 184.52C42.5479 184.528 42.6309 184.539 42.7129 184.555C42.7871 184.571 42.8643 184.591 42.9443 184.616C43.0264 184.64 43.1084 184.668 43.1904 184.701V185.229C43.0342 185.139 42.8789 185.072 42.7246 185.027C42.6465 185.005 42.5674 184.989 42.4873 184.977C42.4092 184.965 42.3252 184.959 42.2354 184.959C42.1221 184.959 42.0195 184.969 41.9277 184.989C41.8379 185.008 41.7627 185.037 41.7021 185.076C41.5811 185.157 41.5205 185.279 41.5205 185.443C41.5205 185.511 41.5312 185.574 41.5527 185.63C41.5762 185.687 41.6104 185.733 41.6553 185.768C41.7002 185.803 41.7744 185.838 41.8779 185.873C41.9834 185.907 42.1328 185.942 42.3262 185.979L42.543 186.02C42.6836 186.047 42.8037 186.086 42.9033 186.137C43.0029 186.188 43.0859 186.25 43.1523 186.324C43.2891 186.475 43.3574 186.674 43.3574 186.922C43.3574 187.09 43.3271 187.237 43.2666 187.362C43.208 187.485 43.123 187.59 43.0117 187.678C42.8926 187.772 42.7529 187.841 42.5928 187.886C42.4346 187.931 42.2598 187.953 42.0684 187.953ZM46.041 187.953C45.7969 187.953 45.5742 187.915 45.373 187.839C45.1738 187.761 45.0039 187.647 44.8633 187.496C44.7207 187.344 44.6133 187.162 44.541 186.951C44.4707 186.739 44.4355 186.498 44.4355 186.231C44.4355 185.951 44.4727 185.706 44.5469 185.495C44.623 185.284 44.7295 185.107 44.8662 184.962C45.0107 184.81 45.1816 184.697 45.3789 184.622C45.5781 184.546 45.7998 184.508 46.0439 184.508C46.1338 184.508 46.2168 184.513 46.293 184.523C46.3691 184.532 46.4443 184.548 46.5186 184.57C46.667 184.611 46.8184 184.674 46.9727 184.76V185.325C46.9004 185.263 46.8291 185.208 46.7588 185.161C46.6885 185.115 46.6172 185.077 46.5449 185.05C46.3984 184.993 46.2363 184.965 46.0586 184.965C45.7188 184.965 45.458 185.074 45.2764 185.293C45.0947 185.514 45.0039 185.825 45.0039 186.228C45.0039 186.415 45.0244 186.589 45.0654 186.749C45.1084 186.909 45.1787 187.048 45.2764 187.165C45.46 187.386 45.7236 187.496 46.0674 187.496C46.165 187.496 46.2539 187.489 46.334 187.473C46.416 187.457 46.4912 187.436 46.5596 187.408C46.6475 187.375 46.7227 187.337 46.7852 187.294C46.8496 187.249 46.9121 187.199 46.9727 187.142V187.701C46.9062 187.74 46.834 187.777 46.7559 187.81C46.6777 187.843 46.6016 187.87 46.5273 187.892C46.459 187.911 46.3838 187.926 46.3018 187.936C46.2217 187.948 46.1348 187.953 46.041 187.953Z" fill="white"/>
<path d="M20.0827 182.528H26.4006L22.9494 185.231C22.8762 185.288 22.7892 185.316 22.7103 185.324C22.6308 185.316 22.5435 185.288 22.4696 185.231L20.0032 183.299C19.9771 183.278 19.9476 183.262 19.9151 183.252C20.0312 183.089 20.0975 182.891 20.094 182.678C20.0933 182.629 20.089 182.579 20.0827 182.528ZM18.476 180.79C18.4839 180.791 18.497 180.796 18.5254 180.809C18.5816 180.836 18.6709 180.904 18.7583 181C18.9343 181.191 19.1102 181.481 19.2015 181.672C19.2044 181.678 19.2073 181.684 19.21 181.69C19.4692 182.134 19.581 182.473 19.5843 182.686C19.588 182.899 19.5305 182.992 19.3488 183.096L18.88 183.365C18.5747 183.54 18.4305 183.855 18.3946 184.148C18.3587 184.441 18.4116 184.726 18.5424 184.951L19.6994 186.94C19.8304 187.165 20.0541 187.353 20.3277 187.469C20.6015 187.585 20.9478 187.618 21.2531 187.443L21.7218 187.174C21.9034 187.07 22.0132 187.068 22.1975 187.177C22.3825 187.287 22.6226 187.551 22.8807 187.995C22.8843 188.002 22.8878 188.007 22.892 188.014C23.0129 188.187 23.1777 188.483 23.2571 188.73C23.2966 188.853 23.3121 188.963 23.3071 189.025C23.3016 189.087 23.3002 189.08 23.2839 189.09L22.9273 189.294C22.0313 189.681 21.2101 189.594 20.4762 189.214C19.741 188.833 19.1019 188.145 18.6563 187.336C18.6549 187.335 18.6542 187.333 18.653 187.332L17.677 185.654C17.6754 185.653 17.6747 185.651 17.6734 185.649C17.1905 184.862 16.9092 183.968 16.9445 183.146C16.9797 182.325 17.3138 181.577 18.1006 181.001L18.4574 180.797C18.4656 180.793 18.4683 180.789 18.476 180.79ZM18.4796 180.29C18.3852 180.289 18.2889 180.308 18.2023 180.358L17.825 180.575C17.8166 180.58 17.8087 180.585 17.8011 180.589C16.8934 181.252 16.4755 182.174 16.4347 183.125C16.3939 184.075 16.712 185.056 17.2375 185.913L18.2102 187.585L18.208 187.58C18.6935 188.46 19.3893 189.223 20.2396 189.663C21.0903 190.104 22.1037 190.206 23.1359 189.757C23.1444 189.753 23.153 189.749 23.1607 189.744L23.5385 189.528C23.7132 189.429 23.801 189.236 23.8153 189.067C23.83 188.9 23.7956 188.736 23.7435 188.575C23.6414 188.257 23.4633 187.947 23.3163 187.735C23.0384 187.258 22.7701 186.927 22.46 186.742C22.1476 186.557 21.7725 186.559 21.4665 186.735L20.9977 187.004C20.8593 187.084 20.6974 187.074 20.527 187.003C20.3574 186.931 20.2004 186.787 20.1421 186.686L18.9851 184.698C18.9266 184.596 18.8788 184.39 18.9015 184.208C18.9233 184.026 18.9972 183.884 19.1358 183.804L19.5912 183.543C19.6031 183.604 19.6375 183.659 19.6875 183.696L22.154 185.629C22.3144 185.755 22.5045 185.825 22.6959 185.836C22.7056 185.836 22.7155 185.836 22.7254 185.836C22.9169 185.825 23.106 185.754 23.2666 185.629L26.6636 182.967V187.364C26.6636 187.431 26.5871 187.519 26.4371 187.519H24.0853C23.9438 187.519 23.8291 187.632 23.8291 187.773C23.8291 187.913 23.9439 188.027 24.0853 188.026H26.4371C26.8215 188.026 27.1748 187.749 27.1748 187.364V182.683C27.1748 182.298 26.8215 182.021 26.4371 182.021H19.9427C19.8708 181.842 19.7759 181.652 19.6563 181.445C19.5443 181.213 19.3628 180.906 19.1356 180.659C19.0208 180.534 18.897 180.423 18.7423 180.351V180.352C18.6654 180.315 18.5739 180.292 18.4796 180.29Z" fill="#C0282D"/>
<path fill-rule="evenodd" clip-rule="evenodd" d="M32.4875 215.034C32.4875 215.49 32.8569 215.859 33.3125 215.859H42.6625C43.1182 215.859 43.4875 215.49 43.4875 215.034C43.4875 214.579 43.1182 214.209 42.6625 214.209H33.3125C32.8569 214.209 32.4875 214.579 32.4875 215.034Z" fill="#C0282D"/>
<path fill-rule="evenodd" clip-rule="evenodd" d="M33.8625 212.384C33.8625 212.84 34.2319 213.209 34.6875 213.209H41.2875C41.7432 213.209 42.1125 212.84 42.1125 212.384C42.1125 211.929 41.7432 211.559 41.2875 211.559H34.6875C34.2319 211.559 33.8625 211.929 33.8625 212.384Z" fill="#C0282D"/>
<path fill-rule="evenodd" clip-rule="evenodd" d="M35.2375 209.734C35.2375 210.19 35.6069 210.559 36.0625 210.559H39.9125C40.3682 210.559 40.7375 210.19 40.7375 209.734C40.7375 209.279 40.3682 208.909 39.9125 208.909H36.0625C35.6069 208.909 35.2375 209.279 35.2375 209.734Z" fill="#C0282D"/>
</g>
<defs>
<filter id="filter0_d_324_7659" x="0.987549" y="0" width="74" height="235.859" filterUnits="userSpaceOnUse" color-interpolation-filters="sRGB">
<feFlood flood-opacity="0" result="BackgroundImageFix"/>
<feColorMatrix in="SourceAlpha" type="matrix" values="0 0 0 0 0 0 0 0 0 0 0 0 0 0 0 0 0 0 127 0" result="hardAlpha"/>
<feOffset/>
<feGaussianBlur stdDeviation="1"/>
<feComposite in2="hardAlpha" operator="out"/>
<feColorMatrix type="matrix" values="0 0 0 0 0.752941 0 0 0 0 0.156863 0 0 0 0 0.176471 0 0 0 1 0"/>
<feBlend mode="normal" in2="BackgroundImageFix" result="effect1_dropShadow_324_7659"/>
<feBlend mode="normal" in="SourceGraphic" in2="effect1_dropShadow_324_7659" result="shape"/>
</filter>
<clipPath id="clip0_324_7659">
<rect width="22" height="19.2414" fill="white" transform="translate(27 18)"/>
</clipPath>
<clipPath id="clip1_324_7659">
<rect width="11" height="11" fill="white" transform="translate(16.4266 85.041)"/>
</clipPath>
<clipPath id="clip2_324_7659">
<rect width="12.1219" height="12.1219" fill="white" transform="translate(15.926 116.123)"/>
</clipPath>
<clipPath id="clip3_324_7659">
<rect width="12.1219" height="12.1219" fill="white" transform="translate(15.926 147.705)"/>
</clipPath>
</defs>
</svg>
