<svg width="1280" height="616" viewBox="0 0 1280 616" fill="none" xmlns="http://www.w3.org/2000/svg">
<path d="M82.3385 156.006H77.2924L77.2924 -167.115H231.508V6.80736C231.508 89.0944 164.677 156.006 82.2154 156.006H82.3385Z" fill="#151029"/>
<path d="M77.7846 612.582V615.042H-83.3231V538.167H3.44617C44.4308 538.167 77.7846 571.5 77.7846 612.459V612.582Z" fill="#C0282D"/>
<path d="M19.6924 463.875C30.3642 463.875 39.0154 455.229 39.0154 444.564C39.0154 433.899 30.3642 425.253 19.6924 425.253C9.02051 425.253 0.369278 433.899 0.369278 444.564C0.369278 455.229 9.02051 463.875 19.6924 463.875Z" fill="#151029"/>
<path d="M58.0923 425.007C68.7642 425.007 77.4154 416.361 77.4154 405.696C77.4154 395.031 68.7642 386.385 58.0923 386.385C47.4205 386.385 38.7692 395.031 38.7692 405.696C38.7692 416.361 47.4205 425.007 58.0923 425.007Z" fill="#151029"/>
<path d="M19.6924 425.007C30.3642 425.007 39.0154 416.361 39.0154 405.696C39.0154 395.031 30.3642 386.385 19.6924 386.385C9.02051 386.385 0.369278 395.031 0.369278 405.696C0.369278 416.361 9.02051 425.007 19.6924 425.007Z" fill="#151029"/>
<path d="M58.0924 78.7624C68.7642 78.7624 77.4154 70.1165 77.4154 59.4514C77.4154 48.7862 68.7642 40.1404 58.0924 40.1404C47.4205 40.1404 38.7693 48.7862 38.7693 59.4514C38.7693 70.1165 47.4205 78.7624 58.0924 78.7624Z" fill="#C0282D"/>
<path d="M19.6924 78.7624C30.3642 78.7624 39.0154 70.1165 39.0154 59.4514C39.0154 48.7862 30.3642 40.1404 19.6924 40.1404C9.02052 40.1404 0.36928 48.7862 0.36928 59.4514C0.36928 70.1165 9.02052 78.7624 19.6924 78.7624Z" fill="#2DA9E1"/>
<path d="M58.0924 40.0173C68.7642 40.0173 77.4154 31.3714 77.4154 20.7063C77.4154 10.0411 68.7642 1.39526 58.0924 1.39526C47.4205 1.39526 38.7693 10.0411 38.7693 20.7063C38.7693 31.3714 47.4205 40.0173 58.0924 40.0173Z" fill="#151029"/>
<path d="M19.6924 40.0173C30.3642 40.0173 39.0154 31.3714 39.0154 20.7063C39.0154 10.0411 30.3642 1.39526 19.6924 1.39526C9.02051 1.39526 0.369278 10.0411 0.369278 20.7063C0.369278 31.3714 9.02051 40.0173 19.6924 40.0173Z" fill="#151029"/>
<path d="M19.6924 40.0173C30.3642 40.0173 39.0154 31.3714 39.0154 20.7063C39.0154 10.0411 30.3642 1.39526 19.6924 1.39526C9.02051 1.39526 0.369278 10.0411 0.369278 20.7063C0.369278 31.3714 9.02051 40.0173 19.6924 40.0173Z" fill="#858585" fill-opacity="0.12"/>
<path d="M212.062 310.125C222.733 310.125 231.385 301.479 231.385 290.814C231.385 280.149 222.733 271.503 212.062 271.503C201.39 271.503 192.738 280.149 192.738 290.814C192.738 301.479 201.39 310.125 212.062 310.125Z" fill="#C0282D"/>
<path d="M173.662 310.125C184.333 310.125 192.985 301.479 192.985 290.814C192.985 280.149 184.333 271.503 173.662 271.503C162.99 271.503 154.338 280.149 154.338 290.814C154.338 301.479 162.99 310.125 173.662 310.125Z" fill="#2DA9E1"/>
<path d="M212.062 271.38C222.733 271.38 231.385 262.734 231.385 252.069C231.385 241.404 222.733 232.758 212.062 232.758C201.39 232.758 192.738 241.404 192.738 252.069C192.738 262.734 201.39 271.38 212.062 271.38Z" fill="#151029"/>
<path d="M173.662 271.38C184.333 271.38 192.985 262.734 192.985 252.069C192.985 241.404 184.333 232.758 173.662 232.758C162.99 232.758 154.338 241.404 154.338 252.069C154.338 262.734 162.99 271.38 173.662 271.38Z" fill="#151029"/>
<path d="M173.662 271.38C184.333 271.38 192.985 262.734 192.985 252.069C192.985 241.404 184.333 232.758 173.662 232.758C162.99 232.758 154.338 241.404 154.338 252.069C154.338 262.734 162.99 271.38 173.662 271.38Z" fill="#858585" fill-opacity="0.12"/>
<path d="M289.6 614.796C300.272 614.796 308.923 606.15 308.923 595.485C308.923 584.82 300.272 576.174 289.6 576.174C278.928 576.174 270.277 584.82 270.277 595.485C270.277 606.15 278.928 614.796 289.6 614.796Z" fill="#151029"/>
<path d="M251.2 614.796C261.872 614.796 270.523 606.15 270.523 595.485C270.523 584.82 261.872 576.174 251.2 576.174C240.528 576.174 231.877 584.82 231.877 595.485C231.877 606.15 240.528 614.796 251.2 614.796Z" fill="#151029"/>
<path d="M289.6 575.928C300.272 575.928 308.923 567.282 308.923 556.617C308.923 545.952 300.272 537.306 289.6 537.306C278.928 537.306 270.277 545.952 270.277 556.617C270.277 567.282 278.928 575.928 289.6 575.928Z" fill="#C0282D"/>
<path d="M251.2 575.928C261.872 575.928 270.523 567.282 270.523 556.617C270.523 545.952 261.872 537.306 251.2 537.306C240.528 537.306 231.877 545.952 231.877 556.617C231.877 567.282 240.528 575.928 251.2 575.928Z" fill="#151029"/>
<path d="M251.2 575.928C261.872 575.928 270.523 567.282 270.523 556.617C270.523 545.952 261.872 537.306 251.2 537.306C240.528 537.306 231.877 545.952 231.877 556.617C231.877 567.282 240.528 575.928 251.2 575.928Z" fill="#858585" fill-opacity="0.12"/>
<path d="M58.3385 309.51C69.0103 309.51 77.6615 300.864 77.6615 290.199C77.6615 279.534 69.0103 270.888 58.3385 270.888C47.6666 270.888 39.0154 279.534 39.0154 290.199C39.0154 300.864 47.6666 309.51 58.3385 309.51Z" fill="#2DA9E1"/>
<path d="M58.3385 270.765C69.0103 270.765 77.6615 262.119 77.6615 251.454C77.6615 240.789 69.0103 232.143 58.3385 232.143C47.6666 232.143 39.0154 240.789 39.0154 251.454C39.0154 262.119 47.6666 270.765 58.3385 270.765Z" fill="#151029"/>
<path d="M20.0616 270.765C30.7334 270.765 39.3846 262.119 39.3846 251.454C39.3846 240.789 30.7334 232.143 20.0616 232.143C9.38971 232.143 0.73848 240.789 0.73848 251.454C0.73848 262.119 9.38971 270.765 20.0616 270.765Z" fill="#C0282D"/>
<path d="M57.1077 489.951C60.3705 489.951 63.0154 487.308 63.0154 484.047C63.0154 480.787 60.3705 478.143 57.1077 478.143C53.845 478.143 51.2 480.787 51.2 484.047C51.2 487.308 53.845 489.951 57.1077 489.951Z" fill="#151029"/>
<path d="M57.1077 489.951C60.3705 489.951 63.0154 487.308 63.0154 484.047C63.0154 480.787 60.3705 478.143 57.1077 478.143C53.845 478.143 51.2 480.787 51.2 484.047C51.2 487.308 53.845 489.951 57.1077 489.951Z" fill="#858585" fill-opacity="0.12"/>
<path d="M0.492317 386.262H115.692L115.692 309.387H0.492317L0.492317 386.262Z" fill="#C0282D"/>
<path d="M11.5692 320.58C18.5846 313.692 28.1846 309.387 38.7692 309.387C60.0616 309.387 77.2923 326.607 77.2923 347.886C77.2923 369.165 72.9846 368.058 66.0923 375.069L11.5692 320.58Z" fill="#C0282D"/>
<path d="M115.692 386.262C136.764 386.262 153.846 369.191 153.846 348.132C153.846 327.074 136.764 310.002 115.692 310.002C94.6206 310.002 77.5385 327.074 77.5385 348.132C77.5385 369.191 94.6206 386.262 115.692 386.262Z" fill="#C0282D"/>
<path d="M0.369278 155.76V155.637H77.2924V232.512L0.369278 155.76Z" fill="#151029"/>
<path d="M0.24617 79.1313H41.1077C61.0462 79.1313 77.1692 95.2444 77.1692 115.17V156.006L0.24617 79.1313Z" fill="#151029"/>
<path d="M0.24617 79.1313H41.1077C61.0462 79.1313 77.1692 95.2444 77.1692 115.17V156.006L0.24617 79.1313Z" fill="#858585" fill-opacity="0.12"/>
<path d="M0.369278 232.512V155.76L77.2924 232.512H0.369278Z" fill="#151029"/>
<path d="M0.369278 232.512V155.76L77.2924 232.512H0.369278Z" fill="#858585" fill-opacity="0.12"/>
<path d="M77.4154 309.51V232.635L154.339 309.51H77.4154Z" fill="#2DA9E1"/>
<path d="M77.4154 232.635H154.339V309.51L77.4154 232.635Z" fill="#C0282D"/>
<path d="M102.646 360.555H127.262V335.955H102.646V360.555Z" fill="#2DA9E1"/>
<path d="M38.6462 216.768C51.2213 216.768 61.4154 206.581 61.4154 194.013C61.4154 181.446 51.2213 171.258 38.6462 171.258C26.0711 171.258 15.877 181.446 15.877 194.013C15.877 206.581 26.0711 216.768 38.6462 216.768Z" fill="#151029"/>
<path d="M117.169 216.768C129.744 216.768 139.938 206.581 139.938 194.013C139.938 181.446 129.744 171.258 117.169 171.258C104.594 171.258 94.4 181.446 94.4 194.013C94.4 206.581 104.594 216.768 117.169 216.768Z" fill="#151029"/>
<path d="M113.477 526.728C126.052 526.728 136.246 516.54 136.246 503.973C136.246 491.406 126.052 481.218 113.477 481.218C100.902 481.218 90.7077 491.406 90.7077 503.973C90.7077 516.54 100.902 526.728 113.477 526.728Z" fill="#151029"/>
<path d="M77.2923 463.137H154.215V386.262H77.2923L77.2923 463.137Z" fill="#2DA9E1"/>
<path d="M93.4154 424.638C93.4154 418.488 95.877 412.83 99.9385 408.771L132.062 440.874C128 444.933 122.338 447.393 116.185 447.393C103.631 447.393 93.4154 437.184 93.4154 424.638Z" fill="#2DA9E1"/>
<path d="M189.046 196.104C189.046 192.906 191.631 190.2 194.954 190.2C198.277 190.2 200.862 192.783 200.862 196.104C200.862 199.425 198.277 202.008 194.954 202.008C191.631 202.008 189.046 199.425 189.046 196.104Z" fill="#151029"/>
<path d="M189.046 196.104C189.046 192.906 191.631 190.2 194.954 190.2C198.277 190.2 200.862 192.783 200.862 196.104C200.862 199.425 198.277 202.008 194.954 202.008C191.631 202.008 189.046 199.425 189.046 196.104Z" fill="#858585" fill-opacity="0.12"/>
<path d="M305.901 127.579C309.488 106.828 295.563 87.0999 274.798 83.5155C254.034 79.9311 234.294 93.8477 230.707 114.599C227.12 135.35 241.046 155.078 261.81 158.663C282.574 162.247 302.315 148.331 305.901 127.579Z" fill="#C0282D"/>
<path d="M233.231 462.522H155.323V615.903C198.4 615.903 233.231 581.094 233.231 538.044V462.522Z" fill="#151029"/>
<path d="M1116.55 467.934H1121.6V791.055H967.385V617.133C967.385 534.846 1034.22 467.934 1116.68 467.934H1116.55Z" fill="#151029"/>
<path d="M1202.22 155.76H1279.14V78.8853L1202.22 78.8853V155.76Z" fill="#2DA9E1"/>
<path d="M1202.22 617.379H1279.14V540.504H1202.22V617.379Z" fill="#2DA9E1"/>
<path d="M1158.23 458.273C1165.78 450.732 1165.78 438.505 1158.23 430.963C1150.69 423.422 1138.45 423.422 1130.91 430.963C1123.36 438.505 1123.36 450.732 1130.91 458.273C1138.45 465.815 1150.69 465.815 1158.23 458.273Z" fill="#151029"/>
<path d="M1183.02 425.13C1193.69 425.13 1202.34 416.484 1202.34 405.819C1202.34 395.154 1193.69 386.508 1183.02 386.508C1172.34 386.508 1163.69 395.154 1163.69 405.819C1163.69 416.484 1172.34 425.13 1183.02 425.13Z" fill="#151029"/>
<path d="M1144.62 425.13C1155.29 425.13 1163.94 416.484 1163.94 405.819C1163.94 395.154 1155.29 386.508 1144.62 386.508C1133.94 386.508 1125.29 395.154 1125.29 405.819C1125.29 416.484 1133.94 425.13 1144.62 425.13Z" fill="#151029"/>
<path d="M1021.54 425.13C1032.21 425.13 1040.86 416.484 1040.86 405.819C1040.86 395.154 1032.21 386.508 1021.54 386.508C1010.87 386.508 1002.22 395.154 1002.22 405.819C1002.22 416.484 1010.87 425.13 1021.54 425.13Z" fill="#C0282D"/>
<path d="M1183.02 78.3932C1193.69 78.3932 1202.34 69.7474 1202.34 59.0822C1202.34 48.4171 1193.69 39.7712 1183.02 39.7712C1172.34 39.7712 1163.69 48.4171 1163.69 59.0822C1163.69 69.7474 1172.34 78.3932 1183.02 78.3932Z" fill="#C0282D"/>
<path d="M1144.62 78.3932C1155.29 78.3932 1163.94 69.7474 1163.94 59.0822C1163.94 48.4171 1155.29 39.7712 1144.62 39.7712C1133.94 39.7712 1125.29 48.4171 1125.29 59.0822C1125.29 69.7474 1133.94 78.3932 1144.62 78.3932Z" fill="#2DA9E1"/>
<path d="M1201.37 24.2295C1203.63 13.8052 1197 3.52755 1186.57 1.27373C1176.14 -0.980081 1165.85 5.64342 1163.6 16.0677C1161.34 26.492 1167.97 36.7697 1178.4 39.0235C1188.83 41.2773 1199.12 34.6538 1201.37 24.2295Z" fill="#151029"/>
<path d="M1163.61 24.7217C1166.05 14.3383 1159.6 3.94661 1149.21 1.51121C1138.82 -0.924188 1128.42 5.51894 1125.99 15.9023C1123.55 26.2857 1130 36.6774 1140.39 39.1128C1150.78 41.5482 1161.17 35.1051 1163.61 24.7217Z" fill="#151029"/>
<path d="M1196.95 303.853C1204.5 296.312 1204.5 284.085 1196.95 276.543C1189.41 269.002 1177.17 269.002 1169.63 276.543C1162.08 284.084 1162.08 296.312 1169.63 303.853C1177.17 311.394 1189.41 311.394 1196.95 303.853Z" fill="#2DA9E1"/>
<path d="M1183.26 270.642C1193.93 270.642 1202.58 261.996 1202.58 251.331C1202.58 240.666 1193.93 232.02 1183.26 232.02C1172.59 232.02 1163.94 240.666 1163.94 251.331C1163.94 261.996 1172.59 270.642 1183.26 270.642Z" fill="#151029"/>
<path d="M1144.86 270.642C1155.53 270.642 1164.18 261.996 1164.18 251.331C1164.18 240.666 1155.53 232.02 1144.86 232.02C1134.19 232.02 1125.54 240.666 1125.54 251.331C1125.54 261.996 1134.19 270.642 1144.86 270.642Z" fill="#C0282D"/>
<path d="M1240.49 128.208C1246.54 128.208 1251.45 123.307 1251.45 117.261C1251.45 111.215 1246.54 106.314 1240.49 106.314C1234.44 106.314 1229.54 111.215 1229.54 117.261C1229.54 123.307 1234.44 128.208 1240.49 128.208Z" fill="#151029"/>
<path d="M1240.49 128.208C1246.54 128.208 1251.45 123.307 1251.45 117.261C1251.45 111.215 1246.54 106.314 1240.49 106.314C1234.44 106.314 1229.54 111.215 1229.54 117.261C1229.54 123.307 1234.44 128.208 1240.49 128.208Z" fill="#858585" fill-opacity="0.12"/>
<path d="M1138.71 362.892C1138.71 359.694 1141.29 356.988 1144.62 356.988C1147.94 356.988 1150.52 359.571 1150.52 362.892C1150.52 366.213 1147.94 368.796 1144.62 368.796C1141.29 368.796 1138.71 366.213 1138.71 362.892Z" fill="#151029"/>
<path d="M1138.71 362.892C1138.71 359.694 1141.29 356.988 1144.62 356.988C1147.94 356.988 1150.52 359.571 1150.52 362.892C1150.52 366.213 1147.94 368.796 1144.62 368.796C1141.29 368.796 1138.71 366.213 1138.71 362.892Z" fill="#858585" fill-opacity="0.12"/>
<path d="M1080 46.7821C1083.26 46.7821 1085.91 44.1388 1085.91 40.8781C1085.91 37.6174 1083.26 34.9741 1080 34.9741C1076.74 34.9741 1074.09 37.6174 1074.09 40.8781C1074.09 44.1388 1076.74 46.7821 1080 46.7821Z" fill="#151029"/>
<path d="M1080 46.7821C1083.26 46.7821 1085.91 44.1388 1085.91 40.8781C1085.91 37.6174 1083.26 34.9741 1080 34.9741C1076.74 34.9741 1074.09 37.6174 1074.09 40.8781C1074.09 44.1388 1076.74 46.7821 1080 46.7821Z" fill="#858585" fill-opacity="0.12"/>
<path d="M1240.62 386.262C1261.69 386.262 1278.77 369.191 1278.77 348.132C1278.77 327.074 1261.69 310.002 1240.62 310.002C1219.54 310.002 1202.46 327.074 1202.46 348.132C1202.46 369.191 1219.54 386.262 1240.62 386.262Z" fill="#C0282D"/>
<path d="M1202.09 155.514V155.391H1279.02V232.389L1202.09 155.514Z" fill="#151029"/>
<path d="M1046.4 387.246H1123.32V464.121L1046.4 387.246Z" fill="#2DA9E1"/>
<path d="M1124.06 464.736H1200.98V541.611L1124.06 464.736Z" fill="#2DA9E1"/>
<path d="M1125.17 78.7622H1202.09V155.637L1125.17 78.7622Z" fill="#C0282D"/>
<path d="M1125.29 232.389V155.514L1202.22 232.389H1125.29Z" fill="#151029"/>
<path d="M1125.29 232.389V155.514L1202.22 232.389H1125.29Z" fill="#858585" fill-opacity="0.12"/>
<path d="M1202.46 232.512H1279.38V309.51L1202.46 232.512Z" fill="#2DA9E1"/>
<path d="M1227.57 360.555H1252.31V335.832H1227.57V360.555Z" fill="#151029"/>
<path d="M1227.57 360.555H1252.31V335.832H1227.57V360.555Z" fill="#858585" fill-opacity="0.12"/>
<path d="M1179.72 210.037C1188.62 201.151 1188.62 186.743 1179.72 177.857C1170.83 168.971 1156.41 168.971 1147.52 177.857C1138.63 186.743 1138.63 201.151 1147.52 210.037C1156.41 218.924 1170.83 218.924 1179.72 210.037Z" fill="#151029"/>
<path d="M1163.57 601.758C1176.14 601.758 1186.34 591.571 1186.34 579.003C1186.34 566.436 1176.14 556.248 1163.57 556.248C1150.99 556.248 1140.8 566.436 1140.8 579.003C1140.8 591.571 1150.99 601.758 1163.57 601.758Z" fill="#151029"/>
<path d="M1258.35 209.934C1267.24 201.048 1267.24 186.64 1258.35 177.753C1249.46 168.867 1235.04 168.867 1226.15 177.754C1217.26 186.64 1217.26 201.048 1226.15 209.934C1235.04 218.82 1249.46 218.82 1258.35 209.934Z" fill="#C0282D"/>
<path d="M1262.36 42.7654C1264.39 30.3633 1255.98 18.6631 1243.57 16.6322C1231.16 14.6013 1219.45 23.0087 1217.42 35.4108C1215.39 47.8128 1223.8 59.5131 1236.21 61.544C1248.62 63.5749 1260.33 55.1674 1262.36 42.7654Z" fill="#151029"/>
<path d="M1262.36 42.7654C1264.39 30.3633 1255.98 18.6631 1243.57 16.6322C1231.16 14.6013 1219.45 23.0087 1217.42 35.4108C1215.39 47.8128 1223.8 59.5131 1236.21 61.544C1248.62 63.5749 1260.33 55.1674 1262.36 42.7654Z" fill="#858585" fill-opacity="0.12"/>
<path d="M1202.34 463.26H1279.26V386.385H1202.34V463.26Z" fill="#151029"/>
<path d="M1202.34 463.26H1279.26V386.385H1202.34V463.26Z" fill="#858585" fill-opacity="0.12"/>
<path d="M1224.86 408.894C1229.05 404.712 1234.71 402.006 1241.11 402.006C1253.66 402.006 1263.88 412.215 1263.88 424.761C1263.88 437.307 1261.29 436.938 1256.98 440.997L1224.86 408.894Z" fill="#C0282D"/>
<path d="M1218.34 424.761C1218.34 418.611 1220.8 412.953 1224.86 408.894L1256.98 440.997C1252.92 445.056 1247.26 447.516 1241.11 447.516C1228.55 447.516 1218.34 437.307 1218.34 424.761Z" fill="#2DA9E1"/>
<path d="M1044.55 387.738H1123.69V231.774C1080 231.774 1044.55 267.198 1044.55 310.863V387.615V387.738Z" fill="#151029"/>
</svg>
