<svg width="101" height="101" viewBox="0 0 101 101" fill="none" xmlns="http://www.w3.org/2000/svg">
<rect y="0.90332" width="100.1" height="100.1" rx="16" fill="#151029"/>
<path d="M26.6 74.3033C26.6 67.8033 31.8 62.6033 38.3 62.6033H50V74.3033C50 80.8033 44.8 86.0033 38.3 86.0033C31.8 86.0033 26.6 80.8033 26.6 74.3033Z" fill="#00CE66"/>
<path d="M50 15.7034V39.1034H61.7C68.2 39.1034 73.4 33.9034 73.4 27.4034C73.4 20.9034 68.2 15.7034 61.7 15.7034H50Z" fill="#FF6718"/>
<path d="M61.6 62.6034C68.1 62.6034 73.3 57.4034 73.3 50.9034C73.3 44.4034 68.1 39.2034 61.6 39.2034C55.1 39.2034 49.9 44.4034 49.9 50.9034C49.9 57.4034 55.1 62.6034 61.6 62.6034Z" fill="#00B7FF"/>
<path d="M26.6 27.5033C26.6 34.0033 31.8 39.2034 38.3 39.2034H50V15.8033H38.3C31.8 15.8033 26.6 21.0033 26.6 27.5033Z" fill="#FF0026"/>
<path d="M26.6 50.9034C26.6 57.4034 31.8 62.6034 38.3 62.6034H50V39.2034H38.3C31.8 39.2034 26.6 44.4034 26.6 50.9034Z" fill="#9145FF"/>
</svg>
