<svg width="101" height="101" viewBox="0 0 101 101" fill="none" xmlns="http://www.w3.org/2000/svg">
<rect x="0.0999756" y="0.90332" width="100.1" height="100.1" rx="8" fill="#151029"/>
<path fill-rule="evenodd" clip-rule="evenodd" d="M50.3873 20.9659C33.1167 20.9659 19.0999 34.9827 19.0999 52.2533C19.0999 66.0824 28.0481 77.7839 40.5005 81.9138C42.0649 82.1641 42.6281 81.2255 42.6281 80.412C42.6281 79.5985 42.6281 77.2207 42.6281 74.5925C34.7436 76.0318 32.7412 72.6527 32.1155 70.9006C31.74 70.0246 30.2382 67.2087 28.9242 66.4578C27.7978 65.8946 26.2335 64.4554 28.9242 64.3928C31.3646 64.3928 33.1793 66.6455 33.7424 67.5842C36.5583 72.3398 41.0637 70.9632 42.8784 70.1497C43.1287 68.0847 43.9421 66.7707 44.8808 65.9572C37.935 65.2063 30.6137 62.453 30.6137 50.5012C30.6137 47.1222 31.8026 44.3063 33.805 42.1162C33.4921 41.3653 32.3658 38.1114 34.1179 33.8563C34.1179 33.8563 36.746 33.0428 42.7532 37.0476C45.2562 36.3593 47.9469 35.9839 50.5751 35.9839C53.2032 35.9839 55.8939 36.3593 58.3969 37.0476C64.4041 32.9803 66.9697 33.8563 66.9697 33.8563C68.6592 38.174 67.5954 41.3653 67.2825 42.1162C69.2849 44.3063 70.4739 47.0596 70.4739 50.5012C70.4739 62.5156 63.1526 65.1437 56.2068 65.9572C57.3331 66.9584 58.3344 68.8356 58.3344 71.7767C58.3344 75.9692 58.3344 79.3482 58.3344 80.3494C58.3344 81.3506 58.8975 82.1641 60.4619 81.8512C72.7892 77.7213 81.7999 65.9572 81.7999 52.1907C81.7999 34.9201 67.7832 20.9033 50.5125 20.9033L50.3873 20.9659Z" fill="white"/>
</svg>
