<?xml version="1.0" encoding="UTF-8"?>
<svg id="Layer_1" xmlns="http://www.w3.org/2000/svg" xmlns:xlink="http://www.w3.org/1999/xlink" version="1.1" viewBox="0 0 317 201.5">
  <!-- Generator: Adobe Illustrator 29.4.0, SVG Export Plug-In . SVG Version: 2.1.0 Build 152)  -->
  <defs>
    <style>
      .st0 {
        fill: none;
      }

      .st1 {
        fill-rule: evenodd;
      }

      .st2 {
        fill: #fff;
      }

      .st3 {
        fill: #2da9e1;
      }

      .st4 {
        fill: #422b71;
      }

      .st5 {
        fill: #c0282d;
      }

      .st6 {
        clip-path: url(#clippath);
      }
    </style>
    <clipPath id="clippath">
      <rect class="st0" x="10" y="6.4" width="297" height="188.8"/>
    </clipPath>
  </defs>
  <g class="st6">
    <g>
      <path class="st4" d="M124.5,95c-1.8,0-8.1-.5-12.3-6-3.2-4.2-3.3-9-3.2-10.8l.3-1.8c1.6-6,2.4-12.2,2.7-18.4.1-4,0-8.1-.5-12.2v-.8c0,0,0-.8,0-.8.2-3.1,1.6-5.9,3.8-8.1,2.2-2.2,5.2-3.4,8.3-3.5h.4s.5,0,.5,0c1.6.1,4.1.3,7.7.5h1.6c0,0,.2-1.4.2-1.4,2.2-13.1,13.5-23.5,25.7-23.5s11.9,1.7,17.8,9.6c2.9,4,4.9,8.7,5.6,13.8l.2,1.6h1.6c1.5-.2,5.4-.4,7.7-.6h.7c3.2,0,6.2,1.2,8.5,3.5,3.2,3.1,3.7,6.8,3.8,8.3v.7s0,.7,0,.7c-.4,4-.6,8.1-.5,12.2.2,6.2,1.1,12.4,2.7,18.4l.2.8v.8c.4,4.5-1.2,8.9-4.2,12.1-3,3.2-7,4.9-11.3,4.9h-67.9,0ZM119.2,45c.5,4.4.6,8.8.5,13.2-.2,6.7-1.2,13.5-2.9,20v.2s0,.3,0,.3c0,.8,0,3.4,1.6,5.6,2.1,2.8,5.5,2.9,6.2,3h67.9c2.2,0,4.1-.8,5.6-2.5,1.6-1.7,2.4-3.9,2.2-6.2v-.2s0-.2,0-.2c-1.7-6.6-2.7-13.3-2.9-20-.1-4.4,0-8.8.5-13.2h0c0-.1,0-.3,0-.3,0-.5-.2-1.9-1.4-3-.8-.8-1.9-1.3-3-1.3h-.3c-3.1.2-9.7.6-9.8.6h-49.3s-.1,0-.1,0c-1.6,0-7-.4-9.9-.6h0s0,0,0,0c-1.2,0-2.3.5-3.1,1.3-.8.8-1.3,1.9-1.4,3v.2s0,.2,0,.2h0ZM159.3,15.2c-4.6,0-9.3,2.5-13.1,7.1-2,2.4-3.8,5.4-5.2,8.9l-.8,2h36.6s-.7-2-.7-2c-1.4-3.7-3-6.8-4.9-9.3-3.3-4.4-7.4-6.8-11.8-6.8h0Z"/>
      <path class="st3" d="M149.2,71.1c-4.1,0-7.4-3.3-7.4-7.3s3.3-7.3,7.4-7.3h9.8v14.6h-9.8Z"/>
      <path class="st5" d="M158.2,71.1v-14.6h9.8c4.1,0,7.4,3.3,7.4,7.3s-3.3,7.3-7.4,7.3h-9.8Z"/>
      <path class="st1" d="M175,63.8c0-3.8-3.1-6.9-7-6.9h0s-8.7,0-8.7,0v13.9h8.7c3.9,0,7-3.1,7-6.9ZM159.3,71.5h8.7c4.3,0,7.7-3.4,7.7-7.7s-3.5-7.7-7.7-7.7h0s-8.7,0-8.7,0h0s-10.2,0-10.2,0c-4.3,0-7.7,3.4-7.7,7.7s3.5,7.7,7.7,7.7h10.2ZM157.9,56.9v13.9h-8.7c-3.9,0-7-3.1-7-6.9s3.1-6.9,7-6.9h8.7Z"/>
      <path class="st2" d="M44.9,156.9c0,.4-.1.7-.4,1-.3.3-.6.4-1,.4h-4.2c-.4,0-.7-.1-1-.4-.3-.3-.4-.6-.4-1v-4.3c0-.4-.1-.7-.4-1-.3-.3-.6-.4-1-.4h-18.2c-.4,0-.7.1-1,.4-.3.3-.4.6-.4,1v4.3c0,.4-.1.7-.4,1-.3.3-.6.4-1,.4h-4.2c-.4,0-.7-.1-1-.4-.3-.3-.4-.6-.4-1v-16.3c0-2.5.5-4.8,1.4-6.9.9-2.2,2.2-4,3.7-5.6,1.6-1.6,3.4-2.9,5.5-3.8,2.1-.9,4.4-1.4,6.8-1.4s4.7.5,6.8,1.4c2.1.9,4,2.2,5.6,3.8,1.6,1.6,2.8,3.5,3.7,5.6.9,2.2,1.4,4.5,1.4,6.9v16.3ZM37.9,140.7c0-1.6-.3-3-.8-4.4-.5-1.4-1.3-2.6-2.2-3.6-.9-1-2.1-1.9-3.3-2.5-1.3-.6-2.6-.9-4.1-.9s-2.8.3-4.1.9c-1.3.6-2.4,1.4-3.3,2.4-.9,1-1.7,2.2-2.2,3.6-.5,1.4-.8,2.8-.8,4.4v3c0,.4.1.7.4,1,.3.3.6.4,1,.4h18.2c.4,0,.7-.1,1-.4.3-.3.4-.6.4-1v-2.8h0Z"/>
      <path class="st2" d="M79.3,143.7c-.3.3-.6.4-1,.4h-14.3c-.4,0-.7-.1-1-.4-.3-.3-.4-.6-.4-1v-3.4c0-.4.1-.7.4-1,.3-.3.6-.4,1-.4h14.3c.4,0,.7.1,1,.4.3.3.4.6.4,1v3.4c0,.4-.1.7-.4,1Z"/>
      <path class="st2" d="M133.3,129.5c-.3.3-.6.4-1,.4h-22.9c-1,0-1.8.4-2.5,1.2-.7.8-1,1.7-1,2.8s.3,2.1,1,2.8c.7.8,1.5,1.2,2.5,1.2h16c.4,0,.7.1,1,.4.3.3.4.6.4,1v3.4c0,.4-.1.7-.4,1-.3.3-.6.4-1,.4h-15.3c-1,0-1.8.4-2.5,1.2-.7.8-1,1.7-1,2.8v8.8c0,.4-.1.7-.4,1-.3.3-.6.4-1,.4h-4.2c-.4,0-.7-.1-1-.4s-.4-.6-.4-1v-8.8c0-1.3.2-2.6.7-3.7.5-1.1,1.1-2.2,1.9-3.1-1-.9-1.8-2-2.4-3.3-.6-1.3-.9-2.7-.9-4.1s.3-2.7.8-4c.5-1.3,1.3-2.3,2.2-3.3.9-.9,2.1-1.7,3.3-2.2,1.3-.5,2.6-.8,4.1-.8h22.9c.4,0,.7.1,1,.4.3.3.4.6.4,1v3.4c0,.4-.1.7-.4,1h0Z"/>
      <path class="st2" d="M174.6,148c-.9,2.2-2.2,4.1-3.7,5.7-1.6,1.6-3.4,2.9-5.6,3.8-2.1.9-4.4,1.4-6.8,1.4s-4.7-.5-6.8-1.4c-2.1-.9-3.9-2.2-5.5-3.8s-2.8-3.5-3.7-5.7c-.9-2.2-1.4-4.5-1.4-7v-16c0-.4.1-.7.4-1s.6-.4,1-.4h4.2c.4,0,.7.1,1,.4.3.3.4.6.4,1v16c0,1.6.3,3,.8,4.4.5,1.4,1.3,2.6,2.2,3.6.9,1,2.1,1.9,3.3,2.5,1.3.6,2.6.9,4.1.9s2.8-.3,4.1-.9c1.3-.6,2.4-1.4,3.3-2.5.9-1,1.7-2.3,2.2-3.6.5-1.4.8-2.8.8-4.4v-16c0-.2,0-.3.2-.5.1-.2.3-.3.5-.5.2-.1.5-.3.7-.4h4.2c.4,0,.7.1,1,.4.3.3.4.6.4,1v16c0,2.5-.5,4.8-1.4,7h0Z"/>
      <path class="st2" d="M219.2,157.8c-.3.3-.6.4-1,.4h-4.7c-.4,0-.7-.2-1-.5l-20.8-23.8v22.9c0,.4-.1.7-.4,1-.3.3-.6.4-1,.4h-4.2c-.4,0-.7-.1-1-.4-.3-.3-.4-.6-.4-1v-31.8c0-.4.1-.7.4-1,.3-.3.6-.4,1-.4h5.2c.4,0,.8.2,1.1.5l20.3,23.3v-22.4c0-.4.1-.7.4-1,.3-.3.6-.4,1-.4h4.2c.4,0,.7.1,1,.4.3.3.4.6.4,1v31.8c0,.4-.1.7-.4,1h0Z"/>
      <path class="st2" d="M263.5,157.8c-.3.3-.6.4-1,.4h-18.4c-2.4,0-4.7-.5-6.8-1.4-2.1-.9-3.9-2.1-5.5-3.7-1.6-1.6-2.8-3.4-3.7-5.5-.9-2.1-1.4-4.3-1.4-6.7s.5-4.7,1.4-6.8c.9-2.1,2.2-3.9,3.7-5.5,1.6-1.6,3.4-2.8,5.5-3.7,2.1-.9,4.4-1.4,6.8-1.4h11.5c.4,0,.7.1,1,.4.3.3.4.6.4,1v3.4c0,.4-.1.7-.4,1-.3.3-.6.4-1,.4h-11.5c-1.4,0-2.8.3-4.1.9-1.3.6-2.4,1.4-3.3,2.4-.9,1-1.7,2.2-2.2,3.5-.5,1.3-.8,2.8-.8,4.3s.3,3,.8,4.3c.5,1.3,1.3,2.5,2.2,3.5.9,1,2.1,1.8,3.3,2.4,1.3.6,2.6.9,4.1.9h11.5c.4,0,.7-.1,1-.4.3-.3.4-.6.4-1v-5.2c0-.4-.1-.7-.4-1-.3-.3-.6-.4-1-.4h-1.3c-.4,0-.7-.1-1-.4-.3-.3-.4-.6-.4-1v-3.4c0-.4.1-.7.4-1,.3-.3.6-.4,1-.4h8.2c.4,0,.7.1,1,.4.3.3.4.6.4,1v17.6c0,.4-.1.7-.4,1h0Z"/>
      <path class="st2" d="M306.6,157.8c-.3.3-.6.4-1,.4h-32.1c-.4,0-.7-.1-1-.4-.3-.3-.4-.6-.4-1v-3.4c0-.4.1-.7.4-1,.3-.3.6-.4,1-.4h11.2c.4,0,.7-.1,1-.4.3-.3.4-.6.4-1v-19.4c0-.4-.1-.7-.4-1-.3-.3-.6-.4-1-.4h-11.2c-.4,0-.7-.1-1-.4-.3-.3-.4-.6-.4-1v-3.4c0-.4.1-.7.4-1s.6-.4,1-.4h32.1c.4,0,.7.1,1,.4.3.3.4.6.4,1v3.4c0,.4-.1.7-.4,1-.3.3-.6.4-1,.4h-11.2c-.4,0-.7.1-1,.4-.3.3-.4.6-.4,1v19.4c0,.4.1.7.4,1,.3.3.6.4,1,.4h11.2c.4,0,.7.1,1,.4.3.3.4.6.4,1v3.4c0,.4-.1.7-.4,1Z"/>
      <g>
        <path class="st2" d="M64.6,192.5c-1.3-1.7-2.1-4.1-2.1-7.5s.7-5.8,2.1-7.5c1.4-1.7,3.4-2.6,6-2.6s1.6.1,2.4.3c.8.2,1.5.5,2.2,1v4.3c-.5-.7-1.2-1.2-1.9-1.6-.7-.4-1.5-.5-2.3-.5-1.5,0-2.6.5-3.3,1.6-.7,1.1-1.1,2.8-1.1,5s.4,3.8,1.1,5c.7,1.1,1.7,1.7,3.1,1.7s.7,0,1-.1c.4,0,.5-.2.7-.3v-3.7h-2.7v-3.2h6.1v8.9c-.7.6-1.6,1.1-2.5,1.4-.9.3-1.8.5-2.9.5-2.5,0-4.5-.9-5.9-2.6h0Z"/>
        <path class="st2" d="M79,175.2h5.6c2.5,0,4.4.4,5.5,1.3,1.1.9,1.7,2.4,1.7,4.3s-.3,2.5-1,3.3c-.6.8-1.5,1.3-2.8,1.4.4,0,.8.3,1,.5.3.3.6.8,1,1.7l3.6,7h-4.3l-2.4-4.9-.3-.6c-.7-1.5-1.5-2.2-2.5-2.2h-1.2v7.7h-3.9v-19.5ZM84.7,183.8c1.1,0,1.8-.2,2.3-.6.4-.4.7-1,.7-2s-.2-1.6-.7-2c-.5-.4-1.2-.6-2.3-.6h-1.8v5.3h1.8Z"/>
        <path class="st2" d="M96.4,192.6c-1.2-1.7-1.8-4.2-1.8-7.6s.6-5.8,1.8-7.6c1.2-1.8,3-2.6,5.2-2.6s4,.9,5.2,2.6c1.2,1.7,1.7,4.2,1.7,7.6s-.6,5.8-1.7,7.6c-1.1,1.7-2.8,2.6-5.2,2.6s-4.1-.9-5.2-2.6h0ZM103.8,190.1c.5-1,.7-2.7.7-5.1s-.2-4-.7-5.1c-.5-1.1-1.2-1.6-2.2-1.6s-1.7.5-2.2,1.6c-.5,1-.7,2.7-.7,5.1s.2,4.1.7,5.1c.5,1.1,1.2,1.6,2.2,1.6s1.7-.5,2.2-1.6Z"/>
        <path class="st2" d="M109.7,175.2h3.4l1.4,14.3,1.7-9.3h3.2l2,9.3,1.1-14.3h3.4l-2.3,19.5h-3.6l-2.2-10.3-2.1,10.3h-3.6l-2.4-19.5Z"/>
        <path class="st2" d="M142.3,175.2h3.4l1.4,14.3,1.7-9.3h3.2l2,9.3,1.1-14.3h3.4l-2.3,19.5h-3.6l-2.2-10.3-2.1,10.3h-3.6l-2.4-19.5Z"/>
        <path class="st2" d="M160.8,191.4h3.9v-12.7h-3.9v-3.4h11.7v3.4h-3.9v12.7h3.9v3.4h-11.7v-3.4Z"/>
        <path class="st2" d="M181,178.6h-5v-3.4h13.9v3.4h-5v16.2h-3.9v-16.2h0Z"/>
        <path class="st2" d="M192.9,175.2h3.9v7.4h4.9v-7.4h3.9v19.5h-3.9v-8.7h-4.9v8.7h-3.9v-19.5Z"/>
        <path class="st2" d="M226.6,193.3c-1.1-1.2-1.6-3.1-1.6-5.8v-12.3h3.9v13.3c0,1,.3,1.8.8,2.3.5.6,1.2.8,2.1.8s1.6-.3,2.1-.8c.5-.5.8-1.3.8-2.3v-13.3h3.9v12.3c0,2.7-.5,4.6-1.6,5.8-1.1,1.2-2.8,1.8-5.1,1.8s-4.1-.6-5.1-1.8Z"/>
        <path class="st2" d="M244.5,194.8c-1-.2-2-.6-2.8-1v-4c1.1.8,2,1.3,3,1.6,1,.4,1.9.5,2.8.5s1.7-.2,2.3-.7c.5-.4.8-1,.8-1.8s-.2-1.1-.5-1.5c-.4-.5-.9-.8-1.5-1l-1.9-.7c-2-.8-3.3-1.5-4-2.3-.7-.8-1-1.9-1-3.3s.6-3.2,1.7-4.2c1.1-1,2.7-1.5,4.7-1.5s1.9.1,2.7.3c.8.2,1.8.5,2.7.9v3.8c-.8-.6-1.7-1-2.5-1.3-.9-.3-1.7-.5-2.6-.5s-1.7.2-2.2.6c-.5.4-.8.9-.8,1.6s.2,1,.6,1.3c.4.4,1,.7,2.3,1.2l1.7.6c1.6.6,2.8,1.3,3.5,2.3.8,1,1.1,2.2,1.1,3.7s-.6,3.4-1.8,4.3c-1.2,1-2.9,1.5-5.2,1.5s-2,0-3-.3h0Z"/>
      </g>
    </g>
  </g>
</svg>