<svg width="101" height="101" viewBox="0 0 101 101" fill="none" xmlns="http://www.w3.org/2000/svg">
<rect y="0.90332" width="100.1" height="100.1" rx="16" fill="#151029"/>
<path d="M79.6286 42.8744H73.3524V36.5982C73.3524 35.4684 72.4109 34.527 71.2812 34.527H39.8999V26.1796C39.8999 22.7276 37.0756 19.9033 33.6237 19.9033C30.1717 19.9033 27.3474 22.7276 27.3474 26.1796V34.527H21.0712C19.9414 34.527 19 35.4684 19 36.5982V72.1845C19 73.3143 19.9414 74.2557 21.0712 74.2557H27.3474V80.532C27.3474 81.6617 28.2888 82.6031 29.4186 82.6031H79.6286C80.7584 82.6031 81.6998 81.6617 81.6998 80.532V44.9456C81.6998 43.8159 80.7584 42.8744 79.6286 42.8744ZM31.4897 26.1168C31.4897 24.9871 32.4312 24.0456 33.5609 24.0456C34.6907 24.0456 35.6321 24.9871 35.6321 26.1168V34.4642H31.427V26.1168H31.4897ZM23.1423 38.6693H27.3474V44.9456C27.3474 46.0753 28.2888 47.0168 29.4186 47.0168H35.6948V42.8117H31.4897V38.6066H69.1473V69.9878H23.1423V38.6066V38.6693ZM77.5575 78.398H31.5525V74.1929H71.2812C72.4109 74.1929 73.3524 73.2515 73.3524 72.1218V47.0168H77.5575V78.398Z" fill="white"/>
<path d="M29.4186 61.7032H62.871V65.9083H29.4186V61.7032Z" fill="white"/>
<path d="M56.5947 53.293H62.871V57.4981H56.5947V53.293Z" fill="white"/>
<path d="M29.4186 53.293H52.4525V57.4981H29.4186V53.293Z" fill="white"/>
</svg>
