<svg width="25" height="25" viewBox="0 0 25 25" fill="none" xmlns="http://www.w3.org/2000/svg">
<path d="M16.6 12.6C16.6 12.9 16.4 13.1 16.1 13.1C15.8 13.1 15.6 12.9 15.6 12.6C15.6 12.3 15.8 12.1 16.1 12.1C16.4 12.1 16.6 12.3 16.6 12.6Z" fill="#C0282D"/>
<path d="M12.2 12.6C12.2 12.9 12 13.1 11.7 13.1C11.4 13.1 11.2 12.9 11.2 12.6C11.2 12.3 11.4 12.1 11.7 12.1C12 12.1 12.2 12.3 12.2 12.6Z" fill="#C0282D"/>
<path d="M23.2 8.7C23.2 8.4 23 8.2 22.7 8.2C22.4 8.2 22.2 8.4 22.2 8.7C22.2 9.4 21.9 10 21.4 10.4C21.3 10.4 21.2 10.6 21.2 10.8C21.2 11 21.2 11.1 21.4 11.2C21.6 11.4 21.7 11.7 21.7 12C21.7 12.5 21.4 12.9 21 13C20.6 13.2 20.1 13 19.8 12.7C19.5 12.4 19.4 11.9 19.6 11.5C19.6 11.4 19.6 11.2 19.6 11.1C19.6 11 19.4 10.8 19.3 10.8C18.8 10.6 18.3 10.2 18.1 9.7C18.1 9.5 17.9 9.4 17.7 9.4C17.5 9.4 17.4 9.4 17.2 9.5C16.9 9.8 16.4 9.9 16 9.8C15.6 9.8 15.2 9.5 14.9 9.2C14.9 9.1 14.7 9 14.5 9C14.3 9 14.2 9 14.1 9.1C13.7 9.5 13.2 9.7 12.7 9.8C12.4 9.8 12.2 10.1 12.3 10.5C12.3 10.8 12.6 11 13 10.9C13.5 10.8 14.1 10.6 14.5 10.3C15.3 11 16.5 11.2 17.5 10.7C17.8 11.1 18.1 11.4 18.6 11.6C18.6 11.7 18.6 11.9 18.6 12C18.6 12.5 18.8 13 19.1 13.4C18.9 15.9 16.9 17.8 14.4 17.9C11.9 18 9.70003 16.3 9.30003 13.8C9.90003 13.4 10.3 12.7 10.3 11.9C10.3 11.6 10.3 11.3 10.1 11.1C10.4 10.8 10.7 10.5 10.9 10.1C11 9.8 10.9 9.5 10.7 9.4C10.4 9.3 10.1 9.4 10 9.6C9.80003 10 9.50003 10.3 9.10003 10.5C9.00003 10.5 8.90003 10.7 8.80003 10.9C8.80003 11.1 8.80003 11.2 8.90003 11.3C9.20003 11.7 9.20003 12.2 8.90003 12.6C8.60003 13 8.10003 13.2 7.70003 13C7.20003 12.9 6.90003 12.4 6.90003 11.9C6.90003 11.7 6.90003 11.5 7.00003 11.4C7.00003 11.3 7.00003 11.1 7.00003 11C7.00003 10.9 6.80003 10.7 6.70003 10.7C5.90003 10.4 5.30003 9.6 5.20003 8.7C5.20003 7.8 5.50003 6.9 6.20003 6.4C6.40003 6.2 6.50003 6 6.40003 5.7C6.40003 5.5 6.30003 5.3 6.30003 5.1C6.30003 4.6 6.50003 4.2 6.90003 4C7.30003 3.7 7.70003 3.7 8.20003 3.9C8.50003 4 8.80003 3.9 8.90003 3.6C9.40003 2.6 10.2 1.9 11.3 1.7C12.4 1.5 13.4 1.7 14.3 2.3C14.5 2.5 14.8 2.4 15 2.3C15.8 1.6 17 1.4 18 1.9C19 2.3 19.6 3.3 19.6 4.4C19.6 4.6 19.6 4.7 19.8 4.8C19.9 4.9 20.1 4.9 20.3 4.9C20.5 4.9 20.8 4.9 21 5.1C21.2 5.3 21.3 5.5 21.3 5.7C21.3 5.8 21.3 6 21.2 6.1C21 6.4 21.2 6.7 21.4 6.9C21.6 7.1 22 6.9 22.2 6.7C22.4 6.4 22.5 6.1 22.5 5.7C22.5 4.7 21.8 3.9 20.8 3.8C20.6 2.5 19.7 1.4 18.5 0.799996C17.3 0.299996 15.9 0.399996 14.8 1.2C13.7 0.499996 12.5 0.299996 11.3 0.599996C10.1 0.899996 9.00003 1.6 8.40003 2.7C8.30003 2.7 8.10003 2.7 8.00003 2.7C6.60003 2.7 5.50003 3.8 5.50003 5.2C5.50003 5.4 5.50003 5.6 5.50003 5.8C4.70003 6.6 4.20003 7.7 4.30003 8.8C4.40003 9.9 5.00003 10.9 6.00003 11.5C6.00003 11.7 6.00003 11.8 6.00003 12C6.00003 13.2 7.00003 14.2 8.20003 14.2H8.30003C8.60003 15.8 9.60003 17.2 10.9 18.1V20.2C11.2 21.8 12.6 22.9 14.2 22.9C15.8 22.9 17.2 21.8 17.4 20.2V18.1C18.9 17.2 19.8 15.7 20.1 14C20.3 14 20.5 14.1 20.7 14.1C21.5 14.1 22.2 13.7 22.6 13C23 12.3 23 11.5 22.6 10.8C23.1 10.2 23.4 9.4 23.4 8.6L23.2 8.7ZM13.9 21.9C12.7 21.9 11.8 21 11.7 19.8C11.7 19.8 11.7 19.8 11.7 19.7V18.7C12.4 19 13.1 19.1 13.9 19.1C14.7 19.1 15.4 19 16.1 18.7V19.7C16.1 20.9 15.1 21.8 13.9 21.8V21.9Z" fill="#C0282D"/>
<path d="M3.70005 18.2C4.00005 18.7 4.50005 19.1 5.00005 19.4L6.00005 19.9L11.2 24.3C11.4 24.5 11.7 24.6 12 24.6C12.4 24.6 12.7 24.5 13 24.3C13.5 23.8 13.5 23.1 13 22.5L8.60005 17.3L8.20005 16.5C7.50005 15.1 6.00005 14.3 4.40005 14.5L2.30005 14.8C2.10005 14.8 1.90005 15 1.80005 15.2C1.80005 15.4 1.80005 15.6 1.80005 15.8L3.60005 18.2H3.70005ZM12.1 23.3L7.40005 19.3L7.80005 18.9L8.20005 18.5L12.2 23.2L12.1 23.3ZM4.70005 15.6C5.70005 15.5 6.70005 16 7.20005 16.9L7.40005 17.4L6.30005 18.6L5.60005 18.3C5.20005 18.1 4.90005 17.9 4.70005 17.5L3.50005 15.9L4.60005 15.7L4.70005 15.6Z" fill="#C0282D"/>
</svg>
