<svg width="25" height="26" viewBox="0 0 25 26" fill="none" xmlns="http://www.w3.org/2000/svg">
<g clip-path="url(#clip0_254_7414)">
<path fill-rule="evenodd" clip-rule="evenodd" d="M4.40929 5.52903C4.3523 5.67463 4.32071 5.83485 4.32071 6.00291V7.14246H8.79506C10.3613 7.14246 11.3177 7.88929 11.9509 9.26739C12.0355 9.45139 12.1102 9.64263 12.1848 9.83361C12.2769 10.0692 12.3688 10.3044 12.4788 10.5252C12.5118 10.5915 12.6359 10.8407 12.7302 10.8407H22.9638V6.00296C22.9638 5.6593 22.8317 5.34842 22.6204 5.12835C22.448 4.94877 22.2229 4.82967 21.9737 4.80261C21.967 4.80188 21.9603 4.80123 21.9536 4.80063C21.9244 4.79805 21.8949 4.79674 21.865 4.79674H5.41944C5.41616 4.79674 5.41289 4.79671 5.40961 4.79674C4.96174 4.80109 4.57636 5.10221 4.40929 5.52903ZM5.41944 4.32323H21.865C21.8948 4.32323 21.9244 4.32409 21.9536 4.32578C22.3555 4.34907 22.705 4.52988 22.9638 4.80261V3.43762C22.9638 2.87845 22.4219 2.42232 21.7576 2.42232H3.70278C3.03844 2.42232 2.49656 2.87845 2.49656 3.43762V7.14251H3.84725V6.00296C3.84725 6.00294 3.84725 6.00298 3.84725 6.00296C3.84727 5.12163 4.51179 4.32323 5.41944 4.32323ZM3.50671 4.19739C3.80283 3.85134 4.18809 3.57905 4.64407 3.43247H3.70278C3.60496 3.43247 3.5384 3.4645 3.50671 3.48858V4.19739ZM2.49656 7.61597C2.09715 7.61597 1.73679 7.78875 1.4864 8.06337C1.26465 8.30658 1.12915 8.62967 1.12915 8.98338V22.2905C1.12915 22.6442 1.26465 22.9673 1.4864 23.2105C1.73344 23.4814 2.08752 23.6532 2.48056 23.6578C2.48588 23.6578 2.49121 23.6579 2.49656 23.6579L22.9638 23.6578C23.7169 23.6578 24.3312 23.0435 24.3312 22.2904V12.6816C24.3312 12.3279 24.1957 12.0048 23.9739 11.7616C23.7235 11.4869 23.3632 11.3142 22.9638 11.3142H12.7302C12.4239 11.3142 12.2277 11.0831 12.055 10.7364C12.055 10.7363 12.055 10.7364 12.055 10.7364C11.9649 10.5554 11.881 10.3427 11.7913 10.1152C11.7092 9.90688 11.6222 9.68598 11.5207 9.46507C11.0959 8.54052 10.4184 7.61597 8.79506 7.61597H2.49656ZM11.355 11.5399C11.2662 11.4092 11.1995 11.2846 11.1508 11.1867C11.0415 10.9674 10.9453 10.7233 10.863 10.5146L10.8549 10.4942C10.7702 10.2794 10.6923 10.0818 10.6028 9.88683C10.4174 9.48335 10.2208 9.18198 9.9691 8.97684C9.74047 8.79049 9.3964 8.62613 8.79506 8.62613H2.49656C2.30133 8.62613 2.13931 8.78815 2.13931 8.98338V22.2905C2.13931 22.483 2.29686 22.6432 2.48848 22.6476H9.47244C9.09722 22.4103 8.74225 22.1281 8.41516 21.801C6.03207 19.4179 6.03207 15.5542 8.41516 13.1711C9.25454 12.3317 10.2776 11.788 11.355 11.5399ZM15.9878 22.6476H22.9638C23.159 22.6476 23.321 22.4856 23.321 22.2904V12.6816C23.321 12.4863 23.159 12.3243 22.9638 12.3243H15.9875C16.3628 12.5617 16.7179 12.8439 17.0451 13.1711C19.4282 15.5542 19.4282 19.4179 17.0451 21.801C16.718 22.1281 16.363 22.4103 15.9878 22.6476ZM16.9039 20.4046C18.2963 18.4182 18.1053 15.6599 16.3308 13.8854C14.3422 11.8968 11.1181 11.8968 9.12945 13.8854C7.57819 15.4367 7.23703 17.7398 8.10597 19.6217C8.23657 19.9046 8.39451 20.1779 8.57978 20.4378C8.74204 20.6653 8.92526 20.8826 9.12945 21.0867C9.12943 21.0867 9.12946 21.0868 9.12945 21.0867C11.0442 23.0014 14.1044 23.0726 16.1042 21.3001C16.1814 21.2317 16.2569 21.1606 16.3308 21.0867C16.3308 21.0868 16.3308 21.0867 16.3308 21.0867C16.5174 20.9001 16.6866 20.7025 16.8382 20.4962C16.8382 20.4962 16.8382 20.4961 16.8382 20.4962C16.8524 20.4768 16.8666 20.4573 16.8805 20.4377C16.8884 20.4267 16.8962 20.4156 16.9039 20.4046ZM12.3921 18.3449C11.2821 18.423 10.1942 18.8864 9.34556 19.735C9.34095 19.7396 9.33635 19.7442 9.33176 19.7488C9.20042 19.8812 9.0784 20.0194 8.96576 20.1626C9.11302 20.3691 9.27898 20.5665 9.46436 20.7518C11.2076 22.4951 13.9974 22.5536 15.8108 20.9273C15.8738 20.8708 15.9355 20.8124 15.996 20.7519C15.9959 20.752 15.996 20.7519 15.996 20.7519C16.1813 20.5666 16.3473 20.3692 16.4946 20.1626C16.3963 20.0377 16.2905 19.9162 16.1779 19.7993C16.1616 19.7824 16.1451 19.7655 16.1285 19.7488C16.1239 19.7442 16.1194 19.7396 16.1148 19.735C15.2662 18.8864 14.1782 18.423 13.0682 18.3449C12.8431 18.3291 12.6172 18.3291 12.3921 18.3449ZM13.029 17.3305C13.3993 17.2704 13.7547 17.0975 14.0402 16.812C14.7638 16.0885 14.7638 14.9154 14.0402 14.1919C13.3167 13.4683 12.1436 13.4683 11.4201 14.1919C10.6965 14.9154 10.6965 16.0885 11.4201 16.812C11.7055 17.0975 12.061 17.2704 12.4313 17.3305C12.6291 17.3627 12.8312 17.3627 13.029 17.3305ZM5.33087 6.13231V6.00291C5.33087 5.92142 5.36099 5.86269 5.38993 5.83091C5.40395 5.81553 5.41495 5.80932 5.41893 5.80746C5.41947 5.80721 5.4199 5.80703 5.42024 5.80689H21.8641C21.8645 5.80703 21.865 5.80723 21.8656 5.80751C21.8695 5.80937 21.8805 5.81557 21.8946 5.83096C21.9235 5.86274 21.9536 5.92147 21.9536 6.00296V9.83052H13.2718C13.2334 9.73957 13.1943 9.64106 13.1516 9.5321C13.1431 9.51044 13.1344 9.48825 13.1256 9.46558C13.0523 9.27798 12.9665 9.05826 12.8688 8.84566C12.502 8.04728 12.0046 7.35115 11.3012 6.85994C10.5887 6.36238 9.74681 6.13231 8.79506 6.13231H5.33087ZM12.1343 14.9061C11.8053 15.2352 11.8053 15.7687 12.1343 16.0977C12.4634 16.4268 12.9969 16.4268 13.3259 16.0977C13.655 15.7687 13.655 15.2352 13.3259 14.9061C12.9969 14.5771 12.4634 14.5771 12.1343 14.9061Z" fill="#C0282D"/>
</g>
<defs>
<clipPath id="clip0_254_7414">
<rect width="24.2438" height="24.2438" fill="white" transform="translate(0.608276 0.918213)"/>
</clipPath>
</defs>
</svg>
