<svg width="25" height="24" viewBox="0 0 25 24" fill="none" xmlns="http://www.w3.org/2000/svg">
<g clip-path="url(#clip0_254_7390)">
<path fill-rule="evenodd" clip-rule="evenodd" d="M6.69704 6.66608C5.76281 6.66608 5.00276 5.90603 5.00276 4.97181C5.00276 4.03758 5.76281 3.27753 6.69704 3.27753C7.63127 3.27753 8.39253 4.03758 8.39253 4.97181C8.39253 5.90603 7.63127 6.66608 6.69704 6.66608ZM17.412 22.9182H1.80179C1.59473 22.9182 1.42786 22.7513 1.42786 22.5443V2.05341C1.42786 1.84635 1.59473 1.67948 1.80179 1.67948H13.5947V1.29215C13.5947 1.08508 13.7616 0.918213 13.9687 0.918213H22.9297C23.1367 0.918213 23.3036 1.08508 23.3036 1.29215V9.80859C23.3036 10.0144 23.1367 10.1825 22.9297 10.1825H17.786V22.5443C17.786 22.7513 17.6191 22.9182 17.412 22.9182ZM14.3414 2.0522V2.05341V9.43466H17.3426V5.55037C17.3426 5.3433 17.5095 5.17643 17.7165 5.17643H19.1818C19.3889 5.17643 19.5557 5.3433 19.5557 5.55037V9.43466H22.557V1.66486H14.3414V2.0522ZM2.17572 22.1716H17.0393V10.1825H13.9687C13.7665 10.1825 13.5947 10.0205 13.5947 9.80859V2.42735H2.17572V22.1716ZM14.8505 13.3384H4.3633C4.15745 13.3384 3.99058 13.1716 3.99058 12.9645V11.5735C3.99058 11.3677 4.15745 11.2008 4.3633 11.2008H14.8505C15.0564 11.2008 15.2244 11.3677 15.2244 11.5735V12.9645C15.2244 13.1716 15.0564 13.3384 14.8505 13.3384ZM4.73724 12.5918H14.4766V11.9474H4.73724V12.5918ZM12.898 14.8366H6.31702C6.10995 14.8366 5.94308 14.6697 5.94308 14.4627C5.94308 14.2568 6.10995 14.09 6.31702 14.09H12.898C13.1039 14.09 13.2707 14.2568 13.2707 14.4627C13.2707 14.6697 13.1039 14.8366 12.898 14.8366ZM18.0892 9.43466H18.8091V5.9243H18.0892V9.43466ZM19.1818 4.63928H17.7165C17.5095 4.63928 17.3426 4.47242 17.3426 4.26657V2.69288C17.3426 2.48581 17.5095 2.31894 17.7165 2.31894H19.1818C19.3889 2.31894 19.5557 2.48581 19.5557 2.69288V4.26657C19.5557 4.47242 19.3889 4.63928 19.1818 4.63928ZM18.0892 3.89263H18.8091V3.06559H18.0892V3.89263ZM15.3511 16.4615H3.86269C3.65685 16.4615 3.48876 16.2946 3.48876 16.0887C3.48876 15.8817 3.65685 15.7148 3.86269 15.7148H15.3511C15.5582 15.7148 15.7251 15.8817 15.7251 16.0887C15.7251 16.2946 15.5582 16.4615 15.3511 16.4615ZM15.3511 18.0875H3.86269C3.65685 18.0875 3.48876 17.9194 3.48876 17.7136C3.48876 17.5065 3.65685 17.3397 3.86269 17.3397H15.3511C15.5582 17.3397 15.7251 17.5065 15.7251 17.7136C15.7251 17.9194 15.5582 18.0875 15.3511 18.0875ZM15.3511 19.7124H3.86269C3.65685 19.7124 3.48876 19.5455 3.48876 19.3384C3.48876 19.1326 3.65685 18.9645 3.86269 18.9645H15.3511C15.5582 18.9645 15.7251 19.1326 15.7251 19.3384C15.7251 19.5455 15.5582 19.7124 15.3511 19.7124ZM15.3511 21.3372H3.86269C3.65685 21.3372 3.48876 21.1703 3.48876 20.9633C3.48876 20.7574 3.65685 20.5906 3.86269 20.5906H15.3511C15.5582 20.5906 15.7251 20.7574 15.7251 20.9633C15.7251 21.1703 15.5582 21.3372 15.3511 21.3372ZM9.53139 10.5589H3.86269C3.65685 10.5589 3.48876 10.392 3.48876 10.185V8.75987C3.48876 7.76718 4.22932 6.95963 5.13918 6.95963H5.84077C5.95039 6.95963 6.05392 7.00835 6.12457 7.09117L6.69826 7.76474L7.26951 7.09117C7.34016 7.00835 7.44491 6.95963 7.55453 6.95963H8.2549C9.16476 6.95963 9.90532 7.76718 9.90532 8.75865V10.185C9.90532 10.392 9.73845 10.5589 9.53139 10.5589ZM4.23663 9.81103H9.15867V8.75987C9.15867 8.17887 8.75307 7.70749 8.2549 7.70749H7.72749L6.98328 8.58326C6.83468 8.75987 6.56306 8.75987 6.41446 8.58447L5.66781 7.70749H5.13918C4.64101 7.70749 4.23663 8.17887 4.23663 8.75987V9.81103ZM6.69704 4.02418C6.17451 4.02418 5.74942 4.44927 5.74942 4.97181C5.74942 5.49434 6.17451 5.91943 6.69704 5.91943C7.21957 5.91943 7.64466 5.49434 7.64466 4.97181C7.64466 4.44927 7.21957 4.02418 6.69704 4.02418Z" fill="#C0282D"/>
</g>
<defs>
<clipPath id="clip0_254_7390">
<rect width="22" height="22" fill="white" transform="translate(1.36572 0.918213)"/>
</clipPath>
</defs>
</svg>
