<svg width="25" height="24" viewBox="0 0 25 24" fill="none" xmlns="http://www.w3.org/2000/svg">
<path d="M22.1012 17.9459C22.2251 17.9459 22.3406 17.8836 22.4081 17.7795C22.4756 17.6753 22.4866 17.5448 22.4367 17.4315C21.8119 16.0125 20.4069 15.0955 18.857 15.0955C17.522 15.0955 16.2794 15.7812 15.5625 16.8988H7.92536C7.20854 15.7812 5.96593 15.0955 4.63092 15.0955C3.08105 15.0955 1.67564 16.0122 1.05121 17.4315C1.00135 17.5448 1.01198 17.6757 1.07981 17.7795C1.14765 17.8832 1.26314 17.9459 1.38671 17.9459H4.45346V20.0678H1.38634C1.26241 20.0678 1.14691 20.1301 1.07945 20.2343C1.01198 20.3384 1.00098 20.4689 1.05085 20.5822C1.67564 22.0012 3.08068 22.9182 4.63055 22.9182C5.96446 22.9182 7.20634 22.2337 7.92243 21.1176H15.5651C16.2808 22.2333 17.5227 22.9182 18.857 22.9182C20.4069 22.9182 21.8123 22.0016 22.4367 20.5822C22.4866 20.4689 22.4759 20.338 22.4081 20.2343C22.3403 20.1305 22.2248 20.0678 22.1012 20.0678H19.0344V17.9459H22.1012ZM18.6674 20.8011H21.4793C20.8938 21.6565 19.917 22.1845 18.8566 22.1845C17.7137 22.1845 16.6541 21.566 16.0913 20.5701C16.026 20.455 15.9043 20.3839 15.7719 20.3839H7.71527C7.58327 20.3839 7.46117 20.455 7.39591 20.5701C6.83308 21.566 5.77343 22.1845 4.63055 22.1845C3.57017 22.1845 2.59302 21.6562 2.00783 20.8011H4.81975C5.02215 20.8011 5.18641 20.6369 5.18641 20.4345V17.5793C5.18641 17.3769 5.02215 17.2126 4.81975 17.2126H2.00783C2.59339 16.3572 3.57017 15.8292 4.63055 15.8292C5.77417 15.8292 6.83492 16.4489 7.39884 17.4465C7.46411 17.5617 7.58584 17.6328 7.7182 17.6328H15.7693C15.9013 17.6328 16.0234 17.5617 16.0887 17.4465C16.6526 16.4489 17.7134 15.8292 18.857 15.8292C19.9174 15.8292 20.8945 16.3576 21.4797 17.2126H18.6678C18.4654 17.2126 18.3011 17.3769 18.3011 17.5793V20.4345C18.3011 20.6369 18.465 20.8011 18.6674 20.8011Z" fill="#C0282D"/>
<path d="M15.2755 18.64H8.21175C8.00936 18.64 7.84509 18.8043 7.84509 19.0067C7.84509 19.2091 8.00936 19.3733 8.21175 19.3733H15.2755C15.4779 19.3733 15.6421 19.2091 15.6421 19.0067C15.6421 18.8043 15.4779 18.64 15.2755 18.64Z" fill="#C0282D"/>
<path d="M13.866 2.37935L13.7982 1.26251C13.7864 1.06891 13.6262 0.918213 13.4322 0.918213H10.0549C9.86096 0.918213 9.70073 1.06928 9.689 1.26251L9.62117 2.37935C8.41999 2.64482 7.31487 3.12404 6.34579 3.77376C6.33699 3.77743 6.33039 3.78476 6.32159 3.78916C3.86753 5.4461 2.29566 8.17919 2.29566 11.1983V11.4285C1.6727 11.5382 1.19678 12.0805 1.19678 12.7342C1.19678 13.4672 1.79297 14.0634 2.52592 14.0634H20.9601C21.6931 14.0634 22.2893 13.4672 22.2893 12.7342C22.2893 12.0801 21.8134 11.5378 21.1897 11.4282V11.1979C21.1897 6.97581 18.1248 3.31581 13.8649 2.37899L13.866 2.37935ZM6.12066 4.84808V8.28296C6.12066 8.48535 6.28492 8.64962 6.48732 8.64962C6.68972 8.64962 6.85398 8.48535 6.85398 8.28296V4.31862C7.6687 3.7877 8.58462 3.38584 9.57534 3.14274L9.18558 9.57103C9.17311 9.77306 9.32711 9.94686 9.5295 9.95933C9.73227 9.97546 9.90533 9.8178 9.9178 9.6154L10.4007 1.65153H13.0876L13.5705 9.6154C13.5822 9.8101 13.7439 9.95969 13.936 9.95969C13.9437 9.95969 13.9511 9.95969 13.9588 9.95896C14.1608 9.94686 14.3148 9.77306 14.3027 9.57067L13.9129 3.14201C14.9036 3.38437 15.8196 3.78586 16.6343 4.31606V8.28259C16.6343 8.48498 16.7985 8.64925 17.0009 8.64925C17.2033 8.64925 17.3676 8.48498 17.3676 8.28259V4.84551C19.2702 6.38805 20.4578 8.68518 20.4578 11.1983V11.4051H3.02935V11.1983C3.02935 8.68738 4.21769 6.39099 6.12066 4.84808ZM21.5567 12.7346C21.5567 13.0631 21.2894 13.3304 20.9609 13.3304H2.52665C2.19813 13.3304 1.93083 13.0631 1.93083 12.7346C1.93083 12.4061 2.19813 12.1388 2.52665 12.1388H2.66122C2.66122 12.1388 2.66232 12.1388 2.66305 12.1388H20.8241C20.8241 12.1388 20.8252 12.1388 20.8259 12.1388H20.9612C21.2898 12.1388 21.5567 12.4061 21.5567 12.7346Z" fill="#C0282D"/>
</svg>
