<svg width="25" height="24" viewBox="0 0 25 24" fill="none" xmlns="http://www.w3.org/2000/svg">
<path fill-rule="evenodd" clip-rule="evenodd" d="M20.6834 5.46441C20.9249 5.70587 21.0443 6.03442 21.0443 6.33559V19.8413C21.0443 21.4673 19.723 22.7885 18.0971 22.7885H9.28142C8.99409 22.7885 8.71565 22.6921 8.49368 22.5079C8.27189 22.692 7.99357 22.7885 7.70603 22.7885H6.04404C4.41798 22.7885 3.09692 21.4672 3.09692 19.8413V3.86532C3.09692 2.23934 4.41811 0.918213 6.04404 0.918213H15.6267C15.931 0.918213 16.2583 1.03954 16.4979 1.27908L20.6834 5.46441ZM7.70603 21.7629C7.97902 21.7629 7.97934 21.35 7.70603 21.35H6.04404C5.21219 21.35 4.53536 20.6732 4.53536 19.8413V3.86532C4.53536 3.03347 5.21219 2.35665 6.04404 2.35665H15.4202V3.40282C15.4202 3.40382 15.4203 3.40481 15.4203 3.40579C15.4229 3.64047 15.7328 3.67068 15.8139 3.4958C15.8258 3.47021 15.8328 3.44022 15.8331 3.40583C15.8332 3.40483 15.8332 3.40383 15.8332 3.40282V2.64863L19.3138 6.12915H17.3433C17.3433 6.12915 17.3433 6.12915 17.3433 6.12915C16.7709 6.12913 16.2719 5.8091 16.0158 5.33861C15.8993 5.12459 15.8331 4.87942 15.8331 4.61909C15.8331 4.61809 15.8331 4.6171 15.8331 4.61612C15.8301 4.3471 15.4232 4.34677 15.4202 4.61608C15.4202 4.61708 15.4202 4.61808 15.4202 4.61909C15.4202 4.91236 15.4862 5.19051 15.6041 5.43946C15.9125 6.09063 16.5762 6.54206 17.3433 6.54206H19.6057V19.8413C19.6057 20.6732 18.929 21.35 18.0971 21.35C18.097 21.35 18.0971 21.35 18.0971 21.35H9.28142C9.00843 21.35 9.00811 21.7629 9.28142 21.7629H18.097C19.1566 21.7629 20.0187 20.9009 20.0187 19.8413V6.33559C20.0187 6.28941 19.9957 6.22702 19.9582 6.1896L19.6058 5.83718L15.7727 2.00426C15.7355 1.96708 15.6735 1.94378 15.6267 1.94378H6.04404C4.9845 1.94378 4.12249 2.80575 4.12249 3.86532V19.8413C4.12249 20.9009 4.98446 21.7629 6.04404 21.7629H7.70603ZM18.5802 7.56763V19.8413C18.5802 20.1068 18.3625 20.3245 18.097 20.3245H9.28142C8.99387 20.3245 8.71555 20.421 8.49377 20.605C8.2718 20.4209 7.99336 20.3245 7.70603 20.3245H6.04404C5.77862 20.3245 5.56092 20.1068 5.56092 19.8413V3.86532C5.56092 3.59988 5.77859 3.38221 6.04404 3.38221H14.3947V3.40282C14.3947 3.61716 14.4483 3.82638 14.5519 4.01088C14.4482 4.19552 14.3946 4.40483 14.3946 4.61909C14.3946 6.24591 15.7165 7.56763 17.3433 7.56763H18.5802Z" fill="#C0282D"/>
<path d="M6.72026 4.76231H11.8426C12.1156 4.76231 12.1159 4.3494 11.8426 4.3494H6.72026C6.44727 4.3494 6.44691 4.76231 6.72026 4.76231Z" fill="#C0282D"/>
<path d="M6.72026 7.1769H14.5239C14.7969 7.1769 14.7972 6.76399 14.5239 6.76399H6.72026C6.44727 6.76399 6.44691 7.1769 6.72026 7.1769Z" fill="#C0282D"/>
<path d="M10.1014 17.9472H14.0396C14.7067 17.9472 15.2495 17.4044 15.2495 16.7373V16.0556C15.2495 15.7826 14.8366 15.7823 14.8366 16.0556V16.7373C14.8366 17.1767 14.4791 17.5342 14.0396 17.5342H10.1014C9.66193 17.5342 9.30439 17.1767 9.30439 16.7373V13.8327C9.30439 13.3931 9.66193 13.0356 10.1014 13.0356H14.0396C14.4791 13.0356 14.8366 13.3931 14.8366 13.8327V14.4413C14.8366 14.7143 15.2495 14.7146 15.2495 14.4413V13.8327C15.2495 13.2167 14.7865 12.7078 14.1905 12.6331V10.733C14.1905 9.56539 13.2453 8.61415 12.0717 8.61415C10.9021 8.61415 9.95046 9.56464 9.95046 10.733V12.6331C9.35446 12.7078 8.89148 13.2167 8.89148 13.8327V16.7373C8.89148 17.4044 9.43421 17.9472 10.1014 17.9472ZM10.3634 10.733C10.3634 9.7924 11.1297 9.0271 12.0717 9.0271C13.0197 9.0271 13.7776 9.79597 13.7776 10.733V12.6227H10.3634V10.733Z" fill="#C0282D"/>
<path d="M11.864 14.8558V15.7142C11.864 15.8282 11.9564 15.9207 12.0704 15.9207C12.1844 15.9207 12.2769 15.8282 12.2769 15.7142V14.8558C12.2769 14.5828 11.864 14.5824 11.864 14.8558Z" fill="#C0282D"/>
</svg>
