<svg width="26" height="23" viewBox="0 0 26 23" fill="none" xmlns="http://www.w3.org/2000/svg">
<path d="M9.16522 5.40147H21.8011L14.8986 10.8073C14.7523 10.9217 14.5783 10.9776 14.4205 10.9929C14.2615 10.9773 14.087 10.9215 13.9391 10.8073L9.00629 6.94273C8.95403 6.90082 8.89504 6.86885 8.83012 6.84897C9.06232 6.52229 9.19486 6.1271 9.18785 5.70129C9.18651 5.60377 9.17789 5.50329 9.16522 5.40147ZM5.95185 1.92485C5.96774 1.92754 5.99387 1.93748 6.05071 1.96381C6.16304 2.017 6.34163 2.15401 6.51646 2.34503C6.86853 2.72758 7.22034 3.30707 7.40297 3.68963C7.40863 3.70091 7.41456 3.71327 7.41994 3.72589C7.93822 4.61271 8.1618 5.29106 8.16854 5.7166C8.17581 6.14403 8.06079 6.32805 7.6974 6.53626L6.75997 7.07517C6.1493 7.42576 5.8608 8.05414 5.78915 8.64033C5.71722 9.2268 5.82309 9.79661 6.08465 10.2471L8.39858 14.2245C8.66069 14.6748 9.10812 15.0514 9.65522 15.2827C10.2029 15.5146 10.8954 15.5801 11.5061 15.2304L12.4435 14.6925C12.8066 14.4848 13.0262 14.4805 13.395 14.6992C13.7648 14.9185 14.2451 15.448 14.7612 16.3353C14.7685 16.3485 14.7755 16.3595 14.7839 16.3721C15.0257 16.72 15.3552 17.3103 15.5141 17.8046C15.5931 18.0501 15.624 18.272 15.6141 18.3948C15.603 18.5181 15.6003 18.5055 15.5677 18.5248L14.8544 18.9326C13.0625 19.7077 11.4202 19.5328 9.95234 18.7736C8.48182 18.0112 7.20363 16.6343 6.31254 15.0179C6.30958 15.0146 6.30823 15.0106 6.30581 15.0084L4.35392 11.6535C4.35068 11.6503 4.34934 11.6474 4.34664 11.6431C3.38093 10.0688 2.81821 8.28142 2.88878 6.637C2.95936 4.995 3.62741 3.49808 5.2011 2.34637L5.91467 1.9399C5.93111 1.9305 5.93649 1.92324 5.95185 1.92485ZM5.95912 0.925202C5.77029 0.922247 5.57769 0.961739 5.40448 1.06195L4.64996 1.49474C4.63299 1.50441 4.61736 1.51436 4.60201 1.52403C2.78669 2.84902 1.95082 4.69358 1.8692 6.59482C1.78758 8.49526 2.42384 10.4567 3.47494 12.1715L5.42037 15.5149L5.41579 15.5049C6.38689 17.2649 7.77848 18.7916 9.47905 19.6712C11.1804 20.5521 13.2072 20.7562 15.2717 19.8584C15.2887 19.8512 15.3059 19.8431 15.3213 19.8337L16.0769 19.4009C16.4262 19.2026 16.6019 18.8169 16.6304 18.48C16.6598 18.1441 16.5911 17.8172 16.4868 17.4951C16.2827 16.8581 15.9265 16.2394 15.6324 15.8149C15.0767 14.8615 14.5401 14.1998 13.92 13.8299C13.295 13.4583 12.5448 13.4637 11.9328 13.8146L10.9954 14.3535C10.7184 14.5125 10.3947 14.494 10.0539 14.3503C9.71475 14.2065 9.40066 13.9191 9.28402 13.7176L6.97009 9.74046C6.85318 9.5379 6.75755 9.12471 6.8028 8.76042C6.84644 8.39721 6.99433 8.1127 7.27152 7.95339L8.18227 7.43113C8.20598 7.55283 8.27494 7.66325 8.37488 7.7374L13.3079 11.6028C13.6288 11.8542 14.0089 11.9942 14.3916 12.0162C14.411 12.0173 14.431 12.0173 14.4506 12.0162C14.8337 11.9942 15.2119 11.8539 15.533 11.6028L22.3272 6.27969V15.0737C22.3272 15.2075 22.1742 15.3838 21.8741 15.3838H17.1705C16.8874 15.3821 16.6582 15.61 16.6582 15.8907C16.6582 16.1709 16.8877 16.3987 17.1705 16.3971H21.8741C22.6429 16.3971 23.3494 15.8429 23.3494 15.0737V5.7115C23.3494 4.94181 22.6429 4.38785 21.8741 4.38785H8.88534C8.7415 4.0292 8.55159 3.64906 8.31238 3.23587C8.08853 2.77111 7.72541 2.1567 7.27098 1.66265C7.04147 1.41227 6.79392 1.19036 6.4844 1.0469V1.04824C6.33059 0.975709 6.14768 0.929232 5.95912 0.925202Z" fill="#C0282D"/>
</svg>
