<?xml version="1.0" encoding="UTF-8"?>
<svg id="Layer_1" xmlns="http://www.w3.org/2000/svg" version="1.1" viewBox="0 0 17.3 14.1">
  <!-- Generator: Adobe Illustrator 29.4.0, SVG Export Plug-In . SVG Version: 2.1.0 Build 152)  -->
  <defs>
    <style>
      .st0 {
        fill: #c0282d;
        fill-rule: evenodd;
      }
    </style>
  </defs>
  <path class="st0" d="M1.6,3.6c0-.6.5-1,1-1h12c.6,0,1,.5,1,1s-.5,1-1,1H2.7c-.6,0-1-.5-1-1h0Z"/>
  <path class="st0" d="M3.3,7c0-.6.5-1,1-1h8.5c.6,0,1,.5,1,1s-.5,1-1,1H4.4c-.6,0-1-.5-1-1Z"/>
  <path class="st0" d="M5.1,10.4c0-.6.5-1,1-1h5c.6,0,1,.5,1,1s-.5,1-1,1h-5c-.6,0-1-.5-1-1Z"/>
</svg>