<svg width="51" height="50" viewBox="0 0 51 50" fill="none" xmlns="http://www.w3.org/2000/svg">
<path d="M25.3901 0.0749512C11.6801 0.0749512 0.580078 11.19 0.580078 24.885C0.580078 38.595 11.6951 49.695 25.3901 49.695C39.1001 49.695 50.2001 38.58 50.2001 24.885C50.2001 11.175 39.1001 0.0749512 25.3901 0.0749512ZM17.9801 33.4049C19.6451 35.52 22.2101 36.6149 25.6001 36.645C28.6601 36.6149 30.6701 35.895 32.3651 34.215C34.2851 32.295 34.2551 29.9399 33.6401 28.5149C33.2801 27.6749 32.6201 26.97 31.7501 26.445C31.5251 28.05 31.0451 29.3099 30.2801 30.2999C29.2601 31.59 27.8201 32.2949 25.9601 32.3999C24.5501 32.4749 23.2151 32.145 22.1651 31.455C20.9351 30.63 20.2001 29.385 20.1251 27.93C19.9751 25.065 22.2401 22.995 25.7801 22.7999C27.0401 22.725 28.2101 22.785 29.3051 22.965C29.1551 22.08 28.8701 21.39 28.4351 20.88C27.8351 20.19 26.9201 19.83 25.6901 19.815H25.6451C24.6551 19.815 23.3201 20.085 22.4801 21.375L20.4401 19.965C21.5801 18.24 23.4251 17.28 25.6601 17.28H25.7051C29.4251 17.31 31.6451 19.635 31.8701 23.685C32.0051 23.745 32.1251 23.805 32.2451 23.85C33.9851 24.69 35.2601 25.935 35.9201 27.495C36.8501 29.67 36.9401 33.195 34.1201 36C31.9751 38.145 29.3501 39.1199 25.6451 39.1499H25.6301C21.4601 39.1199 18.2501 37.71 16.0901 34.9799C14.1701 32.55 13.1801 29.145 13.1501 24.9V24.87C13.1801 20.625 14.1701 17.22 16.0901 14.79C18.2501 12.045 21.4601 10.65 25.6301 10.62H25.6451C29.8301 10.65 33.0701 12.045 35.2901 14.775C36.3851 16.125 37.1951 17.745 37.7051 19.635L35.3051 20.28C34.8851 18.75 34.2401 17.445 33.3851 16.395C31.6451 14.265 29.0501 13.17 25.6301 13.155C22.2401 13.185 19.6751 14.265 18.0101 16.395C16.4501 18.375 15.6401 21.24 15.6101 24.9C15.6401 28.5599 16.4501 31.4249 18.0101 33.42L17.9801 33.4049Z" fill="#A592C6"/>
<path d="M25.9151 25.2749C23.3651 25.4249 22.5101 26.6549 22.5701 27.7649C22.6451 29.2649 24.2651 29.9549 25.8101 29.8649C27.3251 29.7749 29.0501 29.1899 29.3501 25.5149C28.5701 25.3499 27.7001 25.2599 26.7701 25.2599C26.4851 25.2599 26.2001 25.2599 25.9151 25.2899V25.2749Z" fill="#A592C6"/>
</svg>
