<svg width="51" height="50" viewBox="0 0 51 50" fill="none" xmlns="http://www.w3.org/2000/svg">
<path d="M30.9201 24.6751L23.0901 20.4151C22.7751 20.2351 21.6651 20.4601 21.6651 20.8351V29.1451C21.6651 29.5051 22.7601 29.7451 23.0751 29.5651L31.2651 25.5151C31.5951 25.3351 31.2651 24.8551 30.9201 24.6751Z" fill="#A592C6"/>
<path d="M25.2651 0C11.5251 0 0.380127 11.145 0.380127 24.885C0.380127 38.625 11.5251 49.77 25.2651 49.77C39.0051 49.77 50.1501 38.625 50.1501 24.885C50.1501 11.145 39.0051 0 25.2651 0ZM41.9901 29.13C41.9901 33.075 38.7951 36.27 34.8501 36.27H16.5951C12.6501 36.27 9.45513 33.075 9.45513 29.13V20.64C9.45513 16.695 12.6501 13.5 16.5951 13.5H34.8501C38.7951 13.5 41.9901 16.695 41.9901 20.64V29.13Z" fill="#A592C6"/>
</svg>
