<svg width="51" height="50" viewBox="0 0 51 50" fill="none" xmlns="http://www.w3.org/2000/svg">
<path d="M25.665 0C11.925 0 0.780029 11.145 0.780029 24.885C0.780029 38.625 11.925 49.77 25.665 49.77C39.405 49.77 50.55 38.625 50.55 24.885C50.55 11.145 39.405 0 25.665 0ZM18.51 36.3H13.14V19.05H18.51V36.3ZM15.825 16.68C14.1 16.68 12.705 15.285 12.705 13.575C12.705 11.865 14.1 10.47 15.825 10.47C17.55 10.47 18.93 11.865 18.93 13.575C18.93 15.285 17.535 16.68 15.825 16.68ZM38.61 36.3H33.255V27.915C33.255 25.905 33.21 23.34 30.465 23.34C27.72 23.34 27.24 25.515 27.24 27.765V36.3H21.885V19.05H27.03V21.405H27.105C27.825 20.04 29.565 18.615 32.19 18.615C37.62 18.615 38.625 22.185 38.625 26.835V36.3H38.61Z" fill="#A592C6"/>
</svg>
