<svg width="34" height="33" viewBox="0 0 34 33" fill="none" xmlns="http://www.w3.org/2000/svg">
<path fill-rule="evenodd" clip-rule="evenodd" d="M16.6501 0.792053C7.5339 0.792053 0.150146 8.1758 0.150146 17.2921C0.150146 24.5933 4.87327 30.7602 11.432 32.9464C12.257 33.0908 12.5664 32.5958 12.5664 32.1627C12.5664 31.7708 12.5458 30.4714 12.5458 29.0896C8.40015 29.8527 7.32765 28.0789 6.99765 27.1508C6.81202 26.6764 6.00765 25.2121 5.3064 24.8202C4.7289 24.5108 3.9039 23.7477 5.28577 23.7271C6.58515 23.7064 7.51327 24.9233 7.82265 25.4183C9.30765 27.9139 11.6795 27.2127 12.6283 26.7796C12.7726 25.7071 13.2058 24.9852 13.6801 24.5727C10.0089 24.1602 6.17265 22.7371 6.17265 16.4258C6.17265 14.6314 6.81202 13.1464 7.8639 11.9914C7.6989 11.5789 7.1214 9.88768 8.0289 7.61893C8.0289 7.61893 9.41077 7.1858 12.5664 9.31018C13.8864 8.93893 15.2889 8.7533 16.6914 8.7533C18.0939 8.7533 19.4964 8.93893 20.8164 9.31018C23.972 7.16518 25.3539 7.61893 25.3539 7.61893C26.2614 9.88768 25.6839 11.5789 25.5189 11.9914C26.5708 13.1464 27.2101 14.6108 27.2101 16.4258C27.2101 22.7577 23.3533 24.1602 19.682 24.5727C20.2801 25.0883 20.7958 26.0783 20.7958 27.6252C20.7958 29.8321 20.7751 31.6058 20.7751 32.1627C20.7751 32.5958 21.0845 33.1114 21.9095 32.9464C28.427 30.7602 33.1501 24.5727 33.1501 17.2921C33.1501 8.1758 25.7664 0.792053 16.6501 0.792053Z" fill="white"/>
</svg>
