<svg width="51" height="50" viewBox="0 0 51 50" fill="none" xmlns="http://www.w3.org/2000/svg">
<path d="M25.765 0C12.025 0 0.880005 11.145 0.880005 24.885C0.880005 38.625 12.025 49.77 25.765 49.77C39.505 49.77 50.65 38.625 50.65 24.885C50.65 11.145 39.505 0 25.765 0ZM35.56 12.555H32.65C29.785 12.555 28.885 14.34 28.885 16.17V20.505H35.29L34.27 27.18H28.885V43.335H21.655V27.18H15.79V20.505H21.655V15.42C21.655 9.63 25.105 6.435 30.385 6.435C32.92 6.435 35.56 6.885 35.56 6.885V12.57V12.555Z" fill="#A592C6"/>
</svg>
