<svg width="34" height="34" viewBox="0 0 34 34" fill="none" xmlns="http://www.w3.org/2000/svg">
<path d="M17.0401 0.344971C7.90012 0.344971 0.500122 7.75497 0.500122 16.885C0.500122 26.025 7.91012 33.425 17.0401 33.425C26.1801 33.425 33.5801 26.015 33.5801 16.885C33.5801 7.74497 26.1801 0.344971 17.0401 0.344971ZM12.1001 22.565C13.2101 23.975 14.9201 24.705 17.1801 24.725C19.2201 24.705 20.5601 24.225 21.6901 23.105C22.9701 21.825 22.9501 20.255 22.5401 19.305C22.3001 18.745 21.8601 18.275 21.2801 17.925C21.1301 18.995 20.8101 19.835 20.3001 20.495C19.6201 21.355 18.6601 21.825 17.4201 21.895C16.4801 21.945 15.5901 21.725 14.8901 21.265C14.0701 20.715 13.5801 19.885 13.5301 18.915C13.4301 17.005 14.9401 15.625 17.3001 15.495C18.1401 15.445 18.9201 15.485 19.6501 15.605C19.5501 15.015 19.3601 14.555 19.0701 14.215C18.6701 13.755 18.0601 13.515 17.2401 13.505H17.2101C16.5501 13.505 15.6601 13.685 15.1001 14.545L13.7401 13.605C14.5001 12.455 15.7301 11.815 17.2201 11.815H17.2501C19.7301 11.835 21.2101 13.385 21.3601 16.085C21.4501 16.125 21.5301 16.165 21.6101 16.195C22.7701 16.755 23.6201 17.585 24.0601 18.625C24.6801 20.075 24.7401 22.425 22.8601 24.295C21.4301 25.725 19.6801 26.375 17.2101 26.395H17.2001C14.4201 26.375 12.2801 25.435 10.8401 23.615C9.56012 21.995 8.90012 19.725 8.88012 16.895V16.875C8.90012 14.045 9.56012 11.775 10.8401 10.155C12.2801 8.32497 14.4201 7.39497 17.2001 7.37497H17.2101C20.0001 7.39497 22.1601 8.32497 23.6401 10.145C24.3701 11.045 24.9101 12.125 25.2501 13.385L23.6501 13.815C23.3701 12.795 22.9401 11.925 22.3701 11.225C21.2101 9.80497 19.4801 9.07497 17.2001 9.06497C14.9401 9.08497 13.2301 9.80497 12.1201 11.225C11.0801 12.545 10.5401 14.455 10.5201 16.895C10.5401 19.335 11.0801 21.245 12.1201 22.575L12.1001 22.565Z" fill="white"/>
<path d="M17.3902 17.1449C15.6902 17.2449 15.1202 18.0649 15.1602 18.8049C15.2102 19.8049 16.2902 20.2649 17.3202 20.2049C18.3302 20.1449 19.4802 19.7549 19.6802 17.3049C19.1602 17.1949 18.5802 17.1349 17.9602 17.1349C17.7702 17.1349 17.5802 17.1349 17.3902 17.1549V17.1449Z" fill="white"/>
</svg>
