<svg width="34" height="34" viewBox="0 0 34 34" fill="none" xmlns="http://www.w3.org/2000/svg">
<path d="M17.14 0.294983C7.98005 0.294983 0.550049 7.72498 0.550049 16.885C0.550049 26.045 7.98005 33.475 17.14 33.475C26.3 33.475 33.73 26.045 33.73 16.885C33.73 7.72498 26.3 0.294983 17.14 0.294983ZM23.71 23.605C23.51 23.945 23.15 24.135 22.78 24.135C22.6 24.135 22.41 24.085 22.24 23.985C19.41 22.335 16.14 22.065 13.9 22.135C11.41 22.215 9.59005 22.705 9.57005 22.705C9.00005 22.865 8.41005 22.525 8.25005 21.955C8.09005 21.385 8.43005 20.795 9.00005 20.635C9.08005 20.615 11.04 20.075 13.77 19.985C15.38 19.935 16.92 20.045 18.37 20.315C20.2 20.665 21.87 21.275 23.33 22.125C23.84 22.425 24.02 23.085 23.72 23.595L23.71 23.605ZM25.71 19.445C25.47 19.855 25.05 20.075 24.61 20.075C24.39 20.075 24.17 20.015 23.97 19.905C20.62 17.945 16.75 17.635 14.09 17.715C11.15 17.805 8.99005 18.385 8.97005 18.395C8.29005 18.585 7.59005 18.185 7.40005 17.505C7.21005 16.825 7.61005 16.125 8.29005 15.935C8.39005 15.905 10.71 15.275 13.94 15.175C15.84 15.115 17.67 15.245 19.38 15.565C21.55 15.975 23.5201 16.695 25.25 17.705C25.8601 18.065 26.06 18.845 25.71 19.445ZM28.29 14.895C28 15.395 27.48 15.675 26.94 15.675C26.67 15.675 26.4 15.605 26.15 15.465C18.18 10.815 7.85005 13.575 7.75005 13.605C6.92005 13.835 6.06005 13.345 5.83005 12.515C5.60005 11.685 6.09005 10.825 6.92005 10.595C7.04005 10.565 9.89005 9.78498 13.85 9.65498C16.18 9.57498 18.43 9.74498 20.53 10.135C23.19 10.635 25.6101 11.525 27.73 12.765C28.48 13.205 28.73 14.155 28.29 14.905V14.895Z" fill="white"/>
</svg>
