<svg width="34" height="34" viewBox="0 0 34 34" fill="none" xmlns="http://www.w3.org/2000/svg">
<path d="M17.1901 0.294983C8.0301 0.294983 0.600098 7.72498 0.600098 16.885C0.600098 26.045 8.0301 33.475 17.1901 33.475C26.3501 33.475 33.7801 26.045 33.7801 16.885C33.7801 7.72498 26.3501 0.294983 17.1901 0.294983ZM12.4201 24.495H8.8401V12.995H12.4201V24.495ZM10.6301 11.415C9.4801 11.415 8.5501 10.485 8.5501 9.34498C8.5501 8.20498 9.4801 7.27498 10.6301 7.27498C11.7801 7.27498 12.7001 8.20498 12.7001 9.34498C12.7001 10.485 11.7701 11.415 10.6301 11.415ZM25.8201 24.495H22.2501V18.905C22.2501 17.565 22.2201 15.855 20.3901 15.855C18.5601 15.855 18.2401 17.305 18.2401 18.805V24.495H14.6701V12.995H18.1001V14.565H18.1501C18.6301 13.655 19.7901 12.705 21.5401 12.705C25.1601 12.705 25.8301 15.085 25.8301 18.185V24.495H25.8201Z" fill="white"/>
</svg>
