<svg width="34" height="34" viewBox="0 0 34 34" fill="none" xmlns="http://www.w3.org/2000/svg">
<path d="M17.29 0.294983C8.12995 0.294983 0.699951 7.72498 0.699951 16.885C0.699951 26.045 8.12995 33.475 17.29 33.475C26.45 33.475 33.88 26.045 33.88 16.885C33.88 7.72498 26.45 0.294983 17.29 0.294983ZM23.82 8.66498H21.88C19.97 8.66498 19.37 9.85498 19.37 11.075V13.965H23.64L22.96 18.415H19.37V29.185H14.55V18.415H10.64V13.965H14.55V10.575C14.55 6.71498 16.85 4.58498 20.37 4.58498C22.06 4.58498 23.82 4.88498 23.82 4.88498V8.67498V8.66498Z" fill="white"/>
</svg>
