<svg width="50" height="50" viewBox="0 0 50 50" fill="none" xmlns="http://www.w3.org/2000/svg">
<path d="M33.635 23.94C33.08 23.43 32.405 23.175 31.625 23.175C31.235 23.175 30.875 23.25 30.53 23.385C30.185 23.52 29.9 23.715 29.63 23.955C29.375 24.195 29.165 24.495 29 24.84C28.835 25.185 28.745 25.56 28.715 25.98H34.58C34.505 25.125 34.19 24.45 33.635 23.94Z" fill="#A592C6"/>
<path d="M20.7349 23.055C21.0949 22.695 21.2749 22.215 21.2749 21.585C21.2749 20.955 21.1099 20.49 20.7799 20.145C20.4499 19.785 20.0299 19.605 19.5499 19.605H15.3199V23.595H19.4149C19.9399 23.595 20.3749 23.415 20.7349 23.055Z" fill="#A592C6"/>
<path d="M21.3501 26.64C21.1851 26.445 20.9901 26.295 20.7651 26.19C20.5401 26.085 20.3001 26.025 20.0301 26.025H15.3051V30.18H19.8651C20.1501 30.18 20.4051 30.135 20.6601 30.03C20.9001 29.925 21.1101 29.775 21.2901 29.595C21.4701 29.415 21.6051 29.19 21.7101 28.935C21.8151 28.68 21.8601 28.41 21.8601 28.14C21.8601 27.87 21.8151 27.585 21.7101 27.33C21.6201 27.075 21.4851 26.85 21.3201 26.655L21.3501 26.64Z" fill="#A592C6"/>
<path d="M24.89 0.0749512C11.18 0.0749512 0.0799561 11.19 0.0799561 24.885C0.0799561 38.595 11.195 49.695 24.89 49.695C38.6 49.695 49.7 38.58 49.7 24.885C49.7 11.175 38.6 0.0749512 24.89 0.0749512ZM27.83 17.73H35.39V19.605H27.83V17.73ZM24.575 30.48C24.305 30.99 23.945 31.41 23.48 31.755C23.015 32.1 22.475 32.3549 21.86 32.535C21.245 32.715 20.585 32.805 19.895 32.805H12.26V16.995H20.72C21.275 16.995 21.77 17.115 22.205 17.355C22.655 17.595 23.03 17.895 23.345 18.285C23.66 18.66 23.9 19.095 24.065 19.575C24.23 20.055 24.32 20.55 24.32 21.03C24.32 21.795 24.125 22.53 23.735 23.205C23.345 23.88 22.79 24.375 22.04 24.705C22.94 24.975 23.66 25.455 24.185 26.145C24.71 26.8349 24.98 27.705 24.98 28.74C24.98 29.415 24.845 30 24.575 30.495V30.48ZM37.475 27.855H28.745C28.79 28.305 28.895 28.695 29.075 29.04C29.255 29.385 29.465 29.6849 29.75 29.9249C30.02 30.165 30.335 30.36 30.68 30.48C31.025 30.615 31.385 30.6749 31.76 30.6749C32.33 30.6749 32.885 30.54 33.395 30.255C33.905 29.97 34.25 29.6099 34.445 29.145L36.92 29.835C36.5 30.705 35.84 31.41 34.925 31.965C34.01 32.52 32.93 32.79 31.655 32.79C30.755 32.79 29.93 32.6399 29.195 32.325C27.74 31.71 26.72 30.675 26.12 29.205C25.835 28.5 25.7 27.765 25.7 26.985C25.7 26.205 25.835 25.425 26.105 24.705C26.69 23.22 27.71 22.17 29.18 21.54C29.915 21.225 30.755 21.06 31.67 21.06C32.585 21.06 33.41 21.225 34.145 21.54C36.53 22.575 37.655 24.9 37.55 27.4049C37.55 27.57 37.52 27.72 37.49 27.84L37.475 27.855Z" fill="#A592C6"/>
</svg>
