<svg width="51" height="50" viewBox="0 0 51 50" fill="none" xmlns="http://www.w3.org/2000/svg">
<path d="M25.8351 20.1299C23.2101 20.1299 21.0801 22.2599 21.0801 24.8849C21.0801 27.5099 23.2101 29.6399 25.8351 29.6399C28.4601 29.6399 30.5901 27.5099 30.5901 24.8849C30.5901 22.2599 28.4601 20.1299 25.8351 20.1299Z" fill="#A592C6"/>
<path d="M31.7301 12.6299H19.6851C16.2501 12.6299 13.4601 15.4199 13.4601 18.8549V30.8999C13.4601 34.3349 16.2501 37.1249 19.6851 37.1249H31.7301C35.1651 37.1249 37.9551 34.3349 37.9551 30.8999V18.8549C37.9551 15.4199 35.1651 12.6299 31.7301 12.6299ZM25.8351 32.3099C21.7401 32.3099 18.4101 28.9799 18.4101 24.8849C18.4101 20.7899 21.7401 17.4599 25.8351 17.4599C29.9301 17.4599 33.2601 20.7899 33.2601 24.8849C33.2601 28.9799 29.9301 32.3099 25.8351 32.3099ZM33.6951 18.7199C32.7201 18.7199 31.9251 17.9249 31.9251 16.9499C31.9251 15.9749 32.7201 15.1799 33.6951 15.1799C34.6701 15.1799 35.4651 15.9749 35.4651 16.9499C35.4651 17.9249 34.6701 18.7199 33.6951 18.7199Z" fill="#A592C6"/>
<path d="M25.7151 0C11.9751 0 0.830078 11.145 0.830078 24.885C0.830078 38.625 11.9751 49.77 25.7151 49.77C39.4551 49.77 50.6001 38.625 50.6001 24.885C50.6001 11.145 39.4551 0 25.7151 0ZM40.7901 30.9C40.7901 35.895 36.7251 39.96 31.7301 39.96H19.6851C14.6901 39.96 10.6251 35.895 10.6251 30.9V18.855C10.6251 13.86 14.6901 9.795 19.6851 9.795H31.7301C36.7251 9.795 40.7901 13.86 40.7901 18.855V30.9Z" fill="#A592C6"/>
</svg>
