<svg width="34" height="34" viewBox="0 0 34 34" fill="none" xmlns="http://www.w3.org/2000/svg">
<path d="M20.5601 16.7451L15.3401 13.9051C15.1301 13.7851 14.3901 13.9351 14.3901 14.1851V19.7251C14.3901 19.9651 15.1201 20.1251 15.3301 20.0051L20.7901 17.3051C21.0101 17.1851 20.7901 16.8651 20.5601 16.7451Z" fill="white"/>
<path d="M16.7901 0.295044C7.63007 0.295044 0.200073 7.72504 0.200073 16.885C0.200073 26.045 7.63007 33.475 16.7901 33.475C25.9501 33.475 33.3801 26.045 33.3801 16.885C33.3801 7.72504 25.9501 0.295044 16.7901 0.295044ZM27.9401 19.715C27.9401 22.345 25.8101 24.475 23.1801 24.475H11.0101C8.38007 24.475 6.25007 22.345 6.25007 19.715V14.055C6.25007 11.425 8.38007 9.29504 11.0101 9.29504H23.1801C25.8101 9.29504 27.9401 11.425 27.9401 14.055V19.715Z" fill="white"/>
</svg>
