<svg width="50" height="50" viewBox="0 0 50 50" fill="none" xmlns="http://www.w3.org/2000/svg">
<path fill-rule="evenodd" clip-rule="evenodd" d="M25.0351 0.613892C11.2862 0.613892 0.150146 11.7499 0.150146 25.4989C0.150146 36.5105 7.27348 45.8113 17.1653 49.1085C18.4095 49.3263 18.8761 48.5797 18.8761 47.9265C18.8761 47.3355 18.845 45.3758 18.845 43.2917C12.5926 44.4426 10.9751 41.7675 10.4774 40.3677C10.1975 39.6522 8.98432 37.4437 7.92671 36.8527C7.05573 36.3861 5.81148 35.2352 7.8956 35.204C9.8553 35.1729 11.2551 37.0082 11.7217 37.7548C13.9613 41.5186 17.5385 40.461 18.9694 39.8078C19.1872 38.1902 19.8404 37.1015 20.5558 36.4794C15.0189 35.8573 9.23317 33.7109 9.23317 24.1924C9.23317 21.4862 10.1975 19.2465 11.7839 17.5046C11.535 16.8825 10.6641 14.3317 12.0327 10.9101C12.0327 10.9101 14.1169 10.2568 18.8761 13.4608C20.8669 12.9009 22.9821 12.6209 25.0974 12.6209C27.2126 12.6209 29.3278 12.9009 31.3186 13.4608C36.0779 10.2257 38.162 10.9101 38.162 10.9101C39.5307 14.3317 38.6597 16.8825 38.4108 17.5046C39.9973 19.2465 40.9615 21.4551 40.9615 24.1924C40.9615 33.7421 35.1447 35.8573 29.6078 36.4794C30.5098 37.2571 31.2875 38.7502 31.2875 41.0831C31.2875 44.4115 31.2564 47.0866 31.2564 47.9265C31.2564 48.5797 31.723 49.3574 32.9672 49.1085C42.7968 45.8113 49.9201 36.4794 49.9201 25.4989C49.9201 11.7499 38.7841 0.613892 25.0351 0.613892Z" fill="#A592C6"/>
</svg>
