<svg width="34" height="34" viewBox="0 0 34 34" fill="none" xmlns="http://www.w3.org/2000/svg">
<path d="M22.3701 16.255C22.0001 15.915 21.5501 15.745 21.0301 15.745C20.7701 15.745 20.5301 15.795 20.3001 15.885C20.0701 15.975 19.8801 16.105 19.7001 16.265C19.5301 16.425 19.3901 16.625 19.2801 16.855C19.1701 17.085 19.1101 17.335 19.0901 17.615H23.0001C22.9501 17.045 22.7401 16.595 22.3701 16.255Z" fill="white"/>
<path d="M13.7699 15.665C14.0099 15.425 14.1299 15.105 14.1299 14.685C14.1299 14.265 14.0199 13.955 13.7999 13.725C13.5799 13.485 13.2999 13.365 12.9799 13.365H10.1599V16.025H12.8899C13.2399 16.025 13.5299 15.905 13.7699 15.665Z" fill="white"/>
<path d="M14.18 18.055C14.07 17.925 13.94 17.825 13.79 17.755C13.64 17.685 13.48 17.645 13.3 17.645H10.15V20.415H13.19C13.38 20.415 13.55 20.385 13.72 20.315C13.88 20.245 14.02 20.145 14.14 20.025C14.26 19.905 14.35 19.755 14.42 19.585C14.49 19.415 14.52 19.235 14.52 19.055C14.52 18.875 14.49 18.685 14.42 18.515C14.36 18.345 14.27 18.195 14.16 18.065L14.18 18.055Z" fill="white"/>
<path d="M16.54 0.344971C7.4 0.344971 0 7.75497 0 16.885C0 26.025 7.41 33.425 16.54 33.425C25.68 33.425 33.08 26.015 33.08 16.885C33.08 7.74497 25.68 0.344971 16.54 0.344971ZM18.5 12.115H23.54V13.365H18.5V12.115ZM16.33 20.615C16.15 20.955 15.91 21.235 15.6 21.465C15.29 21.695 14.93 21.865 14.52 21.985C14.11 22.105 13.67 22.165 13.21 22.165H8.12V11.625H13.76C14.13 11.625 14.46 11.705 14.75 11.865C15.05 12.025 15.3 12.225 15.51 12.485C15.72 12.735 15.88 13.025 15.99 13.345C16.1 13.665 16.16 13.995 16.16 14.315C16.16 14.825 16.03 15.315 15.77 15.765C15.51 16.215 15.14 16.545 14.64 16.765C15.24 16.945 15.72 17.265 16.07 17.725C16.42 18.185 16.6 18.765 16.6 19.455C16.6 19.905 16.51 20.295 16.33 20.625V20.615ZM24.93 18.865H19.11C19.14 19.165 19.21 19.425 19.33 19.655C19.45 19.885 19.59 20.085 19.78 20.245C19.96 20.405 20.17 20.535 20.4 20.615C20.63 20.705 20.87 20.745 21.12 20.745C21.5 20.745 21.87 20.655 22.21 20.465C22.55 20.275 22.78 20.035 22.91 19.725L24.56 20.185C24.28 20.765 23.84 21.235 23.23 21.605C22.62 21.975 21.9 22.155 21.05 22.155C20.45 22.155 19.9 22.055 19.41 21.845C18.44 21.435 17.76 20.745 17.36 19.765C17.17 19.295 17.08 18.805 17.08 18.285C17.08 17.765 17.17 17.245 17.35 16.765C17.74 15.775 18.42 15.075 19.4 14.655C19.89 14.445 20.45 14.335 21.06 14.335C21.67 14.335 22.22 14.445 22.71 14.655C24.3 15.345 25.05 16.895 24.98 18.565C24.98 18.675 24.96 18.775 24.94 18.855L24.93 18.865Z" fill="white"/>
</svg>
