<svg width="34" height="34" viewBox="0 0 34 34" fill="none" xmlns="http://www.w3.org/2000/svg">
<path d="M17.32 13.715C15.57 13.715 14.15 15.135 14.15 16.885C14.15 18.635 15.57 20.055 17.32 20.055C19.07 20.055 20.49 18.635 20.49 16.885C20.49 15.135 19.07 13.715 17.32 13.715Z" fill="white"/>
<path d="M21.2501 8.71497H13.2201C10.9301 8.71497 9.07007 10.575 9.07007 12.865V20.895C9.07007 23.185 10.9301 25.045 13.2201 25.045H21.2501C23.5401 25.045 25.4001 23.185 25.4001 20.895V12.865C25.4001 10.575 23.5401 8.71497 21.2501 8.71497ZM17.3201 21.835C14.5901 21.835 12.3701 19.615 12.3701 16.885C12.3701 14.155 14.5901 11.935 17.3201 11.935C20.0501 11.935 22.2701 14.155 22.2701 16.885C22.2701 19.615 20.0501 21.835 17.3201 21.835ZM22.5601 12.775C21.9101 12.775 21.3801 12.245 21.3801 11.595C21.3801 10.945 21.9101 10.415 22.5601 10.415C23.2101 10.415 23.7401 10.945 23.7401 11.595C23.7401 12.245 23.2101 12.775 22.5601 12.775Z" fill="white"/>
<path d="M17.24 0.294983C8.08002 0.294983 0.650024 7.72498 0.650024 16.885C0.650024 26.045 8.08002 33.475 17.24 33.475C26.4 33.475 33.83 26.045 33.83 16.885C33.83 7.72498 26.4 0.294983 17.24 0.294983ZM27.29 20.895C27.29 24.225 24.58 26.935 21.25 26.935H13.22C9.89002 26.935 7.18002 24.225 7.18002 20.895V12.865C7.18002 9.53498 9.89002 6.82498 13.22 6.82498H21.25C24.58 6.82498 27.29 9.53498 27.29 12.865V20.895Z" fill="white"/>
</svg>
