<svg width="51" height="50" viewBox="0 0 51 50" fill="none" xmlns="http://www.w3.org/2000/svg">
<path d="M25.6151 0C11.8751 0 0.730103 11.145 0.730103 24.885C0.730103 38.625 11.8751 49.77 25.6151 49.77C39.3551 49.77 50.5001 38.625 50.5001 24.885C50.5001 11.145 39.3551 0 25.6151 0ZM35.4701 34.965C35.1701 35.475 34.6301 35.76 34.0751 35.76C33.8051 35.76 33.5201 35.685 33.2651 35.535C29.0201 33.06 24.1151 32.655 20.7551 32.76C17.0201 32.88 14.2901 33.615 14.2601 33.615C13.4051 33.855 12.5201 33.345 12.2801 32.49C12.0401 31.635 12.5501 30.75 13.4051 30.51C13.5251 30.48 16.4651 29.67 20.5601 29.535C22.9751 29.46 25.2851 29.625 27.4601 30.03C30.2051 30.555 32.7101 31.47 34.9001 32.745C35.6651 33.195 35.9351 34.185 35.4851 34.95L35.4701 34.965ZM38.4701 28.725C38.1101 29.34 37.4801 29.67 36.8201 29.67C36.4901 29.67 36.1601 29.58 35.8601 29.415C30.8351 26.475 25.0301 26.01 21.0401 26.13C16.6301 26.265 13.3901 27.135 13.3601 27.15C12.3401 27.435 11.2901 26.835 11.0051 25.815C10.7201 24.795 11.3201 23.745 12.3401 23.46C12.4901 23.415 15.9701 22.47 20.8151 22.32C23.6651 22.23 26.4101 22.425 28.9751 22.905C32.2301 23.52 35.1851 24.6 37.7801 26.115C38.6951 26.655 38.9951 27.825 38.4701 28.725ZM42.3401 21.9C41.9051 22.65 41.1251 23.07 40.3151 23.07C39.9101 23.07 39.5051 22.965 39.1301 22.755C27.1751 15.78 11.6801 19.92 11.5301 19.965C10.2851 20.31 8.9951 19.575 8.6501 18.33C8.3051 17.085 9.0401 15.795 10.2851 15.45C10.4651 15.405 14.7401 14.235 20.6801 14.04C24.1751 13.92 27.5501 14.175 30.7001 14.76C34.6901 15.51 38.3201 16.845 41.5001 18.705C42.6251 19.365 43.0001 20.79 42.3401 21.915V21.9Z" fill="#A592C6"/>
</svg>
