<svg width="106" height="106" viewBox="0 0 106 106" fill="none" xmlns="http://www.w3.org/2000/svg">
<rect x="1.5" y="1.5" width="103" height="103" rx="9.5" fill="#F5B758"/>
<rect x="1.5" y="1.5" width="103" height="103" rx="9.5" stroke="#2DA9E1" stroke-width="3"/>
<path d="M16.7114 91.3267C15.9907 91.3267 15.4766 91.1421 15.125 90.8125C14.7515 90.4653 14.5669 89.9731 14.5669 89.3799C14.5669 88.936 14.6724 88.6021 14.8789 88.3164C15.0854 88.0308 15.3755 87.833 15.7446 87.7231C15.415 87.6089 15.1602 87.4287 14.9888 87.1826C14.8174 86.9365 14.7295 86.6465 14.7295 86.2729C14.7295 85.7412 14.9053 85.3105 15.2612 84.9941C15.6172 84.6777 16.0962 84.5195 16.707 84.5195C17.3179 84.5195 17.8013 84.6777 18.1572 84.9941C18.5132 85.3105 18.689 85.7368 18.689 86.2773C18.689 86.6377 18.6055 86.9365 18.4341 87.1782C18.2627 87.4243 18.0166 87.6045 17.6914 87.7231C18.0474 87.833 18.333 88.0308 18.5439 88.3208C18.7505 88.6064 18.8516 88.9404 18.8516 89.3799C18.8516 89.9731 18.667 90.4653 18.2935 90.8125C17.9199 91.1553 17.3926 91.3267 16.7114 91.3267ZM16.707 87.231C16.9663 87.231 17.1685 87.1562 17.3179 87.0024C17.4629 86.8486 17.5376 86.6465 17.5376 86.396C17.5376 86.1367 17.4629 85.9302 17.3179 85.7852C17.1816 85.6489 16.9751 85.5654 16.707 85.5654C16.4565 85.5654 16.2544 85.6401 16.105 85.7896C15.9556 85.939 15.8809 86.1411 15.8809 86.396C15.8809 86.6465 15.9556 86.8486 16.105 87.0024C16.2632 87.165 16.4609 87.231 16.707 87.231ZM16.707 90.2808C16.9883 90.2808 17.2344 90.1929 17.4146 90.0039C17.5859 89.8325 17.6826 89.5776 17.6826 89.2656C17.6826 88.9712 17.5947 88.7339 17.4146 88.5449C17.252 88.3735 17.019 88.2725 16.707 88.2725C16.4258 88.2725 16.1841 88.356 16.0039 88.5449C15.8237 88.7251 15.7358 88.9668 15.7358 89.27C15.7358 89.5688 15.8237 89.8193 16.0039 90.0083C16.1621 90.1709 16.4082 90.2808 16.707 90.2808ZM24.1382 91.2168H23.0571C22.3145 91.2168 21.8179 91.0981 21.5586 90.8608C21.2993 90.6279 21.1675 90.1885 21.1675 89.5513V87.2661H19.9106V86.2773H21.1675V84.9326L22.4551 84.3613V86.2773H24.1382V87.2661H22.4551V89.6128C22.4551 89.8281 22.5078 89.9863 22.6177 90.083C22.7363 90.1885 22.9165 90.228 23.1494 90.228H24.1382V91.2168ZM25.6016 91.1992V84.3613H26.8804V87.0156C26.9727 86.7432 27.1309 86.5322 27.3462 86.3828C27.5659 86.2334 27.834 86.1587 28.146 86.1587C28.6074 86.1587 28.959 86.3125 29.1963 86.6201C29.4336 86.9321 29.5522 87.3936 29.5522 88.0044V91.1992H28.2734V88.2021C28.2734 87.8462 28.2251 87.5957 28.124 87.4419C28.0229 87.2881 27.8516 87.2134 27.6362 87.2134C27.3945 87.2134 27.21 87.3145 27.0781 87.521C26.9463 87.7275 26.8804 88.0176 26.8804 88.3823V91.1992H25.6016ZM38.0513 91.3267C37.4053 91.3267 36.8735 91.1333 36.4648 90.751C36.0562 90.3687 35.854 89.8721 35.854 89.2568C35.854 88.7998 35.9595 88.4351 36.166 88.0967C36.377 87.7451 36.6758 87.4507 37.0845 87.187C36.9263 86.9365 36.8252 86.7256 36.7593 86.5498C36.689 86.3564 36.6538 86.1807 36.6538 85.9741C36.6538 85.5303 36.812 85.1611 37.1328 84.9019C37.4536 84.647 37.915 84.5195 38.5171 84.5195C38.7412 84.5195 38.939 84.5371 39.1455 84.5679C39.3784 84.603 39.5454 84.6426 39.752 84.7085V85.8335C39.5894 85.7412 39.3564 85.6401 39.1851 85.5918C39.0137 85.5435 38.8027 85.5127 38.605 85.5127C38.3809 85.5127 38.1963 85.5522 38.0776 85.6357C37.959 85.7192 37.8975 85.8379 37.8975 85.9873C37.8975 86.106 37.9326 86.2334 38.0337 86.4312C38.126 86.6201 38.2534 86.8354 38.4644 87.1562L39.8398 89.2656C39.9058 89.1514 39.9497 89.0239 39.9805 88.8833C40.0112 88.7295 40.0288 88.5757 40.0288 88.4175C40.0288 88.334 40.0244 88.2329 40.02 88.1582C40.0156 88.0703 40.0112 88.0264 39.9937 87.9253H41.0264V88.1494C41.0264 88.5801 40.978 88.9492 40.877 89.2612C40.7759 89.5864 40.6177 89.8721 40.4067 90.1182L41.1187 91.1992H39.7256L39.5146 90.8828C39.2861 91.0366 39.0752 91.1289 38.8159 91.2124C38.5698 91.2871 38.3457 91.3267 38.0513 91.3267ZM38.2402 90.2896C38.3281 90.2896 38.3853 90.2808 38.4863 90.2588C38.5698 90.2412 38.6313 90.228 38.7368 90.1797L38.772 90.1621C38.8906 90.1006 38.9082 90.0962 38.9785 90.0479L37.625 87.9868C37.4316 88.1143 37.2866 88.2637 37.1899 88.4351C37.0889 88.6064 37.0405 88.8042 37.0405 89.0283C37.0405 89.415 37.1855 89.7095 37.3833 89.9204C37.6162 90.1665 37.9019 90.2896 38.2402 90.2896ZM47.5259 91.1992V84.6382H48.8223V90.0566H51.5952V91.1992H47.5259ZM54.0737 91.3267C53.6343 91.3267 53.2739 91.1904 53.0234 90.8608C52.7817 90.5488 52.6631 90.0918 52.6631 89.481V86.2773H53.9507V89.2832C53.9507 89.6392 53.999 89.8896 54.1001 90.0435C54.2012 90.1973 54.3726 90.272 54.5879 90.272C54.812 90.272 55.001 90.1885 55.1416 89.9644C55.269 89.7578 55.335 89.4678 55.335 89.103V86.2773H56.6226V91.1992H55.4624L55.335 90.4697C55.2427 90.7422 55.0889 90.9531 54.8735 91.1025C54.6538 91.252 54.3857 91.3267 54.0737 91.3267ZM60.4678 91.3267C59.6987 91.3267 59.1011 91.0981 58.6748 90.6411C58.2485 90.1797 58.0332 89.5469 58.0332 88.7427C58.0332 87.9341 58.2485 87.2969 58.6792 86.8354C59.1099 86.3784 59.7031 86.1499 60.4546 86.1499C60.7227 86.1499 60.9819 86.1807 61.228 86.2422C61.4697 86.3037 61.7158 86.4004 61.9575 86.5278V87.7056C61.7686 87.543 61.5488 87.4155 61.3423 87.332C61.1357 87.2485 60.8896 87.2046 60.6392 87.2046C60.1997 87.2046 59.8921 87.3452 59.6768 87.6045C59.4526 87.8726 59.3384 88.2549 59.3384 88.7427C59.3384 89.2305 59.4526 89.6084 59.6768 89.8765C59.9009 90.1401 60.2217 90.272 60.6436 90.272C60.8896 90.272 61.1226 90.228 61.3423 90.1445C61.5312 90.0742 61.751 89.9556 61.9575 89.7666V90.9487C61.7246 91.085 61.5049 91.1641 61.2588 91.23C61.0127 91.2959 60.771 91.3267 60.4678 91.3267ZM64.9766 91.3267C64.4448 91.3267 64.0098 91.1816 63.6934 90.8828C63.3813 90.5884 63.2231 90.1753 63.2231 89.6436C63.2231 89.0811 63.3945 88.6504 63.7812 88.3691C64.1548 88.0967 64.7305 87.9604 65.5083 87.9604H66.4004V87.7451C66.4004 87.5298 66.3169 87.3716 66.1763 87.2705C66.0225 87.1606 65.7896 87.1123 65.4863 87.1123C65.2051 87.1123 64.9019 87.1519 64.6162 87.2266C64.335 87.3013 64.0273 87.4287 63.7109 87.6001V86.5015C63.957 86.4004 64.2822 86.2949 64.5767 86.2422C64.8184 86.1938 65.1787 86.1543 65.5654 86.1543C66.3872 86.1543 66.8794 86.3564 67.187 86.6509C67.5034 86.9673 67.6792 87.4551 67.6792 88.3691C67.6792 88.6943 67.6572 89.7798 67.6572 89.9951C67.6572 90.1182 67.6616 90.25 67.666 90.3335C67.6792 90.4521 67.6836 90.5752 67.6968 90.6499C67.7144 90.7686 67.7407 90.8872 67.7583 90.9443C67.7891 91.0322 67.833 91.1333 67.8813 91.1992H66.6069C66.5542 91.1113 66.5059 91.0103 66.4839 90.9443C66.4663 90.8872 66.4399 90.7686 66.4268 90.6499C66.2642 90.8652 66.0576 91.0322 65.8027 91.1509C65.5566 91.2695 65.3105 91.3267 64.9766 91.3267ZM65.3369 90.4346C65.6665 90.4346 65.9302 90.3115 66.1191 90.0479C66.3081 89.7974 66.4004 89.437 66.4004 88.9756V88.8877H65.8862C65.4028 88.8877 65.0688 88.9492 64.8799 89.0723C64.6909 89.1953 64.5942 89.4019 64.5942 89.6963C64.5942 89.938 64.6558 90.1006 64.792 90.2368C64.9238 90.3687 65.104 90.4346 65.3369 90.4346ZM70.9355 91.3267C70.6367 91.3267 70.3071 91.3003 70.0083 91.252C69.7095 91.2036 69.3843 91.1201 69.0635 91.019V89.894C69.3491 90.0566 69.6392 90.1797 69.9336 90.2632C70.2324 90.3467 70.5005 90.3906 70.7993 90.3906C71.0894 90.3906 71.3135 90.3467 71.4717 90.2588C71.6255 90.1709 71.7046 90.0566 71.7046 89.8501C71.7046 89.7139 71.6738 89.6084 71.5332 89.5029C71.3926 89.3975 71.1553 89.3052 70.7554 89.2173L70.3994 89.1382C69.9072 89.0283 69.5469 88.8525 69.3228 88.6152C69.0986 88.3735 68.9844 88.0615 68.9844 87.6704C68.9844 87.1914 69.1558 86.8179 69.4985 86.5542C69.8413 86.2905 70.3247 86.1587 70.9487 86.1587C71.23 86.1587 71.5376 86.1851 71.7793 86.2246C72.021 86.2642 72.3374 86.3433 72.5835 86.4312V87.5562C72.3418 87.4023 72.0781 87.2793 71.8452 87.209C71.6123 87.1387 71.3398 87.0947 71.0542 87.0947C70.7905 87.0947 70.5796 87.1299 70.4258 87.2178C70.272 87.3013 70.2017 87.4331 70.2017 87.5693C70.2017 87.833 70.4873 88.0088 71.1421 88.1626L71.1904 88.1758L71.5596 88.2637C72.021 88.3735 72.3682 88.5493 72.5923 88.7998C72.8164 89.0503 72.9175 89.4019 72.9175 89.8062C72.9175 90.3115 72.7505 90.6938 72.4209 90.9443C72.0869 91.2036 71.5815 91.3267 70.9355 91.3267ZM81.6318 91.3267C81.2803 91.3267 80.9507 91.2959 80.6167 91.2124C80.2827 91.1333 79.9663 91.019 79.6675 90.8652V89.5249C80.0322 89.7842 80.3398 89.9512 80.6738 90.0742C80.999 90.1929 81.3154 90.2544 81.623 90.2544C81.957 90.2544 82.1987 90.1797 82.3745 90.0347C82.5503 89.8896 82.6382 89.6875 82.6382 89.4282C82.6382 89.2305 82.5811 89.0547 82.4624 88.9097C82.3394 88.7559 82.1636 88.646 81.9526 88.5625L81.3154 88.3208C80.6431 88.0615 80.2168 87.8022 79.9883 87.5342C79.7554 87.2661 79.6411 86.897 79.6411 86.4312C79.6411 85.8335 79.8301 85.3677 80.2124 85.0293C80.5947 84.6909 81.1177 84.5195 81.7769 84.5195C82.0933 84.5195 82.4097 84.5547 82.6865 84.6206C82.9634 84.6865 83.2798 84.7876 83.583 84.9282V86.1938C83.3062 85.9961 83.0249 85.8467 82.7349 85.7456C82.4448 85.6445 82.1592 85.5918 81.8779 85.5918C81.5659 85.5918 81.3242 85.6533 81.1616 85.7808C80.9946 85.9082 80.9111 86.0884 80.9111 86.3169C80.9111 86.5015 80.9727 86.6509 81.0957 86.7695C81.2144 86.8882 81.4209 87.0024 81.856 87.165L82.4141 87.376C82.9458 87.5737 83.3325 87.8286 83.5786 88.1406C83.8291 88.4614 83.9521 88.8701 83.9521 89.3755C83.9521 90.0215 83.7544 90.5093 83.3633 90.8345C82.9678 91.1641 82.3921 91.3267 81.6318 91.3267ZM89.2124 91.2168H88.1313C87.3887 91.2168 86.8921 91.0981 86.6328 90.8608C86.3735 90.6279 86.2417 90.1885 86.2417 89.5513V87.2661H84.9849V86.2773H86.2417V84.9326L87.5293 84.3613V86.2773H89.2124V87.2661H87.5293V89.6128C87.5293 89.8281 87.582 89.9863 87.6919 90.083C87.8105 90.1885 87.9907 90.228 88.2236 90.228H89.2124V91.2168Z" fill="#2D7CB9"/>
<path d="M58.8981 67.1176C58.8981 67.1176 55.6063 74.237 53.7691 77.2991C53.5394 77.7585 53.5394 78.2178 53.8456 78.6005C54.1518 78.8302 54.6111 79.213 55.2236 79.5192C55.836 79.902 56.2188 80.0551 56.6781 80.2082C58.2091 80.5909 59.5105 79.8254 59.8933 79.6723C60.2761 79.4426 60.8119 79.1364 61.3478 78.4474L58.8981 67.041V67.1176Z" fill="#9981C8" stroke="#434343" stroke-width="0.3" stroke-miterlimit="10"/>
<path d="M51.7788 75.1561C50.7836 73.3954 47.798 67.3477 47.798 67.3477C47.798 67.3477 45.9607 74.3906 45.4249 77.6058C46.3435 79.9024 49.176 81.7397 51.396 79.9789C54.2285 78.0651 53.0802 77.8354 51.8553 75.3857V75.2326L51.7788 75.1561Z" fill="#9981C8" stroke="#434343" stroke-width="0.3" stroke-miterlimit="10"/>
<path d="M54.6113 57.7768C54.152 57.7768 53.8458 57.5472 53.6162 57.241C53.3865 56.8582 53.3099 56.2458 53.6162 55.7865C53.7693 55.3271 54.152 54.9444 54.4582 54.5616C54.6113 54.4085 54.7644 54.2554 54.841 54.1023C55.53 53.1071 55.1472 51.3464 54.7644 50.5043C54.0755 48.8967 53.7693 47.9015 54.2286 47.4422C54.3817 47.2891 54.5348 47.2891 54.7644 47.2891C54.9941 47.2891 54.9176 47.2891 54.9176 47.2891C55.3003 47.2891 55.6831 47.5187 56.5252 48.7436C56.9079 49.2794 57.2907 49.8919 57.5969 50.5043V50.6574C57.6735 50.6574 57.8266 50.8105 57.8266 50.8105C58.8983 52.3416 60.0466 53.9492 58.5156 55.7099C58.3624 55.9396 58.2093 56.2458 58.0562 56.4754C57.9031 56.7817 57.75 57.0113 57.5204 57.241C57.061 57.7003 56.4486 57.7768 55.8362 57.7768H55.1472C54.9941 57.7768 54.7644 57.7768 54.6113 57.7768Z" fill="#9981C8"/>
<path d="M54.7644 47.3664H54.9175C55.2237 47.3664 55.6065 47.5195 56.4486 48.7443C56.7548 49.2037 57.1376 49.7395 57.5203 50.5051V50.6582C58.7452 52.1892 59.97 53.7968 58.439 55.6341C58.0562 56.17 57.8265 56.7824 57.4438 57.2417C57.061 57.6245 56.4486 57.7011 55.8362 57.7011C55.2237 57.7011 55.3768 57.7011 55.1472 57.7011C54.9175 57.7011 54.7644 57.7011 54.6113 57.7011C54.6113 57.7011 54.6113 57.7011 54.5348 57.7011C53.6161 57.7011 53.2334 56.6293 53.6161 55.8638C53.8458 55.1748 54.4582 54.7155 54.841 54.1031C55.53 53.1079 55.2237 51.4237 54.841 50.4285C54.2285 48.8974 53.9223 47.9023 54.3051 47.5195C54.4582 47.3664 54.6113 47.3664 54.7644 47.3664ZM54.7644 47.1367C54.4582 47.1367 54.3051 47.1367 54.152 47.3664C53.6161 47.8257 53.9223 48.8209 54.6113 50.5051C54.9941 51.3471 55.3768 53.0313 54.6879 53.95C54.5348 54.1031 54.4582 54.2562 54.3051 54.4093C53.9989 54.792 53.6161 55.1748 53.463 55.7107C53.2334 56.17 53.2334 56.859 53.463 57.2417C53.6927 57.6245 54.0754 57.8542 54.5348 57.8542C54.9941 57.8542 54.5348 57.8542 54.6113 57.8542C54.7644 57.8542 54.9175 57.8542 55.1472 57.8542C55.3768 57.8542 55.3768 57.8542 55.4534 57.8542C55.6065 57.8542 55.6831 57.8542 55.8362 57.8542C56.4486 57.8542 57.061 57.8542 57.5969 57.3183C57.8265 57.0886 57.9797 56.7824 58.1328 56.4762C58.2859 56.2465 58.439 55.9403 58.5921 55.7107C60.1997 53.8734 58.9748 52.1892 57.9031 50.6582L57.75 50.5051V50.352C57.3672 49.7395 56.9845 49.1271 56.6017 48.5912C55.7596 47.3664 55.2237 47.1367 54.9175 47.1367C54.9175 47.1367 54.841 47.1367 54.7644 47.1367Z" fill="#434343"/>
<path d="M51.0133 57.7776C50.7836 57.7776 50.6305 57.7776 50.4008 57.7776H50.0181C49.4822 57.7776 48.9463 57.7776 48.5636 57.4714C48.1808 57.0886 47.9511 56.6293 47.6449 56.2465C47.4918 55.9403 47.2622 55.5576 47.0325 55.2514C46.267 54.1796 46.4201 52.8782 47.5684 51.3471C47.9511 50.8878 48.2574 50.352 48.5636 49.8161C49.0994 48.8209 49.7119 47.7491 50.7836 47.2133C50.9367 47.2133 51.0898 47.1367 51.1664 47.1367C51.5491 47.1367 51.8554 47.5195 51.8554 47.9788C51.8554 48.7443 51.6257 49.3568 51.3195 49.9692C51.1664 50.2754 51.0133 50.6582 50.9367 50.9644C50.6305 51.883 50.6305 52.8782 50.8602 53.6437C51.0133 54.1031 51.396 54.5624 51.7023 54.8686C51.9319 55.1748 52.2381 55.481 52.3147 55.7872V55.9403C52.5443 56.4762 52.4678 56.9355 52.2381 57.3183C52.0085 57.6245 51.6257 57.7776 51.1664 57.7776C51.1664 57.7776 51.0898 57.7776 51.0133 57.7776Z" fill="#9981C8"/>
<path d="M51.243 47.2894C51.6258 47.2894 51.7789 47.6722 51.8554 48.0549C51.8554 49.1267 51.1664 49.9688 50.9368 50.9639C50.6306 51.806 50.554 52.8012 50.9368 53.7199C51.243 54.6385 52.1616 55.2509 52.3913 55.8634V56.0165C52.6975 56.9351 52.3913 57.7006 51.3195 57.7006C50.2478 57.7006 51.243 57.7006 51.1664 57.7006C50.9368 57.7006 50.7837 57.7006 50.554 57.7006C50.3244 57.7006 50.3244 57.7006 50.1713 57.7006C49.6354 57.7006 49.1761 57.7006 48.7933 57.471C48.1043 56.8585 47.8747 56.0165 47.3388 55.3275C46.4201 54.1026 47.0326 52.6481 47.8747 51.5764C48.9464 50.275 49.4057 48.2846 51.0133 47.5191C51.1664 47.5191 51.243 47.4425 51.3195 47.4425M51.243 47.0597C51.0899 47.0597 50.9368 47.0597 50.7837 47.1363C49.7119 47.6722 49.0995 48.7439 48.5636 49.7391C48.2574 50.275 47.9512 50.8108 47.645 51.2702C46.4201 52.8012 46.267 54.1792 47.1091 55.2509C47.3388 55.5571 47.5684 55.8634 47.7215 56.1696C47.9512 56.6289 48.1809 57.0882 48.6402 57.3944C49.0995 57.7006 49.6354 57.7006 50.1713 57.7006H50.3244H50.4775C50.7071 57.7006 50.8602 57.7006 51.0899 57.7006H51.243C51.7789 57.7006 52.1616 57.5475 52.3913 57.1648C52.6975 56.782 52.6975 56.2461 52.5444 55.7102V55.5571C52.3913 55.2509 52.1616 54.9447 51.8554 54.6385C51.5492 54.2557 51.1664 53.873 51.0899 53.4137C50.8602 52.6481 50.8602 51.7295 51.0899 50.8108C51.1664 50.5046 51.3195 50.1984 51.4727 49.8157C51.7789 49.2032 52.0851 48.5908 52.0085 47.8253C52.0085 47.2128 51.6258 46.8301 51.1664 46.8301L51.243 47.0597Z" fill="#434343"/>
<path d="M52.8506 46.9825C52.4678 46.9825 52.2382 46.5997 51.8554 46.1404C51.6257 45.8342 51.3961 45.2217 51.1664 44.6093C50.7071 43.5376 50.0947 42.2362 49.7119 42.0065C49.4823 41.8534 49.0995 41.7768 48.7933 41.7003C48.4871 41.6237 48.1809 41.4706 47.8746 41.3941C42.7456 39.0209 40.0662 33.8919 41.138 28.2269C42.2097 22.562 46.4967 18.7343 52.1616 18.3516C52.3913 18.3516 52.6975 18.3516 52.9272 18.3516C56.2955 18.3516 59.5873 19.8061 61.8839 22.3323C64.1805 24.8586 65.3288 28.3035 64.946 31.6718C64.4867 36.1885 61.348 40.2458 57.061 41.7768C56.9079 41.7768 56.7548 41.8534 56.5252 41.9299C56.1424 42.0065 55.6065 42.1596 55.53 42.2362C55.3769 42.3893 55.1472 42.8486 55.0706 43.0782C54.841 43.5376 54.6879 43.9969 54.5348 44.4562C54.3051 45.0686 54.0754 45.7576 53.7692 46.2935C53.463 46.7528 53.2334 47.059 52.9272 47.059L52.8506 46.9825Z" fill="#2D7CB9"/>
<path d="M52.9271 18.4289C59.97 18.4289 65.5584 24.5531 64.8694 31.596C64.4101 36.1127 61.2714 40.0934 57.061 41.6245C56.7548 41.7776 55.6065 42.0073 55.4534 42.1604C55.3003 42.3135 55.0706 42.8493 54.9175 43.0025C54.4582 43.9976 54.152 45.2225 53.6161 46.2177C53.3864 46.677 53.0802 46.9067 52.9271 46.9067C52.774 46.9067 52.3913 46.6005 52.085 46.0646C51.5492 45.2225 50.554 42.3135 49.865 41.9307C49.3291 41.701 48.6401 41.5479 48.0277 41.2417C36.851 36.1127 39.9131 19.1944 52.2381 18.4289C52.4678 18.4289 52.774 18.4289 53.0037 18.4289M52.9271 18.1992C52.6975 18.1992 52.3913 18.1992 52.1616 18.1992C46.4201 18.582 42.0566 22.4862 40.9848 28.1511C39.9131 33.8161 42.5924 39.0982 47.7981 41.4714C48.1043 41.6245 48.4105 41.701 48.7167 41.7776C49.0229 41.8542 49.3291 42.0073 49.6353 42.0838C50.0181 42.3135 50.6305 43.6149 51.0898 44.6101C51.3961 45.2225 51.6257 45.8349 51.8554 46.1411C52.2381 46.677 52.5444 47.0598 52.9271 47.0598C53.3099 47.0598 53.6927 46.6005 53.8458 46.2942C54.152 45.7584 54.3816 45.0694 54.6113 44.457C54.7644 43.9976 54.9175 43.5383 55.1472 43.079C55.3768 42.6197 55.5299 42.39 55.6065 42.3135C55.683 42.3135 56.2955 42.0838 56.6017 42.0073C56.8313 42.0073 57.061 41.8542 57.2141 41.8542C61.5776 40.3231 64.7163 36.1892 65.1756 31.6726C65.4818 28.2277 64.4101 24.7828 62.037 22.2565C59.7404 19.7303 56.4486 18.2758 53.0037 18.2758L52.9271 18.1992Z" fill="#424342"/>
<path d="M44.2001 30.8297C44.2001 30.8297 44.3532 30.8297 44.3532 30.9063C44.4298 30.9828 44.736 32.3608 44.8125 32.667C45.6546 35.3464 47.9512 38.0257 50.7071 39.0209C54.9176 40.552 58.8983 37.1071 60.0466 33.1263C60.1232 32.9732 60.4294 32.9732 60.4294 33.1263C60.4294 33.2794 60.0466 34.3512 59.9701 34.5808C58.3625 38.1788 54.4582 40.7816 50.4775 39.3271C46.4967 37.8726 44.5829 34.5808 44.047 31.289C43.5111 27.9973 43.8939 30.6766 44.2001 30.6766V30.8297Z" fill="#F5B758"/>
<path d="M53.2334 27.002C53.999 27.002 54.9176 27.002 55.6066 27.3847C56.7549 27.9206 57.2142 28.9923 58.4391 29.4517C59.6639 29.911 59.4342 29.6048 59.5874 29.8344C59.7405 30.1406 58.9749 30.2172 58.8218 30.2937C57.9797 30.6765 57.9032 31.2124 57.2908 31.7483C56.219 32.7434 53.7693 33.6621 52.3148 33.509C50.8603 33.3559 47.9513 31.7483 47.1092 31.0593C46.2671 30.3703 47.4919 30.4468 47.9513 30.2937C48.8699 29.911 49.1761 29.1454 49.8651 28.533C50.5541 27.9206 52.0086 27.1551 53.1569 27.0785L53.2334 27.002Z" fill="#B14B94" stroke="#424342" stroke-width="0.3" stroke-miterlimit="10"/>
<path d="M53.3098 58.2363H57.3671L56.9843 60.3798H53.616L53.3098 58.2363Z" fill="#66CDC1" stroke="#424342" stroke-width="0.3" stroke-miterlimit="10"/>
<path d="M48.5635 66.6564L48.8697 58.3887L52.8505 58.4652L52.927 66.5799L48.5635 66.6564Z" fill="#66CDC1" stroke="#424342" stroke-width="0.3" stroke-miterlimit="10"/>
<path d="M53.3862 66.5048V60.8398H57.4435L58.0559 66.5813L53.3862 66.5048Z" fill="#B14B94" stroke="#424342" stroke-width="0.3" stroke-miterlimit="10"/>
<path d="M53.0035 67.0391V76.0723L48.4869 67.0391H53.0035Z" fill="#B14B94" stroke="#424342" stroke-width="0.3" stroke-miterlimit="10"/>
<path d="M53.616 67.1156L53.5394 76.0723L58.1326 67.0391L53.616 67.1156Z" fill="#66CDC1" stroke="#424342" stroke-width="0.3" stroke-miterlimit="10"/>
<path d="M51.5491 28.3809C51.4726 28.4574 50.6305 29.1464 50.6305 30.2947C50.6305 31.5195 51.4726 32.2085 51.5491 32.2851" stroke="#424342" stroke-width="0.3" stroke-miterlimit="10" stroke-linecap="round"/>
<path d="M54.7645 28.3809C54.841 28.4574 55.6831 29.1464 55.6831 30.2947C55.6831 31.5195 54.841 32.2085 54.7645 32.2851" stroke="#424342" stroke-width="0.3" stroke-miterlimit="10" stroke-linecap="round"/>
</svg>
