<svg width="104" height="104" viewBox="0 0 104 104" fill="none" xmlns="http://www.w3.org/2000/svg">
<rect x="1" y="1" width="102" height="102" rx="9" fill="#F5B758"/>
<rect x="1" y="1" width="102" height="102" rx="9" stroke="#C0282D" stroke-width="2"/>
<path d="M15.7114 90.3267C14.9907 90.3267 14.4766 90.1421 14.125 89.8125C13.7515 89.4653 13.5669 88.9731 13.5669 88.3799C13.5669 87.936 13.6724 87.6021 13.8789 87.3164C14.0854 87.0308 14.3755 86.833 14.7446 86.7231C14.415 86.6089 14.1602 86.4287 13.9888 86.1826C13.8174 85.9365 13.7295 85.6465 13.7295 85.2729C13.7295 84.7412 13.9053 84.3105 14.2612 83.9941C14.6172 83.6777 15.0962 83.5195 15.707 83.5195C16.3179 83.5195 16.8013 83.6777 17.1572 83.9941C17.5132 84.3105 17.689 84.7368 17.689 85.2773C17.689 85.6377 17.6055 85.9365 17.4341 86.1782C17.2627 86.4243 17.0166 86.6045 16.6914 86.7231C17.0474 86.833 17.333 87.0308 17.5439 87.3208C17.7505 87.6064 17.8516 87.9404 17.8516 88.3799C17.8516 88.9731 17.667 89.4653 17.2935 89.8125C16.9199 90.1553 16.3926 90.3267 15.7114 90.3267ZM15.707 86.231C15.9663 86.231 16.1685 86.1562 16.3179 86.0024C16.4629 85.8486 16.5376 85.6465 16.5376 85.396C16.5376 85.1367 16.4629 84.9302 16.3179 84.7852C16.1816 84.6489 15.9751 84.5654 15.707 84.5654C15.4565 84.5654 15.2544 84.6401 15.105 84.7896C14.9556 84.939 14.8809 85.1411 14.8809 85.396C14.8809 85.6465 14.9556 85.8486 15.105 86.0024C15.2632 86.165 15.4609 86.231 15.707 86.231ZM15.707 89.2808C15.9883 89.2808 16.2344 89.1929 16.4146 89.0039C16.5859 88.8325 16.6826 88.5776 16.6826 88.2656C16.6826 87.9712 16.5947 87.7339 16.4146 87.5449C16.252 87.3735 16.019 87.2725 15.707 87.2725C15.4258 87.2725 15.1841 87.356 15.0039 87.5449C14.8237 87.7251 14.7358 87.9668 14.7358 88.27C14.7358 88.5688 14.8237 88.8193 15.0039 89.0083C15.1621 89.1709 15.4082 89.2808 15.707 89.2808ZM23.1382 90.2168H22.0571C21.3145 90.2168 20.8179 90.0981 20.5586 89.8608C20.2993 89.6279 20.1675 89.1885 20.1675 88.5513V86.2661H18.9106V85.2773H20.1675V83.9326L21.4551 83.3613V85.2773H23.1382V86.2661H21.4551V88.6128C21.4551 88.8281 21.5078 88.9863 21.6177 89.083C21.7363 89.1885 21.9165 89.228 22.1494 89.228H23.1382V90.2168ZM24.6016 90.1992V83.3613H25.8804V86.0156C25.9727 85.7432 26.1309 85.5322 26.3462 85.3828C26.5659 85.2334 26.834 85.1587 27.146 85.1587C27.6074 85.1587 27.959 85.3125 28.1963 85.6201C28.4336 85.9321 28.5522 86.3936 28.5522 87.0044V90.1992H27.2734V87.2021C27.2734 86.8462 27.2251 86.5957 27.124 86.4419C27.0229 86.2881 26.8516 86.2134 26.6362 86.2134C26.3945 86.2134 26.21 86.3145 26.0781 86.521C25.9463 86.7275 25.8804 87.0176 25.8804 87.3823V90.1992H24.6016ZM37.0513 90.3267C36.4053 90.3267 35.8735 90.1333 35.4648 89.751C35.0562 89.3687 34.854 88.8721 34.854 88.2568C34.854 87.7998 34.9595 87.4351 35.166 87.0967C35.377 86.7451 35.6758 86.4507 36.0845 86.187C35.9263 85.9365 35.8252 85.7256 35.7593 85.5498C35.689 85.3564 35.6538 85.1807 35.6538 84.9741C35.6538 84.5303 35.812 84.1611 36.1328 83.9019C36.4536 83.647 36.915 83.5195 37.5171 83.5195C37.7412 83.5195 37.939 83.5371 38.1455 83.5679C38.3784 83.603 38.5454 83.6426 38.752 83.7085V84.8335C38.5894 84.7412 38.3564 84.6401 38.1851 84.5918C38.0137 84.5435 37.8027 84.5127 37.605 84.5127C37.3809 84.5127 37.1963 84.5522 37.0776 84.6357C36.959 84.7192 36.8975 84.8379 36.8975 84.9873C36.8975 85.106 36.9326 85.2334 37.0337 85.4312C37.126 85.6201 37.2534 85.8354 37.4644 86.1562L38.8398 88.2656C38.9058 88.1514 38.9497 88.0239 38.9805 87.8833C39.0112 87.7295 39.0288 87.5757 39.0288 87.4175C39.0288 87.334 39.0244 87.2329 39.02 87.1582C39.0156 87.0703 39.0112 87.0264 38.9937 86.9253H40.0264V87.1494C40.0264 87.5801 39.978 87.9492 39.877 88.2612C39.7759 88.5864 39.6177 88.8721 39.4067 89.1182L40.1187 90.1992H38.7256L38.5146 89.8828C38.2861 90.0366 38.0752 90.1289 37.8159 90.2124C37.5698 90.2871 37.3457 90.3267 37.0513 90.3267ZM37.2402 89.2896C37.3281 89.2896 37.3853 89.2808 37.4863 89.2588C37.5698 89.2412 37.6313 89.228 37.7368 89.1797L37.772 89.1621C37.8906 89.1006 37.9082 89.0962 37.9785 89.0479L36.625 86.9868C36.4316 87.1143 36.2866 87.2637 36.1899 87.4351C36.0889 87.6064 36.0405 87.8042 36.0405 88.0283C36.0405 88.415 36.1855 88.7095 36.3833 88.9204C36.6162 89.1665 36.9019 89.2896 37.2402 89.2896ZM46.5259 90.1992V83.6382H47.8223V89.0566H50.5952V90.1992H46.5259ZM53.0737 90.3267C52.6343 90.3267 52.2739 90.1904 52.0234 89.8608C51.7817 89.5488 51.6631 89.0918 51.6631 88.481V85.2773H52.9507V88.2832C52.9507 88.6392 52.999 88.8896 53.1001 89.0435C53.2012 89.1973 53.3726 89.272 53.5879 89.272C53.812 89.272 54.001 89.1885 54.1416 88.9644C54.269 88.7578 54.335 88.4678 54.335 88.103V85.2773H55.6226V90.1992H54.4624L54.335 89.4697C54.2427 89.7422 54.0889 89.9531 53.8735 90.1025C53.6538 90.252 53.3857 90.3267 53.0737 90.3267ZM59.4678 90.3267C58.6987 90.3267 58.1011 90.0981 57.6748 89.6411C57.2485 89.1797 57.0332 88.5469 57.0332 87.7427C57.0332 86.9341 57.2485 86.2969 57.6792 85.8354C58.1099 85.3784 58.7031 85.1499 59.4546 85.1499C59.7227 85.1499 59.9819 85.1807 60.228 85.2422C60.4697 85.3037 60.7158 85.4004 60.9575 85.5278V86.7056C60.7686 86.543 60.5488 86.4155 60.3423 86.332C60.1357 86.2485 59.8896 86.2046 59.6392 86.2046C59.1997 86.2046 58.8921 86.3452 58.6768 86.6045C58.4526 86.8726 58.3384 87.2549 58.3384 87.7427C58.3384 88.2305 58.4526 88.6084 58.6768 88.8765C58.9009 89.1401 59.2217 89.272 59.6436 89.272C59.8896 89.272 60.1226 89.228 60.3423 89.1445C60.5312 89.0742 60.751 88.9556 60.9575 88.7666V89.9487C60.7246 90.085 60.5049 90.1641 60.2588 90.23C60.0127 90.2959 59.771 90.3267 59.4678 90.3267ZM63.9766 90.3267C63.4448 90.3267 63.0098 90.1816 62.6934 89.8828C62.3813 89.5884 62.2231 89.1753 62.2231 88.6436C62.2231 88.0811 62.3945 87.6504 62.7812 87.3691C63.1548 87.0967 63.7305 86.9604 64.5083 86.9604H65.4004V86.7451C65.4004 86.5298 65.3169 86.3716 65.1763 86.2705C65.0225 86.1606 64.7896 86.1123 64.4863 86.1123C64.2051 86.1123 63.9019 86.1519 63.6162 86.2266C63.335 86.3013 63.0273 86.4287 62.7109 86.6001V85.5015C62.957 85.4004 63.2822 85.2949 63.5767 85.2422C63.8184 85.1938 64.1787 85.1543 64.5654 85.1543C65.3872 85.1543 65.8794 85.3564 66.187 85.6509C66.5034 85.9673 66.6792 86.4551 66.6792 87.3691C66.6792 87.6943 66.6572 88.7798 66.6572 88.9951C66.6572 89.1182 66.6616 89.25 66.666 89.3335C66.6792 89.4521 66.6836 89.5752 66.6968 89.6499C66.7144 89.7686 66.7407 89.8872 66.7583 89.9443C66.7891 90.0322 66.833 90.1333 66.8813 90.1992H65.6069C65.5542 90.1113 65.5059 90.0103 65.4839 89.9443C65.4663 89.8872 65.4399 89.7686 65.4268 89.6499C65.2642 89.8652 65.0576 90.0322 64.8027 90.1509C64.5566 90.2695 64.3105 90.3267 63.9766 90.3267ZM64.3369 89.4346C64.6665 89.4346 64.9302 89.3115 65.1191 89.0479C65.3081 88.7974 65.4004 88.437 65.4004 87.9756V87.8877H64.8862C64.4028 87.8877 64.0688 87.9492 63.8799 88.0723C63.6909 88.1953 63.5942 88.4019 63.5942 88.6963C63.5942 88.938 63.6558 89.1006 63.792 89.2368C63.9238 89.3687 64.104 89.4346 64.3369 89.4346ZM69.9355 90.3267C69.6367 90.3267 69.3071 90.3003 69.0083 90.252C68.7095 90.2036 68.3843 90.1201 68.0635 90.019V88.894C68.3491 89.0566 68.6392 89.1797 68.9336 89.2632C69.2324 89.3467 69.5005 89.3906 69.7993 89.3906C70.0894 89.3906 70.3135 89.3467 70.4717 89.2588C70.6255 89.1709 70.7046 89.0566 70.7046 88.8501C70.7046 88.7139 70.6738 88.6084 70.5332 88.5029C70.3926 88.3975 70.1553 88.3052 69.7554 88.2173L69.3994 88.1382C68.9072 88.0283 68.5469 87.8525 68.3228 87.6152C68.0986 87.3735 67.9844 87.0615 67.9844 86.6704C67.9844 86.1914 68.1558 85.8179 68.4985 85.5542C68.8413 85.2905 69.3247 85.1587 69.9487 85.1587C70.23 85.1587 70.5376 85.1851 70.7793 85.2246C71.021 85.2642 71.3374 85.3433 71.5835 85.4312V86.5562C71.3418 86.4023 71.0781 86.2793 70.8452 86.209C70.6123 86.1387 70.3398 86.0947 70.0542 86.0947C69.7905 86.0947 69.5796 86.1299 69.4258 86.2178C69.272 86.3013 69.2017 86.4331 69.2017 86.5693C69.2017 86.833 69.4873 87.0088 70.1421 87.1626L70.1904 87.1758L70.5596 87.2637C71.021 87.3735 71.3682 87.5493 71.5923 87.7998C71.8164 88.0503 71.9175 88.4019 71.9175 88.8062C71.9175 89.3115 71.7505 89.6938 71.4209 89.9443C71.0869 90.2036 70.5815 90.3267 69.9355 90.3267ZM80.6318 90.3267C80.2803 90.3267 79.9507 90.2959 79.6167 90.2124C79.2827 90.1333 78.9663 90.019 78.6675 89.8652V88.5249C79.0322 88.7842 79.3398 88.9512 79.6738 89.0742C79.999 89.1929 80.3154 89.2544 80.623 89.2544C80.957 89.2544 81.1987 89.1797 81.3745 89.0347C81.5503 88.8896 81.6382 88.6875 81.6382 88.4282C81.6382 88.2305 81.5811 88.0547 81.4624 87.9097C81.3394 87.7559 81.1636 87.646 80.9526 87.5625L80.3154 87.3208C79.6431 87.0615 79.2168 86.8022 78.9883 86.5342C78.7554 86.2661 78.6411 85.897 78.6411 85.4312C78.6411 84.8335 78.8301 84.3677 79.2124 84.0293C79.5947 83.6909 80.1177 83.5195 80.7769 83.5195C81.0933 83.5195 81.4097 83.5547 81.6865 83.6206C81.9634 83.6865 82.2798 83.7876 82.583 83.9282V85.1938C82.3062 84.9961 82.0249 84.8467 81.7349 84.7456C81.4448 84.6445 81.1592 84.5918 80.8779 84.5918C80.5659 84.5918 80.3242 84.6533 80.1616 84.7808C79.9946 84.9082 79.9111 85.0884 79.9111 85.3169C79.9111 85.5015 79.9727 85.6509 80.0957 85.7695C80.2144 85.8882 80.4209 86.0024 80.856 86.165L81.4141 86.376C81.9458 86.5737 82.3325 86.8286 82.5786 87.1406C82.8291 87.4614 82.9521 87.8701 82.9521 88.3755C82.9521 89.0215 82.7544 89.5093 82.3633 89.8345C81.9678 90.1641 81.3921 90.3267 80.6318 90.3267ZM88.2124 90.2168H87.1313C86.3887 90.2168 85.8921 90.0981 85.6328 89.8608C85.3735 89.6279 85.2417 89.1885 85.2417 88.5513V86.2661H83.9849V85.2773H85.2417V83.9326L86.5293 83.3613V85.2773H88.2124V86.2661H86.5293V88.6128C86.5293 88.8281 86.582 88.9863 86.6919 89.083C86.8105 89.1885 86.9907 89.228 87.2236 89.228H88.2124V90.2168Z" fill="#2D7CB9"/>
<path d="M57.8981 66.1176C57.8981 66.1176 54.6063 73.237 52.7691 76.2991C52.5394 76.7585 52.5394 77.2178 52.8456 77.6005C53.1518 77.8302 53.6111 78.213 54.2236 78.5192C54.836 78.902 55.2188 79.0551 55.6781 79.2082C57.2091 79.5909 58.5105 78.8254 58.8933 78.6723C59.2761 78.4426 59.8119 78.1364 60.3478 77.4474L57.8981 66.041V66.1176Z" fill="#9981C8" stroke="#434343" stroke-width="0.3" stroke-miterlimit="10"/>
<path d="M50.7788 74.1561C49.7836 72.3954 46.798 66.3477 46.798 66.3477C46.798 66.3477 44.9607 73.3906 44.4249 76.6058C45.3435 78.9024 48.176 80.7397 50.396 78.9789C53.2285 77.0651 52.0802 76.8354 50.8553 74.3857V74.2326L50.7788 74.1561Z" fill="#9981C8" stroke="#434343" stroke-width="0.3" stroke-miterlimit="10"/>
<path d="M53.6113 56.7768C53.152 56.7768 52.8458 56.5472 52.6162 56.241C52.3865 55.8582 52.3099 55.2458 52.6162 54.7865C52.7693 54.3271 53.152 53.9444 53.4582 53.5616C53.6113 53.4085 53.7644 53.2554 53.841 53.1023C54.53 52.1071 54.1472 50.3464 53.7644 49.5043C53.0755 47.8967 52.7693 46.9015 53.2286 46.4422C53.3817 46.2891 53.5348 46.2891 53.7644 46.2891C53.9941 46.2891 53.9176 46.2891 53.9176 46.2891C54.3003 46.2891 54.6831 46.5187 55.5252 47.7436C55.9079 48.2794 56.2907 48.8919 56.5969 49.5043V49.6574C56.6735 49.6574 56.8266 49.8105 56.8266 49.8105C57.8983 51.3416 59.0466 52.9492 57.5156 54.7099C57.3624 54.9396 57.2093 55.2458 57.0562 55.4754C56.9031 55.7817 56.75 56.0113 56.5204 56.241C56.061 56.7003 55.4486 56.7768 54.8362 56.7768H54.1472C53.9941 56.7768 53.7644 56.7768 53.6113 56.7768Z" fill="#9981C8"/>
<path d="M53.7644 46.3664H53.9175C54.2237 46.3664 54.6065 46.5195 55.4486 47.7443C55.7548 48.2037 56.1376 48.7395 56.5203 49.5051V49.6582C57.7452 51.1892 58.97 52.7968 57.439 54.6341C57.0562 55.17 56.8265 55.7824 56.4438 56.2417C56.061 56.6245 55.4486 56.7011 54.8362 56.7011C54.2237 56.7011 54.3768 56.7011 54.1472 56.7011C53.9175 56.7011 53.7644 56.7011 53.6113 56.7011C53.6113 56.7011 53.6113 56.7011 53.5348 56.7011C52.6161 56.7011 52.2334 55.6293 52.6161 54.8638C52.8458 54.1748 53.4582 53.7155 53.841 53.1031C54.53 52.1079 54.2237 50.4237 53.841 49.4285C53.2285 47.8974 52.9223 46.9023 53.3051 46.5195C53.4582 46.3664 53.6113 46.3664 53.7644 46.3664ZM53.7644 46.1367C53.4582 46.1367 53.3051 46.1367 53.152 46.3664C52.6161 46.8257 52.9223 47.8209 53.6113 49.5051C53.9941 50.3471 54.3768 52.0313 53.6879 52.95C53.5348 53.1031 53.4582 53.2562 53.3051 53.4093C52.9989 53.792 52.6161 54.1748 52.463 54.7107C52.2334 55.17 52.2334 55.859 52.463 56.2417C52.6927 56.6245 53.0754 56.8542 53.5348 56.8542C53.9941 56.8542 53.5348 56.8542 53.6113 56.8542C53.7644 56.8542 53.9175 56.8542 54.1472 56.8542C54.3768 56.8542 54.3768 56.8542 54.4534 56.8542C54.6065 56.8542 54.6831 56.8542 54.8362 56.8542C55.4486 56.8542 56.061 56.8542 56.5969 56.3183C56.8265 56.0886 56.9797 55.7824 57.1328 55.4762C57.2859 55.2465 57.439 54.9403 57.5921 54.7107C59.1997 52.8734 57.9748 51.1892 56.9031 49.6582L56.75 49.5051V49.352C56.3672 48.7395 55.9845 48.1271 55.6017 47.5912C54.7596 46.3664 54.2237 46.1367 53.9175 46.1367C53.9175 46.1367 53.841 46.1367 53.7644 46.1367Z" fill="#434343"/>
<path d="M50.0133 56.7776C49.7836 56.7776 49.6305 56.7776 49.4008 56.7776H49.0181C48.4822 56.7776 47.9463 56.7776 47.5636 56.4714C47.1808 56.0886 46.9511 55.6293 46.6449 55.2465C46.4918 54.9403 46.2622 54.5576 46.0325 54.2514C45.267 53.1796 45.4201 51.8782 46.5684 50.3471C46.9511 49.8878 47.2574 49.352 47.5636 48.8161C48.0994 47.8209 48.7119 46.7491 49.7836 46.2133C49.9367 46.2133 50.0898 46.1367 50.1664 46.1367C50.5491 46.1367 50.8554 46.5195 50.8554 46.9788C50.8554 47.7443 50.6257 48.3568 50.3195 48.9692C50.1664 49.2754 50.0133 49.6582 49.9367 49.9644C49.6305 50.883 49.6305 51.8782 49.8602 52.6437C50.0133 53.1031 50.396 53.5624 50.7023 53.8686C50.9319 54.1748 51.2381 54.481 51.3147 54.7872V54.9403C51.5443 55.4762 51.4678 55.9355 51.2381 56.3183C51.0085 56.6245 50.6257 56.7776 50.1664 56.7776C50.1664 56.7776 50.0898 56.7776 50.0133 56.7776Z" fill="#9981C8"/>
<path d="M50.243 46.2894C50.6258 46.2894 50.7789 46.6722 50.8554 47.0549C50.8554 48.1267 50.1664 48.9688 49.9368 49.9639C49.6306 50.806 49.554 51.8012 49.9368 52.7199C50.243 53.6385 51.1616 54.2509 51.3913 54.8634V55.0165C51.6975 55.9351 51.3913 56.7006 50.3195 56.7006C49.2478 56.7006 50.243 56.7006 50.1664 56.7006C49.9368 56.7006 49.7837 56.7006 49.554 56.7006C49.3244 56.7006 49.3244 56.7006 49.1713 56.7006C48.6354 56.7006 48.1761 56.7006 47.7933 56.471C47.1043 55.8585 46.8747 55.0165 46.3388 54.3275C45.4201 53.1026 46.0326 51.6481 46.8747 50.5764C47.9464 49.275 48.4057 47.2846 50.0133 46.5191C50.1664 46.5191 50.243 46.4425 50.3195 46.4425M50.243 46.0597C50.0899 46.0597 49.9368 46.0597 49.7837 46.1363C48.7119 46.6722 48.0995 47.7439 47.5636 48.7391C47.2574 49.275 46.9512 49.8108 46.645 50.2702C45.4201 51.8012 45.267 53.1792 46.1091 54.2509C46.3388 54.5571 46.5684 54.8634 46.7215 55.1696C46.9512 55.6289 47.1809 56.0882 47.6402 56.3944C48.0995 56.7006 48.6354 56.7006 49.1713 56.7006H49.3244H49.4775C49.7071 56.7006 49.8602 56.7006 50.0899 56.7006H50.243C50.7789 56.7006 51.1616 56.5475 51.3913 56.1648C51.6975 55.782 51.6975 55.2461 51.5444 54.7102V54.5571C51.3913 54.2509 51.1616 53.9447 50.8554 53.6385C50.5492 53.2557 50.1664 52.873 50.0899 52.4137C49.8602 51.6481 49.8602 50.7295 50.0899 49.8108C50.1664 49.5046 50.3195 49.1984 50.4727 48.8157C50.7789 48.2032 51.0851 47.5908 51.0085 46.8253C51.0085 46.2128 50.6258 45.8301 50.1664 45.8301L50.243 46.0597Z" fill="#434343"/>
<path d="M51.8506 45.9825C51.4678 45.9825 51.2382 45.5997 50.8554 45.1404C50.6257 44.8342 50.3961 44.2217 50.1664 43.6093C49.7071 42.5376 49.0947 41.2362 48.7119 41.0065C48.4823 40.8534 48.0995 40.7768 47.7933 40.7003C47.4871 40.6237 47.1809 40.4706 46.8746 40.3941C41.7456 38.0209 39.0662 32.8919 40.138 27.2269C41.2097 21.562 45.4967 17.7343 51.1616 17.3516C51.3913 17.3516 51.6975 17.3516 51.9272 17.3516C55.2955 17.3516 58.5873 18.8061 60.8839 21.3323C63.1805 23.8586 64.3288 27.3035 63.946 30.6718C63.4867 35.1885 60.348 39.2458 56.061 40.7768C55.9079 40.7768 55.7548 40.8534 55.5252 40.9299C55.1424 41.0065 54.6065 41.1596 54.53 41.2362C54.3769 41.3893 54.1472 41.8486 54.0706 42.0782C53.841 42.5376 53.6879 42.9969 53.5348 43.4562C53.3051 44.0686 53.0754 44.7576 52.7692 45.2935C52.463 45.7528 52.2334 46.059 51.9272 46.059L51.8506 45.9825Z" fill="#2D7CB9"/>
<path d="M51.9271 17.4289C58.97 17.4289 64.5584 23.5531 63.8694 30.596C63.4101 35.1127 60.2714 39.0934 56.061 40.6245C55.7548 40.7776 54.6065 41.0073 54.4534 41.1604C54.3003 41.3135 54.0706 41.8493 53.9175 42.0025C53.4582 42.9976 53.152 44.2225 52.6161 45.2177C52.3864 45.677 52.0802 45.9067 51.9271 45.9067C51.774 45.9067 51.3913 45.6005 51.085 45.0646C50.5492 44.2225 49.554 41.3135 48.865 40.9307C48.3291 40.701 47.6401 40.5479 47.0277 40.2417C35.851 35.1127 38.9131 18.1944 51.2381 17.4289C51.4678 17.4289 51.774 17.4289 52.0037 17.4289M51.9271 17.1992C51.6975 17.1992 51.3913 17.1992 51.1616 17.1992C45.4201 17.582 41.0566 21.4862 39.9848 27.1511C38.9131 32.8161 41.5924 38.0982 46.7981 40.4714C47.1043 40.6245 47.4105 40.701 47.7167 40.7776C48.0229 40.8542 48.3291 41.0073 48.6353 41.0838C49.0181 41.3135 49.6305 42.6149 50.0898 43.6101C50.3961 44.2225 50.6257 44.8349 50.8554 45.1411C51.2381 45.677 51.5444 46.0598 51.9271 46.0598C52.3099 46.0598 52.6927 45.6005 52.8458 45.2942C53.152 44.7584 53.3816 44.0694 53.6113 43.457C53.7644 42.9976 53.9175 42.5383 54.1472 42.079C54.3768 41.6197 54.5299 41.39 54.6065 41.3135C54.683 41.3135 55.2955 41.0838 55.6017 41.0073C55.8313 41.0073 56.061 40.8542 56.2141 40.8542C60.5776 39.3231 63.7163 35.1892 64.1756 30.6726C64.4818 27.2277 63.4101 23.7828 61.037 21.2565C58.7404 18.7303 55.4486 17.2758 52.0037 17.2758L51.9271 17.1992Z" fill="#424342"/>
<path d="M43.2001 29.8297C43.2001 29.8297 43.3532 29.8297 43.3532 29.9063C43.4298 29.9828 43.736 31.3608 43.8125 31.667C44.6546 34.3464 46.9512 37.0257 49.7071 38.0209C53.9176 39.552 57.8983 36.1071 59.0466 32.1263C59.1232 31.9732 59.4294 31.9732 59.4294 32.1263C59.4294 32.2794 59.0466 33.3512 58.9701 33.5808C57.3625 37.1788 53.4582 39.7816 49.4775 38.3271C45.4967 36.8726 43.5829 33.5808 43.047 30.289C42.5111 26.9973 42.8939 29.6766 43.2001 29.6766V29.8297Z" fill="#F5B758"/>
<path d="M52.2334 26.002C52.999 26.002 53.9176 26.002 54.6066 26.3847C55.7549 26.9206 56.2142 27.9923 57.4391 28.4517C58.6639 28.911 58.4342 28.6048 58.5874 28.8344C58.7405 29.1406 57.9749 29.2172 57.8218 29.2937C56.9797 29.6765 56.9032 30.2124 56.2908 30.7483C55.219 31.7434 52.7693 32.6621 51.3148 32.509C49.8603 32.3559 46.9513 30.7483 46.1092 30.0593C45.2671 29.3703 46.4919 29.4468 46.9513 29.2937C47.8699 28.911 48.1761 28.1454 48.8651 27.533C49.5541 26.9206 51.0086 26.1551 52.1569 26.0785L52.2334 26.002Z" fill="#B14B94" stroke="#424342" stroke-width="0.3" stroke-miterlimit="10"/>
<path d="M52.3098 57.2363H56.3671L55.9843 59.3798H52.616L52.3098 57.2363Z" fill="#66CDC1" stroke="#424342" stroke-width="0.3" stroke-miterlimit="10"/>
<path d="M47.5635 65.6564L47.8697 57.3887L51.8505 57.4652L51.927 65.5799L47.5635 65.6564Z" fill="#66CDC1" stroke="#424342" stroke-width="0.3" stroke-miterlimit="10"/>
<path d="M52.3862 65.5048V59.8398H56.4435L57.0559 65.5813L52.3862 65.5048Z" fill="#B14B94" stroke="#424342" stroke-width="0.3" stroke-miterlimit="10"/>
<path d="M52.0035 66.0391V75.0723L47.4869 66.0391H52.0035Z" fill="#B14B94" stroke="#424342" stroke-width="0.3" stroke-miterlimit="10"/>
<path d="M52.616 66.1156L52.5394 75.0723L57.1326 66.0391L52.616 66.1156Z" fill="#66CDC1" stroke="#424342" stroke-width="0.3" stroke-miterlimit="10"/>
<path d="M50.5491 27.3809C50.4726 27.4574 49.6305 28.1464 49.6305 29.2947C49.6305 30.5195 50.4726 31.2085 50.5491 31.2851" stroke="#424342" stroke-width="0.3" stroke-miterlimit="10" stroke-linecap="round"/>
<path d="M53.7645 27.3809C53.841 27.4574 54.6831 28.1464 54.6831 29.2947C54.6831 30.5195 53.841 31.2085 53.7645 31.2851" stroke="#424342" stroke-width="0.3" stroke-miterlimit="10" stroke-linecap="round"/>
</svg>
