<svg width="104" height="104" viewBox="0 0 104 104" fill="none" xmlns="http://www.w3.org/2000/svg">
<rect x="1" y="1" width="102" height="102" rx="9" fill="#151029"/>
<rect x="1" y="1" width="102" height="102" rx="9" stroke="#C0282D" stroke-width="2"/>
<g filter="url(#filter0_d_34_19696)">
<path d="M26.0679 84.5247C24.6708 84.5247 19.9864 84.1138 16.7813 80.0047C14.3159 76.7996 14.3159 73.1836 14.3981 71.7865L14.6446 70.3894C15.7951 65.7872 16.4526 61.1028 16.617 56.5006C16.6992 53.4599 16.617 50.3369 16.2882 47.2962V46.7209V46.0635C16.4526 43.7624 17.4388 41.5434 19.0824 39.982C20.7261 38.3383 22.945 37.4343 25.3283 37.3522H25.657H25.9857C27.5472 37.4343 30.0948 37.5987 31.7385 37.7631H32.889L33.0534 36.6947C34.697 26.7507 43.1618 18.9434 52.3662 18.9434C61.5706 18.9434 61.324 20.1761 65.7619 26.2576C67.9808 29.2983 69.4601 32.9143 69.9532 36.6947L70.1175 37.8452H71.3503C72.9939 37.6809 75.5415 37.5165 77.103 37.4343H77.6783C80.0616 37.4343 82.3627 38.3383 84.0885 40.0642C86.4718 42.4474 86.8827 45.2416 86.8827 46.31V46.8031V47.3784C86.5539 50.4191 86.4718 53.542 86.5539 56.5828C86.7183 61.2672 87.3758 65.9515 88.5263 70.5537L88.6907 71.129V71.7865C89.0194 75.1559 87.7867 78.5254 85.5678 80.9909C83.3488 83.3741 80.3081 84.6891 77.0208 84.6891H26.0679V84.5247ZM25.4926 43.1049C24.5886 43.1049 23.7668 43.5158 23.1915 44.0911C22.6163 44.6664 22.2054 45.4882 22.1232 46.3922V46.5566V46.6387C22.4519 50.0082 22.6163 53.3777 22.4519 56.665C22.2875 61.7602 21.5479 66.8555 20.3152 71.8686C20.3152 71.9508 20.3152 72.1974 20.3152 72.1974C20.3152 72.7727 20.3152 74.8272 21.5479 76.4708C23.1915 78.5254 25.7392 78.6898 26.2323 78.6898H77.1852C78.8288 78.6898 80.3081 78.0323 81.3765 76.7996C82.527 75.5668 83.1845 73.841 83.0201 72.1152V71.9508V71.8686C81.7874 66.9377 81.0477 61.7602 80.8834 56.665C80.8012 53.3777 80.8834 50.0082 81.2121 46.6387V46.4744V46.3922C81.2121 45.9813 81.0477 44.9129 80.1437 44.0911C79.4863 43.5158 78.7466 43.1049 77.8426 43.1049H77.5961C75.2128 43.2693 70.2819 43.598 70.1997 43.598H70.0353H33.2178H33.1356C31.985 43.598 27.8759 43.2693 25.7392 43.1049H25.4926ZM52.2018 24.1208C48.7502 24.1208 45.2163 26.011 42.34 29.5449C40.7785 31.3529 39.5458 33.5718 38.4774 36.2838L37.9021 37.8452H65.351L64.7757 36.366C63.7895 33.5718 62.4746 31.1885 61.0775 29.3805C58.612 26.011 55.5713 24.2852 52.2018 24.2852V24.1208Z" fill="#392363"/>
<path d="M52.5306 19.0263C56.1466 19.0263 61.324 20.259 65.6797 26.2583C67.8986 29.2169 69.2957 32.8329 69.871 36.6133L70.0354 38.0104H71.4324C73.0761 37.846 75.6237 37.6816 77.1852 37.5173H77.7605C80.0616 37.5173 82.2805 38.4213 84.0063 40.0649C86.3074 42.366 86.7183 45.078 86.8005 46.1464V46.6395V47.1326C86.4718 50.1733 86.3896 53.2962 86.4718 56.337C86.6361 61.0214 87.2936 65.7879 88.4442 70.3901L88.6085 70.9654V71.5407C88.8551 74.828 87.7045 78.1152 85.4856 80.5807C83.2667 82.964 80.3081 84.1967 77.1852 84.1967H26.0679C24.753 84.1967 20.0686 83.7858 17.0279 79.7589C14.6446 76.636 14.5624 73.1021 14.6446 71.705L14.8911 70.3079C16.0417 65.7057 16.6992 61.0214 16.8635 56.337C16.9457 53.2962 16.8635 50.1733 16.5348 47.1326V46.5573V45.982C16.6992 43.6809 17.6853 41.6264 19.329 39.9827C20.9726 38.4213 23.1094 37.5173 25.4105 37.4351H25.7392H26.0679C27.6294 37.5173 30.177 37.6816 31.8207 37.846H33.2178C33.2178 37.9282 33.4643 36.5311 33.4643 36.5311C35.108 26.6692 43.4083 18.9441 52.5306 18.9441M37.4912 38.0104H65.6797L65.0222 36.2024C64.0361 33.4082 62.7211 31.0249 61.324 29.1347C58.8586 25.7652 55.6535 23.875 52.2018 23.875C48.7502 23.875 45.052 25.8474 42.1756 29.3812C40.6142 31.1892 39.2992 33.4903 38.2309 36.2024L37.4912 38.0925M77.103 78.8549C78.8288 78.8549 80.3081 78.1974 81.4587 76.8825C82.6914 75.5676 83.2667 73.7596 83.1845 71.9516V71.7872V71.6229C81.9518 66.6919 81.2121 61.5966 81.0478 56.5013C80.9656 53.2141 81.0478 49.8446 81.3765 46.5573V46.3929V46.2286C81.3765 45.8177 81.2121 44.6671 80.2259 43.7631C79.5685 43.1057 78.7467 42.7769 77.7605 42.6947H77.5139C75.0485 42.8591 70.1997 43.1878 70.1997 43.1878H70.0354H33.2178C33.2178 43.1878 28.2868 42.8591 25.7392 42.6947H25.657H25.5748C24.6708 42.6947 23.7668 43.1057 23.1094 43.7631C22.4519 44.4206 22.041 45.2424 21.9588 46.2286V46.3929V46.5573C22.2875 49.8446 22.4519 53.2141 22.2875 56.5013C22.1232 61.5966 21.3835 66.6919 20.1508 71.6229C20.1508 71.705 20.1508 72.0338 20.1508 72.0338C20.1508 72.6912 20.1508 74.7458 21.3835 76.4716C23.0272 78.6905 25.7392 78.7727 26.2323 78.7727H77.1852M52.5306 18.5332C43.244 18.5332 34.6149 26.4227 32.9712 36.5311L32.8069 37.5173H31.8207C29.1908 37.2707 27.2185 37.1885 26.0679 37.1064H25.7392H25.4105C22.945 37.1064 20.7261 38.1747 19.0003 39.8184C17.2744 41.462 16.2882 43.6809 16.1239 46.0642V46.6395V47.2969C16.4526 50.3377 16.5348 53.4606 16.4526 56.5013C16.2882 61.1857 15.6308 65.7879 14.4802 70.3901L14.2337 71.7872C14.1515 73.1843 14.2337 76.8825 16.6992 80.1698C19.9043 84.3611 24.753 84.772 26.1501 84.772H77.1852C80.4725 84.772 83.5954 83.4571 85.8965 80.9916C88.1976 78.5262 89.4303 75.0745 89.1838 71.6229V71.0476L89.0194 70.4723C87.8689 65.9523 87.2114 61.2679 87.0471 56.5835C86.9649 53.5428 87.0471 50.4199 87.3758 47.3791V46.886V46.3108C87.3758 45.1602 86.9649 42.2838 84.4994 39.9006C82.6914 38.1747 80.3903 37.1885 77.9248 37.1885H77.3496C75.6237 37.3529 72.7474 37.5173 71.5968 37.5995H70.6106L70.4463 36.6954C69.871 32.8329 68.3917 29.2169 66.1728 26.1761C61.735 20.0947 56.3109 18.7797 52.6127 18.7797L52.5306 18.5332ZM38.2309 37.5173L38.724 36.2845C39.7923 33.6547 41.0251 31.4358 42.5865 29.6278C45.4629 26.1761 48.8324 24.286 52.284 24.286C55.7357 24.286 58.612 26.0118 60.9953 29.2991C62.3924 31.1892 63.6251 33.4903 64.6935 36.2845L65.1044 37.4351H38.3131L38.2309 37.5173ZM22.3697 46.4751C22.3697 45.5711 22.7806 44.8315 23.3559 44.2562C23.9312 43.6809 24.6708 43.3522 25.4926 43.3522C27.7116 43.5166 31.7385 43.7631 32.889 43.8453H69.7066H69.871C69.871 43.8453 74.8841 43.5166 77.2674 43.3522H77.5139C78.2536 43.3522 78.9932 43.6809 79.5685 44.2562C80.3903 45.078 80.5547 46.0642 80.5547 46.3929C80.5547 46.4751 80.5547 46.5573 80.5547 46.5573C80.2259 49.9268 80.0616 53.2962 80.2259 56.5835C80.3903 61.6788 81.1299 66.8563 82.4449 71.7872C82.4449 71.8694 82.4449 71.9516 82.4449 71.9516C82.527 73.5952 81.9518 75.321 80.8834 76.4716C79.815 77.6221 78.4179 78.2796 76.8565 78.2796H26.1501C25.657 78.2796 23.1915 78.1152 21.7123 76.1429C20.4795 74.5814 20.4795 72.609 20.5617 72.0338V71.7872C21.7944 66.7741 22.5341 61.6788 22.6985 56.5835C22.7806 53.2962 22.6985 49.9268 22.3697 46.5573V46.4751Z" fill="#424342"/>
</g>
<g filter="url(#filter1_d_34_19696)">
<path d="M42.3 69.3004C38.6 69.3004 35.6 66.3004 35.6 62.6004C35.6 58.9004 38.6 55.9004 42.3 55.9004H51.2V69.4004H42.3V69.3004Z" fill="#2BA8E0"/>
<path d="M50.9 56.2V69H42.3C38.8 69 35.9 66.1 35.9 62.6C35.9 59.1 38.8 56.2 42.3 56.2H50.9ZM51.5 55.5H42.2C38.3 55.5 35.1 58.7 35.1 62.6C35.1 66.5 38.3 69.7 42.2 69.7H51.5V55.6V55.5Z" fill="black"/>
<path d="M50.5 69.3008V55.8008H59.4C63.1 55.8008 66.1 58.8008 66.1 62.5008C66.1 66.2008 63.1 69.2008 59.4 69.2008H50.5V69.3008Z" fill="#BE272D"/>
<path d="M59.5 56.2004C63 56.2004 65.9 59.1004 65.9 62.6004C65.9 66.1004 63 69.0004 59.5 69.0004H50.9V56.2004H59.5ZM59.5 55.5004H50.2V69.6004H59.5C63.4 69.6004 66.5999 66.4004 66.5999 62.5004C66.5999 58.6004 63.4 55.4004 59.5 55.4004V55.5004Z" fill="black"/>
</g>
<defs>
<filter id="filter0_d_34_19696" x="10.2148" y="18.5332" width="83" height="74.2383" filterUnits="userSpaceOnUse" color-interpolation-filters="sRGB">
<feFlood flood-opacity="0" result="BackgroundImageFix"/>
<feColorMatrix in="SourceAlpha" type="matrix" values="0 0 0 0 0 0 0 0 0 0 0 0 0 0 0 0 0 0 127 0" result="hardAlpha"/>
<feOffset dy="4"/>
<feGaussianBlur stdDeviation="2"/>
<feComposite in2="hardAlpha" operator="out"/>
<feColorMatrix type="matrix" values="0 0 0 0 0 0 0 0 0 0 0 0 0 0 0 0 0 0 0.25 0"/>
<feBlend mode="normal" in2="BackgroundImageFix" result="effect1_dropShadow_34_19696"/>
<feBlend mode="normal" in="SourceGraphic" in2="effect1_dropShadow_34_19696" result="shape"/>
</filter>
<filter id="filter1_d_34_19696" x="31.1" y="55.4004" width="39.5" height="22.2988" filterUnits="userSpaceOnUse" color-interpolation-filters="sRGB">
<feFlood flood-opacity="0" result="BackgroundImageFix"/>
<feColorMatrix in="SourceAlpha" type="matrix" values="0 0 0 0 0 0 0 0 0 0 0 0 0 0 0 0 0 0 127 0" result="hardAlpha"/>
<feOffset dy="4"/>
<feGaussianBlur stdDeviation="2"/>
<feComposite in2="hardAlpha" operator="out"/>
<feColorMatrix type="matrix" values="0 0 0 0 0 0 0 0 0 0 0 0 0 0 0 0 0 0 0.25 0"/>
<feBlend mode="normal" in2="BackgroundImageFix" result="effect1_dropShadow_34_19696"/>
<feBlend mode="normal" in="SourceGraphic" in2="effect1_dropShadow_34_19696" result="shape"/>
</filter>
</defs>
</svg>
