<svg width="106" height="106" viewBox="0 0 106 106" fill="none" xmlns="http://www.w3.org/2000/svg">
<rect x="1.5" y="1.5" width="103" height="103" rx="9.5" fill="#151029"/>
<rect x="1.5" y="1.5" width="103" height="103" rx="9.5" stroke="#2DA9E1" stroke-width="3"/>
<g filter="url(#filter0_d_34_18890)">
<path d="M27.0679 85.5247C25.6708 85.5247 20.9864 85.1138 17.7813 81.0047C15.3159 77.7996 15.3159 74.1836 15.3981 72.7865L15.6446 71.3894C16.7951 66.7872 17.4526 62.1028 17.617 57.5006C17.6992 54.4599 17.617 51.3369 17.2882 48.2962V47.7209V47.0635C17.4526 44.7624 18.4388 42.5434 20.0824 40.982C21.7261 39.3383 23.945 38.4343 26.3283 38.3522H26.657H26.9857C28.5472 38.4343 31.0948 38.5987 32.7385 38.7631H33.889L34.0534 37.6947C35.697 27.7507 44.1618 19.9434 53.3662 19.9434C62.5706 19.9434 62.324 21.1761 66.7619 27.2576C68.9808 30.2983 70.4601 33.9143 70.9532 37.6947L71.1175 38.8452H72.3503C73.9939 38.6809 76.5415 38.5165 78.103 38.4343H78.6783C81.0616 38.4343 83.3627 39.3383 85.0885 41.0642C87.4718 43.4474 87.8827 46.2416 87.8827 47.31V47.8031V48.3784C87.5539 51.4191 87.4718 54.542 87.5539 57.5828C87.7183 62.2672 88.3758 66.9515 89.5263 71.5537L89.6907 72.129V72.7865C90.0194 76.1559 88.7867 79.5254 86.5678 81.9909C84.3488 84.3741 81.3081 85.6891 78.0208 85.6891H27.0679V85.5247ZM26.4926 44.1049C25.5886 44.1049 24.7668 44.5158 24.1915 45.0911C23.6163 45.6664 23.2054 46.4882 23.1232 47.3922V47.5566V47.6387C23.4519 51.0082 23.6163 54.3777 23.4519 57.665C23.2875 62.7602 22.5479 67.8555 21.3152 72.8686C21.3152 72.9508 21.3152 73.1974 21.3152 73.1974C21.3152 73.7727 21.3152 75.8272 22.5479 77.4708C24.1915 79.5254 26.7392 79.6898 27.2323 79.6898H78.1852C79.8288 79.6898 81.3081 79.0323 82.3765 77.7996C83.527 76.5668 84.1845 74.841 84.0201 73.1152V72.9508V72.8686C82.7874 67.9377 82.0477 62.7602 81.8834 57.665C81.8012 54.3777 81.8834 51.0082 82.2121 47.6387V47.4744V47.3922C82.2121 46.9813 82.0477 45.9129 81.1437 45.0911C80.4863 44.5158 79.7466 44.1049 78.8426 44.1049H78.5961C76.2128 44.2693 71.2819 44.598 71.1997 44.598H71.0353H34.2178H34.1356C32.985 44.598 28.8759 44.2693 26.7392 44.1049H26.4926ZM53.2018 25.1208C49.7502 25.1208 46.2163 27.011 43.34 30.5449C41.7785 32.3529 40.5458 34.5718 39.4774 37.2838L38.9021 38.8452H66.351L65.7757 37.366C64.7895 34.5718 63.4746 32.1885 62.0775 30.3805C59.612 27.011 56.5713 25.2852 53.2018 25.2852V25.1208Z" fill="#392363"/>
<path d="M53.5306 20.0263C57.1466 20.0263 62.324 21.259 66.6797 27.2583C68.8986 30.2169 70.2957 33.8329 70.871 37.6133L71.0354 39.0104H72.4324C74.0761 38.846 76.6237 38.6816 78.1852 38.5173H78.7605C81.0616 38.5173 83.2805 39.4213 85.0063 41.0649C87.3074 43.366 87.7183 46.078 87.8005 47.1464V47.6395V48.1326C87.4718 51.1733 87.3896 54.2962 87.4718 57.337C87.6361 62.0214 88.2936 66.7879 89.4442 71.3901L89.6085 71.9654V72.5407C89.8551 75.828 88.7045 79.1152 86.4856 81.5807C84.2667 83.964 81.3081 85.1967 78.1852 85.1967H27.0679C25.753 85.1967 21.0686 84.7858 18.0279 80.7589C15.6446 77.636 15.5624 74.1021 15.6446 72.705L15.8911 71.3079C17.0417 66.7057 17.6992 62.0214 17.8635 57.337C17.9457 54.2962 17.8635 51.1733 17.5348 48.1326V47.5573V46.982C17.6992 44.6809 18.6853 42.6264 20.329 40.9827C21.9726 39.4213 24.1094 38.5173 26.4105 38.4351H26.7392H27.0679C28.6294 38.5173 31.177 38.6816 32.8207 38.846H34.2178C34.2178 38.9282 34.4643 37.5311 34.4643 37.5311C36.108 27.6692 44.4083 19.9441 53.5306 19.9441M38.4912 39.0104H66.6797L66.0222 37.2024C65.0361 34.4082 63.7211 32.0249 62.324 30.1347C59.8586 26.7652 56.6535 24.875 53.2018 24.875C49.7502 24.875 46.052 26.8474 43.1756 30.3812C41.6142 32.1892 40.2992 34.4903 39.2309 37.2024L38.4912 39.0925M78.103 79.8549C79.8288 79.8549 81.3081 79.1974 82.4587 77.8825C83.6914 76.5676 84.2667 74.7596 84.1845 72.9516V72.7872V72.6229C82.9518 67.6919 82.2121 62.5966 82.0478 57.5013C81.9656 54.2141 82.0478 50.8446 82.3765 47.5573V47.3929V47.2286C82.3765 46.8177 82.2121 45.6671 81.2259 44.7631C80.5685 44.1057 79.7467 43.7769 78.7605 43.6947H78.5139C76.0485 43.8591 71.1997 44.1878 71.1997 44.1878H71.0354H34.2178C34.2178 44.1878 29.2868 43.8591 26.7392 43.6947H26.657H26.5748C25.6708 43.6947 24.7668 44.1057 24.1094 44.7631C23.4519 45.4206 23.041 46.2424 22.9588 47.2286V47.3929V47.5573C23.2875 50.8446 23.4519 54.2141 23.2875 57.5013C23.1232 62.5966 22.3835 67.6919 21.1508 72.6229C21.1508 72.705 21.1508 73.0338 21.1508 73.0338C21.1508 73.6912 21.1508 75.7458 22.3835 77.4716C24.0272 79.6905 26.7392 79.7727 27.2323 79.7727H78.1852M53.5306 19.5332C44.244 19.5332 35.6149 27.4227 33.9712 37.5311L33.8069 38.5173H32.8207C30.1908 38.2707 28.2185 38.1885 27.0679 38.1064H26.7392H26.4105C23.945 38.1064 21.7261 39.1747 20.0003 40.8184C18.2744 42.462 17.2882 44.6809 17.1239 47.0642V47.6395V48.2969C17.4526 51.3377 17.5348 54.4606 17.4526 57.5013C17.2882 62.1857 16.6308 66.7879 15.4802 71.3901L15.2337 72.7872C15.1515 74.1843 15.2337 77.8825 17.6992 81.1698C20.9043 85.3611 25.753 85.772 27.1501 85.772H78.1852C81.4725 85.772 84.5954 84.4571 86.8965 81.9916C89.1976 79.5262 90.4303 76.0745 90.1838 72.6229V72.0476L90.0194 71.4723C88.8689 66.9523 88.2114 62.2679 88.0471 57.5835C87.9649 54.5428 88.0471 51.4199 88.3758 48.3791V47.886V47.3108C88.3758 46.1602 87.9649 43.2838 85.4994 40.9006C83.6914 39.1747 81.3903 38.1885 78.9248 38.1885H78.3496C76.6237 38.3529 73.7474 38.5173 72.5968 38.5995H71.6106L71.4463 37.6954C70.871 33.8329 69.3917 30.2169 67.1728 27.1761C62.735 21.0947 57.3109 19.7797 53.6127 19.7797L53.5306 19.5332ZM39.2309 38.5173L39.724 37.2845C40.7923 34.6547 42.0251 32.4358 43.5865 30.6278C46.4629 27.1761 49.8324 25.286 53.284 25.286C56.7357 25.286 59.612 27.0118 61.9953 30.2991C63.3924 32.1892 64.6251 34.4903 65.6935 37.2845L66.1044 38.4351H39.3131L39.2309 38.5173ZM23.3697 47.4751C23.3697 46.5711 23.7806 45.8315 24.3559 45.2562C24.9312 44.6809 25.6708 44.3522 26.4926 44.3522C28.7116 44.5166 32.7385 44.7631 33.889 44.8453H70.7066H70.871C70.871 44.8453 75.8841 44.5166 78.2674 44.3522H78.5139C79.2536 44.3522 79.9932 44.6809 80.5685 45.2562C81.3903 46.078 81.5547 47.0642 81.5547 47.3929C81.5547 47.4751 81.5547 47.5573 81.5547 47.5573C81.2259 50.9268 81.0616 54.2962 81.2259 57.5835C81.3903 62.6788 82.1299 67.8563 83.4449 72.7872C83.4449 72.8694 83.4449 72.9516 83.4449 72.9516C83.527 74.5952 82.9518 76.321 81.8834 77.4716C80.815 78.6221 79.4179 79.2796 77.8565 79.2796H27.1501C26.657 79.2796 24.1915 79.1152 22.7123 77.1429C21.4795 75.5814 21.4795 73.609 21.5617 73.0338V72.7872C22.7944 67.7741 23.5341 62.6788 23.6985 57.5835C23.7806 54.2962 23.6985 50.9268 23.3697 47.5573V47.4751Z" fill="#424342"/>
</g>
<g filter="url(#filter1_d_34_18890)">
<path d="M43.3 70.3004C39.6 70.3004 36.6 67.3004 36.6 63.6004C36.6 59.9004 39.6 56.9004 43.3 56.9004H52.2V70.4004H43.3V70.3004Z" fill="#2BA8E0"/>
<path d="M51.9 57.2V70H43.3C39.8 70 36.9 67.1 36.9 63.6C36.9 60.1 39.8 57.2 43.3 57.2H51.9ZM52.5 56.5H43.2C39.3 56.5 36.1 59.7 36.1 63.6C36.1 67.5 39.3 70.7 43.2 70.7H52.5V56.6V56.5Z" fill="black"/>
<path d="M51.5 70.3008V56.8008H60.4C64.1 56.8008 67.1 59.8008 67.1 63.5008C67.1 67.2008 64.1 70.2008 60.4 70.2008H51.5V70.3008Z" fill="#BE272D"/>
<path d="M60.5 57.2004C64 57.2004 66.9 60.1004 66.9 63.6004C66.9 67.1004 64 70.0004 60.5 70.0004H51.9V57.2004H60.5ZM60.5 56.5004H51.2V70.6004H60.5C64.4 70.6004 67.5999 67.4004 67.5999 63.5004C67.5999 59.6004 64.4 56.4004 60.5 56.4004V56.5004Z" fill="black"/>
</g>
<defs>
<filter id="filter0_d_34_18890" x="11.2148" y="19.5332" width="83" height="74.2383" filterUnits="userSpaceOnUse" color-interpolation-filters="sRGB">
<feFlood flood-opacity="0" result="BackgroundImageFix"/>
<feColorMatrix in="SourceAlpha" type="matrix" values="0 0 0 0 0 0 0 0 0 0 0 0 0 0 0 0 0 0 127 0" result="hardAlpha"/>
<feOffset dy="4"/>
<feGaussianBlur stdDeviation="2"/>
<feComposite in2="hardAlpha" operator="out"/>
<feColorMatrix type="matrix" values="0 0 0 0 0 0 0 0 0 0 0 0 0 0 0 0 0 0 0.25 0"/>
<feBlend mode="normal" in2="BackgroundImageFix" result="effect1_dropShadow_34_18890"/>
<feBlend mode="normal" in="SourceGraphic" in2="effect1_dropShadow_34_18890" result="shape"/>
</filter>
<filter id="filter1_d_34_18890" x="32.1" y="56.4004" width="39.5" height="22.2988" filterUnits="userSpaceOnUse" color-interpolation-filters="sRGB">
<feFlood flood-opacity="0" result="BackgroundImageFix"/>
<feColorMatrix in="SourceAlpha" type="matrix" values="0 0 0 0 0 0 0 0 0 0 0 0 0 0 0 0 0 0 127 0" result="hardAlpha"/>
<feOffset dy="4"/>
<feGaussianBlur stdDeviation="2"/>
<feComposite in2="hardAlpha" operator="out"/>
<feColorMatrix type="matrix" values="0 0 0 0 0 0 0 0 0 0 0 0 0 0 0 0 0 0 0.25 0"/>
<feBlend mode="normal" in2="BackgroundImageFix" result="effect1_dropShadow_34_18890"/>
<feBlend mode="normal" in="SourceGraphic" in2="effect1_dropShadow_34_18890" result="shape"/>
</filter>
</defs>
</svg>
