<svg width="106" height="106" viewBox="0 0 106 106" fill="none" xmlns="http://www.w3.org/2000/svg">
<rect x="1.5" y="1.5" width="103" height="103" rx="9.5" fill="#151029"/>
<rect x="1.5" y="1.5" width="103" height="103" rx="9.5" stroke="#2DA9E1" stroke-width="3"/>
<path fill-rule="evenodd" clip-rule="evenodd" d="M47.0886 42.3229C47.378 41.9552 47.9102 41.8922 48.2772 42.182C49.172 42.8886 50.0617 43.9633 50.7926 44.9718C51.5321 45.9922 52.1514 47.0046 52.5008 47.6353C52.653 47.9101 52.641 48.2466 52.4696 48.5097C52.2982 48.7729 51.9955 48.9195 51.6831 48.8907C50.8864 48.8171 50.0455 49.0156 49.2889 49.3277C48.5344 49.6388 47.9263 50.0372 47.6184 50.2872C47.2553 50.5821 46.7224 50.5264 46.4279 50.1628C46.1335 49.7992 46.1891 49.2654 46.5522 48.9705C46.9865 48.6178 47.7364 48.1346 48.6443 47.7601C48.8941 47.6571 49.1607 47.5603 49.4401 47.4764C49.4143 47.4659 49.3888 47.4541 49.3636 47.4409C46.5206 45.9461 43.4924 46.1371 40.7272 47.3262C37.9476 48.5215 35.4832 50.7102 33.8786 53.0973C32.2506 55.5191 31.6279 57.9517 32.1723 59.6737C32.6728 61.2565 34.3108 62.6261 38.2191 62.6261C38.6865 62.6261 39.0654 63.0056 39.0654 63.4738C39.0654 63.9419 38.6865 64.3214 38.2191 64.3214C33.9459 64.3214 31.377 62.7738 30.5586 60.1854C29.7843 57.7363 30.731 54.744 32.4744 52.1505C34.2411 49.5223 36.95 47.1055 40.0593 45.7684C42.8356 44.5746 45.9695 44.23 49.0129 45.4197C48.4232 44.6568 47.8026 43.9661 47.2292 43.5133C46.8621 43.2235 46.7992 42.6905 47.0886 42.3229Z" fill="#0077BA"/>
<path fill-rule="evenodd" clip-rule="evenodd" d="M19.1599 49.3642C19.5161 49.6755 19.5363 50.1994 19.2051 50.5343C18.8696 50.8735 18.6011 51.2131 18.3909 51.5476C18.1436 51.9414 17.6036 52.0721 17.1848 51.8396C16.766 51.6071 16.627 51.0994 16.8743 50.7057C17.1533 50.2615 17.4995 49.8271 17.9152 49.4067C18.2464 49.0719 18.8037 49.0528 19.1599 49.3642ZM38.3925 51.757C38.4453 51.3025 38.8801 50.9742 39.3636 51.0239C41.0213 51.194 42.289 51.9168 43.1556 52.9603C43.4549 53.3208 43.3868 53.841 43.0034 54.1224C42.62 54.4038 42.0666 54.3397 41.7673 53.9793C41.1911 53.2855 40.3538 52.7912 39.1724 52.6699C38.6889 52.6203 38.3397 52.2116 38.3925 51.757ZM36.4464 52.0636C36.6026 52.4967 36.3558 52.9667 35.8952 53.1136C34.9418 53.4175 33.8708 53.8806 32.6763 54.5386C32.2566 54.7697 31.7171 54.6373 31.4712 54.2428C31.2253 53.8483 31.3662 53.3411 31.7858 53.1099C33.0633 52.4063 34.2431 51.8918 35.3295 51.5454C35.7902 51.3986 36.2902 51.6306 36.4464 52.0636ZM16.827 53.0609C17.3125 53.0331 17.7301 53.3805 17.7597 53.8369C17.8111 54.6274 18.1401 55.3781 18.6861 56.0144C18.9915 56.3703 18.9322 56.8915 18.5537 57.1786C18.1752 57.4657 17.6207 57.41 17.3153 57.0541C16.5607 56.1748 16.0772 55.1016 16.0017 53.9377C15.972 53.4814 16.3416 53.0888 16.827 53.0609ZM29.8408 55.2822C30.1331 55.6477 30.0548 56.1667 29.666 56.4415C29.1973 56.7726 28.7147 57.1286 28.2181 57.5106C27.7637 57.8601 27.2997 58.1595 26.8301 58.411C26.4075 58.6374 25.8697 58.4989 25.6289 58.1016C25.3881 57.7043 25.5354 57.1988 25.958 56.9724C26.3389 56.7683 26.7218 56.5221 27.1028 56.229C27.617 55.8335 28.1186 55.4634 28.6077 55.1178C28.9965 54.8431 29.5486 54.9167 29.8408 55.2822ZM43.6175 55.9095C44.1029 55.8802 44.5216 56.2264 44.5528 56.6827C44.6402 57.9637 44.4186 59.2957 43.9219 60.4813C43.7436 60.9068 43.2323 61.1158 42.7797 60.9482C42.3272 60.7807 42.1048 60.2999 42.2831 59.8745C42.6844 58.9167 42.866 57.8282 42.7951 56.7887C42.7639 56.3324 43.1322 55.9388 43.6175 55.9095ZM19.6467 57.9116C19.824 57.4858 20.3349 57.2758 20.7878 57.4425C21.5724 57.7313 22.4622 57.8591 23.3993 57.7679C23.8831 57.7208 24.3159 58.0514 24.366 58.5062C24.416 58.961 24.0644 59.3679 23.5806 59.4149C22.3596 59.5338 21.1877 59.3679 20.1456 58.9843C19.6927 58.8176 19.4693 58.3373 19.6467 57.9116ZM41.5983 62.4665C41.8585 62.8528 41.7363 63.3643 41.3253 63.6089C40.7008 63.9806 39.9916 64.2308 39.21 64.3156C38.7269 64.368 38.29 64.0423 38.2342 63.5881C38.1785 63.1338 38.525 62.7231 39.0081 62.6707C39.5117 62.6161 39.9697 62.456 40.3831 62.2099C40.7941 61.9653 41.3381 62.0802 41.5983 62.4665Z" fill="#E10B58"/>
<path d="M85.0519 60.0697C84.8651 60.0697 84.7181 60.0199 84.6108 59.9203C84.5036 59.8207 84.4261 59.6593 84.3784 59.4361C84.3625 59.3325 84.3526 59.2149 84.3486 59.0834C84.3446 58.9519 84.3446 58.8025 84.3486 58.6351C84.3526 58.4677 84.3625 58.2844 84.3784 58.0852C84.4261 57.2921 84.587 56.6206 84.8612 56.0707C85.1353 55.5168 85.5167 55.0963 86.0055 54.8094C86.4942 54.5185 87.0763 54.373 87.7517 54.373C88.4312 54.373 89.0133 54.5105 89.498 54.7855C89.9827 55.0605 90.3542 55.4829 90.6125 56.0528C90.8708 56.6226 90.9999 57.3499 90.9999 58.2346C90.9999 58.394 90.9959 58.5414 90.988 58.6769C90.984 58.8124 90.9761 58.936 90.9641 59.0476C90.9522 59.1591 90.9343 59.2608 90.9105 59.3524C90.8509 59.6075 90.7615 59.7908 90.6423 59.9024C90.5271 60.0139 90.3761 60.0697 90.1894 60.0697C89.9986 60.0697 89.8536 60.0378 89.7543 59.9741C89.6549 59.9103 89.5834 59.8147 89.5397 59.6872C89.496 59.5596 89.4662 59.4022 89.4503 59.2149C89.4384 58.916 89.4265 58.653 89.4146 58.4259C89.4066 58.1947 89.3927 57.9895 89.3728 57.8102C89.3569 57.6269 89.3371 57.4575 89.3132 57.3021C89.2894 57.1427 89.2596 56.9833 89.2238 56.8239C89.1325 56.4174 88.9795 56.1086 88.7649 55.8973C88.5504 55.6861 88.2305 55.5805 87.8054 55.5805C87.3961 55.5805 87.0663 55.6941 86.816 55.9213C86.5697 56.1484 86.379 56.4612 86.2439 56.8597C86.1843 57.0271 86.1346 57.2025 86.0949 57.3858C86.0551 57.5691 86.0214 57.7584 85.9935 57.9536C85.9697 58.1489 85.9478 58.3541 85.928 58.5693C85.9121 58.7845 85.8962 59.0097 85.8803 59.2448C85.8604 59.468 85.8128 59.6393 85.7373 59.7589C85.6618 59.8784 85.5664 59.9601 85.4512 60.004C85.336 60.0478 85.2029 60.0697 85.0519 60.0697Z" fill="white"/>
<path d="M80.156 60.518C79.8342 60.518 79.5283 60.4862 79.2382 60.4224C78.9521 60.3586 78.6978 60.257 78.4753 60.1175C78.2528 59.9781 78.078 59.7967 77.9509 59.5736C77.8237 59.3504 77.7601 59.0774 77.7601 58.7546C77.7601 58.388 77.8495 58.0871 78.0283 57.852C78.2071 57.6169 78.4495 57.4336 78.7555 57.3021C79.0654 57.1666 79.413 57.0729 79.7984 57.0211C80.1839 56.9693 80.5832 56.9434 80.9964 56.9434C81.1235 56.9434 81.2527 56.9474 81.3838 56.9554C81.5149 56.9634 81.6381 56.9713 81.7533 56.9793C81.8725 56.9873 81.9699 56.9912 82.0454 56.9912C82.1487 56.9912 82.2182 56.9753 82.254 56.9434C82.2897 56.9076 82.3076 56.8478 82.3076 56.7641C82.3076 56.6087 82.2877 56.4712 82.248 56.3516C82.2122 56.2321 82.1586 56.1265 82.0871 56.0348C82.0156 55.9432 81.9301 55.8655 81.8308 55.8017C81.6719 55.6941 81.4792 55.6184 81.2527 55.5745C81.0302 55.5267 80.7898 55.5028 80.5315 55.5028C80.2256 55.5028 79.9534 55.5347 79.715 55.5985C79.4806 55.6622 79.272 55.728 79.0892 55.7957C78.9064 55.8635 78.7396 55.8973 78.5886 55.8973C78.382 55.8973 78.223 55.8635 78.1118 55.7957C78.0005 55.728 77.9449 55.6184 77.9449 55.467C77.9449 55.3115 78.0105 55.1681 78.1416 55.0366C78.2727 54.9051 78.4535 54.7895 78.6839 54.6899C78.9184 54.5902 79.1885 54.5125 79.4945 54.4567C79.8044 54.4009 80.1342 54.373 80.4838 54.373C81.1871 54.373 81.7752 54.4627 82.248 54.642C82.7248 54.8174 83.0824 55.1043 83.3208 55.5028C83.5592 55.8973 83.6784 56.4294 83.6784 57.0988C83.6784 57.2981 83.6684 57.4715 83.6486 57.6189C83.6287 57.7663 83.6029 57.8959 83.5711 58.0074C83.5433 58.115 83.5194 58.2087 83.4996 58.2884C83.4797 58.3681 83.4698 58.4418 83.4698 58.5096C83.4698 58.6052 83.4996 58.6969 83.5592 58.7845C83.6228 58.8682 83.6963 58.9519 83.7797 59.0356C83.8671 59.1193 83.9426 59.2089 84.0062 59.3046C84.0698 59.3962 84.1015 59.4999 84.1015 59.6154C84.1015 59.7868 84.0459 59.9103 83.9347 59.986C83.8234 60.0618 83.7002 60.0996 83.5651 60.0996C83.442 60.0996 83.3387 60.0578 83.2552 59.9741C83.1758 59.8944 83.1023 59.8147 83.0347 59.735C82.9711 59.6553 82.8917 59.6154 82.7963 59.6154C82.7407 59.6154 82.6791 59.6314 82.6115 59.6632C82.548 59.6951 82.4685 59.7449 82.3732 59.8127C82.254 59.9004 82.101 59.998 81.9142 60.1056C81.7315 60.2172 81.497 60.3128 81.211 60.3925C80.9249 60.4762 80.5732 60.518 80.156 60.518ZM80.317 59.6035C80.5633 59.6035 80.8017 59.5656 81.0322 59.4899C81.2626 59.4102 81.4692 59.3026 81.652 59.1671C81.8348 59.0276 81.9798 58.8662 82.0871 58.6829C82.1944 58.4956 82.248 58.2944 82.248 58.0792C82.248 57.9437 82.2023 57.846 82.1109 57.7863C82.0235 57.7265 81.8785 57.6886 81.6758 57.6727C81.4732 57.6568 81.205 57.6488 80.8712 57.6488C80.5415 57.6488 80.2355 57.6827 79.9534 57.7504C79.6713 57.8142 79.4448 57.9238 79.274 58.0792C79.1031 58.2306 79.0177 58.4378 79.0177 58.7008C79.0177 58.9041 79.0693 59.0715 79.1727 59.203C79.276 59.3345 79.425 59.4341 79.6197 59.5019C79.8143 59.5696 80.0468 59.6035 80.317 59.6035Z" fill="white"/>
<path d="M73.3317 60.518C73.0098 60.518 72.7039 60.4862 72.4138 60.4224C72.1278 60.3586 71.8735 60.257 71.651 60.1175C71.4285 59.9781 71.2536 59.7967 71.1265 59.5736C70.9993 59.3504 70.9358 59.0774 70.9358 58.7546C70.9358 58.388 71.0252 58.0871 71.204 57.852C71.3828 57.6169 71.6251 57.4336 71.9311 57.3021C72.241 57.1666 72.5887 57.0729 72.9741 57.0211C73.3595 56.9693 73.7588 56.9434 74.172 56.9434C74.2992 56.9434 74.4283 56.9474 74.5594 56.9554C74.6905 56.9634 74.8137 56.9713 74.9289 56.9793C75.0481 56.9873 75.1455 56.9912 75.221 56.9912C75.3243 56.9912 75.3938 56.9753 75.4296 56.9434C75.4653 56.9076 75.4832 56.8478 75.4832 56.7641C75.4832 56.6087 75.4633 56.4712 75.4236 56.3516C75.3878 56.2321 75.3342 56.1265 75.2627 56.0348C75.1912 55.9432 75.1057 55.8655 75.0064 55.8017C74.8475 55.6941 74.6548 55.6184 74.4283 55.5745C74.2058 55.5267 73.9654 55.5028 73.7071 55.5028C73.4012 55.5028 73.129 55.5347 72.8906 55.5985C72.6562 55.6622 72.4476 55.728 72.2648 55.7957C72.0821 55.8635 71.9152 55.8973 71.7642 55.8973C71.5576 55.8973 71.3987 55.8635 71.2874 55.7957C71.1761 55.728 71.1205 55.6184 71.1205 55.467C71.1205 55.3115 71.1861 55.1681 71.3172 55.0366C71.4483 54.9051 71.6291 54.7895 71.8596 54.6899C72.094 54.5902 72.3642 54.5125 72.6701 54.4567C72.98 54.4009 73.3098 54.373 73.6595 54.373C74.3627 54.373 74.9508 54.4627 75.4236 54.642C75.9004 54.8174 76.258 55.1043 76.4964 55.5028C76.7348 55.8973 76.854 56.4294 76.854 57.0988C76.854 57.2981 76.8441 57.4715 76.8242 57.6189C76.8043 57.7663 76.7785 57.8959 76.7467 58.0074C76.7189 58.115 76.6951 58.2087 76.6752 58.2884C76.6553 58.3681 76.6454 58.4418 76.6454 58.5096C76.6454 58.6052 76.6752 58.6969 76.7348 58.7845C76.7984 58.8682 76.8719 58.9519 76.9553 59.0356C77.0427 59.1193 77.1182 59.2089 77.1818 59.3046C77.2454 59.3962 77.2772 59.4999 77.2772 59.6154C77.2772 59.7868 77.2215 59.9103 77.1103 59.986C76.999 60.0618 76.8759 60.0996 76.7408 60.0996C76.6176 60.0996 76.5143 60.0578 76.4308 59.9741C76.3514 59.8944 76.2779 59.8147 76.2103 59.735C76.1468 59.6553 76.0673 59.6154 75.9719 59.6154C75.9163 59.6154 75.8547 59.6314 75.7872 59.6632C75.7236 59.6951 75.6441 59.7449 75.5488 59.8127C75.4296 59.9004 75.2766 59.998 75.0899 60.1056C74.9071 60.2172 74.6727 60.3128 74.3866 60.3925C74.1005 60.4762 73.7489 60.518 73.3317 60.518ZM73.4926 59.6035C73.7389 59.6035 73.9773 59.5656 74.2078 59.4899C74.4382 59.4102 74.6448 59.3026 74.8276 59.1671C75.0104 59.0276 75.1554 58.8662 75.2627 58.6829C75.37 58.4956 75.4236 58.2944 75.4236 58.0792C75.4236 57.9437 75.3779 57.846 75.2865 57.7863C75.1991 57.7265 75.0541 57.6886 74.8515 57.6727C74.6488 57.6568 74.3806 57.6488 74.0469 57.6488C73.7171 57.6488 73.4111 57.6827 73.129 57.7504C72.8469 57.8142 72.6204 57.9238 72.4496 58.0792C72.2787 58.2306 72.1933 58.4378 72.1933 58.7008C72.1933 58.9041 72.245 59.0715 72.3483 59.203C72.4516 59.3345 72.6006 59.4341 72.7953 59.5019C72.99 59.5696 73.2224 59.6035 73.4926 59.6035Z" fill="white"/>
<path d="M64.3335 60.0697C64.1468 60.0697 63.9997 60.0199 63.8925 59.9203C63.7852 59.8207 63.7077 59.6593 63.66 59.4361C63.6441 59.3325 63.6342 59.2149 63.6302 59.0834C63.6262 58.9519 63.6262 58.8025 63.6302 58.6351C63.6342 58.4677 63.6441 58.2844 63.66 58.0852C63.7077 57.2921 63.8686 56.6206 64.1428 56.0707C64.4169 55.5168 64.7984 55.0963 65.2871 54.8094C65.7758 54.5185 66.3579 54.373 67.0334 54.373C67.7128 54.373 68.2949 54.5105 68.7796 54.7855C69.2644 55.0605 69.6359 55.4829 69.8941 56.0528C70.1524 56.6226 70.2815 57.3499 70.2815 58.2346C70.2815 58.394 70.2776 58.5414 70.2696 58.6769C70.2656 58.8124 70.2577 58.936 70.2458 59.0476C70.2339 59.1591 70.216 59.2608 70.1921 59.3524C70.1325 59.6075 70.0431 59.7908 69.9239 59.9024C69.8087 60.0139 69.6577 60.0697 69.471 60.0697C69.2803 60.0697 69.1352 60.0378 69.0359 59.9741C68.9366 59.9103 68.8651 59.8147 68.8213 59.6872C68.7776 59.5596 68.7478 59.4022 68.7319 59.2149C68.72 58.916 68.7081 58.653 68.6962 58.4259C68.6882 58.1947 68.6743 57.9895 68.6545 57.8102C68.6386 57.6269 68.6187 57.4575 68.5949 57.3021C68.571 57.1427 68.5412 56.9833 68.5055 56.8239C68.4141 56.4174 68.2611 56.1086 68.0466 55.8973C67.832 55.6861 67.5121 55.5805 67.087 55.5805C66.6777 55.5805 66.348 55.6941 66.0976 55.9213C65.8513 56.1484 65.6606 56.4612 65.5255 56.8597C65.4659 57.0271 65.4162 57.2025 65.3765 57.3858C65.3368 57.5691 65.303 57.7584 65.2752 57.9536C65.2513 58.1489 65.2295 58.3541 65.2096 58.5693C65.1937 58.7845 65.1778 59.0097 65.1619 59.2448C65.1421 59.468 65.0944 59.6393 65.0189 59.7589C64.9434 59.8784 64.848 59.9601 64.7328 60.004C64.6176 60.0478 64.4845 60.0697 64.3335 60.0697Z" fill="white"/>
<path d="M57.1714 60.0697C56.9847 60.0697 56.8377 60.0199 56.7304 59.9203C56.6231 59.8207 56.5457 59.6593 56.498 59.4361C56.4821 59.3325 56.4721 59.2149 56.4682 59.0834C56.4642 58.9519 56.4642 58.8025 56.4682 58.6351C56.4721 58.4677 56.4821 58.2844 56.498 58.0852C56.5457 57.2921 56.7066 56.6206 56.9807 56.0707C57.2549 55.5168 57.6363 55.0963 58.125 54.8094C58.6138 54.5185 59.1958 54.373 59.8713 54.373C60.5507 54.373 61.1328 54.5105 61.6176 54.7855C62.1023 55.0605 62.4738 55.4829 62.7321 56.0528C62.9904 56.6226 63.1195 57.3499 63.1195 58.2346C63.1195 58.394 63.1155 58.5414 63.1076 58.6769C63.1036 58.8124 63.0956 58.936 63.0837 59.0476C63.0718 59.1591 63.0539 59.2608 63.0301 59.3524C62.9705 59.6075 62.8811 59.7908 62.7619 59.9024C62.6467 60.0139 62.4957 60.0697 62.3089 60.0697C62.1182 60.0697 61.9732 60.0378 61.8739 59.9741C61.7745 59.9103 61.703 59.8147 61.6593 59.6872C61.6156 59.5596 61.5858 59.4022 61.5699 59.2149C61.558 58.916 61.5461 58.653 61.5341 58.4259C61.5262 58.1947 61.5123 57.9895 61.4924 57.8102C61.4765 57.6269 61.4567 57.4575 61.4328 57.3021C61.409 57.1427 61.3792 56.9833 61.3434 56.8239C61.252 56.4174 61.0991 56.1086 60.8845 55.8973C60.6699 55.6861 60.3501 55.5805 59.9249 55.5805C59.5157 55.5805 59.1859 55.6941 58.9356 55.9213C58.6893 56.1484 58.4985 56.4612 58.3634 56.8597C58.3038 57.0271 58.2542 57.2025 58.2144 57.3858C58.1747 57.5691 58.1409 57.7584 58.1131 57.9536C58.0893 58.1489 58.0674 58.3541 58.0476 58.5693C58.0317 58.7845 58.0158 59.0097 57.9999 59.2448C57.98 59.468 57.9323 59.6393 57.8568 59.7589C57.7814 59.8784 57.686 59.9601 57.5708 60.004C57.4555 60.0478 57.3224 60.0697 57.1714 60.0697Z" fill="white"/>
<path d="M52.2756 60.518C51.9538 60.518 51.6479 60.4862 51.3578 60.4224C51.0717 60.3586 50.8174 60.257 50.5949 60.1175C50.3724 59.9781 50.1976 59.7967 50.0704 59.5736C49.9433 59.3504 49.8797 59.0774 49.8797 58.7546C49.8797 58.388 49.9691 58.0871 50.1479 57.852C50.3267 57.6169 50.5691 57.4336 50.875 57.3021C51.185 57.1666 51.5326 57.0729 51.918 57.0211C52.3034 56.9693 52.7028 56.9434 53.116 56.9434C53.2431 56.9434 53.3723 56.9474 53.5034 56.9554C53.6345 56.9634 53.7577 56.9713 53.8729 56.9793C53.9921 56.9873 54.0894 56.9912 54.1649 56.9912C54.2682 56.9912 54.3378 56.9753 54.3735 56.9434C54.4093 56.9076 54.4272 56.8478 54.4272 56.7641C54.4272 56.6087 54.4073 56.4712 54.3676 56.3516C54.3318 56.2321 54.2782 56.1265 54.2067 56.0348C54.1351 55.9432 54.0497 55.8655 53.9504 55.8017C53.7914 55.6941 53.5987 55.6184 53.3723 55.5745C53.1498 55.5267 52.9094 55.5028 52.6511 55.5028C52.3452 55.5028 52.073 55.5347 51.8346 55.5985C51.6002 55.6622 51.3916 55.728 51.2088 55.7957C51.026 55.8635 50.8591 55.8973 50.7082 55.8973C50.5016 55.8973 50.3426 55.8635 50.2314 55.7957C50.1201 55.728 50.0645 55.6184 50.0645 55.467C50.0645 55.3115 50.13 55.1681 50.2612 55.0366C50.3923 54.9051 50.5731 54.7895 50.8035 54.6899C51.0379 54.5902 51.3081 54.5125 51.6141 54.4567C51.924 54.4009 52.2538 54.373 52.6034 54.373C53.3067 54.373 53.8948 54.4627 54.3676 54.642C54.8444 54.8174 55.202 55.1043 55.4404 55.5028C55.6788 55.8973 55.798 56.4294 55.798 57.0988C55.798 57.2981 55.788 57.4715 55.7682 57.6189C55.7483 57.7663 55.7225 57.8959 55.6907 58.0074C55.6629 58.115 55.639 58.2087 55.6192 58.2884C55.5993 58.3681 55.5894 58.4418 55.5894 58.5096C55.5894 58.6052 55.6192 58.6969 55.6788 58.7845C55.7423 58.8682 55.8158 58.9519 55.8993 59.0356C55.9867 59.1193 56.0622 59.2089 56.1258 59.3046C56.1893 59.3962 56.2211 59.4999 56.2211 59.6154C56.2211 59.7868 56.1655 59.9103 56.0542 59.986C55.943 60.0618 55.8198 60.0996 55.6847 60.0996C55.5616 60.0996 55.4582 60.0578 55.3748 59.9741C55.2953 59.8944 55.2218 59.8147 55.1543 59.735C55.0907 59.6553 55.0113 59.6154 54.9159 59.6154C54.8603 59.6154 54.7987 59.6314 54.7311 59.6632C54.6676 59.6951 54.5881 59.7449 54.4927 59.8127C54.3735 59.9004 54.2206 59.998 54.0338 60.1056C53.851 60.2172 53.6166 60.3128 53.3305 60.3925C53.0445 60.4762 52.6928 60.518 52.2756 60.518ZM52.4366 59.6035C52.6829 59.6035 52.9213 59.5656 53.1517 59.4899C53.3822 59.4102 53.5888 59.3026 53.7716 59.1671C53.9544 59.0276 54.0994 58.8662 54.2067 58.6829C54.3139 58.4956 54.3676 58.2944 54.3676 58.0792C54.3676 57.9437 54.3219 57.846 54.2305 57.7863C54.1431 57.7265 53.9981 57.6886 53.7954 57.6727C53.5928 57.6568 53.3246 57.6488 52.9908 57.6488C52.661 57.6488 52.3551 57.6827 52.073 57.7504C51.7909 57.8142 51.5644 57.9238 51.3936 58.0792C51.2227 58.2306 51.1373 58.4378 51.1373 58.7008C51.1373 58.9041 51.1889 59.0715 51.2922 59.203C51.3955 59.3345 51.5445 59.4341 51.7392 59.5019C51.9339 59.5696 52.1664 59.6035 52.4366 59.6035Z" fill="white"/>
<path d="M47.0519 60.3036C46.8453 60.3036 46.6884 60.2597 46.5811 60.1721C46.4778 60.0884 46.4043 59.9569 46.3606 59.7775C46.3447 59.6699 46.3248 59.5265 46.301 59.3472C46.2771 59.1678 46.2513 58.9706 46.2235 58.7554C46.1957 58.5362 46.1679 58.315 46.1401 58.0919C46.1123 57.8687 46.0844 57.6615 46.0566 57.4702C46.0328 57.2789 46.0129 57.1215 45.997 56.998C45.9891 56.9063 45.9613 56.8425 45.9136 56.8067C45.8699 56.7708 45.8083 56.7529 45.7288 56.7529C45.6732 56.7529 45.5937 56.7628 45.4904 56.7828C45.3911 56.7987 45.258 56.8246 45.0911 56.8605C44.9163 56.9003 44.7772 56.9342 44.6739 56.9621C44.5706 56.986 44.4872 56.998 44.4236 56.998C44.3481 56.998 44.2825 56.982 44.2269 56.9501C44.1753 56.9143 44.1335 56.8664 44.1018 56.8067C44.074 56.7469 44.06 56.6811 44.06 56.6094C44.06 56.5217 44.0938 56.438 44.1614 56.3583C44.2289 56.2786 44.3402 56.2049 44.4951 56.1372C44.5627 56.1053 44.6739 56.0674 44.8289 56.0236C44.9878 55.9798 45.1527 55.9359 45.3236 55.8921C45.4944 55.8483 45.6355 55.8124 45.7467 55.7845C45.8063 55.7725 45.846 55.7427 45.8659 55.6948C45.8858 55.647 45.8957 55.5753 45.8957 55.4796C45.8957 55.3601 45.8858 55.2346 45.8659 55.103C45.85 54.9676 45.8321 54.8281 45.8123 54.6846C45.7924 54.5411 45.7825 54.3937 45.7825 54.2423C45.7825 53.8079 45.8699 53.4452 46.0447 53.1543C46.2195 52.8594 46.4699 52.6383 46.7957 52.4908C47.1254 52.3394 47.5148 52.2637 47.9638 52.2637C48.1386 52.2637 48.3055 52.2776 48.4645 52.3055C48.6234 52.3294 48.7644 52.3673 48.8876 52.4191C49.0148 52.4669 49.1141 52.5267 49.1856 52.5984C49.2571 52.6662 49.2929 52.7439 49.2929 52.8315C49.2929 52.9112 49.273 52.975 49.2333 53.0228C49.1936 53.0667 49.1359 53.1025 49.0604 53.1304C48.985 53.1464 48.8876 53.1543 48.7684 53.1543C48.6532 53.1504 48.5181 53.1504 48.3631 53.1543C47.9261 53.1583 47.6162 53.2679 47.4334 53.4831C47.2546 53.6983 47.1652 54.0131 47.1652 54.4276C47.1652 54.4913 47.1672 54.5631 47.1711 54.6428C47.1751 54.7185 47.1811 54.7942 47.189 54.8699C47.2009 54.9416 47.2109 55.0114 47.2188 55.0791C47.2347 55.1827 47.2605 55.2565 47.2963 55.3003C47.3321 55.3402 47.3817 55.3601 47.4453 55.3601C47.497 55.3601 47.5903 55.3421 47.7254 55.3063C47.8645 55.2704 48.0274 55.2226 48.2141 55.1628C48.3492 55.115 48.4883 55.0712 48.6313 55.0313C48.7744 54.9915 48.9035 54.9596 49.0187 54.9357C49.134 54.9078 49.2174 54.8938 49.269 54.8938C49.3803 54.8938 49.4657 54.9277 49.5253 54.9954C49.5889 55.0592 49.6207 55.1449 49.6207 55.2525C49.6207 55.3641 49.5849 55.4617 49.5134 55.5454C49.4459 55.6251 49.3088 55.7108 49.1022 55.8024C48.9671 55.8622 48.8002 55.9299 48.6015 56.0057C48.4029 56.0774 48.1565 56.1631 47.8625 56.2627C47.6837 56.3265 47.5625 56.4042 47.4989 56.4958C47.4393 56.5835 47.4095 56.6911 47.4095 56.8186C47.4095 56.9302 47.4155 57.0816 47.4274 57.2729C47.4433 57.4642 47.4612 57.6754 47.4811 57.9066C47.5009 58.1337 47.5188 58.3648 47.5347 58.6C47.5546 58.8311 47.5685 59.0443 47.5764 59.2396C47.5844 59.4348 47.5824 59.5922 47.5705 59.7118C47.5426 59.923 47.487 60.0744 47.4036 60.1661C47.3201 60.2577 47.2029 60.3036 47.0519 60.3036Z" fill="white"/>
</svg>
