<svg width="104" height="104" viewBox="0 0 104 104" fill="none" xmlns="http://www.w3.org/2000/svg">
<rect x="1" y="1" width="102" height="102" rx="9" fill="#151029"/>
<rect x="1" y="1" width="102" height="102" rx="9" stroke="#C0282D" stroke-width="2"/>
<path fill-rule="evenodd" clip-rule="evenodd" d="M46.0886 41.3229C46.378 40.9552 46.9102 40.8922 47.2772 41.182C48.172 41.8886 49.0617 42.9633 49.7926 43.9718C50.5321 44.9922 51.1514 46.0046 51.5008 46.6353C51.653 46.9101 51.641 47.2466 51.4696 47.5097C51.2982 47.7729 50.9955 47.9195 50.6831 47.8907C49.8864 47.8171 49.0455 48.0156 48.2889 48.3277C47.5344 48.6388 46.9263 49.0372 46.6184 49.2872C46.2553 49.5821 45.7224 49.5264 45.4279 49.1628C45.1335 48.7992 45.1891 48.2654 45.5522 47.9705C45.9865 47.6178 46.7364 47.1346 47.6443 46.7601C47.8941 46.6571 48.1607 46.5603 48.4401 46.4764C48.4143 46.4659 48.3888 46.4541 48.3636 46.4409C45.5206 44.9461 42.4924 45.1371 39.7272 46.3262C36.9476 47.5215 34.4832 49.7102 32.8786 52.0973C31.2506 54.5191 30.6279 56.9517 31.1723 58.6737C31.6728 60.2565 33.3108 61.6261 37.2191 61.6261C37.6865 61.6261 38.0654 62.0056 38.0654 62.4738C38.0654 62.9419 37.6865 63.3214 37.2191 63.3214C32.9459 63.3214 30.377 61.7738 29.5586 59.1854C28.7843 56.7363 29.731 53.744 31.4744 51.1505C33.2411 48.5223 35.95 46.1055 39.0593 44.7684C41.8356 43.5746 44.9695 43.23 48.0129 44.4197C47.4232 43.6568 46.8026 42.9661 46.2292 42.5133C45.8621 42.2235 45.7992 41.6905 46.0886 41.3229Z" fill="#0077BA"/>
<path fill-rule="evenodd" clip-rule="evenodd" d="M18.1599 48.3642C18.5161 48.6755 18.5363 49.1994 18.2051 49.5343C17.8696 49.8735 17.6011 50.2131 17.3909 50.5476C17.1436 50.9414 16.6036 51.0721 16.1848 50.8396C15.766 50.6071 15.627 50.0994 15.8743 49.7057C16.1533 49.2615 16.4995 48.8271 16.9152 48.4067C17.2464 48.0719 17.8037 48.0528 18.1599 48.3642ZM37.3925 50.757C37.4453 50.3025 37.8801 49.9742 38.3636 50.0239C40.0213 50.194 41.289 50.9168 42.1556 51.9603C42.4549 52.3208 42.3868 52.841 42.0034 53.1224C41.62 53.4038 41.0666 53.3397 40.7673 52.9793C40.1911 52.2855 39.3538 51.7912 38.1724 51.6699C37.6889 51.6203 37.3397 51.2116 37.3925 50.757ZM35.4464 51.0636C35.6026 51.4967 35.3558 51.9667 34.8952 52.1136C33.9418 52.4175 32.8708 52.8806 31.6763 53.5386C31.2566 53.7697 30.7171 53.6373 30.4712 53.2428C30.2253 52.8483 30.3662 52.3411 30.7858 52.1099C32.0633 51.4063 33.2431 50.8918 34.3295 50.5454C34.7902 50.3986 35.2902 50.6306 35.4464 51.0636ZM15.827 52.0609C16.3125 52.0331 16.7301 52.3805 16.7597 52.8369C16.8111 53.6274 17.1401 54.3781 17.6861 55.0144C17.9915 55.3703 17.9322 55.8915 17.5537 56.1786C17.1752 56.4657 16.6207 56.41 16.3153 56.0541C15.5607 55.1748 15.0772 54.1016 15.0017 52.9377C14.972 52.4814 15.3416 52.0888 15.827 52.0609ZM28.8408 54.2822C29.1331 54.6477 29.0548 55.1667 28.666 55.4415C28.1973 55.7726 27.7147 56.1286 27.2181 56.5106C26.7637 56.8601 26.2997 57.1595 25.8301 57.411C25.4075 57.6374 24.8697 57.4989 24.6289 57.1016C24.3881 56.7043 24.5354 56.1988 24.958 55.9724C25.3389 55.7683 25.7218 55.5221 26.1028 55.229C26.617 54.8335 27.1186 54.4634 27.6077 54.1178C27.9965 53.8431 28.5486 53.9167 28.8408 54.2822ZM42.6175 54.9095C43.1029 54.8802 43.5216 55.2264 43.5528 55.6827C43.6402 56.9637 43.4186 58.2957 42.9219 59.4813C42.7436 59.9068 42.2323 60.1158 41.7797 59.9482C41.3272 59.7807 41.1048 59.2999 41.2831 58.8745C41.6844 57.9167 41.866 56.8282 41.7951 55.7887C41.7639 55.3324 42.1322 54.9388 42.6175 54.9095ZM18.6467 56.9116C18.824 56.4858 19.3349 56.2758 19.7878 56.4425C20.5724 56.7313 21.4622 56.8591 22.3993 56.7679C22.8831 56.7208 23.3159 57.0514 23.366 57.5062C23.416 57.961 23.0644 58.3679 22.5806 58.4149C21.3596 58.5338 20.1877 58.3679 19.1456 57.9843C18.6927 57.8176 18.4693 57.3373 18.6467 56.9116ZM40.5983 61.4665C40.8585 61.8528 40.7363 62.3643 40.3253 62.6089C39.7008 62.9806 38.9916 63.2308 38.21 63.3156C37.7269 63.368 37.29 63.0423 37.2342 62.5881C37.1785 62.1338 37.525 61.7231 38.0081 61.6707C38.5117 61.6161 38.9697 61.456 39.3831 61.2099C39.7941 60.9653 40.3381 61.0802 40.5983 61.4665Z" fill="#E10B58"/>
<path d="M84.0519 59.0697C83.8651 59.0697 83.7181 59.0199 83.6108 58.9203C83.5036 58.8207 83.4261 58.6593 83.3784 58.4361C83.3625 58.3325 83.3526 58.2149 83.3486 58.0834C83.3446 57.9519 83.3446 57.8025 83.3486 57.6351C83.3526 57.4677 83.3625 57.2844 83.3784 57.0852C83.4261 56.2921 83.587 55.6206 83.8612 55.0707C84.1353 54.5168 84.5167 54.0963 85.0055 53.8094C85.4942 53.5185 86.0763 53.373 86.7517 53.373C87.4312 53.373 88.0133 53.5105 88.498 53.7855C88.9827 54.0605 89.3542 54.4829 89.6125 55.0528C89.8708 55.6226 89.9999 56.3499 89.9999 57.2346C89.9999 57.394 89.9959 57.5414 89.988 57.6769C89.984 57.8124 89.9761 57.936 89.9641 58.0476C89.9522 58.1591 89.9343 58.2608 89.9105 58.3524C89.8509 58.6075 89.7615 58.7908 89.6423 58.9024C89.5271 59.0139 89.3761 59.0697 89.1894 59.0697C88.9986 59.0697 88.8536 59.0378 88.7543 58.9741C88.6549 58.9103 88.5834 58.8147 88.5397 58.6872C88.496 58.5596 88.4662 58.4022 88.4503 58.2149C88.4384 57.916 88.4265 57.653 88.4146 57.4259C88.4066 57.1947 88.3927 56.9895 88.3728 56.8102C88.3569 56.6269 88.3371 56.4575 88.3132 56.3021C88.2894 56.1427 88.2596 55.9833 88.2238 55.8239C88.1325 55.4174 87.9795 55.1086 87.7649 54.8973C87.5504 54.6861 87.2305 54.5805 86.8054 54.5805C86.3961 54.5805 86.0663 54.6941 85.816 54.9213C85.5697 55.1484 85.379 55.4612 85.2439 55.8597C85.1843 56.0271 85.1346 56.2025 85.0949 56.3858C85.0551 56.5691 85.0214 56.7584 84.9935 56.9536C84.9697 57.1489 84.9478 57.3541 84.928 57.5693C84.9121 57.7845 84.8962 58.0097 84.8803 58.2448C84.8604 58.468 84.8128 58.6393 84.7373 58.7589C84.6618 58.8784 84.5664 58.9601 84.4512 59.004C84.336 59.0478 84.2029 59.0697 84.0519 59.0697Z" fill="white"/>
<path d="M79.156 59.518C78.8342 59.518 78.5283 59.4862 78.2382 59.4224C77.9521 59.3586 77.6978 59.257 77.4753 59.1175C77.2528 58.9781 77.078 58.7967 76.9509 58.5736C76.8237 58.3504 76.7601 58.0774 76.7601 57.7546C76.7601 57.388 76.8495 57.0871 77.0283 56.852C77.2071 56.6169 77.4495 56.4336 77.7555 56.3021C78.0654 56.1666 78.413 56.0729 78.7984 56.0211C79.1839 55.9693 79.5832 55.9434 79.9964 55.9434C80.1235 55.9434 80.2527 55.9474 80.3838 55.9554C80.5149 55.9634 80.6381 55.9713 80.7533 55.9793C80.8725 55.9873 80.9699 55.9912 81.0454 55.9912C81.1487 55.9912 81.2182 55.9753 81.254 55.9434C81.2897 55.9076 81.3076 55.8478 81.3076 55.7641C81.3076 55.6087 81.2877 55.4712 81.248 55.3516C81.2122 55.2321 81.1586 55.1265 81.0871 55.0348C81.0156 54.9432 80.9301 54.8655 80.8308 54.8017C80.6719 54.6941 80.4792 54.6184 80.2527 54.5745C80.0302 54.5267 79.7898 54.5028 79.5315 54.5028C79.2256 54.5028 78.9534 54.5347 78.715 54.5985C78.4806 54.6622 78.272 54.728 78.0892 54.7957C77.9064 54.8635 77.7396 54.8973 77.5886 54.8973C77.382 54.8973 77.223 54.8635 77.1118 54.7957C77.0005 54.728 76.9449 54.6184 76.9449 54.467C76.9449 54.3115 77.0105 54.1681 77.1416 54.0366C77.2727 53.9051 77.4535 53.7895 77.6839 53.6899C77.9184 53.5902 78.1885 53.5125 78.4945 53.4567C78.8044 53.4009 79.1342 53.373 79.4838 53.373C80.1871 53.373 80.7752 53.4627 81.248 53.642C81.7248 53.8174 82.0824 54.1043 82.3208 54.5028C82.5592 54.8973 82.6784 55.4294 82.6784 56.0988C82.6784 56.2981 82.6684 56.4715 82.6486 56.6189C82.6287 56.7663 82.6029 56.8959 82.5711 57.0074C82.5433 57.115 82.5194 57.2087 82.4996 57.2884C82.4797 57.3681 82.4698 57.4418 82.4698 57.5096C82.4698 57.6052 82.4996 57.6969 82.5592 57.7845C82.6228 57.8682 82.6963 57.9519 82.7797 58.0356C82.8671 58.1193 82.9426 58.2089 83.0062 58.3046C83.0698 58.3962 83.1015 58.4999 83.1015 58.6154C83.1015 58.7868 83.0459 58.9103 82.9347 58.986C82.8234 59.0618 82.7002 59.0996 82.5651 59.0996C82.442 59.0996 82.3387 59.0578 82.2552 58.9741C82.1758 58.8944 82.1023 58.8147 82.0347 58.735C81.9711 58.6553 81.8917 58.6154 81.7963 58.6154C81.7407 58.6154 81.6791 58.6314 81.6115 58.6632C81.548 58.6951 81.4685 58.7449 81.3732 58.8127C81.254 58.9004 81.101 58.998 80.9142 59.1056C80.7315 59.2172 80.497 59.3128 80.211 59.3925C79.9249 59.4762 79.5732 59.518 79.156 59.518ZM79.317 58.6035C79.5633 58.6035 79.8017 58.5656 80.0322 58.4899C80.2626 58.4102 80.4692 58.3026 80.652 58.1671C80.8348 58.0276 80.9798 57.8662 81.0871 57.6829C81.1944 57.4956 81.248 57.2944 81.248 57.0792C81.248 56.9437 81.2023 56.846 81.1109 56.7863C81.0235 56.7265 80.8785 56.6886 80.6758 56.6727C80.4732 56.6568 80.205 56.6488 79.8712 56.6488C79.5415 56.6488 79.2355 56.6827 78.9534 56.7504C78.6713 56.8142 78.4448 56.9238 78.274 57.0792C78.1031 57.2306 78.0177 57.4378 78.0177 57.7008C78.0177 57.9041 78.0693 58.0715 78.1727 58.203C78.276 58.3345 78.425 58.4341 78.6197 58.5019C78.8143 58.5696 79.0468 58.6035 79.317 58.6035Z" fill="white"/>
<path d="M72.3317 59.518C72.0098 59.518 71.7039 59.4862 71.4138 59.4224C71.1278 59.3586 70.8735 59.257 70.651 59.1175C70.4285 58.9781 70.2536 58.7967 70.1265 58.5736C69.9993 58.3504 69.9358 58.0774 69.9358 57.7546C69.9358 57.388 70.0252 57.0871 70.204 56.852C70.3828 56.6169 70.6251 56.4336 70.9311 56.3021C71.241 56.1666 71.5887 56.0729 71.9741 56.0211C72.3595 55.9693 72.7588 55.9434 73.172 55.9434C73.2992 55.9434 73.4283 55.9474 73.5594 55.9554C73.6905 55.9634 73.8137 55.9713 73.9289 55.9793C74.0481 55.9873 74.1455 55.9912 74.221 55.9912C74.3243 55.9912 74.3938 55.9753 74.4296 55.9434C74.4653 55.9076 74.4832 55.8478 74.4832 55.7641C74.4832 55.6087 74.4633 55.4712 74.4236 55.3516C74.3878 55.2321 74.3342 55.1265 74.2627 55.0348C74.1912 54.9432 74.1057 54.8655 74.0064 54.8017C73.8475 54.6941 73.6548 54.6184 73.4283 54.5745C73.2058 54.5267 72.9654 54.5028 72.7071 54.5028C72.4012 54.5028 72.129 54.5347 71.8906 54.5985C71.6562 54.6622 71.4476 54.728 71.2648 54.7957C71.0821 54.8635 70.9152 54.8973 70.7642 54.8973C70.5576 54.8973 70.3987 54.8635 70.2874 54.7957C70.1761 54.728 70.1205 54.6184 70.1205 54.467C70.1205 54.3115 70.1861 54.1681 70.3172 54.0366C70.4483 53.9051 70.6291 53.7895 70.8596 53.6899C71.094 53.5902 71.3642 53.5125 71.6701 53.4567C71.98 53.4009 72.3098 53.373 72.6595 53.373C73.3627 53.373 73.9508 53.4627 74.4236 53.642C74.9004 53.8174 75.258 54.1043 75.4964 54.5028C75.7348 54.8973 75.854 55.4294 75.854 56.0988C75.854 56.2981 75.8441 56.4715 75.8242 56.6189C75.8043 56.7663 75.7785 56.8959 75.7467 57.0074C75.7189 57.115 75.6951 57.2087 75.6752 57.2884C75.6553 57.3681 75.6454 57.4418 75.6454 57.5096C75.6454 57.6052 75.6752 57.6969 75.7348 57.7845C75.7984 57.8682 75.8719 57.9519 75.9553 58.0356C76.0427 58.1193 76.1182 58.2089 76.1818 58.3046C76.2454 58.3962 76.2772 58.4999 76.2772 58.6154C76.2772 58.7868 76.2215 58.9103 76.1103 58.986C75.999 59.0618 75.8759 59.0996 75.7408 59.0996C75.6176 59.0996 75.5143 59.0578 75.4308 58.9741C75.3514 58.8944 75.2779 58.8147 75.2103 58.735C75.1468 58.6553 75.0673 58.6154 74.9719 58.6154C74.9163 58.6154 74.8547 58.6314 74.7872 58.6632C74.7236 58.6951 74.6441 58.7449 74.5488 58.8127C74.4296 58.9004 74.2766 58.998 74.0899 59.1056C73.9071 59.2172 73.6727 59.3128 73.3866 59.3925C73.1005 59.4762 72.7489 59.518 72.3317 59.518ZM72.4926 58.6035C72.7389 58.6035 72.9773 58.5656 73.2078 58.4899C73.4382 58.4102 73.6448 58.3026 73.8276 58.1671C74.0104 58.0276 74.1554 57.8662 74.2627 57.6829C74.37 57.4956 74.4236 57.2944 74.4236 57.0792C74.4236 56.9437 74.3779 56.846 74.2865 56.7863C74.1991 56.7265 74.0541 56.6886 73.8515 56.6727C73.6488 56.6568 73.3806 56.6488 73.0469 56.6488C72.7171 56.6488 72.4111 56.6827 72.129 56.7504C71.8469 56.8142 71.6204 56.9238 71.4496 57.0792C71.2787 57.2306 71.1933 57.4378 71.1933 57.7008C71.1933 57.9041 71.245 58.0715 71.3483 58.203C71.4516 58.3345 71.6006 58.4341 71.7953 58.5019C71.99 58.5696 72.2224 58.6035 72.4926 58.6035Z" fill="white"/>
<path d="M63.3335 59.0697C63.1468 59.0697 62.9997 59.0199 62.8925 58.9203C62.7852 58.8207 62.7077 58.6593 62.66 58.4361C62.6441 58.3325 62.6342 58.2149 62.6302 58.0834C62.6262 57.9519 62.6262 57.8025 62.6302 57.6351C62.6342 57.4677 62.6441 57.2844 62.66 57.0852C62.7077 56.2921 62.8686 55.6206 63.1428 55.0707C63.4169 54.5168 63.7984 54.0963 64.2871 53.8094C64.7758 53.5185 65.3579 53.373 66.0334 53.373C66.7128 53.373 67.2949 53.5105 67.7796 53.7855C68.2644 54.0605 68.6359 54.4829 68.8941 55.0528C69.1524 55.6226 69.2815 56.3499 69.2815 57.2346C69.2815 57.394 69.2776 57.5414 69.2696 57.6769C69.2656 57.8124 69.2577 57.936 69.2458 58.0476C69.2339 58.1591 69.216 58.2608 69.1921 58.3524C69.1325 58.6075 69.0431 58.7908 68.9239 58.9024C68.8087 59.0139 68.6577 59.0697 68.471 59.0697C68.2803 59.0697 68.1352 59.0378 68.0359 58.9741C67.9366 58.9103 67.8651 58.8147 67.8213 58.6872C67.7776 58.5596 67.7478 58.4022 67.7319 58.2149C67.72 57.916 67.7081 57.653 67.6962 57.4259C67.6882 57.1947 67.6743 56.9895 67.6545 56.8102C67.6386 56.6269 67.6187 56.4575 67.5949 56.3021C67.571 56.1427 67.5412 55.9833 67.5055 55.8239C67.4141 55.4174 67.2611 55.1086 67.0466 54.8973C66.832 54.6861 66.5121 54.5805 66.087 54.5805C65.6777 54.5805 65.348 54.6941 65.0976 54.9213C64.8513 55.1484 64.6606 55.4612 64.5255 55.8597C64.4659 56.0271 64.4162 56.2025 64.3765 56.3858C64.3368 56.5691 64.303 56.7584 64.2752 56.9536C64.2513 57.1489 64.2295 57.3541 64.2096 57.5693C64.1937 57.7845 64.1778 58.0097 64.1619 58.2448C64.1421 58.468 64.0944 58.6393 64.0189 58.7589C63.9434 58.8784 63.848 58.9601 63.7328 59.004C63.6176 59.0478 63.4845 59.0697 63.3335 59.0697Z" fill="white"/>
<path d="M56.1714 59.0697C55.9847 59.0697 55.8377 59.0199 55.7304 58.9203C55.6231 58.8207 55.5457 58.6593 55.498 58.4361C55.4821 58.3325 55.4721 58.2149 55.4682 58.0834C55.4642 57.9519 55.4642 57.8025 55.4682 57.6351C55.4721 57.4677 55.4821 57.2844 55.498 57.0852C55.5457 56.2921 55.7066 55.6206 55.9807 55.0707C56.2549 54.5168 56.6363 54.0963 57.125 53.8094C57.6138 53.5185 58.1958 53.373 58.8713 53.373C59.5507 53.373 60.1328 53.5105 60.6176 53.7855C61.1023 54.0605 61.4738 54.4829 61.7321 55.0528C61.9904 55.6226 62.1195 56.3499 62.1195 57.2346C62.1195 57.394 62.1155 57.5414 62.1076 57.6769C62.1036 57.8124 62.0956 57.936 62.0837 58.0476C62.0718 58.1591 62.0539 58.2608 62.0301 58.3524C61.9705 58.6075 61.8811 58.7908 61.7619 58.9024C61.6467 59.0139 61.4957 59.0697 61.3089 59.0697C61.1182 59.0697 60.9732 59.0378 60.8739 58.9741C60.7745 58.9103 60.703 58.8147 60.6593 58.6872C60.6156 58.5596 60.5858 58.4022 60.5699 58.2149C60.558 57.916 60.5461 57.653 60.5341 57.4259C60.5262 57.1947 60.5123 56.9895 60.4924 56.8102C60.4765 56.6269 60.4567 56.4575 60.4328 56.3021C60.409 56.1427 60.3792 55.9833 60.3434 55.8239C60.252 55.4174 60.0991 55.1086 59.8845 54.8973C59.6699 54.6861 59.3501 54.5805 58.9249 54.5805C58.5157 54.5805 58.1859 54.6941 57.9356 54.9213C57.6893 55.1484 57.4985 55.4612 57.3634 55.8597C57.3038 56.0271 57.2542 56.2025 57.2144 56.3858C57.1747 56.5691 57.1409 56.7584 57.1131 56.9536C57.0893 57.1489 57.0674 57.3541 57.0476 57.5693C57.0317 57.7845 57.0158 58.0097 56.9999 58.2448C56.98 58.468 56.9323 58.6393 56.8568 58.7589C56.7814 58.8784 56.686 58.9601 56.5708 59.004C56.4555 59.0478 56.3224 59.0697 56.1714 59.0697Z" fill="white"/>
<path d="M51.2756 59.518C50.9538 59.518 50.6479 59.4862 50.3578 59.4224C50.0717 59.3586 49.8174 59.257 49.5949 59.1175C49.3724 58.9781 49.1976 58.7967 49.0704 58.5736C48.9433 58.3504 48.8797 58.0774 48.8797 57.7546C48.8797 57.388 48.9691 57.0871 49.1479 56.852C49.3267 56.6169 49.5691 56.4336 49.875 56.3021C50.185 56.1666 50.5326 56.0729 50.918 56.0211C51.3034 55.9693 51.7028 55.9434 52.116 55.9434C52.2431 55.9434 52.3723 55.9474 52.5034 55.9554C52.6345 55.9634 52.7577 55.9713 52.8729 55.9793C52.9921 55.9873 53.0894 55.9912 53.1649 55.9912C53.2682 55.9912 53.3378 55.9753 53.3735 55.9434C53.4093 55.9076 53.4272 55.8478 53.4272 55.7641C53.4272 55.6087 53.4073 55.4712 53.3676 55.3516C53.3318 55.2321 53.2782 55.1265 53.2067 55.0348C53.1351 54.9432 53.0497 54.8655 52.9504 54.8017C52.7914 54.6941 52.5987 54.6184 52.3723 54.5745C52.1498 54.5267 51.9094 54.5028 51.6511 54.5028C51.3452 54.5028 51.073 54.5347 50.8346 54.5985C50.6002 54.6622 50.3916 54.728 50.2088 54.7957C50.026 54.8635 49.8591 54.8973 49.7082 54.8973C49.5016 54.8973 49.3426 54.8635 49.2314 54.7957C49.1201 54.728 49.0645 54.6184 49.0645 54.467C49.0645 54.3115 49.13 54.1681 49.2612 54.0366C49.3923 53.9051 49.5731 53.7895 49.8035 53.6899C50.0379 53.5902 50.3081 53.5125 50.6141 53.4567C50.924 53.4009 51.2538 53.373 51.6034 53.373C52.3067 53.373 52.8948 53.4627 53.3676 53.642C53.8444 53.8174 54.202 54.1043 54.4404 54.5028C54.6788 54.8973 54.798 55.4294 54.798 56.0988C54.798 56.2981 54.788 56.4715 54.7682 56.6189C54.7483 56.7663 54.7225 56.8959 54.6907 57.0074C54.6629 57.115 54.639 57.2087 54.6192 57.2884C54.5993 57.3681 54.5894 57.4418 54.5894 57.5096C54.5894 57.6052 54.6192 57.6969 54.6788 57.7845C54.7423 57.8682 54.8158 57.9519 54.8993 58.0356C54.9867 58.1193 55.0622 58.2089 55.1258 58.3046C55.1893 58.3962 55.2211 58.4999 55.2211 58.6154C55.2211 58.7868 55.1655 58.9103 55.0542 58.986C54.943 59.0618 54.8198 59.0996 54.6847 59.0996C54.5616 59.0996 54.4582 59.0578 54.3748 58.9741C54.2953 58.8944 54.2218 58.8147 54.1543 58.735C54.0907 58.6553 54.0113 58.6154 53.9159 58.6154C53.8603 58.6154 53.7987 58.6314 53.7311 58.6632C53.6676 58.6951 53.5881 58.7449 53.4927 58.8127C53.3735 58.9004 53.2206 58.998 53.0338 59.1056C52.851 59.2172 52.6166 59.3128 52.3305 59.3925C52.0445 59.4762 51.6928 59.518 51.2756 59.518ZM51.4366 58.6035C51.6829 58.6035 51.9213 58.5656 52.1517 58.4899C52.3822 58.4102 52.5888 58.3026 52.7716 58.1671C52.9544 58.0276 53.0994 57.8662 53.2067 57.6829C53.3139 57.4956 53.3676 57.2944 53.3676 57.0792C53.3676 56.9437 53.3219 56.846 53.2305 56.7863C53.1431 56.7265 52.9981 56.6886 52.7954 56.6727C52.5928 56.6568 52.3246 56.6488 51.9908 56.6488C51.661 56.6488 51.3551 56.6827 51.073 56.7504C50.7909 56.8142 50.5644 56.9238 50.3936 57.0792C50.2227 57.2306 50.1373 57.4378 50.1373 57.7008C50.1373 57.9041 50.1889 58.0715 50.2922 58.203C50.3955 58.3345 50.5445 58.4341 50.7392 58.5019C50.9339 58.5696 51.1664 58.6035 51.4366 58.6035Z" fill="white"/>
<path d="M46.0519 59.3036C45.8453 59.3036 45.6884 59.2597 45.5811 59.1721C45.4778 59.0884 45.4043 58.9569 45.3606 58.7775C45.3447 58.6699 45.3248 58.5265 45.301 58.3472C45.2771 58.1678 45.2513 57.9706 45.2235 57.7554C45.1957 57.5362 45.1679 57.315 45.1401 57.0919C45.1123 56.8687 45.0844 56.6615 45.0566 56.4702C45.0328 56.2789 45.0129 56.1215 44.997 55.998C44.9891 55.9063 44.9613 55.8425 44.9136 55.8067C44.8699 55.7708 44.8083 55.7529 44.7288 55.7529C44.6732 55.7529 44.5937 55.7628 44.4904 55.7828C44.3911 55.7987 44.258 55.8246 44.0911 55.8605C43.9163 55.9003 43.7772 55.9342 43.6739 55.9621C43.5706 55.986 43.4872 55.998 43.4236 55.998C43.3481 55.998 43.2825 55.982 43.2269 55.9501C43.1753 55.9143 43.1335 55.8664 43.1018 55.8067C43.074 55.7469 43.06 55.6811 43.06 55.6094C43.06 55.5217 43.0938 55.438 43.1614 55.3583C43.2289 55.2786 43.3402 55.2049 43.4951 55.1372C43.5627 55.1053 43.6739 55.0674 43.8289 55.0236C43.9878 54.9798 44.1527 54.9359 44.3236 54.8921C44.4944 54.8483 44.6355 54.8124 44.7467 54.7845C44.8063 54.7725 44.846 54.7427 44.8659 54.6948C44.8858 54.647 44.8957 54.5753 44.8957 54.4796C44.8957 54.3601 44.8858 54.2346 44.8659 54.103C44.85 53.9676 44.8321 53.8281 44.8123 53.6846C44.7924 53.5411 44.7825 53.3937 44.7825 53.2423C44.7825 52.8079 44.8699 52.4452 45.0447 52.1543C45.2195 51.8594 45.4699 51.6383 45.7957 51.4908C46.1254 51.3394 46.5148 51.2637 46.9638 51.2637C47.1386 51.2637 47.3055 51.2776 47.4645 51.3055C47.6234 51.3294 47.7644 51.3673 47.8876 51.4191C48.0148 51.4669 48.1141 51.5267 48.1856 51.5984C48.2571 51.6662 48.2929 51.7439 48.2929 51.8315C48.2929 51.9112 48.273 51.975 48.2333 52.0228C48.1936 52.0667 48.1359 52.1025 48.0604 52.1304C47.985 52.1464 47.8876 52.1543 47.7684 52.1543C47.6532 52.1504 47.5181 52.1504 47.3631 52.1543C46.9261 52.1583 46.6162 52.2679 46.4334 52.4831C46.2546 52.6983 46.1652 53.0131 46.1652 53.4276C46.1652 53.4913 46.1672 53.5631 46.1711 53.6428C46.1751 53.7185 46.1811 53.7942 46.189 53.8699C46.2009 53.9416 46.2109 54.0114 46.2188 54.0791C46.2347 54.1827 46.2605 54.2565 46.2963 54.3003C46.3321 54.3402 46.3817 54.3601 46.4453 54.3601C46.497 54.3601 46.5903 54.3421 46.7254 54.3063C46.8645 54.2704 47.0274 54.2226 47.2141 54.1628C47.3492 54.115 47.4883 54.0712 47.6313 54.0313C47.7744 53.9915 47.9035 53.9596 48.0187 53.9357C48.134 53.9078 48.2174 53.8938 48.269 53.8938C48.3803 53.8938 48.4657 53.9277 48.5253 53.9954C48.5889 54.0592 48.6207 54.1449 48.6207 54.2525C48.6207 54.3641 48.5849 54.4617 48.5134 54.5454C48.4459 54.6251 48.3088 54.7108 48.1022 54.8024C47.9671 54.8622 47.8002 54.9299 47.6015 55.0057C47.4029 55.0774 47.1565 55.1631 46.8625 55.2627C46.6837 55.3265 46.5625 55.4042 46.4989 55.4958C46.4393 55.5835 46.4095 55.6911 46.4095 55.8186C46.4095 55.9302 46.4155 56.0816 46.4274 56.2729C46.4433 56.4642 46.4612 56.6754 46.4811 56.9066C46.5009 57.1337 46.5188 57.3648 46.5347 57.6C46.5546 57.8311 46.5685 58.0443 46.5764 58.2396C46.5844 58.4348 46.5824 58.5922 46.5705 58.7118C46.5426 58.923 46.487 59.0744 46.4036 59.1661C46.3201 59.2577 46.2029 59.3036 46.0519 59.3036Z" fill="white"/>
</svg>
