<svg width="104" height="104" viewBox="0 0 104 104" fill="none" xmlns="http://www.w3.org/2000/svg">
<rect x="1" y="1" width="102" height="102" rx="9" fill="#C22126"/>
<rect x="1" y="1" width="102" height="102" rx="9" stroke="#C0282D" stroke-width="2"/>
<path d="M15.1985 45.9967C15.0392 45.9967 14.8799 45.8373 14.8799 45.678V25.9222C14.8799 25.7628 15.0392 25.6035 15.1985 25.6035H19.0222C19.1816 25.6035 19.3409 25.7628 19.3409 25.9222V42.0136H29.1391C29.2985 42.0136 29.4578 42.1729 29.4578 42.3323V45.678C29.4578 45.8373 29.2985 45.9967 29.1391 45.9967H15.1985Z" fill="white"/>
<path d="M34.7951 30.7812H31.0511C30.8751 30.7812 30.7324 30.9239 30.7324 31.0999V45.6778C30.7324 45.8538 30.8751 45.9964 31.0511 45.9964H34.7951C34.9711 45.9964 35.1138 45.8538 35.1138 45.6778V31.0999C35.1138 30.9239 34.9711 30.7812 34.7951 30.7812Z" fill="white"/>
<path d="M34.7951 25.0449H31.0511C30.8751 25.0449 30.7324 25.1876 30.7324 25.3636V29.028C30.7324 29.2039 30.8751 29.3466 31.0511 29.3466H34.7951C34.9711 29.3466 35.1138 29.2039 35.1138 29.028V25.3636C35.1138 25.1876 34.9711 25.0449 34.7951 25.0449Z" fill="white"/>
<path d="M41.8053 46.3143C40.5307 46.3143 39.5748 45.9957 38.8579 45.2787C38.1409 44.5618 37.8223 43.6059 37.8223 42.411V25.3636C37.8223 25.2042 37.9816 25.0449 38.1409 25.0449H41.885C42.0443 25.0449 42.2036 25.2042 42.2036 25.3636V41.0567C42.2036 41.8533 42.3629 42.0923 42.4426 42.2516C42.6019 42.411 42.8409 42.4906 43.0799 42.4906C43.3189 42.4906 43.7172 42.4906 43.9561 42.411C44.1951 42.411 44.5138 42.2516 44.6731 42.172C44.6731 42.172 44.7527 42.172 44.8324 42.172C44.9121 42.172 44.9121 42.172 44.9917 42.172C45.0714 42.172 45.1511 42.3313 45.1511 42.411L45.629 45.2787C45.629 45.4381 45.629 45.5974 45.4697 45.5974C44.9121 45.8364 44.3544 46.0753 43.6375 46.155C42.9206 46.3143 42.3629 46.394 41.7256 46.394L41.8053 46.3143Z" fill="white"/>
<path d="M19.3409 79.0552C19.1019 79.0552 18.863 79.0552 18.624 79.0552C18.4646 79.0552 18.3053 79.0552 18.0663 79.0552H17.9867C17.668 79.0552 17.5087 78.9756 17.2697 78.8959C17.1104 78.8959 16.9511 78.7366 16.7121 78.7366C16.0748 78.4976 15.4375 78.179 14.9596 77.7807C14.163 77.0637 13.6053 76.1078 13.3664 74.9925V74.2756C13.207 74.0366 13.207 73.718 13.2867 73.3993C13.2867 73.001 13.3664 72.6027 13.5257 72.1248V71.9654C13.5257 71.9654 13.5257 71.8858 13.5257 71.8061L14.0036 70.9298L14.2426 70.4519L14.8003 69.6553C15.0392 69.257 15.2782 69.018 15.6765 68.779L17.1104 68.0621C17.1104 68.0621 17.2697 67.9027 17.4291 67.8231C17.5884 67.7434 17.7477 67.6638 17.9867 67.5044C18.2257 67.4248 18.385 67.2655 18.624 67.1858C18.863 67.1061 19.0223 67.0265 19.2613 66.9468C19.3409 66.9468 19.5002 66.9468 19.5799 67.1061C19.5799 67.2655 19.5799 67.4248 19.5002 67.5044L19.0223 67.9027C19.0223 67.9824 18.863 68.1417 18.7036 68.2214C18.624 68.2214 18.5443 68.3807 18.385 68.54C18.385 68.6197 18.385 68.6994 18.3053 68.6994C18.3053 68.6994 18.3053 68.6993 18.2257 68.8587L18.0663 69.1773C17.907 69.3366 17.7477 69.5756 17.5884 69.8146C17.4291 70.0536 17.3494 70.2926 17.1901 70.5315L16.8714 71.2485C16.7121 71.5671 16.6325 71.8858 16.5528 72.2044C16.4731 72.5231 16.3935 72.9214 16.2341 73.3197V73.3993C16.2341 73.479 16.2341 73.6383 16.2341 73.8773C16.2341 73.957 16.2341 74.1163 16.2341 74.2756C16.2341 74.4349 16.2341 74.4349 16.2341 74.5146C16.2341 74.5146 16.2341 74.5146 16.2341 74.5942V75.0722C16.2341 75.2315 16.2341 75.4705 16.3138 75.7095C16.3138 75.8688 16.4731 76.1078 16.5528 76.2671C16.6325 76.4264 16.8714 76.5061 17.1104 76.5858C17.3494 76.5858 17.7477 76.6654 18.146 76.8247C18.3053 76.8247 18.385 76.8247 18.5443 76.8247C18.7036 76.8247 18.863 76.8247 19.1019 76.6654L19.8189 76.3468C20.1375 76.2671 20.2968 76.1875 20.4562 76.1875C20.5358 76.1875 20.8545 76.0281 21.5714 75.6298C21.8104 75.4705 22.0494 75.3112 22.2087 75.2315C22.368 75.2315 22.4477 75.0722 22.5273 75.0722C22.607 75.0722 22.7663 74.9129 23.085 74.7536C23.324 74.5942 23.4833 74.5146 23.6426 74.3553C23.6426 74.3553 23.8019 74.2756 23.8816 74.2756C23.8816 74.2756 23.8816 74.2756 23.9612 74.2756C23.9612 74.2756 23.9612 74.2756 24.0409 74.2756C23.8816 74.2756 23.8019 74.2756 23.6426 74.2756C23.4036 74.2756 23.1646 74.1959 23.0053 74.1163C23.0053 74.1163 23.0053 74.1163 22.9256 74.1163C22.9256 74.1163 22.9256 74.1163 22.6867 74.1163C22.4477 74.1163 22.2884 74.1163 22.2087 74.1163C21.9697 73.957 21.8104 73.8773 21.7307 73.7976C21.5714 73.718 21.4918 73.5587 21.3324 73.3993C21.2528 73.3197 21.0935 73.1604 21.0138 73.0807C20.8545 72.9214 20.7748 72.762 20.7748 72.6027C20.7748 72.4434 20.6951 72.3637 20.6951 72.2044C20.6951 72.1248 20.6155 71.9654 20.6155 71.8858C20.6155 71.8061 20.6155 71.7265 20.6155 71.5671C20.6155 71.5671 20.6155 71.4875 20.6155 71.4078L20.7748 70.8502C20.7748 70.5315 20.7748 70.1332 20.9341 69.8146C21.0138 69.496 21.0935 69.257 21.0935 69.018L21.4918 67.4248C21.4918 67.3451 21.4918 67.2655 21.5714 67.1061C21.5714 66.9468 21.5714 66.8672 21.6511 66.7875C21.6511 66.4689 21.8104 66.1502 21.8901 65.9112C21.9697 65.7519 22.0494 65.4333 22.129 65.1146L22.6867 63.3621L23.0053 62.0875L23.8019 59.379L24.2002 57.9452L24.5189 56.9096C24.5189 56.7502 24.5189 56.5909 24.6782 56.5113C24.6782 56.4316 24.7578 56.3519 24.7578 56.2723L24.9968 54.7587C24.9968 54.5197 25.0765 54.2808 25.0765 54.0418C25.0765 54.0418 25.0765 54.0418 24.9968 54.0418L24.4392 54.3604C24.4392 54.3604 24.3595 54.3604 24.2799 54.3604C24.2799 54.3604 24.0409 54.3604 23.8816 54.5197C23.6426 54.6791 23.4036 54.7587 23.1646 54.918C22.9256 55.0774 22.6867 55.2367 22.368 55.4757C22.129 55.7147 21.8104 55.874 21.5714 56.113C21.2528 56.3519 21.0138 56.5909 20.8545 56.7502C20.8545 56.7502 20.7748 56.8299 20.6951 56.8299C20.6155 56.9892 20.4562 57.0689 20.3765 57.2282C20.2172 57.3875 20.1375 57.5468 19.9782 57.7062C19.8189 57.8655 19.7392 58.0248 19.6596 58.0248C19.3409 58.3435 19.3409 58.5028 19.3409 58.5028C19.3409 58.6621 19.3409 58.8214 19.1816 59.0604C19.1019 59.2197 19.1019 59.2994 19.0223 59.379C19.0223 59.4587 19.0223 59.5384 19.1019 59.6977C19.2613 59.7773 19.3409 59.857 19.4206 59.9367C19.5799 60.0163 19.6596 60.096 19.7392 60.1757L20.6155 60.4943C20.8545 60.4943 21.0935 60.4943 21.3324 60.6536C21.4918 60.6536 21.7307 60.7333 21.9697 60.7333C22.129 60.7333 22.2087 60.8129 22.2884 60.9723C22.2884 61.1316 22.2884 61.2909 22.129 61.3706C21.2528 61.9282 20.6155 62.1672 20.2172 62.2468C20.0579 62.2468 19.9782 62.2468 19.8985 62.2468C19.6596 62.2468 19.4206 62.2468 19.2613 62.0875C19.1816 62.0875 19.1019 62.0079 18.9426 61.9282C18.7833 61.9282 18.7833 61.8485 18.7833 61.8485C18.4646 61.7689 18.2257 61.6095 18.0663 61.3706C17.907 61.2112 17.7477 60.9723 17.668 60.8129C17.5087 60.574 17.3494 60.2553 17.2697 59.9367C17.1104 59.618 17.1104 59.2197 17.1901 58.9011C17.1901 58.7418 17.1901 58.5028 17.1104 58.1841C17.1104 57.7858 17.1104 57.3875 17.1104 56.9892V56.9096C17.1901 56.7502 17.2697 56.5909 17.2697 56.5113C17.2697 56.2723 17.2697 56.0333 17.4291 55.7943L17.8274 54.9977C17.8274 54.9977 17.8274 54.9977 17.8274 54.918C17.8274 54.8384 17.8274 54.7587 17.907 54.6791C17.907 54.6791 17.907 54.6791 17.9867 54.6791C17.9867 54.6791 17.9867 54.6791 17.9867 54.5994C17.9867 54.5197 18.146 54.3604 18.3053 54.2808L18.5443 53.9621C18.863 53.4842 19.2613 53.1655 19.6596 52.8469C20.0579 52.6079 20.4562 52.2892 20.7748 52.1299C21.0138 51.8909 21.2528 51.652 21.5714 51.413C21.8901 51.174 22.2884 51.0147 22.607 50.935C22.607 50.935 22.607 50.935 22.6867 50.935L23.1646 50.7757H23.5629C23.5629 50.696 24.2799 50.3774 24.2799 50.3774C24.3595 50.2977 24.5189 50.2181 24.5985 50.2181H24.8375L26.2714 49.6604C26.2714 49.6604 26.6697 49.6604 27.1477 49.5011C27.7053 49.4215 28.2629 49.3418 28.9002 49.3418C29.3782 49.3418 29.9358 49.3418 30.4138 49.3418C30.8917 49.3418 30.7324 49.3418 30.8917 49.3418C31.529 49.3418 31.9273 49.4215 32.1663 49.5808C32.8036 49.5808 33.3612 49.7401 33.9188 50.0587C34.4764 50.3774 34.9544 50.696 35.4324 51.0943C35.99 51.5723 36.3883 52.2096 36.6273 53.0062C36.6273 53.3248 36.7069 53.6435 36.7069 53.9621C36.7069 54.2808 36.7069 54.5994 36.6273 54.918C36.6273 55.2367 36.468 55.5553 36.3086 55.874C36.1493 56.1926 36.0697 56.5113 35.9103 56.8299L35.6714 57.3079C35.4324 57.7062 35.1934 58.1841 34.8748 58.5824C34.5561 58.9807 34.2375 59.379 33.9985 59.7774C33.8392 60.0163 33.6002 60.1757 33.4409 60.335L32.8832 60.8129C32.5646 61.1316 32.246 61.3706 32.007 61.6095C32.007 61.6095 32.1663 61.6095 32.1663 61.6892C32.4053 61.7689 32.6443 61.9282 32.8832 62.0079C33.1222 62.1672 33.3612 62.3265 33.6002 62.4858C33.9985 62.8045 34.3171 63.1231 34.6358 63.5214C34.9544 63.9197 35.1137 64.318 35.2731 64.796C35.3527 65.2739 35.4324 65.7519 35.3527 66.2299C35.3527 66.3892 35.3527 66.5485 35.3527 66.7078C35.3527 66.8672 35.3527 67.1061 35.1934 67.2655C35.1137 67.5841 34.9544 67.9824 34.7951 68.3807C34.6358 68.6994 34.3968 69.0977 34.2375 69.4163C33.9985 69.8146 33.7595 70.1332 33.6002 70.4519C33.4409 70.8502 33.1222 71.1688 32.8036 71.5671C32.6443 71.7265 32.4849 72.0451 32.2459 72.3637C32.007 72.762 31.768 73.001 31.529 73.24L30.8917 74.0366L30.5731 74.3553L28.3426 76.1875C28.1036 76.4264 27.7053 76.6654 27.2273 76.9841C26.7494 77.3027 26.1917 77.5417 25.6341 77.8603C25.0765 78.179 24.5189 78.418 23.8816 78.6569C23.324 78.8959 22.7663 79.0552 22.2884 79.1349C22.129 79.1349 21.9697 79.1349 21.7307 79.2942C21.4918 79.2942 21.2528 79.2942 21.1731 79.3739C21.0138 79.3739 20.8545 79.4535 20.6951 79.4535C20.5358 79.4535 20.3765 79.4535 20.2968 79.4535C20.2172 79.4535 20.0579 79.4535 20.0579 79.4535C19.9782 79.4535 19.8985 79.4535 19.8189 79.4535C19.6596 79.4535 19.5002 79.4535 19.3409 79.4535V79.0552ZM24.5189 73.24C24.6782 73.3197 24.7578 73.3993 24.8375 73.5587C24.8375 73.5587 24.9968 73.3993 25.0765 73.3993C25.3951 73.1604 25.6341 72.9214 25.8731 72.6824C26.1121 72.4434 26.2714 72.2841 26.3511 72.2841L28.2629 70.4519C28.5019 70.2129 28.7409 69.9739 29.0595 69.5756C29.2985 69.1773 29.6171 68.8587 29.8561 68.6197C29.8561 68.6197 29.9358 68.54 30.0951 68.301C30.1748 68.0621 30.3341 67.9027 30.4138 67.8231C30.6527 67.5841 30.8121 67.3451 30.9714 67.1858C31.1307 66.9468 31.29 66.7078 31.4493 66.4688C31.6087 66.2299 31.6883 65.9909 31.768 65.7519C31.8476 65.5129 31.9273 65.2739 32.007 65.035C32.0866 64.6367 32.0866 64.1587 32.007 63.84C32.007 63.6807 31.9273 63.6011 31.8476 63.4417C31.6883 63.4417 31.4493 63.4417 31.2104 63.4417H31.051C30.8917 63.4417 30.7324 63.4417 30.5731 63.4417C30.5731 63.4417 30.4138 63.4417 30.1748 63.6011C30.0155 63.6807 29.7765 63.7604 29.5375 63.9197C29.2985 64.079 29.0595 64.2384 28.7409 64.318C28.5019 64.4773 28.2629 64.6367 28.0239 64.7163L27.546 65.035C27.3866 65.1146 27.3866 65.1943 27.3866 65.1943C27.3866 65.1943 27.3866 65.2739 27.2273 65.3536L26.6697 65.5926C26.6697 65.5926 26.59 65.5926 26.5104 65.5926C26.5104 65.5926 26.3511 65.5926 26.2714 65.5926C26.1917 65.5926 26.1121 65.4333 26.1121 65.2739L25.9528 65.8316C25.9528 65.8316 25.9528 65.9909 25.8731 66.1502C25.8731 66.3095 25.7934 66.4688 25.7138 66.5485C25.5545 66.9468 25.5544 67.1858 25.4748 67.3451C25.4748 67.5044 25.3951 67.8231 25.3155 68.2214C25.3155 68.2214 25.3155 68.4604 25.3155 68.6197C25.3155 68.779 25.3155 68.8587 25.3155 68.9383C25.3155 69.1773 25.3155 69.257 25.2358 69.4163C25.2358 69.4163 25.2358 69.496 25.1561 69.7349C25.1561 69.8943 25.0765 70.0536 24.9172 70.2129C24.9172 70.2129 24.9172 70.3722 24.8375 70.4519C24.8375 70.4519 24.8375 70.5315 24.8375 70.6909C24.8375 70.8502 24.8375 71.0095 24.8375 71.1688C24.6782 71.6468 24.5985 72.0451 24.6782 72.3637V72.9214C24.6782 73.0807 24.6782 73.24 24.6782 73.479L24.5189 73.24ZM27.546 58.8214C27.546 59.0604 27.546 59.2994 27.3866 59.4587C27.3866 59.5384 27.3866 59.6977 27.3866 59.857C27.3866 60.096 27.307 60.2553 27.2273 60.4146C27.2273 60.574 27.2273 60.6536 27.1477 60.8129L28.5019 59.9367C28.6612 59.7774 28.8205 59.618 29.0595 59.4587C29.2188 59.2994 29.4578 59.1401 29.6171 58.9807C29.9358 58.7418 30.1748 58.5028 30.4138 58.1841C30.6527 57.9452 30.8917 57.6265 31.2104 57.3079L31.6087 56.9892C31.6883 56.8299 31.8476 56.6706 32.007 56.4316L32.4053 55.874L32.8832 55.2367L33.5205 54.2011C33.8392 53.7231 33.9985 53.3248 33.9985 53.0859C33.9985 52.7672 33.9985 52.4486 33.9188 52.1299C33.9188 51.9706 33.7595 51.8909 33.6002 51.8113C33.3612 51.8113 33.0426 51.7316 32.7239 51.652C32.2459 51.652 31.6883 51.652 30.9714 51.8113C30.7324 51.8113 30.5731 51.8909 30.3341 51.9706C30.0951 51.9706 29.8561 52.1299 29.6171 52.1299L29.0595 52.2892C28.9002 52.2892 28.7409 52.3689 28.5816 52.4486L27.9443 52.6875V52.9265C28.1036 53.0859 28.1833 53.4045 28.2629 53.8028C28.2629 54.1214 28.3426 54.4401 28.3426 54.8384C28.3426 55.2367 28.3426 55.4757 28.3426 55.635V56.5909L28.0239 57.4672L27.6256 58.8214H27.546Z" fill="white"/>
<path d="M41.168 53.3263C41.168 53.3263 40.929 53.3263 40.929 53.2466C40.929 53.2466 40.929 53.2466 40.929 53.1669C40.8493 53.0076 40.69 52.689 40.3714 52.3703C40.0527 51.972 39.8934 51.6534 39.8137 51.3347C39.6544 51.0958 39.6544 50.8568 39.7341 50.6178C39.7341 50.5381 39.7341 50.4585 39.7341 50.4585C39.5748 49.8212 39.6544 49.1042 39.9731 48.5466C40.1324 48.228 40.212 47.989 40.3714 47.75C40.5307 47.511 40.6103 47.3517 40.7697 47.1924C41.0883 46.9534 41.2476 46.7941 41.4866 46.7941C41.7256 46.7941 41.6459 46.7941 41.7256 46.7941C41.8053 46.7144 41.9646 46.7144 42.1239 46.6348C42.2832 46.6348 42.4425 46.6348 42.6019 46.6348H42.6815C42.9205 46.6348 43.1595 46.6348 43.3985 46.7144C43.6375 46.7144 43.7968 46.8737 43.9561 46.9534C43.9561 46.9534 44.1154 47.0331 44.1951 47.1127C44.4341 47.1924 44.5934 47.3517 44.673 47.5907C44.7527 47.75 44.8324 47.9093 44.8324 47.989C44.8324 48.228 44.8324 48.3873 44.5137 48.5466C44.5137 48.5466 44.3544 48.7059 44.1951 48.7856C44.1951 48.7856 44.1154 48.8653 43.9561 49.1042C43.9561 49.2636 43.7968 49.4229 43.6375 49.5822C43.5578 49.6619 43.4781 49.8212 43.3188 49.9805L42.8408 50.6975C42.6815 50.8568 42.6019 51.0161 42.5222 51.0958C42.5222 51.0958 42.4425 51.2551 42.3629 51.3347V51.4941C42.2832 51.4941 42.2036 51.6534 42.1239 51.733C42.0442 51.8127 41.9646 51.972 41.9646 52.0517C41.9646 52.211 41.7256 52.45 41.4866 52.6093C41.4866 53.0076 41.168 53.0873 41.0883 53.0873L41.168 53.3263Z" fill="white"/>
<path d="M39.4951 69.1773C39.3358 69.1773 39.1765 69.1773 39.0172 69.1773C38.8579 69.1773 38.6985 69.018 38.5392 68.9383C38.2206 68.779 37.8223 68.6197 37.5833 68.3807C37.3443 68.2214 37.1053 67.9027 36.946 67.5841C36.946 67.4247 36.8663 67.3451 36.7867 67.1858V66.9468C36.5477 66.2298 36.5477 65.5926 36.6274 65.0349C36.6274 64.7959 36.6274 64.557 36.7867 64.2383C36.7867 63.9993 36.946 63.6807 36.946 63.362L37.1053 62.5654C37.1053 62.5654 37.1053 62.5654 37.1053 62.4858V62.3265V62.1671L37.2646 61.9282C37.2646 61.5299 37.3443 61.2112 37.424 60.9722C37.5036 60.6536 37.5833 60.4146 37.7426 60.096C37.7426 59.857 37.9019 59.618 37.9816 59.379C37.9816 59.14 38.1409 58.9011 38.1409 58.5824C38.1409 58.5824 38.1409 58.5027 38.1409 58.4231C38.1409 58.1841 38.3002 57.9451 38.3002 57.7061C38.3002 57.4672 38.3799 57.1485 38.4596 56.9095C38.5392 56.4316 38.6189 56.0333 38.6189 55.635C38.6189 55.4756 38.6189 55.2367 38.5392 55.2367C38.5392 55.2367 38.4596 55.2367 38.3799 55.157V54.9977C38.2206 54.9977 38.1409 54.8384 38.1409 54.7587C38.1409 54.5994 38.1409 54.44 38.3799 54.2807C38.3799 54.2807 38.4596 54.2011 38.5392 54.2011C38.5392 54.2011 38.6189 54.2011 38.6985 54.2011C38.6985 54.2011 38.7782 54.2011 38.8579 54.2011H39.0172C39.2562 54.2011 39.4155 54.2011 39.5748 54.1214C39.7341 54.1214 39.8138 54.1214 39.9731 54.1214C40.1324 54.1214 40.2121 54.1214 40.2917 54.1214C40.6104 54.2011 40.8494 54.2807 41.0884 54.4401C41.2477 54.5197 41.4867 54.679 41.7256 54.8384C42.0443 54.9977 42.1239 55.3163 42.0443 55.4756C42.0443 55.4756 42.1239 55.5553 42.2036 55.635L42.4426 56.4316C42.4426 56.4316 42.4426 56.5909 42.4426 56.6705C42.4426 56.6705 42.4426 56.6706 42.4426 56.7502V57.0689C42.5222 57.0689 42.5222 57.1485 42.5222 57.2282C42.5222 57.4672 42.3629 57.6265 42.3629 57.7858C42.3629 57.9451 42.3629 58.0248 42.3629 58.1044V58.5027C42.3629 58.6621 42.3629 58.8214 42.2833 59.0604V59.2197C42.0443 59.5383 41.9646 59.6977 41.885 59.7773C41.885 59.9366 41.885 60.0163 41.885 60.096C41.885 60.2553 41.885 60.3349 41.885 60.3349C41.9646 60.4943 41.9646 60.6536 41.9646 60.7332C41.9646 60.9722 41.8053 61.1315 41.7256 61.2909C41.7256 61.2909 41.7256 61.3705 41.7256 61.4502C41.7256 61.6095 41.5663 61.7688 41.5663 61.9282C41.5663 62.0875 41.4867 62.2468 41.407 62.4061C41.3273 62.6451 41.2477 62.8841 41.168 63.1231C41.168 63.2824 41.0884 63.4417 41.0087 63.601L41.5663 62.9637C41.7256 62.8044 41.8053 62.6451 41.9646 62.4858C42.0443 62.3265 42.2036 62.1671 42.2833 62.0078C42.3629 61.8485 42.5222 61.6892 42.6019 61.5299L43.8765 59.5383C43.8765 59.379 43.7968 59.2197 43.7172 59.0604C43.7172 58.7417 43.6375 58.5027 43.7172 58.1841C43.7172 57.7061 43.7172 57.2282 43.7968 56.9892C43.7968 56.6706 43.9561 56.3519 44.1155 55.9536L44.5934 54.8384C44.5934 54.5994 44.8324 54.2807 44.9917 54.1214C45.1511 53.9621 45.3104 53.8028 45.39 53.5638C45.39 53.4841 45.5494 53.3248 45.7883 53.0858C46.0273 52.8468 46.1866 52.7672 46.2663 52.6875C46.346 52.6875 46.4256 52.6079 46.5053 52.4485C46.6646 52.2892 46.8239 52.2096 47.0629 52.0502C47.4612 51.8112 47.7799 51.6519 48.0188 51.5723C48.0985 51.5723 48.2578 51.5723 48.4171 51.5723C48.5765 51.5723 48.7358 51.5723 48.9748 51.5723H49.1341C49.1341 51.5723 49.2934 51.5723 49.3731 51.5723C49.3731 51.5723 49.3731 51.5723 49.4527 51.5723H49.612C49.7714 51.7316 50.0104 51.8909 50.2493 52.0502C50.568 52.2096 50.807 52.3689 50.9663 52.5282C50.9663 52.5282 51.1256 52.6875 51.2053 52.7672C51.2053 52.7672 51.2849 52.8468 51.3646 52.8468C51.5239 53.0858 51.6832 53.1655 51.6832 53.2451C51.6832 53.2451 51.7629 53.3248 51.7629 53.4045C51.7629 53.6434 51.7629 53.8824 51.7629 54.1214C51.7629 54.1214 51.7629 54.1214 51.7629 54.2011C51.7629 54.2807 51.7629 54.3604 51.7629 54.4401C51.7629 54.4401 51.7629 54.44 51.7629 54.5197C51.7629 54.5197 51.7629 54.5197 51.7629 54.5994C51.7629 54.5994 51.7629 54.7587 51.7629 54.8384C51.7629 55.0773 51.7629 55.3163 51.6036 55.4756L51.4442 56.1129C51.4442 56.1129 51.4442 56.1926 51.4442 56.2722C51.4442 56.2722 51.4442 56.3519 51.3646 56.4316C51.3646 56.5909 51.2849 56.6706 51.2053 56.7502C51.1256 56.9095 51.0459 56.9892 51.0459 56.9892C51.0459 57.0689 50.9663 57.1485 50.8866 57.2282C50.8866 57.3078 50.807 57.4672 50.6476 57.5468C50.6476 57.5468 50.568 57.7061 50.4883 57.7061C50.329 57.8655 50.2493 58.0248 50.09 58.1841C50.0104 58.3434 49.9307 58.4231 49.7714 58.4231C49.7714 58.4231 49.6121 58.5027 49.5324 58.5027C49.3731 58.5027 49.2934 58.4231 49.2934 58.2638C49.2934 58.1841 49.2137 58.0248 49.2934 57.8655V57.7061C49.2934 57.5468 49.2934 57.4672 49.2934 57.3875C49.2934 57.2282 49.2934 57.0689 49.2934 56.9095C49.2934 56.7502 49.2934 56.5909 49.2934 56.4316C49.2934 56.3519 49.2934 56.1926 49.2934 56.0333C49.2934 56.0333 49.2934 55.9536 49.2934 55.8739C49.2934 55.7943 49.2934 55.7146 49.2934 55.635C49.2934 55.635 49.2934 55.4756 49.2934 55.396C49.2934 55.2367 49.2934 55.157 49.2934 54.9977C49.2934 54.918 49.2934 54.7587 49.2934 54.5197C49.2934 54.5197 49.2934 54.4401 49.2934 54.3604C49.2934 54.3604 49.2934 54.3604 49.1341 54.5994C49.0544 54.7587 48.9748 54.918 48.8951 54.918C48.8951 54.9977 48.8951 55.157 48.8951 55.2367C48.8154 55.2367 48.8154 55.3163 48.7358 55.396V55.5553C48.6561 55.5553 48.5765 55.7146 48.4968 55.7943C48.4968 55.9536 48.4171 55.9536 48.4171 55.9536C48.4171 55.9536 48.4171 56.1926 48.2578 56.4316C48.2578 56.6706 48.1782 56.8299 48.1782 56.8299C48.0985 56.9892 48.0985 57.1485 48.0985 57.2282C48.0985 57.3875 48.0985 57.6265 48.1782 58.0248C48.4171 58.5824 48.6561 58.9807 49.0544 59.379C49.4527 59.7773 49.851 60.2553 50.09 60.8129C50.09 60.9722 50.2493 61.0519 50.4087 61.2112C50.568 61.3705 50.7273 61.6095 50.807 61.8485C50.807 61.8485 50.807 61.9282 50.807 62.0078C50.807 62.0078 50.8866 62.1671 50.9663 62.2468C51.0459 62.3265 51.1256 62.4858 51.1256 62.6451C51.1256 62.7248 51.2053 62.8841 51.2849 62.9637C51.2849 62.9637 51.2849 62.9637 51.2849 63.0434C51.2849 63.0434 51.2849 63.0434 51.2849 63.1231C51.2849 63.2027 51.2849 63.2824 51.3646 63.362C51.3646 63.5214 51.4442 63.601 51.4442 63.84C51.4442 63.84 51.4442 63.84 51.4442 63.9993C51.4442 63.9993 51.4442 63.9993 51.4442 64.079C51.4442 64.1587 51.4442 64.2383 51.4442 64.318C51.4442 64.3976 51.4442 64.3976 51.4442 64.3976C51.4442 64.6366 51.4442 64.8756 51.1256 65.2739C50.8866 65.5925 50.7273 65.9112 50.568 66.0705C50.568 66.0705 50.4883 66.2298 50.329 66.3095C50.329 66.3095 50.329 66.3095 50.329 66.3892C50.329 66.3892 50.329 66.3892 50.2493 66.4688C50.2493 66.4688 50.2493 66.6281 50.09 66.6281C50.09 66.6281 50.0104 66.7875 49.9307 66.7875C49.9307 66.7875 49.9307 66.7875 49.851 66.8671C49.851 66.8671 49.6917 66.9468 49.612 67.0264C49.5324 67.1061 49.4527 67.1858 49.3731 67.1858C49.3731 67.1858 49.3731 67.1858 49.2934 67.1858C49.0544 67.2654 48.7358 67.3451 48.4968 67.3451C48.3375 67.3451 48.2578 67.3451 48.1782 67.3451C48.0985 67.3451 48.0188 67.3451 47.9392 67.3451C47.2222 67.3451 46.4256 66.9468 45.3104 66.3892C44.8324 66.1502 44.4341 65.8315 44.0358 65.4332C43.6375 65.0349 43.3985 64.6366 43.1595 64.318C43.1595 64.4773 43.0799 64.557 43.0002 64.7163C43.0002 64.7163 43.0002 64.7163 43.0002 64.7959C42.8409 65.0349 42.7612 65.2739 42.6019 65.4332C42.4426 65.5926 42.3629 65.8315 42.2036 65.9909C42.1239 66.1502 42.0443 66.3095 41.9646 66.4688C41.9646 66.5485 41.8053 66.7078 41.7256 66.8671C41.7256 66.9468 41.7256 67.0264 41.7256 67.1061L41.407 67.5841C41.407 67.6637 41.407 67.7434 41.3273 67.9027C41.2477 67.9824 41.168 68.1417 41.0087 68.2214C40.929 68.2214 40.7697 68.3807 40.6104 68.3807C40.4511 68.3807 40.3714 68.3807 40.3714 68.4603C40.2121 68.4603 40.1324 68.4603 39.9731 68.4603L39.4951 69.1773ZM43.4782 63.2824C43.5578 63.2824 43.7172 63.4417 43.8765 63.601C44.0358 63.601 44.1155 63.7604 44.2748 63.9197C44.2748 63.9197 44.4341 64.079 44.5138 64.079C44.5138 64.079 44.7527 64.1587 44.8324 64.318C44.8324 64.318 44.8324 64.318 44.9121 64.318C45.1511 64.318 45.39 64.4773 45.7087 64.557L46.1866 64.7959L46.7443 64.9553C46.9036 64.9553 46.9832 64.9553 47.2222 64.9553H47.7799C47.9392 64.9553 48.0188 64.9553 48.0188 64.9553V64.7959C47.9392 64.7163 47.8595 64.557 47.7799 64.3976C47.7799 64.3976 47.7799 64.2383 47.6205 64.1587C47.4612 63.9993 47.3816 63.84 47.2222 63.6807C47.0629 63.5214 46.9036 63.4417 46.8239 63.2824C46.8239 63.2824 46.7443 63.2824 46.6646 63.2824C46.5053 63.2824 46.346 63.1231 46.1866 62.8841C46.1866 62.8841 46.1866 62.8044 46.107 62.6451C46.107 62.6451 46.107 62.6451 46.0273 62.4858C46.0273 62.3265 45.868 62.2468 45.7883 62.2468C45.5494 62.1671 45.39 62.0078 45.2307 61.7688C45.0714 61.5299 44.8324 61.2909 44.5934 60.9722C44.5138 61.1316 44.4341 61.3705 44.3544 61.5299C44.1951 61.8485 44.1155 62.0875 43.9561 62.3265C43.8765 62.5654 43.7172 62.8841 43.5578 63.1231L43.4782 63.2824Z" fill="white"/>
<path d="M72.395 72.2849C72.2356 72.2849 72.156 72.2052 72.0763 72.0459C71.9967 71.7272 71.917 71.4086 71.7577 71.1696C71.5984 70.851 71.5187 70.5323 71.439 70.2137C71.3594 70.0544 71.2797 69.895 71.2797 69.4967C71.2797 69.0984 71.2797 68.7001 71.2797 68.2222C71.2797 67.9832 71.2797 67.6645 71.2797 67.3459C71.2797 67.0273 71.2797 66.7883 71.2797 66.629C71.2797 66.629 71.2797 66.629 71.2797 66.4696C71.2797 66.4696 71.2797 66.4696 71.2797 66.39L71.439 63.7612C71.439 63.6018 71.439 63.4425 71.439 63.2832C71.439 63.1239 71.439 62.9646 71.439 62.8052C71.439 62.6459 71.439 62.0086 71.439 61.8493V61.212C71.5187 60.973 71.5984 60.8137 71.5984 60.5747V59.8578C71.678 59.5392 71.7577 59.2205 71.8373 58.8222C71.917 58.5036 71.9967 58.1849 72.0763 57.8663C72.0763 57.8663 72.0763 57.5476 72.2356 56.99C72.3153 56.4324 72.395 55.8748 72.5543 55.2375C72.6339 54.6002 72.7136 54.0426 72.8729 53.4849C72.9526 52.9273 73.0323 52.6883 73.0323 52.6087C73.0323 52.3697 73.1119 52.2104 73.1916 51.9714C73.1916 51.8121 73.2712 51.5731 73.3509 51.3341C73.4306 51.0951 73.5102 50.8561 73.5899 50.6968C73.5899 50.6172 73.6695 50.4578 73.7492 50.2188C73.7492 50.1392 73.7492 49.9799 73.7492 49.8205C73.7492 49.7409 73.7492 49.5816 73.7492 49.5019C73.7492 49.5019 73.7492 49.5019 73.6695 49.5019C73.4306 49.6612 73.2712 49.8205 73.1916 49.9002C73.1916 49.9002 73.1119 49.9002 73.0323 49.9002C73.0323 49.9002 72.9526 49.9002 72.7933 49.9002H72.7136C72.7136 49.9002 72.7136 49.9002 72.6339 49.9002C72.3153 50.0595 72.0763 50.2188 71.8373 50.3782C71.7577 50.3782 71.678 50.4578 71.5984 50.5375C71.5984 50.6172 71.5984 50.7765 71.5984 50.8561C71.5984 51.1748 71.5984 51.4934 71.5984 51.8121C71.5984 52.2104 71.5984 52.529 71.5984 52.9273C71.439 54.2019 71.2797 55.4765 70.9611 56.751C70.8018 57.1493 70.7221 57.5476 70.6424 57.8663C70.4831 58.2646 70.4034 58.5832 70.2441 58.9019C69.9255 59.4595 69.6068 60.0171 69.2882 60.5747C68.8899 61.0527 68.4916 61.5307 68.0136 62.0086C68.0136 62.0086 67.934 62.0086 67.8543 62.0086H67.695C67.6153 62.0086 67.5357 62.0883 67.456 62.0883C67.3763 62.0883 67.217 62.0883 67.0577 62.0883C66.978 62.0883 66.8984 62.0883 66.8187 62.0883C66.7391 62.0883 66.8187 62.0883 66.7391 62.0883C66.4204 62.0883 66.1814 62.0883 65.9424 62.0883C65.5441 62.0883 65.1458 62.0883 64.7475 62.0086C64.1103 61.8493 63.5526 61.5307 63.1543 61.1324C62.6764 60.5747 62.3577 59.8578 62.1187 58.7425C62.1187 58.9019 61.9594 58.9815 61.9594 59.1408C61.9594 59.1408 61.9594 59.2205 61.9594 59.3002C61.9594 59.3002 61.9594 59.4595 61.8798 59.4595C61.8798 59.4595 61.8001 59.5392 61.7204 59.7781L61.0831 60.8934C61.0035 61.0527 60.9238 61.212 60.8442 61.2917C60.7645 61.451 60.6848 61.6103 60.6052 61.69C60.5255 61.8493 60.3662 62.0086 60.2865 62.168C60.2069 62.3273 60.0476 62.4866 59.9679 62.8052C59.8086 63.1239 59.7289 63.3629 59.5696 63.5222V63.6815C59.4103 63.8408 59.2509 63.9205 59.1713 63.9205C59.1713 63.9205 59.1713 63.9205 59.012 64.0798L58.773 64.3985C58.6933 64.4781 58.6137 64.5578 58.534 64.7171C58.3747 64.8764 58.295 64.9561 58.1357 65.0357C57.7374 65.0357 57.6577 65.0357 57.5781 65.0357C57.5781 65.0357 57.5781 65.0357 57.4984 65.0357C57.4984 65.0357 57.4984 65.0357 57.2594 65.1951C57.2594 65.1951 57.2594 65.1951 57.1798 65.1951C57.1798 65.1951 57.1001 65.1951 57.0204 65.1951C56.8611 65.1951 56.7018 65.1951 56.5425 65.1951C56.3832 65.1951 56.1442 65.1951 55.9052 65.1154C55.6662 65.1154 55.5069 65.0357 55.3476 64.9561C55.3476 64.9561 55.1883 64.9561 55.0289 64.7968C54.6306 64.6374 54.2323 64.3188 53.834 64.0002C53.7544 63.9205 53.6747 63.7612 53.595 63.6815C53.595 63.6018 53.4357 63.5222 53.3561 63.3629C53.1967 63.1239 53.1171 62.8849 52.9578 62.4866C52.9578 62.3273 52.8781 62.2476 52.7984 62.0883V61.69C52.6391 61.2917 52.5594 60.8137 52.5594 60.1764C52.5594 60.0171 52.5594 59.8578 52.5594 59.6985C52.5594 59.5392 52.5594 59.3798 52.5594 59.2205C52.5594 59.1408 52.7984 58.0256 52.7984 57.9459C52.7984 57.6273 52.7984 57.3087 52.8781 57.0697C52.8781 56.8307 52.8781 56.512 53.0374 56.1137C53.0374 56.1137 53.0374 56.1137 53.0374 56.0341C53.0374 55.9544 53.0374 55.7951 53.1171 55.7154C53.1171 55.7154 53.1171 55.4765 53.1967 55.3968C53.1967 55.2375 53.1967 55.1578 53.2764 54.9985C53.2764 54.8392 53.3561 54.6798 53.4357 54.5205C53.4357 54.3612 53.5154 54.2019 53.595 54.1222C53.595 53.9629 53.6747 53.8036 53.7544 53.5646C53.834 53.3256 53.9137 53.0866 53.9933 52.8477C54.073 52.6087 54.1527 52.3697 54.312 52.1307C54.3916 51.8917 54.4713 51.7324 54.551 51.6527C54.6306 51.4138 54.7899 51.3341 54.8696 51.1748C54.8696 51.0951 55.0289 50.9358 55.0289 50.8561C55.0289 50.8561 55.0289 50.7765 55.0289 50.6968C55.0289 50.6968 55.0289 50.5375 55.1086 50.4578L55.2679 50.1392C55.5069 49.8205 55.7459 49.5816 55.9849 49.1833C56.3035 48.785 56.5425 48.546 56.8611 48.3867C57.5781 48.2273 57.7374 48.1477 57.8171 48.068C57.9764 47.9883 58.1357 47.9087 58.295 47.9087C58.4543 47.9087 58.534 47.9087 58.6933 47.9087C58.8526 47.9087 59.1713 47.9883 59.6493 48.1477C59.8882 48.1477 60.1272 48.2273 60.3662 48.307C60.6052 48.307 60.8442 48.4663 61.0831 48.546C61.3221 48.7053 61.5611 48.8646 61.6408 49.0239C61.8001 49.1833 61.8001 49.4222 61.8001 49.6612C61.9594 49.8205 61.9594 49.9799 61.9594 50.1392C61.9594 50.2188 61.9594 50.3782 61.9594 50.5375C61.9594 50.5375 61.9594 50.5375 61.9594 50.6172C61.8798 51.0155 61.8001 51.3341 61.8001 51.6527C61.8001 51.9714 61.6408 52.3697 61.4814 52.768C61.4814 52.8477 61.4018 53.007 61.2425 53.1663C61.1628 53.3256 61.0831 53.4053 61.0831 53.4053C61.0831 53.4053 61.0831 53.5646 60.9238 53.7239C60.9238 53.8036 60.9238 53.8832 60.9238 53.9629C60.9238 53.9629 60.7645 54.2019 60.5255 54.2019L60.2865 54.6798L59.9679 55.0782L59.6493 55.7951C59.6493 55.8748 59.4899 55.9544 59.4103 55.9544C59.4103 55.9544 59.4103 55.9544 59.3306 55.9544C59.0916 55.9544 59.012 55.7154 58.9323 55.5561C58.9323 55.3968 58.9323 55.3171 58.8526 55.3171C58.8526 55.1578 58.8526 55.0782 58.8526 54.9985C58.8526 54.9985 58.8526 54.7595 58.8526 54.6002C58.8526 54.4409 58.8526 54.2815 58.8526 54.1222C58.8526 53.9629 58.8526 53.8036 58.8526 53.6443C58.8526 53.5646 58.8526 53.4849 58.8526 53.4849C58.8526 53.4053 58.8526 53.246 58.8526 53.0866C58.8526 53.007 58.8526 52.8477 58.8526 52.768C58.8526 52.6087 58.8526 52.529 58.8526 52.3697C58.8526 52.3697 58.8526 52.3697 58.8526 52.051C58.8526 51.7324 58.8526 51.6527 58.8526 51.5731C58.8526 51.4934 58.8526 51.4138 58.8526 51.4138C58.8526 51.4138 58.8526 51.2544 58.8526 51.0951C58.8526 51.0951 58.773 51.1748 58.773 51.2544C58.773 51.3341 58.6933 51.4138 58.6137 51.4934C58.6137 51.5731 57.8967 52.768 57.8967 52.768C57.8171 52.9273 57.7374 53.0866 57.6577 53.1663V53.3256C57.4188 53.5646 57.3391 53.8036 57.2594 54.1222C57.1798 54.4409 57.0204 54.7595 56.9408 55.0782C56.9408 55.0782 56.9408 55.1578 56.9408 55.2375C56.9408 55.3968 56.8611 55.5561 56.7815 55.7154C56.7815 55.9544 56.6221 56.1137 56.5425 56.3527C56.5425 56.5917 56.3832 56.751 56.3832 56.99C56.3832 57.229 56.3832 57.3087 56.3832 57.3883C56.3832 57.5476 56.3832 57.7866 56.2238 58.1849C56.2238 58.5036 56.0645 58.8222 56.0645 59.0612V59.2205C56.0645 59.3798 56.0645 59.4595 56.0645 59.5392C56.0645 59.6985 56.0645 59.7781 56.0645 59.8578C56.0645 60.0171 56.0645 60.1764 56.0645 60.3358C56.0645 60.3358 56.0645 60.4154 56.0645 60.6544C56.0645 60.8934 56.1442 61.1324 56.1442 61.2917C56.2238 61.7696 56.3035 61.8493 56.3035 61.8493C56.3035 61.8493 56.4628 61.7697 56.9408 61.451C56.9408 61.451 57.1001 61.3713 57.2594 61.212C57.4188 61.1324 57.4984 61.0527 57.4984 61.0527L57.5781 60.973C57.5781 60.8934 57.7374 60.7341 57.8967 60.5747C57.8967 60.5747 58.056 60.4154 58.2154 60.2561C58.3747 60.0968 58.4543 59.9375 58.6137 59.6985C58.773 59.5392 58.8526 59.3002 59.012 59.1408C59.1713 58.9815 59.2509 58.8222 59.3306 58.7425C59.3306 58.7425 59.4899 58.5832 59.5696 58.3442C59.7289 58.0256 59.8882 57.8663 59.8882 57.8663C59.8882 57.8663 59.9679 57.707 60.1272 57.707C60.1272 57.707 60.1272 57.707 60.1272 57.6273C60.1272 57.6273 60.2069 57.5476 60.2069 57.468C60.2069 57.3087 60.3662 57.1493 60.5255 57.0697C60.6052 56.99 60.6848 56.8307 60.8442 56.6714C60.9238 56.512 61.0831 56.3527 61.1628 56.1934C61.3221 55.9544 61.4814 55.7951 61.6408 55.5561C61.6408 55.4765 61.6408 55.3171 61.6408 55.2375C61.7204 54.9188 61.8001 54.6002 61.8798 54.2815C61.8798 54.0426 61.8798 53.8832 61.8798 53.7239C61.8798 53.4849 61.8798 53.246 61.8798 52.9273C61.8798 52.6883 62.0391 52.3697 62.1187 52.1307C62.1984 51.8917 62.2781 51.6527 62.3577 51.4138C62.3577 51.2544 62.4374 51.0951 62.517 50.9358C62.517 50.7765 62.5967 50.6968 62.6764 50.5375C62.756 50.1392 62.9153 49.7409 63.0747 49.5019C63.234 49.2629 63.3136 49.0239 63.473 48.7053C63.6323 48.3867 63.7916 48.2273 63.8713 47.9883C64.0306 47.7494 64.1103 47.5104 64.3492 47.3511C64.5882 47.0324 64.9069 46.7934 65.2255 46.6341C65.5441 46.4748 65.8628 46.3951 66.1814 46.3951C66.3408 46.3951 66.4204 46.3951 66.5797 46.3951C66.7391 46.3951 66.978 46.3951 67.1374 46.3951C67.456 46.3951 67.7746 46.4748 68.0136 46.6341C68.6509 46.8731 68.9696 47.0324 69.1289 47.2714C69.1289 47.3511 69.2085 47.4307 69.2085 47.4307C69.2085 47.4307 69.2882 47.4307 69.3679 47.4307C69.4475 47.4307 69.5272 47.4307 69.6068 47.4307C69.6865 47.4307 69.7662 47.4307 69.9255 47.4307C70.0848 47.4307 70.3238 47.5104 70.5628 47.6697C70.8814 47.59 71.2001 47.4307 71.5984 47.3511C71.439 47.1917 71.3594 47.0324 71.2797 46.6341C71.2797 46.6341 71.2797 46.3951 71.2797 46.2358C71.2797 45.9968 71.5187 45.6782 71.917 45.3595C72.0763 45.2799 72.156 45.2002 72.3153 45.1206C72.4746 45.1206 72.5543 44.9612 72.7136 44.8816C72.8729 44.8019 73.0322 44.7223 73.1916 44.6426C73.3509 44.6426 73.4306 44.5629 73.5899 44.4833C73.7492 44.4036 73.9085 44.324 74.0678 44.2443C74.0678 44.2443 74.2272 44.2443 74.3068 44.1646C74.3068 44.0053 74.4661 43.846 74.4661 43.6867C74.4661 43.4477 74.6255 43.2087 74.7051 43.0494C74.7051 42.8901 74.7848 42.7307 74.8644 42.5714L75.0238 42.0935C75.0238 41.9341 75.0238 41.7748 75.1034 41.7748C75.1034 41.6952 75.1034 41.6155 75.1034 41.5358C75.1034 41.5358 75.1034 41.3765 75.1034 41.2968C75.1034 41.0579 75.1831 40.8189 75.2628 40.6596C75.2628 40.4206 75.4221 40.2613 75.4221 40.0223L75.6611 39.385C75.7407 39.146 75.8204 38.9867 75.9 38.7477L76.2187 38.1104C76.2983 37.8714 76.4577 37.6325 76.617 37.3935L76.856 37.0748C76.856 36.9952 77.0153 36.8358 77.0153 36.7562C77.1746 36.5172 77.2543 36.4375 77.3339 36.2782C77.3339 36.2782 77.4136 36.1986 77.5729 36.0392C77.5729 36.0392 77.6526 35.8799 77.7322 35.8003C77.9712 35.6409 78.2102 35.402 78.5288 35.2426C78.8475 35.0833 79.1661 34.924 79.4051 34.8443C79.6441 34.8443 79.8034 34.8443 79.9627 34.8443C80.1221 34.8443 80.2814 34.8443 80.361 34.8443C80.6 34.8443 80.7593 35.0037 81.078 35.0833C81.317 35.0833 81.4763 35.2426 81.7153 35.2426C81.9543 35.2426 82.1932 35.4816 82.4322 35.6409C82.5915 35.8003 82.6712 35.8799 82.7509 35.9596C82.7509 35.8799 83.0695 35.3223 83.0695 35.3223C83.0695 35.2426 83.1492 35.0833 83.2288 35.0037C83.3881 34.7647 83.4678 34.685 83.5475 34.5257C83.5475 34.5257 83.6271 34.446 83.7864 34.2867C83.7864 34.2867 83.8661 34.1274 83.9458 34.0477C84.1847 33.8884 84.4237 33.6494 84.7424 33.4901C85.061 33.3308 85.3797 33.1715 85.6186 33.0918C85.8576 33.0918 86.0169 33.0918 86.1763 33.0918C86.3356 33.0918 86.4949 33.0918 86.5746 33.0918C86.8136 33.0918 86.9729 33.2511 87.2915 33.3308C87.5305 33.3308 87.6898 33.4901 87.9288 33.4901C88.1678 33.4901 88.4068 33.7291 88.6457 33.8884C88.8051 34.0477 88.9644 34.207 89.1237 34.3664C89.283 34.5257 89.3627 34.685 89.6017 34.8443C89.6017 34.8443 89.6813 35.0037 89.6813 35.0833C89.6813 35.0833 89.8407 35.163 89.8407 35.2426L90 35.7206C90 35.7206 90 35.8003 90 35.8799V36.0392C90 36.0392 90 36.1986 90 36.2782C90 36.3579 90 36.4375 89.9203 36.5172C89.8407 36.5969 89.761 36.5969 89.6813 36.5969H89.3627C89.2034 36.5969 89.0441 36.4375 89.0441 36.2782C89.0441 36.1189 88.9644 36.1189 88.8847 36.1189L88.6457 35.9596H88.0881C87.9288 35.9596 87.7695 35.9596 87.6102 35.9596C87.2915 35.9596 86.9729 36.3579 86.6542 36.8358C86.5746 36.9952 86.4949 37.1545 86.3356 37.3138C86.2559 37.4731 86.1763 37.6325 86.0966 37.7918C86.0966 37.8714 86.0169 37.9511 85.9373 38.0308C85.9373 38.1901 85.8576 38.2697 85.778 38.3494C85.6983 38.5884 85.6186 38.7477 85.539 38.8274C85.539 38.9867 85.4593 39.146 85.3 39.385V39.7036C85.2203 39.7036 85.1407 40.0223 85.1407 40.0223C85.1407 40.1019 85.1407 40.1816 85.1407 40.2613C85.1407 40.3409 85.1407 40.4206 85.061 40.5799C85.061 40.7392 84.9814 40.8985 84.822 41.2172C84.822 41.2172 84.822 41.2968 84.822 41.3765C84.822 41.3765 84.822 41.3765 84.9017 41.3765V41.6952C84.9814 41.6952 84.9814 41.3765 84.9814 41.3765C85.061 41.3765 85.2203 41.3765 85.3 41.3765C85.4593 41.3765 85.6983 41.2968 85.8576 41.2968C85.9373 41.2172 86.0966 41.1375 86.1763 41.1375C86.2559 41.1375 86.3356 41.1375 86.3356 41.1375H86.4153C86.4949 41.0579 86.5746 41.0579 86.6542 41.0579C86.7339 41.0579 86.8136 41.0579 86.8136 41.0579L88.0085 40.7392C88.0085 40.7392 88.0881 40.7392 88.1678 40.7392C88.3271 40.7392 88.4068 40.7392 88.4864 40.8985C88.4864 40.9782 88.4864 41.2172 88.4864 41.2968C88.4864 41.2968 88.4068 41.3765 88.3271 41.4562C88.3271 41.4562 88.2474 41.6155 88.1678 41.6952C88.1678 41.9341 88.1678 42.1731 88.1678 42.3324C88.1678 42.4918 88.0085 42.6511 87.8491 42.7307C87.7695 42.7307 87.6898 42.8901 87.5305 42.8901C87.2915 43.2087 87.1322 43.2884 86.9729 43.368C86.9729 43.368 86.8932 43.5273 86.8136 43.5273C86.6542 43.5273 86.4152 43.7663 86.1763 43.9257C85.8576 44.1646 85.539 44.324 85.3 44.4036C84.9814 44.4833 84.822 44.5629 84.822 44.5629C84.7424 44.5629 84.6627 44.6426 84.6627 44.6426L84.4237 44.8019C84.3441 44.8019 84.1848 44.9612 84.0254 45.0409C84.0254 45.1206 84.0254 45.2002 84.0254 45.3595L83.8661 45.7578C83.8661 45.8375 83.8661 45.9968 83.7864 46.1562V46.5545C83.6271 46.7934 83.5475 47.1121 83.4678 47.3511L83.2288 48.2273C83.2288 48.3867 83.2288 48.546 83.1492 48.7053C83.1492 48.8646 83.0695 49.0239 82.9898 49.1833C82.9898 49.1833 82.9898 49.3426 82.7509 50.1392C82.6712 50.6968 82.5119 51.3341 82.4322 52.051C82.3526 52.768 82.1932 53.3256 82.1136 53.9629C81.9543 54.7595 81.8746 54.9188 81.8746 54.9985C81.8746 55.2375 81.7949 55.5561 81.7153 55.7951C81.7153 56.0341 81.6356 56.1934 81.5559 56.3527C81.5559 56.512 81.5559 56.6714 81.5559 56.8307C81.5559 57.0697 81.4763 57.1493 81.4763 57.229C81.4763 57.3883 81.4763 57.707 81.3966 58.1849C81.317 58.6629 81.2373 59.1408 81.078 59.7781C81.078 60.0968 80.839 60.4154 80.6797 60.4951C80.6797 60.4951 80.6 60.4951 80.4407 60.8934C80.4407 61.1324 80.361 61.451 80.2814 61.929C80.2814 62.4069 80.2017 62.8052 80.1221 63.0442C80.1221 63.2832 79.9627 63.5222 79.9627 63.7612C79.9627 64.0001 79.8034 64.2391 79.7238 64.4781C79.5644 65.2747 79.4051 65.912 79.4051 66.39C79.4051 66.39 79.4051 66.4696 79.4051 66.5493C79.4051 66.5493 79.3254 66.7086 79.2458 66.7086C79.2458 67.1069 79.1661 67.5052 79.1661 67.9035C79.1661 68.4612 79.1661 69.0188 79.0068 69.6561C79.0068 69.8154 78.8475 69.895 78.6882 69.895C78.5288 69.895 78.5288 69.895 78.5288 69.895C78.3695 69.895 78.2899 69.8154 78.2102 69.6561C78.1305 69.3374 78.0509 69.0188 77.8916 68.7798C77.7322 68.4612 77.6526 68.1425 77.5729 67.8239C77.4932 67.6645 77.4136 67.5052 77.4136 67.1069C77.4136 66.7086 77.4136 66.3103 77.4136 65.8323C77.4136 65.5934 77.4136 65.2747 77.4136 64.9561C77.4136 64.6374 77.4136 64.3985 77.4136 64.2391C77.4136 64.2391 77.4136 64.2391 77.4136 64.0798C77.4136 64.0798 77.4136 64.0798 77.4136 64.0002L77.5729 61.3713C77.5729 61.212 77.5729 61.0527 77.5729 60.8934C77.5729 60.7341 77.5729 60.5747 77.5729 60.4154C77.5729 60.2561 77.5729 60.0968 77.5729 59.9375C77.5729 59.7781 77.5729 59.6188 77.5729 59.4595V58.8222C77.6526 58.5832 77.7322 58.4239 77.7322 58.1849V57.468C77.8119 57.1493 77.8916 56.8307 77.9712 56.4324C78.0509 56.1137 78.1305 55.7951 78.2102 55.4765C78.2102 55.4765 78.2102 55.1578 78.3695 54.6002C78.4492 54.0426 78.5288 53.4849 78.6882 52.8477C78.7678 52.2104 78.8475 51.6527 79.0068 51.0951C79.0865 50.5375 79.1661 50.2985 79.1661 50.2188C79.1661 49.9799 79.2458 49.8205 79.3254 49.5816C79.3254 49.4222 79.4051 49.1833 79.4848 48.9443C79.5644 48.7053 79.6441 48.4663 79.7238 48.307C79.7238 48.2273 79.8034 48.068 79.8831 47.829C79.8831 47.7494 79.8831 47.59 79.8831 47.4307C79.8831 47.1917 79.8831 47.0324 79.8831 46.9528C79.8831 46.6341 79.9627 46.2358 80.0424 45.9172C79.8831 45.9172 79.6441 45.9172 79.4051 45.9172C79.4051 45.9172 79.3254 45.9172 79.2458 45.9172C79.1661 45.9172 79.2458 45.9172 79.1661 45.9172C79.0865 45.9172 79.0068 45.9172 78.9271 45.9968C78.8475 45.9968 78.7678 46.0765 78.7678 46.0765L78.5288 46.2358C78.4492 46.2358 78.2899 46.3951 78.1305 46.4748C78.1305 46.5545 78.1305 46.6341 78.1305 46.7934L77.9712 47.1917C77.9712 47.2714 77.9712 47.4307 77.8916 47.59C77.8916 47.6697 77.8916 47.829 77.8119 47.9883C77.8119 48.2273 77.6526 48.546 77.5729 48.785L77.3339 49.6612C77.3339 49.8205 77.3339 49.9799 77.2543 50.1392C77.2543 50.2985 77.2543 50.4578 77.0949 50.6172C77.0949 50.6172 77.0949 50.7765 76.856 51.5731C76.7763 52.1307 76.617 52.768 76.5373 53.4849C76.4577 54.2019 76.2983 54.7595 76.2187 55.3968C76.0594 56.1934 75.9797 56.3527 75.9797 56.4324C75.9797 56.6714 75.9 56.99 75.8204 57.229C75.8204 57.468 75.7407 57.6273 75.6611 57.7866C75.6611 57.9459 75.6611 58.1053 75.6611 58.2646C75.6611 58.5036 75.5814 58.5832 75.5814 58.6629C75.5814 58.8222 75.5814 59.1408 75.5017 59.6188C75.4221 60.0968 75.3424 60.5747 75.1831 61.212C75.1831 61.5307 74.9441 61.8493 74.7848 61.929C74.7848 61.929 74.7051 61.929 74.5458 62.4069C74.5458 62.6459 74.4661 62.9646 74.3865 63.4425C74.3865 63.9205 74.3068 64.3188 74.2272 64.5578C74.2272 64.7968 74.0678 65.0357 74.0678 65.2747C74.0678 65.5137 73.9085 65.7527 73.8289 65.9917C73.6695 66.7883 73.5102 67.4256 73.5102 67.9035C73.5102 67.9035 73.5102 67.9832 73.5102 68.0628C73.5102 68.0628 73.4306 68.2222 73.3509 68.2222C73.2712 68.6205 73.2712 69.0188 73.2712 69.4171C73.2712 69.9747 73.2712 70.5323 73.1119 71.1696C73.1119 71.3289 72.9526 71.4086 72.7933 71.4086C72.6339 71.4086 72.6339 71.4086 72.6339 71.4086L72.395 72.2849ZM65.4645 59.7781C65.4645 59.9375 65.5441 60.0171 65.6238 60.1764C65.6238 60.1764 65.6238 60.2561 65.6238 60.3358H66.0221C66.1018 60.1764 66.2611 60.0171 66.3408 59.8578C66.5001 59.6985 66.5797 59.5392 66.6594 59.3798C66.8187 59.1408 66.8984 58.9019 66.978 58.7425C66.978 58.6629 67.1374 58.5036 67.217 58.3442C67.3763 57.9459 67.5357 57.5476 67.695 57.1493C67.8543 56.751 67.934 56.3527 68.0933 55.9544C68.2526 55.5561 68.3323 55.1578 68.4916 54.7595C68.5713 54.4409 68.7306 54.0426 68.8102 53.6443V53.1663C68.8102 52.8477 68.8102 52.529 68.8899 52.2104C68.8899 51.9714 68.8899 51.8121 68.8899 51.5731C68.8899 51.3341 68.8899 51.3341 68.8899 51.3341C68.8899 51.2544 68.8899 51.1748 68.8899 51.0951H68.7306C68.7306 51.0951 68.6509 51.0951 68.5713 51.0951C68.5713 51.0951 68.4916 51.0951 68.4119 51.0951L68.0933 50.9358C68.0136 50.9358 67.8543 50.7765 67.7746 50.6968C67.7746 50.6968 67.695 50.5375 67.6153 50.4578C67.2967 50.9358 67.0577 51.3341 66.8984 51.6527C66.7391 52.051 66.5797 52.3697 66.5001 52.768C66.3408 53.0866 66.2611 53.4849 66.1814 53.8036C66.1018 54.1222 66.0221 54.5205 65.8628 54.9188C65.8628 55.0782 65.7831 55.2375 65.7035 55.3968L65.5441 55.8748C65.5441 56.2731 65.5441 56.5917 65.3848 56.9103C65.3052 57.1493 65.2255 57.468 65.3052 57.7866C65.3052 58.1053 65.3052 58.5036 65.3052 58.9019C65.3052 59.3002 65.3052 59.6188 65.3052 59.8578L65.4645 59.7781ZM82.1932 38.0308C82.0339 38.0308 81.8746 38.0308 81.7153 38.0308C81.3966 38.0308 81.078 38.4291 80.7593 38.907C80.6797 39.0663 80.6 39.2257 80.4407 39.385C80.361 39.5443 80.2814 39.7036 80.2017 39.863C80.2017 39.9426 80.1221 40.0223 80.0424 40.1019C80.0424 40.2613 79.9627 40.3409 79.8831 40.4206C79.7237 40.6596 79.7238 40.8189 79.6441 40.8985C79.6441 41.0579 79.5644 41.2172 79.4051 41.4562V41.7748C79.3254 41.7748 79.2458 42.0935 79.2458 42.0935C79.2458 42.1731 79.2458 42.2528 79.2458 42.3324C79.2458 42.4121 79.2458 42.4918 79.1661 42.6511C79.1661 42.8104 79.0865 42.9697 78.9271 43.2884C78.9271 43.2884 78.9271 43.368 78.9271 43.4477C78.9271 43.4477 78.9271 43.4477 79.0068 43.4477H79.0865C79.1661 43.4477 79.3254 43.4477 79.4051 43.4477C79.4848 43.4477 79.5644 43.4477 79.7238 43.4477C79.8034 43.4477 79.9627 43.368 80.1221 43.2884C80.2814 43.2087 80.4407 43.129 80.6 43.0494C80.6 43.0494 80.7593 43.0494 80.839 42.9697C80.839 42.8104 80.9983 42.6511 80.9983 42.4918C80.9983 42.2528 81.1576 42.0138 81.2373 41.8545C81.2373 41.6952 81.317 41.5358 81.3966 41.3765L81.5559 40.8985C81.5559 40.7392 81.5559 40.5799 81.6356 40.5799C81.6356 40.5002 81.6356 40.4206 81.6356 40.3409C81.6356 40.3409 81.6356 40.1816 81.6356 40.1019C81.6356 39.863 81.7153 39.624 81.7949 39.4647C81.7949 39.2257 81.9542 39.0664 81.9542 38.8274L82.1932 38.1901C82.1932 38.1901 82.1932 38.1901 82.1136 38.1901L82.1932 38.0308Z" fill="white"/>
</svg>
