<svg width="106" height="106" viewBox="0 0 106 106" fill="none" xmlns="http://www.w3.org/2000/svg">
<rect x="1.5" y="1.5" width="103" height="103" rx="9.5" fill="#C22126"/>
<rect x="1.5" y="1.5" width="103" height="103" rx="9.5" stroke="#2DA9E1" stroke-width="3"/>
<path d="M16.1985 46.9967C16.0392 46.9967 15.8799 46.8373 15.8799 46.678V26.9222C15.8799 26.7628 16.0392 26.6035 16.1985 26.6035H20.0222C20.1816 26.6035 20.3409 26.7628 20.3409 26.9222V43.0136H30.1391C30.2985 43.0136 30.4578 43.1729 30.4578 43.3323V46.678C30.4578 46.8373 30.2985 46.9967 30.1391 46.9967H16.1985Z" fill="white"/>
<path d="M35.7951 31.7812H32.0511C31.8751 31.7812 31.7324 31.9239 31.7324 32.0999V46.6778C31.7324 46.8538 31.8751 46.9964 32.0511 46.9964H35.7951C35.9711 46.9964 36.1138 46.8538 36.1138 46.6778V32.0999C36.1138 31.9239 35.9711 31.7812 35.7951 31.7812Z" fill="white"/>
<path d="M35.7951 26.0449H32.0511C31.8751 26.0449 31.7324 26.1876 31.7324 26.3636V30.028C31.7324 30.2039 31.8751 30.3466 32.0511 30.3466H35.7951C35.9711 30.3466 36.1138 30.2039 36.1138 30.028V26.3636C36.1138 26.1876 35.9711 26.0449 35.7951 26.0449Z" fill="white"/>
<path d="M42.8053 47.3143C41.5307 47.3143 40.5748 46.9957 39.8579 46.2787C39.1409 45.5618 38.8223 44.6059 38.8223 43.411V26.3636C38.8223 26.2042 38.9816 26.0449 39.1409 26.0449H42.885C43.0443 26.0449 43.2036 26.2042 43.2036 26.3636V42.0567C43.2036 42.8533 43.3629 43.0923 43.4426 43.2516C43.6019 43.411 43.8409 43.4906 44.0799 43.4906C44.3189 43.4906 44.7172 43.4906 44.9561 43.411C45.1951 43.411 45.5138 43.2516 45.6731 43.172C45.6731 43.172 45.7527 43.172 45.8324 43.172C45.9121 43.172 45.9121 43.172 45.9917 43.172C46.0714 43.172 46.1511 43.3313 46.1511 43.411L46.629 46.2787C46.629 46.4381 46.629 46.5974 46.4697 46.5974C45.9121 46.8364 45.3544 47.0753 44.6375 47.155C43.9206 47.3143 43.3629 47.394 42.7256 47.394L42.8053 47.3143Z" fill="white"/>
<path d="M20.3409 80.0552C20.1019 80.0552 19.863 80.0552 19.624 80.0552C19.4646 80.0552 19.3053 80.0552 19.0663 80.0552H18.9867C18.668 80.0552 18.5087 79.9756 18.2697 79.8959C18.1104 79.8959 17.9511 79.7366 17.7121 79.7366C17.0748 79.4976 16.4375 79.179 15.9596 78.7807C15.163 78.0637 14.6053 77.1078 14.3664 75.9925V75.2756C14.207 75.0366 14.207 74.718 14.2867 74.3993C14.2867 74.001 14.3664 73.6027 14.5257 73.1248V72.9654C14.5257 72.9654 14.5257 72.8858 14.5257 72.8061L15.0036 71.9298L15.2426 71.4519L15.8003 70.6553C16.0392 70.257 16.2782 70.018 16.6765 69.779L18.1104 69.0621C18.1104 69.0621 18.2697 68.9027 18.4291 68.8231C18.5884 68.7434 18.7477 68.6638 18.9867 68.5044C19.2257 68.4248 19.385 68.2655 19.624 68.1858C19.863 68.1061 20.0223 68.0265 20.2613 67.9468C20.3409 67.9468 20.5002 67.9468 20.5799 68.1061C20.5799 68.2655 20.5799 68.4248 20.5002 68.5044L20.0223 68.9027C20.0223 68.9824 19.863 69.1417 19.7036 69.2214C19.624 69.2214 19.5443 69.3807 19.385 69.54C19.385 69.6197 19.385 69.6994 19.3053 69.6994C19.3053 69.6994 19.3053 69.6993 19.2257 69.8587L19.0663 70.1773C18.907 70.3366 18.7477 70.5756 18.5884 70.8146C18.4291 71.0536 18.3494 71.2926 18.1901 71.5315L17.8714 72.2485C17.7121 72.5671 17.6325 72.8858 17.5528 73.2044C17.4731 73.5231 17.3935 73.9214 17.2341 74.3197V74.3993C17.2341 74.479 17.2341 74.6383 17.2341 74.8773C17.2341 74.957 17.2341 75.1163 17.2341 75.2756C17.2341 75.4349 17.2341 75.4349 17.2341 75.5146C17.2341 75.5146 17.2341 75.5146 17.2341 75.5942V76.0722C17.2341 76.2315 17.2341 76.4705 17.3138 76.7095C17.3138 76.8688 17.4731 77.1078 17.5528 77.2671C17.6325 77.4264 17.8714 77.5061 18.1104 77.5858C18.3494 77.5858 18.7477 77.6654 19.146 77.8247C19.3053 77.8247 19.385 77.8247 19.5443 77.8247C19.7036 77.8247 19.863 77.8247 20.1019 77.6654L20.8189 77.3468C21.1375 77.2671 21.2968 77.1875 21.4562 77.1875C21.5358 77.1875 21.8545 77.0281 22.5714 76.6298C22.8104 76.4705 23.0494 76.3112 23.2087 76.2315C23.368 76.2315 23.4477 76.0722 23.5273 76.0722C23.607 76.0722 23.7663 75.9129 24.085 75.7536C24.324 75.5942 24.4833 75.5146 24.6426 75.3553C24.6426 75.3553 24.8019 75.2756 24.8816 75.2756C24.8816 75.2756 24.8816 75.2756 24.9612 75.2756C24.9612 75.2756 24.9612 75.2756 25.0409 75.2756C24.8816 75.2756 24.8019 75.2756 24.6426 75.2756C24.4036 75.2756 24.1646 75.1959 24.0053 75.1163C24.0053 75.1163 24.0053 75.1163 23.9256 75.1163C23.9256 75.1163 23.9256 75.1163 23.6867 75.1163C23.4477 75.1163 23.2884 75.1163 23.2087 75.1163C22.9697 74.957 22.8104 74.8773 22.7307 74.7976C22.5714 74.718 22.4918 74.5587 22.3324 74.3993C22.2528 74.3197 22.0935 74.1604 22.0138 74.0807C21.8545 73.9214 21.7748 73.762 21.7748 73.6027C21.7748 73.4434 21.6951 73.3637 21.6951 73.2044C21.6951 73.1248 21.6155 72.9654 21.6155 72.8858C21.6155 72.8061 21.6155 72.7265 21.6155 72.5671C21.6155 72.5671 21.6155 72.4875 21.6155 72.4078L21.7748 71.8502C21.7748 71.5315 21.7748 71.1332 21.9341 70.8146C22.0138 70.496 22.0935 70.257 22.0935 70.018L22.4918 68.4248C22.4918 68.3451 22.4918 68.2655 22.5714 68.1061C22.5714 67.9468 22.5714 67.8672 22.6511 67.7875C22.6511 67.4689 22.8104 67.1502 22.8901 66.9112C22.9697 66.7519 23.0494 66.4333 23.129 66.1146L23.6867 64.3621L24.0053 63.0875L24.8019 60.379L25.2002 58.9452L25.5189 57.9096C25.5189 57.7502 25.5189 57.5909 25.6782 57.5113C25.6782 57.4316 25.7578 57.3519 25.7578 57.2723L25.9968 55.7587C25.9968 55.5197 26.0765 55.2808 26.0765 55.0418C26.0765 55.0418 26.0765 55.0418 25.9968 55.0418L25.4392 55.3604C25.4392 55.3604 25.3595 55.3604 25.2799 55.3604C25.2799 55.3604 25.0409 55.3604 24.8816 55.5197C24.6426 55.6791 24.4036 55.7587 24.1646 55.918C23.9256 56.0774 23.6867 56.2367 23.368 56.4757C23.129 56.7147 22.8104 56.874 22.5714 57.113C22.2528 57.3519 22.0138 57.5909 21.8545 57.7502C21.8545 57.7502 21.7748 57.8299 21.6951 57.8299C21.6155 57.9892 21.4562 58.0689 21.3765 58.2282C21.2172 58.3875 21.1375 58.5468 20.9782 58.7062C20.8189 58.8655 20.7392 59.0248 20.6596 59.0248C20.3409 59.3435 20.3409 59.5028 20.3409 59.5028C20.3409 59.6621 20.3409 59.8214 20.1816 60.0604C20.1019 60.2197 20.1019 60.2994 20.0223 60.379C20.0223 60.4587 20.0223 60.5384 20.1019 60.6977C20.2613 60.7773 20.3409 60.857 20.4206 60.9367C20.5799 61.0163 20.6596 61.096 20.7392 61.1757L21.6155 61.4943C21.8545 61.4943 22.0935 61.4943 22.3324 61.6536C22.4918 61.6536 22.7307 61.7333 22.9697 61.7333C23.129 61.7333 23.2087 61.8129 23.2884 61.9723C23.2884 62.1316 23.2884 62.2909 23.129 62.3706C22.2528 62.9282 21.6155 63.1672 21.2172 63.2468C21.0579 63.2468 20.9782 63.2468 20.8985 63.2468C20.6596 63.2468 20.4206 63.2468 20.2613 63.0875C20.1816 63.0875 20.1019 63.0079 19.9426 62.9282C19.7833 62.9282 19.7833 62.8485 19.7833 62.8485C19.4646 62.7689 19.2257 62.6095 19.0663 62.3706C18.907 62.2112 18.7477 61.9723 18.668 61.8129C18.5087 61.574 18.3494 61.2553 18.2697 60.9367C18.1104 60.618 18.1104 60.2197 18.1901 59.9011C18.1901 59.7418 18.1901 59.5028 18.1104 59.1841C18.1104 58.7858 18.1104 58.3875 18.1104 57.9892V57.9096C18.1901 57.7502 18.2697 57.5909 18.2697 57.5113C18.2697 57.2723 18.2697 57.0333 18.4291 56.7943L18.8274 55.9977C18.8274 55.9977 18.8274 55.9977 18.8274 55.918C18.8274 55.8384 18.8274 55.7587 18.907 55.6791C18.907 55.6791 18.907 55.6791 18.9867 55.6791C18.9867 55.6791 18.9867 55.6791 18.9867 55.5994C18.9867 55.5197 19.146 55.3604 19.3053 55.2808L19.5443 54.9621C19.863 54.4842 20.2613 54.1655 20.6596 53.8469C21.0579 53.6079 21.4562 53.2892 21.7748 53.1299C22.0138 52.8909 22.2528 52.652 22.5714 52.413C22.8901 52.174 23.2884 52.0147 23.607 51.935C23.607 51.935 23.607 51.935 23.6867 51.935L24.1646 51.7757H24.5629C24.5629 51.696 25.2799 51.3774 25.2799 51.3774C25.3595 51.2977 25.5189 51.2181 25.5985 51.2181H25.8375L27.2714 50.6604C27.2714 50.6604 27.6697 50.6604 28.1477 50.5011C28.7053 50.4215 29.2629 50.3418 29.9002 50.3418C30.3782 50.3418 30.9358 50.3418 31.4138 50.3418C31.8917 50.3418 31.7324 50.3418 31.8917 50.3418C32.529 50.3418 32.9273 50.4215 33.1663 50.5808C33.8036 50.5808 34.3612 50.7401 34.9188 51.0587C35.4764 51.3774 35.9544 51.696 36.4324 52.0943C36.99 52.5723 37.3883 53.2096 37.6273 54.0062C37.6273 54.3248 37.7069 54.6435 37.7069 54.9621C37.7069 55.2808 37.7069 55.5994 37.6273 55.918C37.6273 56.2367 37.468 56.5553 37.3086 56.874C37.1493 57.1926 37.0697 57.5113 36.9103 57.8299L36.6714 58.3079C36.4324 58.7062 36.1934 59.1841 35.8748 59.5824C35.5561 59.9807 35.2375 60.379 34.9985 60.7774C34.8392 61.0163 34.6002 61.1757 34.4409 61.335L33.8832 61.8129C33.5646 62.1316 33.246 62.3706 33.007 62.6095C33.007 62.6095 33.1663 62.6095 33.1663 62.6892C33.4053 62.7689 33.6443 62.9282 33.8832 63.0079C34.1222 63.1672 34.3612 63.3265 34.6002 63.4858C34.9985 63.8045 35.3171 64.1231 35.6358 64.5214C35.9544 64.9197 36.1137 65.318 36.2731 65.796C36.3527 66.2739 36.4324 66.7519 36.3527 67.2299C36.3527 67.3892 36.3527 67.5485 36.3527 67.7078C36.3527 67.8672 36.3527 68.1061 36.1934 68.2655C36.1137 68.5841 35.9544 68.9824 35.7951 69.3807C35.6358 69.6994 35.3968 70.0977 35.2375 70.4163C34.9985 70.8146 34.7595 71.1332 34.6002 71.4519C34.4409 71.8502 34.1222 72.1688 33.8036 72.5671C33.6443 72.7265 33.4849 73.0451 33.2459 73.3637C33.007 73.762 32.768 74.001 32.529 74.24L31.8917 75.0366L31.5731 75.3553L29.3426 77.1875C29.1036 77.4264 28.7053 77.6654 28.2273 77.9841C27.7494 78.3027 27.1917 78.5417 26.6341 78.8603C26.0765 79.179 25.5189 79.418 24.8816 79.6569C24.324 79.8959 23.7663 80.0552 23.2884 80.1349C23.129 80.1349 22.9697 80.1349 22.7307 80.2942C22.4918 80.2942 22.2528 80.2942 22.1731 80.3739C22.0138 80.3739 21.8545 80.4535 21.6951 80.4535C21.5358 80.4535 21.3765 80.4535 21.2968 80.4535C21.2172 80.4535 21.0579 80.4535 21.0579 80.4535C20.9782 80.4535 20.8985 80.4535 20.8189 80.4535C20.6596 80.4535 20.5002 80.4535 20.3409 80.4535V80.0552ZM25.5189 74.24C25.6782 74.3197 25.7578 74.3993 25.8375 74.5587C25.8375 74.5587 25.9968 74.3993 26.0765 74.3993C26.3951 74.1604 26.6341 73.9214 26.8731 73.6824C27.1121 73.4434 27.2714 73.2841 27.3511 73.2841L29.2629 71.4519C29.5019 71.2129 29.7409 70.9739 30.0595 70.5756C30.2985 70.1773 30.6171 69.8587 30.8561 69.6197C30.8561 69.6197 30.9358 69.54 31.0951 69.301C31.1748 69.0621 31.3341 68.9027 31.4138 68.8231C31.6527 68.5841 31.8121 68.3451 31.9714 68.1858C32.1307 67.9468 32.29 67.7078 32.4493 67.4688C32.6087 67.2299 32.6883 66.9909 32.768 66.7519C32.8476 66.5129 32.9273 66.2739 33.007 66.035C33.0866 65.6367 33.0866 65.1587 33.007 64.84C33.007 64.6807 32.9273 64.6011 32.8476 64.4417C32.6883 64.4417 32.4493 64.4417 32.2104 64.4417H32.051C31.8917 64.4417 31.7324 64.4417 31.5731 64.4417C31.5731 64.4417 31.4138 64.4417 31.1748 64.6011C31.0155 64.6807 30.7765 64.7604 30.5375 64.9197C30.2985 65.079 30.0595 65.2384 29.7409 65.318C29.5019 65.4773 29.2629 65.6367 29.0239 65.7163L28.546 66.035C28.3866 66.1146 28.3866 66.1943 28.3866 66.1943C28.3866 66.1943 28.3866 66.2739 28.2273 66.3536L27.6697 66.5926C27.6697 66.5926 27.59 66.5926 27.5104 66.5926C27.5104 66.5926 27.3511 66.5926 27.2714 66.5926C27.1917 66.5926 27.1121 66.4333 27.1121 66.2739L26.9528 66.8316C26.9528 66.8316 26.9528 66.9909 26.8731 67.1502C26.8731 67.3095 26.7934 67.4688 26.7138 67.5485C26.5545 67.9468 26.5544 68.1858 26.4748 68.3451C26.4748 68.5044 26.3951 68.8231 26.3155 69.2214C26.3155 69.2214 26.3155 69.4604 26.3155 69.6197C26.3155 69.779 26.3155 69.8587 26.3155 69.9383C26.3155 70.1773 26.3155 70.257 26.2358 70.4163C26.2358 70.4163 26.2358 70.496 26.1561 70.7349C26.1561 70.8943 26.0765 71.0536 25.9172 71.2129C25.9172 71.2129 25.9172 71.3722 25.8375 71.4519C25.8375 71.4519 25.8375 71.5315 25.8375 71.6909C25.8375 71.8502 25.8375 72.0095 25.8375 72.1688C25.6782 72.6468 25.5985 73.0451 25.6782 73.3637V73.9214C25.6782 74.0807 25.6782 74.24 25.6782 74.479L25.5189 74.24ZM28.546 59.8214C28.546 60.0604 28.546 60.2994 28.3866 60.4587C28.3866 60.5384 28.3866 60.6977 28.3866 60.857C28.3866 61.096 28.307 61.2553 28.2273 61.4146C28.2273 61.574 28.2273 61.6536 28.1477 61.8129L29.5019 60.9367C29.6612 60.7774 29.8205 60.618 30.0595 60.4587C30.2188 60.2994 30.4578 60.1401 30.6171 59.9807C30.9358 59.7418 31.1748 59.5028 31.4138 59.1841C31.6527 58.9452 31.8917 58.6265 32.2104 58.3079L32.6087 57.9892C32.6883 57.8299 32.8476 57.6706 33.007 57.4316L33.4053 56.874L33.8832 56.2367L34.5205 55.2011C34.8392 54.7231 34.9985 54.3248 34.9985 54.0859C34.9985 53.7672 34.9985 53.4486 34.9188 53.1299C34.9188 52.9706 34.7595 52.8909 34.6002 52.8113C34.3612 52.8113 34.0426 52.7316 33.7239 52.652C33.2459 52.652 32.6883 52.652 31.9714 52.8113C31.7324 52.8113 31.5731 52.8909 31.3341 52.9706C31.0951 52.9706 30.8561 53.1299 30.6171 53.1299L30.0595 53.2892C29.9002 53.2892 29.7409 53.3689 29.5816 53.4486L28.9443 53.6875V53.9265C29.1036 54.0859 29.1833 54.4045 29.2629 54.8028C29.2629 55.1214 29.3426 55.4401 29.3426 55.8384C29.3426 56.2367 29.3426 56.4757 29.3426 56.635V57.5909L29.0239 58.4672L28.6256 59.8214H28.546Z" fill="white"/>
<path d="M42.168 54.3263C42.168 54.3263 41.929 54.3263 41.929 54.2466C41.929 54.2466 41.929 54.2466 41.929 54.1669C41.8493 54.0076 41.69 53.689 41.3714 53.3703C41.0527 52.972 40.8934 52.6534 40.8137 52.3347C40.6544 52.0958 40.6544 51.8568 40.7341 51.6178C40.7341 51.5381 40.7341 51.4585 40.7341 51.4585C40.5748 50.8212 40.6544 50.1042 40.9731 49.5466C41.1324 49.228 41.212 48.989 41.3714 48.75C41.5307 48.511 41.6103 48.3517 41.7697 48.1924C42.0883 47.9534 42.2476 47.7941 42.4866 47.7941C42.7256 47.7941 42.6459 47.7941 42.7256 47.7941C42.8053 47.7144 42.9646 47.7144 43.1239 47.6348C43.2832 47.6348 43.4425 47.6348 43.6019 47.6348H43.6815C43.9205 47.6348 44.1595 47.6348 44.3985 47.7144C44.6375 47.7144 44.7968 47.8737 44.9561 47.9534C44.9561 47.9534 45.1154 48.0331 45.1951 48.1127C45.4341 48.1924 45.5934 48.3517 45.673 48.5907C45.7527 48.75 45.8324 48.9093 45.8324 48.989C45.8324 49.228 45.8324 49.3873 45.5137 49.5466C45.5137 49.5466 45.3544 49.7059 45.1951 49.7856C45.1951 49.7856 45.1154 49.8653 44.9561 50.1042C44.9561 50.2636 44.7968 50.4229 44.6375 50.5822C44.5578 50.6619 44.4781 50.8212 44.3188 50.9805L43.8408 51.6975C43.6815 51.8568 43.6019 52.0161 43.5222 52.0958C43.5222 52.0958 43.4425 52.2551 43.3629 52.3347V52.4941C43.2832 52.4941 43.2036 52.6534 43.1239 52.733C43.0442 52.8127 42.9646 52.972 42.9646 53.0517C42.9646 53.211 42.7256 53.45 42.4866 53.6093C42.4866 54.0076 42.168 54.0873 42.0883 54.0873L42.168 54.3263Z" fill="white"/>
<path d="M40.4951 70.1773C40.3358 70.1773 40.1765 70.1773 40.0172 70.1773C39.8579 70.1773 39.6985 70.018 39.5392 69.9383C39.2206 69.779 38.8223 69.6197 38.5833 69.3807C38.3443 69.2214 38.1053 68.9027 37.946 68.5841C37.946 68.4247 37.8663 68.3451 37.7867 68.1858V67.9468C37.5477 67.2298 37.5477 66.5926 37.6274 66.0349C37.6274 65.7959 37.6274 65.557 37.7867 65.2383C37.7867 64.9993 37.946 64.6807 37.946 64.362L38.1053 63.5654C38.1053 63.5654 38.1053 63.5654 38.1053 63.4858V63.3265V63.1671L38.2646 62.9282C38.2646 62.5299 38.3443 62.2112 38.424 61.9722C38.5036 61.6536 38.5833 61.4146 38.7426 61.096C38.7426 60.857 38.9019 60.618 38.9816 60.379C38.9816 60.14 39.1409 59.9011 39.1409 59.5824C39.1409 59.5824 39.1409 59.5027 39.1409 59.4231C39.1409 59.1841 39.3002 58.9451 39.3002 58.7061C39.3002 58.4672 39.3799 58.1485 39.4596 57.9095C39.5392 57.4316 39.6189 57.0333 39.6189 56.635C39.6189 56.4756 39.6189 56.2367 39.5392 56.2367C39.5392 56.2367 39.4596 56.2367 39.3799 56.157V55.9977C39.2206 55.9977 39.1409 55.8384 39.1409 55.7587C39.1409 55.5994 39.1409 55.44 39.3799 55.2807C39.3799 55.2807 39.4596 55.2011 39.5392 55.2011C39.5392 55.2011 39.6189 55.2011 39.6985 55.2011C39.6985 55.2011 39.7782 55.2011 39.8579 55.2011H40.0172C40.2562 55.2011 40.4155 55.2011 40.5748 55.1214C40.7341 55.1214 40.8138 55.1214 40.9731 55.1214C41.1324 55.1214 41.2121 55.1214 41.2917 55.1214C41.6104 55.2011 41.8494 55.2807 42.0884 55.4401C42.2477 55.5197 42.4867 55.679 42.7256 55.8384C43.0443 55.9977 43.1239 56.3163 43.0443 56.4756C43.0443 56.4756 43.1239 56.5553 43.2036 56.635L43.4426 57.4316C43.4426 57.4316 43.4426 57.5909 43.4426 57.6705C43.4426 57.6705 43.4426 57.6706 43.4426 57.7502V58.0689C43.5222 58.0689 43.5222 58.1485 43.5222 58.2282C43.5222 58.4672 43.3629 58.6265 43.3629 58.7858C43.3629 58.9451 43.3629 59.0248 43.3629 59.1044V59.5027C43.3629 59.6621 43.3629 59.8214 43.2833 60.0604V60.2197C43.0443 60.5383 42.9646 60.6977 42.885 60.7773C42.885 60.9366 42.885 61.0163 42.885 61.096C42.885 61.2553 42.885 61.3349 42.885 61.3349C42.9646 61.4943 42.9646 61.6536 42.9646 61.7332C42.9646 61.9722 42.8053 62.1315 42.7256 62.2909C42.7256 62.2909 42.7256 62.3705 42.7256 62.4502C42.7256 62.6095 42.5663 62.7688 42.5663 62.9282C42.5663 63.0875 42.4867 63.2468 42.407 63.4061C42.3273 63.6451 42.2477 63.8841 42.168 64.1231C42.168 64.2824 42.0884 64.4417 42.0087 64.601L42.5663 63.9637C42.7256 63.8044 42.8053 63.6451 42.9646 63.4858C43.0443 63.3265 43.2036 63.1671 43.2833 63.0078C43.3629 62.8485 43.5222 62.6892 43.6019 62.5299L44.8765 60.5383C44.8765 60.379 44.7968 60.2197 44.7172 60.0604C44.7172 59.7417 44.6375 59.5027 44.7172 59.1841C44.7172 58.7061 44.7172 58.2282 44.7968 57.9892C44.7968 57.6706 44.9561 57.3519 45.1155 56.9536L45.5934 55.8384C45.5934 55.5994 45.8324 55.2807 45.9917 55.1214C46.1511 54.9621 46.3104 54.8028 46.39 54.5638C46.39 54.4841 46.5494 54.3248 46.7883 54.0858C47.0273 53.8468 47.1866 53.7672 47.2663 53.6875C47.346 53.6875 47.4256 53.6079 47.5053 53.4485C47.6646 53.2892 47.8239 53.2096 48.0629 53.0502C48.4612 52.8112 48.7799 52.6519 49.0188 52.5723C49.0985 52.5723 49.2578 52.5723 49.4171 52.5723C49.5765 52.5723 49.7358 52.5723 49.9748 52.5723H50.1341C50.1341 52.5723 50.2934 52.5723 50.3731 52.5723C50.3731 52.5723 50.3731 52.5723 50.4527 52.5723H50.612C50.7714 52.7316 51.0104 52.8909 51.2493 53.0502C51.568 53.2096 51.807 53.3689 51.9663 53.5282C51.9663 53.5282 52.1256 53.6875 52.2053 53.7672C52.2053 53.7672 52.2849 53.8468 52.3646 53.8468C52.5239 54.0858 52.6832 54.1655 52.6832 54.2451C52.6832 54.2451 52.7629 54.3248 52.7629 54.4045C52.7629 54.6434 52.7629 54.8824 52.7629 55.1214C52.7629 55.1214 52.7629 55.1214 52.7629 55.2011C52.7629 55.2807 52.7629 55.3604 52.7629 55.4401C52.7629 55.4401 52.7629 55.44 52.7629 55.5197C52.7629 55.5197 52.7629 55.5197 52.7629 55.5994C52.7629 55.5994 52.7629 55.7587 52.7629 55.8384C52.7629 56.0773 52.7629 56.3163 52.6036 56.4756L52.4442 57.1129C52.4442 57.1129 52.4442 57.1926 52.4442 57.2722C52.4442 57.2722 52.4442 57.3519 52.3646 57.4316C52.3646 57.5909 52.2849 57.6706 52.2053 57.7502C52.1256 57.9095 52.0459 57.9892 52.0459 57.9892C52.0459 58.0689 51.9663 58.1485 51.8866 58.2282C51.8866 58.3078 51.807 58.4672 51.6476 58.5468C51.6476 58.5468 51.568 58.7061 51.4883 58.7061C51.329 58.8655 51.2493 59.0248 51.09 59.1841C51.0104 59.3434 50.9307 59.4231 50.7714 59.4231C50.7714 59.4231 50.6121 59.5027 50.5324 59.5027C50.3731 59.5027 50.2934 59.4231 50.2934 59.2638C50.2934 59.1841 50.2137 59.0248 50.2934 58.8655V58.7061C50.2934 58.5468 50.2934 58.4672 50.2934 58.3875C50.2934 58.2282 50.2934 58.0689 50.2934 57.9095C50.2934 57.7502 50.2934 57.5909 50.2934 57.4316C50.2934 57.3519 50.2934 57.1926 50.2934 57.0333C50.2934 57.0333 50.2934 56.9536 50.2934 56.8739C50.2934 56.7943 50.2934 56.7146 50.2934 56.635C50.2934 56.635 50.2934 56.4756 50.2934 56.396C50.2934 56.2367 50.2934 56.157 50.2934 55.9977C50.2934 55.918 50.2934 55.7587 50.2934 55.5197C50.2934 55.5197 50.2934 55.4401 50.2934 55.3604C50.2934 55.3604 50.2934 55.3604 50.1341 55.5994C50.0544 55.7587 49.9748 55.918 49.8951 55.918C49.8951 55.9977 49.8951 56.157 49.8951 56.2367C49.8154 56.2367 49.8154 56.3163 49.7358 56.396V56.5553C49.6561 56.5553 49.5765 56.7146 49.4968 56.7943C49.4968 56.9536 49.4171 56.9536 49.4171 56.9536C49.4171 56.9536 49.4171 57.1926 49.2578 57.4316C49.2578 57.6706 49.1782 57.8299 49.1782 57.8299C49.0985 57.9892 49.0985 58.1485 49.0985 58.2282C49.0985 58.3875 49.0985 58.6265 49.1782 59.0248C49.4171 59.5824 49.6561 59.9807 50.0544 60.379C50.4527 60.7773 50.851 61.2553 51.09 61.8129C51.09 61.9722 51.2493 62.0519 51.4087 62.2112C51.568 62.3705 51.7273 62.6095 51.807 62.8485C51.807 62.8485 51.807 62.9282 51.807 63.0078C51.807 63.0078 51.8866 63.1671 51.9663 63.2468C52.0459 63.3265 52.1256 63.4858 52.1256 63.6451C52.1256 63.7248 52.2053 63.8841 52.2849 63.9637C52.2849 63.9637 52.2849 63.9637 52.2849 64.0434C52.2849 64.0434 52.2849 64.0434 52.2849 64.1231C52.2849 64.2027 52.2849 64.2824 52.3646 64.362C52.3646 64.5214 52.4442 64.601 52.4442 64.84C52.4442 64.84 52.4442 64.84 52.4442 64.9993C52.4442 64.9993 52.4442 64.9993 52.4442 65.079C52.4442 65.1587 52.4442 65.2383 52.4442 65.318C52.4442 65.3976 52.4442 65.3976 52.4442 65.3976C52.4442 65.6366 52.4442 65.8756 52.1256 66.2739C51.8866 66.5925 51.7273 66.9112 51.568 67.0705C51.568 67.0705 51.4883 67.2298 51.329 67.3095C51.329 67.3095 51.329 67.3095 51.329 67.3892C51.329 67.3892 51.329 67.3892 51.2493 67.4688C51.2493 67.4688 51.2493 67.6281 51.09 67.6281C51.09 67.6281 51.0104 67.7875 50.9307 67.7875C50.9307 67.7875 50.9307 67.7875 50.851 67.8671C50.851 67.8671 50.6917 67.9468 50.612 68.0264C50.5324 68.1061 50.4527 68.1858 50.3731 68.1858C50.3731 68.1858 50.3731 68.1858 50.2934 68.1858C50.0544 68.2654 49.7358 68.3451 49.4968 68.3451C49.3375 68.3451 49.2578 68.3451 49.1782 68.3451C49.0985 68.3451 49.0188 68.3451 48.9392 68.3451C48.2222 68.3451 47.4256 67.9468 46.3104 67.3892C45.8324 67.1502 45.4341 66.8315 45.0358 66.4332C44.6375 66.0349 44.3985 65.6366 44.1595 65.318C44.1595 65.4773 44.0799 65.557 44.0002 65.7163C44.0002 65.7163 44.0002 65.7163 44.0002 65.7959C43.8409 66.0349 43.7612 66.2739 43.6019 66.4332C43.4426 66.5926 43.3629 66.8315 43.2036 66.9909C43.1239 67.1502 43.0443 67.3095 42.9646 67.4688C42.9646 67.5485 42.8053 67.7078 42.7256 67.8671C42.7256 67.9468 42.7256 68.0264 42.7256 68.1061L42.407 68.5841C42.407 68.6637 42.407 68.7434 42.3273 68.9027C42.2477 68.9824 42.168 69.1417 42.0087 69.2214C41.929 69.2214 41.7697 69.3807 41.6104 69.3807C41.4511 69.3807 41.3714 69.3807 41.3714 69.4603C41.2121 69.4603 41.1324 69.4603 40.9731 69.4603L40.4951 70.1773ZM44.4782 64.2824C44.5578 64.2824 44.7172 64.4417 44.8765 64.601C45.0358 64.601 45.1155 64.7604 45.2748 64.9197C45.2748 64.9197 45.4341 65.079 45.5138 65.079C45.5138 65.079 45.7527 65.1587 45.8324 65.318C45.8324 65.318 45.8324 65.318 45.9121 65.318C46.1511 65.318 46.39 65.4773 46.7087 65.557L47.1866 65.7959L47.7443 65.9553C47.9036 65.9553 47.9832 65.9553 48.2222 65.9553H48.7799C48.9392 65.9553 49.0188 65.9553 49.0188 65.9553V65.7959C48.9392 65.7163 48.8595 65.557 48.7799 65.3976C48.7799 65.3976 48.7799 65.2383 48.6205 65.1587C48.4612 64.9993 48.3816 64.84 48.2222 64.6807C48.0629 64.5214 47.9036 64.4417 47.8239 64.2824C47.8239 64.2824 47.7443 64.2824 47.6646 64.2824C47.5053 64.2824 47.346 64.1231 47.1866 63.8841C47.1866 63.8841 47.1866 63.8044 47.107 63.6451C47.107 63.6451 47.107 63.6451 47.0273 63.4858C47.0273 63.3265 46.868 63.2468 46.7883 63.2468C46.5494 63.1671 46.39 63.0078 46.2307 62.7688C46.0714 62.5299 45.8324 62.2909 45.5934 61.9722C45.5138 62.1316 45.4341 62.3705 45.3544 62.5299C45.1951 62.8485 45.1155 63.0875 44.9561 63.3265C44.8765 63.5654 44.7172 63.8841 44.5578 64.1231L44.4782 64.2824Z" fill="white"/>
<path d="M73.395 73.2849C73.2356 73.2849 73.156 73.2052 73.0763 73.0459C72.9967 72.7272 72.917 72.4086 72.7577 72.1696C72.5984 71.851 72.5187 71.5323 72.439 71.2137C72.3594 71.0544 72.2797 70.895 72.2797 70.4967C72.2797 70.0984 72.2797 69.7001 72.2797 69.2222C72.2797 68.9832 72.2797 68.6645 72.2797 68.3459C72.2797 68.0273 72.2797 67.7883 72.2797 67.629C72.2797 67.629 72.2797 67.629 72.2797 67.4696C72.2797 67.4696 72.2797 67.4696 72.2797 67.39L72.439 64.7612C72.439 64.6018 72.439 64.4425 72.439 64.2832C72.439 64.1239 72.439 63.9646 72.439 63.8052C72.439 63.6459 72.439 63.0086 72.439 62.8493V62.212C72.5187 61.973 72.5984 61.8137 72.5984 61.5747V60.8578C72.678 60.5392 72.7577 60.2205 72.8373 59.8222C72.917 59.5036 72.9967 59.1849 73.0763 58.8663C73.0763 58.8663 73.0763 58.5476 73.2356 57.99C73.3153 57.4324 73.395 56.8748 73.5543 56.2375C73.6339 55.6002 73.7136 55.0426 73.8729 54.4849C73.9526 53.9273 74.0323 53.6883 74.0323 53.6087C74.0323 53.3697 74.1119 53.2104 74.1916 52.9714C74.1916 52.8121 74.2712 52.5731 74.3509 52.3341C74.4306 52.0951 74.5102 51.8561 74.5899 51.6968C74.5899 51.6172 74.6695 51.4578 74.7492 51.2188C74.7492 51.1392 74.7492 50.9799 74.7492 50.8205C74.7492 50.7409 74.7492 50.5816 74.7492 50.5019C74.7492 50.5019 74.7492 50.5019 74.6695 50.5019C74.4306 50.6612 74.2712 50.8205 74.1916 50.9002C74.1916 50.9002 74.1119 50.9002 74.0323 50.9002C74.0323 50.9002 73.9526 50.9002 73.7933 50.9002H73.7136C73.7136 50.9002 73.7136 50.9002 73.6339 50.9002C73.3153 51.0595 73.0763 51.2188 72.8373 51.3782C72.7577 51.3782 72.678 51.4578 72.5984 51.5375C72.5984 51.6172 72.5984 51.7765 72.5984 51.8561C72.5984 52.1748 72.5984 52.4934 72.5984 52.8121C72.5984 53.2104 72.5984 53.529 72.5984 53.9273C72.439 55.2019 72.2797 56.4765 71.9611 57.751C71.8018 58.1493 71.7221 58.5476 71.6424 58.8663C71.4831 59.2646 71.4034 59.5832 71.2441 59.9019C70.9255 60.4595 70.6068 61.0171 70.2882 61.5747C69.8899 62.0527 69.4916 62.5307 69.0136 63.0086C69.0136 63.0086 68.934 63.0086 68.8543 63.0086H68.695C68.6153 63.0086 68.5357 63.0883 68.456 63.0883C68.3763 63.0883 68.217 63.0883 68.0577 63.0883C67.978 63.0883 67.8984 63.0883 67.8187 63.0883C67.7391 63.0883 67.8187 63.0883 67.7391 63.0883C67.4204 63.0883 67.1814 63.0883 66.9424 63.0883C66.5441 63.0883 66.1458 63.0883 65.7475 63.0086C65.1103 62.8493 64.5526 62.5307 64.1543 62.1324C63.6764 61.5747 63.3577 60.8578 63.1187 59.7425C63.1187 59.9019 62.9594 59.9815 62.9594 60.1408C62.9594 60.1408 62.9594 60.2205 62.9594 60.3002C62.9594 60.3002 62.9594 60.4595 62.8798 60.4595C62.8798 60.4595 62.8001 60.5392 62.7204 60.7781L62.0831 61.8934C62.0035 62.0527 61.9238 62.212 61.8442 62.2917C61.7645 62.451 61.6848 62.6103 61.6052 62.69C61.5255 62.8493 61.3662 63.0086 61.2865 63.168C61.2069 63.3273 61.0476 63.4866 60.9679 63.8052C60.8086 64.1239 60.7289 64.3629 60.5696 64.5222V64.6815C60.4103 64.8408 60.2509 64.9205 60.1713 64.9205C60.1713 64.9205 60.1713 64.9205 60.012 65.0798L59.773 65.3985C59.6933 65.4781 59.6137 65.5578 59.534 65.7171C59.3747 65.8764 59.295 65.9561 59.1357 66.0357C58.7374 66.0357 58.6577 66.0357 58.5781 66.0357C58.5781 66.0357 58.5781 66.0357 58.4984 66.0357C58.4984 66.0357 58.4984 66.0357 58.2594 66.1951C58.2594 66.1951 58.2594 66.1951 58.1798 66.1951C58.1798 66.1951 58.1001 66.1951 58.0204 66.1951C57.8611 66.1951 57.7018 66.1951 57.5425 66.1951C57.3832 66.1951 57.1442 66.1951 56.9052 66.1154C56.6662 66.1154 56.5069 66.0357 56.3476 65.9561C56.3476 65.9561 56.1883 65.9561 56.0289 65.7968C55.6306 65.6374 55.2323 65.3188 54.834 65.0002C54.7544 64.9205 54.6747 64.7612 54.595 64.6815C54.595 64.6018 54.4357 64.5222 54.3561 64.3629C54.1967 64.1239 54.1171 63.8849 53.9578 63.4866C53.9578 63.3273 53.8781 63.2476 53.7984 63.0883V62.69C53.6391 62.2917 53.5594 61.8137 53.5594 61.1764C53.5594 61.0171 53.5594 60.8578 53.5594 60.6985C53.5594 60.5392 53.5594 60.3798 53.5594 60.2205C53.5594 60.1408 53.7984 59.0256 53.7984 58.9459C53.7984 58.6273 53.7984 58.3087 53.8781 58.0697C53.8781 57.8307 53.8781 57.512 54.0374 57.1137C54.0374 57.1137 54.0374 57.1137 54.0374 57.0341C54.0374 56.9544 54.0374 56.7951 54.1171 56.7154C54.1171 56.7154 54.1171 56.4765 54.1967 56.3968C54.1967 56.2375 54.1967 56.1578 54.2764 55.9985C54.2764 55.8392 54.3561 55.6798 54.4357 55.5205C54.4357 55.3612 54.5154 55.2019 54.595 55.1222C54.595 54.9629 54.6747 54.8036 54.7544 54.5646C54.834 54.3256 54.9137 54.0866 54.9933 53.8477C55.073 53.6087 55.1527 53.3697 55.312 53.1307C55.3916 52.8917 55.4713 52.7324 55.551 52.6527C55.6306 52.4138 55.7899 52.3341 55.8696 52.1748C55.8696 52.0951 56.0289 51.9358 56.0289 51.8561C56.0289 51.8561 56.0289 51.7765 56.0289 51.6968C56.0289 51.6968 56.0289 51.5375 56.1086 51.4578L56.2679 51.1392C56.5069 50.8205 56.7459 50.5816 56.9849 50.1833C57.3035 49.785 57.5425 49.546 57.8611 49.3867C58.5781 49.2273 58.7374 49.1477 58.8171 49.068C58.9764 48.9883 59.1357 48.9087 59.295 48.9087C59.4543 48.9087 59.534 48.9087 59.6933 48.9087C59.8526 48.9087 60.1713 48.9883 60.6493 49.1477C60.8882 49.1477 61.1272 49.2273 61.3662 49.307C61.6052 49.307 61.8442 49.4663 62.0831 49.546C62.3221 49.7053 62.5611 49.8646 62.6408 50.0239C62.8001 50.1833 62.8001 50.4222 62.8001 50.6612C62.9594 50.8205 62.9594 50.9799 62.9594 51.1392C62.9594 51.2188 62.9594 51.3782 62.9594 51.5375C62.9594 51.5375 62.9594 51.5375 62.9594 51.6172C62.8798 52.0155 62.8001 52.3341 62.8001 52.6527C62.8001 52.9714 62.6408 53.3697 62.4814 53.768C62.4814 53.8477 62.4018 54.007 62.2425 54.1663C62.1628 54.3256 62.0831 54.4053 62.0831 54.4053C62.0831 54.4053 62.0831 54.5646 61.9238 54.7239C61.9238 54.8036 61.9238 54.8832 61.9238 54.9629C61.9238 54.9629 61.7645 55.2019 61.5255 55.2019L61.2865 55.6798L60.9679 56.0782L60.6493 56.7951C60.6493 56.8748 60.4899 56.9544 60.4103 56.9544C60.4103 56.9544 60.4103 56.9544 60.3306 56.9544C60.0916 56.9544 60.012 56.7154 59.9323 56.5561C59.9323 56.3968 59.9323 56.3171 59.8526 56.3171C59.8526 56.1578 59.8526 56.0782 59.8526 55.9985C59.8526 55.9985 59.8526 55.7595 59.8526 55.6002C59.8526 55.4409 59.8526 55.2815 59.8526 55.1222C59.8526 54.9629 59.8526 54.8036 59.8526 54.6443C59.8526 54.5646 59.8526 54.4849 59.8526 54.4849C59.8526 54.4053 59.8526 54.246 59.8526 54.0866C59.8526 54.007 59.8526 53.8477 59.8526 53.768C59.8526 53.6087 59.8526 53.529 59.8526 53.3697C59.8526 53.3697 59.8526 53.3697 59.8526 53.051C59.8526 52.7324 59.8526 52.6527 59.8526 52.5731C59.8526 52.4934 59.8526 52.4138 59.8526 52.4138C59.8526 52.4138 59.8526 52.2544 59.8526 52.0951C59.8526 52.0951 59.773 52.1748 59.773 52.2544C59.773 52.3341 59.6933 52.4138 59.6137 52.4934C59.6137 52.5731 58.8967 53.768 58.8967 53.768C58.8171 53.9273 58.7374 54.0866 58.6577 54.1663V54.3256C58.4188 54.5646 58.3391 54.8036 58.2594 55.1222C58.1798 55.4409 58.0204 55.7595 57.9408 56.0782C57.9408 56.0782 57.9408 56.1578 57.9408 56.2375C57.9408 56.3968 57.8611 56.5561 57.7815 56.7154C57.7815 56.9544 57.6221 57.1137 57.5425 57.3527C57.5425 57.5917 57.3832 57.751 57.3832 57.99C57.3832 58.229 57.3832 58.3087 57.3832 58.3883C57.3832 58.5476 57.3832 58.7866 57.2238 59.1849C57.2238 59.5036 57.0645 59.8222 57.0645 60.0612V60.2205C57.0645 60.3798 57.0645 60.4595 57.0645 60.5392C57.0645 60.6985 57.0645 60.7781 57.0645 60.8578C57.0645 61.0171 57.0645 61.1764 57.0645 61.3358C57.0645 61.3358 57.0645 61.4154 57.0645 61.6544C57.0645 61.8934 57.1442 62.1324 57.1442 62.2917C57.2238 62.7696 57.3035 62.8493 57.3035 62.8493C57.3035 62.8493 57.4628 62.7697 57.9408 62.451C57.9408 62.451 58.1001 62.3713 58.2594 62.212C58.4188 62.1324 58.4984 62.0527 58.4984 62.0527L58.5781 61.973C58.5781 61.8934 58.7374 61.7341 58.8967 61.5747C58.8967 61.5747 59.056 61.4154 59.2154 61.2561C59.3747 61.0968 59.4543 60.9375 59.6137 60.6985C59.773 60.5392 59.8526 60.3002 60.012 60.1408C60.1713 59.9815 60.2509 59.8222 60.3306 59.7425C60.3306 59.7425 60.4899 59.5832 60.5696 59.3442C60.7289 59.0256 60.8882 58.8663 60.8882 58.8663C60.8882 58.8663 60.9679 58.707 61.1272 58.707C61.1272 58.707 61.1272 58.707 61.1272 58.6273C61.1272 58.6273 61.2069 58.5476 61.2069 58.468C61.2069 58.3087 61.3662 58.1493 61.5255 58.0697C61.6052 57.99 61.6848 57.8307 61.8442 57.6714C61.9238 57.512 62.0831 57.3527 62.1628 57.1934C62.3221 56.9544 62.4814 56.7951 62.6408 56.5561C62.6408 56.4765 62.6408 56.3171 62.6408 56.2375C62.7204 55.9188 62.8001 55.6002 62.8798 55.2815C62.8798 55.0426 62.8798 54.8832 62.8798 54.7239C62.8798 54.4849 62.8798 54.246 62.8798 53.9273C62.8798 53.6883 63.0391 53.3697 63.1187 53.1307C63.1984 52.8917 63.2781 52.6527 63.3577 52.4138C63.3577 52.2544 63.4374 52.0951 63.517 51.9358C63.517 51.7765 63.5967 51.6968 63.6764 51.5375C63.756 51.1392 63.9153 50.7409 64.0747 50.5019C64.234 50.2629 64.3136 50.0239 64.473 49.7053C64.6323 49.3867 64.7916 49.2273 64.8713 48.9883C65.0306 48.7494 65.1103 48.5104 65.3492 48.3511C65.5882 48.0324 65.9069 47.7934 66.2255 47.6341C66.5441 47.4748 66.8628 47.3951 67.1814 47.3951C67.3408 47.3951 67.4204 47.3951 67.5797 47.3951C67.7391 47.3951 67.978 47.3951 68.1374 47.3951C68.456 47.3951 68.7746 47.4748 69.0136 47.6341C69.6509 47.8731 69.9696 48.0324 70.1289 48.2714C70.1289 48.3511 70.2085 48.4307 70.2085 48.4307C70.2085 48.4307 70.2882 48.4307 70.3679 48.4307C70.4475 48.4307 70.5272 48.4307 70.6068 48.4307C70.6865 48.4307 70.7662 48.4307 70.9255 48.4307C71.0848 48.4307 71.3238 48.5104 71.5628 48.6697C71.8814 48.59 72.2001 48.4307 72.5984 48.3511C72.439 48.1917 72.3594 48.0324 72.2797 47.6341C72.2797 47.6341 72.2797 47.3951 72.2797 47.2358C72.2797 46.9968 72.5187 46.6782 72.917 46.3595C73.0763 46.2799 73.156 46.2002 73.3153 46.1206C73.4746 46.1206 73.5543 45.9612 73.7136 45.8816C73.8729 45.8019 74.0322 45.7223 74.1916 45.6426C74.3509 45.6426 74.4306 45.5629 74.5899 45.4833C74.7492 45.4036 74.9085 45.324 75.0678 45.2443C75.0678 45.2443 75.2272 45.2443 75.3068 45.1646C75.3068 45.0053 75.4661 44.846 75.4661 44.6867C75.4661 44.4477 75.6255 44.2087 75.7051 44.0494C75.7051 43.8901 75.7848 43.7307 75.8644 43.5714L76.0238 43.0935C76.0238 42.9341 76.0238 42.7748 76.1034 42.7748C76.1034 42.6952 76.1034 42.6155 76.1034 42.5358C76.1034 42.5358 76.1034 42.3765 76.1034 42.2968C76.1034 42.0579 76.1831 41.8189 76.2628 41.6596C76.2628 41.4206 76.4221 41.2613 76.4221 41.0223L76.6611 40.385C76.7407 40.146 76.8204 39.9867 76.9 39.7477L77.2187 39.1104C77.2983 38.8714 77.4577 38.6325 77.617 38.3935L77.856 38.0748C77.856 37.9952 78.0153 37.8358 78.0153 37.7562C78.1746 37.5172 78.2543 37.4375 78.3339 37.2782C78.3339 37.2782 78.4136 37.1986 78.5729 37.0392C78.5729 37.0392 78.6526 36.8799 78.7322 36.8003C78.9712 36.6409 79.2102 36.402 79.5288 36.2426C79.8475 36.0833 80.1661 35.924 80.4051 35.8443C80.6441 35.8443 80.8034 35.8443 80.9627 35.8443C81.1221 35.8443 81.2814 35.8443 81.361 35.8443C81.6 35.8443 81.7593 36.0037 82.078 36.0833C82.317 36.0833 82.4763 36.2426 82.7153 36.2426C82.9543 36.2426 83.1932 36.4816 83.4322 36.6409C83.5915 36.8003 83.6712 36.8799 83.7509 36.9596C83.7509 36.8799 84.0695 36.3223 84.0695 36.3223C84.0695 36.2426 84.1492 36.0833 84.2288 36.0037C84.3881 35.7647 84.4678 35.685 84.5475 35.5257C84.5475 35.5257 84.6271 35.446 84.7864 35.2867C84.7864 35.2867 84.8661 35.1274 84.9458 35.0477C85.1847 34.8884 85.4237 34.6494 85.7424 34.4901C86.061 34.3308 86.3797 34.1715 86.6186 34.0918C86.8576 34.0918 87.0169 34.0918 87.1763 34.0918C87.3356 34.0918 87.4949 34.0918 87.5746 34.0918C87.8136 34.0918 87.9729 34.2511 88.2915 34.3308C88.5305 34.3308 88.6898 34.4901 88.9288 34.4901C89.1678 34.4901 89.4068 34.7291 89.6457 34.8884C89.8051 35.0477 89.9644 35.207 90.1237 35.3664C90.283 35.5257 90.3627 35.685 90.6017 35.8443C90.6017 35.8443 90.6813 36.0037 90.6813 36.0833C90.6813 36.0833 90.8407 36.163 90.8407 36.2426L91 36.7206C91 36.7206 91 36.8003 91 36.8799V37.0392C91 37.0392 91 37.1986 91 37.2782C91 37.3579 91 37.4375 90.9203 37.5172C90.8407 37.5969 90.761 37.5969 90.6813 37.5969H90.3627C90.2034 37.5969 90.0441 37.4375 90.0441 37.2782C90.0441 37.1189 89.9644 37.1189 89.8847 37.1189L89.6457 36.9596H89.0881C88.9288 36.9596 88.7695 36.9596 88.6102 36.9596C88.2915 36.9596 87.9729 37.3579 87.6542 37.8358C87.5746 37.9952 87.4949 38.1545 87.3356 38.3138C87.2559 38.4731 87.1763 38.6325 87.0966 38.7918C87.0966 38.8714 87.0169 38.9511 86.9373 39.0308C86.9373 39.1901 86.8576 39.2697 86.778 39.3494C86.6983 39.5884 86.6186 39.7477 86.539 39.8274C86.539 39.9867 86.4593 40.146 86.3 40.385V40.7036C86.2203 40.7036 86.1407 41.0223 86.1407 41.0223C86.1407 41.1019 86.1407 41.1816 86.1407 41.2613C86.1407 41.3409 86.1407 41.4206 86.061 41.5799C86.061 41.7392 85.9814 41.8985 85.822 42.2172C85.822 42.2172 85.822 42.2968 85.822 42.3765C85.822 42.3765 85.822 42.3765 85.9017 42.3765V42.6952C85.9814 42.6952 85.9814 42.3765 85.9814 42.3765C86.061 42.3765 86.2203 42.3765 86.3 42.3765C86.4593 42.3765 86.6983 42.2968 86.8576 42.2968C86.9373 42.2172 87.0966 42.1375 87.1763 42.1375C87.2559 42.1375 87.3356 42.1375 87.3356 42.1375H87.4153C87.4949 42.0579 87.5746 42.0579 87.6542 42.0579C87.7339 42.0579 87.8136 42.0579 87.8136 42.0579L89.0085 41.7392C89.0085 41.7392 89.0881 41.7392 89.1678 41.7392C89.3271 41.7392 89.4068 41.7392 89.4864 41.8985C89.4864 41.9782 89.4864 42.2172 89.4864 42.2968C89.4864 42.2968 89.4068 42.3765 89.3271 42.4562C89.3271 42.4562 89.2474 42.6155 89.1678 42.6952C89.1678 42.9341 89.1678 43.1731 89.1678 43.3324C89.1678 43.4918 89.0085 43.6511 88.8491 43.7307C88.7695 43.7307 88.6898 43.8901 88.5305 43.8901C88.2915 44.2087 88.1322 44.2884 87.9729 44.368C87.9729 44.368 87.8932 44.5273 87.8136 44.5273C87.6542 44.5273 87.4152 44.7663 87.1763 44.9257C86.8576 45.1646 86.539 45.324 86.3 45.4036C85.9814 45.4833 85.822 45.5629 85.822 45.5629C85.7424 45.5629 85.6627 45.6426 85.6627 45.6426L85.4237 45.8019C85.3441 45.8019 85.1848 45.9612 85.0254 46.0409C85.0254 46.1206 85.0254 46.2002 85.0254 46.3595L84.8661 46.7578C84.8661 46.8375 84.8661 46.9968 84.7864 47.1562V47.5545C84.6271 47.7934 84.5475 48.1121 84.4678 48.3511L84.2288 49.2273C84.2288 49.3867 84.2288 49.546 84.1492 49.7053C84.1492 49.8646 84.0695 50.0239 83.9898 50.1833C83.9898 50.1833 83.9898 50.3426 83.7509 51.1392C83.6712 51.6968 83.5119 52.3341 83.4322 53.051C83.3526 53.768 83.1932 54.3256 83.1136 54.9629C82.9543 55.7595 82.8746 55.9188 82.8746 55.9985C82.8746 56.2375 82.7949 56.5561 82.7153 56.7951C82.7153 57.0341 82.6356 57.1934 82.5559 57.3527C82.5559 57.512 82.5559 57.6714 82.5559 57.8307C82.5559 58.0697 82.4763 58.1493 82.4763 58.229C82.4763 58.3883 82.4763 58.707 82.3966 59.1849C82.317 59.6629 82.2373 60.1408 82.078 60.7781C82.078 61.0968 81.839 61.4154 81.6797 61.4951C81.6797 61.4951 81.6 61.4951 81.4407 61.8934C81.4407 62.1324 81.361 62.451 81.2814 62.929C81.2814 63.4069 81.2017 63.8052 81.1221 64.0442C81.1221 64.2832 80.9627 64.5222 80.9627 64.7612C80.9627 65.0001 80.8034 65.2391 80.7238 65.4781C80.5644 66.2747 80.4051 66.912 80.4051 67.39C80.4051 67.39 80.4051 67.4696 80.4051 67.5493C80.4051 67.5493 80.3254 67.7086 80.2458 67.7086C80.2458 68.1069 80.1661 68.5052 80.1661 68.9035C80.1661 69.4612 80.1661 70.0188 80.0068 70.6561C80.0068 70.8154 79.8475 70.895 79.6882 70.895C79.5288 70.895 79.5288 70.895 79.5288 70.895C79.3695 70.895 79.2899 70.8154 79.2102 70.6561C79.1305 70.3374 79.0509 70.0188 78.8916 69.7798C78.7322 69.4612 78.6526 69.1425 78.5729 68.8239C78.4932 68.6645 78.4136 68.5052 78.4136 68.1069C78.4136 67.7086 78.4136 67.3103 78.4136 66.8323C78.4136 66.5934 78.4136 66.2747 78.4136 65.9561C78.4136 65.6374 78.4136 65.3985 78.4136 65.2391C78.4136 65.2391 78.4136 65.2391 78.4136 65.0798C78.4136 65.0798 78.4136 65.0798 78.4136 65.0002L78.5729 62.3713C78.5729 62.212 78.5729 62.0527 78.5729 61.8934C78.5729 61.7341 78.5729 61.5747 78.5729 61.4154C78.5729 61.2561 78.5729 61.0968 78.5729 60.9375C78.5729 60.7781 78.5729 60.6188 78.5729 60.4595V59.8222C78.6526 59.5832 78.7322 59.4239 78.7322 59.1849V58.468C78.8119 58.1493 78.8916 57.8307 78.9712 57.4324C79.0509 57.1137 79.1305 56.7951 79.2102 56.4765C79.2102 56.4765 79.2102 56.1578 79.3695 55.6002C79.4492 55.0426 79.5288 54.4849 79.6882 53.8477C79.7678 53.2104 79.8475 52.6527 80.0068 52.0951C80.0865 51.5375 80.1661 51.2985 80.1661 51.2188C80.1661 50.9799 80.2458 50.8205 80.3254 50.5816C80.3254 50.4222 80.4051 50.1833 80.4848 49.9443C80.5644 49.7053 80.6441 49.4663 80.7238 49.307C80.7238 49.2273 80.8034 49.068 80.8831 48.829C80.8831 48.7494 80.8831 48.59 80.8831 48.4307C80.8831 48.1917 80.8831 48.0324 80.8831 47.9528C80.8831 47.6341 80.9627 47.2358 81.0424 46.9172C80.8831 46.9172 80.6441 46.9172 80.4051 46.9172C80.4051 46.9172 80.3254 46.9172 80.2458 46.9172C80.1661 46.9172 80.2458 46.9172 80.1661 46.9172C80.0865 46.9172 80.0068 46.9172 79.9271 46.9968C79.8475 46.9968 79.7678 47.0765 79.7678 47.0765L79.5288 47.2358C79.4492 47.2358 79.2899 47.3951 79.1305 47.4748C79.1305 47.5545 79.1305 47.6341 79.1305 47.7934L78.9712 48.1917C78.9712 48.2714 78.9712 48.4307 78.8916 48.59C78.8916 48.6697 78.8916 48.829 78.8119 48.9883C78.8119 49.2273 78.6526 49.546 78.5729 49.785L78.3339 50.6612C78.3339 50.8205 78.3339 50.9799 78.2543 51.1392C78.2543 51.2985 78.2543 51.4578 78.0949 51.6172C78.0949 51.6172 78.0949 51.7765 77.856 52.5731C77.7763 53.1307 77.617 53.768 77.5373 54.4849C77.4577 55.2019 77.2983 55.7595 77.2187 56.3968C77.0594 57.1934 76.9797 57.3527 76.9797 57.4324C76.9797 57.6714 76.9 57.99 76.8204 58.229C76.8204 58.468 76.7407 58.6273 76.6611 58.7866C76.6611 58.9459 76.6611 59.1053 76.6611 59.2646C76.6611 59.5036 76.5814 59.5832 76.5814 59.6629C76.5814 59.8222 76.5814 60.1408 76.5017 60.6188C76.4221 61.0968 76.3424 61.5747 76.1831 62.212C76.1831 62.5307 75.9441 62.8493 75.7848 62.929C75.7848 62.929 75.7051 62.929 75.5458 63.4069C75.5458 63.6459 75.4661 63.9646 75.3865 64.4425C75.3865 64.9205 75.3068 65.3188 75.2272 65.5578C75.2272 65.7968 75.0678 66.0357 75.0678 66.2747C75.0678 66.5137 74.9085 66.7527 74.8289 66.9917C74.6695 67.7883 74.5102 68.4256 74.5102 68.9035C74.5102 68.9035 74.5102 68.9832 74.5102 69.0628C74.5102 69.0628 74.4306 69.2222 74.3509 69.2222C74.2712 69.6205 74.2712 70.0188 74.2712 70.4171C74.2712 70.9747 74.2712 71.5323 74.1119 72.1696C74.1119 72.3289 73.9526 72.4086 73.7933 72.4086C73.6339 72.4086 73.6339 72.4086 73.6339 72.4086L73.395 73.2849ZM66.4645 60.7781C66.4645 60.9375 66.5441 61.0171 66.6238 61.1764C66.6238 61.1764 66.6238 61.2561 66.6238 61.3358H67.0221C67.1018 61.1764 67.2611 61.0171 67.3408 60.8578C67.5001 60.6985 67.5797 60.5392 67.6594 60.3798C67.8187 60.1408 67.8984 59.9019 67.978 59.7425C67.978 59.6629 68.1374 59.5036 68.217 59.3442C68.3763 58.9459 68.5357 58.5476 68.695 58.1493C68.8543 57.751 68.934 57.3527 69.0933 56.9544C69.2526 56.5561 69.3323 56.1578 69.4916 55.7595C69.5713 55.4409 69.7306 55.0426 69.8102 54.6443V54.1663C69.8102 53.8477 69.8102 53.529 69.8899 53.2104C69.8899 52.9714 69.8899 52.8121 69.8899 52.5731C69.8899 52.3341 69.8899 52.3341 69.8899 52.3341C69.8899 52.2544 69.8899 52.1748 69.8899 52.0951H69.7306C69.7306 52.0951 69.6509 52.0951 69.5713 52.0951C69.5713 52.0951 69.4916 52.0951 69.4119 52.0951L69.0933 51.9358C69.0136 51.9358 68.8543 51.7765 68.7746 51.6968C68.7746 51.6968 68.695 51.5375 68.6153 51.4578C68.2967 51.9358 68.0577 52.3341 67.8984 52.6527C67.7391 53.051 67.5797 53.3697 67.5001 53.768C67.3408 54.0866 67.2611 54.4849 67.1814 54.8036C67.1018 55.1222 67.0221 55.5205 66.8628 55.9188C66.8628 56.0782 66.7831 56.2375 66.7035 56.3968L66.5441 56.8748C66.5441 57.2731 66.5441 57.5917 66.3848 57.9103C66.3052 58.1493 66.2255 58.468 66.3052 58.7866C66.3052 59.1053 66.3052 59.5036 66.3052 59.9019C66.3052 60.3002 66.3052 60.6188 66.3052 60.8578L66.4645 60.7781ZM83.1932 39.0308C83.0339 39.0308 82.8746 39.0308 82.7153 39.0308C82.3966 39.0308 82.078 39.4291 81.7593 39.907C81.6797 40.0663 81.6 40.2257 81.4407 40.385C81.361 40.5443 81.2814 40.7036 81.2017 40.863C81.2017 40.9426 81.1221 41.0223 81.0424 41.1019C81.0424 41.2613 80.9627 41.3409 80.8831 41.4206C80.7237 41.6596 80.7238 41.8189 80.6441 41.8985C80.6441 42.0579 80.5644 42.2172 80.4051 42.4562V42.7748C80.3254 42.7748 80.2458 43.0935 80.2458 43.0935C80.2458 43.1731 80.2458 43.2528 80.2458 43.3324C80.2458 43.4121 80.2458 43.4918 80.1661 43.6511C80.1661 43.8104 80.0865 43.9697 79.9271 44.2884C79.9271 44.2884 79.9271 44.368 79.9271 44.4477C79.9271 44.4477 79.9271 44.4477 80.0068 44.4477H80.0865C80.1661 44.4477 80.3254 44.4477 80.4051 44.4477C80.4848 44.4477 80.5644 44.4477 80.7238 44.4477C80.8034 44.4477 80.9627 44.368 81.1221 44.2884C81.2814 44.2087 81.4407 44.129 81.6 44.0494C81.6 44.0494 81.7593 44.0494 81.839 43.9697C81.839 43.8104 81.9983 43.6511 81.9983 43.4918C81.9983 43.2528 82.1576 43.0138 82.2373 42.8545C82.2373 42.6952 82.317 42.5358 82.3966 42.3765L82.5559 41.8985C82.5559 41.7392 82.5559 41.5799 82.6356 41.5799C82.6356 41.5002 82.6356 41.4206 82.6356 41.3409C82.6356 41.3409 82.6356 41.1816 82.6356 41.1019C82.6356 40.863 82.7153 40.624 82.7949 40.4647C82.7949 40.2257 82.9542 40.0664 82.9542 39.8274L83.1932 39.1901C83.1932 39.1901 83.1932 39.1901 83.1136 39.1901L83.1932 39.0308Z" fill="white"/>
</svg>
