<svg width="104" height="104" viewBox="0 0 104 104" fill="none" xmlns="http://www.w3.org/2000/svg">
<rect x="1" y="1" width="102" height="102" rx="9" fill="url(#paint0_linear_34_27761)"/>
<rect x="1" y="1" width="102" height="102" rx="9" stroke="#C0282D" stroke-width="2"/>
<path d="M86.9 34.0996C86.2 35.1996 84.4 34.0996 83.2 35.1996C81.7 36.5996 82.5 39.9996 83.2 43.1996C83.6 45.1996 84 45.9996 83.8 47.4996C83.8 47.7996 83.5 49.0996 82.1 50.8996C80.1 53.3996 77.6 54.7996 75.8 55.4996C72.9 56.6996 69.7 56.0996 67.8 54.0996C66.2 52.3996 66.1 50.1996 66.1 49.4996C66 51.9996 64.6 54.0996 62.7 54.5996C60.7 55.1996 58.9 53.7996 58.4 53.4996C56 51.4996 55.5 47.4996 57 43.1996C56 43.8996 54.5 44.5996 52.7 44.5996C48.4 44.5996 42.2 34.8996 42.2 34.8996C42.2 34.8996 42.7 37.6996 44.8 40.2996C45.8 41.5996 46.4 41.8996 49.1 43.9996C54.7 48.4996 55.6 49.9996 55.9 51.3996C56.1 51.9996 56.6 53.8996 55.6 55.0996C54.7 56.1996 53.1 56.1996 52.5 56.1996C47.9 56.1996 45 51.5996 39.7 49.3996C35.2 47.4996 35 49.5996 28.3 47.6996C25.3 46.8996 17.1 44.5996 15.8 39.1996C15.8 38.8996 15 35.8996 16.8 34.0996C18.4 32.4996 21 32.8996 21.2 32.9996C23.5 33.3996 24.9 35.1996 25.5 35.7996C30.2 41.2996 38.9 46.0996 40.7 44.5996C41.7 43.7996 41 40.6996 40 38.8996C38.8 36.6996 37.5 36.8996 36.3 34.5996C34.8 31.7996 35.3 28.9996 35.4 28.2996C35.7 27.0996 36.1 24.9996 38 23.6996C40.3 22.0996 43.5 22.8996 45.4 24.2996C45.9 24.5996 46.7 25.3996 48 27.9996C50.7 33.4996 50 36.6996 51.6 37.1996C53.3 37.6996 55.7 34.9996 56.8 33.3996C59.1 29.9996 58.1 27.5996 60.5 25.6996C61 25.2996 62.6 24.1996 64.5 24.5996C66.4 24.9996 67.8 26.5996 68.2 28.2996C68.8 30.9996 66.6 33.2996 66.2 33.6996C65.2 34.7996 64.4 34.8996 63.9 35.9996C63.1 37.5996 63.7 39.6996 64.2 39.6996C64.9 39.6996 64.7 34.6996 68.2 32.2996C68.7 31.9996 69.9 31.1996 71.3 31.3996C72.7 31.6996 73.5 32.7996 73.9 33.3996C76.5 37.1996 73.9 44.7996 73.6 45.5996C74.2 44.3996 75.1 42.5996 75.6 40.1996C76.8 34.4996 75 30.6996 77.3 28.4996C78.4 27.4996 80 27.3996 80.4 27.3996C82.8 27.2996 84.4 28.5996 85 29.0996C86.4 30.3996 87.8 32.7996 87 33.8996L86.9 34.0996ZM69.9 24.0996C68.3 23.8996 67.8 24.9996 68.5 26.2996C69 27.0996 70 27.4996 71 27.5996C71.9 27.5996 72.1 26.7996 71.8 25.9996C71.5 25.0996 70.7 24.5996 69.9 24.2996M69.1 16.5996C68 16.5996 65.6 17.2996 66.1 18.6996C66.4 19.4996 67.3 20.0996 68.2 20.0996C69.2 20.0996 70.6 20.0996 70.8 19.2996C71 18.5996 70.2 17.3996 68.5 16.5996M76.4 24.2996C75.4 24.2996 74.1 25.1996 74.8 26.1996C75.3 26.7996 76.1 26.8996 76.9 26.8996C77.8 26.9996 79 26.7996 78.4 25.6996C78 25.0996 77.3 24.8996 76.7 24.7996M33.3 49.4996C32.3 50.1996 32.4 51.6996 32.4 51.9996C32.4 52.8996 32.9 54.4996 34.2 54.7996C35.5 55.0996 36.9 53.8996 37.2 52.5996C37.5 51.3996 36.8 50.3996 36.7 50.2996C35.9 49.2996 34.3 48.7996 33.3 49.3996V49.4996ZM41.3 51.0996C41.1 51.0996 39.4 51.3996 38.8 52.7996C38 54.5996 39.6 57.0996 41.1 57.1996C42.1 57.1996 43 56.0996 43.2 55.6996C43.5 55.2996 44.4 53.9996 43.9 52.7996C43.4 51.7996 42 51.2996 40.5 51.6996" fill="url(#paint1_linear_34_27761)"/>
<path d="M87 34.1994C86.7 34.5994 86.2 34.7994 85.8 34.8994C85 34.9994 84.2 35.0994 83.6 35.5994C81.9 37.0994 83.8 43.0994 84.2 45.1994C85.2 49.2994 81.2 53.2994 78 55.0994C76.4 55.9994 74.6 56.7994 72.7 56.7994C70.8 56.7994 68.8 56.1994 67.3 54.7994C65.8 53.3994 65.1 51.3994 65.1 49.3994H67C67 50.3994 66.6 51.4994 66 52.2994C64.9 54.1994 63 55.5994 60.8 55.1994C55 54.0994 54.3 47.3994 56.1 42.6994L57.5 43.7994C56 44.7994 54.2 45.3994 52.4 45.2994C51.4 45.2994 50.6 44.7994 49.8 44.2994C48.4 43.3994 47.2 42.0994 46.2 40.8994C44.6 38.9994 43.2 37.0994 41.8 34.9994L42.5 34.6994C42.6 35.1994 42.8 35.7994 43 36.2994C43.8 38.3994 45 40.2994 46.7 41.5994L48 42.5994C49.8 43.9994 51.6 45.3994 53.2 46.9994C54 47.7994 54.9 48.5994 55.5 49.5994C56.2 50.6994 56.5 51.8994 56.5 53.0994C56.5 56.2994 53.4 57.0994 50.8 56.5994C47.3 55.8994 44.8 53.1994 41.8 51.3994C40 50.2994 38 49.2994 35.9 49.1994C34.8 49.1994 33.6 49.2994 32.5 49.1994C30.1 49.0994 27.9 48.3994 25.6 47.7994C24.5 47.4994 23.4 47.0994 22.3 46.5994C19 45.1994 15.4 42.9994 14.4 39.1994C13.7 36.4994 14.3 33.1994 17 31.9994C19.5 30.7994 22.7 31.4994 24.6 33.2994C25.5 34.0994 26.1 35.0994 26.9 35.8994C27.6 36.6994 28.4 37.4994 29.2 38.1994C31.8 40.4994 35.5 43.4994 39 44.0994C39.4 44.0994 39.9 44.0994 40.2 43.7994C40.7 42.8994 40.3 41.7994 40.1 40.8994C39.8 39.8994 39.3 38.7994 38.7 37.9994C38 37.0994 37 36.5994 36.2 35.6994C34.6 33.7994 33.9 31.1994 34.1 28.7994C34.3 26.8994 34.7 24.9994 36 23.4994C37.3 21.9994 39.6 21.2994 41.5 21.5994C43.1 21.7994 44.7 22.3994 46 23.3994C47.6 24.8994 48.5 26.8994 49.3 28.8994C50 30.4994 50.4 32.1994 50.8 33.8994C51 34.5994 51.1 35.3994 51.4 35.8994C51.4 35.8994 51.4 35.8994 51.5 35.9994C52.6 35.9994 54 34.5994 54.7 33.7994C55.8 32.5994 56.5 31.2994 57 29.6994C57.3 28.5994 57.6 27.3994 58.2 26.2994C58.9 25.1994 60 24.2994 61.2 23.7994C64.5 22.3994 68.2 24.6994 68.6 28.1994C68.9 30.4994 67.6 32.5994 66.1 34.0994C65.6 34.6994 64.8 34.9994 64.3 35.6994C63.8 36.4994 63.7 37.7994 64.1 38.5994C63.9 38.4994 63.6 38.5994 63.5 38.5994C63.4 38.6994 63.4 38.6994 63.5 38.5994C63.7 37.9994 63.8 37.3994 64 36.6994C64.5 34.8994 65.2 33.1994 66.5 31.8994C69.4 29.0994 72.7 29.4994 74.6 33.1994C76.3 36.7994 75.1 41.6994 73.9 45.3994L72.7 44.8994C73.9 42.5994 74.7 40.1994 75 37.5994C75.2 35.6994 75.1 33.6994 75.2 31.6994C75.2 30.2994 75.5 28.6994 76.7 27.6994C77.6 26.8994 78.8 26.5994 80 26.4994C82.4 26.2994 84.9 27.5994 86.1 29.6994C86.7 30.7994 87.5 32.4994 86.8 33.6994L87 34.1994ZM86.1 33.7994C86.7 33.0994 85.9 30.7994 84.3 29.3994C83.9 29.0994 82.4 27.9994 80.3 28.0994C78.8 28.0994 77.2 28.8994 76.8 30.4994C76.5 31.6994 76.6 32.9994 76.6 34.2994C76.6 35.5994 76.6 36.9994 76.5 38.2994C76.2 40.9994 75.4 43.6994 74.1 46.0994C73.9 46.3994 73.5 46.4994 73.2 46.3994C72.9 46.1994 72.8 45.8994 72.9 45.5994C74 42.1994 75.3 36.9994 73.2 33.8994C72.2 32.2994 70.7 31.7994 69 32.7994C67.1 33.7994 66.2 35.7994 65.7 37.7994C65.5 38.4994 65.4 39.2994 65.1 39.9994C65.1 40.0994 65 40.1994 64.7 40.3994C64.4 40.5994 64 40.5994 63.7 40.3994C62.8 39.7994 62.7 38.1994 62.8 37.2994C62.8 36.2994 63.3 35.1994 64.1 34.5994C64.6 34.1994 65 33.9994 65.4 33.5994C66.9 32.0994 68.2 29.6994 67 27.6994C66.3 26.4994 65 25.4994 63.6 25.5994C62.3 25.5994 60.8 26.4994 60.1 27.6994C59.3 29.1994 59.3 30.7994 58.5 32.3994C57.7 34.0994 56.6 35.4994 55.3 36.7994C53.6 38.4994 50.7 39.5994 49.6 36.5994C48.9 34.3994 48.6 32.1994 47.6 30.0994C46.9 28.4994 46.1 26.6994 44.9 25.3994C43.3 24.0994 40.7 23.5994 38.9 24.4994C37.4 25.2994 36.6 26.9994 36.3 28.5994C35.7 31.2994 36.3 34.5994 38.6 36.3994C40.5 37.8994 41.4 40.3994 41.6 42.6994C41.8 44.2994 41.1 45.4994 39.3 45.2994C35 44.6994 28.8 40.6994 25.7 37.6994C24.9 36.9994 24.2 35.9994 23.4 35.3994C22 34.1994 20 33.6994 18.3 34.3994C16.6 35.0994 16.4 37.3994 16.8 38.9994C17 39.8994 17.5 40.7994 18.1 41.4994C19.5 43.0994 21.4 44.1994 23.3 44.9994C25.3 45.8994 27.5 46.5994 29.6 47.0994C30.7 47.3994 31.7 47.5994 32.8 47.6994C33.9 47.6994 35 47.6994 36.2 47.6994C41 47.9994 44.6 51.7994 48.3 54.2994C49.2 54.8994 50.2 55.2994 51.2 55.4994C53 55.8994 55.6 55.5994 55.6 53.1994C55.6 51.5994 54.9 50.0994 53.8 48.9994C52.7 47.6994 51.4 46.5994 50.1 45.5994C48.9 44.4994 47.4 43.3994 46.1 42.3994C44.2 40.9994 42.9 38.8994 42.1 36.6994C41.9 36.0994 41.7 35.5994 41.6 34.9994C41.6 34.7994 41.6 34.5994 41.9 34.4994C42.1 34.4994 42.2 34.4994 42.3 34.6994C43.2 35.9994 44.1 37.2994 45.2 38.4994C46.9 40.3994 49.8 43.4994 52.3 43.6994C53 43.6994 53.7 43.4994 54.3 43.2994C55 43.0994 55.6 42.6994 56.2 42.2994C56.9 41.7994 57.9 42.4994 57.6 43.3994C56.8 45.7994 56.4 48.4994 57.3 50.8994C58.1 52.9994 60.8 54.7994 63 53.4994C64.5 52.5994 64.8 50.9994 64.9 49.2994C64.9 48.7994 65.4 48.3994 65.9 48.3994C66.4 48.3994 66.8 48.8994 66.8 49.3994C66.8 50.8994 67.3 52.3994 68.4 53.4994C70.3 55.4994 73.6 55.5994 76.1 54.4994C78.8 53.3994 81.2 51.3994 82.5 48.7994C83.4 47.1994 83.1 45.7994 82.6 44.0994C82.1 41.5994 80.5 36.6994 82.6 34.7994C82.8 34.5994 83.2 34.4994 84.1 34.2994C85.4 33.8994 85.6 33.9994 85.8 33.7994H86.1Z" fill="black"/>
<path d="M29.8 21.6C27.8 22 25.8 22.9 24.7 24.6C23.3 26.6 24.1 28.5 25.8 30C26 30.2 25.9 30.5 25.8 30.6L24.3 32.1L24.6 31L26 34.9L25.3 34.7C26.6 33.8 33 29.8 34.2 28.9C35.5 27.7 34.8 25.6 32.9 26C32.6 26 32.3 26.2 32 26.4L28.9 28.2C28.9 28.2 28.8 28.2 28.7 28.2C28.1 28 27.6 27.6 27.4 26.9C27 25.9 27.7 24.7 28.8 24.4C29.1 24.4 29.4 24.3 29.7 24.3C30.1 24.3 30.5 24.3 30.9 24C32.3 23.2 31.3 21.6 30 21.5L29.8 21.6Z" fill="black"/>
<path d="M69.9 23.2988C69.4 23.2988 68.9 23.2988 68.4 23.4988C67.9 23.6988 67.6 24.0988 67.5 24.5988C67.1 25.4988 67.6 26.6988 68.3 27.3988C69 28.0988 69.2 27.9988 69.7 28.1988C70.2 28.3988 70.1 28.2988 70.4 28.3988C70.7 28.4988 71 28.3988 71.2 28.3988C71.8 28.3988 72.3 28.0988 72.6 27.4988C72.9 26.8988 72.9 26.3988 72.7 25.8988C72.5 25.3988 72.2 24.7988 71.8 24.3988C71.4 23.9988 70.8 23.6988 70.1 23.4988C69.4 23.2988 69.1 23.6988 69 24.0988C68.9 24.4988 69.1 24.9988 69.6 25.1988C70.1 25.3988 69.8 25.1988 69.9 25.1988C70 25.1988 70.1 25.1988 69.9 25.1988C69.9 25.1988 70.1 25.1988 70.2 25.2988C70.3 25.3988 70.4 25.3988 70.5 25.4988C70.5 25.4988 70.6 25.5988 70.7 25.6988C70.7 25.5988 70.8 25.7988 70.7 25.6988C70.7 25.7988 70.7 25.6988 70.7 25.7988C70.7 25.7988 70.8 25.9988 70.9 26.0988C70.9 25.8988 71 26.1988 70.9 26.0988C70.9 26.2988 70.9 26.0988 70.9 26.1988C70.9 26.1988 70.9 26.2988 70.9 26.3988C70.9 26.4988 70.9 26.3988 70.9 26.4988C70.9 26.1988 70.9 26.3988 70.9 26.4988C70.9 26.4988 70.9 26.5988 70.9 26.6988C70.9 26.4988 71 26.5988 70.9 26.6988C71 26.5988 71 26.5988 70.9 26.6988C70.8 26.7988 71.1 26.6988 70.9 26.6988C71.1 26.6988 71.1 26.6988 70.9 26.6988C70.7 26.6988 70.7 26.6988 70.6 26.6988C70.5 26.6988 70.6 26.6988 70.5 26.6988C70.6 26.6988 70.7 26.6988 70.5 26.6988C70.4 26.6988 70.3 26.6988 70.2 26.6988C70.1 26.6988 70 26.6988 69.9 26.6988C69.7 26.6988 69.6 26.4988 69.4 26.3988C69.2 26.2988 69.5 26.4988 69.4 26.3988C69.4 26.3988 69.3 26.2988 69.2 26.1988C69.2 26.1988 69.2 26.1988 69.2 26.0988C69.2 26.0988 69.2 25.8988 69.1 25.7988C69.1 25.8988 69.2 25.9988 69.1 25.7988C69.1 25.6988 69.1 25.7988 69.1 25.6988C69.1 25.6988 69.1 25.5988 69.1 25.4988C69.1 25.2988 69.1 25.6988 69.1 25.4988C69.1 25.2988 69.1 25.4988 69.1 25.3988C69.1 25.3988 69.1 25.2988 69.1 25.1988C69 25.3988 69.1 25.0988 69.1 25.1988C69.2 24.9988 69.1 25.1988 69.1 25.0988C68.9 25.0988 69.2 25.0988 69.1 25.0988C69.3 25.0988 69.3 25.0988 69.4 25.0988C69.2 25.0988 69.3 25.0988 69.4 25.0988C69.5 25.0988 69.4 25.0988 69.5 25.0988C69.6 25.0988 69.7 25.0988 69.9 25.0988C70.1 25.0988 70.4 24.9988 70.5 24.7988C70.6 24.5988 70.8 24.3988 70.8 24.1988C70.8 23.9988 70.8 23.6988 70.5 23.5988C70.2 23.4988 70.1 23.3988 69.9 23.2988Z" fill="black"/>
<path d="M69.1 15.6992C68.2 15.6992 67.1 15.9992 66.3 16.4992C65.5 16.9992 65.4 17.1992 65.2 17.7992C65 18.3992 65.2 19.0992 65.5 19.5992C66.3 20.7992 67.7 21.1992 69.1 20.9992C70.5 20.7992 70.4 20.7992 70.8 20.4992C71.2 20.1992 71.6 19.4992 71.5 18.7992C71.4 18.0992 71 17.6992 70.6 17.2992C70.2 16.8992 69.4 16.2992 68.7 15.9992C68 15.6992 67.8 15.8992 67.5 16.2992C67.2 16.6992 67.4 17.2992 67.8 17.4992C68.2 17.6992 68.3 17.7992 68.6 17.8992C68.9 17.9992 68.8 17.9992 68.9 18.0992C69 18.1992 69.1 18.2992 68.9 18.0992C68.9 18.0992 69 18.0992 69.1 18.1992C69.3 18.2992 69.4 18.4992 69.6 18.6992V18.7992C69.6 18.7992 69.6 18.9992 69.7 19.0992C69.7 18.8992 69.7 19.1992 69.7 19.0992C69.7 19.0992 69.7 19.0992 69.7 19.1992C69.7 19.0992 69.7 18.9992 69.7 19.0992C69.7 19.1992 69.7 19.0992 69.7 19.1992C69.7 18.9992 69.7 19.2992 69.7 19.1992C69.7 18.9992 69.7 19.0992 69.7 19.1992C69.6 19.2992 69.9 19.0992 69.7 19.1992C69.5 19.2992 69.7 19.1992 69.6 19.1992C69.6 19.1992 69 19.3992 68.9 19.3992C68.8 19.3992 69.1 19.3992 68.9 19.3992C68.7 19.3992 68.8 19.3992 68.7 19.3992C68.6 19.3992 68.5 19.3992 68.4 19.3992C68.3 19.3992 68.2 19.3992 68.1 19.3992C68 19.3992 68 19.3992 67.9 19.3992C67.8 19.3992 67.7 19.3992 67.5 19.3992C67.3 19.3992 67.4 19.3992 67.3 19.3992C67.3 19.3992 67.1 19.2992 67 19.1992C66.8 19.0992 67.1 19.2992 67 19.1992C66.9 19.0992 67 19.1992 66.9 19.0992C66.8 18.9992 66.9 19.0992 66.8 18.9992C66.8 18.9992 66.8 18.8992 66.7 18.7992C66.6 18.6992 66.7 18.5992 66.7 18.7992C66.7 18.5992 66.7 18.9992 66.7 18.7992C66.7 18.6992 66.7 18.9992 66.7 18.7992C66.7 18.5992 66.7 18.7992 66.7 18.6992C66.8 18.4992 66.7 18.4992 66.8 18.4992C66.6 18.6992 66.9 18.4992 66.8 18.4992C66.6 18.5992 66.9 18.4992 66.8 18.4992C67 18.3992 67 18.3992 67.1 18.2992C67.2 18.1992 67.3 18.2992 67.4 18.1992C67.5 18.1992 67.5 18.1992 67.6 18.1992C67.6 18.1992 67.8 18.1992 67.9 18.1992C68.1 18.1992 68.3 18.1992 68.5 18.0992C68.5 18.0992 68.7 18.0992 68.8 18.0992C69.2 18.0992 69.7 17.6992 69.7 17.1992C69.7 16.6992 69.3 16.3992 68.8 16.2992L69.1 15.6992Z" fill="black"/>
<path d="M76.4 23.4992C75.5 23.4992 74.5 23.9992 74 24.7992C73.5 25.5992 74 26.9992 75 27.4992C76 27.9992 76 27.7992 76.5 27.7992C77 27.7992 76.7 27.7992 76.8 27.7992H76.7C76.7 27.7992 76.9 27.7992 77 27.7992C77 27.7992 77 27.7992 77.1 27.7992C77.3 27.7992 77.4 27.7992 77.6 27.7992C78 27.7992 78.4 27.6992 78.8 27.3992C79.2 27.0992 79.5 26.5992 79.5 26.0992C79.5 24.7992 78.1 24.1992 77 23.8992C75.9 23.5992 76.1 23.9992 75.9 24.4992C75.7 24.9992 76 25.3992 76.5 25.5992C77 25.7992 76.8 25.5992 77 25.6992C77.2 25.7992 77.2 25.6992 77.2 25.6992C77.2 25.6992 77.3 25.6992 77.4 25.7992C77.5 25.8992 77.5 25.8992 77.4 25.7992C77.4 25.8992 77.4 25.6992 77.4 25.6992C77.4 25.6992 77.5 25.4992 77.4 25.5992C77.3 25.6992 77.6 25.3992 77.4 25.5992C77.2 25.7992 77.6 25.4992 77.4 25.5992C77.3 25.5992 77.6 25.5992 77.4 25.5992C77.2 25.5992 77.4 25.5992 77.3 25.5992C77.2 25.5992 77.1 25.5992 76.9 25.5992C76.7 25.5992 76.8 25.5992 76.7 25.5992C77.1 25.5992 76.7 25.5992 76.6 25.5992C76.4 25.5992 76.3 25.5992 76.1 25.5992C75.9 25.5992 75.9 25.5992 76.1 25.5992C76.1 25.5992 76.1 25.5992 76 25.5992C76 25.5992 75.8 25.5992 75.7 25.5992C75.6 25.5992 75.6 25.5992 75.5 25.5992C75.3 25.5992 75.4 25.5992 75.5 25.5992C75.5 25.5992 75.4 25.5992 75.3 25.4992C75.1 25.4992 75.4 25.5992 75.3 25.4992C75.2 25.3992 75.3 25.4992 75.2 25.3992C75.2 25.3992 75.2 25.3992 75.2 25.2992C75.2 25.1992 75.2 25.4992 75.2 25.2992C75.2 25.0992 75.2 25.2992 75.2 25.1992C75.2 25.1992 75.2 25.1992 75.2 25.2992C75.2 25.2992 75.2 25.2992 75.2 25.1992C75.2 25.0992 75.2 25.3992 75.2 25.1992C75.2 24.9992 75.2 25.1992 75.2 25.0992C75.2 25.0992 75.2 25.0992 75.3 25.0992C75.3 25.0992 75.4 25.0992 75.5 24.9992C75.3 25.0992 75.4 24.9992 75.5 24.9992C75.6 24.9992 75.5 24.9992 75.7 24.9992C75.9 24.9992 75.8 24.9992 75.9 24.9992C75.7 24.9992 75.7 24.9992 75.9 24.9992C76.1 24.9992 75.9 24.9992 76 24.9992C76.4 24.9992 76.9 24.5992 76.9 24.0992C76.9 23.5992 76.5 23.1992 76 23.1992L76.4 23.4992Z" fill="black"/>
<path d="M32.9 48.6987C31.9 49.3987 31.5 50.6987 31.6 51.8987C31.7 53.0987 32.2 54.5987 33.3 55.1987C34.4 55.7987 36.7 55.1987 37.6 53.7987C38.5 52.3987 38.4 50.9987 37.6 49.7987C36.8 48.5987 34.5 47.5987 33 48.5987C31.5 49.5987 32.4 49.3987 32.7 49.7987C33 50.1987 33.5 50.3987 33.9 50.0987C34.3 49.7987 34 50.0987 34.1 49.9987C33.9 49.9987 34.3 49.8987 34.1 49.9987C34.3 49.9987 34.2 49.9987 34.3 49.9987C34.4 49.9987 34.5 49.9987 34.3 49.9987C34.3 49.9987 34.4 49.9987 34.5 49.9987C34.6 49.9987 34.8 49.9987 34.5 49.9987H34.7C34.8 49.9987 35 49.9987 35.1 50.0987C35.1 50.0987 35.2 50.0987 35.3 50.1987C35.4 50.2987 35.3 50.1987 35.4 50.1987C35.5 50.1987 35.6 50.3987 35.4 50.1987C35.5 50.2987 35.6 50.3987 35.7 50.4987C35.7 50.3987 35.9 50.6987 35.7 50.4987C35.7 50.5987 35.7 50.5987 35.8 50.6987C35.9 50.7987 35.8 50.7987 35.9 50.8987C35.9 51.0987 36 50.9987 35.9 50.8987V51.0987C35.9 51.0987 35.9 51.2987 35.9 51.3987C35.9 51.1987 35.9 51.5987 35.9 51.3987C35.9 51.5987 35.9 51.5987 35.9 51.5987C35.9 51.5987 35.9 51.6987 35.9 51.7987C35.9 51.5987 35.9 51.8987 35.9 51.8987C35.9 51.8987 35.9 51.9987 35.9 52.0987C35.9 52.0987 35.9 52.0987 35.9 52.1987C35.9 52.2987 35.8 52.3987 35.7 52.4987C35.5 52.6987 35.6 52.5987 35.7 52.4987C35.7 52.4987 35.7 52.5987 35.5 52.6987C35.5 52.6987 35.3 52.8987 35.2 52.9987C35 53.1987 35.3 52.9987 35.2 52.9987C35.1 52.9987 35 53.0987 34.9 53.1987C35.1 53.0987 34.8 53.1987 34.8 53.1987C34.8 53.1987 34.7 53.1987 34.6 53.1987C34.3 53.1987 34.5 53.1987 34.6 53.1987C34.5 53.1987 34.4 53.1987 34.2 53.1987C34.2 53.1987 33.9 53.0987 34.1 53.1987C34.1 53.1987 33.9 53.0987 33.8 52.9987C33.8 52.9987 33.8 52.9987 33.7 52.8987C33.5 52.6987 33.6 52.7987 33.7 52.8987C33.7 52.8987 33.7 52.8987 33.7 52.7987C33.7 52.6987 33.5 52.5987 33.5 52.3987C33.4 52.1987 33.5 52.1987 33.5 52.3987C33.5 52.3987 33.5 52.3987 33.5 52.2987C33.5 52.1987 33.5 52.0987 33.4 51.9987C33.3 51.8987 33.4 51.7987 33.4 51.6987C33.4 51.5987 33.4 51.5987 33.4 51.4987C33.4 51.2987 33.4 51.5987 33.4 51.4987C33.4 51.3987 33.4 51.1987 33.4 51.0987C33.4 50.9987 33.4 50.8987 33.4 50.7987C33.4 50.6987 33.4 50.7987 33.4 50.6987C33.4 50.6987 33.4 50.6987 33.4 50.5987V50.2987C33.4 50.2987 33.4 50.1987 33.4 50.0987C33.4 50.0987 33.4 50.0987 33.4 49.9987C33.4 50.0987 33.4 50.0987 33.4 49.9987C33.4 49.9987 33.4 49.9987 33.4 49.8987C33.4 49.7987 33.6 49.5987 33.4 49.8987C33.4 49.8987 33.4 49.7987 33.5 49.7987C33.5 49.7987 33.5 49.7987 33.6 49.7987C34 49.4987 34.2 48.9987 33.9 48.5987C33.6 48.1987 33.1 47.9987 32.7 48.2987L32.9 48.6987Z" fill="black"/>
<path d="M41.1 50.2988C40 50.4988 38.8 51.1988 38.2 52.1988C37.3 53.6988 37.8 55.5988 38.9 56.8988C40 58.1988 40 57.8988 40.7 58.0988C41.4 58.2988 42.4 57.8988 43.1 57.2988C43.8 56.6988 43.9 56.3988 44.2 55.9988C44.5 55.5988 45 54.4988 45 53.6988C45 52.8988 44.4 51.7988 43.5 51.2988C42.6 50.7988 41.4 50.6988 40.3 50.9988C39.2 51.2988 39.6 51.5988 39.7 52.0988C39.8 52.5988 40.3 52.7988 40.8 52.6988C41.3 52.5988 41.4 52.5988 41.7 52.6988C41.7 52.6988 42 52.6988 41.8 52.6988C41.8 52.6988 41.9 52.6988 42 52.6988C42 52.6988 42.2 52.6988 42.3 52.6988C42.4 52.6988 42.6 52.7988 42.5 52.6988C42.6 52.6988 42.7 52.7988 42.9 52.8988C42.9 52.7988 43.1 52.9988 42.9 52.8988C42.9 52.9988 42.9 52.8988 43 52.9988C43.1 53.0988 43.2 53.1988 43 52.9988C43 52.9988 43 53.0988 43.1 53.1988C43.1 53.1988 43.1 53.4988 43.1 53.3988C43.1 53.3988 43.1 53.5988 43.1 53.6988C43.1 53.7988 43.1 53.8988 43.1 53.6988C43.1 53.8988 43.1 53.9988 43 54.1988C42.9 54.3988 43 54.2988 43 54.3988C43 54.4988 42.9 54.6988 42.8 54.7988C42.7 54.8988 42.6 55.0988 42.5 55.2988C42.4 55.4988 42.5 55.3988 42.4 55.4988C42.4 55.4988 42.3 55.5988 42.2 55.6988C42.2 55.7988 42 55.8988 41.9 55.9988C42.1 55.7988 41.8 55.9988 41.8 55.9988C41.8 55.9988 41.7 55.9988 41.6 56.0988C41.6 56.0988 41.5 56.0988 41.4 56.0988C41.6 56.0988 41.3 56.0988 41.3 56.0988C41.3 56.0988 41.2 56.0988 41.1 56.0988C40.9 55.9988 41 56.0988 41.1 56.0988H41C41 56.0988 41 56.0988 40.9 56.0988C40.7 55.8988 40.8 56.0988 40.9 56.0988C40.8 56.0988 40.7 55.8988 40.6 55.7988C40.5 55.6988 40.5 55.6988 40.4 55.5988C40.4 55.4988 40.2 55.2988 40.1 55.1988C40 55.0988 40.1 55.1988 40.1 55.0988C40 54.7988 40.1 54.9988 40.1 55.0988C40.1 54.9988 40 54.7988 39.9 54.5988C39.8 54.3988 39.9 54.3988 39.9 54.3988C39.9 54.1988 39.9 54.5988 39.9 54.3988C39.9 54.1988 39.9 54.0988 39.9 53.9988C39.9 53.6988 39.9 53.8988 39.9 53.9988C39.9 53.9988 39.9 53.8988 39.9 53.7988V53.5988C39.9 53.5988 39.9 53.4988 39.9 53.3988C39.9 53.3988 39.9 53.3988 39.9 53.2988C39.9 53.2988 39.9 53.2988 39.9 53.1988C40 53.0988 40.1 52.9988 40.2 52.8988C40.1 52.8988 40.4 52.6988 40.2 52.8988C40.3 52.8988 40.3 52.8988 40.4 52.7988C40.5 52.7988 40.7 52.6988 40.8 52.5988C40.9 52.4988 41 52.5988 40.8 52.5988C40.8 52.5988 40.9 52.5988 41 52.5988C41.1 52.5988 41.2 52.5988 41.3 52.5988C41.4 52.5988 41.5 52.5988 41.7 52.5988C42.2 52.5988 42.4 51.9988 42.3 51.4988C42.2 50.9988 41.7 50.7988 41.2 50.8988L41.1 50.2988Z" fill="black"/>
<path d="M41.9 64.4995C42 63.5995 41.9 62.5995 41.4 61.7995C40.7 60.4995 39.4 59.3995 38 58.6995C37.7 58.5995 37.4 58.4995 37.1 58.2995C37 58.2995 36.9 58.0995 36.9 57.9995C36.9 57.8995 36.7 57.5995 36.6 57.4995C35.5 56.3995 33.6 55.9995 32.1 56.3995C31.9 56.3995 31.8 56.3995 31.6 56.5995C31.6 57.0995 31.3 57.5995 30.9 58.0995C30.6 58.4995 30.2 58.9995 29.7 59.4995C29.7 59.5995 29.7 59.6995 29.7 59.8995C29.7 60.0995 29.7 60.0995 29.7 60.3995C29.5 61.0995 28.8 61.2995 28.2 61.0995C28.1 61.0995 28 61.0995 27.9 61.0995C25.9 62.4995 23.4 63.4995 21.3 63.2995C18.6 65.6995 16 70.7995 20 72.7995C21.6 73.5995 24 73.4995 25.6 72.7995H25.7C25.8 72.7995 25.9 72.5995 26.1 72.4995C26.8 72.0995 27.8 72.4995 28 73.4995C28 73.7995 28 74.0995 28 74.2995C27.5 77.1995 28 80.5995 30.5 82.4995C32 83.6995 33.6 83.6995 35.2 82.6995C36.4 81.8995 37.3 80.7995 38 79.4995C37.7 76.4995 38.2 73.2995 39.1 70.3995C39 69.8995 38.9 69.3995 38.7 68.9995C38.5 68.5995 38.4 68.1995 38.2 67.9995C37.9 67.5995 38.2 67.0995 38.7 67.0995H38.9C39.6 67.0995 40.1 67.0995 40.5 66.7995C40.9 66.0995 41.3 65.3995 41.7 64.7995L41.9 64.4995ZM34 66.3995C31.5 66.3995 30.1 63.5995 31.7 61.5995C32.8 60.1995 35.2 60.1995 36.3 61.5995C37.9 63.5995 36.3 66.2995 34 66.3995ZM39.1 66.8995C39.1 66.8995 39.1 66.8995 39.2 66.8995C39.2 66.8995 39.1 66.8995 39 66.8995H39.1ZM52.6 76.8995C54.3 74.8995 57 73.6995 59.4 74.1995C59.4 74.1995 59.4 74.0995 59.4 73.9995C59.4 73.5995 59.6 73.1995 59.6 72.7995C59 72.6995 58.4 72.3995 57.8 71.9995C54.5 69.3995 54.9 63.9995 57.6 61.0995L57.8 60.8995C54.3 59.0995 49.8 60.0995 46.7 62.7995C44.8 64.3995 43.2 66.4995 42.1 68.6995C41.6 69.7995 41.2 70.8995 40.8 72.0995C40.1 74.4995 39.8 77.0995 40 79.5995C40.2 82.1995 41 84.6995 42.6 86.7995C44 88.6995 46.6 89.6995 48.9 88.9995C49.3 88.8995 49.7 88.6995 50 88.4995C48.7 84.6995 49.9 79.8995 52.4 76.9995L52.6 76.8995ZM48.5 67.8995C48.7 65.2995 51.9 64.1995 53.5 66.0995C55 67.6995 54 70.8995 51.7 71.0995C49.8 71.3995 48.3 69.7995 48.5 67.8995ZM81.8 77.0995C81.8 77.3995 81.7 77.6995 81.6 77.8995C80.4 82.0995 76.2 85.0995 72.3 86.4995C67.4 87.8995 64.4 86.7995 62.8 84.3995C63.1 83.8995 63.4 83.3995 63.6 82.8995C64.6 80.6995 64.3 77.6995 62.5 75.9995C62.4 75.8995 62.2 75.6995 62.1 75.5995C62 75.4995 61.8 75.2995 61.6 75.1995C61.6 74.9995 61.6 74.8995 61.6 74.6995C61.6 74.1995 61.8 73.7995 61.9 73.2995C61.9 72.9995 62 72.6995 62.1 72.4995C62.1 72.2995 62.3 71.9995 62.3 71.6995C62.3 71.4995 62.3 71.3995 62.2 71.1995C62 70.7995 61.6 70.4995 61.1 70.4995H60.6C60.7 70.4995 60.7 70.4995 60.7 70.4995C60.3 70.4995 59.7 70.2995 59.4 69.9995C57.4 68.1995 57.8 63.9995 60 62.3995C60.3 62.1995 60.7 61.9995 61 61.8995C61.3 61.7995 61.8 61.6995 62.2 61.6995C62.3 61.6995 62.4 61.6995 62.5 61.6995C63.2 61.6995 63.9 61.4995 64.6 61.2995C65.9 60.8995 67.1 60.2995 68.3 59.4995C69.1 58.9995 70 58.4995 70.9 58.0995C71.6 57.7995 72.5 57.5995 73.2 57.6995C73.9 57.8995 74.4 58.2995 74.7 58.8995C73.4 59.7995 72.8 61.5995 72.7 62.9995C72.7 63.8995 72.7 64.7995 72.7 65.5995C71.7 66.0995 69.7 67.4995 67.5 66.9995C66.7 66.7995 66.1 66.4995 65.7 66.1995C65.7 67.2995 65.7 68.4995 65.8 69.5995C66.1 69.3995 66.5 69.0995 67 68.8995C69.6 67.5995 71.5 67.7995 72.8 66.3995C72.9 67.4995 73.2 68.5995 73.6 69.6995C73.6 69.6995 73.6 69.7995 73.6 69.8995C73.4 70.2995 73.1 70.7995 72.6 71.2995C72.1 71.8995 71.7 72.0995 70.9 72.5995C69.7 73.3995 68.6 73.8995 67.9 74.1995C67.4 74.3995 66.9 74.5995 66.6 74.6995L68.4 77.2995C68.7 76.3995 69 75.6995 69.3 75.2995C70 74.0995 70.8 73.3995 72.3 71.8995C72.8 71.4995 72.9 71.2995 73.1 71.2995C73.4 71.0995 73.5 71.0995 73.6 70.9995C73.6 70.9995 73.6 70.8995 73.6 70.7995C73.6 70.7995 73.8 70.7995 73.9 70.7995C74.2 71.5995 74.6 72.2995 75 73.0995C76.2 75.2995 78.8 78.1995 81.6 77.0995H81.8ZM61 77.4995C61 77.4995 60.8 77.2995 60.7 77.2995C60.6 77.1995 60.4 77.0995 60.3 76.9995C60.3 76.9995 60.2 76.9995 60.1 76.8995C59.9 76.7995 59.6 76.6995 59.4 76.5995H59.2C58.3 76.3995 57.3 76.4995 56.4 76.7995C55.3 77.2995 54.4 77.9995 53.7 78.8995C53.5 79.0995 53.4 79.2995 53.2 79.5995C52.6 80.4995 52.2 81.4995 51.9 82.4995C51.5 83.7995 51.3 85.6995 51.6 87.2995C51.6 87.5995 51.7 87.7995 51.8 88.0995C51.8 88.2995 52 88.5995 52.1 88.7995C52.5 89.6995 53.1 90.3995 54.1 90.7995C56.2 91.5995 58.1 89.3995 57.9 87.2995C57.9 86.9995 57.9 86.6995 57.7 86.3995C57.5 85.9995 57.7 85.4995 58.1 85.5995C59.1 85.5995 59.9 85.2995 60.6 84.6995C60.9 84.4995 61.1 84.1995 61.3 83.8995C61.6 83.4995 61.8 83.0995 61.9 82.6995C62.5 81.0995 62.5 79.0995 61.3 77.7995C61.2 77.6995 61.1 77.5995 60.9 77.3995L61 77.4995ZM60.5 81.3995C60.5 81.9995 60.2 82.5995 59.9 83.0995C59.5 83.6995 58.8 84.0995 58 84.1995C56.3 84.3995 54.8 82.6995 55 81.0995C55 80.6995 55.1 80.2995 55.3 79.9995C55.4 79.7995 55.6 79.5995 55.7 79.3995C56.3 78.6995 57.2 78.3995 58.1 78.4995C58.4 78.4995 58.7 78.5995 58.9 78.6995H59C59.2 78.7995 59.5 78.9995 59.7 79.1995C59.9 79.3995 60.1 79.6995 60.2 79.9995C60.4 80.3995 60.4 80.8995 60.4 81.2995L60.5 81.3995ZM88.2 62.7995C88.9 64.9995 89.9 68.0995 88.4 69.9995C86.8 71.3995 84.3 69.2995 83.2 67.9995C82.9 67.5995 82.5 67.2995 81.9 67.3995C81.9 67.1995 81 67.7995 80.9 68.1995C80.9 68.4995 80.9 68.4995 80.9 68.5995C80.9 68.6995 80.9 68.8995 80.9 68.9995V69.1995C81.1 69.6995 81.1 70.2995 81.2 70.7995C81.2 71.0995 81.2 71.2995 81.2 71.5995C81.2 71.8995 81.2 72.1995 81.2 72.5995C81.2 72.8995 81.2 73.2995 81.1 73.5995C81.1 73.7995 81 74.0995 80.9 74.2995C80.9 74.3995 80.8 74.4995 80.6 74.5995C79.5 74.8995 78.1 72.5995 77.6 71.6995C77.4 71.3995 77.3 71.0995 77.1 70.6995C77.1 70.4995 76.9 70.3995 76.9 70.1995C76.9 69.9995 76.7 69.7995 76.7 69.6995C76.1 68.2995 75.5 66.5995 75.3 64.9995C75.3 64.6995 75.3 64.3995 75.2 64.0995C75.2 62.8995 75.2 61.7995 75.7 60.8995C75.8 60.6995 76 60.4995 76.1 60.3995C76.2 60.2995 76.4 60.1995 76.5 60.1995C76.7 60.1995 76.8 60.1995 77 60.1995C77.2 60.1995 77.4 60.1995 77.6 60.2995C78.5 60.5995 79.3 61.2995 80.1 61.8995C80.4 62.2995 81 61.9995 80.9 61.4995C80.9 61.4995 80.9 61.2995 80.9 61.1995C80.9 60.5995 80.7 59.6995 80.7 59.1995C80.7 58.1995 80.9 56.6995 81.9 56.2995C82 56.8995 82.3 57.4995 82.7 57.7995C83.3 58.3995 84.1 58.5995 85 58.3995C84.9 59.1995 85 59.8995 85.4 60.3995C85.9 61.0995 86.7 61.1995 87.4 61.1995C87.7 61.6995 87.9 62.2995 88.1 62.7995H88.2ZM91.2 55.7995C91.2 56.0995 91.1 56.3995 91 56.6995C90.8 57.3995 90.7 58.1995 90.4 58.5995C90.1 59.4995 89.6 59.9995 88.9 60.1995C88.7 60.1995 88.5 60.1995 88.3 60.1995C88.3 60.1995 88.1 60.1995 88 60.1995C87.7 60.1995 87.4 60.1995 87.1 60.1995C86.8 60.1995 86.5 59.9995 86.4 59.7995C86.2 59.4995 86.1 58.9995 86.2 58.5995C86.2 58.4995 86.2 58.3995 86.2 58.2995C86.2 58.0995 86.4 57.6995 86.2 57.4995C86.1 57.3995 85.9 57.2995 85.8 57.2995C85.7 57.2995 85.5 57.2995 85.4 57.2995C84.7 57.4995 84.2 57.3995 83.8 56.9995C83.5 56.7995 83.4 56.3995 83.3 55.9995C83.3 55.7995 83.3 55.5995 83.3 55.2995C83.3 55.0995 83.3 54.8995 83.3 54.5995C83.3 54.3995 83.3 54.0995 83.5 53.8995C83.9 52.4995 84.9 51.0995 86 50.3995C86.5 50.0995 86.9 50.0995 87.3 50.2995C87.6 50.4995 87.8 50.7995 87.8 51.2995C87.8 51.2995 87.8 51.4995 87.8 51.6995C87.8 51.9995 87.8 52.2995 88 52.4995C88.2 52.6995 88.5 52.4995 88.5 52.4995C88.5 52.4995 88.7 52.3995 88.7 52.2995C88.9 52.1995 89.2 51.9995 89.4 51.9995C90.4 51.6995 91.1 51.7995 91.5 52.1995C92 52.7995 92.1 53.9995 91.6 55.5995L91.2 55.7995Z" fill="url(#paint2_linear_34_27761)"/>
<path d="M91.8 51.7984C91.2 51.0984 90.1 50.9984 88.8 51.2984C88.6 51.2984 88.4 51.3984 88.2 51.4984C88.2 51.4984 88.2 51.4984 88.2 51.3984C88.2 50.5984 87.9 49.8984 87.2 49.5984C86.6 49.1984 85.7 49.2984 85 49.7984C83.7 50.5984 82.6 52.0984 82.1 53.7984C82 54.1984 81.9 54.4984 81.9 54.8984C81.7 54.8984 81.4 55.0984 81.2 55.1984C79.8 56.1984 79.6 58.0984 79.8 59.6984C78.9 58.8984 77.9 58.1984 76.7 58.1984C76.2 56.9984 75.3 56.0984 73.9 55.5984C72.4 55.1984 70.9 55.5984 69.5 56.1984C68.5 56.5984 67.5 57.0984 66.6 57.6984C65.3 58.3984 63.9 58.9984 62.4 59.0984C61.6 59.0984 60.9 59.2984 60.2 59.4984C57 56.9984 52.6 56.5984 48.9 58.2984C46.5 59.3984 44.5 61.0984 42.9 63.1984C42.9 62.5984 42.6 61.8984 42.3 61.3984C41.4 59.6984 39.8 58.3984 38.1 57.6984C38.1 57.6984 37.9 57.6984 37.8 57.6984C36.8 55.4984 28.5 52.5984 26.2 53.1984C25.7 52.2984 19.1 48.8984 19 49.1984C18 49.6984 17.1 50.2984 16.3 50.9984C14.9 52.1984 13.6 54.4984 14.7 56.2984C15.7 57.7984 17.6 57.9984 19.3 57.7984C18.3 59.1984 17.8 60.8984 19.1 62.1984C16.4 64.6984 14.8 68.2984 15.7 71.5984C16.7 74.5984 20.1 76.0984 23 75.8984C23.7 75.8984 24.5 75.7984 25.2 75.5984C25.2 77.1984 25.4 78.7984 25.9 80.1984C26.8 82.5984 28.7 84.6984 31.3 85.3984C33.9 86.0984 36.7 84.5984 38.3 82.6984C38.3 82.5984 38.5 82.4984 38.5 82.3984C38.7 82.9984 38.8 83.5984 39.1 84.1984C39.9 86.1984 41.1 88.1984 42.9 89.3984C44.8 90.6984 47.3 91.1984 49.4 90.3984C49.8 90.1984 50.3 89.9984 50.6 89.7984C50.8 90.0984 51 90.4984 51.3 90.7984C52.2 91.8984 53.8 92.5984 55.3 92.2984C57.1 91.8984 58.5 90.1984 58.7 88.3984C58.7 87.7984 58.7 87.1984 58.7 86.6984C59.6 86.6984 60.5 86.3984 61.2 85.7984C63.4 88.5984 67.1 89.7984 72.6 88.0984C77 86.3984 81.5 82.9984 82.7 78.2984C82.9 77.4984 83 76.7984 82.9 75.9984C83.7 74.7984 83.8 73.1984 83.7 71.6984C87.7 74.0984 91.5 71.8984 90.9 66.4984C90.6 64.5984 90 62.7984 89.2 61.0984C90 60.7984 90.7 60.1984 91.1 59.0984C91.4 58.4984 91.6 57.6984 91.7 56.8984C91.7 56.5984 91.8 56.2984 91.9 55.9984C92.2 54.8984 92.6 52.7984 91.6 51.6984L91.8 51.7984ZM15.5 55.6984C14.7 54.3984 16.4 52.8984 17.3 51.9984C17.9 51.4984 18.6 50.9984 19.4 50.6984C19.5 50.6984 19.7 50.6984 19.8 50.6984C20.2 50.6984 25.6 53.1984 25.6 53.1984C25.6 53.1984 25.6 53.1984 25.5 53.1984C25 53.1984 24.2 53.1984 24.1 53.4984C24.1 53.5984 24.1 53.6984 24.6 54.4984C25 55.1984 25 55.2984 25.1 55.2984C25.4 55.2984 25.7 54.9984 26 54.5984C26.2 54.5984 26.3 54.5984 26.5 54.5984C27.2 54.3984 27.9 54.2984 28.6 54.2984C29.5 54.2984 30.3 54.7984 30.6 55.2984C30.8 55.4984 30.9 55.7984 30.9 56.0984C30.9 56.4984 30.8 57.0984 30.4 57.5984C30 58.1984 29.5 58.6984 29 59.1984C28.7 59.3984 28.5 59.5984 28.2 59.7984C27.8 60.0984 27.4 60.2984 27 60.4984C26.8 60.4984 26.6 60.6984 26.4 60.7984C25.7 61.0984 24.8 61.3984 23.9 61.5984C23.1 61.6984 22.4 61.7984 21.7 61.5984C21.3 61.5984 20.9 61.2984 20.6 60.9984C20.5 60.8984 20.4 60.7984 20.3 60.5984C19.7 59.3984 20.9 57.9984 21.7 57.0984C22.2 57.0984 22.9 57.0984 23 56.7984C23 56.6984 23 56.5984 22.5 55.7984C22.1 55.0984 22.1 54.9984 22 54.9984C21.6 54.9984 21.1 55.6984 20.8 56.0984C20.7 56.0984 20.5 56.0984 20.4 56.1984C18.9 56.5984 16.8 56.6984 15.8 55.3984L15.5 55.6984ZM39 66.8984C39 66.8984 38.9 66.8984 38.8 66.8984C38.4 66.8984 38 67.3984 38.3 67.7984C38.5 67.9984 38.6 68.3984 38.8 68.7984C38.9 69.2984 39.1 69.6984 39.2 70.1984C38.2 73.0984 37.8 76.2984 38.1 79.2984C37.4 80.5984 36.5 81.7984 35.3 82.4984C33.7 83.4984 32.1 83.4984 30.6 82.2984C28.2 80.3984 27.7 76.9984 28.1 74.0984C28.1 73.8984 28.2 73.5984 28.1 73.2984C27.9 72.3984 26.9 71.9984 26.2 72.2984C26 72.2984 25.9 72.4984 25.8 72.5984C25.8 72.5984 25.8 72.5984 25.7 72.5984C24.1 73.3984 21.7 73.4984 20.1 72.5984C16.1 70.5984 18.7 65.4984 21.4 63.0984C23.5 63.3984 26 62.2984 28 60.8984C28.1 60.8984 28.2 60.8984 28.3 60.8984C28.9 61.1984 29.7 60.8984 29.8 60.1984C29.8 59.8984 29.8 59.8984 29.8 59.6984C29.8 59.5984 29.8 59.4984 29.8 59.2984C30.3 58.7984 30.7 58.3984 31 57.8984C31.4 57.3984 31.6 56.8984 31.7 56.3984C31.9 56.3984 32 56.2984 32.2 56.1984C33.7 55.7984 35.5 56.1984 36.7 57.2984C36.8 57.2984 36.9 57.6984 37 57.7984C37 57.8984 37 57.9984 37.2 58.0984C37.5 58.2984 37.8 58.2984 38.1 58.4984C39.5 59.1984 40.8 60.2984 41.5 61.5984C42 62.3984 42.1 63.3984 42 64.2984C41.6 64.8984 41.2 65.5984 40.8 66.2984C40.4 66.5984 39.8 66.6984 39.2 66.5984L39 66.8984ZM39.2 66.8984C39.2 66.8984 39.1 66.8984 39 66.8984C39 66.8984 39 66.8984 39.1 66.8984H39.2ZM39.9 68.1984C39.9 68.0984 39.8 67.9984 39.7 67.8984C39.8 67.8984 39.9 67.8984 40 67.8984C40 67.9984 39.9 68.1984 39.8 68.2984L39.9 68.1984ZM50.2 88.3984C49.8 88.5984 49.5 88.7984 49.1 88.8984C46.8 89.6984 44.3 88.5984 42.8 86.6984C41.2 84.5984 40.4 82.0984 40.2 79.4984C40 76.9984 40.3 74.3984 41 71.9984C41.3 70.7984 41.8 69.5984 42.3 68.5984C43.4 66.2984 44.9 64.2984 46.9 62.6984C50 60.0984 54.4 58.9984 58 60.7984L57.8 60.9984C55.1 63.8984 54.8 69.2984 58 71.8984C58.6 72.2984 59.1 72.5984 59.8 72.6984C59.8 73.0984 59.6 73.4984 59.6 73.8984C59.6 73.8984 59.6 73.9984 59.6 74.0984C57.2 73.5984 54.5 74.7984 52.8 76.7984C50.2 79.6984 49 84.4984 50.4 88.2984L50.2 88.3984ZM62 82.6984C61.8 83.0984 61.6 83.4984 61.4 83.8984C61.2 84.1984 61 84.4984 60.7 84.6984C60 85.2984 59.2 85.6984 58.2 85.5984C57.7 85.5984 57.5 86.0984 57.8 86.3984C57.8 86.6984 58 86.9984 58 87.2984C58.2 89.2984 56.3 91.5984 54.2 90.7984C53.3 90.3984 52.7 89.6984 52.2 88.7984C52.1 88.5984 52 88.2984 51.9 88.0984C51.9 87.7984 51.8 87.5984 51.7 87.2984C51.4 85.6984 51.6 83.7984 52 82.4984C52.3 81.4984 52.7 80.4984 53.3 79.5984C53.5 79.3984 53.6 79.0984 53.8 78.8984C54.5 77.9984 55.4 77.1984 56.5 76.7984C57.4 76.3984 58.4 76.2984 59.3 76.5984H59.5C59.7 76.5984 60 76.7984 60.2 76.8984C60.2 76.8984 60.3 76.8984 60.4 76.9984C60.5 76.9984 60.7 77.1984 60.8 77.2984C60.8 77.2984 61 77.4984 61.1 77.4984C61.2 77.5984 61.3 77.6984 61.5 77.8984C62.7 79.1984 62.7 81.0984 62.1 82.7984L62 82.6984ZM81.6 77.8984C80.4 82.0984 76.2 85.0984 72.3 86.4984C67.4 87.8984 64.4 86.7984 62.8 84.3984C63.1 83.8984 63.4 83.3984 63.6 82.8984C64.6 80.6984 64.3 77.6984 62.5 75.9984C62.4 75.8984 62.2 75.6984 62.1 75.5984C62 75.4984 61.8 75.2984 61.6 75.1984C61.6 74.9984 61.6 74.8984 61.6 74.6984C61.6 74.1984 61.8 73.7984 61.9 73.2984C61.9 72.9984 62 72.6984 62.1 72.4984C62.1 72.2984 62.3 71.9984 62.3 71.6984C62.3 71.4984 62.3 71.3984 62.2 71.1984C62 70.7984 61.6 70.4984 61.1 70.4984H60.6C60.7 70.4984 60.7 70.4984 60.7 70.4984C60.3 70.4984 59.7 70.2984 59.4 69.9984C57.4 68.1984 57.8 63.9984 60 62.3984C60.3 62.1984 60.7 61.9984 61 61.8984C61.3 61.7984 61.8 61.6984 62.2 61.6984C62.3 61.6984 62.4 61.6984 62.5 61.6984C63.2 61.6984 63.9 61.4984 64.6 61.2984C65.9 60.8984 67.1 60.2984 68.3 59.4984C69.1 58.9984 70 58.4984 70.9 58.0984C71.6 57.7984 72.5 57.5984 73.2 57.6984C73.9 57.8984 74.4 58.2984 74.7 58.8984C73.4 59.7984 72.8 61.5984 72.7 62.9984C72.7 63.8984 72.7 64.7984 72.7 65.5984C71.7 66.0984 69.7 67.4984 67.5 66.9984C66.7 66.7984 66.1 66.4984 65.7 66.1984C65.7 67.2984 65.7 68.4984 65.8 69.5984C66.1 69.3984 66.5 69.0984 67 68.8984C69.6 67.5984 71.5 67.7984 72.8 66.3984C72.9 67.4984 73.2 68.5984 73.6 69.6984C73.6 69.6984 73.6 69.7984 73.6 69.8984C73.4 70.2984 73.1 70.7984 72.6 71.2984C72.1 71.8984 71.7 72.0984 70.9 72.5984C69.7 73.3984 68.6 73.8984 67.9 74.1984C67.4 74.3984 66.9 74.5984 66.6 74.6984L68.4 77.2984C68.7 76.3984 69 75.6984 69.3 75.2984C70 74.0984 70.8 73.3984 72.3 71.8984C72.8 71.4984 72.9 71.2984 73.1 71.2984C73.4 71.0984 73.5 71.0984 73.6 70.9984C73.6 70.9984 73.6 70.8984 73.6 70.7984C73.6 70.7984 73.8 70.7984 73.9 70.7984C74.2 71.5984 74.6 72.2984 75 73.0984C76.2 75.2984 78.8 78.1984 81.6 77.0984C81.6 77.3984 81.5 77.6984 81.4 77.8984H81.6ZM88.4 69.8984C86.8 71.2984 84.3 69.1984 83.2 67.8984C82.9 67.4984 82.5 67.1984 81.9 67.2984C81.9 67.0984 81 67.6984 80.9 68.0984C80.9 68.3984 80.9 68.3984 80.9 68.4984C80.9 68.5984 80.9 68.7984 80.9 68.8984V69.0984C81.1 69.5984 81.1 70.1984 81.2 70.6984C81.2 70.9984 81.2 71.1984 81.2 71.4984C81.2 71.7984 81.2 72.0984 81.2 72.4984C81.2 72.7984 81.2 73.1984 81.1 73.4984C81.1 73.6984 81 73.9984 80.9 74.1984C80.9 74.2984 80.8 74.3984 80.6 74.4984C79.5 74.7984 78.1 72.4984 77.6 71.5984C77.4 71.2984 77.3 70.9984 77.1 70.5984C77.1 70.3984 76.9 70.2984 76.9 70.0984C76.9 69.8984 76.7 69.6984 76.7 69.5984C76.1 68.1984 75.5 66.4984 75.3 64.8984C75.3 64.5984 75.3 64.2984 75.2 63.9984C75.2 62.7984 75.2 61.6984 75.7 60.7984C75.8 60.5984 76 60.3984 76.1 60.2984C76.2 60.1984 76.4 60.0984 76.5 60.0984C76.7 60.0984 76.8 60.0984 77 60.0984C77.2 60.0984 77.4 60.0984 77.6 60.1984C78.5 60.4984 79.3 61.1984 80.1 61.7984C80.4 62.1984 81 61.8984 80.9 61.3984C80.9 61.3984 80.9 61.1984 80.9 61.0984C80.9 60.4984 80.7 59.5984 80.7 59.0984C80.7 58.0984 80.9 56.5984 81.9 56.1984C82 56.7984 82.3 57.3984 82.7 57.6984C83.3 58.2984 84.1 58.4984 85 58.2984C84.9 59.0984 85 59.7984 85.4 60.2984C85.9 60.9984 86.7 61.0984 87.4 61.0984C87.7 61.5984 87.9 62.1984 88.1 62.6984C88.8 64.8984 89.8 67.9984 88.3 69.8984H88.4ZM91.2 55.7984C91.2 56.0984 91.1 56.3984 91 56.6984C90.8 57.3984 90.7 58.1984 90.4 58.5984C90.1 59.4984 89.6 59.9984 88.9 60.1984C88.7 60.1984 88.5 60.1984 88.3 60.1984C88.3 60.1984 88.1 60.1984 88 60.1984C87.7 60.1984 87.4 60.1984 87.1 60.1984C86.8 60.1984 86.5 59.9984 86.4 59.7984C86.2 59.4984 86.1 58.9984 86.2 58.5984C86.2 58.5984 86.2 58.3984 86.2 58.2984C86.2 57.9984 86.5 57.2984 87.2 56.7984C87.7 56.3984 88.2 56.2984 88.5 56.2984C88.2 56.2984 87.7 56.2984 87.2 56.2984C86.2 56.4984 85.5 56.9984 85.2 57.2984C84.5 57.4984 84 57.3984 83.6 56.9984C83.3 56.7984 83.2 56.3984 83.1 55.9984C83.1 55.7984 83.1 55.5984 83.1 55.2984C83.1 55.0984 83.1 54.8984 83.1 54.5984C83.1 54.3984 83.1 54.0984 83.3 53.8984C83.7 52.4984 84.7 51.0984 85.8 50.3984C86.3 50.0984 86.7 50.0984 87.1 50.2984C87.4 50.4984 87.6 50.7984 87.6 51.2984C87.6 51.2984 87.6 51.4984 87.6 51.6984C87.6 51.6984 87.6 51.7984 87.6 51.8984C87.5 52.3984 87.3 52.9984 87.4 53.3984C87.4 53.7984 87.6 54.0984 87.7 54.2984C87.7 53.9984 87.9 53.4984 88.3 52.8984C88.7 52.4984 89.1 52.1984 89.3 52.0984C89.3 52.0984 89.3 52.0984 89.4 52.0984C90.4 51.7984 91.1 51.8984 91.5 52.2984C92 52.8984 92.1 54.0984 91.6 55.6984L91.2 55.7984ZM59.8 79.2984C59.6 79.0984 59.4 78.8984 59.1 78.7984C59.1 78.7984 59.1 78.7984 59 78.7984C58.7 78.6984 58.4 78.5984 58.2 78.5984C57.3 78.5984 56.4 78.7984 55.8 79.4984C55.6 79.6984 55.5 79.8984 55.4 80.0984C55.2 80.3984 55.1 80.7984 55.1 81.1984C54.9 82.7984 56.4 84.4984 58.1 84.2984C58.9 84.2984 59.6 83.7984 60 83.1984C60.4 82.6984 60.6 82.0984 60.6 81.4984C60.6 80.9984 60.6 80.5984 60.4 80.1984C60.3 79.8984 60.1 79.5984 59.9 79.3984L59.8 79.2984ZM58 81.9984C57.8 81.8984 57.6 81.7984 57.4 81.6984C57 81.3984 56.8 80.6984 57.2 80.1984C57.7 79.3984 58.8 79.5984 59.3 80.1984C59.3 80.5984 59.4 80.9984 59.5 81.3984C59.3 81.9984 58.6 82.1984 58.1 81.9984H58ZM31.7 61.5984C30.1 63.5984 31.5 66.2984 34 66.3984C36.4 66.2984 38 63.5984 36.3 61.5984C35.2 60.1984 32.8 60.2984 31.7 61.5984ZM35.1 64.3984C35.1 64.9984 34.5 65.4984 33.9 65.3984C33.5 65.3984 33.1 65.1984 32.9 64.8984C32.4 64.0984 33 63.0984 33.9 63.1984C34.5 63.1984 35.1 63.6984 35.1 64.3984ZM53.5 66.0984C51.8 64.1984 48.6 65.3984 48.5 67.8984C48.4 69.6984 49.8 71.2984 51.7 71.0984C54 70.8984 55 67.7984 53.5 66.0984ZM51.7 68.7984C51.5 68.7984 51.4 68.4984 51.2 68.3984C51 68.2984 50.9 68.0984 50.9 67.8984C50.6 66.8984 52 66.1984 52.8 66.8984C53.8 67.7984 53.1 69.2984 51.8 68.7984H51.7Z" fill="black"/>
<path d="M29.7 19.4984C32 19.4984 34.1 21.8984 33 24.0984C32.3 25.4984 30.8 25.9984 29.4 25.7984C28 25.4984 27.7 27.1984 28.8 27.8984H28.6L31.7 25.9984C32.1 25.5984 33.2 25.1984 33.9 25.4984C35.7 25.8984 35.9 28.2984 34.6 29.3984C33.4 30.2984 27.1 34.4984 25.8 35.4984C25.6 35.6984 25.2 35.4984 25.1 35.2984L23.1 31.6984V31.2984C23.1 30.9984 23.2 30.6984 23.5 30.5984L25.5 29.7984V30.3984C21.5 28.1984 22 23.7984 25.4 21.2984C26.7 20.2984 28.3 19.6984 30 19.3984L29.7 19.4984Z" fill="black"/>
<path d="M29.8 20.5996C25.6 21.2996 23 24.2996 23.2 26.8996C23.4 28.6996 24.9 29.8996 25.5 30.2996C24.9 30.6996 24.4 31.0996 23.8 31.3996L25.5 35.0996L34 29.3996C35.2 28.5996 35.3 27.0996 34.6 26.2996C34 25.5996 32.7 25.4996 31.8 26.2996C30.8 26.8996 29.7 27.4996 28.7 28.1996C27.8 27.7996 27.5 26.7996 27.8 26.0996C28.1 25.4996 28.8 25.0996 29.5 25.1996C30.9 25.3996 32.1 24.4996 32.3 23.4996C32.6 22.2996 31.5 20.6996 29.7 20.6996L29.8 20.5996Z" fill="url(#paint3_linear_34_27761)"/>
<path d="M19.8 66.3984C19.3 66.3984 18.7 66.3984 18.3 66.1984C17.4 65.9984 16.6 65.4984 16 64.7984C15.8 64.4984 15.6 64.1984 15.4 63.7984V63.6984C14.7 61.8984 15.4 60.1984 16.2 58.7984C14 59.0984 11.7 58.5984 10.5 56.5984V56.3984C10.1 55.4984 9.9 53.9984 11.2 52.0984C11.9 51.0984 12.7 50.2984 13.4 49.6984H13.5C14 49.1984 14.5 48.8984 15 48.4984C15.2 47.0984 16.4 45.8984 17.8 45.8984C19.2 45.8984 19.1 46.1984 19.6 46.5984C20.2 46.4984 20.8 46.3984 21.5 46.3984C22.5 46.3984 23.3 46.3984 24 46.6984C25.1 47.0984 26 47.6984 26.5 48.5984V48.7984C26.9 49.6984 26.9 50.6984 26.5 51.6984C26.5 51.8984 26.3 52.0984 26.2 52.1984C26.6 52.1984 27.1 52.1984 27.5 52.1984C29.1 52.3984 30.4 53.0984 31.2 54.1984C31.6 54.6984 31.8 55.2984 31.9 55.9984C32 56.9984 31.9 58.0984 31.3 59.0984C31.1 59.4984 30.9 59.8984 30.6 60.2984C30.6 60.4984 30.6 60.5984 30.6 60.7984C30.6 61.6984 30.4 62.5984 29.8 63.1984C29.3 63.7984 28.5 64.0984 27.8 64.0984C27.1 64.0984 27 64.0984 26.7 63.7984C26.6 63.7984 26.5 63.8984 26.4 63.9984C26.1 64.1984 25.9 64.2984 25.6 64.4984C24.8 64.8984 23.5 65.4984 22 65.7984C21.3 65.9984 20.6 66.0984 19.9 66.0984L19.8 66.3984ZM18.4 62.3984C18.4 62.3984 18.4 62.4984 18.5 62.5984C18.6 62.7984 18.8 62.8984 19.1 62.8984C19.6 62.9984 20.3 62.9984 21.2 62.8984C22.1 62.6984 23.1 62.2984 24 61.7984C24.2 61.6984 24.5 61.5984 24.7 61.3984C25 61.1984 25.4 60.9984 25.8 60.6984L26.8 59.9984L27.5 59.1984C27.9 58.6984 28.2 58.2984 28.4 57.7984C28.6 57.3984 28.7 56.9984 28.7 56.7984C28.7 56.7984 28.7 56.6984 28.6 56.4984C28.4 56.2984 28 55.9984 27.3 55.8984C26.7 55.8984 26.1 55.8984 25.5 56.1984C25.5 56.1984 25.3 56.3984 25.2 56.4984C24.4 57.2984 23.5 57.1984 23.1 57.0984C22.3 56.8984 22 56.2984 21.6 55.5984C21.6 55.4984 21.5 55.3984 21.4 55.1984C21.3 54.9984 21.2 54.7984 21.1 54.6984C20.9 54.3984 20.8 54.1984 20.8 53.9984C20.6 53.4984 20.6 52.9984 20.8 52.4984C21 51.9984 21.4 51.1984 22.8 51.0984C23 51.0984 23.2 51.0984 23.4 51.0984C23.6 50.8984 23.7 50.6984 23.7 50.5984C23.4 50.3984 22.8 50.0984 21.6 50.1984C20.9 50.1984 20.1 50.3984 19.4 50.5984L18.5 50.8984L17.6 51.3984C16.9 51.7984 16.3 52.1984 15.7 52.6984C15.2 53.1984 14.5 53.7984 14 54.4984C13.8 54.7984 13.6 55.0984 13.6 55.2984C13.7 55.4984 14 55.6984 14.7 55.7984C15.3 55.7984 16.1 55.7984 16.9 55.4984C17.5 54.5984 18.5 53.3984 19.8 53.7984C20.6 53.9984 20.9 54.6984 21.3 55.3984C21.3 55.4984 21.4 55.5984 21.5 55.7984C21.6 55.9984 21.7 56.1984 21.8 56.3984C22.2 57.1984 22.5 57.7984 22.2 58.5984C22 59.0984 21.6 59.7984 20.3 60.0984C20.2 60.0984 20 60.0984 19.8 60.0984C18.5 61.7984 18.5 62.4984 18.6 62.6984L18.4 62.3984Z" fill="black"/>
<path d="M11.9 55.6992C11.2 53.9992 13.2 52.0992 14.4 50.9992C15.1 50.3992 15.8 49.8992 16.6 49.4992C16.6 49.2992 16.4 49.0992 16.5 48.8992C16.5 48.2992 17.1 47.6992 17.7 47.6992C18.3 47.6992 18.7 48.0992 18.8 48.5992C19.7 48.2992 20.5 48.1992 21.4 48.1992C22.7 48.1992 24.3 48.3992 25 49.5992C25.4 50.6992 24.8 51.5992 24 52.4992C24 52.4992 24 52.4992 23.9 52.4992C23.3 52.4992 22.4 52.4992 22.3 52.7992C22.3 52.9992 22.3 53.0992 22.9 54.0992C23.3 54.9992 23.4 55.0992 23.5 55.1992C23.8 55.1992 24.2 54.7992 24.5 54.2992C24.7 54.2992 24.9 54.2992 25.1 54.2992C25.9 54.0992 26.7 53.8992 27.5 53.9992C28.6 54.0992 29.5 54.5992 30 55.2992C30.2 55.5992 30.4 55.8992 30.4 56.2992C30.4 56.8992 30.4 57.5992 30 58.3992C29.7 58.9992 29.3 59.5992 28.8 60.1992C29 60.4992 29.1 60.7992 29.1 61.0992C29.1 61.8992 28.6 62.5992 27.9 62.5992C27.2 62.5992 27.1 62.2992 26.8 61.9992C26.4 62.2992 26 62.5992 25.6 62.7992C25.4 62.8992 25.1 63.0992 24.8 63.1992C23.9 63.6992 22.8 64.0992 21.6 64.3992C20.6 64.5992 19.6 64.6992 18.8 64.3992C18.2 64.1992 17.7 63.9992 17.4 63.4992C17.3 63.2992 17.1 63.0992 17 62.8992C16.3 61.0992 17.9 59.0992 18.9 57.7992C19.5 57.7992 20.4 57.7992 20.5 57.3992C20.5 57.1992 20.5 57.0992 19.9 55.9992C19.5 55.0992 19.4 54.9992 19.3 54.8992C18.9 54.7992 18.2 55.7992 17.9 56.3992C17.7 56.3992 17.5 56.4992 17.4 56.5992C15.6 57.1992 13 57.2992 12 55.4992L11.9 55.6992Z" fill="url(#paint4_linear_34_27761)"/>
<path d="M49.5 93.5992C49.5 93.5992 51.6 88.0992 51 84.8992C50.8 83.7992 50.3 82.8992 50.3 82.8992C50.1 82.5992 50 82.3992 49.8 82.1992C49.5 81.8992 49.8 81.3992 50.2 81.3992C50.6 81.3992 50.5 81.3992 50.6 81.3992C50.9 81.3992 51.8 81.3992 53 80.9992C55.5 80.2992 58.3 78.5992 58.9 78.1992C58 78.3992 56.3 78.9992 54.7 80.3992C53.5 81.3992 52.8 82.4992 52.4 83.2992C51.8 84.4992 51.5 85.4992 51.4 86.1992C50.9 88.2992 51.1 89.4992 50.5 91.4992C50 92.8992 49.6 93.6992 49.5 93.6992V93.5992Z" fill="black"/>
<defs>
<linearGradient id="paint0_linear_34_27761" x1="52" y1="2" x2="52" y2="102" gradientUnits="userSpaceOnUse">
<stop stop-color="#0798D0"/>
<stop offset="0.1" stop-color="#37A5B8"/>
<stop offset="0.5" stop-color="#C3CC75"/>
<stop offset="0.7" stop-color="#FCDC5B"/>
</linearGradient>
<linearGradient id="paint1_linear_34_27761" x1="51.3" y1="2.29961" x2="51.3" y2="71.0996" gradientUnits="userSpaceOnUse">
<stop offset="0.2" stop-color="#FDC643"/>
<stop offset="0.5" stop-color="#FE6B3A"/>
</linearGradient>
<linearGradient id="paint2_linear_34_27761" x1="55.1" y1="45.5995" x2="54.1" y2="93.9995" gradientUnits="userSpaceOnUse">
<stop stop-color="#D658EE"/>
<stop offset="1" stop-color="#5F30ED"/>
</linearGradient>
<linearGradient id="paint3_linear_34_27761" x1="29.2" y1="15.4996" x2="29.1" y2="39.9996" gradientUnits="userSpaceOnUse">
<stop offset="0.2" stop-color="#FDC643"/>
<stop offset="0.5" stop-color="#FE6B3A"/>
</linearGradient>
<linearGradient id="paint4_linear_34_27761" x1="21.2" y1="46.1992" x2="20.8" y2="65.9992" gradientUnits="userSpaceOnUse">
<stop stop-color="#D658EE"/>
<stop offset="1" stop-color="#5F30ED"/>
</linearGradient>
</defs>
</svg>
