<svg width="106" height="106" viewBox="0 0 106 106" fill="none" xmlns="http://www.w3.org/2000/svg">
<rect x="1.5" y="1.5" width="103" height="103" rx="9.5" fill="url(#paint0_linear_34_26955)"/>
<rect x="1.5" y="1.5" width="103" height="103" rx="9.5" stroke="#2DA9E1" stroke-width="3"/>
<path d="M87.9 35.0996C87.2 36.1996 85.4 35.0996 84.2 36.1996C82.7 37.5996 83.5 40.9996 84.2 44.1996C84.6 46.1996 85 46.9996 84.8 48.4996C84.8 48.7996 84.5 50.0996 83.1 51.8996C81.1 54.3996 78.6 55.7996 76.8 56.4996C73.9 57.6996 70.7 57.0996 68.8 55.0996C67.2 53.3996 67.1 51.1996 67.1 50.4996C67 52.9996 65.6 55.0996 63.7 55.5996C61.7 56.1996 59.9 54.7996 59.4 54.4996C57 52.4996 56.5 48.4996 58 44.1996C57 44.8996 55.5 45.5996 53.7 45.5996C49.4 45.5996 43.2 35.8996 43.2 35.8996C43.2 35.8996 43.7 38.6996 45.8 41.2996C46.8 42.5996 47.4 42.8996 50.1 44.9996C55.7 49.4996 56.6 50.9996 56.9 52.3996C57.1 52.9996 57.6 54.8996 56.6 56.0996C55.7 57.1996 54.1 57.1996 53.5 57.1996C48.9 57.1996 46 52.5996 40.7 50.3996C36.2 48.4996 36 50.5996 29.3 48.6996C26.3 47.8996 18.1 45.5996 16.8 40.1996C16.8 39.8996 16 36.8996 17.8 35.0996C19.4 33.4996 22 33.8996 22.2 33.9996C24.5 34.3996 25.9 36.1996 26.5 36.7996C31.2 42.2996 39.9 47.0996 41.7 45.5996C42.7 44.7996 42 41.6996 41 39.8996C39.8 37.6996 38.5 37.8996 37.3 35.5996C35.8 32.7996 36.3 29.9996 36.4 29.2996C36.7 28.0996 37.1 25.9996 39 24.6996C41.3 23.0996 44.5 23.8996 46.4 25.2996C46.9 25.5996 47.7 26.3996 49 28.9996C51.7 34.4996 51 37.6996 52.6 38.1996C54.3 38.6996 56.7 35.9996 57.8 34.3996C60.1 30.9996 59.1 28.5996 61.5 26.6996C62 26.2996 63.6 25.1996 65.5 25.5996C67.4 25.9996 68.8 27.5996 69.2 29.2996C69.8 31.9996 67.6 34.2996 67.2 34.6996C66.2 35.7996 65.4 35.8996 64.9 36.9996C64.1 38.5996 64.7 40.6996 65.2 40.6996C65.9 40.6996 65.7 35.6996 69.2 33.2996C69.7 32.9996 70.9 32.1996 72.3 32.3996C73.7 32.6996 74.5 33.7996 74.9 34.3996C77.5 38.1996 74.9 45.7996 74.6 46.5996C75.2 45.3996 76.1 43.5996 76.6 41.1996C77.8 35.4996 76 31.6996 78.3 29.4996C79.4 28.4996 81 28.3996 81.4 28.3996C83.8 28.2996 85.4 29.5996 86 30.0996C87.4 31.3996 88.8 33.7996 88 34.8996L87.9 35.0996ZM70.9 25.0996C69.3 24.8996 68.8 25.9996 69.5 27.2996C70 28.0996 71 28.4996 72 28.5996C72.9 28.5996 73.1 27.7996 72.8 26.9996C72.5 26.0996 71.7 25.5996 70.9 25.2996M70.1 17.5996C69 17.5996 66.6 18.2996 67.1 19.6996C67.4 20.4996 68.3 21.0996 69.2 21.0996C70.2 21.0996 71.6 21.0996 71.8 20.2996C72 19.5996 71.2 18.3996 69.5 17.5996M77.4 25.2996C76.4 25.2996 75.1 26.1996 75.8 27.1996C76.3 27.7996 77.1 27.8996 77.9 27.8996C78.8 27.9996 80 27.7996 79.4 26.6996C79 26.0996 78.3 25.8996 77.7 25.7996M34.3 50.4996C33.3 51.1996 33.4 52.6996 33.4 52.9996C33.4 53.8996 33.9 55.4996 35.2 55.7996C36.5 56.0996 37.9 54.8996 38.2 53.5996C38.5 52.3996 37.8 51.3996 37.7 51.2996C36.9 50.2996 35.3 49.7996 34.3 50.3996V50.4996ZM42.3 52.0996C42.1 52.0996 40.4 52.3996 39.8 53.7996C39 55.5996 40.6 58.0996 42.1 58.1996C43.1 58.1996 44 57.0996 44.2 56.6996C44.5 56.2996 45.4 54.9996 44.9 53.7996C44.4 52.7996 43 52.2996 41.5 52.6996" fill="url(#paint1_linear_34_26955)"/>
<path d="M88 35.1994C87.7 35.5994 87.2 35.7994 86.8 35.8994C86 35.9994 85.2 36.0994 84.6 36.5994C82.9 38.0994 84.8 44.0994 85.2 46.1994C86.2 50.2994 82.2 54.2994 79 56.0994C77.4 56.9994 75.6 57.7994 73.7 57.7994C71.8 57.7994 69.8 57.1994 68.3 55.7994C66.8 54.3994 66.1 52.3994 66.1 50.3994H68C68 51.3994 67.6 52.4994 67 53.2994C65.9 55.1994 64 56.5994 61.8 56.1994C56 55.0994 55.3 48.3994 57.1 43.6994L58.5 44.7994C57 45.7994 55.2 46.3994 53.4 46.2994C52.4 46.2994 51.6 45.7994 50.8 45.2994C49.4 44.3994 48.2 43.0994 47.2 41.8994C45.6 39.9994 44.2 38.0994 42.8 35.9994L43.5 35.6994C43.6 36.1994 43.8 36.7994 44 37.2994C44.8 39.3994 46 41.2994 47.7 42.5994L49 43.5994C50.8 44.9994 52.6 46.3994 54.2 47.9994C55 48.7994 55.9 49.5994 56.5 50.5994C57.2 51.6994 57.5 52.8994 57.5 54.0994C57.5 57.2994 54.4 58.0994 51.8 57.5994C48.3 56.8994 45.8 54.1994 42.8 52.3994C41 51.2994 39 50.2994 36.9 50.1994C35.8 50.1994 34.6 50.2994 33.5 50.1994C31.1 50.0994 28.9 49.3994 26.6 48.7994C25.5 48.4994 24.4 48.0994 23.3 47.5994C20 46.1994 16.4 43.9994 15.4 40.1994C14.7 37.4994 15.3 34.1994 18 32.9994C20.5 31.7994 23.7 32.4994 25.6 34.2994C26.5 35.0994 27.1 36.0994 27.9 36.8994C28.6 37.6994 29.4 38.4994 30.2 39.1994C32.8 41.4994 36.5 44.4994 40 45.0994C40.4 45.0994 40.9 45.0994 41.2 44.7994C41.7 43.8994 41.3 42.7994 41.1 41.8994C40.8 40.8994 40.3 39.7994 39.7 38.9994C39 38.0994 38 37.5994 37.2 36.6994C35.6 34.7994 34.9 32.1994 35.1 29.7994C35.3 27.8994 35.7 25.9994 37 24.4994C38.3 22.9994 40.6 22.2994 42.5 22.5994C44.1 22.7994 45.7 23.3994 47 24.3994C48.6 25.8994 49.5 27.8994 50.3 29.8994C51 31.4994 51.4 33.1994 51.8 34.8994C52 35.5994 52.1 36.3994 52.4 36.8994C52.4 36.8994 52.4 36.8994 52.5 36.9994C53.6 36.9994 55 35.5994 55.7 34.7994C56.8 33.5994 57.5 32.2994 58 30.6994C58.3 29.5994 58.6 28.3994 59.2 27.2994C59.9 26.1994 61 25.2994 62.2 24.7994C65.5 23.3994 69.2 25.6994 69.6 29.1994C69.9 31.4994 68.6 33.5994 67.1 35.0994C66.6 35.6994 65.8 35.9994 65.3 36.6994C64.8 37.4994 64.7 38.7994 65.1 39.5994C64.9 39.4994 64.6 39.5994 64.5 39.5994C64.4 39.6994 64.4 39.6994 64.5 39.5994C64.7 38.9994 64.8 38.3994 65 37.6994C65.5 35.8994 66.2 34.1994 67.5 32.8994C70.4 30.0994 73.7 30.4994 75.6 34.1994C77.3 37.7994 76.1 42.6994 74.9 46.3994L73.7 45.8994C74.9 43.5994 75.7 41.1994 76 38.5994C76.2 36.6994 76.1 34.6994 76.2 32.6994C76.2 31.2994 76.5 29.6994 77.7 28.6994C78.6 27.8994 79.8 27.5994 81 27.4994C83.4 27.2994 85.9 28.5994 87.1 30.6994C87.7 31.7994 88.5 33.4994 87.8 34.6994L88 35.1994ZM87.1 34.7994C87.7 34.0994 86.9 31.7994 85.3 30.3994C84.9 30.0994 83.4 28.9994 81.3 29.0994C79.8 29.0994 78.2 29.8994 77.8 31.4994C77.5 32.6994 77.6 33.9994 77.6 35.2994C77.6 36.5994 77.6 37.9994 77.5 39.2994C77.2 41.9994 76.4 44.6994 75.1 47.0994C74.9 47.3994 74.5 47.4994 74.2 47.3994C73.9 47.1994 73.8 46.8994 73.9 46.5994C75 43.1994 76.3 37.9994 74.2 34.8994C73.2 33.2994 71.7 32.7994 70 33.7994C68.1 34.7994 67.2 36.7994 66.7 38.7994C66.5 39.4994 66.4 40.2994 66.1 40.9994C66.1 41.0994 66 41.1994 65.7 41.3994C65.4 41.5994 65 41.5994 64.7 41.3994C63.8 40.7994 63.7 39.1994 63.8 38.2994C63.8 37.2994 64.3 36.1994 65.1 35.5994C65.6 35.1994 66 34.9994 66.4 34.5994C67.9 33.0994 69.2 30.6994 68 28.6994C67.3 27.4994 66 26.4994 64.6 26.5994C63.3 26.5994 61.8 27.4994 61.1 28.6994C60.3 30.1994 60.3 31.7994 59.5 33.3994C58.7 35.0994 57.6 36.4994 56.3 37.7994C54.6 39.4994 51.7 40.5994 50.6 37.5994C49.9 35.3994 49.6 33.1994 48.6 31.0994C47.9 29.4994 47.1 27.6994 45.9 26.3994C44.3 25.0994 41.7 24.5994 39.9 25.4994C38.4 26.2994 37.6 27.9994 37.3 29.5994C36.7 32.2994 37.3 35.5994 39.6 37.3994C41.5 38.8994 42.4 41.3994 42.6 43.6994C42.8 45.2994 42.1 46.4994 40.3 46.2994C36 45.6994 29.8 41.6994 26.7 38.6994C25.9 37.9994 25.2 36.9994 24.4 36.3994C23 35.1994 21 34.6994 19.3 35.3994C17.6 36.0994 17.4 38.3994 17.8 39.9994C18 40.8994 18.5 41.7994 19.1 42.4994C20.5 44.0994 22.4 45.1994 24.3 45.9994C26.3 46.8994 28.5 47.5994 30.6 48.0994C31.7 48.3994 32.7 48.5994 33.8 48.6994C34.9 48.6994 36 48.6994 37.2 48.6994C42 48.9994 45.6 52.7994 49.3 55.2994C50.2 55.8994 51.2 56.2994 52.2 56.4994C54 56.8994 56.6 56.5994 56.6 54.1994C56.6 52.5994 55.9 51.0994 54.8 49.9994C53.7 48.6994 52.4 47.5994 51.1 46.5994C49.9 45.4994 48.4 44.3994 47.1 43.3994C45.2 41.9994 43.9 39.8994 43.1 37.6994C42.9 37.0994 42.7 36.5994 42.6 35.9994C42.6 35.7994 42.6 35.5994 42.9 35.4994C43.1 35.4994 43.2 35.4994 43.3 35.6994C44.2 36.9994 45.1 38.2994 46.2 39.4994C47.9 41.3994 50.8 44.4994 53.3 44.6994C54 44.6994 54.7 44.4994 55.3 44.2994C56 44.0994 56.6 43.6994 57.2 43.2994C57.9 42.7994 58.9 43.4994 58.6 44.3994C57.8 46.7994 57.4 49.4994 58.3 51.8994C59.1 53.9994 61.8 55.7994 64 54.4994C65.5 53.5994 65.8 51.9994 65.9 50.2994C65.9 49.7994 66.4 49.3994 66.9 49.3994C67.4 49.3994 67.8 49.8994 67.8 50.3994C67.8 51.8994 68.3 53.3994 69.4 54.4994C71.3 56.4994 74.6 56.5994 77.1 55.4994C79.8 54.3994 82.2 52.3994 83.5 49.7994C84.4 48.1994 84.1 46.7994 83.6 45.0994C83.1 42.5994 81.5 37.6994 83.6 35.7994C83.8 35.5994 84.2 35.4994 85.1 35.2994C86.4 34.8994 86.6 34.9994 86.8 34.7994H87.1Z" fill="black"/>
<path d="M30.8 22.6C28.8 23 26.8 23.9 25.7 25.6C24.3 27.6 25.1 29.5 26.8 31C27 31.2 26.9 31.5 26.8 31.6L25.3 33.1L25.6 32L27 35.9L26.3 35.7C27.6 34.8 34 30.8 35.2 29.9C36.5 28.7 35.8 26.6 33.9 27C33.6 27 33.3 27.2 33 27.4L29.9 29.2C29.9 29.2 29.8 29.2 29.7 29.2C29.1 29 28.6 28.6 28.4 27.9C28 26.9 28.7 25.7 29.8 25.4C30.1 25.4 30.4 25.3 30.7 25.3C31.1 25.3 31.5 25.3 31.9 25C33.3 24.2 32.3 22.6 31 22.5L30.8 22.6Z" fill="black"/>
<path d="M70.9 24.2988C70.4 24.2988 69.9 24.2988 69.4 24.4988C68.9 24.6988 68.6 25.0988 68.5 25.5988C68.1 26.4988 68.6 27.6988 69.3 28.3988C70 29.0988 70.2 28.9988 70.7 29.1988C71.2 29.3988 71.1 29.2988 71.4 29.3988C71.7 29.4988 72 29.3988 72.2 29.3988C72.8 29.3988 73.3 29.0988 73.6 28.4988C73.9 27.8988 73.9 27.3988 73.7 26.8988C73.5 26.3988 73.2 25.7988 72.8 25.3988C72.4 24.9988 71.8 24.6988 71.1 24.4988C70.4 24.2988 70.1 24.6988 70 25.0988C69.9 25.4988 70.1 25.9988 70.6 26.1988C71.1 26.3988 70.8 26.1988 70.9 26.1988C71 26.1988 71.1 26.1988 70.9 26.1988C70.9 26.1988 71.1 26.1988 71.2 26.2988C71.3 26.3988 71.4 26.3988 71.5 26.4988C71.5 26.4988 71.6 26.5988 71.7 26.6988C71.7 26.5988 71.8 26.7988 71.7 26.6988C71.7 26.7988 71.7 26.6988 71.7 26.7988C71.7 26.7988 71.8 26.9988 71.9 27.0988C71.9 26.8988 72 27.1988 71.9 27.0988C71.9 27.2988 71.9 27.0988 71.9 27.1988C71.9 27.1988 71.9 27.2988 71.9 27.3988C71.9 27.4988 71.9 27.3988 71.9 27.4988C71.9 27.1988 71.9 27.3988 71.9 27.4988C71.9 27.4988 71.9 27.5988 71.9 27.6988C71.9 27.4988 72 27.5988 71.9 27.6988C72 27.5988 72 27.5988 71.9 27.6988C71.8 27.7988 72.1 27.6988 71.9 27.6988C72.1 27.6988 72.1 27.6988 71.9 27.6988C71.7 27.6988 71.7 27.6988 71.6 27.6988C71.5 27.6988 71.6 27.6988 71.5 27.6988C71.6 27.6988 71.7 27.6988 71.5 27.6988C71.4 27.6988 71.3 27.6988 71.2 27.6988C71.1 27.6988 71 27.6988 70.9 27.6988C70.7 27.6988 70.6 27.4988 70.4 27.3988C70.2 27.2988 70.5 27.4988 70.4 27.3988C70.4 27.3988 70.3 27.2988 70.2 27.1988C70.2 27.1988 70.2 27.1988 70.2 27.0988C70.2 27.0988 70.2 26.8988 70.1 26.7988C70.1 26.8988 70.2 26.9988 70.1 26.7988C70.1 26.6988 70.1 26.7988 70.1 26.6988C70.1 26.6988 70.1 26.5988 70.1 26.4988C70.1 26.2988 70.1 26.6988 70.1 26.4988C70.1 26.2988 70.1 26.4988 70.1 26.3988C70.1 26.3988 70.1 26.2988 70.1 26.1988C70 26.3988 70.1 26.0988 70.1 26.1988C70.2 25.9988 70.1 26.1988 70.1 26.0988C69.9 26.0988 70.2 26.0988 70.1 26.0988C70.3 26.0988 70.3 26.0988 70.4 26.0988C70.2 26.0988 70.3 26.0988 70.4 26.0988C70.5 26.0988 70.4 26.0988 70.5 26.0988C70.6 26.0988 70.7 26.0988 70.9 26.0988C71.1 26.0988 71.4 25.9988 71.5 25.7988C71.6 25.5988 71.8 25.3988 71.8 25.1988C71.8 24.9988 71.8 24.6988 71.5 24.5988C71.2 24.4988 71.1 24.3988 70.9 24.2988Z" fill="black"/>
<path d="M70.1 16.6992C69.2 16.6992 68.1 16.9992 67.3 17.4992C66.5 17.9992 66.4 18.1992 66.2 18.7992C66 19.3992 66.2 20.0992 66.5 20.5992C67.3 21.7992 68.7 22.1992 70.1 21.9992C71.5 21.7992 71.4 21.7992 71.8 21.4992C72.2 21.1992 72.6 20.4992 72.5 19.7992C72.4 19.0992 72 18.6992 71.6 18.2992C71.2 17.8992 70.4 17.2992 69.7 16.9992C69 16.6992 68.8 16.8992 68.5 17.2992C68.2 17.6992 68.4 18.2992 68.8 18.4992C69.2 18.6992 69.3 18.7992 69.6 18.8992C69.9 18.9992 69.8 18.9992 69.9 19.0992C70 19.1992 70.1 19.2992 69.9 19.0992C69.9 19.0992 70 19.0992 70.1 19.1992C70.3 19.2992 70.4 19.4992 70.6 19.6992V19.7992C70.6 19.7992 70.6 19.9992 70.7 20.0992C70.7 19.8992 70.7 20.1992 70.7 20.0992C70.7 20.0992 70.7 20.0992 70.7 20.1992C70.7 20.0992 70.7 19.9992 70.7 20.0992C70.7 20.1992 70.7 20.0992 70.7 20.1992C70.7 19.9992 70.7 20.2992 70.7 20.1992C70.7 19.9992 70.7 20.0992 70.7 20.1992C70.6 20.2992 70.9 20.0992 70.7 20.1992C70.5 20.2992 70.7 20.1992 70.6 20.1992C70.6 20.1992 70 20.3992 69.9 20.3992C69.8 20.3992 70.1 20.3992 69.9 20.3992C69.7 20.3992 69.8 20.3992 69.7 20.3992C69.6 20.3992 69.5 20.3992 69.4 20.3992C69.3 20.3992 69.2 20.3992 69.1 20.3992C69 20.3992 69 20.3992 68.9 20.3992C68.8 20.3992 68.7 20.3992 68.5 20.3992C68.3 20.3992 68.4 20.3992 68.3 20.3992C68.3 20.3992 68.1 20.2992 68 20.1992C67.8 20.0992 68.1 20.2992 68 20.1992C67.9 20.0992 68 20.1992 67.9 20.0992C67.8 19.9992 67.9 20.0992 67.8 19.9992C67.8 19.9992 67.8 19.8992 67.7 19.7992C67.6 19.6992 67.7 19.5992 67.7 19.7992C67.7 19.5992 67.7 19.9992 67.7 19.7992C67.7 19.6992 67.7 19.9992 67.7 19.7992C67.7 19.5992 67.7 19.7992 67.7 19.6992C67.8 19.4992 67.7 19.4992 67.8 19.4992C67.6 19.6992 67.9 19.4992 67.8 19.4992C67.6 19.5992 67.9 19.4992 67.8 19.4992C68 19.3992 68 19.3992 68.1 19.2992C68.2 19.1992 68.3 19.2992 68.4 19.1992C68.5 19.1992 68.5 19.1992 68.6 19.1992C68.6 19.1992 68.8 19.1992 68.9 19.1992C69.1 19.1992 69.3 19.1992 69.5 19.0992C69.5 19.0992 69.7 19.0992 69.8 19.0992C70.2 19.0992 70.7 18.6992 70.7 18.1992C70.7 17.6992 70.3 17.3992 69.8 17.2992L70.1 16.6992Z" fill="black"/>
<path d="M77.4 24.4992C76.5 24.4992 75.5 24.9992 75 25.7992C74.5 26.5992 75 27.9992 76 28.4992C77 28.9992 77 28.7992 77.5 28.7992C78 28.7992 77.7 28.7992 77.8 28.7992H77.7C77.7 28.7992 77.9 28.7992 78 28.7992C78 28.7992 78 28.7992 78.1 28.7992C78.3 28.7992 78.4 28.7992 78.6 28.7992C79 28.7992 79.4 28.6992 79.8 28.3992C80.2 28.0992 80.5 27.5992 80.5 27.0992C80.5 25.7992 79.1 25.1992 78 24.8992C76.9 24.5992 77.1 24.9992 76.9 25.4992C76.7 25.9992 77 26.3992 77.5 26.5992C78 26.7992 77.8 26.5992 78 26.6992C78.2 26.7992 78.2 26.6992 78.2 26.6992C78.2 26.6992 78.3 26.6992 78.4 26.7992C78.5 26.8992 78.5 26.8992 78.4 26.7992C78.4 26.8992 78.4 26.6992 78.4 26.6992C78.4 26.6992 78.5 26.4992 78.4 26.5992C78.3 26.6992 78.6 26.3992 78.4 26.5992C78.2 26.7992 78.6 26.4992 78.4 26.5992C78.3 26.5992 78.6 26.5992 78.4 26.5992C78.2 26.5992 78.4 26.5992 78.3 26.5992C78.2 26.5992 78.1 26.5992 77.9 26.5992C77.7 26.5992 77.8 26.5992 77.7 26.5992C78.1 26.5992 77.7 26.5992 77.6 26.5992C77.4 26.5992 77.3 26.5992 77.1 26.5992C76.9 26.5992 76.9 26.5992 77.1 26.5992C77.1 26.5992 77.1 26.5992 77 26.5992C77 26.5992 76.8 26.5992 76.7 26.5992C76.6 26.5992 76.6 26.5992 76.5 26.5992C76.3 26.5992 76.4 26.5992 76.5 26.5992C76.5 26.5992 76.4 26.5992 76.3 26.4992C76.1 26.4992 76.4 26.5992 76.3 26.4992C76.2 26.3992 76.3 26.4992 76.2 26.3992C76.2 26.3992 76.2 26.3992 76.2 26.2992C76.2 26.1992 76.2 26.4992 76.2 26.2992C76.2 26.0992 76.2 26.2992 76.2 26.1992C76.2 26.1992 76.2 26.1992 76.2 26.2992C76.2 26.2992 76.2 26.2992 76.2 26.1992C76.2 26.0992 76.2 26.3992 76.2 26.1992C76.2 25.9992 76.2 26.1992 76.2 26.0992C76.2 26.0992 76.2 26.0992 76.3 26.0992C76.3 26.0992 76.4 26.0992 76.5 25.9992C76.3 26.0992 76.4 25.9992 76.5 25.9992C76.6 25.9992 76.5 25.9992 76.7 25.9992C76.9 25.9992 76.8 25.9992 76.9 25.9992C76.7 25.9992 76.7 25.9992 76.9 25.9992C77.1 25.9992 76.9 25.9992 77 25.9992C77.4 25.9992 77.9 25.5992 77.9 25.0992C77.9 24.5992 77.5 24.1992 77 24.1992L77.4 24.4992Z" fill="black"/>
<path d="M33.9 49.6987C32.9 50.3987 32.5 51.6987 32.6 52.8987C32.7 54.0987 33.2 55.5987 34.3 56.1987C35.4 56.7987 37.7 56.1987 38.6 54.7987C39.5 53.3987 39.4 51.9987 38.6 50.7987C37.8 49.5987 35.5 48.5987 34 49.5987C32.5 50.5987 33.4 50.3987 33.7 50.7987C34 51.1987 34.5 51.3987 34.9 51.0987C35.3 50.7987 35 51.0987 35.1 50.9987C34.9 50.9987 35.3 50.8987 35.1 50.9987C35.3 50.9987 35.2 50.9987 35.3 50.9987C35.4 50.9987 35.5 50.9987 35.3 50.9987C35.3 50.9987 35.4 50.9987 35.5 50.9987C35.6 50.9987 35.8 50.9987 35.5 50.9987H35.7C35.8 50.9987 36 50.9987 36.1 51.0987C36.1 51.0987 36.2 51.0987 36.3 51.1987C36.4 51.2987 36.3 51.1987 36.4 51.1987C36.5 51.1987 36.6 51.3987 36.4 51.1987C36.5 51.2987 36.6 51.3987 36.7 51.4987C36.7 51.3987 36.9 51.6987 36.7 51.4987C36.7 51.5987 36.7 51.5987 36.8 51.6987C36.9 51.7987 36.8 51.7987 36.9 51.8987C36.9 52.0987 37 51.9987 36.9 51.8987V52.0987C36.9 52.0987 36.9 52.2987 36.9 52.3987C36.9 52.1987 36.9 52.5987 36.9 52.3987C36.9 52.5987 36.9 52.5987 36.9 52.5987C36.9 52.5987 36.9 52.6987 36.9 52.7987C36.9 52.5987 36.9 52.8987 36.9 52.8987C36.9 52.8987 36.9 52.9987 36.9 53.0987C36.9 53.0987 36.9 53.0987 36.9 53.1987C36.9 53.2987 36.8 53.3987 36.7 53.4987C36.5 53.6987 36.6 53.5987 36.7 53.4987C36.7 53.4987 36.7 53.5987 36.5 53.6987C36.5 53.6987 36.3 53.8987 36.2 53.9987C36 54.1987 36.3 53.9987 36.2 53.9987C36.1 53.9987 36 54.0987 35.9 54.1987C36.1 54.0987 35.8 54.1987 35.8 54.1987C35.8 54.1987 35.7 54.1987 35.6 54.1987C35.3 54.1987 35.5 54.1987 35.6 54.1987C35.5 54.1987 35.4 54.1987 35.2 54.1987C35.2 54.1987 34.9 54.0987 35.1 54.1987C35.1 54.1987 34.9 54.0987 34.8 53.9987C34.8 53.9987 34.8 53.9987 34.7 53.8987C34.5 53.6987 34.6 53.7987 34.7 53.8987C34.7 53.8987 34.7 53.8987 34.7 53.7987C34.7 53.6987 34.5 53.5987 34.5 53.3987C34.4 53.1987 34.5 53.1987 34.5 53.3987C34.5 53.3987 34.5 53.3987 34.5 53.2987C34.5 53.1987 34.5 53.0987 34.4 52.9987C34.3 52.8987 34.4 52.7987 34.4 52.6987C34.4 52.5987 34.4 52.5987 34.4 52.4987C34.4 52.2987 34.4 52.5987 34.4 52.4987C34.4 52.3987 34.4 52.1987 34.4 52.0987C34.4 51.9987 34.4 51.8987 34.4 51.7987C34.4 51.6987 34.4 51.7987 34.4 51.6987C34.4 51.6987 34.4 51.6987 34.4 51.5987V51.2987C34.4 51.2987 34.4 51.1987 34.4 51.0987C34.4 51.0987 34.4 51.0987 34.4 50.9987C34.4 51.0987 34.4 51.0987 34.4 50.9987C34.4 50.9987 34.4 50.9987 34.4 50.8987C34.4 50.7987 34.6 50.5987 34.4 50.8987C34.4 50.8987 34.4 50.7987 34.5 50.7987C34.5 50.7987 34.5 50.7987 34.6 50.7987C35 50.4987 35.2 49.9987 34.9 49.5987C34.6 49.1987 34.1 48.9987 33.7 49.2987L33.9 49.6987Z" fill="black"/>
<path d="M42.1 51.2988C41 51.4988 39.8 52.1988 39.2 53.1988C38.3 54.6988 38.8 56.5988 39.9 57.8988C41 59.1988 41 58.8988 41.7 59.0988C42.4 59.2988 43.4 58.8988 44.1 58.2988C44.8 57.6988 44.9 57.3988 45.2 56.9988C45.5 56.5988 46 55.4988 46 54.6988C46 53.8988 45.4 52.7988 44.5 52.2988C43.6 51.7988 42.4 51.6988 41.3 51.9988C40.2 52.2988 40.6 52.5988 40.7 53.0988C40.8 53.5988 41.3 53.7988 41.8 53.6988C42.3 53.5988 42.4 53.5988 42.7 53.6988C42.7 53.6988 43 53.6988 42.8 53.6988C42.8 53.6988 42.9 53.6988 43 53.6988C43 53.6988 43.2 53.6988 43.3 53.6988C43.4 53.6988 43.6 53.7988 43.5 53.6988C43.6 53.6988 43.7 53.7988 43.9 53.8988C43.9 53.7988 44.1 53.9988 43.9 53.8988C43.9 53.9988 43.9 53.8988 44 53.9988C44.1 54.0988 44.2 54.1988 44 53.9988C44 53.9988 44 54.0988 44.1 54.1988C44.1 54.1988 44.1 54.4988 44.1 54.3988C44.1 54.3988 44.1 54.5988 44.1 54.6988C44.1 54.7988 44.1 54.8988 44.1 54.6988C44.1 54.8988 44.1 54.9988 44 55.1988C43.9 55.3988 44 55.2988 44 55.3988C44 55.4988 43.9 55.6988 43.8 55.7988C43.7 55.8988 43.6 56.0988 43.5 56.2988C43.4 56.4988 43.5 56.3988 43.4 56.4988C43.4 56.4988 43.3 56.5988 43.2 56.6988C43.2 56.7988 43 56.8988 42.9 56.9988C43.1 56.7988 42.8 56.9988 42.8 56.9988C42.8 56.9988 42.7 56.9988 42.6 57.0988C42.6 57.0988 42.5 57.0988 42.4 57.0988C42.6 57.0988 42.3 57.0988 42.3 57.0988C42.3 57.0988 42.2 57.0988 42.1 57.0988C41.9 56.9988 42 57.0988 42.1 57.0988H42C42 57.0988 42 57.0988 41.9 57.0988C41.7 56.8988 41.8 57.0988 41.9 57.0988C41.8 57.0988 41.7 56.8988 41.6 56.7988C41.5 56.6988 41.5 56.6988 41.4 56.5988C41.4 56.4988 41.2 56.2988 41.1 56.1988C41 56.0988 41.1 56.1988 41.1 56.0988C41 55.7988 41.1 55.9988 41.1 56.0988C41.1 55.9988 41 55.7988 40.9 55.5988C40.8 55.3988 40.9 55.3988 40.9 55.3988C40.9 55.1988 40.9 55.5988 40.9 55.3988C40.9 55.1988 40.9 55.0988 40.9 54.9988C40.9 54.6988 40.9 54.8988 40.9 54.9988C40.9 54.9988 40.9 54.8988 40.9 54.7988V54.5988C40.9 54.5988 40.9 54.4988 40.9 54.3988C40.9 54.3988 40.9 54.3988 40.9 54.2988C40.9 54.2988 40.9 54.2988 40.9 54.1988C41 54.0988 41.1 53.9988 41.2 53.8988C41.1 53.8988 41.4 53.6988 41.2 53.8988C41.3 53.8988 41.3 53.8988 41.4 53.7988C41.5 53.7988 41.7 53.6988 41.8 53.5988C41.9 53.4988 42 53.5988 41.8 53.5988C41.8 53.5988 41.9 53.5988 42 53.5988C42.1 53.5988 42.2 53.5988 42.3 53.5988C42.4 53.5988 42.5 53.5988 42.7 53.5988C43.2 53.5988 43.4 52.9988 43.3 52.4988C43.2 51.9988 42.7 51.7988 42.2 51.8988L42.1 51.2988Z" fill="black"/>
<path d="M42.9 65.4995C43 64.5995 42.9 63.5995 42.4 62.7995C41.7 61.4995 40.4 60.3995 39 59.6995C38.7 59.5995 38.4 59.4995 38.1 59.2995C38 59.2995 37.9 59.0995 37.9 58.9995C37.9 58.8995 37.7 58.5995 37.6 58.4995C36.5 57.3995 34.6 56.9995 33.1 57.3995C32.9 57.3995 32.8 57.3995 32.6 57.5995C32.6 58.0995 32.3 58.5995 31.9 59.0995C31.6 59.4995 31.2 59.9995 30.7 60.4995C30.7 60.5995 30.7 60.6995 30.7 60.8995C30.7 61.0995 30.7 61.0995 30.7 61.3995C30.5 62.0995 29.8 62.2995 29.2 62.0995C29.1 62.0995 29 62.0995 28.9 62.0995C26.9 63.4995 24.4 64.4995 22.3 64.2995C19.6 66.6995 17 71.7995 21 73.7995C22.6 74.5995 25 74.4995 26.6 73.7995H26.7C26.8 73.7995 26.9 73.5995 27.1 73.4995C27.8 73.0995 28.8 73.4995 29 74.4995C29 74.7995 29 75.0995 29 75.2995C28.5 78.1995 29 81.5995 31.5 83.4995C33 84.6995 34.6 84.6995 36.2 83.6995C37.4 82.8995 38.3 81.7995 39 80.4995C38.7 77.4995 39.2 74.2995 40.1 71.3995C40 70.8995 39.9 70.3995 39.7 69.9995C39.5 69.5995 39.4 69.1995 39.2 68.9995C38.9 68.5995 39.2 68.0995 39.7 68.0995H39.9C40.6 68.0995 41.1 68.0995 41.5 67.7995C41.9 67.0995 42.3 66.3995 42.7 65.7995L42.9 65.4995ZM35 67.3995C32.5 67.3995 31.1 64.5995 32.7 62.5995C33.8 61.1995 36.2 61.1995 37.3 62.5995C38.9 64.5995 37.3 67.2995 35 67.3995ZM40.1 67.8995C40.1 67.8995 40.1 67.8995 40.2 67.8995C40.2 67.8995 40.1 67.8995 40 67.8995H40.1ZM53.6 77.8995C55.3 75.8995 58 74.6995 60.4 75.1995C60.4 75.1995 60.4 75.0995 60.4 74.9995C60.4 74.5995 60.6 74.1995 60.6 73.7995C60 73.6995 59.4 73.3995 58.8 72.9995C55.5 70.3995 55.9 64.9995 58.6 62.0995L58.8 61.8995C55.3 60.0995 50.8 61.0995 47.7 63.7995C45.8 65.3995 44.2 67.4995 43.1 69.6995C42.6 70.7995 42.2 71.8995 41.8 73.0995C41.1 75.4995 40.8 78.0995 41 80.5995C41.2 83.1995 42 85.6995 43.6 87.7995C45 89.6995 47.6 90.6995 49.9 89.9995C50.3 89.8995 50.7 89.6995 51 89.4995C49.7 85.6995 50.9 80.8995 53.4 77.9995L53.6 77.8995ZM49.5 68.8995C49.7 66.2995 52.9 65.1995 54.5 67.0995C56 68.6995 55 71.8995 52.7 72.0995C50.8 72.3995 49.3 70.7995 49.5 68.8995ZM82.8 78.0995C82.8 78.3995 82.7 78.6995 82.6 78.8995C81.4 83.0995 77.2 86.0995 73.3 87.4995C68.4 88.8995 65.4 87.7995 63.8 85.3995C64.1 84.8995 64.4 84.3995 64.6 83.8995C65.6 81.6995 65.3 78.6995 63.5 76.9995C63.4 76.8995 63.2 76.6995 63.1 76.5995C63 76.4995 62.8 76.2995 62.6 76.1995C62.6 75.9995 62.6 75.8995 62.6 75.6995C62.6 75.1995 62.8 74.7995 62.9 74.2995C62.9 73.9995 63 73.6995 63.1 73.4995C63.1 73.2995 63.3 72.9995 63.3 72.6995C63.3 72.4995 63.3 72.3995 63.2 72.1995C63 71.7995 62.6 71.4995 62.1 71.4995H61.6C61.7 71.4995 61.7 71.4995 61.7 71.4995C61.3 71.4995 60.7 71.2995 60.4 70.9995C58.4 69.1995 58.8 64.9995 61 63.3995C61.3 63.1995 61.7 62.9995 62 62.8995C62.3 62.7995 62.8 62.6995 63.2 62.6995C63.3 62.6995 63.4 62.6995 63.5 62.6995C64.2 62.6995 64.9 62.4995 65.6 62.2995C66.9 61.8995 68.1 61.2995 69.3 60.4995C70.1 59.9995 71 59.4995 71.9 59.0995C72.6 58.7995 73.5 58.5995 74.2 58.6995C74.9 58.8995 75.4 59.2995 75.7 59.8995C74.4 60.7995 73.8 62.5995 73.7 63.9995C73.7 64.8995 73.7 65.7995 73.7 66.5995C72.7 67.0995 70.7 68.4995 68.5 67.9995C67.7 67.7995 67.1 67.4995 66.7 67.1995C66.7 68.2995 66.7 69.4995 66.8 70.5995C67.1 70.3995 67.5 70.0995 68 69.8995C70.6 68.5995 72.5 68.7995 73.8 67.3995C73.9 68.4995 74.2 69.5995 74.6 70.6995C74.6 70.6995 74.6 70.7995 74.6 70.8995C74.4 71.2995 74.1 71.7995 73.6 72.2995C73.1 72.8995 72.7 73.0995 71.9 73.5995C70.7 74.3995 69.6 74.8995 68.9 75.1995C68.4 75.3995 67.9 75.5995 67.6 75.6995L69.4 78.2995C69.7 77.3995 70 76.6995 70.3 76.2995C71 75.0995 71.8 74.3995 73.3 72.8995C73.8 72.4995 73.9 72.2995 74.1 72.2995C74.4 72.0995 74.5 72.0995 74.6 71.9995C74.6 71.9995 74.6 71.8995 74.6 71.7995C74.6 71.7995 74.8 71.7995 74.9 71.7995C75.2 72.5995 75.6 73.2995 76 74.0995C77.2 76.2995 79.8 79.1995 82.6 78.0995H82.8ZM62 78.4995C62 78.4995 61.8 78.2995 61.7 78.2995C61.6 78.1995 61.4 78.0995 61.3 77.9995C61.3 77.9995 61.2 77.9995 61.1 77.8995C60.9 77.7995 60.6 77.6995 60.4 77.5995H60.2C59.3 77.3995 58.3 77.4995 57.4 77.7995C56.3 78.2995 55.4 78.9995 54.7 79.8995C54.5 80.0995 54.4 80.2995 54.2 80.5995C53.6 81.4995 53.2 82.4995 52.9 83.4995C52.5 84.7995 52.3 86.6995 52.6 88.2995C52.6 88.5995 52.7 88.7995 52.8 89.0995C52.8 89.2995 53 89.5995 53.1 89.7995C53.5 90.6995 54.1 91.3995 55.1 91.7995C57.2 92.5995 59.1 90.3995 58.9 88.2995C58.9 87.9995 58.9 87.6995 58.7 87.3995C58.5 86.9995 58.7 86.4995 59.1 86.5995C60.1 86.5995 60.9 86.2995 61.6 85.6995C61.9 85.4995 62.1 85.1995 62.3 84.8995C62.6 84.4995 62.8 84.0995 62.9 83.6995C63.5 82.0995 63.5 80.0995 62.3 78.7995C62.2 78.6995 62.1 78.5995 61.9 78.3995L62 78.4995ZM61.5 82.3995C61.5 82.9995 61.2 83.5995 60.9 84.0995C60.5 84.6995 59.8 85.0995 59 85.1995C57.3 85.3995 55.8 83.6995 56 82.0995C56 81.6995 56.1 81.2995 56.3 80.9995C56.4 80.7995 56.6 80.5995 56.7 80.3995C57.3 79.6995 58.2 79.3995 59.1 79.4995C59.4 79.4995 59.7 79.5995 59.9 79.6995H60C60.2 79.7995 60.5 79.9995 60.7 80.1995C60.9 80.3995 61.1 80.6995 61.2 80.9995C61.4 81.3995 61.4 81.8995 61.4 82.2995L61.5 82.3995ZM89.2 63.7995C89.9 65.9995 90.9 69.0995 89.4 70.9995C87.8 72.3995 85.3 70.2995 84.2 68.9995C83.9 68.5995 83.5 68.2995 82.9 68.3995C82.9 68.1995 82 68.7995 81.9 69.1995C81.9 69.4995 81.9 69.4995 81.9 69.5995C81.9 69.6995 81.9 69.8995 81.9 69.9995V70.1995C82.1 70.6995 82.1 71.2995 82.2 71.7995C82.2 72.0995 82.2 72.2995 82.2 72.5995C82.2 72.8995 82.2 73.1995 82.2 73.5995C82.2 73.8995 82.2 74.2995 82.1 74.5995C82.1 74.7995 82 75.0995 81.9 75.2995C81.9 75.3995 81.8 75.4995 81.6 75.5995C80.5 75.8995 79.1 73.5995 78.6 72.6995C78.4 72.3995 78.3 72.0995 78.1 71.6995C78.1 71.4995 77.9 71.3995 77.9 71.1995C77.9 70.9995 77.7 70.7995 77.7 70.6995C77.1 69.2995 76.5 67.5995 76.3 65.9995C76.3 65.6995 76.3 65.3995 76.2 65.0995C76.2 63.8995 76.2 62.7995 76.7 61.8995C76.8 61.6995 77 61.4995 77.1 61.3995C77.2 61.2995 77.4 61.1995 77.5 61.1995C77.7 61.1995 77.8 61.1995 78 61.1995C78.2 61.1995 78.4 61.1995 78.6 61.2995C79.5 61.5995 80.3 62.2995 81.1 62.8995C81.4 63.2995 82 62.9995 81.9 62.4995C81.9 62.4995 81.9 62.2995 81.9 62.1995C81.9 61.5995 81.7 60.6995 81.7 60.1995C81.7 59.1995 81.9 57.6995 82.9 57.2995C83 57.8995 83.3 58.4995 83.7 58.7995C84.3 59.3995 85.1 59.5995 86 59.3995C85.9 60.1995 86 60.8995 86.4 61.3995C86.9 62.0995 87.7 62.1995 88.4 62.1995C88.7 62.6995 88.9 63.2995 89.1 63.7995H89.2ZM92.2 56.7995C92.2 57.0995 92.1 57.3995 92 57.6995C91.8 58.3995 91.7 59.1995 91.4 59.5995C91.1 60.4995 90.6 60.9995 89.9 61.1995C89.7 61.1995 89.5 61.1995 89.3 61.1995C89.3 61.1995 89.1 61.1995 89 61.1995C88.7 61.1995 88.4 61.1995 88.1 61.1995C87.8 61.1995 87.5 60.9995 87.4 60.7995C87.2 60.4995 87.1 59.9995 87.2 59.5995C87.2 59.4995 87.2 59.3995 87.2 59.2995C87.2 59.0995 87.4 58.6995 87.2 58.4995C87.1 58.3995 86.9 58.2995 86.8 58.2995C86.7 58.2995 86.5 58.2995 86.4 58.2995C85.7 58.4995 85.2 58.3995 84.8 57.9995C84.5 57.7995 84.4 57.3995 84.3 56.9995C84.3 56.7995 84.3 56.5995 84.3 56.2995C84.3 56.0995 84.3 55.8995 84.3 55.5995C84.3 55.3995 84.3 55.0995 84.5 54.8995C84.9 53.4995 85.9 52.0995 87 51.3995C87.5 51.0995 87.9 51.0995 88.3 51.2995C88.6 51.4995 88.8 51.7995 88.8 52.2995C88.8 52.2995 88.8 52.4995 88.8 52.6995C88.8 52.9995 88.8 53.2995 89 53.4995C89.2 53.6995 89.5 53.4995 89.5 53.4995C89.5 53.4995 89.7 53.3995 89.7 53.2995C89.9 53.1995 90.2 52.9995 90.4 52.9995C91.4 52.6995 92.1 52.7995 92.5 53.1995C93 53.7995 93.1 54.9995 92.6 56.5995L92.2 56.7995Z" fill="url(#paint2_linear_34_26955)"/>
<path d="M92.8 52.7984C92.2 52.0984 91.1 51.9984 89.8 52.2984C89.6 52.2984 89.4 52.3984 89.2 52.4984C89.2 52.4984 89.2 52.4984 89.2 52.3984C89.2 51.5984 88.9 50.8984 88.2 50.5984C87.6 50.1984 86.7 50.2984 86 50.7984C84.7 51.5984 83.6 53.0984 83.1 54.7984C83 55.1984 82.9 55.4984 82.9 55.8984C82.7 55.8984 82.4 56.0984 82.2 56.1984C80.8 57.1984 80.6 59.0984 80.8 60.6984C79.9 59.8984 78.9 59.1984 77.7 59.1984C77.2 57.9984 76.3 57.0984 74.9 56.5984C73.4 56.1984 71.9 56.5984 70.5 57.1984C69.5 57.5984 68.5 58.0984 67.6 58.6984C66.3 59.3984 64.9 59.9984 63.4 60.0984C62.6 60.0984 61.9 60.2984 61.2 60.4984C58 57.9984 53.6 57.5984 49.9 59.2984C47.5 60.3984 45.5 62.0984 43.9 64.1984C43.9 63.5984 43.6 62.8984 43.3 62.3984C42.4 60.6984 40.8 59.3984 39.1 58.6984C39.1 58.6984 38.9 58.6984 38.8 58.6984C37.8 56.4984 29.5 53.5984 27.2 54.1984C26.7 53.2984 20.1 49.8984 20 50.1984C19 50.6984 18.1 51.2984 17.3 51.9984C15.9 53.1984 14.6 55.4984 15.7 57.2984C16.7 58.7984 18.6 58.9984 20.3 58.7984C19.3 60.1984 18.8 61.8984 20.1 63.1984C17.4 65.6984 15.8 69.2984 16.7 72.5984C17.7 75.5984 21.1 77.0984 24 76.8984C24.7 76.8984 25.5 76.7984 26.2 76.5984C26.2 78.1984 26.4 79.7984 26.9 81.1984C27.8 83.5984 29.7 85.6984 32.3 86.3984C34.9 87.0984 37.7 85.5984 39.3 83.6984C39.3 83.5984 39.5 83.4984 39.5 83.3984C39.7 83.9984 39.8 84.5984 40.1 85.1984C40.9 87.1984 42.1 89.1984 43.9 90.3984C45.8 91.6984 48.3 92.1984 50.4 91.3984C50.8 91.1984 51.3 90.9984 51.6 90.7984C51.8 91.0984 52 91.4984 52.3 91.7984C53.2 92.8984 54.8 93.5984 56.3 93.2984C58.1 92.8984 59.5 91.1984 59.7 89.3984C59.7 88.7984 59.7 88.1984 59.7 87.6984C60.6 87.6984 61.5 87.3984 62.2 86.7984C64.4 89.5984 68.1 90.7984 73.6 89.0984C78 87.3984 82.5 83.9984 83.7 79.2984C83.9 78.4984 84 77.7984 83.9 76.9984C84.7 75.7984 84.8 74.1984 84.7 72.6984C88.7 75.0984 92.5 72.8984 91.9 67.4984C91.6 65.5984 91 63.7984 90.2 62.0984C91 61.7984 91.7 61.1984 92.1 60.0984C92.4 59.4984 92.6 58.6984 92.7 57.8984C92.7 57.5984 92.8 57.2984 92.9 56.9984C93.2 55.8984 93.6 53.7984 92.6 52.6984L92.8 52.7984ZM16.5 56.6984C15.7 55.3984 17.4 53.8984 18.3 52.9984C18.9 52.4984 19.6 51.9984 20.4 51.6984C20.5 51.6984 20.7 51.6984 20.8 51.6984C21.2 51.6984 26.6 54.1984 26.6 54.1984C26.6 54.1984 26.6 54.1984 26.5 54.1984C26 54.1984 25.2 54.1984 25.1 54.4984C25.1 54.5984 25.1 54.6984 25.6 55.4984C26 56.1984 26 56.2984 26.1 56.2984C26.4 56.2984 26.7 55.9984 27 55.5984C27.2 55.5984 27.3 55.5984 27.5 55.5984C28.2 55.3984 28.9 55.2984 29.6 55.2984C30.5 55.2984 31.3 55.7984 31.6 56.2984C31.8 56.4984 31.9 56.7984 31.9 57.0984C31.9 57.4984 31.8 58.0984 31.4 58.5984C31 59.1984 30.5 59.6984 30 60.1984C29.7 60.3984 29.5 60.5984 29.2 60.7984C28.8 61.0984 28.4 61.2984 28 61.4984C27.8 61.4984 27.6 61.6984 27.4 61.7984C26.7 62.0984 25.8 62.3984 24.9 62.5984C24.1 62.6984 23.4 62.7984 22.7 62.5984C22.3 62.5984 21.9 62.2984 21.6 61.9984C21.5 61.8984 21.4 61.7984 21.3 61.5984C20.7 60.3984 21.9 58.9984 22.7 58.0984C23.2 58.0984 23.9 58.0984 24 57.7984C24 57.6984 24 57.5984 23.5 56.7984C23.1 56.0984 23.1 55.9984 23 55.9984C22.6 55.9984 22.1 56.6984 21.8 57.0984C21.7 57.0984 21.5 57.0984 21.4 57.1984C19.9 57.5984 17.8 57.6984 16.8 56.3984L16.5 56.6984ZM40 67.8984C40 67.8984 39.9 67.8984 39.8 67.8984C39.4 67.8984 39 68.3984 39.3 68.7984C39.5 68.9984 39.6 69.3984 39.8 69.7984C39.9 70.2984 40.1 70.6984 40.2 71.1984C39.2 74.0984 38.8 77.2984 39.1 80.2984C38.4 81.5984 37.5 82.7984 36.3 83.4984C34.7 84.4984 33.1 84.4984 31.6 83.2984C29.2 81.3984 28.7 77.9984 29.1 75.0984C29.1 74.8984 29.2 74.5984 29.1 74.2984C28.9 73.3984 27.9 72.9984 27.2 73.2984C27 73.2984 26.9 73.4984 26.8 73.5984C26.8 73.5984 26.8 73.5984 26.7 73.5984C25.1 74.3984 22.7 74.4984 21.1 73.5984C17.1 71.5984 19.7 66.4984 22.4 64.0984C24.5 64.3984 27 63.2984 29 61.8984C29.1 61.8984 29.2 61.8984 29.3 61.8984C29.9 62.1984 30.7 61.8984 30.8 61.1984C30.8 60.8984 30.8 60.8984 30.8 60.6984C30.8 60.5984 30.8 60.4984 30.8 60.2984C31.3 59.7984 31.7 59.3984 32 58.8984C32.4 58.3984 32.6 57.8984 32.7 57.3984C32.9 57.3984 33 57.2984 33.2 57.1984C34.7 56.7984 36.5 57.1984 37.7 58.2984C37.8 58.2984 37.9 58.6984 38 58.7984C38 58.8984 38 58.9984 38.2 59.0984C38.5 59.2984 38.8 59.2984 39.1 59.4984C40.5 60.1984 41.8 61.2984 42.5 62.5984C43 63.3984 43.1 64.3984 43 65.2984C42.6 65.8984 42.2 66.5984 41.8 67.2984C41.4 67.5984 40.8 67.6984 40.2 67.5984L40 67.8984ZM40.2 67.8984C40.2 67.8984 40.1 67.8984 40 67.8984C40 67.8984 40 67.8984 40.1 67.8984H40.2ZM40.9 69.1984C40.9 69.0984 40.8 68.9984 40.7 68.8984C40.8 68.8984 40.9 68.8984 41 68.8984C41 68.9984 40.9 69.1984 40.8 69.2984L40.9 69.1984ZM51.2 89.3984C50.8 89.5984 50.5 89.7984 50.1 89.8984C47.8 90.6984 45.3 89.5984 43.8 87.6984C42.2 85.5984 41.4 83.0984 41.2 80.4984C41 77.9984 41.3 75.3984 42 72.9984C42.3 71.7984 42.8 70.5984 43.3 69.5984C44.4 67.2984 45.9 65.2984 47.9 63.6984C51 61.0984 55.4 59.9984 59 61.7984L58.8 61.9984C56.1 64.8984 55.8 70.2984 59 72.8984C59.6 73.2984 60.1 73.5984 60.8 73.6984C60.8 74.0984 60.6 74.4984 60.6 74.8984C60.6 74.8984 60.6 74.9984 60.6 75.0984C58.2 74.5984 55.5 75.7984 53.8 77.7984C51.2 80.6984 50 85.4984 51.4 89.2984L51.2 89.3984ZM63 83.6984C62.8 84.0984 62.6 84.4984 62.4 84.8984C62.2 85.1984 62 85.4984 61.7 85.6984C61 86.2984 60.2 86.6984 59.2 86.5984C58.7 86.5984 58.5 87.0984 58.8 87.3984C58.8 87.6984 59 87.9984 59 88.2984C59.2 90.2984 57.3 92.5984 55.2 91.7984C54.3 91.3984 53.7 90.6984 53.2 89.7984C53.1 89.5984 53 89.2984 52.9 89.0984C52.9 88.7984 52.8 88.5984 52.7 88.2984C52.4 86.6984 52.6 84.7984 53 83.4984C53.3 82.4984 53.7 81.4984 54.3 80.5984C54.5 80.3984 54.6 80.0984 54.8 79.8984C55.5 78.9984 56.4 78.1984 57.5 77.7984C58.4 77.3984 59.4 77.2984 60.3 77.5984H60.5C60.7 77.5984 61 77.7984 61.2 77.8984C61.2 77.8984 61.3 77.8984 61.4 77.9984C61.5 77.9984 61.7 78.1984 61.8 78.2984C61.8 78.2984 62 78.4984 62.1 78.4984C62.2 78.5984 62.3 78.6984 62.5 78.8984C63.7 80.1984 63.7 82.0984 63.1 83.7984L63 83.6984ZM82.6 78.8984C81.4 83.0984 77.2 86.0984 73.3 87.4984C68.4 88.8984 65.4 87.7984 63.8 85.3984C64.1 84.8984 64.4 84.3984 64.6 83.8984C65.6 81.6984 65.3 78.6984 63.5 76.9984C63.4 76.8984 63.2 76.6984 63.1 76.5984C63 76.4984 62.8 76.2984 62.6 76.1984C62.6 75.9984 62.6 75.8984 62.6 75.6984C62.6 75.1984 62.8 74.7984 62.9 74.2984C62.9 73.9984 63 73.6984 63.1 73.4984C63.1 73.2984 63.3 72.9984 63.3 72.6984C63.3 72.4984 63.3 72.3984 63.2 72.1984C63 71.7984 62.6 71.4984 62.1 71.4984H61.6C61.7 71.4984 61.7 71.4984 61.7 71.4984C61.3 71.4984 60.7 71.2984 60.4 70.9984C58.4 69.1984 58.8 64.9984 61 63.3984C61.3 63.1984 61.7 62.9984 62 62.8984C62.3 62.7984 62.8 62.6984 63.2 62.6984C63.3 62.6984 63.4 62.6984 63.5 62.6984C64.2 62.6984 64.9 62.4984 65.6 62.2984C66.9 61.8984 68.1 61.2984 69.3 60.4984C70.1 59.9984 71 59.4984 71.9 59.0984C72.6 58.7984 73.5 58.5984 74.2 58.6984C74.9 58.8984 75.4 59.2984 75.7 59.8984C74.4 60.7984 73.8 62.5984 73.7 63.9984C73.7 64.8984 73.7 65.7984 73.7 66.5984C72.7 67.0984 70.7 68.4984 68.5 67.9984C67.7 67.7984 67.1 67.4984 66.7 67.1984C66.7 68.2984 66.7 69.4984 66.8 70.5984C67.1 70.3984 67.5 70.0984 68 69.8984C70.6 68.5984 72.5 68.7984 73.8 67.3984C73.9 68.4984 74.2 69.5984 74.6 70.6984C74.6 70.6984 74.6 70.7984 74.6 70.8984C74.4 71.2984 74.1 71.7984 73.6 72.2984C73.1 72.8984 72.7 73.0984 71.9 73.5984C70.7 74.3984 69.6 74.8984 68.9 75.1984C68.4 75.3984 67.9 75.5984 67.6 75.6984L69.4 78.2984C69.7 77.3984 70 76.6984 70.3 76.2984C71 75.0984 71.8 74.3984 73.3 72.8984C73.8 72.4984 73.9 72.2984 74.1 72.2984C74.4 72.0984 74.5 72.0984 74.6 71.9984C74.6 71.9984 74.6 71.8984 74.6 71.7984C74.6 71.7984 74.8 71.7984 74.9 71.7984C75.2 72.5984 75.6 73.2984 76 74.0984C77.2 76.2984 79.8 79.1984 82.6 78.0984C82.6 78.3984 82.5 78.6984 82.4 78.8984H82.6ZM89.4 70.8984C87.8 72.2984 85.3 70.1984 84.2 68.8984C83.9 68.4984 83.5 68.1984 82.9 68.2984C82.9 68.0984 82 68.6984 81.9 69.0984C81.9 69.3984 81.9 69.3984 81.9 69.4984C81.9 69.5984 81.9 69.7984 81.9 69.8984V70.0984C82.1 70.5984 82.1 71.1984 82.2 71.6984C82.2 71.9984 82.2 72.1984 82.2 72.4984C82.2 72.7984 82.2 73.0984 82.2 73.4984C82.2 73.7984 82.2 74.1984 82.1 74.4984C82.1 74.6984 82 74.9984 81.9 75.1984C81.9 75.2984 81.8 75.3984 81.6 75.4984C80.5 75.7984 79.1 73.4984 78.6 72.5984C78.4 72.2984 78.3 71.9984 78.1 71.5984C78.1 71.3984 77.9 71.2984 77.9 71.0984C77.9 70.8984 77.7 70.6984 77.7 70.5984C77.1 69.1984 76.5 67.4984 76.3 65.8984C76.3 65.5984 76.3 65.2984 76.2 64.9984C76.2 63.7984 76.2 62.6984 76.7 61.7984C76.8 61.5984 77 61.3984 77.1 61.2984C77.2 61.1984 77.4 61.0984 77.5 61.0984C77.7 61.0984 77.8 61.0984 78 61.0984C78.2 61.0984 78.4 61.0984 78.6 61.1984C79.5 61.4984 80.3 62.1984 81.1 62.7984C81.4 63.1984 82 62.8984 81.9 62.3984C81.9 62.3984 81.9 62.1984 81.9 62.0984C81.9 61.4984 81.7 60.5984 81.7 60.0984C81.7 59.0984 81.9 57.5984 82.9 57.1984C83 57.7984 83.3 58.3984 83.7 58.6984C84.3 59.2984 85.1 59.4984 86 59.2984C85.9 60.0984 86 60.7984 86.4 61.2984C86.9 61.9984 87.7 62.0984 88.4 62.0984C88.7 62.5984 88.9 63.1984 89.1 63.6984C89.8 65.8984 90.8 68.9984 89.3 70.8984H89.4ZM92.2 56.7984C92.2 57.0984 92.1 57.3984 92 57.6984C91.8 58.3984 91.7 59.1984 91.4 59.5984C91.1 60.4984 90.6 60.9984 89.9 61.1984C89.7 61.1984 89.5 61.1984 89.3 61.1984C89.3 61.1984 89.1 61.1984 89 61.1984C88.7 61.1984 88.4 61.1984 88.1 61.1984C87.8 61.1984 87.5 60.9984 87.4 60.7984C87.2 60.4984 87.1 59.9984 87.2 59.5984C87.2 59.5984 87.2 59.3984 87.2 59.2984C87.2 58.9984 87.5 58.2984 88.2 57.7984C88.7 57.3984 89.2 57.2984 89.5 57.2984C89.2 57.2984 88.7 57.2984 88.2 57.2984C87.2 57.4984 86.5 57.9984 86.2 58.2984C85.5 58.4984 85 58.3984 84.6 57.9984C84.3 57.7984 84.2 57.3984 84.1 56.9984C84.1 56.7984 84.1 56.5984 84.1 56.2984C84.1 56.0984 84.1 55.8984 84.1 55.5984C84.1 55.3984 84.1 55.0984 84.3 54.8984C84.7 53.4984 85.7 52.0984 86.8 51.3984C87.3 51.0984 87.7 51.0984 88.1 51.2984C88.4 51.4984 88.6 51.7984 88.6 52.2984C88.6 52.2984 88.6 52.4984 88.6 52.6984C88.6 52.6984 88.6 52.7984 88.6 52.8984C88.5 53.3984 88.3 53.9984 88.4 54.3984C88.4 54.7984 88.6 55.0984 88.7 55.2984C88.7 54.9984 88.9 54.4984 89.3 53.8984C89.7 53.4984 90.1 53.1984 90.3 53.0984C90.3 53.0984 90.3 53.0984 90.4 53.0984C91.4 52.7984 92.1 52.8984 92.5 53.2984C93 53.8984 93.1 55.0984 92.6 56.6984L92.2 56.7984ZM60.8 80.2984C60.6 80.0984 60.4 79.8984 60.1 79.7984C60.1 79.7984 60.1 79.7984 60 79.7984C59.7 79.6984 59.4 79.5984 59.2 79.5984C58.3 79.5984 57.4 79.7984 56.8 80.4984C56.6 80.6984 56.5 80.8984 56.4 81.0984C56.2 81.3984 56.1 81.7984 56.1 82.1984C55.9 83.7984 57.4 85.4984 59.1 85.2984C59.9 85.2984 60.6 84.7984 61 84.1984C61.4 83.6984 61.6 83.0984 61.6 82.4984C61.6 81.9984 61.6 81.5984 61.4 81.1984C61.3 80.8984 61.1 80.5984 60.9 80.3984L60.8 80.2984ZM59 82.9984C58.8 82.8984 58.6 82.7984 58.4 82.6984C58 82.3984 57.8 81.6984 58.2 81.1984C58.7 80.3984 59.8 80.5984 60.3 81.1984C60.3 81.5984 60.4 81.9984 60.5 82.3984C60.3 82.9984 59.6 83.1984 59.1 82.9984H59ZM32.7 62.5984C31.1 64.5984 32.5 67.2984 35 67.3984C37.4 67.2984 39 64.5984 37.3 62.5984C36.2 61.1984 33.8 61.2984 32.7 62.5984ZM36.1 65.3984C36.1 65.9984 35.5 66.4984 34.9 66.3984C34.5 66.3984 34.1 66.1984 33.9 65.8984C33.4 65.0984 34 64.0984 34.9 64.1984C35.5 64.1984 36.1 64.6984 36.1 65.3984ZM54.5 67.0984C52.8 65.1984 49.6 66.3984 49.5 68.8984C49.4 70.6984 50.8 72.2984 52.7 72.0984C55 71.8984 56 68.7984 54.5 67.0984ZM52.7 69.7984C52.5 69.7984 52.4 69.4984 52.2 69.3984C52 69.2984 51.9 69.0984 51.9 68.8984C51.6 67.8984 53 67.1984 53.8 67.8984C54.8 68.7984 54.1 70.2984 52.8 69.7984H52.7Z" fill="black"/>
<path d="M30.7 20.4984C33 20.4984 35.1 22.8984 34 25.0984C33.3 26.4984 31.8 26.9984 30.4 26.7984C29 26.4984 28.7 28.1984 29.8 28.8984H29.6L32.7 26.9984C33.1 26.5984 34.2 26.1984 34.9 26.4984C36.7 26.8984 36.9 29.2984 35.6 30.3984C34.4 31.2984 28.1 35.4984 26.8 36.4984C26.6 36.6984 26.2 36.4984 26.1 36.2984L24.1 32.6984V32.2984C24.1 31.9984 24.2 31.6984 24.5 31.5984L26.5 30.7984V31.3984C22.5 29.1984 23 24.7984 26.4 22.2984C27.7 21.2984 29.3 20.6984 31 20.3984L30.7 20.4984Z" fill="black"/>
<path d="M30.8 21.5996C26.6 22.2996 24 25.2996 24.2 27.8996C24.4 29.6996 25.9 30.8996 26.5 31.2996C25.9 31.6996 25.4 32.0996 24.8 32.3996L26.5 36.0996L35 30.3996C36.2 29.5996 36.3 28.0996 35.6 27.2996C35 26.5996 33.7 26.4996 32.8 27.2996C31.8 27.8996 30.7 28.4996 29.7 29.1996C28.8 28.7996 28.5 27.7996 28.8 27.0996C29.1 26.4996 29.8 26.0996 30.5 26.1996C31.9 26.3996 33.1 25.4996 33.3 24.4996C33.6 23.2996 32.5 21.6996 30.7 21.6996L30.8 21.5996Z" fill="url(#paint3_linear_34_26955)"/>
<path d="M20.8 67.3984C20.3 67.3984 19.7 67.3984 19.3 67.1984C18.4 66.9984 17.6 66.4984 17 65.7984C16.8 65.4984 16.6 65.1984 16.4 64.7984V64.6984C15.7 62.8984 16.4 61.1984 17.2 59.7984C15 60.0984 12.7 59.5984 11.5 57.5984V57.3984C11.1 56.4984 10.9 54.9984 12.2 53.0984C12.9 52.0984 13.7 51.2984 14.4 50.6984H14.5C15 50.1984 15.5 49.8984 16 49.4984C16.2 48.0984 17.4 46.8984 18.8 46.8984C20.2 46.8984 20.1 47.1984 20.6 47.5984C21.2 47.4984 21.8 47.3984 22.5 47.3984C23.5 47.3984 24.3 47.3984 25 47.6984C26.1 48.0984 27 48.6984 27.5 49.5984V49.7984C27.9 50.6984 27.9 51.6984 27.5 52.6984C27.5 52.8984 27.3 53.0984 27.2 53.1984C27.6 53.1984 28.1 53.1984 28.5 53.1984C30.1 53.3984 31.4 54.0984 32.2 55.1984C32.6 55.6984 32.8 56.2984 32.9 56.9984C33 57.9984 32.9 59.0984 32.3 60.0984C32.1 60.4984 31.9 60.8984 31.6 61.2984C31.6 61.4984 31.6 61.5984 31.6 61.7984C31.6 62.6984 31.4 63.5984 30.8 64.1984C30.3 64.7984 29.5 65.0984 28.8 65.0984C28.1 65.0984 28 65.0984 27.7 64.7984C27.6 64.7984 27.5 64.8984 27.4 64.9984C27.1 65.1984 26.9 65.2984 26.6 65.4984C25.8 65.8984 24.5 66.4984 23 66.7984C22.3 66.9984 21.6 67.0984 20.9 67.0984L20.8 67.3984ZM19.4 63.3984C19.4 63.3984 19.4 63.4984 19.5 63.5984C19.6 63.7984 19.8 63.8984 20.1 63.8984C20.6 63.9984 21.3 63.9984 22.2 63.8984C23.1 63.6984 24.1 63.2984 25 62.7984C25.2 62.6984 25.5 62.5984 25.7 62.3984C26 62.1984 26.4 61.9984 26.8 61.6984L27.8 60.9984L28.5 60.1984C28.9 59.6984 29.2 59.2984 29.4 58.7984C29.6 58.3984 29.7 57.9984 29.7 57.7984C29.7 57.7984 29.7 57.6984 29.6 57.4984C29.4 57.2984 29 56.9984 28.3 56.8984C27.7 56.8984 27.1 56.8984 26.5 57.1984C26.5 57.1984 26.3 57.3984 26.2 57.4984C25.4 58.2984 24.5 58.1984 24.1 58.0984C23.3 57.8984 23 57.2984 22.6 56.5984C22.6 56.4984 22.5 56.3984 22.4 56.1984C22.3 55.9984 22.2 55.7984 22.1 55.6984C21.9 55.3984 21.8 55.1984 21.8 54.9984C21.6 54.4984 21.6 53.9984 21.8 53.4984C22 52.9984 22.4 52.1984 23.8 52.0984C24 52.0984 24.2 52.0984 24.4 52.0984C24.6 51.8984 24.7 51.6984 24.7 51.5984C24.4 51.3984 23.8 51.0984 22.6 51.1984C21.9 51.1984 21.1 51.3984 20.4 51.5984L19.5 51.8984L18.6 52.3984C17.9 52.7984 17.3 53.1984 16.7 53.6984C16.2 54.1984 15.5 54.7984 15 55.4984C14.8 55.7984 14.6 56.0984 14.6 56.2984C14.7 56.4984 15 56.6984 15.7 56.7984C16.3 56.7984 17.1 56.7984 17.9 56.4984C18.5 55.5984 19.5 54.3984 20.8 54.7984C21.6 54.9984 21.9 55.6984 22.3 56.3984C22.3 56.4984 22.4 56.5984 22.5 56.7984C22.6 56.9984 22.7 57.1984 22.8 57.3984C23.2 58.1984 23.5 58.7984 23.2 59.5984C23 60.0984 22.6 60.7984 21.3 61.0984C21.2 61.0984 21 61.0984 20.8 61.0984C19.5 62.7984 19.5 63.4984 19.6 63.6984L19.4 63.3984Z" fill="black"/>
<path d="M12.9 56.6992C12.2 54.9992 14.2 53.0992 15.4 51.9992C16.1 51.3992 16.8 50.8992 17.6 50.4992C17.6 50.2992 17.4 50.0992 17.5 49.8992C17.5 49.2992 18.1 48.6992 18.7 48.6992C19.3 48.6992 19.7 49.0992 19.8 49.5992C20.7 49.2992 21.5 49.1992 22.4 49.1992C23.7 49.1992 25.3 49.3992 26 50.5992C26.4 51.6992 25.8 52.5992 25 53.4992C25 53.4992 25 53.4992 24.9 53.4992C24.3 53.4992 23.4 53.4992 23.3 53.7992C23.3 53.9992 23.3 54.0992 23.9 55.0992C24.3 55.9992 24.4 56.0992 24.5 56.1992C24.8 56.1992 25.2 55.7992 25.5 55.2992C25.7 55.2992 25.9 55.2992 26.1 55.2992C26.9 55.0992 27.7 54.8992 28.5 54.9992C29.6 55.0992 30.5 55.5992 31 56.2992C31.2 56.5992 31.4 56.8992 31.4 57.2992C31.4 57.8992 31.4 58.5992 31 59.3992C30.7 59.9992 30.3 60.5992 29.8 61.1992C30 61.4992 30.1 61.7992 30.1 62.0992C30.1 62.8992 29.6 63.5992 28.9 63.5992C28.2 63.5992 28.1 63.2992 27.8 62.9992C27.4 63.2992 27 63.5992 26.6 63.7992C26.4 63.8992 26.1 64.0992 25.8 64.1992C24.9 64.6992 23.8 65.0992 22.6 65.3992C21.6 65.5992 20.6 65.6992 19.8 65.3992C19.2 65.1992 18.7 64.9992 18.4 64.4992C18.3 64.2992 18.1 64.0992 18 63.8992C17.3 62.0992 18.9 60.0992 19.9 58.7992C20.5 58.7992 21.4 58.7992 21.5 58.3992C21.5 58.1992 21.5 58.0992 20.9 56.9992C20.5 56.0992 20.4 55.9992 20.3 55.8992C19.9 55.7992 19.2 56.7992 18.9 57.3992C18.7 57.3992 18.5 57.4992 18.4 57.5992C16.6 58.1992 14 58.2992 13 56.4992L12.9 56.6992Z" fill="url(#paint4_linear_34_26955)"/>
<path d="M50.5 94.5992C50.5 94.5992 52.6 89.0992 52 85.8992C51.8 84.7992 51.3 83.8992 51.3 83.8992C51.1 83.5992 51 83.3992 50.8 83.1992C50.5 82.8992 50.8 82.3992 51.2 82.3992C51.6 82.3992 51.5 82.3992 51.6 82.3992C51.9 82.3992 52.8 82.3992 54 81.9992C56.5 81.2992 59.3 79.5992 59.9 79.1992C59 79.3992 57.3 79.9992 55.7 81.3992C54.5 82.3992 53.8 83.4992 53.4 84.2992C52.8 85.4992 52.5 86.4992 52.4 87.1992C51.9 89.2992 52.1 90.4992 51.5 92.4992C51 93.8992 50.6 94.6992 50.5 94.6992V94.5992Z" fill="black"/>
<defs>
<linearGradient id="paint0_linear_34_26955" x1="53" y1="3" x2="53" y2="103" gradientUnits="userSpaceOnUse">
<stop stop-color="#0798D0"/>
<stop offset="0.1" stop-color="#37A5B8"/>
<stop offset="0.5" stop-color="#C3CC75"/>
<stop offset="0.7" stop-color="#FCDC5B"/>
</linearGradient>
<linearGradient id="paint1_linear_34_26955" x1="52.3" y1="3.29961" x2="52.3" y2="72.0996" gradientUnits="userSpaceOnUse">
<stop offset="0.2" stop-color="#FDC643"/>
<stop offset="0.5" stop-color="#FE6B3A"/>
</linearGradient>
<linearGradient id="paint2_linear_34_26955" x1="56.1" y1="46.5995" x2="55.1" y2="94.9995" gradientUnits="userSpaceOnUse">
<stop stop-color="#D658EE"/>
<stop offset="1" stop-color="#5F30ED"/>
</linearGradient>
<linearGradient id="paint3_linear_34_26955" x1="30.2" y1="16.4996" x2="30.1" y2="40.9996" gradientUnits="userSpaceOnUse">
<stop offset="0.2" stop-color="#FDC643"/>
<stop offset="0.5" stop-color="#FE6B3A"/>
</linearGradient>
<linearGradient id="paint4_linear_34_26955" x1="22.2" y1="47.1992" x2="21.8" y2="66.9992" gradientUnits="userSpaceOnUse">
<stop stop-color="#D658EE"/>
<stop offset="1" stop-color="#5F30ED"/>
</linearGradient>
</defs>
</svg>
