<svg width="106" height="106" viewBox="0 0 106 106" fill="none" xmlns="http://www.w3.org/2000/svg">
<rect x="1.5" y="1.5" width="103" height="103" rx="9.5" fill="#EF4037"/>
<rect x="1.5" y="1.5" width="103" height="103" rx="9.5" stroke="#2DA9E1" stroke-width="3"/>
<path d="M91.9168 80.3692C91.9168 75.3809 88.425 71.1409 83.8524 69.9769H90.4203V60.998H73.959V69.9769H78.6979C74.0422 71.1409 70.6335 75.3809 70.6335 80.3692C70.6335 85.3574 70.9661 83.1958 71.4649 84.4429H69.8853L69.6359 66.4851H62.7354C62.7354 66.5683 62.8186 75.2146 62.8186 75.2146C62.6523 73.3856 62.3198 71.8891 61.9041 71.0577L55.7519 74.0507C55.7519 74.0507 55.7519 74.0507 55.7519 73.8844C56.2507 75.464 56.417 82.2813 54.2554 84.9417C53.6734 85.6068 53.0915 85.8562 52.177 85.7731L51.8444 89.2649V83.3621H44.944V85.6068H44.7777V81.8656H49.766V70.7252H42.8655V74.9652H38.0435L37.7941 65.2381H32.9721C32.9721 65.3212 33.1384 63.3259 33.1384 63.3259H15.1806V69.6444H14.0999V92.4241H51.595C51.9275 92.5073 52.2601 92.5073 52.5926 92.5073C55.6687 92.5073 58.3291 91.0939 60.1582 88.5166C61.9872 85.8562 62.8186 82.1982 62.9849 78.8727L63.1511 91.1771H83.9356V90.5951C88.5913 89.4312 91.9999 85.1911 91.9999 80.2029L91.9168 80.3692ZM21.0003 76.7111H23.3281V81.9488H35.4663V85.7731H21.0003V76.7942V76.7111ZM81.2752 84.1935C79.1967 84.1935 77.534 82.4476 77.534 80.3692C77.534 78.2907 79.1967 76.5448 81.2752 76.5448C83.3536 76.5448 85.0164 78.2907 85.0164 80.3692C85.0164 82.4476 83.3536 84.1935 81.2752 84.1935Z" fill="#F9A981"/>
<path d="M35.7156 65.0722H52.4263V59.3357H65.8946V46.5325H90.8359V33.4798H85.7645V28.0759H70.6335V18.8476H63.733V41.0454H57.4146C57.4146 41.1285 33.9697 28.8241 33.9697 28.8241L52.0106 19.3464L48.7682 13.2773L19.3375 28.741L37.2121 38.1355L25.4065 38.385V48.4446L59.0773 47.8627V52.269L24.4089 52.4352V46.7819H17.5084V59.3357H35.7156C35.7156 59.2525 35.7156 64.9059 35.7156 64.9059V65.0722ZM76.37 36.9716H84.0186V39.5489H70.7166V36.9716H76.37Z" fill="#F9A981"/>
<path d="M88.8408 34.976H86.0973V43.2066H68.7215V20.3438H65.8948V45.9502H88.8408V34.976Z" fill="#431C54"/>
<path d="M64.0659 43.9541L30.4782 44.536V44.2866L56.5835 43.7047L30.0625 29.8207L51.3458 18.5971L49.9325 15.8535L23.4946 29.8207L44.6948 40.9611L27.4021 41.3768V47.6121L61.0729 47.0302V55.344L22.497 55.5102V47.9447H19.504V58.5863L64.0659 58.4201V43.9541Z" fill="#431C54"/>
<path d="M81.2754 70.9739C75.5388 70.9739 70.8831 75.7128 70.8831 81.4493C70.8831 87.1858 71.2988 84.9411 72.1302 86.4376H69.0541L68.8047 67.6484H63.6501L63.9827 91.5921H78.6981C79.5295 91.8415 80.444 91.9247 81.3585 91.9247C87.095 91.9247 91.7507 87.1858 91.7507 81.4493C91.7507 75.7128 87.095 70.9739 81.3585 70.9739H81.2754ZM81.2754 85.5231C79.0306 85.5231 77.2847 83.694 77.2847 81.4493C77.2847 79.2046 79.1138 77.3756 81.2754 77.3756C83.4369 77.3756 85.266 79.2046 85.266 81.4493C85.266 83.694 83.4369 85.5231 81.2754 85.5231Z" fill="#431C54"/>
<path d="M56.5833 74.7154C57.0822 75.9625 57.4979 83.3618 55.0869 86.521C54.3386 87.5186 53.5073 87.8512 52.177 87.7681L51.6782 92.9226C52.0108 92.9226 52.2602 92.9226 52.5927 92.9226C55.3363 92.9226 57.7473 91.6755 59.41 89.2645C62.985 84.1931 62.403 74.8817 61.2391 72.4707L56.5833 74.7154Z" fill="#431C54"/>
<path d="M47.7708 71.8883H45.1103V78.2899H36.1315L35.7989 66.4844L33.1385 66.5675L33.3879 78.2899L23.3282 78.2068V80.8672L36.1315 80.9503H47.7708V71.8883Z" fill="#431C54"/>
<path d="M45.9418 87.6021H20.1691V76.8773H31.5589L32.3903 65.4043H15.1808V70.5588H26.8201L26.737 71.7228H15.0145V92.8398H51.0963V84.526H45.9418V87.6021Z" fill="#431C54"/>
<path d="M43.1151 81.3652H37.1292V86.8523H43.1151V81.3652Z" fill="#431C54"/>
<path d="M76.869 30.8184H70.8831V36.3055H76.869V30.8184Z" fill="#431C54"/>
<path d="M84.102 30.8184H78.1161V36.3055H84.102V30.8184Z" fill="#431C54"/>
<path d="M43.4476 58.918H37.4617V64.4051H43.4476V58.918Z" fill="#431C54"/>
<path d="M50.7638 58.918H44.7778V64.4051H50.7638V58.918Z" fill="#431C54"/>
<path d="M81.691 63.8242H75.7051V69.3113H81.691V63.8242Z" fill="#431C54"/>
<path d="M88.6746 63.8242H82.6887V69.3113H88.6746V63.8242Z" fill="#431C54"/>
</svg>
