<svg width="104" height="104" viewBox="0 0 104 104" fill="none" xmlns="http://www.w3.org/2000/svg">
<rect x="1" y="1" width="102" height="102" rx="9" fill="#EF4037"/>
<rect x="1" y="1" width="102" height="102" rx="9" stroke="#C0282D" stroke-width="2"/>
<path d="M90.9168 79.3692C90.9168 74.3809 87.425 70.1409 82.8524 68.9769H89.4203V59.998H72.959V68.9769H77.6979C73.0422 70.1409 69.6335 74.3809 69.6335 79.3692C69.6335 84.3574 69.9661 82.1958 70.4649 83.4429H68.8853L68.6359 65.4851H61.7354C61.7354 65.5683 61.8186 74.2146 61.8186 74.2146C61.6523 72.3856 61.3198 70.8891 60.9041 70.0577L54.7519 73.0507C54.7519 73.0507 54.7519 73.0507 54.7519 72.8844C55.2507 74.464 55.417 81.2813 53.2554 83.9417C52.6734 84.6068 52.0915 84.8562 51.177 84.7731L50.8444 88.2649V82.3621H43.944V84.6068H43.7777V80.8656H48.766V69.7252H41.8655V73.9652H37.0435L36.7941 64.2381H31.9721C31.9721 64.3212 32.1384 62.3259 32.1384 62.3259H14.1806V68.6444H13.0999V91.4241H50.595C50.9275 91.5073 51.2601 91.5073 51.5926 91.5073C54.6687 91.5073 57.3291 90.0939 59.1582 87.5166C60.9872 84.8562 61.8186 81.1982 61.9849 77.8727L62.1511 90.1771H82.9356V89.5951C87.5913 88.4312 90.9999 84.1911 90.9999 79.2029L90.9168 79.3692ZM20.0003 75.7111H22.3281V80.9488H34.4663V84.7731H20.0003V75.7942V75.7111ZM80.2752 83.1935C78.1967 83.1935 76.534 81.4476 76.534 79.3692C76.534 77.2907 78.1967 75.5448 80.2752 75.5448C82.3536 75.5448 84.0164 77.2907 84.0164 79.3692C84.0164 81.4476 82.3536 83.1935 80.2752 83.1935Z" fill="#F9A981"/>
<path d="M34.7156 64.0722H51.4263V58.3357H64.8946V45.5325H89.8359V32.4798H84.7645V27.0759H69.6335V17.8476H62.733V40.0454H56.4146C56.4146 40.1285 32.9697 27.8241 32.9697 27.8241L51.0106 18.3464L47.7682 12.2773L18.3375 27.741L36.2121 37.1355L24.4065 37.385V47.4446L58.0773 46.8627V51.269L23.4089 51.4352V45.7819H16.5084V58.3357H34.7156C34.7156 58.2525 34.7156 63.9059 34.7156 63.9059V64.0722ZM75.37 35.9716H83.0186V38.5489H69.7166V35.9716H75.37Z" fill="#F9A981"/>
<path d="M87.8408 33.976H85.0973V42.2066H67.7215V19.3438H64.8948V44.9502H87.8408V33.976Z" fill="#431C54"/>
<path d="M63.0659 42.9541L29.4782 43.536V43.2866L55.5835 42.7047L29.0625 28.8207L50.3458 17.5971L48.9325 14.8535L22.4946 28.8207L43.6948 39.9611L26.4021 40.3768V46.6121L60.0729 46.0302V54.344L21.497 54.5102V46.9447H18.504V57.5863L63.0659 57.4201V42.9541Z" fill="#431C54"/>
<path d="M80.2754 69.9739C74.5388 69.9739 69.8831 74.7128 69.8831 80.4493C69.8831 86.1858 70.2988 83.9411 71.1302 85.4376H68.0541L67.8047 66.6484H62.6501L62.9827 90.5921H77.6981C78.5295 90.8415 79.444 90.9247 80.3585 90.9247C86.095 90.9247 90.7507 86.1858 90.7507 80.4493C90.7507 74.7128 86.095 69.9739 80.3585 69.9739H80.2754ZM80.2754 84.5231C78.0306 84.5231 76.2847 82.694 76.2847 80.4493C76.2847 78.2046 78.1138 76.3756 80.2754 76.3756C82.4369 76.3756 84.266 78.2046 84.266 80.4493C84.266 82.694 82.4369 84.5231 80.2754 84.5231Z" fill="#431C54"/>
<path d="M55.5833 73.7154C56.0822 74.9625 56.4979 82.3618 54.0869 85.521C53.3386 86.5186 52.5073 86.8512 51.177 86.7681L50.6782 91.9226C51.0108 91.9226 51.2602 91.9226 51.5927 91.9226C54.3363 91.9226 56.7473 90.6755 58.41 88.2645C61.985 83.1931 61.403 73.8817 60.2391 71.4707L55.5833 73.7154Z" fill="#431C54"/>
<path d="M46.7708 70.8883H44.1103V77.2899H35.1315L34.7989 65.4844L32.1385 65.5675L32.3879 77.2899L22.3282 77.2068V79.8672L35.1315 79.9503H46.7708V70.8883Z" fill="#431C54"/>
<path d="M44.9418 86.6021H19.1691V75.8773H30.5589L31.3903 64.4043H14.1808V69.5588H25.8201L25.737 70.7228H14.0145V91.8398H50.0963V83.526H44.9418V86.6021Z" fill="#431C54"/>
<path d="M42.1151 80.3652H36.1292V85.8523H42.1151V80.3652Z" fill="#431C54"/>
<path d="M75.869 29.8184H69.8831V35.3055H75.869V29.8184Z" fill="#431C54"/>
<path d="M83.102 29.8184H77.1161V35.3055H83.102V29.8184Z" fill="#431C54"/>
<path d="M42.4476 57.918H36.4617V63.4051H42.4476V57.918Z" fill="#431C54"/>
<path d="M49.7638 57.918H43.7778V63.4051H49.7638V57.918Z" fill="#431C54"/>
<path d="M80.691 62.8242H74.7051V68.3113H80.691V62.8242Z" fill="#431C54"/>
<path d="M87.6746 62.8242H81.6887V68.3113H87.6746V62.8242Z" fill="#431C54"/>
</svg>
