<svg width="104" height="104" viewBox="0 0 104 104" fill="none" xmlns="http://www.w3.org/2000/svg">
<rect x="1" y="1" width="102" height="102" rx="9" fill="#1D3F83"/>
<rect x="1" y="1" width="102" height="102" rx="9" stroke="#C0282D" stroke-width="2"/>
<path d="M39.4167 89.0834C26.5 89.0834 15.9167 78.5834 15.9167 65.5834V53.5834C15.9167 32.8334 32.8334 15.9167 53.5834 15.9167H81.6667C85.75 15.9167 89.0834 19.2501 89.0834 23.3334V81.5834C89.0834 85.6668 85.75 89.0001 81.6667 89.0001H39.5L39.4167 89.0834Z" fill="#BF252F"/>
<path d="M81.5833 16.9167C85.1667 16.9167 88.0833 19.8333 88.0833 23.4167V81.6667C88.0833 85.25 85.1667 88.1667 81.5833 88.1667H39.4167C27 88.1667 16.9167 78.0833 16.9167 65.6667V53.6667C16.9167 33.3333 33.3333 16.9167 53.5833 16.9167H81.6667H81.5833ZM81.5833 15H53.5C43.1667 15 33.5 19 26.25 26.25C19 33.5 15 43.25 15 53.5V65.5C15 79 25.9167 89.9167 39.4167 89.9167H81.5833C86.25 89.9167 90 86.1667 90 81.5V23.4167C90 18.75 86.25 15 81.5833 15Z" fill="#FAD43D" stroke="white" stroke-width="0.3" stroke-miterlimit="10"/>
<path d="M69.8336 69.8334C68.667 69.8334 68.2503 70.8334 68.0836 72.0834C67.917 73.0001 67.417 73.6668 67.0003 73.6668C66.5836 73.6668 66.417 73.3334 66.417 72.6667C66.417 72.0001 66.417 72.2501 66.417 72.0001C66.5836 72.0001 66.7503 71.9168 66.7503 71.9168C66.7503 71.9168 66.7503 71.8334 66.7503 71.7501L66.5836 71.3334C66.5836 71.3334 66.5003 71.3334 66.417 71.3334L67.0003 67.8334C67.0003 67.8334 67.0003 67.6667 66.917 67.6667H66.5003C66.5003 67.6667 66.417 67.6668 66.3336 67.7501L65.7503 71.2501C65.7503 71.2501 65.7503 71.2501 65.7503 71.3334H65.667C65.3336 71.3334 65.0836 71.3334 64.5836 71.3334C64.5836 71.1667 64.5836 71.0001 64.667 70.8334L65.167 67.9168C65.167 67.9168 65.167 67.7501 65.0836 67.7501H64.5836C64.5836 67.7501 64.5003 67.7501 64.417 67.7501C64.167 67.9168 63.5836 68.0001 63.0836 68.2501C62.167 68.5834 61.8336 69.2501 61.8336 70.0001C61.8336 70.7501 62.2503 71.1668 62.917 71.1668C62.917 71.1668 63.0003 71.1668 63.0836 71.0834V70.5834C63.167 70.5834 63.0836 70.5001 63.0836 70.4168C62.7503 70.4168 62.5836 70.0001 62.5836 69.8334C62.5836 69.4168 62.667 69.0001 63.417 68.7501C63.7503 68.6668 64.0836 68.5834 64.5003 68.4167L64.0836 70.6668C64.0836 70.8334 64.0836 71.0001 64.0003 71.1668C64.0003 71.1668 64.0003 71.1668 63.917 71.1668C62.167 71.1668 61.3336 71.8334 61.3336 73.0834C61.3336 74.3334 61.7503 74.1668 62.417 74.1668C63.5003 74.1668 64.167 73.3334 64.5836 71.9168C65.0003 71.9168 65.3336 72.0001 65.7503 71.9168C65.7503 72.0834 65.7503 72.3334 65.7503 72.5001C65.7503 73.4168 66.0003 74.0834 66.8336 74.0834C67.667 74.0834 67.667 73.8334 68.0003 73.4167C68.167 73.8334 68.417 74.0834 69.0003 74.0834C70.167 74.0834 70.5003 73.0001 70.7503 71.7501C70.7503 71.3334 70.8336 71.0001 70.8336 70.7501C70.8336 70.0834 70.5836 69.5001 69.8336 69.5001V69.8334ZM62.5003 73.6668C62.2503 73.6668 62.0003 73.3334 62.0003 73.1668C62.0003 72.5834 62.3336 72.0001 63.7503 72.0001C63.5003 73.0001 63.0836 73.6668 62.417 73.6668H62.5003ZM70.0836 72.0834C69.917 73.2501 69.667 73.7501 69.167 73.7501C68.8336 73.7501 68.667 73.5834 68.667 73.0834C68.667 72.5834 68.667 72.5001 68.7503 72.0834C69.0003 70.9168 69.167 70.5001 69.667 70.5001C70.167 70.5001 70.167 70.6668 70.167 71.1668C70.167 71.6668 70.167 71.7501 70.0836 72.0834Z" fill="#FAD43F"/>
<path d="M73.7501 73.1668L73.3335 73.0002H73.1668C73.0001 73.4168 72.7501 73.6668 72.5001 73.6668C72.2501 73.6668 71.9168 73.4168 71.9168 72.8335C71.9168 72.2502 71.9168 72.6668 71.9168 72.5002L72.2501 70.5002H73.0001C73.0001 70.5002 73.0835 70.5002 73.0835 70.4168V70.0002C73.1668 69.9168 73.0835 69.8335 73.0835 69.8335H72.4168L72.5835 68.7502C72.5835 68.6668 72.5835 68.5835 72.5001 68.5835H72.0001C72.0001 68.5835 71.9168 68.5835 71.9168 68.6668L71.7501 69.7502H71.5835C71.5835 69.7502 71.5001 69.7502 71.5001 69.8335V70.2502C71.4168 70.2502 71.5001 70.4168 71.5001 70.4168H71.5835L71.2501 72.4168C71.2501 72.5835 71.2501 72.7502 71.2501 72.9168C71.2501 73.8335 71.6668 74.2502 72.4168 74.2502C73.1668 74.2502 73.5835 73.7502 73.8335 73.1668C73.8335 73.0835 73.8335 73.0002 73.8335 73.0002L73.7501 73.1668Z" fill="#FAD43F"/>
<path d="M68.25 76.75C68.5834 76.75 68.6667 76.5833 68.75 76.25C68.75 75.9167 68.75 75.75 68.4167 75.75C68.0834 75.75 68 75.9167 67.9167 76.25C67.9167 76.5833 67.9167 76.75 68.25 76.75Z" fill="#FAD43F"/>
<path d="M82.7502 80.5001H82.3335C82.3335 80.4167 82.2502 80.4167 82.1669 80.5001C82.0002 81.0001 81.8335 81.0834 81.5835 81.0834C81.3335 81.0834 81.2502 80.9167 81.2502 80.5001C81.2502 80.0834 81.2502 80.1667 81.2502 79.9167L81.5002 78.5001C81.5002 78.4167 81.5002 78.2501 81.5002 78.1667C81.5002 77.5834 81.1669 77.1667 80.5002 77.1667C79.8335 77.1667 80.0002 77.2501 79.6669 77.5001C79.6669 77.4167 79.6669 77.3334 79.5835 77.3334H79.1669C79.1669 77.3334 79.0835 77.3334 79.0835 77.4167L78.7502 79.4167C78.5835 80.3334 78.2502 81.0834 77.2502 81.0834C76.2502 81.0834 76.3335 80.5834 76.3335 80.0001C76.3335 79.4167 76.3335 79.8334 76.3335 79.8334C77.3335 79.8334 78.0835 79.6667 78.3335 78.5834C78.3335 78.5001 78.3335 78.3334 78.3335 78.2501C78.3335 77.7501 78.0835 77.2501 77.3335 77.2501C76.3335 77.2501 75.8335 78.3334 75.6669 79.4167C75.5002 80.5001 75.1669 81.0834 74.6669 81.0834C74.1669 81.0834 73.9169 80.5834 73.8335 79.3334C74.3335 79.0001 74.7502 78.4167 75.0002 77.4167C75.0002 77.3334 75.0002 77.2501 74.9169 77.2501H74.4169C74.4169 77.2501 74.3335 77.2501 74.3335 77.3334C74.1669 78.5001 73.5835 78.8334 73.0002 78.8334L73.6669 75.2501C73.6669 75.2501 73.6669 75.0834 73.5835 75.0834H73.0835C73.0835 75.0834 73.0002 75.0834 73.0002 75.1667L72.2502 79.5001C72.0835 80.3334 71.5835 81.0001 70.8335 81.0001C70.0835 81.0001 70.0002 80.4167 70.0002 80.0001C70.0002 79.5834 70.0002 79.5834 70.0002 79.4167C70.1669 78.5001 70.4169 77.8334 70.9169 77.8334C71.4169 77.8334 71.2502 77.9167 71.2502 78.2501C71.2502 78.5834 71.2502 78.4167 71.2502 78.5001C71.2502 78.5001 71.2502 78.6667 71.3335 78.6667H71.7502C71.7502 78.6667 71.9169 78.6667 71.9169 78.5834C71.9169 78.4167 71.9169 78.2501 71.9169 78.0834C71.9169 77.5001 71.5835 77.1667 71.0002 77.1667C69.9169 77.1667 69.5002 78.3334 69.2502 79.4167C69.0002 80.5001 68.7502 81.0834 68.4169 81.0834C68.0835 81.0834 68.0002 80.9167 68.0002 80.5001C68.0002 80.0834 68.0002 80.2501 68.0002 80.1667L68.4169 77.4167C68.4169 77.4167 68.4169 77.2501 68.3335 77.2501H67.8335C67.8335 77.2501 67.7502 77.2501 67.6669 77.3334L67.3335 79.4167C67.1669 80.5001 66.9169 81.0001 66.5002 81.0001C66.0835 81.0001 66.1669 80.8334 66.1669 80.4167C66.1669 80.0001 66.1669 80.1667 66.1669 80.0834L66.5002 78.2501C66.5002 78.1667 66.5002 78.0001 66.5002 77.9167C66.5002 77.3334 66.1669 76.9167 65.5002 76.9167C64.8335 76.9167 65.0002 76.9167 64.7502 77.1667L65.0835 75.2501C65.0835 75.2501 65.0835 75.0834 65.0002 75.0834H64.5835C64.5835 75.0834 64.5002 75.0834 64.4169 75.1667L63.6669 79.2501C63.4169 80.5834 62.7502 80.9167 62.2502 80.9167C60.8335 80.9167 60.6669 79.8334 60.9169 78.5001C61.3335 76.3334 61.7502 75.5834 62.6669 75.5834C63.5835 75.5834 63.2502 75.7501 63.2502 76.0834C63.2502 76.4167 63.2502 76.3334 63.2502 76.5001C63.2502 76.5001 63.2502 76.5834 63.3335 76.6667H63.6669H63.8335C63.8335 76.5001 63.9169 76.3334 63.9169 76.1667C63.9169 75.5001 63.7502 74.9167 62.7502 74.9167C61.3335 74.9167 60.6669 76.0001 60.1669 78.5834C59.9169 80.3334 60.1669 81.6667 62.0835 81.6667C62.5002 81.6667 62.9169 81.5001 63.2502 81.2501V81.4167V81.5834H63.6669C63.6669 81.5834 63.7502 81.5834 63.8335 81.5001L64.4169 78.4167C64.5002 77.9167 65.0002 77.5834 65.3335 77.5834C65.6669 77.5834 65.7502 77.7501 65.7502 78.0001C65.7502 78.2501 65.7502 78.1667 65.7502 78.2501L65.4169 80.0834C65.4169 80.2501 65.4169 80.4167 65.4169 80.5834C65.4169 81.3334 65.8335 81.6667 66.3335 81.6667C66.8335 81.6667 67.0002 81.5001 67.2502 81.2501C67.4169 81.5834 67.6669 81.6667 68.0835 81.6667C68.5002 81.6667 68.9169 81.4167 69.1669 81.0001C69.3335 81.4167 69.7502 81.6667 70.3335 81.6667C70.9169 81.6667 71.2502 81.5001 71.5835 81.2501V81.4167C71.5835 81.5001 71.5835 81.5834 71.5835 81.5834H72.0835C72.0835 81.5834 72.1669 81.5834 72.1669 81.5001L72.5002 79.5834C72.5835 79.5834 72.7502 79.5834 72.8335 79.5834C72.9169 81.1667 73.4169 81.7501 74.2502 81.7501C75.0835 81.7501 75.1669 81.5834 75.5002 81.0001C75.7502 81.4167 76.1669 81.7501 76.8335 81.7501C77.3335 81.7501 77.7502 81.5834 78.0835 81.4167V81.5834C78.0835 81.6667 78.0835 81.7501 78.1669 81.7501H78.5835C78.5835 81.7501 78.6669 81.7501 78.6669 81.6667L79.1669 78.9167C79.3335 78.2501 79.8335 77.9167 80.0835 77.9167C80.3335 77.9167 80.5002 78.0834 80.5002 78.3334C80.5002 78.5834 80.5002 78.5001 80.5002 78.5834L80.2502 80.0001C80.2502 80.2501 80.2502 80.5001 80.2502 80.6667C80.2502 81.4167 80.5835 81.8334 81.1669 81.8334C81.7502 81.8334 82.2502 81.4167 82.5002 80.7501C82.5002 80.6667 82.5002 80.5834 82.5002 80.5834L82.7502 80.5001ZM77.2502 77.9167C77.5002 77.9167 77.6669 78.0834 77.6669 78.3334C77.6669 78.5834 77.6669 78.5001 77.6669 78.5001C77.5835 79.0001 77.3335 79.0001 76.5002 79.0834C76.6669 78.4167 76.9169 77.8334 77.3335 77.8334L77.2502 77.9167Z" fill="#FAD43F"/>
<path d="M77.8125 32.7903C77.8125 32.9557 77.8125 33.1212 77.8125 33.2866C77.7187 34.2793 77.5781 34.6929 77.25 34.6929C76.9687 34.6929 76.875 34.4447 76.875 33.7829C76.875 33.1212 76.875 33.4521 76.875 33.2866C76.9688 32.294 77.1094 31.8804 77.4375 31.8804C77.7656 31.8804 77.8125 32.1285 77.8125 32.7903Z" fill="white"/>
<path d="M70.6206 39.2956C70.1848 39.2956 69.6618 38.9565 69.1389 38.4478C68.6159 37.8543 68.1801 36.9217 68.6159 36.3282C69.8362 34.6325 70.1848 33.4455 69.749 31.9194C69.4003 30.6477 70.3591 28.8672 71.8409 28.3585C73.5841 27.765 74.8916 28.3585 75.5889 29.7999C76.1118 30.902 75.9375 32.0042 75.7632 33.1064C75.3274 35.7347 73.497 38.1086 71.0564 39.2956C71.0564 39.2956 70.7078 39.3804 70.5335 39.3804L70.6206 39.2956Z" fill="white"/>
<path d="M76.0806 29.4474C76.3017 29.7836 76.5228 30.3889 76.3017 31.3976C76.0806 32.4062 76.4491 31.532 76.5228 31.4648C76.8913 30.9941 77.6284 30.4561 78.734 30.5234C78.734 30.5234 79.1025 29.7164 76.3017 29.2457C73.5008 28.775 76.0806 29.3802 76.1543 29.4474H76.0806Z" fill="#FAD43F"/>
<path d="M73.125 30.0054C73.125 30.5262 73.3594 30.9429 73.5937 30.9429C73.8281 30.9429 74.0625 30.5262 74.0625 30.0054C74.0625 29.4845 73.8281 29.0679 73.5937 29.0679C73.3594 29.0679 73.125 29.4845 73.125 30.0054Z" fill="#BF252F"/>
<path d="M75.9375 25.3483C75.6721 25.9842 75.4068 26.6201 74.876 27.1765C74.876 27.1765 74.7876 27.256 74.6991 27.256C74.1683 27.0176 73.6376 26.8586 73.0184 26.8586C72.3992 26.8586 72.0453 26.9381 71.5146 27.097C70.8954 27.3355 70.3646 27.6534 69.9224 28.1304C69.9224 28.1304 69.8339 28.1304 69.7454 28.1304C68.6839 27.6534 68.0647 25.9842 68.6839 25.0304C69.3031 24.0765 69.0378 24.7919 69.2147 24.7919C70.0108 24.8714 70.1877 24.7919 70.1877 24.3945C70.1877 23.8381 70.0993 23.1227 70.63 22.8842C70.8954 22.7253 71.2492 22.6458 71.5146 22.5663C72.1338 22.4073 72.5761 22.5663 72.9299 22.9637C73.1068 23.2022 73.1068 23.8381 73.1068 24.2355C73.1068 24.6329 73.2838 24.3945 73.2838 24.2355C73.6376 23.9176 73.903 23.3612 74.3453 23.3612C75.3183 23.3612 76.2029 24.474 75.849 25.2688L75.9375 25.3483Z" fill="white"/>
<path d="M81.4802 42.6895C79.8336 40.4485 77.3637 39.4525 75.7994 39.4525C70.6949 39.4525 67.6487 42.2745 67.6487 46.9226C67.6487 51.5706 69.6246 51.6536 71.2712 53.2306C71.6829 53.6456 72.0945 54.0606 72.4239 54.3926C74.3998 56.5506 74.9761 57.3806 74.9761 57.9616C74.9761 59.0407 74.6468 60.4517 71.4359 60.4517C68.225 60.4517 69.1307 60.0367 68.3897 59.5387C67.8957 59.2067 67.4841 58.8747 67.1547 58.6257L66.4961 58.1277H66.3314C65.7551 57.5466 65.0965 57.7126 64.6848 58.2936C64.3555 58.7917 64.0262 59.2897 63.5322 59.7877C63.3676 59.9537 63.2029 60.1197 63.0382 60.2857C62.4619 60.8667 61.8033 61.4477 61.0623 62.0287L66.5784 27.7494C66.6608 27.2514 66.5784 26.9194 66.4138 26.7534C66.2491 26.5874 66.0021 26.3384 65.5081 26.3384H62.8736H60.4037C59.5804 26.3384 58.9217 26.9194 58.7571 27.7494L58.4278 30.8204C58.4278 31.1524 58.5924 31.4014 58.9217 31.4844H61.0623C61.0623 31.8164 60.98 32.2314 60.8977 32.6464C60.733 33.7254 60.5683 34.8044 60.4037 35.9665C60.239 37.1285 59.992 38.3735 59.8274 39.5355C59.6627 40.6975 59.4157 41.9425 59.2511 43.1045C59.0864 44.1835 58.9217 45.3455 58.7571 46.4245C58.5924 47.3376 58.5101 48.2506 58.3454 49.1636C58.2631 49.8276 58.1808 50.4086 58.0161 51.0726C57.6868 52.9816 57.3575 54.8906 56.7812 56.7166C56.4518 57.7956 56.0402 58.9577 55.3816 59.8707C54.9699 60.4517 54.4759 60.8667 53.8173 61.0327C53.5703 61.0327 53.3233 61.1157 53.0763 61.1157C52.0884 61.1157 51.512 60.6177 51.512 59.7877C51.512 58.9577 51.5944 58.6257 51.6767 58.2107C51.6767 58.0446 51.6767 57.8786 51.6767 57.7956L52.253 54.4756C52.747 54.3926 53.241 54.3096 53.735 54.1436C54.1466 54.0606 54.4759 53.9776 54.8876 53.8116C55.2169 53.7286 55.5462 53.6456 55.7932 53.4796C55.9579 53.4796 56.1225 53.3966 56.2872 53.3136C56.3695 53.3136 56.4518 53.2306 56.5342 53.0646C56.6988 52.8986 56.7812 52.7326 56.7812 52.5666C56.7812 52.3176 56.7812 51.9856 56.7812 51.7366L56.3695 50.5746C56.2872 50.3256 56.2048 50.0766 56.1225 49.7446C56.1225 49.4956 55.9579 49.2466 55.7932 48.9976C55.7932 48.9146 55.6285 48.8316 55.4639 48.8316C55.1346 48.7486 54.8052 48.8316 54.5583 48.8316C54.0643 48.9976 53.6526 49.2466 53.0763 49.3296L56.8635 27.5004C56.8635 27.0024 56.7812 26.7534 56.6165 26.5874C56.4518 26.4214 56.2048 26.2554 55.7109 26.2554H53.9819C48.3835 26.5874 45.008 35.8005 41.7148 44.7645C41.3031 45.9265 40.8915 47.0056 40.4798 48.1676C39.9035 48.1676 39.4095 48.1676 38.8332 48.1676C28.9536 48.1676 24.5078 53.8116 23.6022 58.7087C23.5198 59.3727 23.4375 60.1197 23.4375 60.7837C23.4375 64.5187 25.8251 66.3447 30.6825 66.3447C35.54 66.3447 40.8091 59.3727 43.279 53.8946C43.526 53.8946 43.773 53.9776 44.02 54.0606C45.0903 54.3096 46.0783 54.5586 47.1485 54.7246L46.6546 57.6296C46.4899 58.7087 46.3252 59.6217 46.3252 60.3687C46.3252 64.0207 48.5482 66.2617 52.1707 66.2617C55.7932 66.2617 54.3113 66.0957 55.2992 65.7637V65.9297C49.6184 69.5817 44.514 73.6488 44.514 78.5458C44.514 83.4429 46.6546 83.4429 49.6185 83.4429C56.0402 83.4429 58.4278 75.5578 59.8274 68.5857C61.8033 67.1747 64.0262 65.6807 65.9198 63.8547C67.1547 64.5187 68.8013 65.0997 70.7773 65.0997C76.1287 65.0997 79.6689 62.1117 79.6689 57.4636C79.6689 52.8156 77.94 53.1476 75.9641 51.0726C75.5524 50.5746 75.0584 50.1596 74.6468 49.7446C73.3295 48.4166 72.2592 47.3376 72.2592 46.3415C72.2592 45.3455 73.1648 44.1835 75.2231 44.1835C77.2813 44.1835 77.1167 44.7645 77.3637 45.4285C77.5283 45.7605 77.7753 45.9265 78.0223 45.9265C78.2693 45.9265 78.5986 45.9265 78.8456 45.7605L81.0685 44.3495C81.3978 44.1835 81.5625 43.8515 81.5625 43.6025C81.5625 43.4365 81.5625 43.1875 81.3155 42.8555L81.4802 42.6895ZM31.4235 61.1987C29.0359 61.1987 29.0359 60.2857 29.0359 59.6217C29.0359 56.9656 31.9175 53.0646 38.1746 53.0646C44.4317 53.0646 38.4216 53.0646 38.5862 53.0646C36.1163 58.6257 33.8934 61.1157 31.5058 61.1157L31.4235 61.1987ZM48.0542 49.5786C47.4779 49.4956 46.8192 49.3296 46.1606 49.1636C45.9136 49.1636 45.5843 48.9976 45.3373 48.9146C46.1606 46.6736 46.9839 44.5155 47.7249 42.3575C48.7951 39.2865 49.7831 36.5475 50.6887 34.4724L48.0542 49.4956V49.5786ZM50.1948 78.2968C49.5361 78.2968 49.5361 77.9648 49.5361 77.7988C49.5361 77.6328 49.5361 77.6328 49.5361 77.5498C49.8654 75.7238 51.759 73.9808 53.8996 72.4038C52.8293 76.3878 51.5944 78.2968 50.1948 78.2968Z" fill="white"/>
<path d="M35.4169 31.2501C35.6669 30.6667 35.9169 30.0834 36.0002 29.5001C36.0835 28.9167 36.0002 28.4167 35.9169 27.9167C35.5835 27.0001 34.9169 26.4167 34.4169 26.1667C34.1669 26.0001 33.9169 26.0001 33.8335 25.9167C33.6669 25.9167 33.5835 25.9167 33.5835 25.9167C33.5835 25.9167 33.5835 25.9167 33.7502 26.0001C33.9169 26.0001 34.0835 26.1667 34.2502 26.3334C34.6669 26.6667 35.0835 27.2501 35.1669 28.0834C35.2502 28.9167 34.9169 29.8334 34.3335 30.8334C34.0002 31.3334 33.6669 31.8334 33.2502 32.3334C32.8335 32.9167 32.5002 33.5001 32.1669 34.1667C31.5835 35.5001 31.4169 36.9167 31.5835 38.1667C31.7502 39.4167 32.1669 40.5001 32.6669 41.2501C33.1669 42.0834 33.6669 42.6667 34.0835 43.0001C34.2502 43.1667 34.4169 43.3334 34.5835 43.4167C34.6669 43.5001 34.7502 43.5834 34.7502 43.5834C34.7502 43.5834 34.7502 43.5834 34.6669 43.4167C34.6669 43.3334 34.4169 43.1667 34.3335 42.9167C34.0835 42.5001 33.6669 41.8334 33.4169 41.0834C33.0835 40.2501 32.9169 39.2501 32.9169 38.1667C32.9169 37.0834 33.0835 35.8334 33.6669 34.6667C34.1669 33.5001 35.0002 32.4167 35.5835 31.3334L35.4169 31.2501Z" fill="#FAD43F"/>
<path d="M38.7501 27.2501C38.5834 27.0834 38.4168 26.9167 38.3334 26.8334C38.2501 26.7501 38.1668 26.6667 38.1668 26.6667C38.1668 26.6667 38.1668 26.6667 38.2501 26.8334C38.2501 26.9167 38.4168 27.0834 38.5001 27.3334C38.5834 27.5834 38.7501 27.8334 38.8334 28.1667C38.8334 28.5001 39.0001 28.8334 39.0001 29.2501C39.0001 30.0834 38.7501 31.0001 38.0001 31.7501C37.6668 32.1667 37.1668 32.5834 36.6668 33.0834C36.1668 33.5834 35.7501 34.1667 35.4168 34.8334C34.7501 36.1667 34.5001 37.5834 34.6668 38.8334C34.8334 40.0834 35.2501 41.1667 35.8334 41.9167C36.3334 42.6667 36.9168 43.2501 37.3334 43.5834C37.5834 43.7501 37.6668 43.8334 37.8334 43.9167C37.9168 43.9167 38.0001 44.0001 38.0001 44.0001C38.0001 44.0001 38.0001 44.0001 37.8334 43.8334C37.7501 43.7501 37.6668 43.5834 37.5001 43.3334C37.2501 42.9167 36.8334 42.3334 36.5001 41.5001C36.1668 40.7501 36.0001 39.7501 36.0001 38.6667C36.0001 37.5834 36.3334 36.4167 36.8334 35.3334C37.0834 34.7501 37.5001 34.2501 37.8334 33.8334C38.2501 33.3334 38.6668 32.9167 39.0834 32.3334C39.5001 31.8334 39.7501 31.1667 39.8334 30.5834C39.9168 30.0001 39.8334 29.5001 39.8334 29.0001C39.6668 28.0834 39.1668 27.4167 38.8334 27.0001L38.7501 27.2501Z" fill="#FAD43F"/>
<path d="M33.9167 44.8335C32.6667 43.6668 31.1667 41.8335 30.1667 39.5835C29.1667 37.3335 28.7501 35.1668 28.7501 33.5002C28.7501 32.6668 28.7501 32.0002 28.7501 31.5835C28.7501 31.0835 28.7501 30.8335 28.7501 30.8335C28.7501 30.8335 28.7501 30.8335 28.6667 31.0002C28.6667 31.0835 28.5001 31.2502 28.4167 31.5002C28.2501 31.9168 28.0001 32.5835 27.8334 33.4168C27.6667 34.2502 27.5834 35.3335 27.6667 36.4168C27.7501 37.5835 28.0834 38.8335 28.5834 40.0835C29.1667 41.3335 29.9167 42.4168 30.7501 43.2502C31.5834 44.0835 32.5001 44.7502 33.2501 45.2502C34.0001 45.7502 34.7501 46.0835 35.1667 46.2502C35.4167 46.3335 35.5834 46.4168 35.7501 46.4168C35.9167 46.4168 35.9167 46.4168 35.9167 46.4168C35.9167 46.4168 35.6667 46.2502 35.2501 45.9168C34.8334 45.5835 34.3334 45.1668 33.6667 44.5835L33.9167 44.8335Z" fill="#FAD43F"/>
<path d="M40.2287 48.7858C34.5302 48.949 27.6585 50.6624 25.3121 56.2106C24.7254 57.5161 24.474 58.9031 24.3902 60.2086V60.9429C23.9712 52.0495 32.2676 48.3779 40.3125 48.7858H40.2287Z" fill="#BF252F"/>
<path d="M80.625 43.0354C77.4075 40.1853 73.53 39.6153 70.3125 42.7504C70.6425 42.3704 70.9725 41.9904 71.385 41.7054C74.2725 39.2353 78.2325 40.2803 80.625 43.1304V43.0354Z" fill="#BF252F"/>
<path d="M45.1577 76.8804C44.9796 79.6404 45.959 82.5628 49.6092 82.2381C50.9447 82.1569 52.1911 81.751 53.4375 81.264C52.4582 81.751 51.4788 82.0757 50.4105 82.3193C46.137 83.2934 44.4455 80.2898 45.1577 76.8804Z" fill="#BF252F"/>
</svg>
