<svg width="106" height="106" viewBox="0 0 106 106" fill="none" xmlns="http://www.w3.org/2000/svg">
<rect x="1.5" y="1.5" width="103" height="103" rx="9.5" fill="#1D3F83"/>
<rect x="1.5" y="1.5" width="103" height="103" rx="9.5" stroke="#2DA9E1" stroke-width="3"/>
<path d="M40.4167 90.0834C27.5 90.0834 16.9167 79.5834 16.9167 66.5834V54.5834C16.9167 33.8334 33.8334 16.9167 54.5834 16.9167H82.6667C86.75 16.9167 90.0834 20.2501 90.0834 24.3334V82.5834C90.0834 86.6668 86.75 90.0001 82.6667 90.0001H40.5L40.4167 90.0834Z" fill="#BF252F"/>
<path d="M82.5833 17.9167C86.1667 17.9167 89.0833 20.8333 89.0833 24.4167V82.6667C89.0833 86.25 86.1667 89.1667 82.5833 89.1667H40.4167C28 89.1667 17.9167 79.0833 17.9167 66.6667V54.6667C17.9167 34.3333 34.3333 17.9167 54.5833 17.9167H82.6667H82.5833ZM82.5833 16H54.5C44.1667 16 34.5 20 27.25 27.25C20 34.5 16 44.25 16 54.5V66.5C16 80 26.9167 90.9167 40.4167 90.9167H82.5833C87.25 90.9167 91 87.1667 91 82.5V24.4167C91 19.75 87.25 16 82.5833 16Z" fill="#FAD43D" stroke="white" stroke-width="0.3" stroke-miterlimit="10"/>
<path d="M70.8336 70.8334C69.667 70.8334 69.2503 71.8334 69.0836 73.0834C68.917 74.0001 68.417 74.6668 68.0003 74.6668C67.5836 74.6668 67.417 74.3334 67.417 73.6667C67.417 73.0001 67.417 73.2501 67.417 73.0001C67.5836 73.0001 67.7503 72.9168 67.7503 72.9168C67.7503 72.9168 67.7503 72.8334 67.7503 72.7501L67.5836 72.3334C67.5836 72.3334 67.5003 72.3334 67.417 72.3334L68.0003 68.8334C68.0003 68.8334 68.0003 68.6667 67.917 68.6667H67.5003C67.5003 68.6667 67.417 68.6668 67.3336 68.7501L66.7503 72.2501C66.7503 72.2501 66.7503 72.2501 66.7503 72.3334H66.667C66.3336 72.3334 66.0836 72.3334 65.5836 72.3334C65.5836 72.1667 65.5836 72.0001 65.667 71.8334L66.167 68.9168C66.167 68.9168 66.167 68.7501 66.0836 68.7501H65.5836C65.5836 68.7501 65.5003 68.7501 65.417 68.7501C65.167 68.9168 64.5836 69.0001 64.0836 69.2501C63.167 69.5834 62.8336 70.2501 62.8336 71.0001C62.8336 71.7501 63.2503 72.1668 63.917 72.1668C63.917 72.1668 64.0003 72.1668 64.0836 72.0834V71.5834C64.167 71.5834 64.0836 71.5001 64.0836 71.4168C63.7503 71.4168 63.5836 71.0001 63.5836 70.8334C63.5836 70.4168 63.667 70.0001 64.417 69.7501C64.7503 69.6668 65.0836 69.5834 65.5003 69.4167L65.0836 71.6668C65.0836 71.8334 65.0836 72.0001 65.0003 72.1668C65.0003 72.1668 65.0003 72.1668 64.917 72.1668C63.167 72.1668 62.3336 72.8334 62.3336 74.0834C62.3336 75.3334 62.7503 75.1668 63.417 75.1668C64.5003 75.1668 65.167 74.3334 65.5836 72.9168C66.0003 72.9168 66.3336 73.0001 66.7503 72.9168C66.7503 73.0834 66.7503 73.3334 66.7503 73.5001C66.7503 74.4168 67.0003 75.0834 67.8336 75.0834C68.667 75.0834 68.667 74.8334 69.0003 74.4167C69.167 74.8334 69.417 75.0834 70.0003 75.0834C71.167 75.0834 71.5003 74.0001 71.7503 72.7501C71.7503 72.3334 71.8336 72.0001 71.8336 71.7501C71.8336 71.0834 71.5836 70.5001 70.8336 70.5001V70.8334ZM63.5003 74.6668C63.2503 74.6668 63.0003 74.3334 63.0003 74.1668C63.0003 73.5834 63.3336 73.0001 64.7503 73.0001C64.5003 74.0001 64.0836 74.6668 63.417 74.6668H63.5003ZM71.0836 73.0834C70.917 74.2501 70.667 74.7501 70.167 74.7501C69.8336 74.7501 69.667 74.5834 69.667 74.0834C69.667 73.5834 69.667 73.5001 69.7503 73.0834C70.0003 71.9168 70.167 71.5001 70.667 71.5001C71.167 71.5001 71.167 71.6668 71.167 72.1668C71.167 72.6668 71.167 72.7501 71.0836 73.0834Z" fill="#FAD43F"/>
<path d="M74.7501 74.1668L74.3335 74.0002H74.1668C74.0001 74.4168 73.7501 74.6668 73.5001 74.6668C73.2501 74.6668 72.9168 74.4168 72.9168 73.8335C72.9168 73.2502 72.9168 73.6668 72.9168 73.5002L73.2501 71.5002H74.0001C74.0001 71.5002 74.0835 71.5002 74.0835 71.4168V71.0002C74.1668 70.9168 74.0835 70.8335 74.0835 70.8335H73.4168L73.5835 69.7502C73.5835 69.6668 73.5835 69.5835 73.5001 69.5835H73.0001C73.0001 69.5835 72.9168 69.5835 72.9168 69.6668L72.7501 70.7502H72.5835C72.5835 70.7502 72.5001 70.7502 72.5001 70.8335V71.2502C72.4168 71.2502 72.5001 71.4168 72.5001 71.4168H72.5835L72.2501 73.4168C72.2501 73.5835 72.2501 73.7502 72.2501 73.9168C72.2501 74.8335 72.6668 75.2502 73.4168 75.2502C74.1668 75.2502 74.5835 74.7502 74.8335 74.1668C74.8335 74.0835 74.8335 74.0002 74.8335 74.0002L74.7501 74.1668Z" fill="#FAD43F"/>
<path d="M69.25 77.75C69.5834 77.75 69.6667 77.5833 69.75 77.25C69.75 76.9167 69.75 76.75 69.4167 76.75C69.0834 76.75 69 76.9167 68.9167 77.25C68.9167 77.5833 68.9167 77.75 69.25 77.75Z" fill="#FAD43F"/>
<path d="M83.7502 81.5001H83.3335C83.3335 81.4167 83.2502 81.4167 83.1669 81.5001C83.0002 82.0001 82.8335 82.0834 82.5835 82.0834C82.3335 82.0834 82.2502 81.9167 82.2502 81.5001C82.2502 81.0834 82.2502 81.1667 82.2502 80.9167L82.5002 79.5001C82.5002 79.4167 82.5002 79.2501 82.5002 79.1667C82.5002 78.5834 82.1669 78.1667 81.5002 78.1667C80.8335 78.1667 81.0002 78.2501 80.6669 78.5001C80.6669 78.4167 80.6669 78.3334 80.5835 78.3334H80.1669C80.1669 78.3334 80.0835 78.3334 80.0835 78.4167L79.7502 80.4167C79.5835 81.3334 79.2502 82.0834 78.2502 82.0834C77.2502 82.0834 77.3335 81.5834 77.3335 81.0001C77.3335 80.4167 77.3335 80.8334 77.3335 80.8334C78.3335 80.8334 79.0835 80.6667 79.3335 79.5834C79.3335 79.5001 79.3335 79.3334 79.3335 79.2501C79.3335 78.7501 79.0835 78.2501 78.3335 78.2501C77.3335 78.2501 76.8335 79.3334 76.6669 80.4167C76.5002 81.5001 76.1669 82.0834 75.6669 82.0834C75.1669 82.0834 74.9169 81.5834 74.8335 80.3334C75.3335 80.0001 75.7502 79.4167 76.0002 78.4167C76.0002 78.3334 76.0002 78.2501 75.9169 78.2501H75.4169C75.4169 78.2501 75.3335 78.2501 75.3335 78.3334C75.1669 79.5001 74.5835 79.8334 74.0002 79.8334L74.6669 76.2501C74.6669 76.2501 74.6669 76.0834 74.5835 76.0834H74.0835C74.0835 76.0834 74.0002 76.0834 74.0002 76.1667L73.2502 80.5001C73.0835 81.3334 72.5835 82.0001 71.8335 82.0001C71.0835 82.0001 71.0002 81.4167 71.0002 81.0001C71.0002 80.5834 71.0002 80.5834 71.0002 80.4167C71.1669 79.5001 71.4169 78.8334 71.9169 78.8334C72.4169 78.8334 72.2502 78.9167 72.2502 79.2501C72.2502 79.5834 72.2502 79.4167 72.2502 79.5001C72.2502 79.5001 72.2502 79.6667 72.3335 79.6667H72.7502C72.7502 79.6667 72.9169 79.6667 72.9169 79.5834C72.9169 79.4167 72.9169 79.2501 72.9169 79.0834C72.9169 78.5001 72.5835 78.1667 72.0002 78.1667C70.9169 78.1667 70.5002 79.3334 70.2502 80.4167C70.0002 81.5001 69.7502 82.0834 69.4169 82.0834C69.0835 82.0834 69.0002 81.9167 69.0002 81.5001C69.0002 81.0834 69.0002 81.2501 69.0002 81.1667L69.4169 78.4167C69.4169 78.4167 69.4169 78.2501 69.3335 78.2501H68.8335C68.8335 78.2501 68.7502 78.2501 68.6669 78.3334L68.3335 80.4167C68.1669 81.5001 67.9169 82.0001 67.5002 82.0001C67.0835 82.0001 67.1669 81.8334 67.1669 81.4167C67.1669 81.0001 67.1669 81.1667 67.1669 81.0834L67.5002 79.2501C67.5002 79.1667 67.5002 79.0001 67.5002 78.9167C67.5002 78.3334 67.1669 77.9167 66.5002 77.9167C65.8335 77.9167 66.0002 77.9167 65.7502 78.1667L66.0835 76.2501C66.0835 76.2501 66.0835 76.0834 66.0002 76.0834H65.5835C65.5835 76.0834 65.5002 76.0834 65.4169 76.1667L64.6669 80.2501C64.4169 81.5834 63.7502 81.9167 63.2502 81.9167C61.8335 81.9167 61.6669 80.8334 61.9169 79.5001C62.3335 77.3334 62.7502 76.5834 63.6669 76.5834C64.5835 76.5834 64.2502 76.7501 64.2502 77.0834C64.2502 77.4167 64.2502 77.3334 64.2502 77.5001C64.2502 77.5001 64.2502 77.5834 64.3335 77.6667H64.6669H64.8335C64.8335 77.5001 64.9169 77.3334 64.9169 77.1667C64.9169 76.5001 64.7502 75.9167 63.7502 75.9167C62.3335 75.9167 61.6669 77.0001 61.1669 79.5834C60.9169 81.3334 61.1669 82.6667 63.0835 82.6667C63.5002 82.6667 63.9169 82.5001 64.2502 82.2501V82.4167V82.5834H64.6669C64.6669 82.5834 64.7502 82.5834 64.8335 82.5001L65.4169 79.4167C65.5002 78.9167 66.0002 78.5834 66.3335 78.5834C66.6669 78.5834 66.7502 78.7501 66.7502 79.0001C66.7502 79.2501 66.7502 79.1667 66.7502 79.2501L66.4169 81.0834C66.4169 81.2501 66.4169 81.4167 66.4169 81.5834C66.4169 82.3334 66.8335 82.6667 67.3335 82.6667C67.8335 82.6667 68.0002 82.5001 68.2502 82.2501C68.4169 82.5834 68.6669 82.6667 69.0835 82.6667C69.5002 82.6667 69.9169 82.4167 70.1669 82.0001C70.3335 82.4167 70.7502 82.6667 71.3335 82.6667C71.9169 82.6667 72.2502 82.5001 72.5835 82.2501V82.4167C72.5835 82.5001 72.5835 82.5834 72.5835 82.5834H73.0835C73.0835 82.5834 73.1669 82.5834 73.1669 82.5001L73.5002 80.5834C73.5835 80.5834 73.7502 80.5834 73.8335 80.5834C73.9169 82.1667 74.4169 82.7501 75.2502 82.7501C76.0835 82.7501 76.1669 82.5834 76.5002 82.0001C76.7502 82.4167 77.1669 82.7501 77.8335 82.7501C78.3335 82.7501 78.7502 82.5834 79.0835 82.4167V82.5834C79.0835 82.6667 79.0835 82.7501 79.1669 82.7501H79.5835C79.5835 82.7501 79.6669 82.7501 79.6669 82.6667L80.1669 79.9167C80.3335 79.2501 80.8335 78.9167 81.0835 78.9167C81.3335 78.9167 81.5002 79.0834 81.5002 79.3334C81.5002 79.5834 81.5002 79.5001 81.5002 79.5834L81.2502 81.0001C81.2502 81.2501 81.2502 81.5001 81.2502 81.6667C81.2502 82.4167 81.5835 82.8334 82.1669 82.8334C82.7502 82.8334 83.2502 82.4167 83.5002 81.7501C83.5002 81.6667 83.5002 81.5834 83.5002 81.5834L83.7502 81.5001ZM78.2502 78.9167C78.5002 78.9167 78.6669 79.0834 78.6669 79.3334C78.6669 79.5834 78.6669 79.5001 78.6669 79.5001C78.5835 80.0001 78.3335 80.0001 77.5002 80.0834C77.6669 79.4167 77.9169 78.8334 78.3335 78.8334L78.2502 78.9167Z" fill="#FAD43F"/>
<path d="M78.8125 33.7903C78.8125 33.9557 78.8125 34.1212 78.8125 34.2866C78.7187 35.2793 78.5781 35.6929 78.25 35.6929C77.9687 35.6929 77.875 35.4447 77.875 34.7829C77.875 34.1212 77.875 34.4521 77.875 34.2866C77.9688 33.294 78.1094 32.8804 78.4375 32.8804C78.7656 32.8804 78.8125 33.1285 78.8125 33.7903Z" fill="white"/>
<path d="M71.6206 40.2956C71.1848 40.2956 70.6618 39.9565 70.1389 39.4478C69.6159 38.8543 69.1801 37.9217 69.6159 37.3282C70.8362 35.6325 71.1848 34.4455 70.749 32.9194C70.4003 31.6477 71.3591 29.8672 72.8409 29.3585C74.5841 28.765 75.8916 29.3585 76.5889 30.7999C77.1118 31.902 76.9375 33.0042 76.7632 34.1064C76.3274 36.7347 74.497 39.1086 72.0564 40.2956C72.0564 40.2956 71.7078 40.3804 71.5335 40.3804L71.6206 40.2956Z" fill="white"/>
<path d="M77.0806 30.4474C77.3017 30.7836 77.5228 31.3889 77.3017 32.3976C77.0806 33.4062 77.4491 32.532 77.5228 32.4648C77.8913 31.9941 78.6284 31.4561 79.734 31.5234C79.734 31.5234 80.1025 30.7164 77.3017 30.2457C74.5008 29.775 77.0806 30.3802 77.1543 30.4474H77.0806Z" fill="#FAD43F"/>
<path d="M74.125 31.0054C74.125 31.5262 74.3594 31.9429 74.5937 31.9429C74.8281 31.9429 75.0625 31.5262 75.0625 31.0054C75.0625 30.4845 74.8281 30.0679 74.5937 30.0679C74.3594 30.0679 74.125 30.4845 74.125 31.0054Z" fill="#BF252F"/>
<path d="M76.9375 26.3483C76.6721 26.9842 76.4068 27.6201 75.876 28.1765C75.876 28.1765 75.7876 28.256 75.6991 28.256C75.1683 28.0176 74.6376 27.8586 74.0184 27.8586C73.3992 27.8586 73.0453 27.9381 72.5146 28.097C71.8954 28.3355 71.3646 28.6534 70.9224 29.1304C70.9224 29.1304 70.8339 29.1304 70.7454 29.1304C69.6839 28.6534 69.0647 26.9842 69.6839 26.0304C70.3031 25.0765 70.0378 25.7919 70.2147 25.7919C71.0108 25.8714 71.1877 25.7919 71.1877 25.3945C71.1877 24.8381 71.0993 24.1227 71.63 23.8842C71.8954 23.7253 72.2492 23.6458 72.5146 23.5663C73.1338 23.4073 73.5761 23.5663 73.9299 23.9637C74.1068 24.2022 74.1068 24.8381 74.1068 25.2355C74.1068 25.6329 74.2838 25.3945 74.2838 25.2355C74.6376 24.9176 74.903 24.3612 75.3453 24.3612C76.3183 24.3612 77.2029 25.474 76.849 26.2688L76.9375 26.3483Z" fill="white"/>
<path d="M82.4802 43.6895C80.8336 41.4485 78.3637 40.4525 76.7994 40.4525C71.6949 40.4525 68.6487 43.2745 68.6487 47.9226C68.6487 52.5706 70.6246 52.6536 72.2712 54.2306C72.6829 54.6456 73.0945 55.0606 73.4239 55.3926C75.3998 57.5506 75.9761 58.3806 75.9761 58.9616C75.9761 60.0407 75.6468 61.4517 72.4359 61.4517C69.225 61.4517 70.1307 61.0367 69.3897 60.5387C68.8957 60.2067 68.4841 59.8747 68.1547 59.6257L67.4961 59.1277H67.3314C66.7551 58.5466 66.0965 58.7126 65.6848 59.2936C65.3555 59.7917 65.0262 60.2897 64.5322 60.7877C64.3676 60.9537 64.2029 61.1197 64.0382 61.2857C63.4619 61.8667 62.8033 62.4477 62.0623 63.0287L67.5784 28.7494C67.6608 28.2514 67.5784 27.9194 67.4138 27.7534C67.2491 27.5874 67.0021 27.3384 66.5081 27.3384H63.8736H61.4037C60.5804 27.3384 59.9217 27.9194 59.7571 28.7494L59.4278 31.8204C59.4278 32.1524 59.5924 32.4014 59.9217 32.4844H62.0623C62.0623 32.8164 61.98 33.2314 61.8977 33.6464C61.733 34.7254 61.5683 35.8044 61.4037 36.9665C61.239 38.1285 60.992 39.3735 60.8274 40.5355C60.6627 41.6975 60.4157 42.9425 60.2511 44.1045C60.0864 45.1835 59.9217 46.3455 59.7571 47.4245C59.5924 48.3376 59.5101 49.2506 59.3454 50.1636C59.2631 50.8276 59.1808 51.4086 59.0161 52.0726C58.6868 53.9816 58.3575 55.8906 57.7812 57.7166C57.4518 58.7956 57.0402 59.9577 56.3816 60.8707C55.9699 61.4517 55.4759 61.8667 54.8173 62.0327C54.5703 62.0327 54.3233 62.1157 54.0763 62.1157C53.0884 62.1157 52.512 61.6177 52.512 60.7877C52.512 59.9577 52.5944 59.6257 52.6767 59.2107C52.6767 59.0446 52.6767 58.8786 52.6767 58.7956L53.253 55.4756C53.747 55.3926 54.241 55.3096 54.735 55.1436C55.1466 55.0606 55.4759 54.9776 55.8876 54.8116C56.2169 54.7286 56.5462 54.6456 56.7932 54.4796C56.9579 54.4796 57.1225 54.3966 57.2872 54.3136C57.3695 54.3136 57.4518 54.2306 57.5342 54.0646C57.6988 53.8986 57.7812 53.7326 57.7812 53.5666C57.7812 53.3176 57.7812 52.9856 57.7812 52.7366L57.3695 51.5746C57.2872 51.3256 57.2048 51.0766 57.1225 50.7446C57.1225 50.4956 56.9579 50.2466 56.7932 49.9976C56.7932 49.9146 56.6285 49.8316 56.4639 49.8316C56.1346 49.7486 55.8052 49.8316 55.5583 49.8316C55.0643 49.9976 54.6526 50.2466 54.0763 50.3296L57.8635 28.5004C57.8635 28.0024 57.7812 27.7534 57.6165 27.5874C57.4518 27.4214 57.2048 27.2554 56.7109 27.2554H54.9819C49.3835 27.5874 46.008 36.8005 42.7148 45.7645C42.3031 46.9265 41.8915 48.0056 41.4798 49.1676C40.9035 49.1676 40.4095 49.1676 39.8332 49.1676C29.9536 49.1676 25.5078 54.8116 24.6022 59.7087C24.5198 60.3727 24.4375 61.1197 24.4375 61.7837C24.4375 65.5187 26.8251 67.3447 31.6825 67.3447C36.54 67.3447 41.8091 60.3727 44.279 54.8946C44.526 54.8946 44.773 54.9776 45.02 55.0606C46.0903 55.3096 47.0783 55.5586 48.1485 55.7246L47.6546 58.6296C47.4899 59.7087 47.3252 60.6217 47.3252 61.3687C47.3252 65.0207 49.5482 67.2617 53.1707 67.2617C56.7932 67.2617 55.3113 67.0957 56.2992 66.7637V66.9297C50.6184 70.5817 45.514 74.6488 45.514 79.5458C45.514 84.4429 47.6546 84.4429 50.6185 84.4429C57.0402 84.4429 59.4278 76.5578 60.8274 69.5857C62.8033 68.1747 65.0262 66.6807 66.9198 64.8547C68.1547 65.5187 69.8013 66.0997 71.7773 66.0997C77.1287 66.0997 80.6689 63.1117 80.6689 58.4636C80.6689 53.8156 78.94 54.1476 76.9641 52.0726C76.5524 51.5746 76.0584 51.1596 75.6468 50.7446C74.3295 49.4166 73.2592 48.3376 73.2592 47.3415C73.2592 46.3455 74.1648 45.1835 76.2231 45.1835C78.2813 45.1835 78.1167 45.7645 78.3637 46.4285C78.5283 46.7605 78.7753 46.9265 79.0223 46.9265C79.2693 46.9265 79.5986 46.9265 79.8456 46.7605L82.0685 45.3495C82.3978 45.1835 82.5625 44.8515 82.5625 44.6025C82.5625 44.4365 82.5625 44.1875 82.3155 43.8555L82.4802 43.6895ZM32.4235 62.1987C30.0359 62.1987 30.0359 61.2857 30.0359 60.6217C30.0359 57.9656 32.9175 54.0646 39.1746 54.0646C45.4317 54.0646 39.4216 54.0646 39.5862 54.0646C37.1163 59.6257 34.8934 62.1157 32.5058 62.1157L32.4235 62.1987ZM49.0542 50.5786C48.4779 50.4956 47.8192 50.3296 47.1606 50.1636C46.9136 50.1636 46.5843 49.9976 46.3373 49.9146C47.1606 47.6736 47.9839 45.5155 48.7249 43.3575C49.7951 40.2865 50.7831 37.5475 51.6887 35.4724L49.0542 50.4956V50.5786ZM51.1948 79.2968C50.5361 79.2968 50.5361 78.9648 50.5361 78.7988C50.5361 78.6328 50.5361 78.6328 50.5361 78.5498C50.8654 76.7238 52.759 74.9808 54.8996 73.4038C53.8293 77.3878 52.5944 79.2968 51.1948 79.2968Z" fill="white"/>
<path d="M36.4169 32.2501C36.6669 31.6667 36.9169 31.0834 37.0002 30.5001C37.0835 29.9167 37.0002 29.4167 36.9169 28.9167C36.5835 28.0001 35.9169 27.4167 35.4169 27.1667C35.1669 27.0001 34.9169 27.0001 34.8335 26.9167C34.6669 26.9167 34.5835 26.9167 34.5835 26.9167C34.5835 26.9167 34.5835 26.9167 34.7502 27.0001C34.9169 27.0001 35.0835 27.1667 35.2502 27.3334C35.6669 27.6667 36.0835 28.2501 36.1669 29.0834C36.2502 29.9167 35.9169 30.8334 35.3335 31.8334C35.0002 32.3334 34.6669 32.8334 34.2502 33.3334C33.8335 33.9167 33.5002 34.5001 33.1669 35.1667C32.5835 36.5001 32.4169 37.9167 32.5835 39.1667C32.7502 40.4167 33.1669 41.5001 33.6669 42.2501C34.1669 43.0834 34.6669 43.6667 35.0835 44.0001C35.2502 44.1667 35.4169 44.3334 35.5835 44.4167C35.6669 44.5001 35.7502 44.5834 35.7502 44.5834C35.7502 44.5834 35.7502 44.5834 35.6669 44.4167C35.6669 44.3334 35.4169 44.1667 35.3335 43.9167C35.0835 43.5001 34.6669 42.8334 34.4169 42.0834C34.0835 41.2501 33.9169 40.2501 33.9169 39.1667C33.9169 38.0834 34.0835 36.8334 34.6669 35.6667C35.1669 34.5001 36.0002 33.4167 36.5835 32.3334L36.4169 32.2501Z" fill="#FAD43F"/>
<path d="M39.7501 28.2501C39.5834 28.0834 39.4168 27.9167 39.3334 27.8334C39.2501 27.7501 39.1668 27.6667 39.1668 27.6667C39.1668 27.6667 39.1668 27.6667 39.2501 27.8334C39.2501 27.9167 39.4168 28.0834 39.5001 28.3334C39.5834 28.5834 39.7501 28.8334 39.8334 29.1667C39.8334 29.5001 40.0001 29.8334 40.0001 30.2501C40.0001 31.0834 39.7501 32.0001 39.0001 32.7501C38.6668 33.1667 38.1668 33.5834 37.6668 34.0834C37.1668 34.5834 36.7501 35.1667 36.4168 35.8334C35.7501 37.1667 35.5001 38.5834 35.6668 39.8334C35.8334 41.0834 36.2501 42.1667 36.8334 42.9167C37.3334 43.6667 37.9168 44.2501 38.3334 44.5834C38.5834 44.7501 38.6668 44.8334 38.8334 44.9167C38.9168 44.9167 39.0001 45.0001 39.0001 45.0001C39.0001 45.0001 39.0001 45.0001 38.8334 44.8334C38.7501 44.7501 38.6668 44.5834 38.5001 44.3334C38.2501 43.9167 37.8334 43.3334 37.5001 42.5001C37.1668 41.7501 37.0001 40.7501 37.0001 39.6667C37.0001 38.5834 37.3334 37.4167 37.8334 36.3334C38.0834 35.7501 38.5001 35.2501 38.8334 34.8334C39.2501 34.3334 39.6668 33.9167 40.0834 33.3334C40.5001 32.8334 40.7501 32.1667 40.8334 31.5834C40.9168 31.0001 40.8334 30.5001 40.8334 30.0001C40.6668 29.0834 40.1668 28.4167 39.8334 28.0001L39.7501 28.2501Z" fill="#FAD43F"/>
<path d="M34.9167 45.8335C33.6667 44.6668 32.1667 42.8335 31.1667 40.5835C30.1667 38.3335 29.7501 36.1668 29.7501 34.5002C29.7501 33.6668 29.7501 33.0002 29.7501 32.5835C29.7501 32.0835 29.7501 31.8335 29.7501 31.8335C29.7501 31.8335 29.7501 31.8335 29.6667 32.0002C29.6667 32.0835 29.5001 32.2502 29.4167 32.5002C29.2501 32.9168 29.0001 33.5835 28.8334 34.4168C28.6667 35.2502 28.5834 36.3335 28.6667 37.4168C28.7501 38.5835 29.0834 39.8335 29.5834 41.0835C30.1667 42.3335 30.9167 43.4168 31.7501 44.2502C32.5834 45.0835 33.5001 45.7502 34.2501 46.2502C35.0001 46.7502 35.7501 47.0835 36.1667 47.2502C36.4167 47.3335 36.5834 47.4168 36.7501 47.4168C36.9167 47.4168 36.9167 47.4168 36.9167 47.4168C36.9167 47.4168 36.6667 47.2502 36.2501 46.9168C35.8334 46.5835 35.3334 46.1668 34.6667 45.5835L34.9167 45.8335Z" fill="#FAD43F"/>
<path d="M41.2287 49.7858C35.5302 49.949 28.6585 51.6624 26.3121 57.2106C25.7254 58.5161 25.474 59.9031 25.3902 61.2086V61.9429C24.9712 53.0495 33.2676 49.3779 41.3125 49.7858H41.2287Z" fill="#BF252F"/>
<path d="M81.625 44.0354C78.4075 41.1853 74.53 40.6153 71.3125 43.7504C71.6425 43.3704 71.9725 42.9904 72.385 42.7054C75.2725 40.2353 79.2325 41.2803 81.625 44.1304V44.0354Z" fill="#BF252F"/>
<path d="M46.1577 77.8804C45.9796 80.6404 46.959 83.5628 50.6092 83.2381C51.9447 83.1569 53.1911 82.751 54.4375 82.264C53.4582 82.751 52.4788 83.0757 51.4105 83.3193C47.137 84.2934 45.4455 81.2898 46.1577 77.8804Z" fill="#BF252F"/>
</svg>
