<svg width="106" height="106" viewBox="0 0 106 106" fill="none" xmlns="http://www.w3.org/2000/svg">
<rect x="1.5" y="1.5" width="103" height="103" rx="9.5" fill="black"/>
<rect x="1.5" y="1.5" width="103" height="103" rx="9.5" stroke="#2DA9E1" stroke-width="3"/>
<g filter="url(#filter0_d_34_15664)">
<path d="M63.0834 26L60.6667 28.5L58.1667 26L55.6667 28.5L53.25 26L50.75 28.5L48.25 26L45.8334 28.5L43.3334 26V29.3333V32.6667H49.9167H56.5H63.0834V29.3333V26Z" fill="#C2AC78"/>
<path d="M63.0834 35.9167V49.0834C63.0834 52.7501 60.1667 55.6667 56.5 55.6667V49.0834H49.9167V55.6667C46.25 55.6667 43.3334 52.7501 43.3334 49.0834V35.9167H49.9167V42.5001H56.5V35.9167H63.0834Z" fill="white"/>
</g>
<g filter="url(#filter1_d_34_15664)">
<path d="M16 62.5835H18.25V65.8335H20.75V62.5835H23V71.3335H20.75V67.6668H18.25V71.3335H16V62.5835Z" fill="white"/>
<path d="M27.5834 66.6667V68.6667H23.8334V66.6667H27.5834Z" fill="white"/>
<path d="M27 62.5835H33.25V64.5002H31.25V71.4168H29V64.5002H27V62.5835Z" fill="white"/>
<path d="M39.25 68C39.25 70.3333 38.1667 71.5 36 71.5C33.8333 71.5 32.75 70.5 32.75 68C32.75 65.5 33.8333 64.5 36 64.5C38.1667 64.5 39.25 65.5 39.25 68ZM35 68C35 69.25 35.25 69.8333 36 69.8333C36.75 69.8333 37 69.25 37 68C37 66.75 36.75 66.1667 36 66.1667C35.25 66.1667 35 66.75 35 68Z" fill="white"/>
<path d="M49.6667 64.75V65.3333C49.6667 65.8333 49.6667 66.0833 49.5 66.4167L48.3333 71.4167H45.4167L44.5833 66.4167L43.75 71.4167H40.8333L39.6667 66.4167C39.5833 66.0833 39.5 65.8333 39.5 65.3333V64.75H41.6667V65.3333C41.6667 65.5833 41.6667 65.9167 41.75 66.3333L42.3333 69.9167L43.1667 64.75H46L46.8333 69.9167L47.4167 66.3333C47.4167 65.9167 47.5 65.5833 47.5 65.3333V64.75H49.5833H49.6667Z" fill="white"/>
<path d="M56.3333 66.6667V71.3333H54.1666V67.0833C54.1666 66.4167 53.7499 66.3333 53.4999 66.3333C53.2499 66.3333 52.9166 66.5 52.4999 66.6667V71.3333H50.3333V64.6667H52.3332V65.25C52.9999 64.75 53.8332 64.5 54.4166 64.5C55.4999 64.5 56.3333 65 56.3333 66.5833V66.6667Z" fill="white"/>
<path d="M61.5833 69.6667C62.4167 69.6667 62.8333 69.4167 62.8333 68.7501C62.8333 68.0834 62.5833 68.0834 62.1667 68.0001L61.0833 67.8334C59.75 67.6667 59.1667 66.9167 59.1667 65.2501C59.1667 63.5834 60.4167 62.4167 62.3333 62.4167C64.25 62.4167 64.6667 62.6667 64.8333 62.6667L64.4167 64.4167C64.0833 64.4167 62.9167 64.1667 62.25 64.1667C61.5833 64.1667 61.3333 64.4167 61.3333 64.9167C61.3333 65.4167 61.5 65.5834 62 65.6667L63 65.8334C64.5 66.0834 65.0833 66.9167 65.0833 68.4167C65.0833 70.5001 63.9167 71.4168 61.6667 71.4168C59.4167 71.4168 59.8333 71.2501 59 71.0834L59.3333 69.1667C60.0833 69.3334 60.8333 69.5001 61.6667 69.5001L61.5833 69.6667Z" fill="white"/>
<path d="M71.9167 68C71.9167 70.3333 70.8334 71.5 68.6667 71.5C66.5001 71.5 65.4167 70.5 65.4167 68C65.4167 65.5 66.5001 64.5 68.6667 64.5C70.8334 64.5 71.9167 65.5 71.9167 68ZM67.7501 68C67.7501 69.25 68.0001 69.8333 68.7501 69.8333C69.5001 69.8333 69.7501 69.25 69.7501 68C69.7501 66.75 69.5001 66.1667 68.7501 66.1667C68.0001 66.1667 67.7501 66.75 67.7501 68Z" fill="white"/>
<path d="M77.5 64.75L77.0833 66.4167C76.75 66.4167 76.25 66.25 75.75 66.25C75.25 66.25 74.6666 66.6667 74.6666 68C74.6666 69.3333 74.9166 69.75 75.75 69.75C76.5833 69.75 76.6666 69.75 77.1666 69.5833L77.5833 71.1667C77 71.3333 76.25 71.5 75.3333 71.5C73.25 71.5 72.4166 70.4167 72.4166 68C72.4166 65.5833 73.5 64.5 75.5833 64.5C77.6666 64.5 77.0833 64.6667 77.5 64.75Z" fill="white"/>
<path d="M80.4167 63.0834C80.4167 63.7501 79.9167 64.2501 79.25 64.2501C78.5834 64.2501 78.0834 63.7501 78.0834 63.0834C78.0834 62.4167 78.5834 61.9167 79.25 61.9167C79.9167 61.9167 80.4167 62.4167 80.4167 63.0834ZM80.3334 71.3334H78.1667V64.6667H80.3334V71.3334Z" fill="white"/>
<path d="M86.7499 66.6667V71.4168H84.8333V70.9167C84.3333 71.3334 83.5833 71.5834 82.9999 71.5834C81.7499 71.5834 81.0833 70.9168 81.0833 69.5001C81.0833 68.0834 81.6666 67.6667 82.7499 67.5001C83.2499 67.4167 83.9999 67.3334 84.6666 67.3334V67.1667C84.6666 66.5001 84.3333 66.3334 83.7499 66.3334C83.1666 66.3334 82.2499 66.5001 81.8333 66.5834L81.4999 65.0001C82.2499 64.8334 83.1666 64.6667 84.1666 64.6667C85.8333 64.6667 86.7499 65.2501 86.7499 66.7501V66.6667ZM83.7499 70.0001C84.0833 70.0001 84.3333 69.9168 84.6666 69.7501V68.5834H83.9999C83.4166 68.5834 83.2499 68.8334 83.2499 69.4168C83.2499 70.0001 83.4999 70.0001 83.8333 70.0001H83.7499Z" fill="white"/>
<path d="M89.9167 61.9167V69.2501C89.9167 69.6667 90.1667 69.7501 90.4167 69.7501C90.6667 69.7501 90.6667 69.7501 90.75 69.7501L91 71.3334C90.6667 71.4167 90.0833 71.5834 89.4167 71.5834C88.25 71.5834 87.75 71.0001 87.75 69.7501V62.2501L89.9167 62.0834V61.9167Z" fill="white"/>
</g>
<g filter="url(#filter2_d_34_15664)">
<path d="M23.9166 73.6665H27.75V74.3332H26.25V79.4998H25.4166V74.3332H23.9166V73.6665Z" fill="white"/>
<path d="M30.0834 75.1666V75.8333C29.9167 75.8333 29.7501 75.8333 29.6667 75.8333C29.3334 75.8333 29.0834 76.0833 28.6667 76.7499V79.5833H27.9167V75.2499H28.6667V75.9999C29.0834 75.2499 29.4167 75.0833 29.8334 75.0833C30.2501 75.0833 30.0834 75.0833 30.1667 75.0833L30.0834 75.1666Z" fill="white"/>
<path d="M33.9167 75.1665V79.4998H33.1667V79.0832C32.6667 79.4165 32.25 79.5832 31.75 79.5832C31.25 79.5832 30.5834 79.1665 30.5834 78.3332V75.1665H31.3334V78.2498C31.3334 78.6665 31.5 78.9165 31.9167 78.9165C32.3334 78.9165 32.6667 78.7498 33.0834 78.5832V75.1665H33.8334H33.9167Z" fill="white"/>
<path d="M36.0833 78.9999C36.75 78.9999 37 78.7499 37 78.2499C37 77.7499 36.75 77.7499 36.25 77.6666H36C35.1667 77.4166 34.8333 77.1666 34.8333 76.4166C34.8333 75.6666 35.4167 75.0833 36.3333 75.0833C37.25 75.0833 37.1667 75.0833 37.5833 75.1666L37.4167 75.8333C37 75.8333 36.75 75.7499 36.3333 75.7499C35.9167 75.7499 35.5833 75.9166 35.5833 76.3333C35.5833 76.7499 35.75 76.7499 36.25 76.8333H36.4167C37.3333 77.0833 37.75 77.3333 37.75 78.1666C37.75 78.9999 37.1667 79.5833 36.0833 79.5833C35 79.5833 35.1667 79.5833 34.75 79.4166L34.9167 78.7499C35.4167 78.8333 35.75 78.9166 36.0833 78.9166V78.9999Z" fill="white"/>
<path d="M40.9166 79.4165C40.6666 79.4999 40.25 79.6665 39.8333 79.6665C39.0833 79.6665 38.9166 79.3332 38.9166 78.5832V75.9165H38.1666V75.3332H38.9166V74.3332H39.5833C39.5833 74.2499 39.5833 75.3332 39.5833 75.3332H40.6666V75.9999H39.5833V78.6665C39.5833 79.0832 39.5833 79.1665 39.9166 79.1665C40.25 79.1665 40.3333 79.1665 40.6666 78.9999L40.8333 79.4998L40.9166 79.4165Z" fill="white"/>
<path d="M42.6666 73.6665H46.5V74.3332H45V79.4998H44.1666V74.3332H42.6666V73.6665Z" fill="white"/>
<path d="M50.4167 76.3332V79.4999H49.6667V76.4166C49.6667 75.9999 49.5 75.7499 49.0834 75.7499C48.6667 75.7499 48.25 75.9166 47.8334 76.1666V79.4999H47.0834V73.4166H47.8334C47.8334 73.3332 47.8334 75.5832 47.8334 75.5832C48.3334 75.2499 48.8334 75.0832 49.25 75.0832C49.6667 75.0832 50.4167 75.4999 50.4167 76.3332Z" fill="white"/>
<path d="M54.6667 77.5H52.0833C52.0833 78.5833 52.25 79 53.1667 79C54.0833 79 54.0833 78.9167 54.4167 78.75L54.5833 79.3333C54.1667 79.5 53.6667 79.5833 53.0833 79.5833C51.5833 79.5833 51.25 78.8333 51.25 77.3333C51.25 75.8333 51.6667 75 53 75C54.3333 75 54.6667 75.5833 54.6667 76.75V77.3333V77.5ZM53.9167 76.9167C53.9167 76.0833 53.75 75.75 53.0833 75.75C52.4167 75.75 52.1667 76.1667 52.1667 76.9167H53.9167Z" fill="white"/>
<path d="M57.0833 79.4998V73.6665H58.9167C60.1667 73.6665 60.5833 74.2498 60.5833 75.4998C60.5833 76.7498 60.0833 77.4165 58.9167 77.4165H57.8333V79.4998H57H57.0833ZM57.8333 74.3332V76.7498H58.9167C59.5 76.7498 59.75 76.4165 59.75 75.4998C59.75 74.5832 59.5 74.3332 58.9167 74.3332H57.8333Z" fill="white"/>
<path d="M63.6667 75.1666V75.8333C63.5 75.8333 63.3333 75.8333 63.25 75.8333C62.9167 75.8333 62.6667 76.0833 62.25 76.7499V79.5833H61.5V75.2499H62.25V75.9999C62.6667 75.2499 63 75.0833 63.4167 75.0833C63.8333 75.0833 63.6667 75.0833 63.75 75.0833L63.6667 75.1666Z" fill="white"/>
<path d="M67.5833 77.3333C67.5833 78.7499 67.1666 79.5833 65.75 79.5833C64.3333 79.5833 63.9166 78.8333 63.9166 77.3333C63.9166 75.8333 64.3333 75.0833 65.75 75.0833C67.1666 75.0833 67.5833 75.8333 67.5833 77.3333ZM64.75 77.3333C64.75 78.5833 65 78.9999 65.75 78.9999C66.5 78.9999 66.75 78.5833 66.75 77.3333C66.75 76.0833 66.5 75.6666 65.75 75.6666C65 75.6666 64.75 76.0833 64.75 77.3333Z" fill="white"/>
<path d="M71.1667 75.2498L71 75.9165C70.75 75.9165 70.3334 75.8332 70.0834 75.8332C69.4167 75.8332 69.1667 76.2498 69.1667 77.4165C69.1667 78.5832 69.4167 78.9998 70.1667 78.9998C70.9167 78.9998 70.8334 78.9998 71.0834 78.8332L71.25 79.4998C71 79.5832 70.5 79.6665 70 79.6665C68.6667 79.6665 68.3334 78.9998 68.3334 77.4165C68.3334 75.8332 68.9167 75.1665 70.0834 75.1665C71.25 75.1665 71 75.1665 71.25 75.3332L71.1667 75.2498Z" fill="white"/>
<path d="M75.0834 77.5H72.5001C72.5001 78.5833 72.6667 79 73.5834 79C74.5001 79 74.5001 78.9167 74.8334 78.75L75.0001 79.3333C74.5834 79.5 74.0834 79.5833 73.5001 79.5833C72.0001 79.5833 71.6667 78.8333 71.6667 77.3333C71.6667 75.8333 72.0834 75 73.4167 75C74.7501 75 75.0834 75.5833 75.0834 76.75V77.3333V77.5ZM74.3334 76.9167C74.3334 76.0833 74.1667 75.75 73.5001 75.75C72.8334 75.75 72.5834 76.1667 72.5834 76.9167H74.3334Z" fill="white"/>
<path d="M77.0833 78.9999C77.75 78.9999 78 78.7499 78 78.2499C78 77.7499 77.75 77.7499 77.25 77.6666H77C76.1667 77.4166 75.8333 77.1666 75.8333 76.4166C75.8333 75.6666 76.4167 75.0833 77.3333 75.0833C78.25 75.0833 78.1667 75.0833 78.5833 75.1666L78.4167 75.8333C78 75.8333 77.75 75.7499 77.3333 75.7499C76.9167 75.7499 76.5833 75.9166 76.5833 76.3333C76.5833 76.7499 76.75 76.7499 77.25 76.8333H77.4167C78.3333 77.0833 78.75 77.3333 78.75 78.1666C78.75 78.9999 78.1667 79.5833 77.0833 79.5833C76 79.5833 76.1667 79.5833 75.75 79.4166L75.9167 78.7499C76.4167 78.8333 76.75 78.9166 77.0833 78.9166V78.9999Z" fill="white"/>
<path d="M80.75 78.9999C81.4166 78.9999 81.6666 78.7499 81.6666 78.2499C81.6666 77.7499 81.4166 77.7499 80.9166 77.6666H80.6666C79.8333 77.4166 79.5 77.1666 79.5 76.4166C79.5 75.6666 80.0833 75.0833 81 75.0833C81.9166 75.0833 81.8333 75.0833 82.25 75.1666L82.0833 75.8333C81.6666 75.8333 81.4166 75.7499 81 75.7499C80.5833 75.7499 80.25 75.9166 80.25 76.3333C80.25 76.7499 80.4166 76.7499 80.9166 76.8333H81.0833C82 77.0833 82.4166 77.3333 82.4166 78.1666C82.4166 78.9999 81.8333 79.5833 80.75 79.5833C79.6666 79.5833 79.8333 79.5833 79.4166 79.4166L79.5833 78.7499C80.0833 78.8333 80.4166 78.9166 80.75 78.9166V78.9999Z" fill="white"/>
</g>
<defs>
<filter id="filter0_d_34_15664" x="41.5334" y="24.2" width="23.35" height="33.2667" filterUnits="userSpaceOnUse" color-interpolation-filters="sRGB">
<feFlood flood-opacity="0" result="BackgroundImageFix"/>
<feColorMatrix in="SourceAlpha" type="matrix" values="0 0 0 0 0 0 0 0 0 0 0 0 0 0 0 0 0 0 127 0" result="hardAlpha"/>
<feOffset/>
<feGaussianBlur stdDeviation="0.9"/>
<feColorMatrix type="matrix" values="0 0 0 0 0 0 0 0 0 0 0 0 0 0 0 0 0 0 0.8 0"/>
<feBlend mode="normal" in2="BackgroundImageFix" result="effect1_dropShadow_34_15664"/>
<feBlend mode="normal" in="SourceGraphic" in2="effect1_dropShadow_34_15664" result="shape"/>
</filter>
<filter id="filter1_d_34_15664" x="14.2" y="60.1167" width="78.6" height="13.2667" filterUnits="userSpaceOnUse" color-interpolation-filters="sRGB">
<feFlood flood-opacity="0" result="BackgroundImageFix"/>
<feColorMatrix in="SourceAlpha" type="matrix" values="0 0 0 0 0 0 0 0 0 0 0 0 0 0 0 0 0 0 127 0" result="hardAlpha"/>
<feOffset/>
<feGaussianBlur stdDeviation="0.9"/>
<feColorMatrix type="matrix" values="0 0 0 0 0 0 0 0 0 0 0 0 0 0 0 0 0 0 0.8 0"/>
<feBlend mode="normal" in2="BackgroundImageFix" result="effect1_dropShadow_34_15664"/>
<feBlend mode="normal" in="SourceGraphic" in2="effect1_dropShadow_34_15664" result="shape"/>
</filter>
<filter id="filter2_d_34_15664" x="22.7166" y="72.2143" width="60.9" height="8.6522" filterUnits="userSpaceOnUse" color-interpolation-filters="sRGB">
<feFlood flood-opacity="0" result="BackgroundImageFix"/>
<feColorMatrix in="SourceAlpha" type="matrix" values="0 0 0 0 0 0 0 0 0 0 0 0 0 0 0 0 0 0 127 0" result="hardAlpha"/>
<feOffset/>
<feGaussianBlur stdDeviation="0.6"/>
<feColorMatrix type="matrix" values="0 0 0 0 0 0 0 0 0 0 0 0 0 0 0 0 0 0 0.8 0"/>
<feBlend mode="normal" in2="BackgroundImageFix" result="effect1_dropShadow_34_15664"/>
<feBlend mode="normal" in="SourceGraphic" in2="effect1_dropShadow_34_15664" result="shape"/>
</filter>
</defs>
</svg>
