<svg width="104" height="104" viewBox="0 0 104 104" fill="none" xmlns="http://www.w3.org/2000/svg">
<rect x="1" y="1" width="102" height="102" rx="9" fill="black"/>
<rect x="1" y="1" width="102" height="102" rx="9" stroke="#C0282D" stroke-width="2"/>
<g filter="url(#filter0_d_34_16470)">
<path d="M62.0834 25L59.6667 27.5L57.1667 25L54.6667 27.5L52.25 25L49.75 27.5L47.25 25L44.8334 27.5L42.3334 25V28.3333V31.6667H48.9167H55.5H62.0834V28.3333V25Z" fill="#C2AC78"/>
<path d="M62.0834 34.9167V48.0834C62.0834 51.7501 59.1667 54.6667 55.5 54.6667V48.0834H48.9167V54.6667C45.25 54.6667 42.3334 51.7501 42.3334 48.0834V34.9167H48.9167V41.5001H55.5V34.9167H62.0834Z" fill="white"/>
</g>
<g filter="url(#filter1_d_34_16470)">
<path d="M15 61.5835H17.25V64.8335H19.75V61.5835H22V70.3335H19.75V66.6668H17.25V70.3335H15V61.5835Z" fill="white"/>
<path d="M26.5834 65.6667V67.6667H22.8334V65.6667H26.5834Z" fill="white"/>
<path d="M26 61.5835H32.25V63.5002H30.25V70.4168H28V63.5002H26V61.5835Z" fill="white"/>
<path d="M38.25 67C38.25 69.3333 37.1667 70.5 35 70.5C32.8333 70.5 31.75 69.5 31.75 67C31.75 64.5 32.8333 63.5 35 63.5C37.1667 63.5 38.25 64.5 38.25 67ZM34 67C34 68.25 34.25 68.8333 35 68.8333C35.75 68.8333 36 68.25 36 67C36 65.75 35.75 65.1667 35 65.1667C34.25 65.1667 34 65.75 34 67Z" fill="white"/>
<path d="M48.6667 63.75V64.3333C48.6667 64.8333 48.6667 65.0833 48.5 65.4167L47.3333 70.4167H44.4167L43.5833 65.4167L42.75 70.4167H39.8333L38.6667 65.4167C38.5833 65.0833 38.5 64.8333 38.5 64.3333V63.75H40.6667V64.3333C40.6667 64.5833 40.6667 64.9167 40.75 65.3333L41.3333 68.9167L42.1667 63.75H45L45.8333 68.9167L46.4167 65.3333C46.4167 64.9167 46.5 64.5833 46.5 64.3333V63.75H48.5833H48.6667Z" fill="white"/>
<path d="M55.3333 65.6667V70.3333H53.1666V66.0833C53.1666 65.4167 52.7499 65.3333 52.4999 65.3333C52.2499 65.3333 51.9166 65.5 51.4999 65.6667V70.3333H49.3333V63.6667H51.3332V64.25C51.9999 63.75 52.8332 63.5 53.4166 63.5C54.4999 63.5 55.3333 64 55.3333 65.5833V65.6667Z" fill="white"/>
<path d="M60.5833 68.6667C61.4167 68.6667 61.8333 68.4167 61.8333 67.7501C61.8333 67.0834 61.5833 67.0834 61.1667 67.0001L60.0833 66.8334C58.75 66.6667 58.1667 65.9167 58.1667 64.2501C58.1667 62.5834 59.4167 61.4167 61.3333 61.4167C63.25 61.4167 63.6667 61.6667 63.8333 61.6667L63.4167 63.4167C63.0833 63.4167 61.9167 63.1667 61.25 63.1667C60.5833 63.1667 60.3333 63.4167 60.3333 63.9167C60.3333 64.4167 60.5 64.5834 61 64.6667L62 64.8334C63.5 65.0834 64.0833 65.9167 64.0833 67.4167C64.0833 69.5001 62.9167 70.4168 60.6667 70.4168C58.4167 70.4168 58.8333 70.2501 58 70.0834L58.3333 68.1667C59.0833 68.3334 59.8333 68.5001 60.6667 68.5001L60.5833 68.6667Z" fill="white"/>
<path d="M70.9167 67C70.9167 69.3333 69.8334 70.5 67.6667 70.5C65.5001 70.5 64.4167 69.5 64.4167 67C64.4167 64.5 65.5001 63.5 67.6667 63.5C69.8334 63.5 70.9167 64.5 70.9167 67ZM66.7501 67C66.7501 68.25 67.0001 68.8333 67.7501 68.8333C68.5001 68.8333 68.7501 68.25 68.7501 67C68.7501 65.75 68.5001 65.1667 67.7501 65.1667C67.0001 65.1667 66.7501 65.75 66.7501 67Z" fill="white"/>
<path d="M76.5 63.75L76.0833 65.4167C75.75 65.4167 75.25 65.25 74.75 65.25C74.25 65.25 73.6666 65.6667 73.6666 67C73.6666 68.3333 73.9166 68.75 74.75 68.75C75.5833 68.75 75.6666 68.75 76.1666 68.5833L76.5833 70.1667C76 70.3333 75.25 70.5 74.3333 70.5C72.25 70.5 71.4166 69.4167 71.4166 67C71.4166 64.5833 72.5 63.5 74.5833 63.5C76.6666 63.5 76.0833 63.6667 76.5 63.75Z" fill="white"/>
<path d="M79.4167 62.0834C79.4167 62.7501 78.9167 63.2501 78.25 63.2501C77.5834 63.2501 77.0834 62.7501 77.0834 62.0834C77.0834 61.4167 77.5834 60.9167 78.25 60.9167C78.9167 60.9167 79.4167 61.4167 79.4167 62.0834ZM79.3334 70.3334H77.1667V63.6667H79.3334V70.3334Z" fill="white"/>
<path d="M85.7499 65.6667V70.4168H83.8333V69.9167C83.3333 70.3334 82.5833 70.5834 81.9999 70.5834C80.7499 70.5834 80.0833 69.9168 80.0833 68.5001C80.0833 67.0834 80.6666 66.6667 81.7499 66.5001C82.2499 66.4167 82.9999 66.3334 83.6666 66.3334V66.1667C83.6666 65.5001 83.3333 65.3334 82.7499 65.3334C82.1666 65.3334 81.2499 65.5001 80.8333 65.5834L80.4999 64.0001C81.2499 63.8334 82.1666 63.6667 83.1666 63.6667C84.8333 63.6667 85.7499 64.2501 85.7499 65.7501V65.6667ZM82.7499 69.0001C83.0833 69.0001 83.3333 68.9168 83.6666 68.7501V67.5834H82.9999C82.4166 67.5834 82.2499 67.8334 82.2499 68.4168C82.2499 69.0001 82.4999 69.0001 82.8333 69.0001H82.7499Z" fill="white"/>
<path d="M88.9167 60.9167V68.2501C88.9167 68.6667 89.1667 68.7501 89.4167 68.7501C89.6667 68.7501 89.6667 68.7501 89.75 68.7501L90 70.3334C89.6667 70.4167 89.0833 70.5834 88.4167 70.5834C87.25 70.5834 86.75 70.0001 86.75 68.7501V61.2501L88.9167 61.0834V60.9167Z" fill="white"/>
</g>
<g filter="url(#filter2_d_34_16470)">
<path d="M22.9166 72.6665H26.75V73.3332H25.25V78.4998H24.4166V73.3332H22.9166V72.6665Z" fill="white"/>
<path d="M29.0834 74.1666V74.8333C28.9167 74.8333 28.7501 74.8333 28.6667 74.8333C28.3334 74.8333 28.0834 75.0833 27.6667 75.7499V78.5833H26.9167V74.2499H27.6667V74.9999C28.0834 74.2499 28.4167 74.0833 28.8334 74.0833C29.2501 74.0833 29.0834 74.0833 29.1667 74.0833L29.0834 74.1666Z" fill="white"/>
<path d="M32.9167 74.1665V78.4998H32.1667V78.0832C31.6667 78.4165 31.25 78.5832 30.75 78.5832C30.25 78.5832 29.5834 78.1665 29.5834 77.3332V74.1665H30.3334V77.2498C30.3334 77.6665 30.5 77.9165 30.9167 77.9165C31.3334 77.9165 31.6667 77.7498 32.0834 77.5832V74.1665H32.8334H32.9167Z" fill="white"/>
<path d="M35.0833 77.9999C35.75 77.9999 36 77.7499 36 77.2499C36 76.7499 35.75 76.7499 35.25 76.6666H35C34.1667 76.4166 33.8333 76.1666 33.8333 75.4166C33.8333 74.6666 34.4167 74.0833 35.3333 74.0833C36.25 74.0833 36.1667 74.0833 36.5833 74.1666L36.4167 74.8333C36 74.8333 35.75 74.7499 35.3333 74.7499C34.9167 74.7499 34.5833 74.9166 34.5833 75.3333C34.5833 75.7499 34.75 75.7499 35.25 75.8333H35.4167C36.3333 76.0833 36.75 76.3333 36.75 77.1666C36.75 77.9999 36.1667 78.5833 35.0833 78.5833C34 78.5833 34.1667 78.5833 33.75 78.4166L33.9167 77.7499C34.4167 77.8333 34.75 77.9166 35.0833 77.9166V77.9999Z" fill="white"/>
<path d="M39.9166 78.4165C39.6666 78.4999 39.25 78.6665 38.8333 78.6665C38.0833 78.6665 37.9166 78.3332 37.9166 77.5832V74.9165H37.1666V74.3332H37.9166V73.3332H38.5833C38.5833 73.2499 38.5833 74.3332 38.5833 74.3332H39.6666V74.9999H38.5833V77.6665C38.5833 78.0832 38.5833 78.1665 38.9166 78.1665C39.25 78.1665 39.3333 78.1665 39.6666 77.9999L39.8333 78.4998L39.9166 78.4165Z" fill="white"/>
<path d="M41.6666 72.6665H45.5V73.3332H44V78.4998H43.1666V73.3332H41.6666V72.6665Z" fill="white"/>
<path d="M49.4167 75.3332V78.4999H48.6667V75.4166C48.6667 74.9999 48.5 74.7499 48.0834 74.7499C47.6667 74.7499 47.25 74.9166 46.8334 75.1666V78.4999H46.0834V72.4166H46.8334C46.8334 72.3332 46.8334 74.5832 46.8334 74.5832C47.3334 74.2499 47.8334 74.0832 48.25 74.0832C48.6667 74.0832 49.4167 74.4999 49.4167 75.3332Z" fill="white"/>
<path d="M53.6667 76.5H51.0833C51.0833 77.5833 51.25 78 52.1667 78C53.0833 78 53.0833 77.9167 53.4167 77.75L53.5833 78.3333C53.1667 78.5 52.6667 78.5833 52.0833 78.5833C50.5833 78.5833 50.25 77.8333 50.25 76.3333C50.25 74.8333 50.6667 74 52 74C53.3333 74 53.6667 74.5833 53.6667 75.75V76.3333V76.5ZM52.9167 75.9167C52.9167 75.0833 52.75 74.75 52.0833 74.75C51.4167 74.75 51.1667 75.1667 51.1667 75.9167H52.9167Z" fill="white"/>
<path d="M56.0833 78.4998V72.6665H57.9167C59.1667 72.6665 59.5833 73.2498 59.5833 74.4998C59.5833 75.7498 59.0833 76.4165 57.9167 76.4165H56.8333V78.4998H56H56.0833ZM56.8333 73.3332V75.7498H57.9167C58.5 75.7498 58.75 75.4165 58.75 74.4998C58.75 73.5832 58.5 73.3332 57.9167 73.3332H56.8333Z" fill="white"/>
<path d="M62.6667 74.1666V74.8333C62.5 74.8333 62.3333 74.8333 62.25 74.8333C61.9167 74.8333 61.6667 75.0833 61.25 75.7499V78.5833H60.5V74.2499H61.25V74.9999C61.6667 74.2499 62 74.0833 62.4167 74.0833C62.8333 74.0833 62.6667 74.0833 62.75 74.0833L62.6667 74.1666Z" fill="white"/>
<path d="M66.5833 76.3333C66.5833 77.7499 66.1666 78.5833 64.75 78.5833C63.3333 78.5833 62.9166 77.8333 62.9166 76.3333C62.9166 74.8333 63.3333 74.0833 64.75 74.0833C66.1666 74.0833 66.5833 74.8333 66.5833 76.3333ZM63.75 76.3333C63.75 77.5833 64 77.9999 64.75 77.9999C65.5 77.9999 65.75 77.5833 65.75 76.3333C65.75 75.0833 65.5 74.6666 64.75 74.6666C64 74.6666 63.75 75.0833 63.75 76.3333Z" fill="white"/>
<path d="M70.1667 74.2498L70 74.9165C69.75 74.9165 69.3334 74.8332 69.0834 74.8332C68.4167 74.8332 68.1667 75.2498 68.1667 76.4165C68.1667 77.5832 68.4167 77.9998 69.1667 77.9998C69.9167 77.9998 69.8334 77.9998 70.0834 77.8332L70.25 78.4998C70 78.5832 69.5 78.6665 69 78.6665C67.6667 78.6665 67.3334 77.9998 67.3334 76.4165C67.3334 74.8332 67.9167 74.1665 69.0834 74.1665C70.25 74.1665 70 74.1665 70.25 74.3332L70.1667 74.2498Z" fill="white"/>
<path d="M74.0834 76.5H71.5001C71.5001 77.5833 71.6667 78 72.5834 78C73.5001 78 73.5001 77.9167 73.8334 77.75L74.0001 78.3333C73.5834 78.5 73.0834 78.5833 72.5001 78.5833C71.0001 78.5833 70.6667 77.8333 70.6667 76.3333C70.6667 74.8333 71.0834 74 72.4167 74C73.7501 74 74.0834 74.5833 74.0834 75.75V76.3333V76.5ZM73.3334 75.9167C73.3334 75.0833 73.1667 74.75 72.5001 74.75C71.8334 74.75 71.5834 75.1667 71.5834 75.9167H73.3334Z" fill="white"/>
<path d="M76.0833 77.9999C76.75 77.9999 77 77.7499 77 77.2499C77 76.7499 76.75 76.7499 76.25 76.6666H76C75.1667 76.4166 74.8333 76.1666 74.8333 75.4166C74.8333 74.6666 75.4167 74.0833 76.3333 74.0833C77.25 74.0833 77.1667 74.0833 77.5833 74.1666L77.4167 74.8333C77 74.8333 76.75 74.7499 76.3333 74.7499C75.9167 74.7499 75.5833 74.9166 75.5833 75.3333C75.5833 75.7499 75.75 75.7499 76.25 75.8333H76.4167C77.3333 76.0833 77.75 76.3333 77.75 77.1666C77.75 77.9999 77.1667 78.5833 76.0833 78.5833C75 78.5833 75.1667 78.5833 74.75 78.4166L74.9167 77.7499C75.4167 77.8333 75.75 77.9166 76.0833 77.9166V77.9999Z" fill="white"/>
<path d="M79.75 77.9999C80.4166 77.9999 80.6666 77.7499 80.6666 77.2499C80.6666 76.7499 80.4166 76.7499 79.9166 76.6666H79.6666C78.8333 76.4166 78.5 76.1666 78.5 75.4166C78.5 74.6666 79.0833 74.0833 80 74.0833C80.9166 74.0833 80.8333 74.0833 81.25 74.1666L81.0833 74.8333C80.6666 74.8333 80.4166 74.7499 80 74.7499C79.5833 74.7499 79.25 74.9166 79.25 75.3333C79.25 75.7499 79.4166 75.7499 79.9166 75.8333H80.0833C81 76.0833 81.4166 76.3333 81.4166 77.1666C81.4166 77.9999 80.8333 78.5833 79.75 78.5833C78.6666 78.5833 78.8333 78.5833 78.4166 78.4166L78.5833 77.7499C79.0833 77.8333 79.4166 77.9166 79.75 77.9166V77.9999Z" fill="white"/>
</g>
<defs>
<filter id="filter0_d_34_16470" x="40.5334" y="23.2" width="23.35" height="33.2667" filterUnits="userSpaceOnUse" color-interpolation-filters="sRGB">
<feFlood flood-opacity="0" result="BackgroundImageFix"/>
<feColorMatrix in="SourceAlpha" type="matrix" values="0 0 0 0 0 0 0 0 0 0 0 0 0 0 0 0 0 0 127 0" result="hardAlpha"/>
<feOffset/>
<feGaussianBlur stdDeviation="0.9"/>
<feColorMatrix type="matrix" values="0 0 0 0 0 0 0 0 0 0 0 0 0 0 0 0 0 0 0.8 0"/>
<feBlend mode="normal" in2="BackgroundImageFix" result="effect1_dropShadow_34_16470"/>
<feBlend mode="normal" in="SourceGraphic" in2="effect1_dropShadow_34_16470" result="shape"/>
</filter>
<filter id="filter1_d_34_16470" x="13.2" y="59.1167" width="78.6" height="13.2667" filterUnits="userSpaceOnUse" color-interpolation-filters="sRGB">
<feFlood flood-opacity="0" result="BackgroundImageFix"/>
<feColorMatrix in="SourceAlpha" type="matrix" values="0 0 0 0 0 0 0 0 0 0 0 0 0 0 0 0 0 0 127 0" result="hardAlpha"/>
<feOffset/>
<feGaussianBlur stdDeviation="0.9"/>
<feColorMatrix type="matrix" values="0 0 0 0 0 0 0 0 0 0 0 0 0 0 0 0 0 0 0.8 0"/>
<feBlend mode="normal" in2="BackgroundImageFix" result="effect1_dropShadow_34_16470"/>
<feBlend mode="normal" in="SourceGraphic" in2="effect1_dropShadow_34_16470" result="shape"/>
</filter>
<filter id="filter2_d_34_16470" x="21.7166" y="71.2143" width="60.9" height="8.6522" filterUnits="userSpaceOnUse" color-interpolation-filters="sRGB">
<feFlood flood-opacity="0" result="BackgroundImageFix"/>
<feColorMatrix in="SourceAlpha" type="matrix" values="0 0 0 0 0 0 0 0 0 0 0 0 0 0 0 0 0 0 127 0" result="hardAlpha"/>
<feOffset/>
<feGaussianBlur stdDeviation="0.6"/>
<feColorMatrix type="matrix" values="0 0 0 0 0 0 0 0 0 0 0 0 0 0 0 0 0 0 0.8 0"/>
<feBlend mode="normal" in2="BackgroundImageFix" result="effect1_dropShadow_34_16470"/>
<feBlend mode="normal" in="SourceGraphic" in2="effect1_dropShadow_34_16470" result="shape"/>
</filter>
</defs>
</svg>
