<svg width="106" height="106" viewBox="0 0 106 106" fill="none" xmlns="http://www.w3.org/2000/svg">
<rect x="1.5" y="1.5" width="103" height="103" rx="9.5" fill="#151029"/>
<rect x="1.5" y="1.5" width="103" height="103" rx="9.5" stroke="#2DA9E1" stroke-width="3"/>
<path d="M68.3643 80.667H38.4885V86.0763H68.3643V80.667Z" fill="#EB008B"/>
<path d="M22.8433 78.3369C21.5118 76.5893 21.5118 74.5088 21.595 73.843V73.5934V73.5102C22.8433 68.517 23.5923 63.3574 23.7587 58.1978C23.8419 54.869 23.7587 51.457 23.4258 48.1282V47.9618V47.7954C23.509 46.8799 23.9251 45.9645 24.5909 45.2988C25.2566 44.633 26.1721 44.3001 27.0875 44.2169H27.1707H27.2539C29.7505 44.3834 34.8269 44.7162 34.8269 44.7162H38.4885V29.2374C36.8241 31.8172 35.5758 34.7299 35.0765 37.8922L34.8269 39.307H33.4121C31.7478 39.1405 29.168 38.9741 27.5868 38.8077H27.2539H26.921C24.5909 38.8077 22.344 39.8063 20.7628 41.3875C19.0984 42.9686 18.0998 45.1323 17.9333 47.4625V48.045V48.6276C18.2662 51.7067 18.3494 54.869 18.2662 57.9481C18.0998 62.6916 17.434 67.4351 16.2689 72.0954L16.0193 73.5102C15.9361 74.9249 16.0193 78.5033 18.4326 81.6657C21.595 85.7434 26.2553 86.1595 27.5868 86.1595H38.4053V80.7503H27.5868C27.0875 80.7503 24.3412 80.5838 22.6768 78.4201L22.8433 78.3369Z" fill="#00ADEE"/>
<path d="M68.4475 44.7162V28.3219C68.1979 27.9891 68.0315 27.6562 67.7818 27.3233C63.3712 21.3315 58.1283 20 54.4667 20C48.142 20 42.2334 23.6617 38.5718 29.1541V44.6329H68.4475V44.7162ZM43.981 30.5689C46.9769 26.9904 50.5554 24.9932 54.1338 24.9932C57.7122 24.9932 60.7914 26.824 63.3712 30.3192C64.8691 32.2333 66.1174 34.6466 67.116 37.4761L67.7818 39.3069H39.2375L39.9865 37.4761C41.0684 34.7298 42.3999 32.4829 43.981 30.5689Z" fill="#EB008B"/>
<path d="M91 73.3437V72.7611L90.8335 72.1786C89.6685 67.5183 88.9195 62.7748 88.8363 57.9481C88.753 54.869 88.8363 51.7066 89.1691 48.6275V48.1282V47.6289C89.1691 46.547 88.753 43.7176 86.3397 41.4706C84.5921 39.8062 82.3452 38.8908 80.015 38.8908H79.4325C77.8513 39.0573 75.2715 39.2237 73.6071 39.3069H72.1924C72.1924 39.3901 72.0259 37.9754 72.0259 37.9754C71.5266 34.5634 70.2783 31.3179 68.4475 28.4884V44.8826H72.1924H72.3588C72.3588 44.8826 77.2688 44.633 79.7653 44.3833H80.015C80.9304 44.3833 81.7626 44.7994 82.5116 45.4652C83.427 46.3806 83.6767 47.5457 83.6767 47.9617V48.1282V48.2946C83.3438 51.6234 83.1773 55.0354 83.3438 58.3642C83.5102 63.5238 84.2592 68.6834 85.5075 73.6765V73.843V74.0094C85.5907 75.8403 85.0082 77.6711 83.7599 79.0026C82.5948 80.2509 81.0136 80.9999 79.3493 80.9999H68.4475V86.4091H79.3493C82.5948 86.4091 85.5907 85.0776 87.7544 82.7475C90.0013 80.3341 91.1664 77.0053 90.9168 73.5933L91 73.3437Z" fill="#FFF100"/>
<path d="M45.4789 67.5182C42.3998 67.5182 39.9032 65.0216 39.9032 61.9425C39.9032 58.8634 42.3998 56.3668 45.4789 56.3668H52.8854V67.6014H45.4789V67.5182Z" fill="#2BA8E0"/>
<path d="M52.6359 56.6165V67.2686H45.479C42.5663 67.2686 40.1529 64.8552 40.1529 61.9425C40.1529 59.0298 42.5663 56.6165 45.479 56.6165H52.6359ZM53.1352 56.0339H45.3958C42.1502 56.0339 39.4872 58.697 39.4872 61.9425C39.4872 65.1881 42.1502 67.8511 45.3958 67.8511H53.1352V56.1172V56.0339Z" fill="black"/>
<path d="M52.303 67.5183V56.2837H59.7095C62.7886 56.2837 65.2852 58.7803 65.2852 61.8594C65.2852 64.9385 62.7886 67.4351 59.7095 67.4351H52.303V67.5183Z" fill="#BE272D"/>
<path d="M59.7926 56.6166C62.7053 56.6166 65.1187 59.0299 65.1187 61.9426C65.1187 64.8553 62.7053 67.2686 59.7926 67.2686H52.6358V56.6166H59.7926ZM59.7926 56.034H52.0532V67.768H59.7926C63.0382 67.768 65.7012 65.1049 65.7012 61.8594C65.7012 58.6138 63.0382 55.9508 59.7926 55.9508V56.034Z" fill="black"/>
</svg>
