<svg width="104" height="104" viewBox="0 0 104 104" fill="none" xmlns="http://www.w3.org/2000/svg">
<rect x="1" y="1" width="102" height="102" rx="9" fill="#151029"/>
<rect x="1" y="1" width="102" height="102" rx="9" stroke="#C0282D" stroke-width="2"/>
<path d="M67.3643 79.667H37.4885V85.0763H67.3643V79.667Z" fill="#EB008B"/>
<path d="M21.8433 77.3369C20.5118 75.5893 20.5118 73.5088 20.595 72.843V72.5934V72.5102C21.8433 67.517 22.5923 62.3574 22.7587 57.1978C22.8419 53.869 22.7587 50.457 22.4258 47.1282V46.9618V46.7954C22.509 45.8799 22.9251 44.9645 23.5909 44.2988C24.2566 43.633 25.1721 43.3001 26.0875 43.2169H26.1707H26.2539C28.7505 43.3834 33.8269 43.7162 33.8269 43.7162H37.4885V28.2374C35.8241 30.8172 34.5758 33.7299 34.0765 36.8922L33.8269 38.307H32.4121C30.7478 38.1405 28.168 37.9741 26.5868 37.8077H26.2539H25.921C23.5909 37.8077 21.344 38.8063 19.7628 40.3875C18.0984 41.9686 17.0998 44.1323 16.9333 46.4625V47.045V47.6276C17.2662 50.7067 17.3494 53.869 17.2662 56.9481C17.0998 61.6916 16.434 66.4351 15.2689 71.0954L15.0193 72.5102C14.9361 73.9249 15.0193 77.5033 17.4326 80.6657C20.595 84.7434 25.2553 85.1595 26.5868 85.1595H37.4053V79.7503H26.5868C26.0875 79.7503 23.3412 79.5838 21.6768 77.4201L21.8433 77.3369Z" fill="#00ADEE"/>
<path d="M67.4475 43.7162V27.3219C67.1979 26.9891 67.0315 26.6562 66.7818 26.3233C62.3712 20.3315 57.1283 19 53.4667 19C47.142 19 41.2334 22.6617 37.5718 28.1541V43.6329H67.4475V43.7162ZM42.981 29.5689C45.9769 25.9904 49.5554 23.9932 53.1338 23.9932C56.7122 23.9932 59.7914 25.824 62.3712 29.3192C63.8691 31.2333 65.1174 33.6466 66.116 36.4761L66.7818 38.3069H38.2375L38.9865 36.4761C40.0684 33.7298 41.3999 31.4829 42.981 29.5689Z" fill="#EB008B"/>
<path d="M90 72.3437V71.7611L89.8335 71.1786C88.6685 66.5183 87.9195 61.7748 87.8363 56.9481C87.753 53.869 87.8363 50.7066 88.1691 47.6275V47.1282V46.6289C88.1691 45.547 87.753 42.7176 85.3397 40.4706C83.5921 38.8062 81.3452 37.8908 79.015 37.8908H78.4325C76.8513 38.0573 74.2715 38.2237 72.6071 38.3069H71.1924C71.1924 38.3901 71.0259 36.9754 71.0259 36.9754C70.5266 33.5634 69.2783 30.3179 67.4475 27.4884V43.8826H71.1924H71.3588C71.3588 43.8826 76.2688 43.633 78.7653 43.3833H79.015C79.9304 43.3833 80.7626 43.7994 81.5116 44.4652C82.427 45.3806 82.6767 46.5457 82.6767 46.9617V47.1282V47.2946C82.3438 50.6234 82.1773 54.0354 82.3438 57.3642C82.5102 62.5238 83.2592 67.6834 84.5075 72.6765V72.843V73.0094C84.5907 74.8403 84.0082 76.6711 82.7599 78.0026C81.5948 79.2509 80.0136 79.9999 78.3493 79.9999H67.4475V85.4091H78.3493C81.5948 85.4091 84.5907 84.0776 86.7544 81.7475C89.0013 79.3341 90.1664 76.0053 89.9168 72.5933L90 72.3437Z" fill="#FFF100"/>
<path d="M44.4789 66.5182C41.3998 66.5182 38.9032 64.0216 38.9032 60.9425C38.9032 57.8634 41.3998 55.3668 44.4789 55.3668H51.8854V66.6014H44.4789V66.5182Z" fill="#2BA8E0"/>
<path d="M51.6359 55.6165V66.2686H44.479C41.5663 66.2686 39.1529 63.8552 39.1529 60.9425C39.1529 58.0298 41.5663 55.6165 44.479 55.6165H51.6359ZM52.1352 55.0339H44.3958C41.1502 55.0339 38.4872 57.697 38.4872 60.9425C38.4872 64.1881 41.1502 66.8511 44.3958 66.8511H52.1352V55.1172V55.0339Z" fill="black"/>
<path d="M51.303 66.5183V55.2837H58.7095C61.7886 55.2837 64.2852 57.7803 64.2852 60.8594C64.2852 63.9385 61.7886 66.4351 58.7095 66.4351H51.303V66.5183Z" fill="#BE272D"/>
<path d="M58.7926 55.6166C61.7053 55.6166 64.1187 58.0299 64.1187 60.9426C64.1187 63.8553 61.7053 66.2686 58.7926 66.2686H51.6358V55.6166H58.7926ZM58.7926 55.034H51.0532V66.768H58.7926C62.0382 66.768 64.7012 64.1049 64.7012 60.8594C64.7012 57.6138 62.0382 54.9508 58.7926 54.9508V55.034Z" fill="black"/>
</svg>
